<?xml version="1.0" encoding="UTF-8" standalone="no"?><svg xmlns="http://www.w3.org/2000/svg" xmlns:xlink="http://www.w3.org/1999/xlink" clip-rule="evenodd" stroke-miterlimit="10" viewBox="0 0 258 42"><desc>SVG generated by Keynote</desc><defs></defs><g transform="matrix(1.00, 0.00, -0.00, -1.00, 0.0, 42.0)"><image xlink:href="../../C0B0FA9B-2AED-4E81-BF99-7B48688FC47B/assets/7083CCEA4E60CFD10D99D1145F80E361.png" width="78.00" height="72.00" transform="matrix(0.22, 0.00, -0.00, -0.22, 0.0, 29.2)"></image><text xml:space="preserve" font-family="Chalkduster,Chalkduster" font-size="29.8" fill="#FEFFFE" transform="matrix(1.00, 0.00, -0.00, -1.00, 35.3, 13.8)">D</text><text xml:space="preserve" font-family="Chalkduster,Chalkduster" font-size="29.8" fill="#FEFFFE" transform="matrix(1.00, 0.00, -0.00, -1.00, 56.2, 13.8)">a</text><text xml:space="preserve" font-family="Chalkduster,Chalkduster" font-size="29.8" fill="#FEFFFE" transform="matrix(1.00, 0.00, -0.00, -1.00, 75.1, 13.8)">r</text><text xml:space="preserve" font-family="Chalkduster,Chalkduster" font-size="29.8" fill="#FEFFFE" transform="matrix(1.00, 0.00, -0.00, -1.00, 90.8, 13.8)"> </text><text xml:space="preserve" font-family="Chalkduster,Chalkduster" font-size="29.8" fill="#FEFFFE" transform="matrix(1.00, 0.00, -0.00, -1.00, 105.6, 13.8)">l</text><text xml:space="preserve" font-family="Chalkduster,Chalkduster" font-size="29.8" fill="#FEFFFE" transform="matrix(1.00, 0.00, -0.00, -1.00, 118.4, 13.8)">o</text><text xml:space="preserve" font-family="Chalkduster,Chalkduster" font-size="29.8" fill="#FEFFFE" transform="matrix(1.00, 0.00, -0.00, -1.00, 139.8, 13.8)"> </text><text xml:space="preserve" font-family="Chalkduster,Chalkduster" font-size="29.8" fill="#FEFFFE" transform="matrix(1.00, 0.00, -0.00, -1.00, 154.6, 13.8)">m</text><text xml:space="preserve" font-family="Chalkduster,Chalkduster" font-size="29.8" fill="#FEFFFE" transform="matrix(1.00, 0.00, -0.00, -1.00, 185.5, 13.8)">e</text><text xml:space="preserve" font-family="Chalkduster,Chalkduster" font-size="29.8" fill="#FEFFFE" transform="matrix(1.00, 0.00, -0.00, -1.00, 201.2, 13.8)">j</text><text xml:space="preserve" font-family="Chalkduster,Chalkduster" font-size="29.8" fill="#FEFFFE" transform="matrix(1.00, 0.00, -0.00, -1.00, 215.1, 13.8)">o</text><text xml:space="preserve" font-family="Chalkduster,Chalkduster" font-size="29.8" fill="#FEFFFE" transform="matrix(1.00, 0.00, -0.00, -1.00, 236.8, 13.8)">r</text><text xml:space="preserve" font-family="Chalkduster,Chalkduster" font-size="29.8" fill="#FEFFFE" transform="matrix(1.00, 0.00, -0.00, -1.00, 248.8, 13.8)">.</text></g></svg>