<?xml version="1.0" encoding="UTF-8" standalone="no"?><svg xmlns="http://www.w3.org/2000/svg" xmlns:xlink="http://www.w3.org/1999/xlink" clip-rule="evenodd" stroke-miterlimit="10" viewBox="0 0 848 63"><desc>SVG generated by Keynote</desc><defs></defs><g transform="matrix(1.00, 0.00, -0.00, -1.00, 0.0, 63.0)"><image xlink:href="../../DE897E55-03F1-4C91-97CD-92F71CB96A10/assets/7083CCEA4E60CFD10D99D1145F80E361.png" width="78.00" height="72.00" transform="matrix(0.15, 0.00, -0.00, -0.15, 0.9, 53.2)"></image><text xml:space="preserve" font-family="Chalkduster,Chalkduster" font-size="20.5" fill="#FEFFFE" transform="matrix(1.00, 0.00, -0.00, -1.00, 26.5, 43.5)">h</text><text xml:space="preserve" font-family="Chalkduster,Chalkduster" font-size="20.5" fill="#FEFFFE" transform="matrix(1.00, 0.00, -0.00, -1.00, 38.3, 43.5)">t</text><text xml:space="preserve" font-family="Chalkduster,Chalkduster" font-size="20.5" fill="#FEFFFE" transform="matrix(1.00, 0.00, -0.00, -1.00, 46.8, 43.5)">t</text><text xml:space="preserve" font-family="Chalkduster,Chalkduster" font-size="20.5" fill="#FEFFFE" transform="matrix(1.00, 0.00, -0.00, -1.00, 56.2, 43.5)">p</text><text xml:space="preserve" font-family="Chalkduster,Chalkduster" font-size="20.5" fill="#FEFFFE" transform="matrix(1.00, 0.00, -0.00, -1.00, 68.8, 43.5)">:</text><text xml:space="preserve" font-family="Chalkduster,Chalkduster" font-size="20.5" fill="#FEFFFE" transform="matrix(1.00, 0.00, -0.00, -1.00, 75.6, 43.5)">/</text><text xml:space="preserve" font-family="Chalkduster,Chalkduster" font-size="20.5" fill="#FEFFFE" transform="matrix(1.00, 0.00, -0.00, -1.00, 85.3, 43.5)">/</text><text xml:space="preserve" font-family="Chalkduster,Chalkduster" font-size="20.5" fill="#FEFFFE" transform="matrix(1.00, 0.00, -0.00, -1.00, 97.2, 43.5)">w</text><text xml:space="preserve" font-family="Chalkduster,Chalkduster" font-size="20.5" fill="#FEFFFE" transform="matrix(1.00, 0.00, -0.00, -1.00, 114.0, 43.5)">w</text><text xml:space="preserve" font-family="Chalkduster,Chalkduster" font-size="20.5" fill="#FEFFFE" transform="matrix(1.00, 0.00, -0.00, -1.00, 130.7, 43.5)">w</text><text xml:space="preserve" font-family="Chalkduster,Chalkduster" font-size="20.5" fill="#FEFFFE" transform="matrix(1.00, 0.00, -0.00, -1.00, 146.4, 43.5)">.</text><text xml:space="preserve" font-family="Chalkduster,Chalkduster" font-size="20.5" fill="#FEFFFE" transform="matrix(1.00, 0.00, -0.00, -1.00, 152.7, 43.5)">m</text><text xml:space="preserve" font-family="Chalkduster,Chalkduster" font-size="20.5" fill="#FEFFFE" transform="matrix(1.00, 0.00, -0.00, -1.00, 173.5, 43.5)">a</text><text xml:space="preserve" font-family="Chalkduster,Chalkduster" font-size="20.5" fill="#FEFFFE" transform="matrix(1.00, 0.00, -0.00, -1.00, 187.9, 43.5)">s</text><text xml:space="preserve" font-family="Chalkduster,Chalkduster" font-size="20.5" fill="#FEFFFE" transform="matrix(1.00, 0.00, -0.00, -1.00, 198.2, 43.5)">p</text><text xml:space="preserve" font-family="Chalkduster,Chalkduster" font-size="20.5" fill="#FEFFFE" transform="matrix(1.00, 0.00, -0.00, -1.00, 211.3, 43.5)">i</text><text xml:space="preserve" font-family="Chalkduster,Chalkduster" font-size="20.5" fill="#FEFFFE" transform="matrix(1.00, 0.00, -0.00, -1.00, 219.4, 43.5)">x</text><text xml:space="preserve" font-family="Chalkduster,Chalkduster" font-size="20.5" fill="#FEFFFE" transform="matrix(1.00, 0.00, -0.00, -1.00, 232.2, 43.5)">e</text><text xml:space="preserve" font-family="Chalkduster,Chalkduster" font-size="20.5" fill="#FEFFFE" transform="matrix(1.00, 0.00, -0.00, -1.00, 244.9, 43.5)">l</text><text xml:space="preserve" font-family="Chalkduster,Chalkduster" font-size="20.5" fill="#FEFFFE" transform="matrix(1.00, 0.00, -0.00, -1.00, 254.3, 43.5)">.</text><text xml:space="preserve" font-family="Chalkduster,Chalkduster" font-size="20.5" fill="#FEFFFE" transform="matrix(1.00, 0.00, -0.00, -1.00, 260.5, 43.5)">c</text><text xml:space="preserve" font-family="Chalkduster,Chalkduster" font-size="20.5" fill="#FEFFFE" transform="matrix(1.00, 0.00, -0.00, -1.00, 272.8, 43.5)">o</text><text xml:space="preserve" font-family="Chalkduster,Chalkduster" font-size="20.5" fill="#FEFFFE" transform="matrix(1.00, 0.00, -0.00, -1.00, 288.1, 43.5)">m</text><text xml:space="preserve" font-family="Chalkduster,Chalkduster" font-size="20.5" fill="#FEFFFE" transform="matrix(1.00, 0.00, -0.00, -1.00, 308.9, 43.5)">/</text><text xml:space="preserve" font-family="Chalkduster,Chalkduster" font-size="20.5" fill="#FEFFFE" transform="matrix(1.00, 0.00, -0.00, -1.00, 320.9, 43.5)">w</text><text xml:space="preserve" font-family="Chalkduster,Chalkduster" font-size="20.5" fill="#FEFFFE" transform="matrix(1.00, 0.00, -0.00, -1.00, 337.6, 43.5)">p</text><text xml:space="preserve" font-family="Chalkduster,Chalkduster" font-size="20.5" fill="#FEFFFE" transform="matrix(1.00, 0.00, -0.00, -1.00, 350.3, 43.5)">-</text><text xml:space="preserve" font-family="Chalkduster,Chalkduster" font-size="20.5" fill="#FEFFFE" transform="matrix(1.00, 0.00, -0.00, -1.00, 362.7, 43.5)">c</text><text xml:space="preserve" font-family="Chalkduster,Chalkduster" font-size="20.5" fill="#FEFFFE" transform="matrix(1.00, 0.00, -0.00, -1.00, 375.0, 43.5)">o</text><text xml:space="preserve" font-family="Chalkduster,Chalkduster" font-size="20.5" fill="#FEFFFE" transform="matrix(1.00, 0.00, -0.00, -1.00, 390.2, 43.5)">n</text><text xml:space="preserve" font-family="Chalkduster,Chalkduster" font-size="20.5" fill="#FEFFFE" transform="matrix(1.00, 0.00, -0.00, -1.00, 404.5, 43.5)">t</text><text xml:space="preserve" font-family="Chalkduster,Chalkduster" font-size="20.5" fill="#FEFFFE" transform="matrix(1.00, 0.00, -0.00, -1.00, 413.7, 43.5)">e</text><text xml:space="preserve" font-family="Chalkduster,Chalkduster" font-size="20.5" fill="#FEFFFE" transform="matrix(1.00, 0.00, -0.00, -1.00, 426.6, 43.5)">n</text><text xml:space="preserve" font-family="Chalkduster,Chalkduster" font-size="20.5" fill="#FEFFFE" transform="matrix(1.00, 0.00, -0.00, -1.00, 440.9, 43.5)">t</text><text xml:space="preserve" font-family="Chalkduster,Chalkduster" font-size="20.5" fill="#FEFFFE" transform="matrix(1.00, 0.00, -0.00, -1.00, 448.5, 43.5)">/</text><text xml:space="preserve" font-family="Chalkduster,Chalkduster" font-size="20.5" fill="#FEFFFE" transform="matrix(1.00, 0.00, -0.00, -1.00, 459.6, 43.5)">u</text><text xml:space="preserve" font-family="Chalkduster,Chalkduster" font-size="20.5" fill="#FEFFFE" transform="matrix(1.00, 0.00, -0.00, -1.00, 474.0, 43.5)">p</text><text xml:space="preserve" font-family="Chalkduster,Chalkduster" font-size="20.5" fill="#FEFFFE" transform="matrix(1.00, 0.00, -0.00, -1.00, 486.6, 43.5)">l</text><text xml:space="preserve" font-family="Chalkduster,Chalkduster" font-size="20.5" fill="#FEFFFE" transform="matrix(1.00, 0.00, -0.00, -1.00, 495.5, 43.5)">o</text><text xml:space="preserve" font-family="Chalkduster,Chalkduster" font-size="20.5" fill="#FEFFFE" transform="matrix(1.00, 0.00, -0.00, -1.00, 510.5, 43.5)">a</text><text xml:space="preserve" font-family="Chalkduster,Chalkduster" font-size="20.5" fill="#FEFFFE" transform="matrix(1.00, 0.00, -0.00, -1.00, 524.0, 43.5)">d</text><text xml:space="preserve" font-family="Chalkduster,Chalkduster" font-size="20.5" fill="#FEFFFE" transform="matrix(1.00, 0.00, -0.00, -1.00, 540.7, 43.5)">s</text><text xml:space="preserve" font-family="Chalkduster,Chalkduster" font-size="20.5" fill="#FEFFFE" transform="matrix(1.00, 0.00, -0.00, -1.00, 551.1, 43.5)">/</text><text xml:space="preserve" font-family="Chalkduster,Chalkduster" font-size="20.5" fill="#FEFFFE" transform="matrix(1.00, 0.00, -0.00, -1.00, 562.3, 43.5)">c</text><text xml:space="preserve" font-family="Chalkduster,Chalkduster" font-size="20.5" fill="#FEFFFE" transform="matrix(1.00, 0.00, -0.00, -1.00, 575.2, 43.5)">u</text><text xml:space="preserve" font-family="Chalkduster,Chalkduster" font-size="20.5" fill="#FEFFFE" transform="matrix(1.00, 0.00, -0.00, -1.00, 589.6, 43.5)">r</text><text xml:space="preserve" font-family="Chalkduster,Chalkduster" font-size="20.5" fill="#FEFFFE" transform="matrix(1.00, 0.00, -0.00, -1.00, 601.8, 43.5)">v</text><text xml:space="preserve" font-family="Chalkduster,Chalkduster" font-size="20.5" fill="#FEFFFE" transform="matrix(1.00, 0.00, -0.00, -1.00, 613.5, 43.5)">a</text><text xml:space="preserve" font-family="Chalkduster,Chalkduster" font-size="20.5" fill="#FEFFFE" transform="matrix(1.00, 0.00, -0.00, -1.00, 627.6, 43.5)">-</text><text xml:space="preserve" font-family="Chalkduster,Chalkduster" font-size="20.5" fill="#FEFFFE" transform="matrix(1.00, 0.00, -0.00, -1.00, 640.0, 43.5)">a</text><text xml:space="preserve" font-family="Chalkduster,Chalkduster" font-size="20.5" fill="#FEFFFE" transform="matrix(1.00, 0.00, -0.00, -1.00, 654.2, 43.5)">p</text><text xml:space="preserve" font-family="Chalkduster,Chalkduster" font-size="20.5" fill="#FEFFFE" transform="matrix(1.00, 0.00, -0.00, -1.00, 666.9, 43.5)">r</text><text xml:space="preserve" font-family="Chalkduster,Chalkduster" font-size="20.5" fill="#FEFFFE" transform="matrix(1.00, 0.00, -0.00, -1.00, 677.2, 43.5)">e</text><text xml:space="preserve" font-family="Chalkduster,Chalkduster" font-size="20.5" fill="#FEFFFE" transform="matrix(1.00, 0.00, -0.00, -1.00, 690.2, 43.5)">n</text><text xml:space="preserve" font-family="Chalkduster,Chalkduster" font-size="20.5" fill="#FEFFFE" transform="matrix(1.00, 0.00, -0.00, -1.00, 705.2, 43.5)">d</text><text xml:space="preserve" font-family="Chalkduster,Chalkduster" font-size="20.5" fill="#FEFFFE" transform="matrix(1.00, 0.00, -0.00, -1.00, 722.1, 43.5)">i</text><text xml:space="preserve" font-family="Chalkduster,Chalkduster" font-size="20.5" fill="#FEFFFE" transform="matrix(1.00, 0.00, -0.00, -1.00, 730.2, 43.5)">z</text><text xml:space="preserve" font-family="Chalkduster,Chalkduster" font-size="20.5" fill="#FEFFFE" transform="matrix(1.00, 0.00, -0.00, -1.00, 743.5, 43.5)">a</text><text xml:space="preserve" font-family="Chalkduster,Chalkduster" font-size="20.5" fill="#FEFFFE" transform="matrix(1.00, 0.00, -0.00, -1.00, 756.7, 43.5)">j</text><text xml:space="preserve" font-family="Chalkduster,Chalkduster" font-size="20.5" fill="#FEFFFE" transform="matrix(1.00, 0.00, -0.00, -1.00, 766.7, 43.5)">e</text><text xml:space="preserve" font-family="Chalkduster,Chalkduster" font-size="20.5" fill="#FEFFFE" transform="matrix(1.00, 0.00, -0.00, -1.00, 779.5, 43.5)">-</text><text xml:space="preserve" font-family="Chalkduster,Chalkduster" font-size="20.5" fill="#FEFFFE" transform="matrix(1.00, 0.00, -0.00, -1.00, 791.9, 43.5)">c</text><text xml:space="preserve" font-family="Chalkduster,Chalkduster" font-size="20.5" fill="#FEFFFE" transform="matrix(1.00, 0.00, -0.00, -1.00, 804.8, 43.5)">m</text><text xml:space="preserve" font-family="Chalkduster,Chalkduster" font-size="20.5" fill="#FEFFFE" transform="matrix(1.00, 0.00, -0.00, -1.00, 825.5, 43.5)">s</text><text xml:space="preserve" font-family="Chalkduster,Chalkduster" font-size="20.5" fill="#FEFFFE" transform="matrix(1.00, 0.00, -0.00, -1.00, 834.9, 43.5)">-</text><text xml:space="preserve" font-family="Chalkduster,Chalkduster" font-size="20.5" fill="#FEFFFE" transform="matrix(1.00, 0.00, -0.00, -1.00, 26.5, 12.5)">d</text><text xml:space="preserve" font-family="Chalkduster,Chalkduster" font-size="20.5" fill="#FEFFFE" transform="matrix(1.00, 0.00, -0.00, -1.00, 42.6, 12.5)">r</text><text xml:space="preserve" font-family="Chalkduster,Chalkduster" font-size="20.5" fill="#FEFFFE" transform="matrix(1.00, 0.00, -0.00, -1.00, 54.0, 12.5)">u</text><text xml:space="preserve" font-family="Chalkduster,Chalkduster" font-size="20.5" fill="#FEFFFE" transform="matrix(1.00, 0.00, -0.00, -1.00, 68.4, 12.5)">p</text><text xml:space="preserve" font-family="Chalkduster,Chalkduster" font-size="20.5" fill="#FEFFFE" transform="matrix(1.00, 0.00, -0.00, -1.00, 81.1, 12.5)">a</text><text xml:space="preserve" font-family="Chalkduster,Chalkduster" font-size="20.5" fill="#FEFFFE" transform="matrix(1.00, 0.00, -0.00, -1.00, 94.3, 12.5)">l</text><text xml:space="preserve" font-family="Chalkduster,Chalkduster" font-size="20.5" fill="#FEFFFE" transform="matrix(1.00, 0.00, -0.00, -1.00, 103.8, 12.5)">.</text><text xml:space="preserve" font-family="Chalkduster,Chalkduster" font-size="20.5" fill="#FEFFFE" transform="matrix(1.00, 0.00, -0.00, -1.00, 110.7, 12.5)">g</text><text xml:space="preserve" font-family="Chalkduster,Chalkduster" font-size="20.5" fill="#FEFFFE" transform="matrix(1.00, 0.00, -0.00, -1.00, 125.4, 12.5)">i</text><text xml:space="preserve" font-family="Chalkduster,Chalkduster" font-size="20.5" fill="#FEFFFE" transform="matrix(1.00, 0.00, -0.00, -1.00, 132.6, 12.5)">f</text><text xml:space="preserve" font-family="Chalkduster,Chalkduster" font-size="20.5" fill="#FEFFFE" transform="matrix(1.00, 0.00, -0.00, -1.00, 143.5, 12.5)"> </text></g></svg>