<?xml version="1.0" encoding="UTF-8" standalone="no"?><svg xmlns="http://www.w3.org/2000/svg" xmlns:xlink="http://www.w3.org/1999/xlink" clip-rule="evenodd" stroke-miterlimit="10" viewBox="0 0 287 228"><desc>SVG generated by Keynote</desc><defs></defs><g transform="matrix(1.00, 0.00, -0.00, -1.00, 0.0, 228.0)"><g><clipPath id="clip0x600004cbe2a0"><path d="M 1.5 1.5 L 285.9 1.5 L 285.9 226.5 L 1.5 226.5 Z M 1.5 1.5 "></path></clipPath><g clip-path="url(#clip0x600004cbe2a0)"><path d="M 1.5 226.5 L 285.9 226.5 L 285.9 1.5 L 1.5 1.5 Z M 1.5 226.5 " fill="#FEFFFF" fill-opacity="0.00"></path><image xlink:href="2939291A81E126A2566B0A74FBBA3A9D.png" width="249.00" height="63.00" transform="matrix(1.14, 0.00, -0.00, -1.14, 1.5, 80.3)"></image><image xlink:href="97977A4533263912C8792899F3DE9E73.png" width="177.00" height="197.00" transform="matrix(1.14, 0.00, -0.00, -1.14, 75.7, 226.5)"></image></g></g><g><clipPath id="clip0x600004cbe540"><path d="M 97.4 205.2 L 256.6 205.2 L 256.6 23.1 L 97.4 23.1 Z M 97.4 205.2 "></path></clipPath><g clip-path="url(#clip0x600004cbe540)"><g><clipPath id="clip0x600004cbe720"><path d="M 97.4 23.1 L 256.6 23.1 L 256.6 205.2 L 97.4 205.2 Z M 97.4 23.1 "></path></clipPath><g clip-path="url(#clip0x600004cbe720)"><image xlink:href="../../861502F5-C051-4CA8-9910-E538B1C8F451/assets/4266F6737E0B67CD843C2EEC6A122EB5.png" width="1180.00" height="1350.00" transform="matrix(0.13, 0.00, -0.00, -0.13, 97.4, 205.2)"></image></g></g></g></g></g></svg>