<?xml version="1.0" encoding="UTF-8" standalone="no"?><svg xmlns="http://www.w3.org/2000/svg" xmlns:xlink="http://www.w3.org/1999/xlink" clip-rule="evenodd" stroke-miterlimit="10" viewBox="0 0 899 34"><desc>SVG generated by Keynote</desc><defs></defs><g transform="matrix(1.00, 0.00, -0.00, -1.00, 0.0, 34.0)"><image xlink:href="../../DE897E55-03F1-4C91-97CD-92F71CB96A10/assets/7083CCEA4E60CFD10D99D1145F80E361.png" width="78.00" height="72.00" transform="matrix(0.15, 0.00, -0.00, -0.15, 0.9, 22.7)"></image><text xml:space="preserve" font-family="Chalkduster,Chalkduster" font-size="20.5" fill="#FEFFFE" transform="matrix(1.00, 0.00, -0.00, -1.00, 26.5, 13.0)">h</text><text xml:space="preserve" font-family="Chalkduster,Chalkduster" font-size="20.5" fill="#FEFFFE" transform="matrix(1.00, 0.00, -0.00, -1.00, 38.3, 13.0)">t</text><text xml:space="preserve" font-family="Chalkduster,Chalkduster" font-size="20.5" fill="#FEFFFE" transform="matrix(1.00, 0.00, -0.00, -1.00, 46.8, 13.0)">t</text><text xml:space="preserve" font-family="Chalkduster,Chalkduster" font-size="20.5" fill="#FEFFFE" transform="matrix(1.00, 0.00, -0.00, -1.00, 56.2, 13.0)">p</text><text xml:space="preserve" font-family="Chalkduster,Chalkduster" font-size="20.5" fill="#FEFFFE" transform="matrix(1.00, 0.00, -0.00, -1.00, 68.8, 13.0)">:</text><text xml:space="preserve" font-family="Chalkduster,Chalkduster" font-size="20.5" fill="#FEFFFE" transform="matrix(1.00, 0.00, -0.00, -1.00, 75.6, 13.0)">/</text><text xml:space="preserve" font-family="Chalkduster,Chalkduster" font-size="20.5" fill="#FEFFFE" transform="matrix(1.00, 0.00, -0.00, -1.00, 85.3, 13.0)">/</text><text xml:space="preserve" font-family="Chalkduster,Chalkduster" font-size="20.5" fill="#FEFFFE" transform="matrix(1.00, 0.00, -0.00, -1.00, 97.2, 13.0)">w</text><text xml:space="preserve" font-family="Chalkduster,Chalkduster" font-size="20.5" fill="#FEFFFE" transform="matrix(1.00, 0.00, -0.00, -1.00, 114.0, 13.0)">w</text><text xml:space="preserve" font-family="Chalkduster,Chalkduster" font-size="20.5" fill="#FEFFFE" transform="matrix(1.00, 0.00, -0.00, -1.00, 130.7, 13.0)">w</text><text xml:space="preserve" font-family="Chalkduster,Chalkduster" font-size="20.5" fill="#FEFFFE" transform="matrix(1.00, 0.00, -0.00, -1.00, 146.4, 13.0)">.</text><text xml:space="preserve" font-family="Chalkduster,Chalkduster" font-size="20.5" fill="#FEFFFE" transform="matrix(1.00, 0.00, -0.00, -1.00, 153.3, 13.0)">d</text><text xml:space="preserve" font-family="Chalkduster,Chalkduster" font-size="20.5" fill="#FEFFFE" transform="matrix(1.00, 0.00, -0.00, -1.00, 169.4, 13.0)">r</text><text xml:space="preserve" font-family="Chalkduster,Chalkduster" font-size="20.5" fill="#FEFFFE" transform="matrix(1.00, 0.00, -0.00, -1.00, 180.8, 13.0)">u</text><text xml:space="preserve" font-family="Chalkduster,Chalkduster" font-size="20.5" fill="#FEFFFE" transform="matrix(1.00, 0.00, -0.00, -1.00, 195.2, 13.0)">p</text><text xml:space="preserve" font-family="Chalkduster,Chalkduster" font-size="20.5" fill="#FEFFFE" transform="matrix(1.00, 0.00, -0.00, -1.00, 207.9, 13.0)">a</text><text xml:space="preserve" font-family="Chalkduster,Chalkduster" font-size="20.5" fill="#FEFFFE" transform="matrix(1.00, 0.00, -0.00, -1.00, 221.2, 13.0)">l</text><text xml:space="preserve" font-family="Chalkduster,Chalkduster" font-size="20.5" fill="#FEFFFE" transform="matrix(1.00, 0.00, -0.00, -1.00, 230.8, 13.0)">s</text><text xml:space="preserve" font-family="Chalkduster,Chalkduster" font-size="20.5" fill="#FEFFFE" transform="matrix(1.00, 0.00, -0.00, -1.00, 241.1, 13.0)">o</text><text xml:space="preserve" font-family="Chalkduster,Chalkduster" font-size="20.5" fill="#FEFFFE" transform="matrix(1.00, 0.00, -0.00, -1.00, 256.5, 13.0)">u</text><text xml:space="preserve" font-family="Chalkduster,Chalkduster" font-size="20.5" fill="#FEFFFE" transform="matrix(1.00, 0.00, -0.00, -1.00, 271.2, 13.0)">l</text><text xml:space="preserve" font-family="Chalkduster,Chalkduster" font-size="20.5" fill="#FEFFFE" transform="matrix(1.00, 0.00, -0.00, -1.00, 280.6, 13.0)">.</text><text xml:space="preserve" font-family="Chalkduster,Chalkduster" font-size="20.5" fill="#FEFFFE" transform="matrix(1.00, 0.00, -0.00, -1.00, 286.8, 13.0)">c</text><text xml:space="preserve" font-family="Chalkduster,Chalkduster" font-size="20.5" fill="#FEFFFE" transform="matrix(1.00, 0.00, -0.00, -1.00, 299.1, 13.0)">o</text><text xml:space="preserve" font-family="Chalkduster,Chalkduster" font-size="20.5" fill="#FEFFFE" transform="matrix(1.00, 0.00, -0.00, -1.00, 314.4, 13.0)">m</text><text xml:space="preserve" font-family="Chalkduster,Chalkduster" font-size="20.5" fill="#FEFFFE" transform="matrix(1.00, 0.00, -0.00, -1.00, 335.2, 13.0)">/</text><text xml:space="preserve" font-family="Chalkduster,Chalkduster" font-size="20.5" fill="#FEFFFE" transform="matrix(1.00, 0.00, -0.00, -1.00, 347.5, 13.0)">s</text><text xml:space="preserve" font-family="Chalkduster,Chalkduster" font-size="20.5" fill="#FEFFFE" transform="matrix(1.00, 0.00, -0.00, -1.00, 357.9, 13.0)">i</text><text xml:space="preserve" font-family="Chalkduster,Chalkduster" font-size="20.5" fill="#FEFFFE" transform="matrix(1.00, 0.00, -0.00, -1.00, 366.2, 13.0)">t</text><text xml:space="preserve" font-family="Chalkduster,Chalkduster" font-size="20.5" fill="#FEFFFE" transform="matrix(1.00, 0.00, -0.00, -1.00, 375.4, 13.0)">e</text><text xml:space="preserve" font-family="Chalkduster,Chalkduster" font-size="20.5" fill="#FEFFFE" transform="matrix(1.00, 0.00, -0.00, -1.00, 388.6, 13.0)">s</text><text xml:space="preserve" font-family="Chalkduster,Chalkduster" font-size="20.5" fill="#FEFFFE" transform="matrix(1.00, 0.00, -0.00, -1.00, 398.9, 13.0)">/</text><text xml:space="preserve" font-family="Chalkduster,Chalkduster" font-size="20.5" fill="#FEFFFE" transform="matrix(1.00, 0.00, -0.00, -1.00, 410.6, 13.0)">d</text><text xml:space="preserve" font-family="Chalkduster,Chalkduster" font-size="20.5" fill="#FEFFFE" transform="matrix(1.00, 0.00, -0.00, -1.00, 426.6, 13.0)">e</text><text xml:space="preserve" font-family="Chalkduster,Chalkduster" font-size="20.5" fill="#FEFFFE" transform="matrix(1.00, 0.00, -0.00, -1.00, 438.9, 13.0)">f</text><text xml:space="preserve" font-family="Chalkduster,Chalkduster" font-size="20.5" fill="#FEFFFE" transform="matrix(1.00, 0.00, -0.00, -1.00, 449.2, 13.0)">a</text><text xml:space="preserve" font-family="Chalkduster,Chalkduster" font-size="20.5" fill="#FEFFFE" transform="matrix(1.00, 0.00, -0.00, -1.00, 463.3, 13.0)">u</text><text xml:space="preserve" font-family="Chalkduster,Chalkduster" font-size="20.5" fill="#FEFFFE" transform="matrix(1.00, 0.00, -0.00, -1.00, 477.9, 13.0)">l</text><text xml:space="preserve" font-family="Chalkduster,Chalkduster" font-size="20.5" fill="#FEFFFE" transform="matrix(1.00, 0.00, -0.00, -1.00, 485.4, 13.0)">t</text><text xml:space="preserve" font-family="Chalkduster,Chalkduster" font-size="20.5" fill="#FEFFFE" transform="matrix(1.00, 0.00, -0.00, -1.00, 493.0, 13.0)">/</text><text xml:space="preserve" font-family="Chalkduster,Chalkduster" font-size="20.5" fill="#FEFFFE" transform="matrix(1.00, 0.00, -0.00, -1.00, 505.4, 13.0)">f</text><text xml:space="preserve" font-family="Chalkduster,Chalkduster" font-size="20.5" fill="#FEFFFE" transform="matrix(1.00, 0.00, -0.00, -1.00, 516.4, 13.0)">i</text><text xml:space="preserve" font-family="Chalkduster,Chalkduster" font-size="20.5" fill="#FEFFFE" transform="matrix(1.00, 0.00, -0.00, -1.00, 524.7, 13.0)">l</text><text xml:space="preserve" font-family="Chalkduster,Chalkduster" font-size="20.5" fill="#FEFFFE" transform="matrix(1.00, 0.00, -0.00, -1.00, 533.2, 13.0)">e</text><text xml:space="preserve" font-family="Chalkduster,Chalkduster" font-size="20.5" fill="#FEFFFE" transform="matrix(1.00, 0.00, -0.00, -1.00, 546.4, 13.0)">s</text><text xml:space="preserve" font-family="Chalkduster,Chalkduster" font-size="20.5" fill="#FEFFFE" transform="matrix(1.00, 0.00, -0.00, -1.00, 556.7, 13.0)">/</text><text xml:space="preserve" font-family="Chalkduster,Chalkduster" font-size="20.5" fill="#FEFFFE" transform="matrix(1.00, 0.00, -0.00, -1.00, 570.1, 13.0)">i</text><text xml:space="preserve" font-family="Chalkduster,Chalkduster" font-size="20.5" fill="#FEFFFE" transform="matrix(1.00, 0.00, -0.00, -1.00, 578.2, 13.0)">m</text><text xml:space="preserve" font-family="Chalkduster,Chalkduster" font-size="20.5" fill="#FEFFFE" transform="matrix(1.00, 0.00, -0.00, -1.00, 598.9, 13.0)">a</text><text xml:space="preserve" font-family="Chalkduster,Chalkduster" font-size="20.5" fill="#FEFFFE" transform="matrix(1.00, 0.00, -0.00, -1.00, 612.0, 13.0)">g</text><text xml:space="preserve" font-family="Chalkduster,Chalkduster" font-size="20.5" fill="#FEFFFE" transform="matrix(1.00, 0.00, -0.00, -1.00, 626.3, 13.0)">e</text><text xml:space="preserve" font-family="Chalkduster,Chalkduster" font-size="20.5" fill="#FEFFFE" transform="matrix(1.00, 0.00, -0.00, -1.00, 639.0, 13.0)">-</text><text xml:space="preserve" font-family="Chalkduster,Chalkduster" font-size="20.5" fill="#FEFFFE" transform="matrix(1.00, 0.00, -0.00, -1.00, 650.8, 13.0)">f</text><text xml:space="preserve" font-family="Chalkduster,Chalkduster" font-size="20.5" fill="#FEFFFE" transform="matrix(1.00, 0.00, -0.00, -1.00, 661.1, 13.0)">a</text><text xml:space="preserve" font-family="Chalkduster,Chalkduster" font-size="20.5" fill="#FEFFFE" transform="matrix(1.00, 0.00, -0.00, -1.00, 675.2, 13.0)">q</text><text xml:space="preserve" font-family="Chalkduster,Chalkduster" font-size="20.5" fill="#FEFFFE" transform="matrix(1.00, 0.00, -0.00, -1.00, 688.5, 13.0)">s</text><text xml:space="preserve" font-family="Chalkduster,Chalkduster" font-size="20.5" fill="#FEFFFE" transform="matrix(1.00, 0.00, -0.00, -1.00, 698.4, 13.0)">.</text><text xml:space="preserve" font-family="Chalkduster,Chalkduster" font-size="20.5" fill="#FEFFFE" transform="matrix(1.00, 0.00, -0.00, -1.00, 705.4, 13.0)">j</text><text xml:space="preserve" font-family="Chalkduster,Chalkduster" font-size="20.5" fill="#FEFFFE" transform="matrix(1.00, 0.00, -0.00, -1.00, 715.0, 13.0)">p</text><text xml:space="preserve" font-family="Chalkduster,Chalkduster" font-size="20.5" fill="#FEFFFE" transform="matrix(1.00, 0.00, -0.00, -1.00, 727.6, 13.0)">g</text><text xml:space="preserve" font-family="Chalkduster,Chalkduster" font-size="20.5" fill="#FEFFFE" transform="matrix(1.00, 0.00, -0.00, -1.00, 740.7, 13.0)">?</text><text xml:space="preserve" font-family="Chalkduster,Chalkduster" font-size="20.5" fill="#FEFFFE" transform="matrix(1.00, 0.00, -0.00, -1.00, 750.8, 13.0)">1</text><text xml:space="preserve" font-family="Chalkduster,Chalkduster" font-size="20.5" fill="#FEFFFE" transform="matrix(1.00, 0.00, -0.00, -1.00, 762.8, 13.0)">2</text><text xml:space="preserve" font-family="Chalkduster,Chalkduster" font-size="20.5" fill="#FEFFFE" transform="matrix(1.00, 0.00, -0.00, -1.00, 774.4, 13.0)">7</text><text xml:space="preserve" font-family="Chalkduster,Chalkduster" font-size="20.5" fill="#FEFFFE" transform="matrix(1.00, 0.00, -0.00, -1.00, 786.5, 13.0)">8</text><text xml:space="preserve" font-family="Chalkduster,Chalkduster" font-size="20.5" fill="#FEFFFE" transform="matrix(1.00, 0.00, -0.00, -1.00, 803.0, 13.0)">4</text><text xml:space="preserve" font-family="Chalkduster,Chalkduster" font-size="20.5" fill="#FEFFFE" transform="matrix(1.00, 0.00, -0.00, -1.00, 821.8, 13.0)">4</text><text xml:space="preserve" font-family="Chalkduster,Chalkduster" font-size="20.5" fill="#FEFFFE" transform="matrix(1.00, 0.00, -0.00, -1.00, 840.6, 13.0)">2</text><text xml:space="preserve" font-family="Chalkduster,Chalkduster" font-size="20.5" fill="#FEFFFE" transform="matrix(1.00, 0.00, -0.00, -1.00, 851.6, 13.0)">4</text><text xml:space="preserve" font-family="Chalkduster,Chalkduster" font-size="20.5" fill="#FEFFFE" transform="matrix(1.00, 0.00, -0.00, -1.00, 870.4, 13.0)">0</text><text xml:space="preserve" font-family="Chalkduster,Chalkduster" font-size="20.5" fill="#FEFFFE" transform="matrix(1.00, 0.00, -0.00, -1.00, 884.6, 13.0)">5</text></g></svg>