<?xml version="1.0" encoding="UTF-8" standalone="no"?><svg xmlns="http://www.w3.org/2000/svg" xmlns:xlink="http://www.w3.org/1999/xlink" clip-rule="evenodd" stroke-miterlimit="10" viewBox="0 0 269 55"><desc>SVG generated by Keynote</desc><defs></defs><g transform="matrix(1.00, 0.00, -0.00, -1.00, 0.0, 55.0)"><text xml:space="preserve" font-family="Chalkduster,Chalkduster" font-size="22.0" fill="#FEFFFE" transform="matrix(1.00, 0.00, -0.00, -1.00, 0.0, 11.1)">-</text><text xml:space="preserve" font-family="Chalkduster,Chalkduster" font-size="22.0" fill="#FEFFFE" transform="matrix(1.00, 0.00, -0.00, -1.00, 16.0, 14.1)">h</text><text xml:space="preserve" font-family="Chalkduster,Chalkduster" font-size="22.0" fill="#FEFFFE" transform="matrix(1.00, 0.00, -0.00, -1.00, 28.6, 14.1)">t</text><text xml:space="preserve" font-family="Chalkduster,Chalkduster" font-size="22.0" fill="#FEFFFE" transform="matrix(1.00, 0.00, -0.00, -1.00, 37.7, 14.1)">t</text><text xml:space="preserve" font-family="Chalkduster,Chalkduster" font-size="22.0" fill="#FEFFFE" transform="matrix(1.00, 0.00, -0.00, -1.00, 47.8, 14.1)">p</text><text xml:space="preserve" font-family="Chalkduster,Chalkduster" font-size="22.0" fill="#FEFFFE" transform="matrix(1.00, 0.00, -0.00, -1.00, 61.4, 14.1)">:</text><text xml:space="preserve" font-family="Chalkduster,Chalkduster" font-size="22.0" fill="#FEFFFE" transform="matrix(1.00, 0.00, -0.00, -1.00, 68.6, 14.1)">/</text><text xml:space="preserve" font-family="Chalkduster,Chalkduster" font-size="22.0" fill="#FEFFFE" transform="matrix(1.00, 0.00, -0.00, -1.00, 78.9, 14.1)">/</text><text xml:space="preserve" font-family="Chalkduster,Chalkduster" font-size="22.0" fill="#FEFFFE" transform="matrix(1.00, 0.00, -0.00, -1.00, 91.5, 14.1)">d</text><text xml:space="preserve" font-family="Chalkduster,Chalkduster" font-size="22.0" fill="#FEFFFE" transform="matrix(1.00, 0.00, -0.00, -1.00, 108.7, 14.1)">r</text><text xml:space="preserve" font-family="Chalkduster,Chalkduster" font-size="22.0" fill="#FEFFFE" transform="matrix(1.00, 0.00, -0.00, -1.00, 120.9, 14.1)">u</text><text xml:space="preserve" font-family="Chalkduster,Chalkduster" font-size="22.0" fill="#FEFFFE" transform="matrix(1.00, 0.00, -0.00, -1.00, 136.3, 14.1)">p</text><text xml:space="preserve" font-family="Chalkduster,Chalkduster" font-size="22.0" fill="#FEFFFE" transform="matrix(1.00, 0.00, -0.00, -1.00, 149.9, 14.1)">a</text><text xml:space="preserve" font-family="Chalkduster,Chalkduster" font-size="22.0" fill="#FEFFFE" transform="matrix(1.00, 0.00, -0.00, -1.00, 164.1, 14.1)">l</text><text xml:space="preserve" font-family="Chalkduster,Chalkduster" font-size="22.0" fill="#FEFFFE" transform="matrix(1.00, 0.00, -0.00, -1.00, 173.5, 14.1)">c</text><text xml:space="preserve" font-family="Chalkduster,Chalkduster" font-size="22.0" fill="#FEFFFE" transform="matrix(1.00, 0.00, -0.00, -1.00, 186.5, 14.1)">a</text><text xml:space="preserve" font-family="Chalkduster,Chalkduster" font-size="22.0" fill="#FEFFFE" transform="matrix(1.00, 0.00, -0.00, -1.00, 201.0, 14.1)">m</text><text xml:space="preserve" font-family="Chalkduster,Chalkduster" font-size="22.0" fill="#FEFFFE" transform="matrix(1.00, 0.00, -0.00, -1.00, 223.2, 14.1)">p</text><text xml:space="preserve" font-family="Chalkduster,Chalkduster" font-size="22.0" fill="#FEFFFE" transform="matrix(1.00, 0.00, -0.00, -1.00, 235.5, 14.1)">.</text><text xml:space="preserve" font-family="Chalkduster,Chalkduster" font-size="22.0" fill="#FEFFFE" transform="matrix(1.00, 0.00, -0.00, -1.00, 242.1, 14.1)">c</text><text xml:space="preserve" font-family="Chalkduster,Chalkduster" font-size="22.0" fill="#FEFFFE" transform="matrix(1.00, 0.00, -0.00, -1.00, 255.5, 14.1)">r</text><text xml:space="preserve" font-family="Chalkduster,Chalkduster" font-size="22.0" fill="#FEFFFE" transform="matrix(1.00, 0.00, -0.00, -1.00, 267.1, 14.1)"> </text><g><clipPath id="clip0x6000046a0b40"><path d="M 15.0 9.6 L 267.1 9.6 L 267.1 12.1 L 15.0 12.1 Z M 15.0 9.6 "></path></clipPath><g clip-path="url(#clip0x6000046a0b40)"><path d="M 65.0 549.5 L 316.1 549.5 " fill="none" stroke="#FEFFFE" stroke-width="0.49" transform="matrix(1.00, 0.00, 0.00, -1.00, -49.0, 560.3)"></path></g></g></g></svg>