<?xml version="1.0" encoding="UTF-8" standalone="no"?><svg xmlns="http://www.w3.org/2000/svg" xmlns:xlink="http://www.w3.org/1999/xlink" clip-rule="evenodd" stroke-miterlimit="10" viewBox="0 0 410 463"><desc>SVG generated by Keynote</desc><defs></defs><g transform="matrix(1.00, 0.00, -0.00, -1.00, 0.0, 463.0)"><text xml:space="preserve" font-family="Chalkduster,Chalkduster" font-size="27.8" fill="#FEFFFE" transform="matrix(1.00, 0.00, -0.00, -1.00, 1.0, 437.2)">E</text><text xml:space="preserve" font-family="Chalkduster,Chalkduster" font-size="27.8" fill="#FEFFFE" transform="matrix(1.00, 0.00, -0.00, -1.00, 25.3, 437.2)">s</text><text xml:space="preserve" font-family="Chalkduster,Chalkduster" font-size="27.8" fill="#FEFFFE" transform="matrix(1.00, 0.00, -0.00, -1.00, 39.3, 437.2)"> </text><text xml:space="preserve" font-family="Chalkduster,Chalkduster" font-size="27.8" fill="#FEFFFE" transform="matrix(1.00, 0.00, -0.00, -1.00, 68.9, 437.2)">u</text><text xml:space="preserve" font-family="Chalkduster,Chalkduster" font-size="27.8" fill="#FEFFFE" transform="matrix(1.00, 0.00, -0.00, -1.00, 92.2, 437.2)">n</text><text xml:space="preserve" font-family="Chalkduster,Chalkduster" font-size="27.8" fill="#FEFFFE" transform="matrix(1.00, 0.00, -0.00, -1.00, 112.6, 437.2)"> </text><text xml:space="preserve" font-family="Chalkduster,Chalkduster" font-size="27.8" fill="#FEFFFE" transform="matrix(1.00, 0.00, -0.00, -1.00, 142.2, 437.2)">C</text><text xml:space="preserve" font-family="Chalkduster,Chalkduster" font-size="27.8" fill="#FEFFFE" transform="matrix(1.00, 0.00, -0.00, -1.00, 168.5, 437.2)">M</text><text xml:space="preserve" font-family="Chalkduster,Chalkduster" font-size="27.8" fill="#FEFFFE" transform="matrix(1.00, 0.00, -0.00, -1.00, 195.6, 437.2)">S</text><text xml:space="preserve" font-family="Chalkduster,Chalkduster" font-size="27.8" fill="#FEFFFE" transform="matrix(1.00, 0.00, -0.00, -1.00, 211.1, 437.2)">,</text><text xml:space="preserve" font-family="Chalkduster,Chalkduster" font-size="27.8" fill="#FEFFFE" transform="matrix(1.00, 0.00, -0.00, -1.00, 219.7, 437.2)"> </text><text xml:space="preserve" font-family="Chalkduster,Chalkduster" font-size="27.8" fill="#FEFFFE" transform="matrix(1.00, 0.00, -0.00, -1.00, 249.3, 437.2)">m</text><text xml:space="preserve" font-family="Chalkduster,Chalkduster" font-size="27.8" fill="#FEFFFE" transform="matrix(1.00, 0.00, -0.00, -1.00, 281.2, 437.2)">o</text><text xml:space="preserve" font-family="Chalkduster,Chalkduster" font-size="27.8" fill="#FEFFFE" transform="matrix(1.00, 0.00, -0.00, -1.00, 306.2, 437.2)">d</text><text xml:space="preserve" font-family="Chalkduster,Chalkduster" font-size="27.8" fill="#FEFFFE" transform="matrix(1.00, 0.00, -0.00, -1.00, 332.2, 437.2)">u</text><text xml:space="preserve" font-family="Chalkduster,Chalkduster" font-size="27.8" fill="#FEFFFE" transform="matrix(1.00, 0.00, -0.00, -1.00, 355.8, 437.2)">l</text><text xml:space="preserve" font-family="Chalkduster,Chalkduster" font-size="27.8" fill="#FEFFFE" transform="matrix(1.00, 0.00, -0.00, -1.00, 371.9, 437.2)">a</text><text xml:space="preserve" font-family="Chalkduster,Chalkduster" font-size="27.8" fill="#FEFFFE" transform="matrix(1.00, 0.00, -0.00, -1.00, 393.4, 437.2)">r</text><text xml:space="preserve" font-family="Chalkduster,Chalkduster" font-size="27.8" fill="#FEFFFE" transform="matrix(1.00, 0.00, -0.00, -1.00, 408.0, 437.2)"> </text><text xml:space="preserve" font-family="Chalkduster,Chalkduster" font-size="27.8" fill="#FEFFFE" transform="matrix(1.00, 0.00, -0.00, -1.00, 1.0, 395.2)">m</text><text xml:space="preserve" font-family="Chalkduster,Chalkduster" font-size="27.8" fill="#FEFFFE" transform="matrix(1.00, 0.00, -0.00, -1.00, 30.7, 395.2)">u</text><text xml:space="preserve" font-family="Chalkduster,Chalkduster" font-size="27.8" fill="#FEFFFE" transform="matrix(1.00, 0.00, -0.00, -1.00, 52.0, 395.2)">l</text><text xml:space="preserve" font-family="Chalkduster,Chalkduster" font-size="27.8" fill="#FEFFFE" transform="matrix(1.00, 0.00, -0.00, -1.00, 63.6, 395.2)">t</text><text xml:space="preserve" font-family="Chalkduster,Chalkduster" font-size="27.8" fill="#FEFFFE" transform="matrix(1.00, 0.00, -0.00, -1.00, 78.0, 395.2)">i</text><text xml:space="preserve" font-family="Chalkduster,Chalkduster" font-size="27.8" fill="#FEFFFE" transform="matrix(1.00, 0.00, -0.00, -1.00, 90.4, 395.2)">-</text><text xml:space="preserve" font-family="Chalkduster,Chalkduster" font-size="27.8" fill="#FEFFFE" transform="matrix(1.00, 0.00, -0.00, -1.00, 108.7, 395.2)">p</text><text xml:space="preserve" font-family="Chalkduster,Chalkduster" font-size="27.8" fill="#FEFFFE" transform="matrix(1.00, 0.00, -0.00, -1.00, 127.4, 395.2)">r</text><text xml:space="preserve" font-family="Chalkduster,Chalkduster" font-size="27.8" fill="#FEFFFE" transform="matrix(1.00, 0.00, -0.00, -1.00, 143.1, 395.2)">o</text><text xml:space="preserve" font-family="Chalkduster,Chalkduster" font-size="27.8" fill="#FEFFFE" transform="matrix(1.00, 0.00, -0.00, -1.00, 164.9, 395.2)">p</text><text xml:space="preserve" font-family="Chalkduster,Chalkduster" font-size="27.8" fill="#FEFFFE" transform="matrix(1.00, 0.00, -0.00, -1.00, 183.5, 395.2)">ó</text><text xml:space="preserve" font-family="Chalkduster,Chalkduster" font-size="27.8" fill="#FEFFFE" transform="matrix(1.00, 0.00, -0.00, -1.00, 205.6, 395.2)">s</text><text xml:space="preserve" font-family="Chalkduster,Chalkduster" font-size="27.8" fill="#FEFFFE" transform="matrix(1.00, 0.00, -0.00, -1.00, 221.1, 395.2)">i</text><text xml:space="preserve" font-family="Chalkduster,Chalkduster" font-size="27.8" fill="#FEFFFE" transform="matrix(1.00, 0.00, -0.00, -1.00, 233.9, 395.2)">t</text><text xml:space="preserve" font-family="Chalkduster,Chalkduster" font-size="27.8" fill="#FEFFFE" transform="matrix(1.00, 0.00, -0.00, -1.00, 246.9, 395.2)">o</text><text xml:space="preserve" font-family="Chalkduster,Chalkduster" font-size="27.8" fill="#FEFFFE" transform="matrix(1.00, 0.00, -0.00, -1.00, 266.9, 395.2)"> </text><text xml:space="preserve" font-family="Chalkduster,Chalkduster" font-size="27.8" fill="#FEFFFE" transform="matrix(1.00, 0.00, -0.00, -1.00, 295.4, 395.2)">y</text><text xml:space="preserve" font-family="Chalkduster,Chalkduster" font-size="27.8" fill="#FEFFFE" transform="matrix(1.00, 0.00, -0.00, -1.00, 312.3, 395.2)"> </text><text xml:space="preserve" font-family="Chalkduster,Chalkduster" font-size="27.8" fill="#FEFFFE" transform="matrix(1.00, 0.00, -0.00, -1.00, 340.8, 395.2)">m</text><text xml:space="preserve" font-family="Chalkduster,Chalkduster" font-size="27.8" fill="#FEFFFE" transform="matrix(1.00, 0.00, -0.00, -1.00, 370.5, 395.2)">u</text><text xml:space="preserve" font-family="Chalkduster,Chalkduster" font-size="27.8" fill="#FEFFFE" transform="matrix(1.00, 0.00, -0.00, -1.00, 391.1, 395.2)">y</text><text xml:space="preserve" font-family="Chalkduster,Chalkduster" font-size="27.8" fill="#FEFFFE" transform="matrix(1.00, 0.00, -0.00, -1.00, 408.1, 395.2)"> </text><text xml:space="preserve" font-family="Chalkduster,Chalkduster" font-size="27.8" fill="#FEFFFE" transform="matrix(1.00, 0.00, -0.00, -1.00, 1.0, 353.2)">c</text><text xml:space="preserve" font-family="Chalkduster,Chalkduster" font-size="27.8" fill="#FEFFFE" transform="matrix(1.00, 0.00, -0.00, -1.00, 17.6, 353.2)">o</text><text xml:space="preserve" font-family="Chalkduster,Chalkduster" font-size="27.8" fill="#FEFFFE" transform="matrix(1.00, 0.00, -0.00, -1.00, 38.3, 353.2)">n</text><text xml:space="preserve" font-family="Chalkduster,Chalkduster" font-size="27.8" fill="#FEFFFE" transform="matrix(1.00, 0.00, -0.00, -1.00, 58.8, 353.2)">f</text><text xml:space="preserve" font-family="Chalkduster,Chalkduster" font-size="27.8" fill="#FEFFFE" transform="matrix(1.00, 0.00, -0.00, -1.00, 73.6, 353.2)">i</text><text xml:space="preserve" font-family="Chalkduster,Chalkduster" font-size="27.8" fill="#FEFFFE" transform="matrix(1.00, 0.00, -0.00, -1.00, 84.6, 353.2)">g</text><text xml:space="preserve" font-family="Chalkduster,Chalkduster" font-size="27.8" fill="#FEFFFE" transform="matrix(1.00, 0.00, -0.00, -1.00, 103.6, 353.2)">u</text><text xml:space="preserve" font-family="Chalkduster,Chalkduster" font-size="27.8" fill="#FEFFFE" transform="matrix(1.00, 0.00, -0.00, -1.00, 123.2, 353.2)">r</text><text xml:space="preserve" font-family="Chalkduster,Chalkduster" font-size="27.8" fill="#FEFFFE" transform="matrix(1.00, 0.00, -0.00, -1.00, 137.8, 353.2)">a</text><text xml:space="preserve" font-family="Chalkduster,Chalkduster" font-size="27.8" fill="#FEFFFE" transform="matrix(1.00, 0.00, -0.00, -1.00, 157.1, 353.2)">b</text><text xml:space="preserve" font-family="Chalkduster,Chalkduster" font-size="27.8" fill="#FEFFFE" transform="matrix(1.00, 0.00, -0.00, -1.00, 173.8, 353.2)">l</text><text xml:space="preserve" font-family="Chalkduster,Chalkduster" font-size="27.8" fill="#FEFFFE" transform="matrix(1.00, 0.00, -0.00, -1.00, 185.4, 353.2)">e</text><text xml:space="preserve" font-family="Chalkduster,Chalkduster" font-size="27.8" fill="#FEFFFE" transform="matrix(1.00, 0.00, -0.00, -1.00, 202.6, 353.2)"> </text><text xml:space="preserve" font-family="Chalkduster,Chalkduster" font-size="27.8" fill="#FEFFFE" transform="matrix(1.00, 0.00, -0.00, -1.00, 218.2, 353.2)">q</text><text xml:space="preserve" font-family="Chalkduster,Chalkduster" font-size="27.8" fill="#FEFFFE" transform="matrix(1.00, 0.00, -0.00, -1.00, 236.2, 353.2)">u</text><text xml:space="preserve" font-family="Chalkduster,Chalkduster" font-size="27.8" fill="#FEFFFE" transform="matrix(1.00, 0.00, -0.00, -1.00, 255.3, 353.2)">e</text><text xml:space="preserve" font-family="Chalkduster,Chalkduster" font-size="27.8" fill="#FEFFFE" transform="matrix(1.00, 0.00, -0.00, -1.00, 272.6, 353.2)"> </text><text xml:space="preserve" font-family="Chalkduster,Chalkduster" font-size="27.8" fill="#FEFFFE" transform="matrix(1.00, 0.00, -0.00, -1.00, 288.1, 353.2)">p</text><text xml:space="preserve" font-family="Chalkduster,Chalkduster" font-size="27.8" fill="#FEFFFE" transform="matrix(1.00, 0.00, -0.00, -1.00, 305.6, 353.2)">e</text><text xml:space="preserve" font-family="Chalkduster,Chalkduster" font-size="27.8" fill="#FEFFFE" transform="matrix(1.00, 0.00, -0.00, -1.00, 322.6, 353.2)">r</text><text xml:space="preserve" font-family="Chalkduster,Chalkduster" font-size="27.8" fill="#FEFFFE" transform="matrix(1.00, 0.00, -0.00, -1.00, 338.5, 353.2)">m</text><text xml:space="preserve" font-family="Chalkduster,Chalkduster" font-size="27.8" fill="#FEFFFE" transform="matrix(1.00, 0.00, -0.00, -1.00, 367.1, 353.2)">i</text><text xml:space="preserve" font-family="Chalkduster,Chalkduster" font-size="27.8" fill="#FEFFFE" transform="matrix(1.00, 0.00, -0.00, -1.00, 378.4, 353.2)">t</text><text xml:space="preserve" font-family="Chalkduster,Chalkduster" font-size="27.8" fill="#FEFFFE" transform="matrix(1.00, 0.00, -0.00, -1.00, 390.8, 353.2)">e</text><text xml:space="preserve" font-family="Chalkduster,Chalkduster" font-size="27.8" fill="#FEFFFE" transform="matrix(1.00, 0.00, -0.00, -1.00, 408.1, 353.2)"> </text><text xml:space="preserve" font-family="Chalkduster,Chalkduster" font-size="27.8" fill="#FEFFFE" transform="matrix(1.00, 0.00, -0.00, -1.00, 1.0, 311.2)">p</text><text xml:space="preserve" font-family="Chalkduster,Chalkduster" font-size="27.8" fill="#FEFFFE" transform="matrix(1.00, 0.00, -0.00, -1.00, 24.7, 311.2)">u</text><text xml:space="preserve" font-family="Chalkduster,Chalkduster" font-size="27.8" fill="#FEFFFE" transform="matrix(1.00, 0.00, -0.00, -1.00, 50.3, 311.2)">b</text><text xml:space="preserve" font-family="Chalkduster,Chalkduster" font-size="27.8" fill="#FEFFFE" transform="matrix(1.00, 0.00, -0.00, -1.00, 73.6, 311.2)">l</text><text xml:space="preserve" font-family="Chalkduster,Chalkduster" font-size="27.8" fill="#FEFFFE" transform="matrix(1.00, 0.00, -0.00, -1.00, 93.4, 311.2)">i</text><text xml:space="preserve" font-family="Chalkduster,Chalkduster" font-size="27.8" fill="#FEFFFE" transform="matrix(1.00, 0.00, -0.00, -1.00, 111.2, 311.2)">c</text><text xml:space="preserve" font-family="Chalkduster,Chalkduster" font-size="27.8" fill="#FEFFFE" transform="matrix(1.00, 0.00, -0.00, -1.00, 134.1, 311.2)">a</text><text xml:space="preserve" font-family="Chalkduster,Chalkduster" font-size="27.8" fill="#FEFFFE" transform="matrix(1.00, 0.00, -0.00, -1.00, 158.3, 311.2)">r</text><text xml:space="preserve" font-family="Chalkduster,Chalkduster" font-size="27.8" fill="#FEFFFE" transform="matrix(1.00, 0.00, -0.00, -1.00, 173.0, 311.2)"> </text><text xml:space="preserve" font-family="Chalkduster,Chalkduster" font-size="27.8" fill="#FEFFFE" transform="matrix(1.00, 0.00, -0.00, -1.00, 204.0, 311.2)">a</text><text xml:space="preserve" font-family="Chalkduster,Chalkduster" font-size="27.8" fill="#FEFFFE" transform="matrix(1.00, 0.00, -0.00, -1.00, 228.2, 311.2)">r</text><text xml:space="preserve" font-family="Chalkduster,Chalkduster" font-size="27.8" fill="#FEFFFE" transform="matrix(1.00, 0.00, -0.00, -1.00, 249.4, 311.2)">t</text><text xml:space="preserve" font-family="Chalkduster,Chalkduster" font-size="27.8" fill="#FEFFFE" transform="matrix(1.00, 0.00, -0.00, -1.00, 268.6, 311.2)">í</text><text xml:space="preserve" font-family="Chalkduster,Chalkduster" font-size="27.8" fill="#FEFFFE" transform="matrix(1.00, 0.00, -0.00, -1.00, 284.4, 311.2)">c</text><text xml:space="preserve" font-family="Chalkduster,Chalkduster" font-size="27.8" fill="#FEFFFE" transform="matrix(1.00, 0.00, -0.00, -1.00, 308.4, 311.2)">u</text><text xml:space="preserve" font-family="Chalkduster,Chalkduster" font-size="27.8" fill="#FEFFFE" transform="matrix(1.00, 0.00, -0.00, -1.00, 334.7, 311.2)">l</text><text xml:space="preserve" font-family="Chalkduster,Chalkduster" font-size="27.8" fill="#FEFFFE" transform="matrix(1.00, 0.00, -0.00, -1.00, 353.2, 311.2)">o</text><text xml:space="preserve" font-family="Chalkduster,Chalkduster" font-size="27.8" fill="#FEFFFE" transform="matrix(1.00, 0.00, -0.00, -1.00, 380.0, 311.2)">s</text><text xml:space="preserve" font-family="Chalkduster,Chalkduster" font-size="27.8" fill="#FEFFFE" transform="matrix(1.00, 0.00, -0.00, -1.00, 399.5, 311.2)">,</text><text xml:space="preserve" font-family="Chalkduster,Chalkduster" font-size="27.8" fill="#FEFFFE" transform="matrix(1.00, 0.00, -0.00, -1.00, 408.1, 311.2)"> </text><text xml:space="preserve" font-family="Chalkduster,Chalkduster" font-size="27.8" fill="#FEFFFE" transform="matrix(1.00, 0.00, -0.00, -1.00, 1.0, 269.2)">i</text><text xml:space="preserve" font-family="Chalkduster,Chalkduster" font-size="27.8" fill="#FEFFFE" transform="matrix(1.00, 0.00, -0.00, -1.00, 15.1, 269.2)">m</text><text xml:space="preserve" font-family="Chalkduster,Chalkduster" font-size="27.8" fill="#FEFFFE" transform="matrix(1.00, 0.00, -0.00, -1.00, 46.4, 269.2)">á</text><text xml:space="preserve" font-family="Chalkduster,Chalkduster" font-size="27.8" fill="#FEFFFE" transform="matrix(1.00, 0.00, -0.00, -1.00, 67.8, 269.2)">g</text><text xml:space="preserve" font-family="Chalkduster,Chalkduster" font-size="27.8" fill="#FEFFFE" transform="matrix(1.00, 0.00, -0.00, -1.00, 90.3, 269.2)">e</text><text xml:space="preserve" font-family="Chalkduster,Chalkduster" font-size="27.8" fill="#FEFFFE" transform="matrix(1.00, 0.00, -0.00, -1.00, 111.0, 269.2)">n</text><text xml:space="preserve" font-family="Chalkduster,Chalkduster" font-size="27.8" fill="#FEFFFE" transform="matrix(1.00, 0.00, -0.00, -1.00, 134.9, 269.2)">e</text><text xml:space="preserve" font-family="Chalkduster,Chalkduster" font-size="27.8" fill="#FEFFFE" transform="matrix(1.00, 0.00, -0.00, -1.00, 156.0, 269.2)">s</text><text xml:space="preserve" font-family="Chalkduster,Chalkduster" font-size="27.8" fill="#FEFFFE" transform="matrix(1.00, 0.00, -0.00, -1.00, 172.0, 269.2)">,</text><text xml:space="preserve" font-family="Chalkduster,Chalkduster" font-size="27.8" fill="#FEFFFE" transform="matrix(1.00, 0.00, -0.00, -1.00, 180.7, 269.2)"> </text><text xml:space="preserve" font-family="Chalkduster,Chalkduster" font-size="27.8" fill="#FEFFFE" transform="matrix(1.00, 0.00, -0.00, -1.00, 210.0, 269.2)">a</text><text xml:space="preserve" font-family="Chalkduster,Chalkduster" font-size="27.8" fill="#FEFFFE" transform="matrix(1.00, 0.00, -0.00, -1.00, 230.8, 269.2)">r</text><text xml:space="preserve" font-family="Chalkduster,Chalkduster" font-size="27.8" fill="#FEFFFE" transform="matrix(1.00, 0.00, -0.00, -1.00, 248.3, 269.2)">c</text><text xml:space="preserve" font-family="Chalkduster,Chalkduster" font-size="27.8" fill="#FEFFFE" transform="matrix(1.00, 0.00, -0.00, -1.00, 268.9, 269.2)">h</text><text xml:space="preserve" font-family="Chalkduster,Chalkduster" font-size="27.8" fill="#FEFFFE" transform="matrix(1.00, 0.00, -0.00, -1.00, 289.7, 269.2)">i</text><text xml:space="preserve" font-family="Chalkduster,Chalkduster" font-size="27.8" fill="#FEFFFE" transform="matrix(1.00, 0.00, -0.00, -1.00, 303.8, 269.2)">v</text><text xml:space="preserve" font-family="Chalkduster,Chalkduster" font-size="27.8" fill="#FEFFFE" transform="matrix(1.00, 0.00, -0.00, -1.00, 324.3, 269.2)">o</text><text xml:space="preserve" font-family="Chalkduster,Chalkduster" font-size="27.8" fill="#FEFFFE" transform="matrix(1.00, 0.00, -0.00, -1.00, 347.7, 269.2)">s</text><text xml:space="preserve" font-family="Chalkduster,Chalkduster" font-size="27.8" fill="#FEFFFE" transform="matrix(1.00, 0.00, -0.00, -1.00, 361.7, 269.2)"> </text><text xml:space="preserve" font-family="Chalkduster,Chalkduster" font-size="27.8" fill="#FEFFFE" transform="matrix(1.00, 0.00, -0.00, -1.00, 391.1, 269.2)">y</text><text xml:space="preserve" font-family="Chalkduster,Chalkduster" font-size="27.8" fill="#FEFFFE" transform="matrix(1.00, 0.00, -0.00, -1.00, 408.0, 269.2)"> </text><text xml:space="preserve" font-family="Chalkduster,Chalkduster" font-size="27.8" fill="#FEFFFE" transform="matrix(1.00, 0.00, -0.00, -1.00, 1.0, 227.2)">o</text><text xml:space="preserve" font-family="Chalkduster,Chalkduster" font-size="27.8" fill="#FEFFFE" transform="matrix(1.00, 0.00, -0.00, -1.00, 24.4, 227.2)">t</text><text xml:space="preserve" font-family="Chalkduster,Chalkduster" font-size="27.8" fill="#FEFFFE" transform="matrix(1.00, 0.00, -0.00, -1.00, 41.6, 227.2)">r</text><text xml:space="preserve" font-family="Chalkduster,Chalkduster" font-size="27.8" fill="#FEFFFE" transform="matrix(1.00, 0.00, -0.00, -1.00, 60.7, 227.2)">a</text><text xml:space="preserve" font-family="Chalkduster,Chalkduster" font-size="27.8" fill="#FEFFFE" transform="matrix(1.00, 0.00, -0.00, -1.00, 84.6, 227.2)">s</text><text xml:space="preserve" font-family="Chalkduster,Chalkduster" font-size="27.8" fill="#FEFFFE" transform="matrix(1.00, 0.00, -0.00, -1.00, 98.7, 227.2)"> </text><text xml:space="preserve" font-family="Chalkduster,Chalkduster" font-size="27.8" fill="#FEFFFE" transform="matrix(1.00, 0.00, -0.00, -1.00, 128.7, 227.2)">c</text><text xml:space="preserve" font-family="Chalkduster,Chalkduster" font-size="27.8" fill="#FEFFFE" transform="matrix(1.00, 0.00, -0.00, -1.00, 149.7, 227.2)">o</text><text xml:space="preserve" font-family="Chalkduster,Chalkduster" font-size="27.8" fill="#FEFFFE" transform="matrix(1.00, 0.00, -0.00, -1.00, 174.4, 227.2)">s</text><text xml:space="preserve" font-family="Chalkduster,Chalkduster" font-size="27.8" fill="#FEFFFE" transform="matrix(1.00, 0.00, -0.00, -1.00, 192.9, 227.2)">a</text><text xml:space="preserve" font-family="Chalkduster,Chalkduster" font-size="27.8" fill="#FEFFFE" transform="matrix(1.00, 0.00, -0.00, -1.00, 216.9, 227.2)">s</text><text xml:space="preserve" font-family="Chalkduster,Chalkduster" font-size="27.8" fill="#FEFFFE" transform="matrix(1.00, 0.00, -0.00, -1.00, 230.9, 227.2)"> </text><text xml:space="preserve" font-family="Chalkduster,Chalkduster" font-size="27.8" fill="#FEFFFE" transform="matrix(1.00, 0.00, -0.00, -1.00, 260.9, 227.2)">u</text><text xml:space="preserve" font-family="Chalkduster,Chalkduster" font-size="27.8" fill="#FEFFFE" transform="matrix(1.00, 0.00, -0.00, -1.00, 280.0, 227.2)"> </text><text xml:space="preserve" font-family="Chalkduster,Chalkduster" font-size="27.8" fill="#FEFFFE" transform="matrix(1.00, 0.00, -0.00, -1.00, 310.0, 227.2)">o</text><text xml:space="preserve" font-family="Chalkduster,Chalkduster" font-size="27.8" fill="#FEFFFE" transform="matrix(1.00, 0.00, -0.00, -1.00, 333.4, 227.2)">t</text><text xml:space="preserve" font-family="Chalkduster,Chalkduster" font-size="27.8" fill="#FEFFFE" transform="matrix(1.00, 0.00, -0.00, -1.00, 350.6, 227.2)">r</text><text xml:space="preserve" font-family="Chalkduster,Chalkduster" font-size="27.8" fill="#FEFFFE" transform="matrix(1.00, 0.00, -0.00, -1.00, 369.3, 227.2)">o</text><text xml:space="preserve" font-family="Chalkduster,Chalkduster" font-size="27.8" fill="#FEFFFE" transform="matrix(1.00, 0.00, -0.00, -1.00, 394.0, 227.2)">s</text><text xml:space="preserve" font-family="Chalkduster,Chalkduster" font-size="27.8" fill="#FEFFFE" transform="matrix(1.00, 0.00, -0.00, -1.00, 408.0, 227.2)"> </text><text xml:space="preserve" font-family="Chalkduster,Chalkduster" font-size="27.8" fill="#FEFFFE" transform="matrix(1.00, 0.00, -0.00, -1.00, 1.0, 185.2)">a</text><text xml:space="preserve" font-family="Chalkduster,Chalkduster" font-size="27.8" fill="#FEFFFE" transform="matrix(1.00, 0.00, -0.00, -1.00, 22.8, 185.2)">r</text><text xml:space="preserve" font-family="Chalkduster,Chalkduster" font-size="27.8" fill="#FEFFFE" transform="matrix(1.00, 0.00, -0.00, -1.00, 41.3, 185.2)">c</text><text xml:space="preserve" font-family="Chalkduster,Chalkduster" font-size="27.8" fill="#FEFFFE" transform="matrix(1.00, 0.00, -0.00, -1.00, 62.9, 185.2)">h</text><text xml:space="preserve" font-family="Chalkduster,Chalkduster" font-size="27.8" fill="#FEFFFE" transform="matrix(1.00, 0.00, -0.00, -1.00, 84.6, 185.2)">i</text><text xml:space="preserve" font-family="Chalkduster,Chalkduster" font-size="27.8" fill="#FEFFFE" transform="matrix(1.00, 0.00, -0.00, -1.00, 99.8, 185.2)">v</text><text xml:space="preserve" font-family="Chalkduster,Chalkduster" font-size="27.8" fill="#FEFFFE" transform="matrix(1.00, 0.00, -0.00, -1.00, 121.2, 185.2)">o</text><text xml:space="preserve" font-family="Chalkduster,Chalkduster" font-size="27.8" fill="#FEFFFE" transform="matrix(1.00, 0.00, -0.00, -1.00, 145.6, 185.2)">s</text><text xml:space="preserve" font-family="Chalkduster,Chalkduster" font-size="27.8" fill="#FEFFFE" transform="matrix(1.00, 0.00, -0.00, -1.00, 159.7, 185.2)"> </text><text xml:space="preserve" font-family="Chalkduster,Chalkduster" font-size="27.8" fill="#FEFFFE" transform="matrix(1.00, 0.00, -0.00, -1.00, 189.5, 185.2)">y</text><text xml:space="preserve" font-family="Chalkduster,Chalkduster" font-size="27.8" fill="#FEFFFE" transform="matrix(1.00, 0.00, -0.00, -1.00, 206.4, 185.2)"> </text><text xml:space="preserve" font-family="Chalkduster,Chalkduster" font-size="27.8" fill="#FEFFFE" transform="matrix(1.00, 0.00, -0.00, -1.00, 236.2, 185.2)">s</text><text xml:space="preserve" font-family="Chalkduster,Chalkduster" font-size="27.8" fill="#FEFFFE" transform="matrix(1.00, 0.00, -0.00, -1.00, 254.4, 185.2)">e</text><text xml:space="preserve" font-family="Chalkduster,Chalkduster" font-size="27.8" fill="#FEFFFE" transform="matrix(1.00, 0.00, -0.00, -1.00, 275.5, 185.2)">r</text><text xml:space="preserve" font-family="Chalkduster,Chalkduster" font-size="27.8" fill="#FEFFFE" transform="matrix(1.00, 0.00, -0.00, -1.00, 296.1, 185.2)">v</text><text xml:space="preserve" font-family="Chalkduster,Chalkduster" font-size="27.8" fill="#FEFFFE" transform="matrix(1.00, 0.00, -0.00, -1.00, 317.5, 185.2)">i</text><text xml:space="preserve" font-family="Chalkduster,Chalkduster" font-size="27.8" fill="#FEFFFE" transform="matrix(1.00, 0.00, -0.00, -1.00, 332.9, 185.2)">c</text><text xml:space="preserve" font-family="Chalkduster,Chalkduster" font-size="27.8" fill="#FEFFFE" transform="matrix(1.00, 0.00, -0.00, -1.00, 354.5, 185.2)">i</text><text xml:space="preserve" font-family="Chalkduster,Chalkduster" font-size="27.8" fill="#FEFFFE" transform="matrix(1.00, 0.00, -0.00, -1.00, 369.6, 185.2)">o</text><text xml:space="preserve" font-family="Chalkduster,Chalkduster" font-size="27.8" fill="#FEFFFE" transform="matrix(1.00, 0.00, -0.00, -1.00, 394.0, 185.2)">s</text><text xml:space="preserve" font-family="Chalkduster,Chalkduster" font-size="27.8" fill="#FEFFFE" transform="matrix(1.00, 0.00, -0.00, -1.00, 408.0, 185.2)"> </text><text xml:space="preserve" font-family="Chalkduster,Chalkduster" font-size="27.8" fill="#FEFFFE" transform="matrix(1.00, 0.00, -0.00, -1.00, 1.0, 143.2)">a</text><text xml:space="preserve" font-family="Chalkduster,Chalkduster" font-size="27.8" fill="#FEFFFE" transform="matrix(1.00, 0.00, -0.00, -1.00, 21.8, 143.2)">ñ</text><text xml:space="preserve" font-family="Chalkduster,Chalkduster" font-size="27.8" fill="#FEFFFE" transform="matrix(1.00, 0.00, -0.00, -1.00, 44.3, 143.2)">a</text><text xml:space="preserve" font-family="Chalkduster,Chalkduster" font-size="27.8" fill="#FEFFFE" transform="matrix(1.00, 0.00, -0.00, -1.00, 64.3, 143.2)">d</text><text xml:space="preserve" font-family="Chalkduster,Chalkduster" font-size="27.8" fill="#FEFFFE" transform="matrix(1.00, 0.00, -0.00, -1.00, 88.8, 143.2)">i</text><text xml:space="preserve" font-family="Chalkduster,Chalkduster" font-size="27.8" fill="#FEFFFE" transform="matrix(1.00, 0.00, -0.00, -1.00, 102.4, 143.2)">d</text><text xml:space="preserve" font-family="Chalkduster,Chalkduster" font-size="27.8" fill="#FEFFFE" transform="matrix(1.00, 0.00, -0.00, -1.00, 125.8, 143.2)">o</text><text xml:space="preserve" font-family="Chalkduster,Chalkduster" font-size="27.8" fill="#FEFFFE" transform="matrix(1.00, 0.00, -0.00, -1.00, 147.7, 143.2)">s</text><text xml:space="preserve" font-family="Chalkduster,Chalkduster" font-size="27.8" fill="#FEFFFE" transform="matrix(1.00, 0.00, -0.00, -1.00, 161.8, 143.2)"> </text><text xml:space="preserve" font-family="Chalkduster,Chalkduster" font-size="27.8" fill="#FEFFFE" transform="matrix(1.00, 0.00, -0.00, -1.00, 190.4, 143.2)">c</text><text xml:space="preserve" font-family="Chalkduster,Chalkduster" font-size="27.8" fill="#FEFFFE" transform="matrix(1.00, 0.00, -0.00, -1.00, 208.6, 143.2)">o</text><text xml:space="preserve" font-family="Chalkduster,Chalkduster" font-size="27.8" fill="#FEFFFE" transform="matrix(1.00, 0.00, -0.00, -1.00, 231.1, 143.2)">m</text><text xml:space="preserve" font-family="Chalkduster,Chalkduster" font-size="27.8" fill="#FEFFFE" transform="matrix(1.00, 0.00, -0.00, -1.00, 260.9, 143.2)">o</text><text xml:space="preserve" font-family="Chalkduster,Chalkduster" font-size="27.8" fill="#FEFFFE" transform="matrix(1.00, 0.00, -0.00, -1.00, 280.9, 143.2)"> </text><text xml:space="preserve" font-family="Chalkduster,Chalkduster" font-size="27.8" fill="#FEFFFE" transform="matrix(1.00, 0.00, -0.00, -1.00, 309.5, 143.2)">f</text><text xml:space="preserve" font-family="Chalkduster,Chalkduster" font-size="27.8" fill="#FEFFFE" transform="matrix(1.00, 0.00, -0.00, -1.00, 325.1, 143.2)">o</text><text xml:space="preserve" font-family="Chalkduster,Chalkduster" font-size="27.8" fill="#FEFFFE" transform="matrix(1.00, 0.00, -0.00, -1.00, 347.0, 143.2)">r</text><text xml:space="preserve" font-family="Chalkduster,Chalkduster" font-size="27.8" fill="#FEFFFE" transform="matrix(1.00, 0.00, -0.00, -1.00, 362.9, 143.2)">o</text><text xml:space="preserve" font-family="Chalkduster,Chalkduster" font-size="27.8" fill="#FEFFFE" transform="matrix(1.00, 0.00, -0.00, -1.00, 384.8, 143.2)">s</text><text xml:space="preserve" font-family="Chalkduster,Chalkduster" font-size="27.8" fill="#FEFFFE" transform="matrix(1.00, 0.00, -0.00, -1.00, 399.4, 143.2)">,</text><text xml:space="preserve" font-family="Chalkduster,Chalkduster" font-size="27.8" fill="#FEFFFE" transform="matrix(1.00, 0.00, -0.00, -1.00, 408.1, 143.2)"> </text><text xml:space="preserve" font-family="Chalkduster,Chalkduster" font-size="27.8" fill="#FEFFFE" transform="matrix(1.00, 0.00, -0.00, -1.00, 1.0, 101.2)">e</text><text xml:space="preserve" font-family="Chalkduster,Chalkduster" font-size="27.8" fill="#FEFFFE" transform="matrix(1.00, 0.00, -0.00, -1.00, 20.7, 101.2)">n</text><text xml:space="preserve" font-family="Chalkduster,Chalkduster" font-size="27.8" fill="#FEFFFE" transform="matrix(1.00, 0.00, -0.00, -1.00, 43.2, 101.2)">c</text><text xml:space="preserve" font-family="Chalkduster,Chalkduster" font-size="27.8" fill="#FEFFFE" transform="matrix(1.00, 0.00, -0.00, -1.00, 62.9, 101.2)">u</text><text xml:space="preserve" font-family="Chalkduster,Chalkduster" font-size="27.8" fill="#FEFFFE" transform="matrix(1.00, 0.00, -0.00, -1.00, 84.1, 101.2)">e</text><text xml:space="preserve" font-family="Chalkduster,Chalkduster" font-size="27.8" fill="#FEFFFE" transform="matrix(1.00, 0.00, -0.00, -1.00, 104.2, 101.2)">s</text><text xml:space="preserve" font-family="Chalkduster,Chalkduster" font-size="27.8" fill="#FEFFFE" transform="matrix(1.00, 0.00, -0.00, -1.00, 121.2, 101.2)">t</text><text xml:space="preserve" font-family="Chalkduster,Chalkduster" font-size="27.8" fill="#FEFFFE" transform="matrix(1.00, 0.00, -0.00, -1.00, 135.8, 101.2)">a</text><text xml:space="preserve" font-family="Chalkduster,Chalkduster" font-size="27.8" fill="#FEFFFE" transform="matrix(1.00, 0.00, -0.00, -1.00, 157.4, 101.2)">s</text><text xml:space="preserve" font-family="Chalkduster,Chalkduster" font-size="27.8" fill="#FEFFFE" transform="matrix(1.00, 0.00, -0.00, -1.00, 172.5, 101.2)">,</text><text xml:space="preserve" font-family="Chalkduster,Chalkduster" font-size="27.8" fill="#FEFFFE" transform="matrix(1.00, 0.00, -0.00, -1.00, 181.2, 101.2)"> </text><text xml:space="preserve" font-family="Chalkduster,Chalkduster" font-size="27.8" fill="#FEFFFE" transform="matrix(1.00, 0.00, -0.00, -1.00, 210.0, 101.2)">v</text><text xml:space="preserve" font-family="Chalkduster,Chalkduster" font-size="27.8" fill="#FEFFFE" transform="matrix(1.00, 0.00, -0.00, -1.00, 229.5, 101.2)">o</text><text xml:space="preserve" font-family="Chalkduster,Chalkduster" font-size="27.8" fill="#FEFFFE" transform="matrix(1.00, 0.00, -0.00, -1.00, 250.6, 101.2)">t</text><text xml:space="preserve" font-family="Chalkduster,Chalkduster" font-size="27.8" fill="#FEFFFE" transform="matrix(1.00, 0.00, -0.00, -1.00, 265.2, 101.2)">a</text><text xml:space="preserve" font-family="Chalkduster,Chalkduster" font-size="27.8" fill="#FEFFFE" transform="matrix(1.00, 0.00, -0.00, -1.00, 285.6, 101.2)">c</text><text xml:space="preserve" font-family="Chalkduster,Chalkduster" font-size="27.8" fill="#FEFFFE" transform="matrix(1.00, 0.00, -0.00, -1.00, 305.3, 101.2)">i</text><text xml:space="preserve" font-family="Chalkduster,Chalkduster" font-size="27.8" fill="#FEFFFE" transform="matrix(1.00, 0.00, -0.00, -1.00, 318.4, 101.2)">o</text><text xml:space="preserve" font-family="Chalkduster,Chalkduster" font-size="27.8" fill="#FEFFFE" transform="matrix(1.00, 0.00, -0.00, -1.00, 341.2, 101.2)">n</text><text xml:space="preserve" font-family="Chalkduster,Chalkduster" font-size="27.8" fill="#FEFFFE" transform="matrix(1.00, 0.00, -0.00, -1.00, 364.2, 101.2)">e</text><text xml:space="preserve" font-family="Chalkduster,Chalkduster" font-size="27.8" fill="#FEFFFE" transform="matrix(1.00, 0.00, -0.00, -1.00, 384.2, 101.2)">s</text><text xml:space="preserve" font-family="Chalkduster,Chalkduster" font-size="27.8" fill="#FEFFFE" transform="matrix(1.00, 0.00, -0.00, -1.00, 399.4, 101.2)">,</text><text xml:space="preserve" font-family="Chalkduster,Chalkduster" font-size="27.8" fill="#FEFFFE" transform="matrix(1.00, 0.00, -0.00, -1.00, 408.0, 101.2)"> </text><text xml:space="preserve" font-family="Chalkduster,Chalkduster" font-size="27.8" fill="#FEFFFE" transform="matrix(1.00, 0.00, -0.00, -1.00, 1.0, 59.2)">b</text><text xml:space="preserve" font-family="Chalkduster,Chalkduster" font-size="27.8" fill="#FEFFFE" transform="matrix(1.00, 0.00, -0.00, -1.00, 18.3, 59.2)">l</text><text xml:space="preserve" font-family="Chalkduster,Chalkduster" font-size="27.8" fill="#FEFFFE" transform="matrix(1.00, 0.00, -0.00, -1.00, 30.8, 59.2)">o</text><text xml:space="preserve" font-family="Chalkduster,Chalkduster" font-size="27.8" fill="#FEFFFE" transform="matrix(1.00, 0.00, -0.00, -1.00, 51.8, 59.2)">g</text><text xml:space="preserve" font-family="Chalkduster,Chalkduster" font-size="27.8" fill="#FEFFFE" transform="matrix(1.00, 0.00, -0.00, -1.00, 72.2, 59.2)">s</text><text xml:space="preserve" font-family="Chalkduster,Chalkduster" font-size="27.8" fill="#FEFFFE" transform="matrix(1.00, 0.00, -0.00, -1.00, 86.2, 59.2)"> </text><text xml:space="preserve" font-family="Chalkduster,Chalkduster" font-size="27.8" fill="#FEFFFE" transform="matrix(1.00, 0.00, -0.00, -1.00, 114.3, 59.2)">y</text><text xml:space="preserve" font-family="Chalkduster,Chalkduster" font-size="27.8" fill="#FEFFFE" transform="matrix(1.00, 0.00, -0.00, -1.00, 131.2, 59.2)"> </text><text xml:space="preserve" font-family="Chalkduster,Chalkduster" font-size="27.8" fill="#FEFFFE" transform="matrix(1.00, 0.00, -0.00, -1.00, 159.3, 59.2)">a</text><text xml:space="preserve" font-family="Chalkduster,Chalkduster" font-size="27.8" fill="#FEFFFE" transform="matrix(1.00, 0.00, -0.00, -1.00, 178.1, 59.2)">d</text><text xml:space="preserve" font-family="Chalkduster,Chalkduster" font-size="27.8" fill="#FEFFFE" transform="matrix(1.00, 0.00, -0.00, -1.00, 200.4, 59.2)">m</text><text xml:space="preserve" font-family="Chalkduster,Chalkduster" font-size="27.8" fill="#FEFFFE" transform="matrix(1.00, 0.00, -0.00, -1.00, 229.5, 59.2)">i</text><text xml:space="preserve" font-family="Chalkduster,Chalkduster" font-size="27.8" fill="#FEFFFE" transform="matrix(1.00, 0.00, -0.00, -1.00, 241.1, 59.2)">n</text><text xml:space="preserve" font-family="Chalkduster,Chalkduster" font-size="27.8" fill="#FEFFFE" transform="matrix(1.00, 0.00, -0.00, -1.00, 262.5, 59.2)">i</text><text xml:space="preserve" font-family="Chalkduster,Chalkduster" font-size="27.8" fill="#FEFFFE" transform="matrix(1.00, 0.00, -0.00, -1.00, 274.1, 59.2)">s</text><text xml:space="preserve" font-family="Chalkduster,Chalkduster" font-size="27.8" fill="#FEFFFE" transform="matrix(1.00, 0.00, -0.00, -1.00, 289.5, 59.2)">t</text><text xml:space="preserve" font-family="Chalkduster,Chalkduster" font-size="27.8" fill="#FEFFFE" transform="matrix(1.00, 0.00, -0.00, -1.00, 302.8, 59.2)">r</text><text xml:space="preserve" font-family="Chalkduster,Chalkduster" font-size="27.8" fill="#FEFFFE" transform="matrix(1.00, 0.00, -0.00, -1.00, 318.0, 59.2)">a</text><text xml:space="preserve" font-family="Chalkduster,Chalkduster" font-size="27.8" fill="#FEFFFE" transform="matrix(1.00, 0.00, -0.00, -1.00, 336.9, 59.2)">c</text><text xml:space="preserve" font-family="Chalkduster,Chalkduster" font-size="27.8" fill="#FEFFFE" transform="matrix(1.00, 0.00, -0.00, -1.00, 354.9, 59.2)">i</text><text xml:space="preserve" font-family="Chalkduster,Chalkduster" font-size="27.8" fill="#FEFFFE" transform="matrix(1.00, 0.00, -0.00, -1.00, 366.5, 59.2)">ó</text><text xml:space="preserve" font-family="Chalkduster,Chalkduster" font-size="27.8" fill="#FEFFFE" transform="matrix(1.00, 0.00, -0.00, -1.00, 387.6, 59.2)">n</text><text xml:space="preserve" font-family="Chalkduster,Chalkduster" font-size="27.8" fill="#FEFFFE" transform="matrix(1.00, 0.00, -0.00, -1.00, 408.0, 59.2)"> </text><text xml:space="preserve" font-family="Chalkduster,Chalkduster" font-size="27.8" fill="#FEFFFE" transform="matrix(1.00, 0.00, -0.00, -1.00, 1.0, 17.2)">d</text><text xml:space="preserve" font-family="Chalkduster,Chalkduster" font-size="27.8" fill="#FEFFFE" transform="matrix(1.00, 0.00, -0.00, -1.00, 22.8, 17.2)">e</text><text xml:space="preserve" font-family="Chalkduster,Chalkduster" font-size="27.8" fill="#FEFFFE" transform="matrix(1.00, 0.00, -0.00, -1.00, 40.0, 17.2)"> </text><text xml:space="preserve" font-family="Chalkduster,Chalkduster" font-size="27.8" fill="#FEFFFE" transform="matrix(1.00, 0.00, -0.00, -1.00, 53.9, 17.2)">u</text><text xml:space="preserve" font-family="Chalkduster,Chalkduster" font-size="27.8" fill="#FEFFFE" transform="matrix(1.00, 0.00, -0.00, -1.00, 73.8, 17.2)">s</text><text xml:space="preserve" font-family="Chalkduster,Chalkduster" font-size="27.8" fill="#FEFFFE" transform="matrix(1.00, 0.00, -0.00, -1.00, 87.9, 17.2)">u</text><text xml:space="preserve" font-family="Chalkduster,Chalkduster" font-size="27.8" fill="#FEFFFE" transform="matrix(1.00, 0.00, -0.00, -1.00, 107.0, 17.2)">a</text><text xml:space="preserve" font-family="Chalkduster,Chalkduster" font-size="27.8" fill="#FEFFFE" transform="matrix(1.00, 0.00, -0.00, -1.00, 124.7, 17.2)">r</text><text xml:space="preserve" font-family="Chalkduster,Chalkduster" font-size="27.8" fill="#FEFFFE" transform="matrix(1.00, 0.00, -0.00, -1.00, 140.2, 17.2)">i</text><text xml:space="preserve" font-family="Chalkduster,Chalkduster" font-size="27.8" fill="#FEFFFE" transform="matrix(1.00, 0.00, -0.00, -1.00, 151.1, 17.2)">o</text><text xml:space="preserve" font-family="Chalkduster,Chalkduster" font-size="27.8" fill="#FEFFFE" transform="matrix(1.00, 0.00, -0.00, -1.00, 171.4, 17.2)">s</text><text xml:space="preserve" font-family="Chalkduster,Chalkduster" font-size="27.8" fill="#FEFFFE" transform="matrix(1.00, 0.00, -0.00, -1.00, 185.5, 17.2)"> </text><text xml:space="preserve" font-family="Chalkduster,Chalkduster" font-size="27.8" fill="#FEFFFE" transform="matrix(1.00, 0.00, -0.00, -1.00, 199.3, 17.2)">y</text><text xml:space="preserve" font-family="Chalkduster,Chalkduster" font-size="27.8" fill="#FEFFFE" transform="matrix(1.00, 0.00, -0.00, -1.00, 216.3, 17.2)"> </text><text xml:space="preserve" font-family="Chalkduster,Chalkduster" font-size="27.8" fill="#FEFFFE" transform="matrix(1.00, 0.00, -0.00, -1.00, 230.1, 17.2)">p</text><text xml:space="preserve" font-family="Chalkduster,Chalkduster" font-size="27.8" fill="#FEFFFE" transform="matrix(1.00, 0.00, -0.00, -1.00, 247.6, 17.2)">e</text><text xml:space="preserve" font-family="Chalkduster,Chalkduster" font-size="27.8" fill="#FEFFFE" transform="matrix(1.00, 0.00, -0.00, -1.00, 264.6, 17.2)">r</text><text xml:space="preserve" font-family="Chalkduster,Chalkduster" font-size="27.8" fill="#FEFFFE" transform="matrix(1.00, 0.00, -0.00, -1.00, 280.5, 17.2)">m</text><text xml:space="preserve" font-family="Chalkduster,Chalkduster" font-size="27.8" fill="#FEFFFE" transform="matrix(1.00, 0.00, -0.00, -1.00, 309.1, 17.2)">i</text><text xml:space="preserve" font-family="Chalkduster,Chalkduster" font-size="27.8" fill="#FEFFFE" transform="matrix(1.00, 0.00, -0.00, -1.00, 320.1, 17.2)">s</text><text xml:space="preserve" font-family="Chalkduster,Chalkduster" font-size="27.8" fill="#FEFFFE" transform="matrix(1.00, 0.00, -0.00, -1.00, 334.1, 17.2)">o</text><text xml:space="preserve" font-family="Chalkduster,Chalkduster" font-size="27.8" fill="#FEFFFE" transform="matrix(1.00, 0.00, -0.00, -1.00, 354.4, 17.2)">s</text><text xml:space="preserve" font-family="Chalkduster,Chalkduster" font-size="27.8" fill="#FEFFFE" transform="matrix(1.00, 0.00, -0.00, -1.00, 367.9, 17.2)">.</text><text xml:space="preserve" font-family="Chalkduster,Chalkduster" font-size="27.8" fill="#FEFFFE" transform="matrix(1.00, 0.00, -0.00, -1.00, 375.8, 17.2)"> </text></g></svg>