<?xml version="1.0" encoding="UTF-8" standalone="no"?><svg xmlns="http://www.w3.org/2000/svg" xmlns:xlink="http://www.w3.org/1999/xlink" clip-rule="evenodd" stroke-miterlimit="10" viewBox="0 0 484 75"><desc>SVG generated by Keynote</desc><defs></defs><g transform="matrix(1.00, 0.00, -0.00, -1.00, 0.0, 75.0)"><image xlink:href="../../C0B0FA9B-2AED-4E81-BF99-7B48688FC47B/assets/7083CCEA4E60CFD10D99D1145F80E361.png" width="78.00" height="72.00" transform="matrix(0.22, 0.00, -0.00, -0.22, 0.0, 62.7)"></image><text xml:space="preserve" font-family="Chalkduster,Chalkduster" font-size="29.8" fill="#FEFFFE" transform="matrix(1.00, 0.00, -0.00, -1.00, 35.3, 47.3)">F</text><text xml:space="preserve" font-family="Chalkduster,Chalkduster" font-size="29.8" fill="#FEFFFE" transform="matrix(1.00, 0.00, -0.00, -1.00, 55.0, 47.3)">o</text><text xml:space="preserve" font-family="Chalkduster,Chalkduster" font-size="29.8" fill="#FEFFFE" transform="matrix(1.00, 0.00, -0.00, -1.00, 76.7, 47.3)">r</text><text xml:space="preserve" font-family="Chalkduster,Chalkduster" font-size="29.8" fill="#FEFFFE" transform="matrix(1.00, 0.00, -0.00, -1.00, 92.4, 47.3)">t</text><text xml:space="preserve" font-family="Chalkduster,Chalkduster" font-size="29.8" fill="#FEFFFE" transform="matrix(1.00, 0.00, -0.00, -1.00, 105.7, 47.3)">a</text><text xml:space="preserve" font-family="Chalkduster,Chalkduster" font-size="29.8" fill="#FEFFFE" transform="matrix(1.00, 0.00, -0.00, -1.00, 125.0, 47.3)">l</text><text xml:space="preserve" font-family="Chalkduster,Chalkduster" font-size="29.8" fill="#FEFFFE" transform="matrix(1.00, 0.00, -0.00, -1.00, 137.3, 47.3)">e</text><text xml:space="preserve" font-family="Chalkduster,Chalkduster" font-size="29.8" fill="#FEFFFE" transform="matrix(1.00, 0.00, -0.00, -1.00, 156.3, 47.3)">c</text><text xml:space="preserve" font-family="Chalkduster,Chalkduster" font-size="29.8" fill="#FEFFFE" transform="matrix(1.00, 0.00, -0.00, -1.00, 174.3, 47.3)">e</text><text xml:space="preserve" font-family="Chalkduster,Chalkduster" font-size="29.8" fill="#FEFFFE" transform="matrix(1.00, 0.00, -0.00, -1.00, 192.4, 47.3)">r</text><text xml:space="preserve" font-family="Chalkduster,Chalkduster" font-size="29.8" fill="#FEFFFE" transform="matrix(1.00, 0.00, -0.00, -1.00, 208.1, 47.3)"> </text><text xml:space="preserve" font-family="Chalkduster,Chalkduster" font-size="29.8" fill="#FEFFFE" transform="matrix(1.00, 0.00, -0.00, -1.00, 227.7, 47.3)">e</text><text xml:space="preserve" font-family="Chalkduster,Chalkduster" font-size="29.8" fill="#FEFFFE" transform="matrix(1.00, 0.00, -0.00, -1.00, 246.2, 47.3)">l</text><text xml:space="preserve" font-family="Chalkduster,Chalkduster" font-size="29.8" fill="#FEFFFE" transform="matrix(1.00, 0.00, -0.00, -1.00, 260.2, 47.3)"> </text><text xml:space="preserve" font-family="Chalkduster,Chalkduster" font-size="29.8" fill="#FEFFFE" transform="matrix(1.00, 0.00, -0.00, -1.00, 279.8, 47.3)">a</text><text xml:space="preserve" font-family="Chalkduster,Chalkduster" font-size="29.8" fill="#FEFFFE" transform="matrix(1.00, 0.00, -0.00, -1.00, 300.3, 47.3)">p</text><text xml:space="preserve" font-family="Chalkduster,Chalkduster" font-size="29.8" fill="#FEFFFE" transform="matrix(1.00, 0.00, -0.00, -1.00, 318.7, 47.3)">r</text><text xml:space="preserve" font-family="Chalkduster,Chalkduster" font-size="29.8" fill="#FEFFFE" transform="matrix(1.00, 0.00, -0.00, -1.00, 333.8, 47.3)">e</text><text xml:space="preserve" font-family="Chalkduster,Chalkduster" font-size="29.8" fill="#FEFFFE" transform="matrix(1.00, 0.00, -0.00, -1.00, 352.5, 47.3)">n</text><text xml:space="preserve" font-family="Chalkduster,Chalkduster" font-size="29.8" fill="#FEFFFE" transform="matrix(1.00, 0.00, -0.00, -1.00, 374.4, 47.3)">d</text><text xml:space="preserve" font-family="Chalkduster,Chalkduster" font-size="29.8" fill="#FEFFFE" transform="matrix(1.00, 0.00, -0.00, -1.00, 398.8, 47.3)">i</text><text xml:space="preserve" font-family="Chalkduster,Chalkduster" font-size="29.8" fill="#FEFFFE" transform="matrix(1.00, 0.00, -0.00, -1.00, 410.6, 47.3)">z</text><text xml:space="preserve" font-family="Chalkduster,Chalkduster" font-size="29.8" fill="#FEFFFE" transform="matrix(1.00, 0.00, -0.00, -1.00, 429.9, 47.3)">a</text><text xml:space="preserve" font-family="Chalkduster,Chalkduster" font-size="29.8" fill="#FEFFFE" transform="matrix(1.00, 0.00, -0.00, -1.00, 449.0, 47.3)">j</text><text xml:space="preserve" font-family="Chalkduster,Chalkduster" font-size="29.8" fill="#FEFFFE" transform="matrix(1.00, 0.00, -0.00, -1.00, 463.6, 47.3)">e</text><text xml:space="preserve" font-family="Chalkduster,Chalkduster" font-size="29.8" fill="#FEFFFE" transform="matrix(1.00, 0.00, -0.00, -1.00, 482.0, 47.3)"> </text><text xml:space="preserve" font-family="Chalkduster,Chalkduster" font-size="29.8" fill="#FEFFFE" transform="matrix(1.00, 0.00, -0.00, -1.00, 35.3, 3.3)">e</text><text xml:space="preserve" font-family="Chalkduster,Chalkduster" font-size="29.8" fill="#FEFFFE" transform="matrix(1.00, 0.00, -0.00, -1.00, 54.1, 3.3)">n</text><text xml:space="preserve" font-family="Chalkduster,Chalkduster" font-size="29.8" fill="#FEFFFE" transform="matrix(1.00, 0.00, -0.00, -1.00, 75.9, 3.3)"> </text><text xml:space="preserve" font-family="Chalkduster,Chalkduster" font-size="29.8" fill="#FEFFFE" transform="matrix(1.00, 0.00, -0.00, -1.00, 90.7, 3.3)">m</text><text xml:space="preserve" font-family="Chalkduster,Chalkduster" font-size="29.8" fill="#FEFFFE" transform="matrix(1.00, 0.00, -0.00, -1.00, 121.6, 3.3)">e</text><text xml:space="preserve" font-family="Chalkduster,Chalkduster" font-size="29.8" fill="#FEFFFE" transform="matrix(1.00, 0.00, -0.00, -1.00, 141.0, 3.3)">d</text><text xml:space="preserve" font-family="Chalkduster,Chalkduster" font-size="29.8" fill="#FEFFFE" transform="matrix(1.00, 0.00, -0.00, -1.00, 165.4, 3.3)">i</text><text xml:space="preserve" font-family="Chalkduster,Chalkduster" font-size="29.8" fill="#FEFFFE" transform="matrix(1.00, 0.00, -0.00, -1.00, 177.2, 3.3)">o</text><text xml:space="preserve" font-family="Chalkduster,Chalkduster" font-size="29.8" fill="#FEFFFE" transform="matrix(1.00, 0.00, -0.00, -1.00, 198.9, 3.3)">s</text><text xml:space="preserve" font-family="Chalkduster,Chalkduster" font-size="29.8" fill="#FEFFFE" transform="matrix(1.00, 0.00, -0.00, -1.00, 213.9, 3.3)"> </text><text xml:space="preserve" font-family="Chalkduster,Chalkduster" font-size="29.8" fill="#FEFFFE" transform="matrix(1.00, 0.00, -0.00, -1.00, 228.7, 3.3)">v</text><text xml:space="preserve" font-family="Chalkduster,Chalkduster" font-size="29.8" fill="#FEFFFE" transform="matrix(1.00, 0.00, -0.00, -1.00, 247.2, 3.3)">i</text><text xml:space="preserve" font-family="Chalkduster,Chalkduster" font-size="29.8" fill="#FEFFFE" transform="matrix(1.00, 0.00, -0.00, -1.00, 259.0, 3.3)">r</text><text xml:space="preserve" font-family="Chalkduster,Chalkduster" font-size="29.8" fill="#FEFFFE" transform="matrix(1.00, 0.00, -0.00, -1.00, 274.7, 3.3)">t</text><text xml:space="preserve" font-family="Chalkduster,Chalkduster" font-size="29.8" fill="#FEFFFE" transform="matrix(1.00, 0.00, -0.00, -1.00, 288.3, 3.3)">u</text><text xml:space="preserve" font-family="Chalkduster,Chalkduster" font-size="29.8" fill="#FEFFFE" transform="matrix(1.00, 0.00, -0.00, -1.00, 308.7, 3.3)">a</text><text xml:space="preserve" font-family="Chalkduster,Chalkduster" font-size="29.8" fill="#FEFFFE" transform="matrix(1.00, 0.00, -0.00, -1.00, 328.0, 3.3)">l</text><text xml:space="preserve" font-family="Chalkduster,Chalkduster" font-size="29.8" fill="#FEFFFE" transform="matrix(1.00, 0.00, -0.00, -1.00, 340.4, 3.3)">e</text><text xml:space="preserve" font-family="Chalkduster,Chalkduster" font-size="29.8" fill="#FEFFFE" transform="matrix(1.00, 0.00, -0.00, -1.00, 359.5, 3.3)">s</text><text xml:space="preserve" font-family="Chalkduster,Chalkduster" font-size="29.8" fill="#FEFFFE" transform="matrix(1.00, 0.00, -0.00, -1.00, 373.9, 3.3)">.</text></g></svg>