<?xml version="1.0" encoding="UTF-8" standalone="no"?><svg xmlns="http://www.w3.org/2000/svg" xmlns:xlink="http://www.w3.org/1999/xlink" clip-rule="evenodd" stroke-miterlimit="10" viewBox="0 0 670 162"><desc>SVG generated by Keynote</desc><defs></defs><g transform="matrix(1.00, 0.00, -0.00, -1.00, 0.0, 162.0)"><text xml:space="preserve" font-family="Chalkduster,Chalkduster" font-size="72.0" fill="#FEFFFE" transform="matrix(1.00, 0.00, -0.00, -1.00, -0.3, 98.3)">E</text><text xml:space="preserve" font-family="Chalkduster,Chalkduster" font-size="72.0" fill="#FEFFFE" transform="matrix(1.00, 0.00, -0.00, -1.00, 52.9, 98.3)">x</text><text xml:space="preserve" font-family="Chalkduster,Chalkduster" font-size="72.0" fill="#FEFFFE" transform="matrix(1.00, 0.00, -0.00, -1.00, 97.7, 98.3)">p</text><text xml:space="preserve" font-family="Chalkduster,Chalkduster" font-size="72.0" fill="#FEFFFE" transform="matrix(1.00, 0.00, -0.00, -1.00, 143.0, 98.3)">e</text><text xml:space="preserve" font-family="Chalkduster,Chalkduster" font-size="72.0" fill="#FEFFFE" transform="matrix(1.00, 0.00, -0.00, -1.00, 188.8, 98.3)">c</text><text xml:space="preserve" font-family="Chalkduster,Chalkduster" font-size="72.0" fill="#FEFFFE" transform="matrix(1.00, 0.00, -0.00, -1.00, 231.5, 98.3)">t</text><text xml:space="preserve" font-family="Chalkduster,Chalkduster" font-size="72.0" fill="#FEFFFE" transform="matrix(1.00, 0.00, -0.00, -1.00, 263.6, 98.3)">a</text><text xml:space="preserve" font-family="Chalkduster,Chalkduster" font-size="72.0" fill="#FEFFFE" transform="matrix(1.00, 0.00, -0.00, -1.00, 308.3, 98.3)">t</text><text xml:space="preserve" font-family="Chalkduster,Chalkduster" font-size="72.0" fill="#FEFFFE" transform="matrix(1.00, 0.00, -0.00, -1.00, 341.6, 98.3)">i</text><text xml:space="preserve" font-family="Chalkduster,Chalkduster" font-size="72.0" fill="#FEFFFE" transform="matrix(1.00, 0.00, -0.00, -1.00, 370.1, 98.3)">v</text><text xml:space="preserve" font-family="Chalkduster,Chalkduster" font-size="72.0" fill="#FEFFFE" transform="matrix(1.00, 0.00, -0.00, -1.00, 411.0, 98.3)">a</text><text xml:space="preserve" font-family="Chalkduster,Chalkduster" font-size="72.0" fill="#FEFFFE" transform="matrix(1.00, 0.00, -0.00, -1.00, 461.5, 98.3)">s</text><text xml:space="preserve" font-family="Chalkduster,Chalkduster" font-size="72.0" fill="#FEFFFE" transform="matrix(1.00, 0.00, -0.00, -1.00, 497.9, 98.3)"> </text><text xml:space="preserve" font-family="Chalkduster,Chalkduster" font-size="72.0" fill="#FEFFFE" transform="matrix(1.00, 0.00, -0.00, -1.00, 533.7, 98.3)">d</text><text xml:space="preserve" font-family="Chalkduster,Chalkduster" font-size="72.0" fill="#FEFFFE" transform="matrix(1.00, 0.00, -0.00, -1.00, 589.9, 98.3)">e</text><text xml:space="preserve" font-family="Chalkduster,Chalkduster" font-size="72.0" fill="#FEFFFE" transform="matrix(1.00, 0.00, -0.00, -1.00, 634.6, 98.3)">l</text><text xml:space="preserve" font-family="Chalkduster,Chalkduster" font-size="72.0" fill="#FEFFFE" transform="matrix(1.00, 0.00, -0.00, -1.00, 668.4, 98.3)"> </text><text xml:space="preserve" font-family="Chalkduster,Chalkduster" font-size="72.0" fill="#FEFFFE" transform="matrix(1.00, 0.00, -0.00, -1.00, 216.9, 6.3)">C</text><text xml:space="preserve" font-family="Chalkduster,Chalkduster" font-size="72.0" fill="#FEFFFE" transform="matrix(1.00, 0.00, -0.00, -1.00, 275.3, 6.3)">u</text><text xml:space="preserve" font-family="Chalkduster,Chalkduster" font-size="72.0" fill="#FEFFFE" transform="matrix(1.00, 0.00, -0.00, -1.00, 325.9, 6.3)">r</text><text xml:space="preserve" font-family="Chalkduster,Chalkduster" font-size="72.0" fill="#FEFFFE" transform="matrix(1.00, 0.00, -0.00, -1.00, 363.1, 6.3)">s</text><text xml:space="preserve" font-family="Chalkduster,Chalkduster" font-size="72.0" fill="#FEFFFE" transform="matrix(1.00, 0.00, -0.00, -1.00, 399.4, 6.3)">o</text></g></svg>