<?xml version="1.0" encoding="UTF-8" standalone="no"?><svg xmlns="http://www.w3.org/2000/svg" xmlns:xlink="http://www.w3.org/1999/xlink" clip-rule="evenodd" stroke-miterlimit="10" viewBox="0 0 409 142"><desc>SVG generated by Keynote</desc><defs></defs><g transform="matrix(1.00, 0.00, -0.00, -1.00, 0.0, 142.0)"><image xlink:href="../../C0B0FA9B-2AED-4E81-BF99-7B48688FC47B/assets/7083CCEA4E60CFD10D99D1145F80E361.png" width="78.00" height="72.00" transform="matrix(0.18, 0.00, -0.00, -0.18, 0.0, 132.0)"></image><text xml:space="preserve" font-family="Chalkduster,Chalkduster" font-size="24.0" fill="#FEFFFE" transform="matrix(1.00, 0.00, -0.00, -1.00, 28.5, 120.1)">G</text><text xml:space="preserve" font-family="Chalkduster,Chalkduster" font-size="24.0" fill="#FEFFFE" transform="matrix(1.00, 0.00, -0.00, -1.00, 62.1, 120.1)">r</text><text xml:space="preserve" font-family="Chalkduster,Chalkduster" font-size="24.0" fill="#FEFFFE" transform="matrix(1.00, 0.00, -0.00, -1.00, 81.7, 120.1)">a</text><text xml:space="preserve" font-family="Chalkduster,Chalkduster" font-size="24.0" fill="#FEFFFE" transform="matrix(1.00, 0.00, -0.00, -1.00, 104.4, 120.1)">d</text><text xml:space="preserve" font-family="Chalkduster,Chalkduster" font-size="24.0" fill="#FEFFFE" transform="matrix(1.00, 0.00, -0.00, -1.00, 130.6, 120.1)">u</text><text xml:space="preserve" font-family="Chalkduster,Chalkduster" font-size="24.0" fill="#FEFFFE" transform="matrix(1.00, 0.00, -0.00, -1.00, 154.0, 120.1)">a</text><text xml:space="preserve" font-family="Chalkduster,Chalkduster" font-size="24.0" fill="#FEFFFE" transform="matrix(1.00, 0.00, -0.00, -1.00, 176.7, 120.1)">d</text><text xml:space="preserve" font-family="Chalkduster,Chalkduster" font-size="24.0" fill="#FEFFFE" transform="matrix(1.00, 0.00, -0.00, -1.00, 202.4, 120.1)">o</text><text xml:space="preserve" font-family="Chalkduster,Chalkduster" font-size="24.0" fill="#FEFFFE" transform="matrix(1.00, 0.00, -0.00, -1.00, 219.6, 120.1)"> </text><text xml:space="preserve" font-family="Chalkduster,Chalkduster" font-size="24.0" fill="#FEFFFE" transform="matrix(1.00, 0.00, -0.00, -1.00, 275.9, 120.1)">d</text><text xml:space="preserve" font-family="Chalkduster,Chalkduster" font-size="24.0" fill="#FEFFFE" transform="matrix(1.00, 0.00, -0.00, -1.00, 301.6, 120.1)">e</text><text xml:space="preserve" font-family="Chalkduster,Chalkduster" font-size="24.0" fill="#FEFFFE" transform="matrix(1.00, 0.00, -0.00, -1.00, 316.5, 120.1)"> </text><text xml:space="preserve" font-family="Chalkduster,Chalkduster" font-size="24.0" fill="#FEFFFE" transform="matrix(1.00, 0.00, -0.00, -1.00, 372.8, 120.1)">l</text><text xml:space="preserve" font-family="Chalkduster,Chalkduster" font-size="24.0" fill="#FEFFFE" transform="matrix(1.00, 0.00, -0.00, -1.00, 390.5, 120.1)">a</text><text xml:space="preserve" font-family="Chalkduster,Chalkduster" font-size="24.0" fill="#FEFFFE" transform="matrix(1.00, 0.00, -0.00, -1.00, 407.0, 120.1)"> </text><text xml:space="preserve" font-family="Chalkduster,Chalkduster" font-size="24.0" fill="#FEFFFE" transform="matrix(1.00, 0.00, -0.00, -1.00, 28.5, 83.1)">U</text><text xml:space="preserve" font-family="Chalkduster,Chalkduster" font-size="24.0" fill="#FEFFFE" transform="matrix(1.00, 0.00, -0.00, -1.00, 49.8, 83.1)">n</text><text xml:space="preserve" font-family="Chalkduster,Chalkduster" font-size="24.0" fill="#FEFFFE" transform="matrix(1.00, 0.00, -0.00, -1.00, 72.0, 83.1)">i</text><text xml:space="preserve" font-family="Chalkduster,Chalkduster" font-size="24.0" fill="#FEFFFE" transform="matrix(1.00, 0.00, -0.00, -1.00, 85.7, 83.1)">v</text><text xml:space="preserve" font-family="Chalkduster,Chalkduster" font-size="24.0" fill="#FEFFFE" transform="matrix(1.00, 0.00, -0.00, -1.00, 104.6, 83.1)">e</text><text xml:space="preserve" font-family="Chalkduster,Chalkduster" font-size="24.0" fill="#FEFFFE" transform="matrix(1.00, 0.00, -0.00, -1.00, 123.4, 83.1)">r</text><text xml:space="preserve" font-family="Chalkduster,Chalkduster" font-size="24.0" fill="#FEFFFE" transform="matrix(1.00, 0.00, -0.00, -1.00, 139.9, 83.1)">s</text><text xml:space="preserve" font-family="Chalkduster,Chalkduster" font-size="24.0" fill="#FEFFFE" transform="matrix(1.00, 0.00, -0.00, -1.00, 156.2, 83.1)">i</text><text xml:space="preserve" font-family="Chalkduster,Chalkduster" font-size="24.0" fill="#FEFFFE" transform="matrix(1.00, 0.00, -0.00, -1.00, 170.7, 83.1)">d</text><text xml:space="preserve" font-family="Chalkduster,Chalkduster" font-size="24.0" fill="#FEFFFE" transform="matrix(1.00, 0.00, -0.00, -1.00, 193.7, 83.1)">a</text><text xml:space="preserve" font-family="Chalkduster,Chalkduster" font-size="24.0" fill="#FEFFFE" transform="matrix(1.00, 0.00, -0.00, -1.00, 213.6, 83.1)">d</text><text xml:space="preserve" font-family="Chalkduster,Chalkduster" font-size="24.0" fill="#FEFFFE" transform="matrix(1.00, 0.00, -0.00, -1.00, 232.4, 83.1)"> </text><text xml:space="preserve" font-family="Chalkduster,Chalkduster" font-size="24.0" fill="#FEFFFE" transform="matrix(1.00, 0.00, -0.00, -1.00, 258.4, 83.1)">N</text><text xml:space="preserve" font-family="Chalkduster,Chalkduster" font-size="24.0" fill="#FEFFFE" transform="matrix(1.00, 0.00, -0.00, -1.00, 279.4, 83.1)">a</text><text xml:space="preserve" font-family="Chalkduster,Chalkduster" font-size="24.0" fill="#FEFFFE" transform="matrix(1.00, 0.00, -0.00, -1.00, 299.3, 83.1)">c</text><text xml:space="preserve" font-family="Chalkduster,Chalkduster" font-size="24.0" fill="#FEFFFE" transform="matrix(1.00, 0.00, -0.00, -1.00, 318.6, 83.1)">i</text><text xml:space="preserve" font-family="Chalkduster,Chalkduster" font-size="24.0" fill="#FEFFFE" transform="matrix(1.00, 0.00, -0.00, -1.00, 332.3, 83.1)">o</text><text xml:space="preserve" font-family="Chalkduster,Chalkduster" font-size="24.0" fill="#FEFFFE" transform="matrix(1.00, 0.00, -0.00, -1.00, 354.3, 83.1)">n</text><text xml:space="preserve" font-family="Chalkduster,Chalkduster" font-size="24.0" fill="#FEFFFE" transform="matrix(1.00, 0.00, -0.00, -1.00, 376.1, 83.1)">a</text><text xml:space="preserve" font-family="Chalkduster,Chalkduster" font-size="24.0" fill="#FEFFFE" transform="matrix(1.00, 0.00, -0.00, -1.00, 395.8, 83.1)">l</text><text xml:space="preserve" font-family="Chalkduster,Chalkduster" font-size="24.0" fill="#FEFFFE" transform="matrix(1.00, 0.00, -0.00, -1.00, 407.0, 83.1)"> </text><text xml:space="preserve" font-family="Chalkduster,Chalkduster" font-size="24.0" fill="#FEFFFE" transform="matrix(1.00, 0.00, -0.00, -1.00, 28.5, 46.1)">c</text><text xml:space="preserve" font-family="Chalkduster,Chalkduster" font-size="24.0" fill="#FEFFFE" transform="matrix(1.00, 0.00, -0.00, -1.00, 49.8, 46.1)">o</text><text xml:space="preserve" font-family="Chalkduster,Chalkduster" font-size="24.0" fill="#FEFFFE" transform="matrix(1.00, 0.00, -0.00, -1.00, 74.7, 46.1)">m</text><text xml:space="preserve" font-family="Chalkduster,Chalkduster" font-size="24.0" fill="#FEFFFE" transform="matrix(1.00, 0.00, -0.00, -1.00, 105.9, 46.1)">o</text><text xml:space="preserve" font-family="Chalkduster,Chalkduster" font-size="24.0" fill="#FEFFFE" transform="matrix(1.00, 0.00, -0.00, -1.00, 123.2, 46.1)"> </text><text xml:space="preserve" font-family="Chalkduster,Chalkduster" font-size="24.0" fill="#FEFFFE" transform="matrix(1.00, 0.00, -0.00, -1.00, 163.0, 46.1)">p</text><text xml:space="preserve" font-family="Chalkduster,Chalkduster" font-size="24.0" fill="#FEFFFE" transform="matrix(1.00, 0.00, -0.00, -1.00, 184.8, 46.1)">r</text><text xml:space="preserve" font-family="Chalkduster,Chalkduster" font-size="24.0" fill="#FEFFFE" transform="matrix(1.00, 0.00, -0.00, -1.00, 204.0, 46.1)">o</text><text xml:space="preserve" font-family="Chalkduster,Chalkduster" font-size="24.0" fill="#FEFFFE" transform="matrix(1.00, 0.00, -0.00, -1.00, 228.2, 46.1)">f</text><text xml:space="preserve" font-family="Chalkduster,Chalkduster" font-size="24.0" fill="#FEFFFE" transform="matrix(1.00, 0.00, -0.00, -1.00, 248.1, 46.1)">e</text><text xml:space="preserve" font-family="Chalkduster,Chalkduster" font-size="24.0" fill="#FEFFFE" transform="matrix(1.00, 0.00, -0.00, -1.00, 270.5, 46.1)">s</text><text xml:space="preserve" font-family="Chalkduster,Chalkduster" font-size="24.0" fill="#FEFFFE" transform="matrix(1.00, 0.00, -0.00, -1.00, 289.5, 46.1)">o</text><text xml:space="preserve" font-family="Chalkduster,Chalkduster" font-size="24.0" fill="#FEFFFE" transform="matrix(1.00, 0.00, -0.00, -1.00, 314.0, 46.1)">r</text><text xml:space="preserve" font-family="Chalkduster,Chalkduster" font-size="24.0" fill="#FEFFFE" transform="matrix(1.00, 0.00, -0.00, -1.00, 326.6, 46.1)"> </text><text xml:space="preserve" font-family="Chalkduster,Chalkduster" font-size="24.0" fill="#FEFFFE" transform="matrix(1.00, 0.00, -0.00, -1.00, 366.4, 46.1)">d</text><text xml:space="preserve" font-family="Chalkduster,Chalkduster" font-size="24.0" fill="#FEFFFE" transform="matrix(1.00, 0.00, -0.00, -1.00, 392.1, 46.1)">e</text><text xml:space="preserve" font-family="Chalkduster,Chalkduster" font-size="24.0" fill="#FEFFFE" transform="matrix(1.00, 0.00, -0.00, -1.00, 407.0, 46.1)"> </text><text xml:space="preserve" font-family="Chalkduster,Chalkduster" font-size="24.0" fill="#FEFFFE" transform="matrix(1.00, 0.00, -0.00, -1.00, 28.5, 9.1)">I</text><text xml:space="preserve" font-family="Chalkduster,Chalkduster" font-size="24.0" fill="#FEFFFE" transform="matrix(1.00, 0.00, -0.00, -1.00, 42.8, 9.1)">n</text><text xml:space="preserve" font-family="Chalkduster,Chalkduster" font-size="24.0" fill="#FEFFFE" transform="matrix(1.00, 0.00, -0.00, -1.00, 60.4, 9.1)">f</text><text xml:space="preserve" font-family="Chalkduster,Chalkduster" font-size="24.0" fill="#FEFFFE" transform="matrix(1.00, 0.00, -0.00, -1.00, 72.4, 9.1)">o</text><text xml:space="preserve" font-family="Chalkduster,Chalkduster" font-size="24.0" fill="#FEFFFE" transform="matrix(1.00, 0.00, -0.00, -1.00, 89.9, 9.1)">r</text><text xml:space="preserve" font-family="Chalkduster,Chalkduster" font-size="24.0" fill="#FEFFFE" transform="matrix(1.00, 0.00, -0.00, -1.00, 103.6, 9.1)">m</text><text xml:space="preserve" font-family="Chalkduster,Chalkduster" font-size="24.0" fill="#FEFFFE" transform="matrix(1.00, 0.00, -0.00, -1.00, 127.9, 9.1)">รก</text><text xml:space="preserve" font-family="Chalkduster,Chalkduster" font-size="24.0" fill="#FEFFFE" transform="matrix(1.00, 0.00, -0.00, -1.00, 143.7, 9.1)">t</text><text xml:space="preserve" font-family="Chalkduster,Chalkduster" font-size="24.0" fill="#FEFFFE" transform="matrix(1.00, 0.00, -0.00, -1.00, 154.8, 9.1)">i</text><text xml:space="preserve" font-family="Chalkduster,Chalkduster" font-size="24.0" fill="#FEFFFE" transform="matrix(1.00, 0.00, -0.00, -1.00, 164.5, 9.1)">c</text><text xml:space="preserve" font-family="Chalkduster,Chalkduster" font-size="24.0" fill="#FEFFFE" transform="matrix(1.00, 0.00, -0.00, -1.00, 178.7, 9.1)">a</text><text xml:space="preserve" font-family="Chalkduster,Chalkduster" font-size="24.0" fill="#FEFFFE" transform="matrix(1.00, 0.00, -0.00, -1.00, 195.2, 9.1)"> </text><text xml:space="preserve" font-family="Chalkduster,Chalkduster" font-size="24.0" fill="#FEFFFE" transform="matrix(1.00, 0.00, -0.00, -1.00, 207.2, 9.1)">E</text><text xml:space="preserve" font-family="Chalkduster,Chalkduster" font-size="24.0" fill="#FEFFFE" transform="matrix(1.00, 0.00, -0.00, -1.00, 224.9, 9.1)">d</text><text xml:space="preserve" font-family="Chalkduster,Chalkduster" font-size="24.0" fill="#FEFFFE" transform="matrix(1.00, 0.00, -0.00, -1.00, 244.2, 9.1)">u</text><text xml:space="preserve" font-family="Chalkduster,Chalkduster" font-size="24.0" fill="#FEFFFE" transform="matrix(1.00, 0.00, -0.00, -1.00, 260.7, 9.1)">c</text><text xml:space="preserve" font-family="Chalkduster,Chalkduster" font-size="24.0" fill="#FEFFFE" transform="matrix(1.00, 0.00, -0.00, -1.00, 274.9, 9.1)">a</text><text xml:space="preserve" font-family="Chalkduster,Chalkduster" font-size="24.0" fill="#FEFFFE" transform="matrix(1.00, 0.00, -0.00, -1.00, 289.7, 9.1)">t</text><text xml:space="preserve" font-family="Chalkduster,Chalkduster" font-size="24.0" fill="#FEFFFE" transform="matrix(1.00, 0.00, -0.00, -1.00, 300.8, 9.1)">i</text><text xml:space="preserve" font-family="Chalkduster,Chalkduster" font-size="24.0" fill="#FEFFFE" transform="matrix(1.00, 0.00, -0.00, -1.00, 310.3, 9.1)">v</text><text xml:space="preserve" font-family="Chalkduster,Chalkduster" font-size="24.0" fill="#FEFFFE" transform="matrix(1.00, 0.00, -0.00, -1.00, 324.0, 9.1)">a</text><text xml:space="preserve" font-family="Chalkduster,Chalkduster" font-size="24.0" fill="#FEFFFE" transform="matrix(1.00, 0.00, -0.00, -1.00, 340.5, 9.1)">.</text></g></svg>