<?xml version="1.0" encoding="UTF-8" standalone="no"?><svg xmlns="http://www.w3.org/2000/svg" xmlns:xlink="http://www.w3.org/1999/xlink" clip-rule="evenodd" stroke-miterlimit="10" viewBox="0 0 165 31"><desc>SVG generated by Keynote</desc><defs></defs><g transform="matrix(1.00, 0.00, -0.00, -1.00, 0.0, 31.0)"><text xml:space="preserve" font-family="Chalkduster,Chalkduster" font-size="27.0" fill="#FEFFFE" transform="matrix(1.00, 0.00, -0.00, -1.00, 0.0, 4.1)">W</text><text xml:space="preserve" font-family="Chalkduster,Chalkduster" font-size="27.0" fill="#FEFFFE" transform="matrix(1.00, 0.00, -0.00, -1.00, 25.0, 4.1)">e</text><text xml:space="preserve" font-family="Chalkduster,Chalkduster" font-size="27.0" fill="#FEFFFE" transform="matrix(1.00, 0.00, -0.00, -1.00, 41.8, 4.1)">b</text><text xml:space="preserve" font-family="Chalkduster,Chalkduster" font-size="27.0" fill="#FEFFFE" transform="matrix(1.00, 0.00, -0.00, -1.00, 57.5, 4.1)"> </text><text xml:space="preserve" font-family="Chalkduster,Chalkduster" font-size="27.0" fill="#FEFFFE" transform="matrix(1.00, 0.00, -0.00, -1.00, 70.9, 4.1)">s</text><text xml:space="preserve" font-family="Chalkduster,Chalkduster" font-size="27.0" fill="#FEFFFE" transform="matrix(1.00, 0.00, -0.00, -1.00, 84.6, 4.1)">e</text><text xml:space="preserve" font-family="Chalkduster,Chalkduster" font-size="27.0" fill="#FEFFFE" transform="matrix(1.00, 0.00, -0.00, -1.00, 101.0, 4.1)">r</text><text xml:space="preserve" font-family="Chalkduster,Chalkduster" font-size="27.0" fill="#FEFFFE" transform="matrix(1.00, 0.00, -0.00, -1.00, 117.0, 4.1)">v</text><text xml:space="preserve" font-family="Chalkduster,Chalkduster" font-size="27.0" fill="#FEFFFE" transform="matrix(1.00, 0.00, -0.00, -1.00, 133.6, 4.1)">e</text><text xml:space="preserve" font-family="Chalkduster,Chalkduster" font-size="27.0" fill="#FEFFFE" transform="matrix(1.00, 0.00, -0.00, -1.00, 150.1, 4.1)">r</text></g></svg>