<?xml version="1.0" encoding="UTF-8" standalone="no"?><svg xmlns="http://www.w3.org/2000/svg" xmlns:xlink="http://www.w3.org/1999/xlink" clip-rule="evenodd" stroke-miterlimit="10" viewBox="0 0 800 117"><desc>SVG generated by Keynote</desc><defs></defs><g transform="matrix(1.00, 0.00, -0.00, -1.00, 0.0, 117.0)"><image xlink:href="../../DE897E55-03F1-4C91-97CD-92F71CB96A10/assets/7083CCEA4E60CFD10D99D1145F80E361.png" width="78.00" height="72.00" transform="matrix(0.20, 0.00, -0.00, -0.20, 0.0, 106.8)"></image><text xml:space="preserve" font-family="Chalkduster,Chalkduster" font-size="27.0" fill="#FEFFFE" transform="matrix(1.00, 0.00, -0.00, -1.00, 33.8, 93.1)">D</text><text xml:space="preserve" font-family="Chalkduster,Chalkduster" font-size="27.0" fill="#FEFFFE" transform="matrix(1.00, 0.00, -0.00, -1.00, 52.6, 93.1)">r</text><text xml:space="preserve" font-family="Chalkduster,Chalkduster" font-size="27.0" fill="#FEFFFE" transform="matrix(1.00, 0.00, -0.00, -1.00, 67.6, 93.1)">u</text><text xml:space="preserve" font-family="Chalkduster,Chalkduster" font-size="27.0" fill="#FEFFFE" transform="matrix(1.00, 0.00, -0.00, -1.00, 86.6, 93.1)">p</text><text xml:space="preserve" font-family="Chalkduster,Chalkduster" font-size="27.0" fill="#FEFFFE" transform="matrix(1.00, 0.00, -0.00, -1.00, 103.3, 93.1)">a</text><text xml:space="preserve" font-family="Chalkduster,Chalkduster" font-size="27.0" fill="#FEFFFE" transform="matrix(1.00, 0.00, -0.00, -1.00, 120.7, 93.1)">l</text><text xml:space="preserve" font-family="Chalkduster,Chalkduster" font-size="27.0" fill="#FEFFFE" transform="matrix(1.00, 0.00, -0.00, -1.00, 133.4, 93.1)"> </text><text xml:space="preserve" font-family="Chalkduster,Chalkduster" font-size="27.0" fill="#FEFFFE" transform="matrix(1.00, 0.00, -0.00, -1.00, 146.8, 93.1)">7</text><text xml:space="preserve" font-family="Chalkduster,Chalkduster" font-size="27.0" fill="#FEFFFE" transform="matrix(1.00, 0.00, -0.00, -1.00, 162.9, 93.1)">:</text><text xml:space="preserve" font-family="Chalkduster,Chalkduster" font-size="27.0" fill="#FEFFFE" transform="matrix(1.00, 0.00, -0.00, -1.00, 171.8, 93.1)"> </text><text xml:space="preserve" font-family="Chalkduster,Chalkduster" font-size="27.0" fill="#FEFFFE" transform="matrix(1.00, 0.00, -0.00, -1.00, 185.2, 93.1)">M</text><text xml:space="preserve" font-family="Chalkduster,Chalkduster" font-size="27.0" fill="#FEFFFE" transform="matrix(1.00, 0.00, -0.00, -1.00, 207.9, 93.1)">y</text><text xml:space="preserve" font-family="Chalkduster,Chalkduster" font-size="27.0" fill="#FEFFFE" transform="matrix(1.00, 0.00, -0.00, -1.00, 224.3, 93.1)">S</text><text xml:space="preserve" font-family="Chalkduster,Chalkduster" font-size="27.0" fill="#FEFFFE" transform="matrix(1.00, 0.00, -0.00, -1.00, 237.8, 93.1)">Q</text><text xml:space="preserve" font-family="Chalkduster,Chalkduster" font-size="27.0" fill="#FEFFFE" transform="matrix(1.00, 0.00, -0.00, -1.00, 257.8, 93.1)">L</text><text xml:space="preserve" font-family="Chalkduster,Chalkduster" font-size="27.0" fill="#FEFFFE" transform="matrix(1.00, 0.00, -0.00, -1.00, 274.9, 93.1)"> </text><text xml:space="preserve" font-family="Chalkduster,Chalkduster" font-size="27.0" fill="#FEFFFE" transform="matrix(1.00, 0.00, -0.00, -1.00, 288.3, 93.1)">5</text><text xml:space="preserve" font-family="Chalkduster,Chalkduster" font-size="27.0" fill="#FEFFFE" transform="matrix(1.00, 0.00, -0.00, -1.00, 304.2, 93.1)">.</text><text xml:space="preserve" font-family="Chalkduster,Chalkduster" font-size="27.0" fill="#FEFFFE" transform="matrix(1.00, 0.00, -0.00, -1.00, 313.4, 93.1)">0</text><text xml:space="preserve" font-family="Chalkduster,Chalkduster" font-size="27.0" fill="#FEFFFE" transform="matrix(1.00, 0.00, -0.00, -1.00, 331.2, 93.1)">.</text><text xml:space="preserve" font-family="Chalkduster,Chalkduster" font-size="27.0" fill="#FEFFFE" transform="matrix(1.00, 0.00, -0.00, -1.00, 340.3, 93.1)">1</text><text xml:space="preserve" font-family="Chalkduster,Chalkduster" font-size="27.0" fill="#FEFFFE" transform="matrix(1.00, 0.00, -0.00, -1.00, 356.7, 93.1)">5</text><text xml:space="preserve" font-family="Chalkduster,Chalkduster" font-size="27.0" fill="#FEFFFE" transform="matrix(1.00, 0.00, -0.00, -1.00, 373.9, 93.1)"> </text><text xml:space="preserve" font-family="Chalkduster,Chalkduster" font-size="27.0" fill="#FEFFFE" transform="matrix(1.00, 0.00, -0.00, -1.00, 387.4, 93.1)">o</text><text xml:space="preserve" font-family="Chalkduster,Chalkduster" font-size="27.0" fill="#FEFFFE" transform="matrix(1.00, 0.00, -0.00, -1.00, 407.0, 93.1)">r</text><text xml:space="preserve" font-family="Chalkduster,Chalkduster" font-size="27.0" fill="#FEFFFE" transform="matrix(1.00, 0.00, -0.00, -1.00, 421.3, 93.1)"> </text><text xml:space="preserve" font-family="Chalkduster,Chalkduster" font-size="27.0" fill="#FEFFFE" transform="matrix(1.00, 0.00, -0.00, -1.00, 434.7, 93.1)">h</text><text xml:space="preserve" font-family="Chalkduster,Chalkduster" font-size="27.0" fill="#FEFFFE" transform="matrix(1.00, 0.00, -0.00, -1.00, 451.8, 93.1)">i</text><text xml:space="preserve" font-family="Chalkduster,Chalkduster" font-size="27.0" fill="#FEFFFE" transform="matrix(1.00, 0.00, -0.00, -1.00, 462.5, 93.1)">g</text><text xml:space="preserve" font-family="Chalkduster,Chalkduster" font-size="27.0" fill="#FEFFFE" transform="matrix(1.00, 0.00, -0.00, -1.00, 482.0, 93.1)">h</text><text xml:space="preserve" font-family="Chalkduster,Chalkduster" font-size="27.0" fill="#FEFFFE" transform="matrix(1.00, 0.00, -0.00, -1.00, 498.7, 93.1)">e</text><text xml:space="preserve" font-family="Chalkduster,Chalkduster" font-size="27.0" fill="#FEFFFE" transform="matrix(1.00, 0.00, -0.00, -1.00, 515.1, 93.1)">r</text><text xml:space="preserve" font-family="Chalkduster,Chalkduster" font-size="27.0" fill="#FEFFFE" transform="matrix(1.00, 0.00, -0.00, -1.00, 529.4, 93.1)"> </text><text xml:space="preserve" font-family="Chalkduster,Chalkduster" font-size="27.0" fill="#FEFFFE" transform="matrix(1.00, 0.00, -0.00, -1.00, 542.8, 93.1)">w</text><text xml:space="preserve" font-family="Chalkduster,Chalkduster" font-size="27.0" fill="#FEFFFE" transform="matrix(1.00, 0.00, -0.00, -1.00, 565.9, 93.1)">i</text><text xml:space="preserve" font-family="Chalkduster,Chalkduster" font-size="27.0" fill="#FEFFFE" transform="matrix(1.00, 0.00, -0.00, -1.00, 576.9, 93.1)">t</text><text xml:space="preserve" font-family="Chalkduster,Chalkduster" font-size="27.0" fill="#FEFFFE" transform="matrix(1.00, 0.00, -0.00, -1.00, 589.8, 93.1)">h</text><text xml:space="preserve" font-family="Chalkduster,Chalkduster" font-size="27.0" fill="#FEFFFE" transform="matrix(1.00, 0.00, -0.00, -1.00, 606.4, 93.1)"> </text><text xml:space="preserve" font-family="Chalkduster,Chalkduster" font-size="27.0" fill="#FEFFFE" transform="matrix(1.00, 0.00, -0.00, -1.00, 619.9, 93.1)">P</text><text xml:space="preserve" font-family="Chalkduster,Chalkduster" font-size="27.0" fill="#FEFFFE" transform="matrix(1.00, 0.00, -0.00, -1.00, 639.0, 93.1)">D</text><text xml:space="preserve" font-family="Chalkduster,Chalkduster" font-size="27.0" fill="#FEFFFE" transform="matrix(1.00, 0.00, -0.00, -1.00, 657.9, 93.1)">O</text><text xml:space="preserve" font-family="Chalkduster,Chalkduster" font-size="27.0" fill="#FEFFFE" transform="matrix(1.00, 0.00, -0.00, -1.00, 674.2, 93.1)">,</text><text xml:space="preserve" font-family="Chalkduster,Chalkduster" font-size="27.0" fill="#FEFFFE" transform="matrix(1.00, 0.00, -0.00, -1.00, 682.5, 93.1)"> </text><text xml:space="preserve" font-family="Chalkduster,Chalkduster" font-size="27.0" fill="#FEFFFE" transform="matrix(1.00, 0.00, -0.00, -1.00, 33.8, 52.1)">P</text><text xml:space="preserve" font-family="Chalkduster,Chalkduster" font-size="27.0" fill="#FEFFFE" transform="matrix(1.00, 0.00, -0.00, -1.00, 51.0, 52.1)">o</text><text xml:space="preserve" font-family="Chalkduster,Chalkduster" font-size="27.0" fill="#FEFFFE" transform="matrix(1.00, 0.00, -0.00, -1.00, 70.7, 52.1)">s</text><text xml:space="preserve" font-family="Chalkduster,Chalkduster" font-size="27.0" fill="#FEFFFE" transform="matrix(1.00, 0.00, -0.00, -1.00, 85.1, 52.1)">t</text><text xml:space="preserve" font-family="Chalkduster,Chalkduster" font-size="27.0" fill="#FEFFFE" transform="matrix(1.00, 0.00, -0.00, -1.00, 97.5, 52.1)">g</text><text xml:space="preserve" font-family="Chalkduster,Chalkduster" font-size="27.0" fill="#FEFFFE" transform="matrix(1.00, 0.00, -0.00, -1.00, 116.6, 52.1)">r</text><text xml:space="preserve" font-family="Chalkduster,Chalkduster" font-size="27.0" fill="#FEFFFE" transform="matrix(1.00, 0.00, -0.00, -1.00, 130.3, 52.1)">e</text><text xml:space="preserve" font-family="Chalkduster,Chalkduster" font-size="27.0" fill="#FEFFFE" transform="matrix(1.00, 0.00, -0.00, -1.00, 147.0, 52.1)">S</text><text xml:space="preserve" font-family="Chalkduster,Chalkduster" font-size="27.0" fill="#FEFFFE" transform="matrix(1.00, 0.00, -0.00, -1.00, 160.5, 52.1)">Q</text><text xml:space="preserve" font-family="Chalkduster,Chalkduster" font-size="27.0" fill="#FEFFFE" transform="matrix(1.00, 0.00, -0.00, -1.00, 180.5, 52.1)">L</text><text xml:space="preserve" font-family="Chalkduster,Chalkduster" font-size="27.0" fill="#FEFFFE" transform="matrix(1.00, 0.00, -0.00, -1.00, 197.6, 52.1)"> </text><text xml:space="preserve" font-family="Chalkduster,Chalkduster" font-size="27.0" fill="#FEFFFE" transform="matrix(1.00, 0.00, -0.00, -1.00, 211.1, 52.1)">8</text><text xml:space="preserve" font-family="Chalkduster,Chalkduster" font-size="27.0" fill="#FEFFFE" transform="matrix(1.00, 0.00, -0.00, -1.00, 229.6, 52.1)">.</text><text xml:space="preserve" font-family="Chalkduster,Chalkduster" font-size="27.0" fill="#FEFFFE" transform="matrix(1.00, 0.00, -0.00, -1.00, 239.1, 52.1)">3</text><text xml:space="preserve" font-family="Chalkduster,Chalkduster" font-size="27.0" fill="#FEFFFE" transform="matrix(1.00, 0.00, -0.00, -1.00, 257.7, 52.1)"> </text><text xml:space="preserve" font-family="Chalkduster,Chalkduster" font-size="27.0" fill="#FEFFFE" transform="matrix(1.00, 0.00, -0.00, -1.00, 271.1, 52.1)">o</text><text xml:space="preserve" font-family="Chalkduster,Chalkduster" font-size="27.0" fill="#FEFFFE" transform="matrix(1.00, 0.00, -0.00, -1.00, 290.8, 52.1)">r</text><text xml:space="preserve" font-family="Chalkduster,Chalkduster" font-size="27.0" fill="#FEFFFE" transform="matrix(1.00, 0.00, -0.00, -1.00, 305.0, 52.1)"> </text><text xml:space="preserve" font-family="Chalkduster,Chalkduster" font-size="27.0" fill="#FEFFFE" transform="matrix(1.00, 0.00, -0.00, -1.00, 318.5, 52.1)">h</text><text xml:space="preserve" font-family="Chalkduster,Chalkduster" font-size="27.0" fill="#FEFFFE" transform="matrix(1.00, 0.00, -0.00, -1.00, 335.6, 52.1)">i</text><text xml:space="preserve" font-family="Chalkduster,Chalkduster" font-size="27.0" fill="#FEFFFE" transform="matrix(1.00, 0.00, -0.00, -1.00, 346.3, 52.1)">g</text><text xml:space="preserve" font-family="Chalkduster,Chalkduster" font-size="27.0" fill="#FEFFFE" transform="matrix(1.00, 0.00, -0.00, -1.00, 365.8, 52.1)">h</text><text xml:space="preserve" font-family="Chalkduster,Chalkduster" font-size="27.0" fill="#FEFFFE" transform="matrix(1.00, 0.00, -0.00, -1.00, 382.5, 52.1)">e</text><text xml:space="preserve" font-family="Chalkduster,Chalkduster" font-size="27.0" fill="#FEFFFE" transform="matrix(1.00, 0.00, -0.00, -1.00, 398.9, 52.1)">r</text><text xml:space="preserve" font-family="Chalkduster,Chalkduster" font-size="27.0" fill="#FEFFFE" transform="matrix(1.00, 0.00, -0.00, -1.00, 413.2, 52.1)"> </text><text xml:space="preserve" font-family="Chalkduster,Chalkduster" font-size="27.0" fill="#FEFFFE" transform="matrix(1.00, 0.00, -0.00, -1.00, 426.6, 52.1)">w</text><text xml:space="preserve" font-family="Chalkduster,Chalkduster" font-size="27.0" fill="#FEFFFE" transform="matrix(1.00, 0.00, -0.00, -1.00, 449.7, 52.1)">i</text><text xml:space="preserve" font-family="Chalkduster,Chalkduster" font-size="27.0" fill="#FEFFFE" transform="matrix(1.00, 0.00, -0.00, -1.00, 460.7, 52.1)">t</text><text xml:space="preserve" font-family="Chalkduster,Chalkduster" font-size="27.0" fill="#FEFFFE" transform="matrix(1.00, 0.00, -0.00, -1.00, 473.6, 52.1)">h</text><text xml:space="preserve" font-family="Chalkduster,Chalkduster" font-size="27.0" fill="#FEFFFE" transform="matrix(1.00, 0.00, -0.00, -1.00, 490.2, 52.1)"> </text><text xml:space="preserve" font-family="Chalkduster,Chalkduster" font-size="27.0" fill="#FEFFFE" transform="matrix(1.00, 0.00, -0.00, -1.00, 503.7, 52.1)">P</text><text xml:space="preserve" font-family="Chalkduster,Chalkduster" font-size="27.0" fill="#FEFFFE" transform="matrix(1.00, 0.00, -0.00, -1.00, 522.9, 52.1)">D</text><text xml:space="preserve" font-family="Chalkduster,Chalkduster" font-size="27.0" fill="#FEFFFE" transform="matrix(1.00, 0.00, -0.00, -1.00, 541.8, 52.1)">O</text><text xml:space="preserve" font-family="Chalkduster,Chalkduster" font-size="27.0" fill="#FEFFFE" transform="matrix(1.00, 0.00, -0.00, -1.00, 558.0, 52.1)">,</text><text xml:space="preserve" font-family="Chalkduster,Chalkduster" font-size="27.0" fill="#FEFFFE" transform="matrix(1.00, 0.00, -0.00, -1.00, 566.4, 52.1)"> </text><text xml:space="preserve" font-family="Chalkduster,Chalkduster" font-size="27.0" fill="#FEFFFE" transform="matrix(1.00, 0.00, -0.00, -1.00, 579.8, 52.1)">S</text><text xml:space="preserve" font-family="Chalkduster,Chalkduster" font-size="27.0" fill="#FEFFFE" transform="matrix(1.00, 0.00, -0.00, -1.00, 593.2, 52.1)">Q</text><text xml:space="preserve" font-family="Chalkduster,Chalkduster" font-size="27.0" fill="#FEFFFE" transform="matrix(1.00, 0.00, -0.00, -1.00, 613.3, 52.1)">L</text><text xml:space="preserve" font-family="Chalkduster,Chalkduster" font-size="27.0" fill="#FEFFFE" transform="matrix(1.00, 0.00, -0.00, -1.00, 630.4, 52.1)">i</text><text xml:space="preserve" font-family="Chalkduster,Chalkduster" font-size="27.0" fill="#FEFFFE" transform="matrix(1.00, 0.00, -0.00, -1.00, 641.3, 52.1)">t</text><text xml:space="preserve" font-family="Chalkduster,Chalkduster" font-size="27.0" fill="#FEFFFE" transform="matrix(1.00, 0.00, -0.00, -1.00, 653.4, 52.1)">e</text><text xml:space="preserve" font-family="Chalkduster,Chalkduster" font-size="27.0" fill="#FEFFFE" transform="matrix(1.00, 0.00, -0.00, -1.00, 670.1, 52.1)"> </text><text xml:space="preserve" font-family="Chalkduster,Chalkduster" font-size="27.0" fill="#FEFFFE" transform="matrix(1.00, 0.00, -0.00, -1.00, 683.6, 52.1)">3</text><text xml:space="preserve" font-family="Chalkduster,Chalkduster" font-size="27.0" fill="#FEFFFE" transform="matrix(1.00, 0.00, -0.00, -1.00, 701.2, 52.1)">.</text><text xml:space="preserve" font-family="Chalkduster,Chalkduster" font-size="27.0" fill="#FEFFFE" transform="matrix(1.00, 0.00, -0.00, -1.00, 710.6, 52.1)">3</text><text xml:space="preserve" font-family="Chalkduster,Chalkduster" font-size="27.0" fill="#FEFFFE" transform="matrix(1.00, 0.00, -0.00, -1.00, 728.2, 52.1)">.</text><text xml:space="preserve" font-family="Chalkduster,Chalkduster" font-size="27.0" fill="#FEFFFE" transform="matrix(1.00, 0.00, -0.00, -1.00, 735.1, 52.1)">7</text><text xml:space="preserve" font-family="Chalkduster,Chalkduster" font-size="27.0" fill="#FEFFFE" transform="matrix(1.00, 0.00, -0.00, -1.00, 751.1, 52.1)"> </text><text xml:space="preserve" font-family="Chalkduster,Chalkduster" font-size="27.0" fill="#FEFFFE" transform="matrix(1.00, 0.00, -0.00, -1.00, 764.6, 52.1)">o</text><text xml:space="preserve" font-family="Chalkduster,Chalkduster" font-size="27.0" fill="#FEFFFE" transform="matrix(1.00, 0.00, -0.00, -1.00, 784.3, 52.1)">r</text><text xml:space="preserve" font-family="Chalkduster,Chalkduster" font-size="27.0" fill="#FEFFFE" transform="matrix(1.00, 0.00, -0.00, -1.00, 798.5, 52.1)"> </text><text xml:space="preserve" font-family="Chalkduster,Chalkduster" font-size="27.0" fill="#FEFFFE" transform="matrix(1.00, 0.00, -0.00, -1.00, 33.8, 11.1)">h</text><text xml:space="preserve" font-family="Chalkduster,Chalkduster" font-size="27.0" fill="#FEFFFE" transform="matrix(1.00, 0.00, -0.00, -1.00, 50.9, 11.1)">i</text><text xml:space="preserve" font-family="Chalkduster,Chalkduster" font-size="27.0" fill="#FEFFFE" transform="matrix(1.00, 0.00, -0.00, -1.00, 61.5, 11.1)">g</text><text xml:space="preserve" font-family="Chalkduster,Chalkduster" font-size="27.0" fill="#FEFFFE" transform="matrix(1.00, 0.00, -0.00, -1.00, 81.0, 11.1)">h</text><text xml:space="preserve" font-family="Chalkduster,Chalkduster" font-size="27.0" fill="#FEFFFE" transform="matrix(1.00, 0.00, -0.00, -1.00, 97.7, 11.1)">e</text><text xml:space="preserve" font-family="Chalkduster,Chalkduster" font-size="27.0" fill="#FEFFFE" transform="matrix(1.00, 0.00, -0.00, -1.00, 114.2, 11.1)">r</text></g></svg>