<?xml version="1.0" encoding="UTF-8" standalone="no"?><svg xmlns="http://www.w3.org/2000/svg" xmlns:xlink="http://www.w3.org/1999/xlink" clip-rule="evenodd" stroke-miterlimit="10" viewBox="0 0 447 57"><desc>SVG generated by Keynote</desc><defs></defs><g transform="matrix(1.00, 0.00, -0.00, -1.00, 0.0, 57.0)"><text xml:space="preserve" font-family="Chalkduster,Chalkduster" font-size="34.0" fill="#FEFFFE" transform="matrix(1.00, 0.00, -0.00, -1.00, 1.0, 14.4)">r</text><text xml:space="preserve" font-family="Chalkduster,Chalkduster" font-size="34.0" fill="#FEFFFE" transform="matrix(1.00, 0.00, -0.00, -1.00, 19.9, 14.4)">u</text><text xml:space="preserve" font-family="Chalkduster,Chalkduster" font-size="34.0" fill="#FEFFFE" transform="matrix(1.00, 0.00, -0.00, -1.00, 43.2, 14.4)">b</text><text xml:space="preserve" font-family="Chalkduster,Chalkduster" font-size="34.0" fill="#FEFFFE" transform="matrix(1.00, 0.00, -0.00, -1.00, 63.0, 14.4)">e</text><text xml:space="preserve" font-family="Chalkduster,Chalkduster" font-size="34.0" fill="#FEFFFE" transform="matrix(1.00, 0.00, -0.00, -1.00, 84.4, 14.4)">n</text><text xml:space="preserve" font-family="Chalkduster,Chalkduster" font-size="34.0" fill="#FEFFFE" transform="matrix(1.00, 0.00, -0.00, -1.00, 109.4, 14.4)">b</text><text xml:space="preserve" font-family="Chalkduster,Chalkduster" font-size="34.0" fill="#FEFFFE" transform="matrix(1.00, 0.00, -0.00, -1.00, 129.1, 14.4)">c</text><text xml:space="preserve" font-family="Chalkduster,Chalkduster" font-size="34.0" fill="#FEFFFE" transform="matrix(1.00, 0.00, -0.00, -1.00, 150.5, 14.4)">h</text><text xml:space="preserve" font-family="Chalkduster,Chalkduster" font-size="34.0" fill="#FEFFFE" transform="matrix(1.00, 0.00, -0.00, -1.00, 171.5, 14.4)">0</text><text xml:space="preserve" font-family="Chalkduster,Chalkduster" font-size="34.0" fill="#FEFFFE" transform="matrix(1.00, 0.00, -0.00, -1.00, 194.9, 14.4)">5</text><text xml:space="preserve" font-family="Chalkduster,Chalkduster" font-size="34.0" fill="#FEFFFE" transform="matrix(1.00, 0.00, -0.00, -1.00, 216.7, 14.4)">@</text><text xml:space="preserve" font-family="Chalkduster,Chalkduster" font-size="34.0" fill="#FEFFFE" transform="matrix(1.00, 0.00, -0.00, -1.00, 245.1, 14.4)">g</text><text xml:space="preserve" font-family="Chalkduster,Chalkduster" font-size="34.0" fill="#FEFFFE" transform="matrix(1.00, 0.00, -0.00, -1.00, 268.3, 14.4)">m</text><text xml:space="preserve" font-family="Chalkduster,Chalkduster" font-size="34.0" fill="#FEFFFE" transform="matrix(1.00, 0.00, -0.00, -1.00, 302.7, 14.4)">a</text><text xml:space="preserve" font-family="Chalkduster,Chalkduster" font-size="34.0" fill="#FEFFFE" transform="matrix(1.00, 0.00, -0.00, -1.00, 326.1, 14.4)">i</text><text xml:space="preserve" font-family="Chalkduster,Chalkduster" font-size="34.0" fill="#FEFFFE" transform="matrix(1.00, 0.00, -0.00, -1.00, 339.9, 14.4)">l</text><text xml:space="preserve" font-family="Chalkduster,Chalkduster" font-size="34.0" fill="#FEFFFE" transform="matrix(1.00, 0.00, -0.00, -1.00, 355.5, 14.4)">.</text><text xml:space="preserve" font-family="Chalkduster,Chalkduster" font-size="34.0" fill="#FEFFFE" transform="matrix(1.00, 0.00, -0.00, -1.00, 365.8, 14.4)">c</text><text xml:space="preserve" font-family="Chalkduster,Chalkduster" font-size="34.0" fill="#FEFFFE" transform="matrix(1.00, 0.00, -0.00, -1.00, 386.1, 14.4)">o</text><text xml:space="preserve" font-family="Chalkduster,Chalkduster" font-size="34.0" fill="#FEFFFE" transform="matrix(1.00, 0.00, -0.00, -1.00, 411.6, 14.4)">m</text><text xml:space="preserve" font-family="Chalkduster,Chalkduster" font-size="34.0" fill="#FEFFFE" transform="matrix(1.00, 0.00, -0.00, -1.00, 446.0, 14.4)"> </text><g><clipPath id="clip0x6080020a36c0"><path d="M -0.0 8.0 L 446.0 8.0 L 446.0 10.8 L -0.0 10.8 Z M -0.0 8.0 "></path></clipPath><g clip-path="url(#clip0x6080020a36c0)"><path d="M 168.7 102.9 L 613.7 102.9 " fill="none" stroke="#FEFFFE" stroke-width="0.75" transform="matrix(1.00, 0.00, 0.00, -1.00, -167.7, 112.3)"></path></g></g></g></svg>