<?xml version="1.0" encoding="UTF-8" standalone="no"?><svg xmlns="http://www.w3.org/2000/svg" xmlns:xlink="http://www.w3.org/1999/xlink" clip-rule="evenodd" stroke-miterlimit="10" viewBox="0 0 307 245"><desc>SVG generated by Keynote</desc><defs></defs><g transform="matrix(1.00, 0.00, -0.00, -1.00, 0.0, 245.0)"><g><clipPath id="clip0x6080010b0c20"><path d="M 1.0 2.0 L 305.0 2.0 L 305.0 244.0 L 1.0 244.0 Z M 1.0 2.0 "></path></clipPath><g clip-path="url(#clip0x6080010b0c20)"><path d="M 1.0 244.0 L 305.0 244.0 L 305.0 2.0 L 1.0 2.0 Z M 1.0 244.0 " fill="#FEFFFF" fill-opacity="0.00"></path><image xlink:href="C0CA7C6330B842441109994772CE5FD5.png" width="248.00" height="63.00" transform="matrix(1.23, 0.00, -0.00, -1.23, 1.0, 86.8)"></image><image xlink:href="C35C0E0EEBBC06146BC57DA351060A2E.png" width="178.00" height="197.00" transform="matrix(1.23, 0.00, -0.00, -1.23, 79.5, 244.0)"></image></g></g><g><clipPath id="clip0x6000010b3260"><path d="M 103.1 221.1 L 273.9 221.1 L 273.9 25.3 L 103.1 25.3 Z M 103.1 221.1 "></path></clipPath><g clip-path="url(#clip0x6000010b3260)"><g><clipPath id="clip0x6000010bede0"><path d="M 103.1 25.3 L 273.9 25.3 L 273.9 221.1 L 103.1 221.1 Z M 103.1 25.3 "></path></clipPath><g clip-path="url(#clip0x6000010bede0)"><image xlink:href="1990A4F666A8207F90FA64FD60F99E29.png" width="1180.00" height="1350.00" transform="matrix(0.14, 0.00, -0.00, -0.15, 103.1, 221.1)"></image></g></g></g></g></g></svg>