<?xml version="1.0" encoding="UTF-8" standalone="no"?><svg xmlns="http://www.w3.org/2000/svg" xmlns:xlink="http://www.w3.org/1999/xlink" clip-rule="evenodd" stroke-miterlimit="10" viewBox="0 0 816 92"><desc>SVG generated by Keynote</desc><defs></defs><g transform="matrix(1.00, 0.00, -0.00, -1.00, 0.0, 92.0)"><text xml:space="preserve" font-family="Chalkduster,Chalkduster" font-size="66.1" fill="#FEFFFE" transform="matrix(1.00, 0.00, -0.00, -1.00, 0.5, 37.9)">D</text><text xml:space="preserve" font-family="Chalkduster,Chalkduster" font-size="66.1" fill="#FEFFFE" transform="matrix(1.00, 0.00, -0.00, -1.00, 46.7, 37.9)">r</text><text xml:space="preserve" font-family="Chalkduster,Chalkduster" font-size="66.1" fill="#FEFFFE" transform="matrix(1.00, 0.00, -0.00, -1.00, 83.4, 37.9)">u</text><text xml:space="preserve" font-family="Chalkduster,Chalkduster" font-size="66.1" fill="#FEFFFE" transform="matrix(1.00, 0.00, -0.00, -1.00, 129.9, 37.9)">p</text><text xml:space="preserve" font-family="Chalkduster,Chalkduster" font-size="66.1" fill="#FEFFFE" transform="matrix(1.00, 0.00, -0.00, -1.00, 170.7, 37.9)">a</text><text xml:space="preserve" font-family="Chalkduster,Chalkduster" font-size="66.1" fill="#FEFFFE" transform="matrix(1.00, 0.00, -0.00, -1.00, 213.5, 37.9)">l</text><text xml:space="preserve" font-family="Chalkduster,Chalkduster" font-size="66.1" fill="#FEFFFE" transform="matrix(1.00, 0.00, -0.00, -1.00, 244.5, 37.9)"> </text><text xml:space="preserve" font-family="Chalkduster,Chalkduster" font-size="66.1" fill="#FEFFFE" transform="matrix(1.00, 0.00, -0.00, -1.00, 277.4, 37.9)">S</text><text xml:space="preserve" font-family="Chalkduster,Chalkduster" font-size="66.1" fill="#FEFFFE" transform="matrix(1.00, 0.00, -0.00, -1.00, 310.3, 37.9)">i</text><text xml:space="preserve" font-family="Chalkduster,Chalkduster" font-size="66.1" fill="#FEFFFE" transform="matrix(1.00, 0.00, -0.00, -1.00, 336.4, 37.9)">n</text><text xml:space="preserve" font-family="Chalkduster,Chalkduster" font-size="66.1" fill="#FEFFFE" transform="matrix(1.00, 0.00, -0.00, -1.00, 384.9, 37.9)"> </text><text xml:space="preserve" font-family="Chalkduster,Chalkduster" font-size="66.1" fill="#FEFFFE" transform="matrix(1.00, 0.00, -0.00, -1.00, 417.8, 37.9)">P</text><text xml:space="preserve" font-family="Chalkduster,Chalkduster" font-size="66.1" fill="#FEFFFE" transform="matrix(1.00, 0.00, -0.00, -1.00, 463.8, 37.9)">r</text><text xml:space="preserve" font-family="Chalkduster,Chalkduster" font-size="66.1" fill="#FEFFFE" transform="matrix(1.00, 0.00, -0.00, -1.00, 497.7, 37.9)">o</text><text xml:space="preserve" font-family="Chalkduster,Chalkduster" font-size="66.1" fill="#FEFFFE" transform="matrix(1.00, 0.00, -0.00, -1.00, 546.2, 37.9)">g</text><text xml:space="preserve" font-family="Chalkduster,Chalkduster" font-size="66.1" fill="#FEFFFE" transform="matrix(1.00, 0.00, -0.00, -1.00, 593.2, 37.9)">r</text><text xml:space="preserve" font-family="Chalkduster,Chalkduster" font-size="66.1" fill="#FEFFFE" transform="matrix(1.00, 0.00, -0.00, -1.00, 628.0, 37.9)">a</text><text xml:space="preserve" font-family="Chalkduster,Chalkduster" font-size="66.1" fill="#FEFFFE" transform="matrix(1.00, 0.00, -0.00, -1.00, 671.5, 37.9)">m</text><text xml:space="preserve" font-family="Chalkduster,Chalkduster" font-size="66.1" fill="#FEFFFE" transform="matrix(1.00, 0.00, -0.00, -1.00, 738.5, 37.9)">a</text><text xml:space="preserve" font-family="Chalkduster,Chalkduster" font-size="66.1" fill="#FEFFFE" transform="matrix(1.00, 0.00, -0.00, -1.00, 780.6, 37.9)">r</text></g></svg>