<?xml version="1.0" encoding="UTF-8" standalone="no"?><svg xmlns="http://www.w3.org/2000/svg" xmlns:xlink="http://www.w3.org/1999/xlink" clip-rule="evenodd" stroke-miterlimit="10" viewBox="0 0 583 100"><desc>SVG generated by Keynote</desc><defs></defs><g transform="matrix(1.00, 0.00, -0.00, -1.00, 0.0, 100.0)"><text xml:space="preserve" font-family="Chalkduster,Chalkduster" font-size="34.0" fill="#FEFFFE" transform="matrix(1.00, 0.00, -0.00, -1.00, -0.4, 66.4)">R</text><text xml:space="preserve" font-family="Chalkduster,Chalkduster" font-size="34.0" fill="#FEFFFE" transform="matrix(1.00, 0.00, -0.00, -1.00, 26.1, 66.4)">u</text><text xml:space="preserve" font-family="Chalkduster,Chalkduster" font-size="34.0" fill="#FEFFFE" transform="matrix(1.00, 0.00, -0.00, -1.00, 49.4, 66.4)">b</text><text xml:space="preserve" font-family="Chalkduster,Chalkduster" font-size="34.0" fill="#FEFFFE" transform="matrix(1.00, 0.00, -0.00, -1.00, 69.2, 66.4)">é</text><text xml:space="preserve" font-family="Chalkduster,Chalkduster" font-size="34.0" fill="#FEFFFE" transform="matrix(1.00, 0.00, -0.00, -1.00, 91.8, 66.4)">n</text><text xml:space="preserve" font-family="Chalkduster,Chalkduster" font-size="34.0" fill="#FEFFFE" transform="matrix(1.00, 0.00, -0.00, -1.00, 116.8, 66.4)"> </text><text xml:space="preserve" font-family="Chalkduster,Chalkduster" font-size="34.0" fill="#FEFFFE" transform="matrix(1.00, 0.00, -0.00, -1.00, 133.7, 66.4)">D</text><text xml:space="preserve" font-family="Chalkduster,Chalkduster" font-size="34.0" fill="#FEFFFE" transform="matrix(1.00, 0.00, -0.00, -1.00, 157.5, 66.4)">a</text><text xml:space="preserve" font-family="Chalkduster,Chalkduster" font-size="34.0" fill="#FEFFFE" transform="matrix(1.00, 0.00, -0.00, -1.00, 178.5, 66.4)">v</text><text xml:space="preserve" font-family="Chalkduster,Chalkduster" font-size="34.0" fill="#FEFFFE" transform="matrix(1.00, 0.00, -0.00, -1.00, 199.6, 66.4)">i</text><text xml:space="preserve" font-family="Chalkduster,Chalkduster" font-size="34.0" fill="#FEFFFE" transform="matrix(1.00, 0.00, -0.00, -1.00, 214.2, 66.4)">d</text><text xml:space="preserve" font-family="Chalkduster,Chalkduster" font-size="34.0" fill="#FEFFFE" transform="matrix(1.00, 0.00, -0.00, -1.00, 240.8, 66.4)"> </text><text xml:space="preserve" font-family="Chalkduster,Chalkduster" font-size="34.0" fill="#FEFFFE" transform="matrix(1.00, 0.00, -0.00, -1.00, 257.7, 66.4)">B</text><text xml:space="preserve" font-family="Chalkduster,Chalkduster" font-size="34.0" fill="#FEFFFE" transform="matrix(1.00, 0.00, -0.00, -1.00, 280.4, 66.4)">e</text><text xml:space="preserve" font-family="Chalkduster,Chalkduster" font-size="34.0" fill="#FEFFFE" transform="matrix(1.00, 0.00, -0.00, -1.00, 301.1, 66.4)">r</text><text xml:space="preserve" font-family="Chalkduster,Chalkduster" font-size="34.0" fill="#FEFFFE" transform="matrix(1.00, 0.00, -0.00, -1.00, 320.1, 66.4)">r</text><text xml:space="preserve" font-family="Chalkduster,Chalkduster" font-size="34.0" fill="#FEFFFE" transform="matrix(1.00, 0.00, -0.00, -1.00, 337.6, 66.4)">o</text><text xml:space="preserve" font-family="Chalkduster,Chalkduster" font-size="34.0" fill="#FEFFFE" transform="matrix(1.00, 0.00, -0.00, -1.00, 362.6, 66.4)">c</text><text xml:space="preserve" font-family="Chalkduster,Chalkduster" font-size="34.0" fill="#FEFFFE" transform="matrix(1.00, 0.00, -0.00, -1.00, 382.6, 66.4)">a</text><text xml:space="preserve" font-family="Chalkduster,Chalkduster" font-size="34.0" fill="#FEFFFE" transform="matrix(1.00, 0.00, -0.00, -1.00, 404.7, 66.4)">l</text><text xml:space="preserve" font-family="Chalkduster,Chalkduster" font-size="34.0" fill="#FEFFFE" transform="matrix(1.00, 0.00, -0.00, -1.00, 420.6, 66.4)"> </text><text xml:space="preserve" font-family="Chalkduster,Chalkduster" font-size="34.0" fill="#FEFFFE" transform="matrix(1.00, 0.00, -0.00, -1.00, 437.5, 66.4)">C</text><text xml:space="preserve" font-family="Chalkduster,Chalkduster" font-size="34.0" fill="#FEFFFE" transform="matrix(1.00, 0.00, -0.00, -1.00, 466.2, 66.4)">h</text><text xml:space="preserve" font-family="Chalkduster,Chalkduster" font-size="34.0" fill="#FEFFFE" transform="matrix(1.00, 0.00, -0.00, -1.00, 487.2, 66.4)">a</text><text xml:space="preserve" font-family="Chalkduster,Chalkduster" font-size="34.0" fill="#FEFFFE" transform="matrix(1.00, 0.00, -0.00, -1.00, 509.6, 66.4)">c</text><text xml:space="preserve" font-family="Chalkduster,Chalkduster" font-size="34.0" fill="#FEFFFE" transform="matrix(1.00, 0.00, -0.00, -1.00, 530.9, 66.4)">ó</text><text xml:space="preserve" font-family="Chalkduster,Chalkduster" font-size="34.0" fill="#FEFFFE" transform="matrix(1.00, 0.00, -0.00, -1.00, 556.1, 66.4)">n</text><text xml:space="preserve" font-family="Chalkduster,Chalkduster" font-size="34.0" fill="#FEFFFE" transform="matrix(1.00, 0.00, -0.00, -1.00, 581.0, 66.4)"> </text><text xml:space="preserve" font-family="Chalkduster,Chalkduster" font-size="34.0" fill="#FEFFFE" transform="matrix(1.00, 0.00, -0.00, -1.00, 136.0, 14.4)">r</text><text xml:space="preserve" font-family="Chalkduster,Chalkduster" font-size="34.0" fill="#FEFFFE" transform="matrix(1.00, 0.00, -0.00, -1.00, 154.9, 14.4)">u</text><text xml:space="preserve" font-family="Chalkduster,Chalkduster" font-size="34.0" fill="#FEFFFE" transform="matrix(1.00, 0.00, -0.00, -1.00, 178.2, 14.4)">b</text><text xml:space="preserve" font-family="Chalkduster,Chalkduster" font-size="34.0" fill="#FEFFFE" transform="matrix(1.00, 0.00, -0.00, -1.00, 198.0, 14.4)">e</text><text xml:space="preserve" font-family="Chalkduster,Chalkduster" font-size="34.0" fill="#FEFFFE" transform="matrix(1.00, 0.00, -0.00, -1.00, 219.4, 14.4)">n</text><text xml:space="preserve" font-family="Chalkduster,Chalkduster" font-size="34.0" fill="#FEFFFE" transform="matrix(1.00, 0.00, -0.00, -1.00, 244.4, 14.4)">b</text><text xml:space="preserve" font-family="Chalkduster,Chalkduster" font-size="34.0" fill="#FEFFFE" transform="matrix(1.00, 0.00, -0.00, -1.00, 264.1, 14.4)">c</text><text xml:space="preserve" font-family="Chalkduster,Chalkduster" font-size="34.0" fill="#FEFFFE" transform="matrix(1.00, 0.00, -0.00, -1.00, 285.5, 14.4)">h</text><text xml:space="preserve" font-family="Chalkduster,Chalkduster" font-size="34.0" fill="#FEFFFE" transform="matrix(1.00, 0.00, -0.00, -1.00, 306.5, 14.4)">0</text><text xml:space="preserve" font-family="Chalkduster,Chalkduster" font-size="34.0" fill="#FEFFFE" transform="matrix(1.00, 0.00, -0.00, -1.00, 329.9, 14.4)">5</text><text xml:space="preserve" font-family="Chalkduster,Chalkduster" font-size="34.0" fill="#FEFFFE" transform="matrix(1.00, 0.00, -0.00, -1.00, 351.7, 14.4)">@</text><text xml:space="preserve" font-family="Chalkduster,Chalkduster" font-size="34.0" fill="#FEFFFE" transform="matrix(1.00, 0.00, -0.00, -1.00, 380.1, 14.4)">g</text><text xml:space="preserve" font-family="Chalkduster,Chalkduster" font-size="34.0" fill="#FEFFFE" transform="matrix(1.00, 0.00, -0.00, -1.00, 403.3, 14.4)">m</text><text xml:space="preserve" font-family="Chalkduster,Chalkduster" font-size="34.0" fill="#FEFFFE" transform="matrix(1.00, 0.00, -0.00, -1.00, 437.7, 14.4)">a</text><text xml:space="preserve" font-family="Chalkduster,Chalkduster" font-size="34.0" fill="#FEFFFE" transform="matrix(1.00, 0.00, -0.00, -1.00, 461.1, 14.4)">i</text><text xml:space="preserve" font-family="Chalkduster,Chalkduster" font-size="34.0" fill="#FEFFFE" transform="matrix(1.00, 0.00, -0.00, -1.00, 474.9, 14.4)">l</text><text xml:space="preserve" font-family="Chalkduster,Chalkduster" font-size="34.0" fill="#FEFFFE" transform="matrix(1.00, 0.00, -0.00, -1.00, 490.5, 14.4)">.</text><text xml:space="preserve" font-family="Chalkduster,Chalkduster" font-size="34.0" fill="#FEFFFE" transform="matrix(1.00, 0.00, -0.00, -1.00, 500.8, 14.4)">c</text><text xml:space="preserve" font-family="Chalkduster,Chalkduster" font-size="34.0" fill="#FEFFFE" transform="matrix(1.00, 0.00, -0.00, -1.00, 521.1, 14.4)">o</text><text xml:space="preserve" font-family="Chalkduster,Chalkduster" font-size="34.0" fill="#FEFFFE" transform="matrix(1.00, 0.00, -0.00, -1.00, 546.6, 14.4)">m</text><text xml:space="preserve" font-family="Chalkduster,Chalkduster" font-size="34.0" fill="#FEFFFE" transform="matrix(1.00, 0.00, -0.00, -1.00, 581.0, 14.4)"> </text><g><clipPath id="clip0x6000010ad920"><path d="M 135.0 8.0 L 581.0 8.0 L 581.0 10.8 L 135.0 10.8 Z M 135.0 8.0 "></path></clipPath><g clip-path="url(#clip0x6000010ad920)"><path d="M 168.7 102.9 L 613.7 102.9 " fill="none" stroke="#FEFFFE" stroke-width="0.75" transform="matrix(1.00, 0.00, 0.00, -1.00, -32.7, 112.3)"></path></g></g></g></svg>