<?xml version="1.0" encoding="UTF-8" standalone="no"?><svg xmlns="http://www.w3.org/2000/svg" xmlns:xlink="http://www.w3.org/1999/xlink" clip-rule="evenodd" stroke-miterlimit="10" viewBox="0 0 167 27"><desc>SVG generated by Keynote</desc><defs></defs><g transform="matrix(1.00, 0.00, -0.00, -1.00, 0.0, 27.0)"><image xlink:href="../../DE897E55-03F1-4C91-97CD-92F71CB96A10/assets/7083CCEA4E60CFD10D99D1145F80E361.png" width="78.00" height="72.00" transform="matrix(0.21, 0.00, -0.00, -0.21, 0.0, 17.6)"></image><text xml:space="preserve" font-family="Chalkduster,Chalkduster" font-size="27.5" fill="#FEFFFE" transform="matrix(1.00, 0.00, -0.00, -1.00, 32.7, 3.5)">P</text><text xml:space="preserve" font-family="Chalkduster,Chalkduster" font-size="27.5" fill="#FEFFFE" transform="matrix(1.00, 0.00, -0.00, -1.00, 50.4, 3.5)">a</text><text xml:space="preserve" font-family="Chalkduster,Chalkduster" font-size="27.5" fill="#FEFFFE" transform="matrix(1.00, 0.00, -0.00, -1.00, 67.5, 3.5)">t</text><text xml:space="preserve" font-family="Chalkduster,Chalkduster" font-size="27.5" fill="#FEFFFE" transform="matrix(1.00, 0.00, -0.00, -1.00, 80.6, 3.5)">h</text><text xml:space="preserve" font-family="Chalkduster,Chalkduster" font-size="27.5" fill="#FEFFFE" transform="matrix(1.00, 0.00, -0.00, -1.00, 97.7, 3.5)">a</text><text xml:space="preserve" font-family="Chalkduster,Chalkduster" font-size="27.5" fill="#FEFFFE" transform="matrix(1.00, 0.00, -0.00, -1.00, 116.6, 3.5)">u</text><text xml:space="preserve" font-family="Chalkduster,Chalkduster" font-size="27.5" fill="#FEFFFE" transform="matrix(1.00, 0.00, -0.00, -1.00, 135.2, 3.5)">t</text><text xml:space="preserve" font-family="Chalkduster,Chalkduster" font-size="27.5" fill="#FEFFFE" transform="matrix(1.00, 0.00, -0.00, -1.00, 146.6, 3.5)">o</text></g></svg>