<?xml version="1.0" encoding="UTF-8" standalone="no"?><svg xmlns="http://www.w3.org/2000/svg" xmlns:xlink="http://www.w3.org/1999/xlink" clip-rule="evenodd" stroke-miterlimit="10" viewBox="0 0 409 50"><desc>SVG generated by Keynote</desc><defs></defs><g transform="matrix(1.00, 0.00, -0.00, -1.00, 0.0, 50.0)"><image xlink:href="../../861502F5-C051-4CA8-9910-E538B1C8F451/assets/7083CCEA4E60CFD10D99D1145F80E361.png" width="78.00" height="72.00" transform="matrix(0.12, 0.00, -0.00, -0.12, 0.0, 40.3)"></image><text xml:space="preserve" font-family="Chalkduster,Chalkduster" font-size="15.7" fill="#FEFFFE" transform="matrix(1.00, 0.00, -0.00, -1.00, 18.6, 33.6)">M</text><text xml:space="preserve" font-family="Chalkduster,Chalkduster" font-size="15.7" fill="#FEFFFE" transform="matrix(1.00, 0.00, -0.00, -1.00, 31.8, 33.6)">e</text><text xml:space="preserve" font-family="Chalkduster,Chalkduster" font-size="15.7" fill="#FEFFFE" transform="matrix(1.00, 0.00, -0.00, -1.00, 40.1, 33.6)">j</text><text xml:space="preserve" font-family="Chalkduster,Chalkduster" font-size="15.7" fill="#FEFFFE" transform="matrix(1.00, 0.00, -0.00, -1.00, 47.4, 33.6)">o</text><text xml:space="preserve" font-family="Chalkduster,Chalkduster" font-size="15.7" fill="#FEFFFE" transform="matrix(1.00, 0.00, -0.00, -1.00, 58.8, 33.6)">r</text><text xml:space="preserve" font-family="Chalkduster,Chalkduster" font-size="15.7" fill="#FEFFFE" transform="matrix(1.00, 0.00, -0.00, -1.00, 67.1, 33.6)">a</text><text xml:space="preserve" font-family="Chalkduster,Chalkduster" font-size="15.7" fill="#FEFFFE" transform="matrix(1.00, 0.00, -0.00, -1.00, 77.9, 33.6)"> </text><text xml:space="preserve" font-family="Chalkduster,Chalkduster" font-size="15.7" fill="#FEFFFE" transform="matrix(1.00, 0.00, -0.00, -1.00, 89.0, 33.6)">d</text><text xml:space="preserve" font-family="Chalkduster,Chalkduster" font-size="15.7" fill="#FEFFFE" transform="matrix(1.00, 0.00, -0.00, -1.00, 101.2, 33.6)">e</text><text xml:space="preserve" font-family="Chalkduster,Chalkduster" font-size="15.7" fill="#FEFFFE" transform="matrix(1.00, 0.00, -0.00, -1.00, 110.9, 33.6)"> </text><text xml:space="preserve" font-family="Chalkduster,Chalkduster" font-size="15.7" fill="#FEFFFE" transform="matrix(1.00, 0.00, -0.00, -1.00, 122.0, 33.6)">l</text><text xml:space="preserve" font-family="Chalkduster,Chalkduster" font-size="15.7" fill="#FEFFFE" transform="matrix(1.00, 0.00, -0.00, -1.00, 129.1, 33.6)">a</text><text xml:space="preserve" font-family="Chalkduster,Chalkduster" font-size="15.7" fill="#FEFFFE" transform="matrix(1.00, 0.00, -0.00, -1.00, 140.0, 33.6)">s</text><text xml:space="preserve" font-family="Chalkduster,Chalkduster" font-size="15.7" fill="#FEFFFE" transform="matrix(1.00, 0.00, -0.00, -1.00, 148.0, 33.6)"> </text><text xml:space="preserve" font-family="Chalkduster,Chalkduster" font-size="15.7" fill="#FEFFFE" transform="matrix(1.00, 0.00, -0.00, -1.00, 159.0, 33.6)">c</text><text xml:space="preserve" font-family="Chalkduster,Chalkduster" font-size="15.7" fill="#FEFFFE" transform="matrix(1.00, 0.00, -0.00, -1.00, 168.4, 33.6)">o</text><text xml:space="preserve" font-family="Chalkduster,Chalkduster" font-size="15.7" fill="#FEFFFE" transform="matrix(1.00, 0.00, -0.00, -1.00, 180.2, 33.6)">m</text><text xml:space="preserve" font-family="Chalkduster,Chalkduster" font-size="15.7" fill="#FEFFFE" transform="matrix(1.00, 0.00, -0.00, -1.00, 196.0, 33.6)">p</text><text xml:space="preserve" font-family="Chalkduster,Chalkduster" font-size="15.7" fill="#FEFFFE" transform="matrix(1.00, 0.00, -0.00, -1.00, 205.9, 33.6)">e</text><text xml:space="preserve" font-family="Chalkduster,Chalkduster" font-size="15.7" fill="#FEFFFE" transform="matrix(1.00, 0.00, -0.00, -1.00, 215.5, 33.6)">t</text><text xml:space="preserve" font-family="Chalkduster,Chalkduster" font-size="15.7" fill="#FEFFFE" transform="matrix(1.00, 0.00, -0.00, -1.00, 222.5, 33.6)">e</text><text xml:space="preserve" font-family="Chalkduster,Chalkduster" font-size="15.7" fill="#FEFFFE" transform="matrix(1.00, 0.00, -0.00, -1.00, 232.3, 33.6)">n</text><text xml:space="preserve" font-family="Chalkduster,Chalkduster" font-size="15.7" fill="#FEFFFE" transform="matrix(1.00, 0.00, -0.00, -1.00, 243.8, 33.6)">c</text><text xml:space="preserve" font-family="Chalkduster,Chalkduster" font-size="15.7" fill="#FEFFFE" transform="matrix(1.00, 0.00, -0.00, -1.00, 253.7, 33.6)">i</text><text xml:space="preserve" font-family="Chalkduster,Chalkduster" font-size="15.7" fill="#FEFFFE" transform="matrix(1.00, 0.00, -0.00, -1.00, 260.1, 33.6)">a</text><text xml:space="preserve" font-family="Chalkduster,Chalkduster" font-size="15.7" fill="#FEFFFE" transform="matrix(1.00, 0.00, -0.00, -1.00, 271.0, 33.6)">s</text><text xml:space="preserve" font-family="Chalkduster,Chalkduster" font-size="15.7" fill="#FEFFFE" transform="matrix(1.00, 0.00, -0.00, -1.00, 279.0, 33.6)"> </text><text xml:space="preserve" font-family="Chalkduster,Chalkduster" font-size="15.7" fill="#FEFFFE" transform="matrix(1.00, 0.00, -0.00, -1.00, 290.0, 33.6)">d</text><text xml:space="preserve" font-family="Chalkduster,Chalkduster" font-size="15.7" fill="#FEFFFE" transform="matrix(1.00, 0.00, -0.00, -1.00, 302.3, 33.6)">e</text><text xml:space="preserve" font-family="Chalkduster,Chalkduster" font-size="15.7" fill="#FEFFFE" transform="matrix(1.00, 0.00, -0.00, -1.00, 312.0, 33.6)"> </text><text xml:space="preserve" font-family="Chalkduster,Chalkduster" font-size="15.7" fill="#FEFFFE" transform="matrix(1.00, 0.00, -0.00, -1.00, 323.1, 33.6)">e</text><text xml:space="preserve" font-family="Chalkduster,Chalkduster" font-size="15.7" fill="#FEFFFE" transform="matrix(1.00, 0.00, -0.00, -1.00, 332.3, 33.6)">x</text><text xml:space="preserve" font-family="Chalkduster,Chalkduster" font-size="15.7" fill="#FEFFFE" transform="matrix(1.00, 0.00, -0.00, -1.00, 342.1, 33.6)">p</text><text xml:space="preserve" font-family="Chalkduster,Chalkduster" font-size="15.7" fill="#FEFFFE" transform="matrix(1.00, 0.00, -0.00, -1.00, 351.8, 33.6)">r</text><text xml:space="preserve" font-family="Chalkduster,Chalkduster" font-size="15.7" fill="#FEFFFE" transform="matrix(1.00, 0.00, -0.00, -1.00, 359.7, 33.6)">e</text><text xml:space="preserve" font-family="Chalkduster,Chalkduster" font-size="15.7" fill="#FEFFFE" transform="matrix(1.00, 0.00, -0.00, -1.00, 369.8, 33.6)">s</text><text xml:space="preserve" font-family="Chalkduster,Chalkduster" font-size="15.7" fill="#FEFFFE" transform="matrix(1.00, 0.00, -0.00, -1.00, 377.7, 33.6)">i</text><text xml:space="preserve" font-family="Chalkduster,Chalkduster" font-size="15.7" fill="#FEFFFE" transform="matrix(1.00, 0.00, -0.00, -1.00, 383.9, 33.6)">รณ</text><text xml:space="preserve" font-family="Chalkduster,Chalkduster" font-size="15.7" fill="#FEFFFE" transform="matrix(1.00, 0.00, -0.00, -1.00, 395.5, 33.6)">n</text><text xml:space="preserve" font-family="Chalkduster,Chalkduster" font-size="15.7" fill="#FEFFFE" transform="matrix(1.00, 0.00, -0.00, -1.00, 407.0, 33.6)"> </text><text xml:space="preserve" font-family="Chalkduster,Chalkduster" font-size="15.7" fill="#FEFFFE" transform="matrix(1.00, 0.00, -0.00, -1.00, 18.6, 10.6)">y</text><text xml:space="preserve" font-family="Chalkduster,Chalkduster" font-size="15.7" fill="#FEFFFE" transform="matrix(1.00, 0.00, -0.00, -1.00, 28.2, 10.6)"> </text><text xml:space="preserve" font-family="Chalkduster,Chalkduster" font-size="15.7" fill="#FEFFFE" transform="matrix(1.00, 0.00, -0.00, -1.00, 36.0, 10.6)">c</text><text xml:space="preserve" font-family="Chalkduster,Chalkduster" font-size="15.7" fill="#FEFFFE" transform="matrix(1.00, 0.00, -0.00, -1.00, 45.5, 10.6)">r</text><text xml:space="preserve" font-family="Chalkduster,Chalkduster" font-size="15.7" fill="#FEFFFE" transform="matrix(1.00, 0.00, -0.00, -1.00, 53.4, 10.6)">e</text><text xml:space="preserve" font-family="Chalkduster,Chalkduster" font-size="15.7" fill="#FEFFFE" transform="matrix(1.00, 0.00, -0.00, -1.00, 63.1, 10.6)">a</text><text xml:space="preserve" font-family="Chalkduster,Chalkduster" font-size="15.7" fill="#FEFFFE" transform="matrix(1.00, 0.00, -0.00, -1.00, 72.9, 10.6)">t</text><text xml:space="preserve" font-family="Chalkduster,Chalkduster" font-size="15.7" fill="#FEFFFE" transform="matrix(1.00, 0.00, -0.00, -1.00, 80.1, 10.6)">i</text><text xml:space="preserve" font-family="Chalkduster,Chalkduster" font-size="15.7" fill="#FEFFFE" transform="matrix(1.00, 0.00, -0.00, -1.00, 86.3, 10.6)">v</text><text xml:space="preserve" font-family="Chalkduster,Chalkduster" font-size="15.7" fill="#FEFFFE" transform="matrix(1.00, 0.00, -0.00, -1.00, 96.1, 10.6)">i</text><text xml:space="preserve" font-family="Chalkduster,Chalkduster" font-size="15.7" fill="#FEFFFE" transform="matrix(1.00, 0.00, -0.00, -1.00, 102.8, 10.6)">d</text><text xml:space="preserve" font-family="Chalkduster,Chalkduster" font-size="15.7" fill="#FEFFFE" transform="matrix(1.00, 0.00, -0.00, -1.00, 115.1, 10.6)">a</text><text xml:space="preserve" font-family="Chalkduster,Chalkduster" font-size="15.7" fill="#FEFFFE" transform="matrix(1.00, 0.00, -0.00, -1.00, 125.4, 10.6)">d</text><text xml:space="preserve" font-family="Chalkduster,Chalkduster" font-size="15.7" fill="#FEFFFE" transform="matrix(1.00, 0.00, -0.00, -1.00, 137.6, 10.6)">.</text></g></svg>