<?xml version="1.0" encoding="UTF-8" standalone="no"?><svg xmlns="http://www.w3.org/2000/svg" xmlns:xlink="http://www.w3.org/1999/xlink" clip-rule="evenodd" stroke-miterlimit="10" viewBox="0 0 677 84"><desc>SVG generated by Keynote</desc><defs></defs><g transform="matrix(1.00, 0.00, -0.00, -1.00, 0.0, 84.0)"><text xml:space="preserve" font-family="Chalkduster,Chalkduster" font-size="72.0" fill="#FEFFFE" transform="matrix(1.00, 0.00, -0.00, -1.00, -2.1, 15.3)">¿</text><text xml:space="preserve" font-family="Chalkduster,Chalkduster" font-size="72.0" fill="#FEFFFE" transform="matrix(1.00, 0.00, -0.00, -1.00, 41.3, 15.3)">Q</text><text xml:space="preserve" font-family="Chalkduster,Chalkduster" font-size="72.0" fill="#FEFFFE" transform="matrix(1.00, 0.00, -0.00, -1.00, 97.0, 15.3)">u</text><text xml:space="preserve" font-family="Chalkduster,Chalkduster" font-size="72.0" fill="#FEFFFE" transform="matrix(1.00, 0.00, -0.00, -1.00, 146.5, 15.3)">é</text><text xml:space="preserve" font-family="Chalkduster,Chalkduster" font-size="72.0" fill="#FEFFFE" transform="matrix(1.00, 0.00, -0.00, -1.00, 194.5, 15.3)"> </text><text xml:space="preserve" font-family="Chalkduster,Chalkduster" font-size="72.0" fill="#FEFFFE" transform="matrix(1.00, 0.00, -0.00, -1.00, 230.3, 15.3)">e</text><text xml:space="preserve" font-family="Chalkduster,Chalkduster" font-size="72.0" fill="#FEFFFE" transform="matrix(1.00, 0.00, -0.00, -1.00, 276.6, 15.3)">s</text><text xml:space="preserve" font-family="Chalkduster,Chalkduster" font-size="72.0" fill="#FEFFFE" transform="matrix(1.00, 0.00, -0.00, -1.00, 313.0, 15.3)"> </text><text xml:space="preserve" font-family="Chalkduster,Chalkduster" font-size="72.0" fill="#FEFFFE" transform="matrix(1.00, 0.00, -0.00, -1.00, 348.8, 15.3)">u</text><text xml:space="preserve" font-family="Chalkduster,Chalkduster" font-size="72.0" fill="#FEFFFE" transform="matrix(1.00, 0.00, -0.00, -1.00, 399.3, 15.3)">n</text><text xml:space="preserve" font-family="Chalkduster,Chalkduster" font-size="72.0" fill="#FEFFFE" transform="matrix(1.00, 0.00, -0.00, -1.00, 452.1, 15.3)"> </text><text xml:space="preserve" font-family="Chalkduster,Chalkduster" font-size="72.0" fill="#FEFFFE" transform="matrix(1.00, 0.00, -0.00, -1.00, 487.9, 15.3)">C</text><text xml:space="preserve" font-family="Chalkduster,Chalkduster" font-size="72.0" fill="#FEFFFE" transform="matrix(1.00, 0.00, -0.00, -1.00, 546.3, 15.3)">M</text><text xml:space="preserve" font-family="Chalkduster,Chalkduster" font-size="72.0" fill="#FEFFFE" transform="matrix(1.00, 0.00, -0.00, -1.00, 606.9, 15.3)">S</text><text xml:space="preserve" font-family="Chalkduster,Chalkduster" font-size="72.0" fill="#FEFFFE" transform="matrix(1.00, 0.00, -0.00, -1.00, 642.7, 15.3)">?</text></g></svg>