<?xml version="1.0" encoding="UTF-8" standalone="no"?><svg xmlns="http://www.w3.org/2000/svg" xmlns:xlink="http://www.w3.org/1999/xlink" clip-rule="evenodd" stroke-miterlimit="10" viewBox="0 0 267 43"><desc>SVG generated by Keynote</desc><defs></defs><g transform="matrix(1.00, 0.00, -0.00, -1.00, 0.0, 43.0)"><image xlink:href="../../861502F5-C051-4CA8-9910-E538B1C8F451/assets/4DEEB86E8592901A27491E22B30EA716.png" width="78.00" height="72.00" transform="matrix(0.20, 0.00, -0.00, -0.20, 1.0, 29.8)"></image><text xml:space="preserve" font-family="Chalkduster,Chalkduster" font-size="25.9" fill="#FEFFFE" transform="matrix(1.00, 0.00, -0.00, -1.00, 31.8, 16.7)">¿</text><text xml:space="preserve" font-family="Chalkduster,Chalkduster" font-size="25.9" fill="#FEFFFE" transform="matrix(1.00, 0.00, -0.00, -1.00, 47.4, 16.7)">Q</text><text xml:space="preserve" font-family="Chalkduster,Chalkduster" font-size="25.9" fill="#FEFFFE" transform="matrix(1.00, 0.00, -0.00, -1.00, 67.5, 16.7)">u</text><text xml:space="preserve" font-family="Chalkduster,Chalkduster" font-size="25.9" fill="#FEFFFE" transform="matrix(1.00, 0.00, -0.00, -1.00, 85.3, 16.7)">é</text><text xml:space="preserve" font-family="Chalkduster,Chalkduster" font-size="25.9" fill="#FEFFFE" transform="matrix(1.00, 0.00, -0.00, -1.00, 102.6, 16.7)"> </text><text xml:space="preserve" font-family="Chalkduster,Chalkduster" font-size="25.9" fill="#FEFFFE" transform="matrix(1.00, 0.00, -0.00, -1.00, 115.5, 16.7)">e</text><text xml:space="preserve" font-family="Chalkduster,Chalkduster" font-size="25.9" fill="#FEFFFE" transform="matrix(1.00, 0.00, -0.00, -1.00, 132.1, 16.7)">s</text><text xml:space="preserve" font-family="Chalkduster,Chalkduster" font-size="25.9" fill="#FEFFFE" transform="matrix(1.00, 0.00, -0.00, -1.00, 145.2, 16.7)"> </text><text xml:space="preserve" font-family="Chalkduster,Chalkduster" font-size="25.9" fill="#FEFFFE" transform="matrix(1.00, 0.00, -0.00, -1.00, 158.1, 16.7)">D</text><text xml:space="preserve" font-family="Chalkduster,Chalkduster" font-size="25.9" fill="#FEFFFE" transform="matrix(1.00, 0.00, -0.00, -1.00, 176.2, 16.7)">r</text><text xml:space="preserve" font-family="Chalkduster,Chalkduster" font-size="25.9" fill="#FEFFFE" transform="matrix(1.00, 0.00, -0.00, -1.00, 190.6, 16.7)">u</text><text xml:space="preserve" font-family="Chalkduster,Chalkduster" font-size="25.9" fill="#FEFFFE" transform="matrix(1.00, 0.00, -0.00, -1.00, 208.8, 16.7)">p</text><text xml:space="preserve" font-family="Chalkduster,Chalkduster" font-size="25.9" fill="#FEFFFE" transform="matrix(1.00, 0.00, -0.00, -1.00, 224.8, 16.7)">a</text><text xml:space="preserve" font-family="Chalkduster,Chalkduster" font-size="25.9" fill="#FEFFFE" transform="matrix(1.00, 0.00, -0.00, -1.00, 241.6, 16.7)">l</text><text xml:space="preserve" font-family="Chalkduster,Chalkduster" font-size="25.9" fill="#FEFFFE" transform="matrix(1.00, 0.00, -0.00, -1.00, 253.8, 16.7)">?</text></g></svg>