<?xml version="1.0" encoding="UTF-8" standalone="no"?><svg xmlns="http://www.w3.org/2000/svg" xmlns:xlink="http://www.w3.org/1999/xlink" clip-rule="evenodd" stroke-miterlimit="10" viewBox="0 0 233 30"><desc>SVG generated by Keynote</desc><defs></defs><g transform="matrix(1.00, 0.00, -0.00, -1.00, 0.0, 30.0)"><image xlink:href="../../861502F5-C051-4CA8-9910-E538B1C8F451/assets/4DEEB86E8592901A27491E22B30EA716.png" width="78.00" height="72.00" transform="matrix(0.20, 0.00, -0.00, -0.20, 1.0, 17.2)"></image><text xml:space="preserve" font-family="Chalkduster,Chalkduster" font-size="25.9" fill="#FEFFFE" transform="matrix(1.00, 0.00, -0.00, -1.00, 31.8, 4.1)">D</text><text xml:space="preserve" font-family="Chalkduster,Chalkduster" font-size="25.9" fill="#FEFFFE" transform="matrix(1.00, 0.00, -0.00, -1.00, 49.7, 4.1)">e</text><text xml:space="preserve" font-family="Chalkduster,Chalkduster" font-size="25.9" fill="#FEFFFE" transform="matrix(1.00, 0.00, -0.00, -1.00, 65.7, 4.1)">m</text><text xml:space="preserve" font-family="Chalkduster,Chalkduster" font-size="25.9" fill="#FEFFFE" transform="matrix(1.00, 0.00, -0.00, -1.00, 92.0, 4.1)">o</text><text xml:space="preserve" font-family="Chalkduster,Chalkduster" font-size="25.9" fill="#FEFFFE" transform="matrix(1.00, 0.00, -0.00, -1.00, 110.9, 4.1)">s</text><text xml:space="preserve" font-family="Chalkduster,Chalkduster" font-size="25.9" fill="#FEFFFE" transform="matrix(1.00, 0.00, -0.00, -1.00, 124.7, 4.1)">t</text><text xml:space="preserve" font-family="Chalkduster,Chalkduster" font-size="25.9" fill="#FEFFFE" transform="matrix(1.00, 0.00, -0.00, -1.00, 136.6, 4.1)">r</text><text xml:space="preserve" font-family="Chalkduster,Chalkduster" font-size="25.9" fill="#FEFFFE" transform="matrix(1.00, 0.00, -0.00, -1.00, 150.3, 4.1)">a</text><text xml:space="preserve" font-family="Chalkduster,Chalkduster" font-size="25.9" fill="#FEFFFE" transform="matrix(1.00, 0.00, -0.00, -1.00, 167.3, 4.1)">c</text><text xml:space="preserve" font-family="Chalkduster,Chalkduster" font-size="25.9" fill="#FEFFFE" transform="matrix(1.00, 0.00, -0.00, -1.00, 183.6, 4.1)">i</text><text xml:space="preserve" font-family="Chalkduster,Chalkduster" font-size="25.9" fill="#FEFFFE" transform="matrix(1.00, 0.00, -0.00, -1.00, 193.8, 4.1)">รณ</text><text xml:space="preserve" font-family="Chalkduster,Chalkduster" font-size="25.9" fill="#FEFFFE" transform="matrix(1.00, 0.00, -0.00, -1.00, 213.0, 4.1)">n</text></g></svg>