<?xml version="1.0" encoding="UTF-8" standalone="no"?><svg xmlns="http://www.w3.org/2000/svg" xmlns:xlink="http://www.w3.org/1999/xlink" clip-rule="evenodd" stroke-miterlimit="10" viewBox="0 0 412 41"><desc>SVG generated by Keynote</desc><defs></defs><g transform="matrix(1.00, 0.00, -0.00, -1.00, 0.0, 41.0)"><image xlink:href="../../861502F5-C051-4CA8-9910-E538B1C8F451/assets/4DEEB86E8592901A27491E22B30EA716.png" width="78.00" height="72.00" transform="matrix(0.20, 0.00, -0.00, -0.20, 1.0, 29.1)"></image><text xml:space="preserve" font-family="Chalkduster,Chalkduster" font-size="25.9" fill="#FEFFFE" transform="matrix(1.00, 0.00, -0.00, -1.00, 31.8, 16.0)">R</text><text xml:space="preserve" font-family="Chalkduster,Chalkduster" font-size="25.9" fill="#FEFFFE" transform="matrix(1.00, 0.00, -0.00, -1.00, 51.9, 16.0)">e</text><text xml:space="preserve" font-family="Chalkduster,Chalkduster" font-size="25.9" fill="#FEFFFE" transform="matrix(1.00, 0.00, -0.00, -1.00, 68.0, 16.0)">q</text><text xml:space="preserve" font-family="Chalkduster,Chalkduster" font-size="25.9" fill="#FEFFFE" transform="matrix(1.00, 0.00, -0.00, -1.00, 84.7, 16.0)">u</text><text xml:space="preserve" font-family="Chalkduster,Chalkduster" font-size="25.9" fill="#FEFFFE" transform="matrix(1.00, 0.00, -0.00, -1.00, 102.6, 16.0)">i</text><text xml:space="preserve" font-family="Chalkduster,Chalkduster" font-size="25.9" fill="#FEFFFE" transform="matrix(1.00, 0.00, -0.00, -1.00, 112.8, 16.0)">s</text><text xml:space="preserve" font-family="Chalkduster,Chalkduster" font-size="25.9" fill="#FEFFFE" transform="matrix(1.00, 0.00, -0.00, -1.00, 125.9, 16.0)">i</text><text xml:space="preserve" font-family="Chalkduster,Chalkduster" font-size="25.9" fill="#FEFFFE" transform="matrix(1.00, 0.00, -0.00, -1.00, 136.4, 16.0)">t</text><text xml:space="preserve" font-family="Chalkduster,Chalkduster" font-size="25.9" fill="#FEFFFE" transform="matrix(1.00, 0.00, -0.00, -1.00, 147.1, 16.0)">o</text><text xml:space="preserve" font-family="Chalkduster,Chalkduster" font-size="25.9" fill="#FEFFFE" transform="matrix(1.00, 0.00, -0.00, -1.00, 166.0, 16.0)">s</text><text xml:space="preserve" font-family="Chalkduster,Chalkduster" font-size="25.9" fill="#FEFFFE" transform="matrix(1.00, 0.00, -0.00, -1.00, 179.1, 16.0)"> </text><text xml:space="preserve" font-family="Chalkduster,Chalkduster" font-size="25.9" fill="#FEFFFE" transform="matrix(1.00, 0.00, -0.00, -1.00, 192.0, 16.0)">d</text><text xml:space="preserve" font-family="Chalkduster,Chalkduster" font-size="25.9" fill="#FEFFFE" transform="matrix(1.00, 0.00, -0.00, -1.00, 212.2, 16.0)">e</text><text xml:space="preserve" font-family="Chalkduster,Chalkduster" font-size="25.9" fill="#FEFFFE" transform="matrix(1.00, 0.00, -0.00, -1.00, 228.3, 16.0)"> </text><text xml:space="preserve" font-family="Chalkduster,Chalkduster" font-size="25.9" fill="#FEFFFE" transform="matrix(1.00, 0.00, -0.00, -1.00, 241.2, 16.0)">I</text><text xml:space="preserve" font-family="Chalkduster,Chalkduster" font-size="25.9" fill="#FEFFFE" transform="matrix(1.00, 0.00, -0.00, -1.00, 256.6, 16.0)">n</text><text xml:space="preserve" font-family="Chalkduster,Chalkduster" font-size="25.9" fill="#FEFFFE" transform="matrix(1.00, 0.00, -0.00, -1.00, 275.6, 16.0)">s</text><text xml:space="preserve" font-family="Chalkduster,Chalkduster" font-size="25.9" fill="#FEFFFE" transform="matrix(1.00, 0.00, -0.00, -1.00, 289.5, 16.0)">t</text><text xml:space="preserve" font-family="Chalkduster,Chalkduster" font-size="25.9" fill="#FEFFFE" transform="matrix(1.00, 0.00, -0.00, -1.00, 301.1, 16.0)">a</text><text xml:space="preserve" font-family="Chalkduster,Chalkduster" font-size="25.9" fill="#FEFFFE" transform="matrix(1.00, 0.00, -0.00, -1.00, 317.9, 16.0)">l</text><text xml:space="preserve" font-family="Chalkduster,Chalkduster" font-size="25.9" fill="#FEFFFE" transform="matrix(1.00, 0.00, -0.00, -1.00, 329.5, 16.0)">a</text><text xml:space="preserve" font-family="Chalkduster,Chalkduster" font-size="25.9" fill="#FEFFFE" transform="matrix(1.00, 0.00, -0.00, -1.00, 346.6, 16.0)">c</text><text xml:space="preserve" font-family="Chalkduster,Chalkduster" font-size="25.9" fill="#FEFFFE" transform="matrix(1.00, 0.00, -0.00, -1.00, 362.9, 16.0)">i</text><text xml:space="preserve" font-family="Chalkduster,Chalkduster" font-size="25.9" fill="#FEFFFE" transform="matrix(1.00, 0.00, -0.00, -1.00, 373.1, 16.0)">รณ</text><text xml:space="preserve" font-family="Chalkduster,Chalkduster" font-size="25.9" fill="#FEFFFE" transform="matrix(1.00, 0.00, -0.00, -1.00, 392.3, 16.0)">n</text></g></svg>