<?xml version="1.0" encoding="UTF-8" standalone="no"?><svg xmlns="http://www.w3.org/2000/svg" xmlns:xlink="http://www.w3.org/1999/xlink" clip-rule="evenodd" stroke-miterlimit="10" viewBox="0 0 194 80"><desc>SVG generated by Keynote</desc><defs></defs><g transform="matrix(1.00, 0.00, -0.00, -1.00, 0.0, 80.0)"><image xlink:href="../../861502F5-C051-4CA8-9910-E538B1C8F451/assets/4DEEB86E8592901A27491E22B30EA716.png" width="78.00" height="72.00" transform="matrix(0.24, 0.00, -0.00, -0.24, 0.0, 26.3)"></image><text xml:space="preserve" font-family="Chalkduster,Chalkduster" font-size="32.0" fill="#FEFFFE" transform="matrix(1.00, 0.00, -0.00, -1.00, 38.0, 9.5)">P</text><text xml:space="preserve" font-family="Chalkduster,Chalkduster" font-size="32.0" fill="#FEFFFE" transform="matrix(1.00, 0.00, -0.00, -1.00, 58.6, 9.5)">a</text><text xml:space="preserve" font-family="Chalkduster,Chalkduster" font-size="32.0" fill="#FEFFFE" transform="matrix(1.00, 0.00, -0.00, -1.00, 78.5, 9.5)">t</text><text xml:space="preserve" font-family="Chalkduster,Chalkduster" font-size="32.0" fill="#FEFFFE" transform="matrix(1.00, 0.00, -0.00, -1.00, 93.8, 9.5)">h</text><text xml:space="preserve" font-family="Chalkduster,Chalkduster" font-size="32.0" fill="#FEFFFE" transform="matrix(1.00, 0.00, -0.00, -1.00, 113.5, 9.5)">a</text><text xml:space="preserve" font-family="Chalkduster,Chalkduster" font-size="32.0" fill="#FEFFFE" transform="matrix(1.00, 0.00, -0.00, -1.00, 135.6, 9.5)">u</text><text xml:space="preserve" font-family="Chalkduster,Chalkduster" font-size="32.0" fill="#FEFFFE" transform="matrix(1.00, 0.00, -0.00, -1.00, 157.3, 9.5)">t</text><text xml:space="preserve" font-family="Chalkduster,Chalkduster" font-size="32.0" fill="#FEFFFE" transform="matrix(1.00, 0.00, -0.00, -1.00, 170.5, 9.5)">o</text><g><clipPath id="clip0x600000aa2a60"><path d="M 37.0 3.4 L 193.4 3.4 L 193.4 6.1 L 37.0 6.1 Z M 37.0 3.4 "></path></clipPath><g clip-path="url(#clip0x600000aa2a60)"><path d="M 42.0 367.2 L 197.4 367.2 " fill="none" stroke="#FEFFFE" stroke-width="0.71" transform="matrix(1.00, 0.00, 0.00, -1.00, -4.0, 372.0)"></path></g></g></g></svg>