<?xml version="1.0" encoding="UTF-8" standalone="no"?><svg xmlns="http://www.w3.org/2000/svg" xmlns:xlink="http://www.w3.org/1999/xlink" clip-rule="evenodd" stroke-miterlimit="10" viewBox="0 0 137 48"><desc>SVG generated by Keynote</desc><defs></defs><g transform="matrix(1.00, 0.00, -0.00, -1.00, 0.0, 48.0)"><image xlink:href="../../861502F5-C051-4CA8-9910-E538B1C8F451/assets/4DEEB86E8592901A27491E22B30EA716.png" width="78.00" height="72.00" transform="matrix(0.24, 0.00, -0.00, -0.24, 0.0, 26.3)"></image><text xml:space="preserve" font-family="Chalkduster,Chalkduster" font-size="32.0" fill="#FEFFFE" transform="matrix(1.00, 0.00, -0.00, -1.00, 38.0, 9.5)">V</text><text xml:space="preserve" font-family="Chalkduster,Chalkduster" font-size="32.0" fill="#FEFFFE" transform="matrix(1.00, 0.00, -0.00, -1.00, 61.8, 9.5)">i</text><text xml:space="preserve" font-family="Chalkduster,Chalkduster" font-size="32.0" fill="#FEFFFE" transform="matrix(1.00, 0.00, -0.00, -1.00, 74.4, 9.5)">e</text><text xml:space="preserve" font-family="Chalkduster,Chalkduster" font-size="32.0" fill="#FEFFFE" transform="matrix(1.00, 0.00, -0.00, -1.00, 94.2, 9.5)">w</text><text xml:space="preserve" font-family="Chalkduster,Chalkduster" font-size="32.0" fill="#FEFFFE" transform="matrix(1.00, 0.00, -0.00, -1.00, 120.4, 9.5)">s</text><g><clipPath id="clip0x600000cbafa0"><path d="M 37.0 3.4 L 136.5 3.4 L 136.5 6.1 L 37.0 6.1 Z M 37.0 3.4 "></path></clipPath><g clip-path="url(#clip0x600000cbafa0)"><path d="M 42.0 47.2 L 140.5 47.2 " fill="none" stroke="#FEFFFE" stroke-width="0.71" transform="matrix(1.00, 0.00, 0.00, -1.00, -4.0, 52.0)"></path></g></g></g></svg>