<?xml version="1.0" encoding="UTF-8" standalone="no"?><svg xmlns="http://www.w3.org/2000/svg" xmlns:xlink="http://www.w3.org/1999/xlink" clip-rule="evenodd" stroke-miterlimit="10" viewBox="0 0 408 119"><desc>SVG generated by Keynote</desc><defs></defs><g transform="matrix(1.00, 0.00, -0.00, -1.00, 0.0, 119.0)"><image xlink:href="../../861502F5-C051-4CA8-9910-E538B1C8F451/assets/7083CCEA4E60CFD10D99D1145F80E361.png" width="78.00" height="72.00" transform="matrix(0.12, 0.00, -0.00, -0.12, 0.0, 109.6)"></image><text xml:space="preserve" font-family="Chalkduster,Chalkduster" font-size="16.3" fill="#FEFFFE" transform="matrix(1.00, 0.00, -0.00, -1.00, 19.4, 102.5)">E</text><text xml:space="preserve" font-family="Chalkduster,Chalkduster" font-size="16.3" fill="#FEFFFE" transform="matrix(1.00, 0.00, -0.00, -1.00, 31.4, 102.5)">l</text><text xml:space="preserve" font-family="Chalkduster,Chalkduster" font-size="16.3" fill="#FEFFFE" transform="matrix(1.00, 0.00, -0.00, -1.00, 39.1, 102.5)"> </text><text xml:space="preserve" font-family="Chalkduster,Chalkduster" font-size="16.3" fill="#FEFFFE" transform="matrix(1.00, 0.00, -0.00, -1.00, 50.1, 102.5)">t</text><text xml:space="preserve" font-family="Chalkduster,Chalkduster" font-size="16.3" fill="#FEFFFE" transform="matrix(1.00, 0.00, -0.00, -1.00, 57.6, 102.5)">r</text><text xml:space="preserve" font-family="Chalkduster,Chalkduster" font-size="16.3" fill="#FEFFFE" transform="matrix(1.00, 0.00, -0.00, -1.00, 66.2, 102.5)">a</text><text xml:space="preserve" font-family="Chalkduster,Chalkduster" font-size="16.3" fill="#FEFFFE" transform="matrix(1.00, 0.00, -0.00, -1.00, 77.5, 102.5)">b</text><text xml:space="preserve" font-family="Chalkduster,Chalkduster" font-size="16.3" fill="#FEFFFE" transform="matrix(1.00, 0.00, -0.00, -1.00, 86.6, 102.5)">a</text><text xml:space="preserve" font-family="Chalkduster,Chalkduster" font-size="16.3" fill="#FEFFFE" transform="matrix(1.00, 0.00, -0.00, -1.00, 97.0, 102.5)">j</text><text xml:space="preserve" font-family="Chalkduster,Chalkduster" font-size="16.3" fill="#FEFFFE" transform="matrix(1.00, 0.00, -0.00, -1.00, 104.7, 102.5)">o</text><text xml:space="preserve" font-family="Chalkduster,Chalkduster" font-size="16.3" fill="#FEFFFE" transform="matrix(1.00, 0.00, -0.00, -1.00, 116.4, 102.5)"> </text><text xml:space="preserve" font-family="Chalkduster,Chalkduster" font-size="16.3" fill="#FEFFFE" transform="matrix(1.00, 0.00, -0.00, -1.00, 127.4, 102.5)">e</text><text xml:space="preserve" font-family="Chalkduster,Chalkduster" font-size="16.3" fill="#FEFFFE" transform="matrix(1.00, 0.00, -0.00, -1.00, 137.7, 102.5)">n</text><text xml:space="preserve" font-family="Chalkduster,Chalkduster" font-size="16.3" fill="#FEFFFE" transform="matrix(1.00, 0.00, -0.00, -1.00, 149.7, 102.5)"> </text><text xml:space="preserve" font-family="Chalkduster,Chalkduster" font-size="16.3" fill="#FEFFFE" transform="matrix(1.00, 0.00, -0.00, -1.00, 160.7, 102.5)">l</text><text xml:space="preserve" font-family="Chalkduster,Chalkduster" font-size="16.3" fill="#FEFFFE" transform="matrix(1.00, 0.00, -0.00, -1.00, 168.0, 102.5)">a</text><text xml:space="preserve" font-family="Chalkduster,Chalkduster" font-size="16.3" fill="#FEFFFE" transform="matrix(1.00, 0.00, -0.00, -1.00, 179.5, 102.5)">s</text><text xml:space="preserve" font-family="Chalkduster,Chalkduster" font-size="16.3" fill="#FEFFFE" transform="matrix(1.00, 0.00, -0.00, -1.00, 187.7, 102.5)"> </text><text xml:space="preserve" font-family="Chalkduster,Chalkduster" font-size="16.3" fill="#FEFFFE" transform="matrix(1.00, 0.00, -0.00, -1.00, 198.7, 102.5)">a</text><text xml:space="preserve" font-family="Chalkduster,Chalkduster" font-size="16.3" fill="#FEFFFE" transform="matrix(1.00, 0.00, -0.00, -1.00, 210.0, 102.5)">u</text><text xml:space="preserve" font-family="Chalkduster,Chalkduster" font-size="16.3" fill="#FEFFFE" transform="matrix(1.00, 0.00, -0.00, -1.00, 221.6, 102.5)">l</text><text xml:space="preserve" font-family="Chalkduster,Chalkduster" font-size="16.3" fill="#FEFFFE" transform="matrix(1.00, 0.00, -0.00, -1.00, 228.9, 102.5)">a</text><text xml:space="preserve" font-family="Chalkduster,Chalkduster" font-size="16.3" fill="#FEFFFE" transform="matrix(1.00, 0.00, -0.00, -1.00, 240.4, 102.5)">s</text><text xml:space="preserve" font-family="Chalkduster,Chalkduster" font-size="16.3" fill="#FEFFFE" transform="matrix(1.00, 0.00, -0.00, -1.00, 248.6, 102.5)"> </text><text xml:space="preserve" font-family="Chalkduster,Chalkduster" font-size="16.3" fill="#FEFFFE" transform="matrix(1.00, 0.00, -0.00, -1.00, 259.7, 102.5)">c</text><text xml:space="preserve" font-family="Chalkduster,Chalkduster" font-size="16.3" fill="#FEFFFE" transform="matrix(1.00, 0.00, -0.00, -1.00, 269.4, 102.5)">o</text><text xml:space="preserve" font-family="Chalkduster,Chalkduster" font-size="16.3" fill="#FEFFFE" transform="matrix(1.00, 0.00, -0.00, -1.00, 281.6, 102.5)">n</text><text xml:space="preserve" font-family="Chalkduster,Chalkduster" font-size="16.3" fill="#FEFFFE" transform="matrix(1.00, 0.00, -0.00, -1.00, 293.5, 102.5)"> </text><text xml:space="preserve" font-family="Chalkduster,Chalkduster" font-size="16.3" fill="#FEFFFE" transform="matrix(1.00, 0.00, -0.00, -1.00, 304.5, 102.5)">s</text><text xml:space="preserve" font-family="Chalkduster,Chalkduster" font-size="16.3" fill="#FEFFFE" transform="matrix(1.00, 0.00, -0.00, -1.00, 312.8, 102.5)">e</text><text xml:space="preserve" font-family="Chalkduster,Chalkduster" font-size="16.3" fill="#FEFFFE" transform="matrix(1.00, 0.00, -0.00, -1.00, 322.7, 102.5)">r</text><text xml:space="preserve" font-family="Chalkduster,Chalkduster" font-size="16.3" fill="#FEFFFE" transform="matrix(1.00, 0.00, -0.00, -1.00, 332.4, 102.5)">v</text><text xml:space="preserve" font-family="Chalkduster,Chalkduster" font-size="16.3" fill="#FEFFFE" transform="matrix(1.00, 0.00, -0.00, -1.00, 342.6, 102.5)">i</text><text xml:space="preserve" font-family="Chalkduster,Chalkduster" font-size="16.3" fill="#FEFFFE" transform="matrix(1.00, 0.00, -0.00, -1.00, 349.2, 102.5)">c</text><text xml:space="preserve" font-family="Chalkduster,Chalkduster" font-size="16.3" fill="#FEFFFE" transform="matrix(1.00, 0.00, -0.00, -1.00, 359.4, 102.5)">i</text><text xml:space="preserve" font-family="Chalkduster,Chalkduster" font-size="16.3" fill="#FEFFFE" transform="matrix(1.00, 0.00, -0.00, -1.00, 365.9, 102.5)">o</text><text xml:space="preserve" font-family="Chalkduster,Chalkduster" font-size="16.3" fill="#FEFFFE" transform="matrix(1.00, 0.00, -0.00, -1.00, 377.8, 102.5)">s</text><text xml:space="preserve" font-family="Chalkduster,Chalkduster" font-size="16.3" fill="#FEFFFE" transform="matrix(1.00, 0.00, -0.00, -1.00, 386.0, 102.5)"> </text><text xml:space="preserve" font-family="Chalkduster,Chalkduster" font-size="16.3" fill="#FEFFFE" transform="matrix(1.00, 0.00, -0.00, -1.00, 397.0, 102.5)">y</text><text xml:space="preserve" font-family="Chalkduster,Chalkduster" font-size="16.3" fill="#FEFFFE" transform="matrix(1.00, 0.00, -0.00, -1.00, 407.0, 102.5)"> </text><text xml:space="preserve" font-family="Chalkduster,Chalkduster" font-size="16.3" fill="#FEFFFE" transform="matrix(1.00, 0.00, -0.00, -1.00, 19.4, 77.5)">a</text><text xml:space="preserve" font-family="Chalkduster,Chalkduster" font-size="16.3" fill="#FEFFFE" transform="matrix(1.00, 0.00, -0.00, -1.00, 33.8, 77.5)">p</text><text xml:space="preserve" font-family="Chalkduster,Chalkduster" font-size="16.3" fill="#FEFFFE" transform="matrix(1.00, 0.00, -0.00, -1.00, 47.0, 77.5)">l</text><text xml:space="preserve" font-family="Chalkduster,Chalkduster" font-size="16.3" fill="#FEFFFE" transform="matrix(1.00, 0.00, -0.00, -1.00, 57.9, 77.5)">i</text><text xml:space="preserve" font-family="Chalkduster,Chalkduster" font-size="16.3" fill="#FEFFFE" transform="matrix(1.00, 0.00, -0.00, -1.00, 67.6, 77.5)">c</text><text xml:space="preserve" font-family="Chalkduster,Chalkduster" font-size="16.3" fill="#FEFFFE" transform="matrix(1.00, 0.00, -0.00, -1.00, 80.4, 77.5)">a</text><text xml:space="preserve" font-family="Chalkduster,Chalkduster" font-size="16.3" fill="#FEFFFE" transform="matrix(1.00, 0.00, -0.00, -1.00, 94.3, 77.5)">c</text><text xml:space="preserve" font-family="Chalkduster,Chalkduster" font-size="16.3" fill="#FEFFFE" transform="matrix(1.00, 0.00, -0.00, -1.00, 107.6, 77.5)">i</text><text xml:space="preserve" font-family="Chalkduster,Chalkduster" font-size="16.3" fill="#FEFFFE" transform="matrix(1.00, 0.00, -0.00, -1.00, 117.2, 77.5)">o</text><text xml:space="preserve" font-family="Chalkduster,Chalkduster" font-size="16.3" fill="#FEFFFE" transform="matrix(1.00, 0.00, -0.00, -1.00, 132.5, 77.5)">n</text><text xml:space="preserve" font-family="Chalkduster,Chalkduster" font-size="16.3" fill="#FEFFFE" transform="matrix(1.00, 0.00, -0.00, -1.00, 147.8, 77.5)">e</text><text xml:space="preserve" font-family="Chalkduster,Chalkduster" font-size="16.3" fill="#FEFFFE" transform="matrix(1.00, 0.00, -0.00, -1.00, 161.4, 77.5)">s</text><text xml:space="preserve" font-family="Chalkduster,Chalkduster" font-size="16.3" fill="#FEFFFE" transform="matrix(1.00, 0.00, -0.00, -1.00, 169.6, 77.5)"> </text><text xml:space="preserve" font-family="Chalkduster,Chalkduster" font-size="16.3" fill="#FEFFFE" transform="matrix(1.00, 0.00, -0.00, -1.00, 187.5, 77.5)">d</text><text xml:space="preserve" font-family="Chalkduster,Chalkduster" font-size="16.3" fill="#FEFFFE" transform="matrix(1.00, 0.00, -0.00, -1.00, 203.4, 77.5)">e</text><text xml:space="preserve" font-family="Chalkduster,Chalkduster" font-size="16.3" fill="#FEFFFE" transform="matrix(1.00, 0.00, -0.00, -1.00, 213.5, 77.5)"> </text><text xml:space="preserve" font-family="Chalkduster,Chalkduster" font-size="16.3" fill="#FEFFFE" transform="matrix(1.00, 0.00, -0.00, -1.00, 231.3, 77.5)">r</text><text xml:space="preserve" font-family="Chalkduster,Chalkduster" font-size="16.3" fill="#FEFFFE" transform="matrix(1.00, 0.00, -0.00, -1.00, 242.7, 77.5)">e</text><text xml:space="preserve" font-family="Chalkduster,Chalkduster" font-size="16.3" fill="#FEFFFE" transform="matrix(1.00, 0.00, -0.00, -1.00, 256.4, 77.5)">d</text><text xml:space="preserve" font-family="Chalkduster,Chalkduster" font-size="16.3" fill="#FEFFFE" transform="matrix(1.00, 0.00, -0.00, -1.00, 272.3, 77.5)">e</text><text xml:space="preserve" font-family="Chalkduster,Chalkduster" font-size="16.3" fill="#FEFFFE" transform="matrix(1.00, 0.00, -0.00, -1.00, 285.9, 77.5)">s</text><text xml:space="preserve" font-family="Chalkduster,Chalkduster" font-size="16.3" fill="#FEFFFE" transform="matrix(1.00, 0.00, -0.00, -1.00, 294.1, 77.5)"> </text><text xml:space="preserve" font-family="Chalkduster,Chalkduster" font-size="16.3" fill="#FEFFFE" transform="matrix(1.00, 0.00, -0.00, -1.00, 312.0, 77.5)">s</text><text xml:space="preserve" font-family="Chalkduster,Chalkduster" font-size="16.3" fill="#FEFFFE" transform="matrix(1.00, 0.00, -0.00, -1.00, 323.3, 77.5)">o</text><text xml:space="preserve" font-family="Chalkduster,Chalkduster" font-size="16.3" fill="#FEFFFE" transform="matrix(1.00, 0.00, -0.00, -1.00, 338.5, 77.5)">c</text><text xml:space="preserve" font-family="Chalkduster,Chalkduster" font-size="16.3" fill="#FEFFFE" transform="matrix(1.00, 0.00, -0.00, -1.00, 351.8, 77.5)">i</text><text xml:space="preserve" font-family="Chalkduster,Chalkduster" font-size="16.3" fill="#FEFFFE" transform="matrix(1.00, 0.00, -0.00, -1.00, 361.6, 77.5)">a</text><text xml:space="preserve" font-family="Chalkduster,Chalkduster" font-size="16.3" fill="#FEFFFE" transform="matrix(1.00, 0.00, -0.00, -1.00, 375.3, 77.5)">l</text><text xml:space="preserve" font-family="Chalkduster,Chalkduster" font-size="16.3" fill="#FEFFFE" transform="matrix(1.00, 0.00, -0.00, -1.00, 385.1, 77.5)">e</text><text xml:space="preserve" font-family="Chalkduster,Chalkduster" font-size="16.3" fill="#FEFFFE" transform="matrix(1.00, 0.00, -0.00, -1.00, 398.7, 77.5)">s</text><text xml:space="preserve" font-family="Chalkduster,Chalkduster" font-size="16.3" fill="#FEFFFE" transform="matrix(1.00, 0.00, -0.00, -1.00, 407.0, 77.5)"> </text><text xml:space="preserve" font-family="Chalkduster,Chalkduster" font-size="16.3" fill="#FEFFFE" transform="matrix(1.00, 0.00, -0.00, -1.00, 19.4, 52.5)">e</text><text xml:space="preserve" font-family="Chalkduster,Chalkduster" font-size="16.3" fill="#FEFFFE" transform="matrix(1.00, 0.00, -0.00, -1.00, 30.0, 52.5)">d</text><text xml:space="preserve" font-family="Chalkduster,Chalkduster" font-size="16.3" fill="#FEFFFE" transform="matrix(1.00, 0.00, -0.00, -1.00, 43.1, 52.5)">u</text><text xml:space="preserve" font-family="Chalkduster,Chalkduster" font-size="16.3" fill="#FEFFFE" transform="matrix(1.00, 0.00, -0.00, -1.00, 54.3, 52.5)">c</text><text xml:space="preserve" font-family="Chalkduster,Chalkduster" font-size="16.3" fill="#FEFFFE" transform="matrix(1.00, 0.00, -0.00, -1.00, 63.9, 52.5)">a</text><text xml:space="preserve" font-family="Chalkduster,Chalkduster" font-size="16.3" fill="#FEFFFE" transform="matrix(1.00, 0.00, -0.00, -1.00, 74.1, 52.5)">t</text><text xml:space="preserve" font-family="Chalkduster,Chalkduster" font-size="16.3" fill="#FEFFFE" transform="matrix(1.00, 0.00, -0.00, -1.00, 81.6, 52.5)">i</text><text xml:space="preserve" font-family="Chalkduster,Chalkduster" font-size="16.3" fill="#FEFFFE" transform="matrix(1.00, 0.00, -0.00, -1.00, 88.1, 52.5)">v</text><text xml:space="preserve" font-family="Chalkduster,Chalkduster" font-size="16.3" fill="#FEFFFE" transform="matrix(1.00, 0.00, -0.00, -1.00, 97.3, 52.5)">a</text><text xml:space="preserve" font-family="Chalkduster,Chalkduster" font-size="16.3" fill="#FEFFFE" transform="matrix(1.00, 0.00, -0.00, -1.00, 108.8, 52.5)">s</text><text xml:space="preserve" font-family="Chalkduster,Chalkduster" font-size="16.3" fill="#FEFFFE" transform="matrix(1.00, 0.00, -0.00, -1.00, 117.0, 52.5)"> </text><text xml:space="preserve" font-family="Chalkduster,Chalkduster" font-size="16.3" fill="#FEFFFE" transform="matrix(1.00, 0.00, -0.00, -1.00, 127.5, 52.5)">o</text><text xml:space="preserve" font-family="Chalkduster,Chalkduster" font-size="16.3" fill="#FEFFFE" transform="matrix(1.00, 0.00, -0.00, -1.00, 139.2, 52.5)">f</text><text xml:space="preserve" font-family="Chalkduster,Chalkduster" font-size="16.3" fill="#FEFFFE" transform="matrix(1.00, 0.00, -0.00, -1.00, 148.5, 52.5)">r</text><text xml:space="preserve" font-family="Chalkduster,Chalkduster" font-size="16.3" fill="#FEFFFE" transform="matrix(1.00, 0.00, -0.00, -1.00, 156.8, 52.5)">e</text><text xml:space="preserve" font-family="Chalkduster,Chalkduster" font-size="16.3" fill="#FEFFFE" transform="matrix(1.00, 0.00, -0.00, -1.00, 167.2, 52.5)">c</text><text xml:space="preserve" font-family="Chalkduster,Chalkduster" font-size="16.3" fill="#FEFFFE" transform="matrix(1.00, 0.00, -0.00, -1.00, 177.1, 52.5)">e</text><text xml:space="preserve" font-family="Chalkduster,Chalkduster" font-size="16.3" fill="#FEFFFE" transform="matrix(1.00, 0.00, -0.00, -1.00, 187.2, 52.5)"> </text><text xml:space="preserve" font-family="Chalkduster,Chalkduster" font-size="16.3" fill="#FEFFFE" transform="matrix(1.00, 0.00, -0.00, -1.00, 197.6, 52.5)">u</text><text xml:space="preserve" font-family="Chalkduster,Chalkduster" font-size="16.3" fill="#FEFFFE" transform="matrix(1.00, 0.00, -0.00, -1.00, 209.1, 52.5)">n</text><text xml:space="preserve" font-family="Chalkduster,Chalkduster" font-size="16.3" fill="#FEFFFE" transform="matrix(1.00, 0.00, -0.00, -1.00, 221.0, 52.5)">a</text><text xml:space="preserve" font-family="Chalkduster,Chalkduster" font-size="16.3" fill="#FEFFFE" transform="matrix(1.00, 0.00, -0.00, -1.00, 232.3, 52.5)"> </text><text xml:space="preserve" font-family="Chalkduster,Chalkduster" font-size="16.3" fill="#FEFFFE" transform="matrix(1.00, 0.00, -0.00, -1.00, 242.7, 52.5)">s</text><text xml:space="preserve" font-family="Chalkduster,Chalkduster" font-size="16.3" fill="#FEFFFE" transform="matrix(1.00, 0.00, -0.00, -1.00, 251.0, 52.5)">e</text><text xml:space="preserve" font-family="Chalkduster,Chalkduster" font-size="16.3" fill="#FEFFFE" transform="matrix(1.00, 0.00, -0.00, -1.00, 260.9, 52.5)">r</text><text xml:space="preserve" font-family="Chalkduster,Chalkduster" font-size="16.3" fill="#FEFFFE" transform="matrix(1.00, 0.00, -0.00, -1.00, 269.9, 52.5)">i</text><text xml:space="preserve" font-family="Chalkduster,Chalkduster" font-size="16.3" fill="#FEFFFE" transform="matrix(1.00, 0.00, -0.00, -1.00, 276.4, 52.5)">e</text><text xml:space="preserve" font-family="Chalkduster,Chalkduster" font-size="16.3" fill="#FEFFFE" transform="matrix(1.00, 0.00, -0.00, -1.00, 286.5, 52.5)"> </text><text xml:space="preserve" font-family="Chalkduster,Chalkduster" font-size="16.3" fill="#FEFFFE" transform="matrix(1.00, 0.00, -0.00, -1.00, 296.9, 52.5)">d</text><text xml:space="preserve" font-family="Chalkduster,Chalkduster" font-size="16.3" fill="#FEFFFE" transform="matrix(1.00, 0.00, -0.00, -1.00, 309.7, 52.5)">e</text><text xml:space="preserve" font-family="Chalkduster,Chalkduster" font-size="16.3" fill="#FEFFFE" transform="matrix(1.00, 0.00, -0.00, -1.00, 319.8, 52.5)"> </text><text xml:space="preserve" font-family="Chalkduster,Chalkduster" font-size="16.3" fill="#FEFFFE" transform="matrix(1.00, 0.00, -0.00, -1.00, 330.2, 52.5)">v</text><text xml:space="preserve" font-family="Chalkduster,Chalkduster" font-size="16.3" fill="#FEFFFE" transform="matrix(1.00, 0.00, -0.00, -1.00, 340.3, 52.5)">e</text><text xml:space="preserve" font-family="Chalkduster,Chalkduster" font-size="16.3" fill="#FEFFFE" transform="matrix(1.00, 0.00, -0.00, -1.00, 350.6, 52.5)">n</text><text xml:space="preserve" font-family="Chalkduster,Chalkduster" font-size="16.3" fill="#FEFFFE" transform="matrix(1.00, 0.00, -0.00, -1.00, 361.9, 52.5)">t</text><text xml:space="preserve" font-family="Chalkduster,Chalkduster" font-size="16.3" fill="#FEFFFE" transform="matrix(1.00, 0.00, -0.00, -1.00, 369.2, 52.5)">a</text><text xml:space="preserve" font-family="Chalkduster,Chalkduster" font-size="16.3" fill="#FEFFFE" transform="matrix(1.00, 0.00, -0.00, -1.00, 379.7, 52.5)">j</text><text xml:space="preserve" font-family="Chalkduster,Chalkduster" font-size="16.3" fill="#FEFFFE" transform="matrix(1.00, 0.00, -0.00, -1.00, 387.3, 52.5)">a</text><text xml:space="preserve" font-family="Chalkduster,Chalkduster" font-size="16.3" fill="#FEFFFE" transform="matrix(1.00, 0.00, -0.00, -1.00, 398.8, 52.5)">s</text><text xml:space="preserve" font-family="Chalkduster,Chalkduster" font-size="16.3" fill="#FEFFFE" transform="matrix(1.00, 0.00, -0.00, -1.00, 407.0, 52.5)"> </text><text xml:space="preserve" font-family="Chalkduster,Chalkduster" font-size="16.3" fill="#FEFFFE" transform="matrix(1.00, 0.00, -0.00, -1.00, 19.4, 27.5)">m</text><text xml:space="preserve" font-family="Chalkduster,Chalkduster" font-size="16.3" fill="#FEFFFE" transform="matrix(1.00, 0.00, -0.00, -1.00, 35.9, 27.5)">u</text><text xml:space="preserve" font-family="Chalkduster,Chalkduster" font-size="16.3" fill="#FEFFFE" transform="matrix(1.00, 0.00, -0.00, -1.00, 47.1, 27.5)">y</text><text xml:space="preserve" font-family="Chalkduster,Chalkduster" font-size="16.3" fill="#FEFFFE" transform="matrix(1.00, 0.00, -0.00, -1.00, 57.1, 27.5)"> </text><text xml:space="preserve" font-family="Chalkduster,Chalkduster" font-size="16.3" fill="#FEFFFE" transform="matrix(1.00, 0.00, -0.00, -1.00, 70.9, 27.5)">n</text><text xml:space="preserve" font-family="Chalkduster,Chalkduster" font-size="16.3" fill="#FEFFFE" transform="matrix(1.00, 0.00, -0.00, -1.00, 82.6, 27.5)">o</text><text xml:space="preserve" font-family="Chalkduster,Chalkduster" font-size="16.3" fill="#FEFFFE" transform="matrix(1.00, 0.00, -0.00, -1.00, 93.7, 27.5)">t</text><text xml:space="preserve" font-family="Chalkduster,Chalkduster" font-size="16.3" fill="#FEFFFE" transform="matrix(1.00, 0.00, -0.00, -1.00, 101.0, 27.5)">a</text><text xml:space="preserve" font-family="Chalkduster,Chalkduster" font-size="16.3" fill="#FEFFFE" transform="matrix(1.00, 0.00, -0.00, -1.00, 112.2, 27.5)">b</text><text xml:space="preserve" font-family="Chalkduster,Chalkduster" font-size="16.3" fill="#FEFFFE" transform="matrix(1.00, 0.00, -0.00, -1.00, 122.1, 27.5)">l</text><text xml:space="preserve" font-family="Chalkduster,Chalkduster" font-size="16.3" fill="#FEFFFE" transform="matrix(1.00, 0.00, -0.00, -1.00, 128.8, 27.5)">e</text><text xml:space="preserve" font-family="Chalkduster,Chalkduster" font-size="16.3" fill="#FEFFFE" transform="matrix(1.00, 0.00, -0.00, -1.00, 139.3, 27.5)">s</text><text xml:space="preserve" font-family="Chalkduster,Chalkduster" font-size="16.3" fill="#FEFFFE" transform="matrix(1.00, 0.00, -0.00, -1.00, 147.6, 27.5)"> </text><text xml:space="preserve" font-family="Chalkduster,Chalkduster" font-size="16.3" fill="#FEFFFE" transform="matrix(1.00, 0.00, -0.00, -1.00, 161.4, 27.5)">d</text><text xml:space="preserve" font-family="Chalkduster,Chalkduster" font-size="16.3" fill="#FEFFFE" transform="matrix(1.00, 0.00, -0.00, -1.00, 174.2, 27.5)">e</text><text xml:space="preserve" font-family="Chalkduster,Chalkduster" font-size="16.3" fill="#FEFFFE" transform="matrix(1.00, 0.00, -0.00, -1.00, 184.7, 27.5)">s</text><text xml:space="preserve" font-family="Chalkduster,Chalkduster" font-size="16.3" fill="#FEFFFE" transform="matrix(1.00, 0.00, -0.00, -1.00, 192.9, 27.5)">d</text><text xml:space="preserve" font-family="Chalkduster,Chalkduster" font-size="16.3" fill="#FEFFFE" transform="matrix(1.00, 0.00, -0.00, -1.00, 205.6, 27.5)">e</text><text xml:space="preserve" font-family="Chalkduster,Chalkduster" font-size="16.3" fill="#FEFFFE" transform="matrix(1.00, 0.00, -0.00, -1.00, 215.8, 27.5)"> </text><text xml:space="preserve" font-family="Chalkduster,Chalkduster" font-size="16.3" fill="#FEFFFE" transform="matrix(1.00, 0.00, -0.00, -1.00, 229.6, 27.5)">e</text><text xml:space="preserve" font-family="Chalkduster,Chalkduster" font-size="16.3" fill="#FEFFFE" transform="matrix(1.00, 0.00, -0.00, -1.00, 239.7, 27.5)">l</text><text xml:space="preserve" font-family="Chalkduster,Chalkduster" font-size="16.3" fill="#FEFFFE" transform="matrix(1.00, 0.00, -0.00, -1.00, 247.4, 27.5)"> </text><text xml:space="preserve" font-family="Chalkduster,Chalkduster" font-size="16.3" fill="#FEFFFE" transform="matrix(1.00, 0.00, -0.00, -1.00, 261.2, 27.5)">p</text><text xml:space="preserve" font-family="Chalkduster,Chalkduster" font-size="16.3" fill="#FEFFFE" transform="matrix(1.00, 0.00, -0.00, -1.00, 271.3, 27.5)">u</text><text xml:space="preserve" font-family="Chalkduster,Chalkduster" font-size="16.3" fill="#FEFFFE" transform="matrix(1.00, 0.00, -0.00, -1.00, 282.8, 27.5)">n</text><text xml:space="preserve" font-family="Chalkduster,Chalkduster" font-size="16.3" fill="#FEFFFE" transform="matrix(1.00, 0.00, -0.00, -1.00, 294.1, 27.5)">t</text><text xml:space="preserve" font-family="Chalkduster,Chalkduster" font-size="16.3" fill="#FEFFFE" transform="matrix(1.00, 0.00, -0.00, -1.00, 300.9, 27.5)">o</text><text xml:space="preserve" font-family="Chalkduster,Chalkduster" font-size="16.3" fill="#FEFFFE" transform="matrix(1.00, 0.00, -0.00, -1.00, 312.6, 27.5)"> </text><text xml:space="preserve" font-family="Chalkduster,Chalkduster" font-size="16.3" fill="#FEFFFE" transform="matrix(1.00, 0.00, -0.00, -1.00, 326.4, 27.5)">d</text><text xml:space="preserve" font-family="Chalkduster,Chalkduster" font-size="16.3" fill="#FEFFFE" transform="matrix(1.00, 0.00, -0.00, -1.00, 339.2, 27.5)">e</text><text xml:space="preserve" font-family="Chalkduster,Chalkduster" font-size="16.3" fill="#FEFFFE" transform="matrix(1.00, 0.00, -0.00, -1.00, 349.3, 27.5)"> </text><text xml:space="preserve" font-family="Chalkduster,Chalkduster" font-size="16.3" fill="#FEFFFE" transform="matrix(1.00, 0.00, -0.00, -1.00, 363.1, 27.5)">v</text><text xml:space="preserve" font-family="Chalkduster,Chalkduster" font-size="16.3" fill="#FEFFFE" transform="matrix(1.00, 0.00, -0.00, -1.00, 373.3, 27.5)">i</text><text xml:space="preserve" font-family="Chalkduster,Chalkduster" font-size="16.3" fill="#FEFFFE" transform="matrix(1.00, 0.00, -0.00, -1.00, 379.7, 27.5)">s</text><text xml:space="preserve" font-family="Chalkduster,Chalkduster" font-size="16.3" fill="#FEFFFE" transform="matrix(1.00, 0.00, -0.00, -1.00, 388.5, 27.5)">t</text><text xml:space="preserve" font-family="Chalkduster,Chalkduster" font-size="16.3" fill="#FEFFFE" transform="matrix(1.00, 0.00, -0.00, -1.00, 395.8, 27.5)">a</text><text xml:space="preserve" font-family="Chalkduster,Chalkduster" font-size="16.3" fill="#FEFFFE" transform="matrix(1.00, 0.00, -0.00, -1.00, 407.0, 27.5)"> </text><text xml:space="preserve" font-family="Chalkduster,Chalkduster" font-size="16.3" fill="#FEFFFE" transform="matrix(1.00, 0.00, -0.00, -1.00, 19.4, 2.5)">e</text><text xml:space="preserve" font-family="Chalkduster,Chalkduster" font-size="16.3" fill="#FEFFFE" transform="matrix(1.00, 0.00, -0.00, -1.00, 30.0, 2.5)">d</text><text xml:space="preserve" font-family="Chalkduster,Chalkduster" font-size="16.3" fill="#FEFFFE" transform="matrix(1.00, 0.00, -0.00, -1.00, 43.1, 2.5)">u</text><text xml:space="preserve" font-family="Chalkduster,Chalkduster" font-size="16.3" fill="#FEFFFE" transform="matrix(1.00, 0.00, -0.00, -1.00, 54.3, 2.5)">c</text><text xml:space="preserve" font-family="Chalkduster,Chalkduster" font-size="16.3" fill="#FEFFFE" transform="matrix(1.00, 0.00, -0.00, -1.00, 63.9, 2.5)">a</text><text xml:space="preserve" font-family="Chalkduster,Chalkduster" font-size="16.3" fill="#FEFFFE" transform="matrix(1.00, 0.00, -0.00, -1.00, 74.0, 2.5)">t</text><text xml:space="preserve" font-family="Chalkduster,Chalkduster" font-size="16.3" fill="#FEFFFE" transform="matrix(1.00, 0.00, -0.00, -1.00, 81.6, 2.5)">i</text><text xml:space="preserve" font-family="Chalkduster,Chalkduster" font-size="16.3" fill="#FEFFFE" transform="matrix(1.00, 0.00, -0.00, -1.00, 88.1, 2.5)">v</text><text xml:space="preserve" font-family="Chalkduster,Chalkduster" font-size="16.3" fill="#FEFFFE" transform="matrix(1.00, 0.00, -0.00, -1.00, 98.2, 2.5)">o</text><text xml:space="preserve" font-family="Chalkduster,Chalkduster" font-size="16.3" fill="#FEFFFE" transform="matrix(1.00, 0.00, -0.00, -1.00, 109.9, 2.5)">:</text></g></svg>