<?xml version="1.0" encoding="UTF-8" standalone="no"?><svg xmlns="http://www.w3.org/2000/svg" xmlns:xlink="http://www.w3.org/1999/xlink" clip-rule="evenodd" stroke-miterlimit="10" viewBox="0 0 409 185"><desc>SVG generated by Keynote</desc><defs></defs><g transform="matrix(1.00, 0.00, -0.00, -1.00, 0.0, 185.0)"><image xlink:href="../../861502F5-C051-4CA8-9910-E538B1C8F451/assets/7083CCEA4E60CFD10D99D1145F80E361.png" width="78.00" height="72.00" transform="matrix(0.13, 0.00, -0.00, -0.13, 0.0, 174.5)"></image><text xml:space="preserve" font-family="Chalkduster,Chalkduster" font-size="17.0" fill="#FEFFFE" transform="matrix(1.00, 0.00, -0.00, -1.00, 20.1, 167.0)">A</text><text xml:space="preserve" font-family="Chalkduster,Chalkduster" font-size="17.0" fill="#FEFFFE" transform="matrix(1.00, 0.00, -0.00, -1.00, 32.7, 167.0)">y</text><text xml:space="preserve" font-family="Chalkduster,Chalkduster" font-size="17.0" fill="#FEFFFE" transform="matrix(1.00, 0.00, -0.00, -1.00, 43.0, 167.0)">u</text><text xml:space="preserve" font-family="Chalkduster,Chalkduster" font-size="17.0" fill="#FEFFFE" transform="matrix(1.00, 0.00, -0.00, -1.00, 55.6, 167.0)">d</text><text xml:space="preserve" font-family="Chalkduster,Chalkduster" font-size="17.0" fill="#FEFFFE" transform="matrix(1.00, 0.00, -0.00, -1.00, 68.8, 167.0)">a</text><text xml:space="preserve" font-family="Chalkduster,Chalkduster" font-size="17.0" fill="#FEFFFE" transform="matrix(1.00, 0.00, -0.00, -1.00, 80.5, 167.0)">n</text><text xml:space="preserve" font-family="Chalkduster,Chalkduster" font-size="17.0" fill="#FEFFFE" transform="matrix(1.00, 0.00, -0.00, -1.00, 93.0, 167.0)"> </text><text xml:space="preserve" font-family="Chalkduster,Chalkduster" font-size="17.0" fill="#FEFFFE" transform="matrix(1.00, 0.00, -0.00, -1.00, 106.6, 167.0)">a</text><text xml:space="preserve" font-family="Chalkduster,Chalkduster" font-size="17.0" fill="#FEFFFE" transform="matrix(1.00, 0.00, -0.00, -1.00, 118.3, 167.0)"> </text><text xml:space="preserve" font-family="Chalkduster,Chalkduster" font-size="17.0" fill="#FEFFFE" transform="matrix(1.00, 0.00, -0.00, -1.00, 132.0, 167.0)">p</text><text xml:space="preserve" font-family="Chalkduster,Chalkduster" font-size="17.0" fill="#FEFFFE" transform="matrix(1.00, 0.00, -0.00, -1.00, 142.4, 167.0)">r</text><text xml:space="preserve" font-family="Chalkduster,Chalkduster" font-size="17.0" fill="#FEFFFE" transform="matrix(1.00, 0.00, -0.00, -1.00, 151.1, 167.0)">o</text><text xml:space="preserve" font-family="Chalkduster,Chalkduster" font-size="17.0" fill="#FEFFFE" transform="matrix(1.00, 0.00, -0.00, -1.00, 163.3, 167.0)">f</text><text xml:space="preserve" font-family="Chalkduster,Chalkduster" font-size="17.0" fill="#FEFFFE" transform="matrix(1.00, 0.00, -0.00, -1.00, 172.5, 167.0)">e</text><text xml:space="preserve" font-family="Chalkduster,Chalkduster" font-size="17.0" fill="#FEFFFE" transform="matrix(1.00, 0.00, -0.00, -1.00, 183.4, 167.0)">s</text><text xml:space="preserve" font-family="Chalkduster,Chalkduster" font-size="17.0" fill="#FEFFFE" transform="matrix(1.00, 0.00, -0.00, -1.00, 192.0, 167.0)">o</text><text xml:space="preserve" font-family="Chalkduster,Chalkduster" font-size="17.0" fill="#FEFFFE" transform="matrix(1.00, 0.00, -0.00, -1.00, 204.3, 167.0)">r</text><text xml:space="preserve" font-family="Chalkduster,Chalkduster" font-size="17.0" fill="#FEFFFE" transform="matrix(1.00, 0.00, -0.00, -1.00, 212.9, 167.0)">e</text><text xml:space="preserve" font-family="Chalkduster,Chalkduster" font-size="17.0" fill="#FEFFFE" transform="matrix(1.00, 0.00, -0.00, -1.00, 223.8, 167.0)">s</text><text xml:space="preserve" font-family="Chalkduster,Chalkduster" font-size="17.0" fill="#FEFFFE" transform="matrix(1.00, 0.00, -0.00, -1.00, 232.4, 167.0)"> </text><text xml:space="preserve" font-family="Chalkduster,Chalkduster" font-size="17.0" fill="#FEFFFE" transform="matrix(1.00, 0.00, -0.00, -1.00, 246.0, 167.0)">y</text><text xml:space="preserve" font-family="Chalkduster,Chalkduster" font-size="17.0" fill="#FEFFFE" transform="matrix(1.00, 0.00, -0.00, -1.00, 256.4, 167.0)"> </text><text xml:space="preserve" font-family="Chalkduster,Chalkduster" font-size="17.0" fill="#FEFFFE" transform="matrix(1.00, 0.00, -0.00, -1.00, 270.0, 167.0)">e</text><text xml:space="preserve" font-family="Chalkduster,Chalkduster" font-size="17.0" fill="#FEFFFE" transform="matrix(1.00, 0.00, -0.00, -1.00, 280.9, 167.0)">s</text><text xml:space="preserve" font-family="Chalkduster,Chalkduster" font-size="17.0" fill="#FEFFFE" transform="matrix(1.00, 0.00, -0.00, -1.00, 290.0, 167.0)">t</text><text xml:space="preserve" font-family="Chalkduster,Chalkduster" font-size="17.0" fill="#FEFFFE" transform="matrix(1.00, 0.00, -0.00, -1.00, 297.8, 167.0)">u</text><text xml:space="preserve" font-family="Chalkduster,Chalkduster" font-size="17.0" fill="#FEFFFE" transform="matrix(1.00, 0.00, -0.00, -1.00, 310.3, 167.0)">d</text><text xml:space="preserve" font-family="Chalkduster,Chalkduster" font-size="17.0" fill="#FEFFFE" transform="matrix(1.00, 0.00, -0.00, -1.00, 324.3, 167.0)">i</text><text xml:space="preserve" font-family="Chalkduster,Chalkduster" font-size="17.0" fill="#FEFFFE" transform="matrix(1.00, 0.00, -0.00, -1.00, 331.1, 167.0)">a</text><text xml:space="preserve" font-family="Chalkduster,Chalkduster" font-size="17.0" fill="#FEFFFE" transform="matrix(1.00, 0.00, -0.00, -1.00, 342.8, 167.0)">n</text><text xml:space="preserve" font-family="Chalkduster,Chalkduster" font-size="17.0" fill="#FEFFFE" transform="matrix(1.00, 0.00, -0.00, -1.00, 354.6, 167.0)">t</text><text xml:space="preserve" font-family="Chalkduster,Chalkduster" font-size="17.0" fill="#FEFFFE" transform="matrix(1.00, 0.00, -0.00, -1.00, 362.2, 167.0)">e</text><text xml:space="preserve" font-family="Chalkduster,Chalkduster" font-size="17.0" fill="#FEFFFE" transform="matrix(1.00, 0.00, -0.00, -1.00, 373.1, 167.0)">s</text><text xml:space="preserve" font-family="Chalkduster,Chalkduster" font-size="17.0" fill="#FEFFFE" transform="matrix(1.00, 0.00, -0.00, -1.00, 381.7, 167.0)"> </text><text xml:space="preserve" font-family="Chalkduster,Chalkduster" font-size="17.0" fill="#FEFFFE" transform="matrix(1.00, 0.00, -0.00, -1.00, 395.3, 167.0)">a</text><text xml:space="preserve" font-family="Chalkduster,Chalkduster" font-size="17.0" fill="#FEFFFE" transform="matrix(1.00, 0.00, -0.00, -1.00, 407.0, 167.0)"> </text><text xml:space="preserve" font-family="Chalkduster,Chalkduster" font-size="17.0" fill="#FEFFFE" transform="matrix(1.00, 0.00, -0.00, -1.00, 20.1, 141.0)">t</text><text xml:space="preserve" font-family="Chalkduster,Chalkduster" font-size="17.0" fill="#FEFFFE" transform="matrix(1.00, 0.00, -0.00, -1.00, 27.1, 141.0)">o</text><text xml:space="preserve" font-family="Chalkduster,Chalkduster" font-size="17.0" fill="#FEFFFE" transform="matrix(1.00, 0.00, -0.00, -1.00, 39.8, 141.0)">m</text><text xml:space="preserve" font-family="Chalkduster,Chalkduster" font-size="17.0" fill="#FEFFFE" transform="matrix(1.00, 0.00, -0.00, -1.00, 57.0, 141.0)">a</text><text xml:space="preserve" font-family="Chalkduster,Chalkduster" font-size="17.0" fill="#FEFFFE" transform="matrix(1.00, 0.00, -0.00, -1.00, 67.8, 141.0)">r</text><text xml:space="preserve" font-family="Chalkduster,Chalkduster" font-size="17.0" fill="#FEFFFE" transform="matrix(1.00, 0.00, -0.00, -1.00, 76.8, 141.0)"> </text><text xml:space="preserve" font-family="Chalkduster,Chalkduster" font-size="17.0" fill="#FEFFFE" transform="matrix(1.00, 0.00, -0.00, -1.00, 86.7, 141.0)">c</text><text xml:space="preserve" font-family="Chalkduster,Chalkduster" font-size="17.0" fill="#FEFFFE" transform="matrix(1.00, 0.00, -0.00, -1.00, 96.8, 141.0)">o</text><text xml:space="preserve" font-family="Chalkduster,Chalkduster" font-size="17.0" fill="#FEFFFE" transform="matrix(1.00, 0.00, -0.00, -1.00, 109.4, 141.0)">n</text><text xml:space="preserve" font-family="Chalkduster,Chalkduster" font-size="17.0" fill="#FEFFFE" transform="matrix(1.00, 0.00, -0.00, -1.00, 121.8, 141.0)">c</text><text xml:space="preserve" font-family="Chalkduster,Chalkduster" font-size="17.0" fill="#FEFFFE" transform="matrix(1.00, 0.00, -0.00, -1.00, 132.5, 141.0)">i</text><text xml:space="preserve" font-family="Chalkduster,Chalkduster" font-size="17.0" fill="#FEFFFE" transform="matrix(1.00, 0.00, -0.00, -1.00, 139.2, 141.0)">e</text><text xml:space="preserve" font-family="Chalkduster,Chalkduster" font-size="17.0" fill="#FEFFFE" transform="matrix(1.00, 0.00, -0.00, -1.00, 149.9, 141.0)">n</text><text xml:space="preserve" font-family="Chalkduster,Chalkduster" font-size="17.0" fill="#FEFFFE" transform="matrix(1.00, 0.00, -0.00, -1.00, 162.3, 141.0)">c</text><text xml:space="preserve" font-family="Chalkduster,Chalkduster" font-size="17.0" fill="#FEFFFE" transform="matrix(1.00, 0.00, -0.00, -1.00, 173.0, 141.0)">i</text><text xml:space="preserve" font-family="Chalkduster,Chalkduster" font-size="17.0" fill="#FEFFFE" transform="matrix(1.00, 0.00, -0.00, -1.00, 179.9, 141.0)">a</text><text xml:space="preserve" font-family="Chalkduster,Chalkduster" font-size="17.0" fill="#FEFFFE" transform="matrix(1.00, 0.00, -0.00, -1.00, 191.5, 141.0)"> </text><text xml:space="preserve" font-family="Chalkduster,Chalkduster" font-size="17.0" fill="#FEFFFE" transform="matrix(1.00, 0.00, -0.00, -1.00, 201.4, 141.0)">s</text><text xml:space="preserve" font-family="Chalkduster,Chalkduster" font-size="17.0" fill="#FEFFFE" transform="matrix(1.00, 0.00, -0.00, -1.00, 210.0, 141.0)">o</text><text xml:space="preserve" font-family="Chalkduster,Chalkduster" font-size="17.0" fill="#FEFFFE" transform="matrix(1.00, 0.00, -0.00, -1.00, 222.2, 141.0)">b</text><text xml:space="preserve" font-family="Chalkduster,Chalkduster" font-size="17.0" fill="#FEFFFE" transform="matrix(1.00, 0.00, -0.00, -1.00, 232.1, 141.0)">r</text><text xml:space="preserve" font-family="Chalkduster,Chalkduster" font-size="17.0" fill="#FEFFFE" transform="matrix(1.00, 0.00, -0.00, -1.00, 240.6, 141.0)">e</text><text xml:space="preserve" font-family="Chalkduster,Chalkduster" font-size="17.0" fill="#FEFFFE" transform="matrix(1.00, 0.00, -0.00, -1.00, 251.2, 141.0)"> </text><text xml:space="preserve" font-family="Chalkduster,Chalkduster" font-size="17.0" fill="#FEFFFE" transform="matrix(1.00, 0.00, -0.00, -1.00, 261.0, 141.0)">l</text><text xml:space="preserve" font-family="Chalkduster,Chalkduster" font-size="17.0" fill="#FEFFFE" transform="matrix(1.00, 0.00, -0.00, -1.00, 268.6, 141.0)">a</text><text xml:space="preserve" font-family="Chalkduster,Chalkduster" font-size="17.0" fill="#FEFFFE" transform="matrix(1.00, 0.00, -0.00, -1.00, 280.3, 141.0)"> </text><text xml:space="preserve" font-family="Chalkduster,Chalkduster" font-size="17.0" fill="#FEFFFE" transform="matrix(1.00, 0.00, -0.00, -1.00, 290.2, 141.0)">i</text><text xml:space="preserve" font-family="Chalkduster,Chalkduster" font-size="17.0" fill="#FEFFFE" transform="matrix(1.00, 0.00, -0.00, -1.00, 296.9, 141.0)">m</text><text xml:space="preserve" font-family="Chalkduster,Chalkduster" font-size="17.0" fill="#FEFFFE" transform="matrix(1.00, 0.00, -0.00, -1.00, 314.1, 141.0)">p</text><text xml:space="preserve" font-family="Chalkduster,Chalkduster" font-size="17.0" fill="#FEFFFE" transform="matrix(1.00, 0.00, -0.00, -1.00, 324.8, 141.0)">o</text><text xml:space="preserve" font-family="Chalkduster,Chalkduster" font-size="17.0" fill="#FEFFFE" transform="matrix(1.00, 0.00, -0.00, -1.00, 337.1, 141.0)">r</text><text xml:space="preserve" font-family="Chalkduster,Chalkduster" font-size="17.0" fill="#FEFFFE" transform="matrix(1.00, 0.00, -0.00, -1.00, 346.1, 141.0)">t</text><text xml:space="preserve" font-family="Chalkduster,Chalkduster" font-size="17.0" fill="#FEFFFE" transform="matrix(1.00, 0.00, -0.00, -1.00, 353.7, 141.0)">a</text><text xml:space="preserve" font-family="Chalkduster,Chalkduster" font-size="17.0" fill="#FEFFFE" transform="matrix(1.00, 0.00, -0.00, -1.00, 365.3, 141.0)">n</text><text xml:space="preserve" font-family="Chalkduster,Chalkduster" font-size="17.0" fill="#FEFFFE" transform="matrix(1.00, 0.00, -0.00, -1.00, 377.8, 141.0)">c</text><text xml:space="preserve" font-family="Chalkduster,Chalkduster" font-size="17.0" fill="#FEFFFE" transform="matrix(1.00, 0.00, -0.00, -1.00, 388.4, 141.0)">i</text><text xml:space="preserve" font-family="Chalkduster,Chalkduster" font-size="17.0" fill="#FEFFFE" transform="matrix(1.00, 0.00, -0.00, -1.00, 395.3, 141.0)">a</text><text xml:space="preserve" font-family="Chalkduster,Chalkduster" font-size="17.0" fill="#FEFFFE" transform="matrix(1.00, 0.00, -0.00, -1.00, 407.0, 141.0)"> </text><text xml:space="preserve" font-family="Chalkduster,Chalkduster" font-size="17.0" fill="#FEFFFE" transform="matrix(1.00, 0.00, -0.00, -1.00, 20.1, 115.0)">d</text><text xml:space="preserve" font-family="Chalkduster,Chalkduster" font-size="17.0" fill="#FEFFFE" transform="matrix(1.00, 0.00, -0.00, -1.00, 33.4, 115.0)">e</text><text xml:space="preserve" font-family="Chalkduster,Chalkduster" font-size="17.0" fill="#FEFFFE" transform="matrix(1.00, 0.00, -0.00, -1.00, 43.9, 115.0)"> </text><text xml:space="preserve" font-family="Chalkduster,Chalkduster" font-size="17.0" fill="#FEFFFE" transform="matrix(1.00, 0.00, -0.00, -1.00, 54.1, 115.0)">l</text><text xml:space="preserve" font-family="Chalkduster,Chalkduster" font-size="17.0" fill="#FEFFFE" transform="matrix(1.00, 0.00, -0.00, -1.00, 61.7, 115.0)">a</text><text xml:space="preserve" font-family="Chalkduster,Chalkduster" font-size="17.0" fill="#FEFFFE" transform="matrix(1.00, 0.00, -0.00, -1.00, 73.3, 115.0)"> </text><text xml:space="preserve" font-family="Chalkduster,Chalkduster" font-size="17.0" fill="#FEFFFE" transform="matrix(1.00, 0.00, -0.00, -1.00, 83.5, 115.0)">i</text><text xml:space="preserve" font-family="Chalkduster,Chalkduster" font-size="17.0" fill="#FEFFFE" transform="matrix(1.00, 0.00, -0.00, -1.00, 90.8, 115.0)">d</text><text xml:space="preserve" font-family="Chalkduster,Chalkduster" font-size="17.0" fill="#FEFFFE" transform="matrix(1.00, 0.00, -0.00, -1.00, 104.1, 115.0)">e</text><text xml:space="preserve" font-family="Chalkduster,Chalkduster" font-size="17.0" fill="#FEFFFE" transform="matrix(1.00, 0.00, -0.00, -1.00, 114.8, 115.0)">n</text><text xml:space="preserve" font-family="Chalkduster,Chalkduster" font-size="17.0" fill="#FEFFFE" transform="matrix(1.00, 0.00, -0.00, -1.00, 126.6, 115.0)">t</text><text xml:space="preserve" font-family="Chalkduster,Chalkduster" font-size="17.0" fill="#FEFFFE" transform="matrix(1.00, 0.00, -0.00, -1.00, 134.4, 115.0)">i</text><text xml:space="preserve" font-family="Chalkduster,Chalkduster" font-size="17.0" fill="#FEFFFE" transform="matrix(1.00, 0.00, -0.00, -1.00, 141.7, 115.0)">d</text><text xml:space="preserve" font-family="Chalkduster,Chalkduster" font-size="17.0" fill="#FEFFFE" transform="matrix(1.00, 0.00, -0.00, -1.00, 154.9, 115.0)">a</text><text xml:space="preserve" font-family="Chalkduster,Chalkduster" font-size="17.0" fill="#FEFFFE" transform="matrix(1.00, 0.00, -0.00, -1.00, 166.1, 115.0)">d</text><text xml:space="preserve" font-family="Chalkduster,Chalkduster" font-size="17.0" fill="#FEFFFE" transform="matrix(1.00, 0.00, -0.00, -1.00, 179.3, 115.0)"> </text><text xml:space="preserve" font-family="Chalkduster,Chalkduster" font-size="17.0" fill="#FEFFFE" transform="matrix(1.00, 0.00, -0.00, -1.00, 189.5, 115.0)">d</text><text xml:space="preserve" font-family="Chalkduster,Chalkduster" font-size="17.0" fill="#FEFFFE" transform="matrix(1.00, 0.00, -0.00, -1.00, 203.4, 115.0)">i</text><text xml:space="preserve" font-family="Chalkduster,Chalkduster" font-size="17.0" fill="#FEFFFE" transform="matrix(1.00, 0.00, -0.00, -1.00, 210.1, 115.0)">g</text><text xml:space="preserve" font-family="Chalkduster,Chalkduster" font-size="17.0" fill="#FEFFFE" transform="matrix(1.00, 0.00, -0.00, -1.00, 222.3, 115.0)">i</text><text xml:space="preserve" font-family="Chalkduster,Chalkduster" font-size="17.0" fill="#FEFFFE" transform="matrix(1.00, 0.00, -0.00, -1.00, 229.2, 115.0)">t</text><text xml:space="preserve" font-family="Chalkduster,Chalkduster" font-size="17.0" fill="#FEFFFE" transform="matrix(1.00, 0.00, -0.00, -1.00, 236.8, 115.0)">a</text><text xml:space="preserve" font-family="Chalkduster,Chalkduster" font-size="17.0" fill="#FEFFFE" transform="matrix(1.00, 0.00, -0.00, -1.00, 247.8, 115.0)">l</text><text xml:space="preserve" font-family="Chalkduster,Chalkduster" font-size="17.0" fill="#FEFFFE" transform="matrix(1.00, 0.00, -0.00, -1.00, 255.7, 115.0)"> </text><text xml:space="preserve" font-family="Chalkduster,Chalkduster" font-size="17.0" fill="#FEFFFE" transform="matrix(1.00, 0.00, -0.00, -1.00, 265.9, 115.0)">y</text><text xml:space="preserve" font-family="Chalkduster,Chalkduster" font-size="17.0" fill="#FEFFFE" transform="matrix(1.00, 0.00, -0.00, -1.00, 276.2, 115.0)"> </text><text xml:space="preserve" font-family="Chalkduster,Chalkduster" font-size="17.0" fill="#FEFFFE" transform="matrix(1.00, 0.00, -0.00, -1.00, 286.4, 115.0)">l</text><text xml:space="preserve" font-family="Chalkduster,Chalkduster" font-size="17.0" fill="#FEFFFE" transform="matrix(1.00, 0.00, -0.00, -1.00, 293.7, 115.0)">o</text><text xml:space="preserve" font-family="Chalkduster,Chalkduster" font-size="17.0" fill="#FEFFFE" transform="matrix(1.00, 0.00, -0.00, -1.00, 306.0, 115.0)">s</text><text xml:space="preserve" font-family="Chalkduster,Chalkduster" font-size="17.0" fill="#FEFFFE" transform="matrix(1.00, 0.00, -0.00, -1.00, 314.6, 115.0)"> </text><text xml:space="preserve" font-family="Chalkduster,Chalkduster" font-size="17.0" fill="#FEFFFE" transform="matrix(1.00, 0.00, -0.00, -1.00, 324.7, 115.0)">p</text><text xml:space="preserve" font-family="Chalkduster,Chalkduster" font-size="17.0" fill="#FEFFFE" transform="matrix(1.00, 0.00, -0.00, -1.00, 335.2, 115.0)">r</text><text xml:space="preserve" font-family="Chalkduster,Chalkduster" font-size="17.0" fill="#FEFFFE" transform="matrix(1.00, 0.00, -0.00, -1.00, 343.9, 115.0)">o</text><text xml:space="preserve" font-family="Chalkduster,Chalkduster" font-size="17.0" fill="#FEFFFE" transform="matrix(1.00, 0.00, -0.00, -1.00, 356.4, 115.0)">c</text><text xml:space="preserve" font-family="Chalkduster,Chalkduster" font-size="17.0" fill="#FEFFFE" transform="matrix(1.00, 0.00, -0.00, -1.00, 366.6, 115.0)">e</text><text xml:space="preserve" font-family="Chalkduster,Chalkduster" font-size="17.0" fill="#FEFFFE" transform="matrix(1.00, 0.00, -0.00, -1.00, 377.5, 115.0)">s</text><text xml:space="preserve" font-family="Chalkduster,Chalkduster" font-size="17.0" fill="#FEFFFE" transform="matrix(1.00, 0.00, -0.00, -1.00, 386.1, 115.0)">o</text><text xml:space="preserve" font-family="Chalkduster,Chalkduster" font-size="17.0" fill="#FEFFFE" transform="matrix(1.00, 0.00, -0.00, -1.00, 398.5, 115.0)">s</text><text xml:space="preserve" font-family="Chalkduster,Chalkduster" font-size="17.0" fill="#FEFFFE" transform="matrix(1.00, 0.00, -0.00, -1.00, 407.0, 115.0)"> </text><text xml:space="preserve" font-family="Chalkduster,Chalkduster" font-size="17.0" fill="#FEFFFE" transform="matrix(1.00, 0.00, -0.00, -1.00, 20.1, 89.0)">s</text><text xml:space="preserve" font-family="Chalkduster,Chalkduster" font-size="17.0" fill="#FEFFFE" transform="matrix(1.00, 0.00, -0.00, -1.00, 28.9, 89.0)">o</text><text xml:space="preserve" font-family="Chalkduster,Chalkduster" font-size="17.0" fill="#FEFFFE" transform="matrix(1.00, 0.00, -0.00, -1.00, 41.5, 89.0)">c</text><text xml:space="preserve" font-family="Chalkduster,Chalkduster" font-size="17.0" fill="#FEFFFE" transform="matrix(1.00, 0.00, -0.00, -1.00, 52.3, 89.0)">i</text><text xml:space="preserve" font-family="Chalkduster,Chalkduster" font-size="17.0" fill="#FEFFFE" transform="matrix(1.00, 0.00, -0.00, -1.00, 59.3, 89.0)">a</text><text xml:space="preserve" font-family="Chalkduster,Chalkduster" font-size="17.0" fill="#FEFFFE" transform="matrix(1.00, 0.00, -0.00, -1.00, 70.4, 89.0)">l</text><text xml:space="preserve" font-family="Chalkduster,Chalkduster" font-size="17.0" fill="#FEFFFE" transform="matrix(1.00, 0.00, -0.00, -1.00, 77.6, 89.0)">e</text><text xml:space="preserve" font-family="Chalkduster,Chalkduster" font-size="17.0" fill="#FEFFFE" transform="matrix(1.00, 0.00, -0.00, -1.00, 88.7, 89.0)">s</text><text xml:space="preserve" font-family="Chalkduster,Chalkduster" font-size="17.0" fill="#FEFFFE" transform="matrix(1.00, 0.00, -0.00, -1.00, 97.2, 89.0)"> </text><text xml:space="preserve" font-family="Chalkduster,Chalkduster" font-size="17.0" fill="#FEFFFE" transform="matrix(1.00, 0.00, -0.00, -1.00, 114.2, 89.0)">d</text><text xml:space="preserve" font-family="Chalkduster,Chalkduster" font-size="17.0" fill="#FEFFFE" transform="matrix(1.00, 0.00, -0.00, -1.00, 127.6, 89.0)">e</text><text xml:space="preserve" font-family="Chalkduster,Chalkduster" font-size="17.0" fill="#FEFFFE" transform="matrix(1.00, 0.00, -0.00, -1.00, 138.1, 89.0)"> </text><text xml:space="preserve" font-family="Chalkduster,Chalkduster" font-size="17.0" fill="#FEFFFE" transform="matrix(1.00, 0.00, -0.00, -1.00, 155.1, 89.0)">p</text><text xml:space="preserve" font-family="Chalkduster,Chalkduster" font-size="17.0" fill="#FEFFFE" transform="matrix(1.00, 0.00, -0.00, -1.00, 165.7, 89.0)">a</text><text xml:space="preserve" font-family="Chalkduster,Chalkduster" font-size="17.0" fill="#FEFFFE" transform="matrix(1.00, 0.00, -0.00, -1.00, 176.7, 89.0)">r</text><text xml:space="preserve" font-family="Chalkduster,Chalkduster" font-size="17.0" fill="#FEFFFE" transform="matrix(1.00, 0.00, -0.00, -1.00, 185.8, 89.0)">t</text><text xml:space="preserve" font-family="Chalkduster,Chalkduster" font-size="17.0" fill="#FEFFFE" transform="matrix(1.00, 0.00, -0.00, -1.00, 193.8, 89.0)">i</text><text xml:space="preserve" font-family="Chalkduster,Chalkduster" font-size="17.0" fill="#FEFFFE" transform="matrix(1.00, 0.00, -0.00, -1.00, 200.8, 89.0)">c</text><text xml:space="preserve" font-family="Chalkduster,Chalkduster" font-size="17.0" fill="#FEFFFE" transform="matrix(1.00, 0.00, -0.00, -1.00, 211.6, 89.0)">i</text><text xml:space="preserve" font-family="Chalkduster,Chalkduster" font-size="17.0" fill="#FEFFFE" transform="matrix(1.00, 0.00, -0.00, -1.00, 218.1, 89.0)">p</text><text xml:space="preserve" font-family="Chalkduster,Chalkduster" font-size="17.0" fill="#FEFFFE" transform="matrix(1.00, 0.00, -0.00, -1.00, 228.7, 89.0)">a</text><text xml:space="preserve" font-family="Chalkduster,Chalkduster" font-size="17.0" fill="#FEFFFE" transform="matrix(1.00, 0.00, -0.00, -1.00, 240.0, 89.0)">c</text><text xml:space="preserve" font-family="Chalkduster,Chalkduster" font-size="17.0" fill="#FEFFFE" transform="matrix(1.00, 0.00, -0.00, -1.00, 250.8, 89.0)">i</text><text xml:space="preserve" font-family="Chalkduster,Chalkduster" font-size="17.0" fill="#FEFFFE" transform="matrix(1.00, 0.00, -0.00, -1.00, 257.6, 89.0)">칩</text><text xml:space="preserve" font-family="Chalkduster,Chalkduster" font-size="17.0" fill="#FEFFFE" transform="matrix(1.00, 0.00, -0.00, -1.00, 270.3, 89.0)">n</text><text xml:space="preserve" font-family="Chalkduster,Chalkduster" font-size="17.0" fill="#FEFFFE" transform="matrix(1.00, 0.00, -0.00, -1.00, 282.4, 89.0)">,</text><text xml:space="preserve" font-family="Chalkduster,Chalkduster" font-size="17.0" fill="#FEFFFE" transform="matrix(1.00, 0.00, -0.00, -1.00, 287.6, 89.0)"> </text><text xml:space="preserve" font-family="Chalkduster,Chalkduster" font-size="17.0" fill="#FEFFFE" transform="matrix(1.00, 0.00, -0.00, -1.00, 304.6, 89.0)">f</text><text xml:space="preserve" font-family="Chalkduster,Chalkduster" font-size="17.0" fill="#FEFFFE" transform="matrix(1.00, 0.00, -0.00, -1.00, 313.3, 89.0)">o</text><text xml:space="preserve" font-family="Chalkduster,Chalkduster" font-size="17.0" fill="#FEFFFE" transform="matrix(1.00, 0.00, -0.00, -1.00, 325.8, 89.0)">r</text><text xml:space="preserve" font-family="Chalkduster,Chalkduster" font-size="17.0" fill="#FEFFFE" transform="matrix(1.00, 0.00, -0.00, -1.00, 335.6, 89.0)">m</text><text xml:space="preserve" font-family="Chalkduster,Chalkduster" font-size="17.0" fill="#FEFFFE" transform="matrix(1.00, 0.00, -0.00, -1.00, 352.9, 89.0)">a</text><text xml:space="preserve" font-family="Chalkduster,Chalkduster" font-size="17.0" fill="#FEFFFE" transform="matrix(1.00, 0.00, -0.00, -1.00, 364.2, 89.0)">c</text><text xml:space="preserve" font-family="Chalkduster,Chalkduster" font-size="17.0" fill="#FEFFFE" transform="matrix(1.00, 0.00, -0.00, -1.00, 375.0, 89.0)">i</text><text xml:space="preserve" font-family="Chalkduster,Chalkduster" font-size="17.0" fill="#FEFFFE" transform="matrix(1.00, 0.00, -0.00, -1.00, 381.9, 89.0)">칩</text><text xml:space="preserve" font-family="Chalkduster,Chalkduster" font-size="17.0" fill="#FEFFFE" transform="matrix(1.00, 0.00, -0.00, -1.00, 394.6, 89.0)">n</text><text xml:space="preserve" font-family="Chalkduster,Chalkduster" font-size="17.0" fill="#FEFFFE" transform="matrix(1.00, 0.00, -0.00, -1.00, 407.0, 89.0)"> </text><text xml:space="preserve" font-family="Chalkduster,Chalkduster" font-size="17.0" fill="#FEFFFE" transform="matrix(1.00, 0.00, -0.00, -1.00, 20.1, 63.0)">d</text><text xml:space="preserve" font-family="Chalkduster,Chalkduster" font-size="17.0" fill="#FEFFFE" transform="matrix(1.00, 0.00, -0.00, -1.00, 33.4, 63.0)">e</text><text xml:space="preserve" font-family="Chalkduster,Chalkduster" font-size="17.0" fill="#FEFFFE" transform="matrix(1.00, 0.00, -0.00, -1.00, 43.9, 63.0)"> </text><text xml:space="preserve" font-family="Chalkduster,Chalkduster" font-size="17.0" fill="#FEFFFE" transform="matrix(1.00, 0.00, -0.00, -1.00, 58.1, 63.0)">l</text><text xml:space="preserve" font-family="Chalkduster,Chalkduster" font-size="17.0" fill="#FEFFFE" transform="matrix(1.00, 0.00, -0.00, -1.00, 65.7, 63.0)">a</text><text xml:space="preserve" font-family="Chalkduster,Chalkduster" font-size="17.0" fill="#FEFFFE" transform="matrix(1.00, 0.00, -0.00, -1.00, 77.4, 63.0)"> </text><text xml:space="preserve" font-family="Chalkduster,Chalkduster" font-size="17.0" fill="#FEFFFE" transform="matrix(1.00, 0.00, -0.00, -1.00, 91.7, 63.0)">o</text><text xml:space="preserve" font-family="Chalkduster,Chalkduster" font-size="17.0" fill="#FEFFFE" transform="matrix(1.00, 0.00, -0.00, -1.00, 104.0, 63.0)">p</text><text xml:space="preserve" font-family="Chalkduster,Chalkduster" font-size="17.0" fill="#FEFFFE" transform="matrix(1.00, 0.00, -0.00, -1.00, 114.9, 63.0)">i</text><text xml:space="preserve" font-family="Chalkduster,Chalkduster" font-size="17.0" fill="#FEFFFE" transform="matrix(1.00, 0.00, -0.00, -1.00, 121.6, 63.0)">n</text><text xml:space="preserve" font-family="Chalkduster,Chalkduster" font-size="17.0" fill="#FEFFFE" transform="matrix(1.00, 0.00, -0.00, -1.00, 134.3, 63.0)">i</text><text xml:space="preserve" font-family="Chalkduster,Chalkduster" font-size="17.0" fill="#FEFFFE" transform="matrix(1.00, 0.00, -0.00, -1.00, 141.0, 63.0)">칩</text><text xml:space="preserve" font-family="Chalkduster,Chalkduster" font-size="17.0" fill="#FEFFFE" transform="matrix(1.00, 0.00, -0.00, -1.00, 153.5, 63.0)">n</text><text xml:space="preserve" font-family="Chalkduster,Chalkduster" font-size="17.0" fill="#FEFFFE" transform="matrix(1.00, 0.00, -0.00, -1.00, 166.0, 63.0)"> </text><text xml:space="preserve" font-family="Chalkduster,Chalkduster" font-size="17.0" fill="#FEFFFE" transform="matrix(1.00, 0.00, -0.00, -1.00, 180.2, 63.0)">y</text><text xml:space="preserve" font-family="Chalkduster,Chalkduster" font-size="17.0" fill="#FEFFFE" transform="matrix(1.00, 0.00, -0.00, -1.00, 190.5, 63.0)"> </text><text xml:space="preserve" font-family="Chalkduster,Chalkduster" font-size="17.0" fill="#FEFFFE" transform="matrix(1.00, 0.00, -0.00, -1.00, 204.8, 63.0)">t</text><text xml:space="preserve" font-family="Chalkduster,Chalkduster" font-size="17.0" fill="#FEFFFE" transform="matrix(1.00, 0.00, -0.00, -1.00, 211.8, 63.0)">o</text><text xml:space="preserve" font-family="Chalkduster,Chalkduster" font-size="17.0" fill="#FEFFFE" transform="matrix(1.00, 0.00, -0.00, -1.00, 224.5, 63.0)">m</text><text xml:space="preserve" font-family="Chalkduster,Chalkduster" font-size="17.0" fill="#FEFFFE" transform="matrix(1.00, 0.00, -0.00, -1.00, 241.6, 63.0)">a</text><text xml:space="preserve" font-family="Chalkduster,Chalkduster" font-size="17.0" fill="#FEFFFE" transform="matrix(1.00, 0.00, -0.00, -1.00, 253.3, 63.0)"> </text><text xml:space="preserve" font-family="Chalkduster,Chalkduster" font-size="17.0" fill="#FEFFFE" transform="matrix(1.00, 0.00, -0.00, -1.00, 267.6, 63.0)">d</text><text xml:space="preserve" font-family="Chalkduster,Chalkduster" font-size="17.0" fill="#FEFFFE" transform="matrix(1.00, 0.00, -0.00, -1.00, 280.8, 63.0)">e</text><text xml:space="preserve" font-family="Chalkduster,Chalkduster" font-size="17.0" fill="#FEFFFE" transform="matrix(1.00, 0.00, -0.00, -1.00, 291.3, 63.0)"> </text><text xml:space="preserve" font-family="Chalkduster,Chalkduster" font-size="17.0" fill="#FEFFFE" transform="matrix(1.00, 0.00, -0.00, -1.00, 305.6, 63.0)">d</text><text xml:space="preserve" font-family="Chalkduster,Chalkduster" font-size="17.0" fill="#FEFFFE" transform="matrix(1.00, 0.00, -0.00, -1.00, 318.8, 63.0)">e</text><text xml:space="preserve" font-family="Chalkduster,Chalkduster" font-size="17.0" fill="#FEFFFE" transform="matrix(1.00, 0.00, -0.00, -1.00, 329.6, 63.0)">c</text><text xml:space="preserve" font-family="Chalkduster,Chalkduster" font-size="17.0" fill="#FEFFFE" transform="matrix(1.00, 0.00, -0.00, -1.00, 340.3, 63.0)">i</text><text xml:space="preserve" font-family="Chalkduster,Chalkduster" font-size="17.0" fill="#FEFFFE" transform="matrix(1.00, 0.00, -0.00, -1.00, 347.0, 63.0)">s</text><text xml:space="preserve" font-family="Chalkduster,Chalkduster" font-size="17.0" fill="#FEFFFE" transform="matrix(1.00, 0.00, -0.00, -1.00, 355.5, 63.0)">i</text><text xml:space="preserve" font-family="Chalkduster,Chalkduster" font-size="17.0" fill="#FEFFFE" transform="matrix(1.00, 0.00, -0.00, -1.00, 362.2, 63.0)">o</text><text xml:space="preserve" font-family="Chalkduster,Chalkduster" font-size="17.0" fill="#FEFFFE" transform="matrix(1.00, 0.00, -0.00, -1.00, 374.9, 63.0)">n</text><text xml:space="preserve" font-family="Chalkduster,Chalkduster" font-size="17.0" fill="#FEFFFE" transform="matrix(1.00, 0.00, -0.00, -1.00, 387.6, 63.0)">e</text><text xml:space="preserve" font-family="Chalkduster,Chalkduster" font-size="17.0" fill="#FEFFFE" transform="matrix(1.00, 0.00, -0.00, -1.00, 398.5, 63.0)">s</text><text xml:space="preserve" font-family="Chalkduster,Chalkduster" font-size="17.0" fill="#FEFFFE" transform="matrix(1.00, 0.00, -0.00, -1.00, 407.0, 63.0)"> </text><text xml:space="preserve" font-family="Chalkduster,Chalkduster" font-size="17.0" fill="#FEFFFE" transform="matrix(1.00, 0.00, -0.00, -1.00, 20.1, 37.0)">q</text><text xml:space="preserve" font-family="Chalkduster,Chalkduster" font-size="17.0" fill="#FEFFFE" transform="matrix(1.00, 0.00, -0.00, -1.00, 32.4, 37.0)">u</text><text xml:space="preserve" font-family="Chalkduster,Chalkduster" font-size="17.0" fill="#FEFFFE" transform="matrix(1.00, 0.00, -0.00, -1.00, 45.3, 37.0)">e</text><text xml:space="preserve" font-family="Chalkduster,Chalkduster" font-size="17.0" fill="#FEFFFE" transform="matrix(1.00, 0.00, -0.00, -1.00, 55.9, 37.0)"> </text><text xml:space="preserve" font-family="Chalkduster,Chalkduster" font-size="17.0" fill="#FEFFFE" transform="matrix(1.00, 0.00, -0.00, -1.00, 73.4, 37.0)">c</text><text xml:space="preserve" font-family="Chalkduster,Chalkduster" font-size="17.0" fill="#FEFFFE" transform="matrix(1.00, 0.00, -0.00, -1.00, 84.7, 37.0)">a</text><text xml:space="preserve" font-family="Chalkduster,Chalkduster" font-size="17.0" fill="#FEFFFE" transform="matrix(1.00, 0.00, -0.00, -1.00, 96.8, 37.0)">r</text><text xml:space="preserve" font-family="Chalkduster,Chalkduster" font-size="17.0" fill="#FEFFFE" transform="matrix(1.00, 0.00, -0.00, -1.00, 107.1, 37.0)">a</text><text xml:space="preserve" font-family="Chalkduster,Chalkduster" font-size="17.0" fill="#FEFFFE" transform="matrix(1.00, 0.00, -0.00, -1.00, 119.5, 37.0)">c</text><text xml:space="preserve" font-family="Chalkduster,Chalkduster" font-size="17.0" fill="#FEFFFE" transform="matrix(1.00, 0.00, -0.00, -1.00, 130.9, 37.0)">t</text><text xml:space="preserve" font-family="Chalkduster,Chalkduster" font-size="17.0" fill="#FEFFFE" transform="matrix(1.00, 0.00, -0.00, -1.00, 139.8, 37.0)">e</text><text xml:space="preserve" font-family="Chalkduster,Chalkduster" font-size="17.0" fill="#FEFFFE" transform="matrix(1.00, 0.00, -0.00, -1.00, 151.4, 37.0)">r</text><text xml:space="preserve" font-family="Chalkduster,Chalkduster" font-size="17.0" fill="#FEFFFE" transform="matrix(1.00, 0.00, -0.00, -1.00, 162.1, 37.0)">i</text><text xml:space="preserve" font-family="Chalkduster,Chalkduster" font-size="17.0" fill="#FEFFFE" transform="matrix(1.00, 0.00, -0.00, -1.00, 170.1, 37.0)">z</text><text xml:space="preserve" font-family="Chalkduster,Chalkduster" font-size="17.0" fill="#FEFFFE" transform="matrix(1.00, 0.00, -0.00, -1.00, 182.4, 37.0)">a</text><text xml:space="preserve" font-family="Chalkduster,Chalkduster" font-size="17.0" fill="#FEFFFE" transform="matrix(1.00, 0.00, -0.00, -1.00, 195.4, 37.0)">n</text><text xml:space="preserve" font-family="Chalkduster,Chalkduster" font-size="17.0" fill="#FEFFFE" transform="matrix(1.00, 0.00, -0.00, -1.00, 207.8, 37.0)"> </text><text xml:space="preserve" font-family="Chalkduster,Chalkduster" font-size="17.0" fill="#FEFFFE" transform="matrix(1.00, 0.00, -0.00, -1.00, 225.4, 37.0)">a</text><text xml:space="preserve" font-family="Chalkduster,Chalkduster" font-size="17.0" fill="#FEFFFE" transform="matrix(1.00, 0.00, -0.00, -1.00, 237.1, 37.0)"> </text><text xml:space="preserve" font-family="Chalkduster,Chalkduster" font-size="17.0" fill="#FEFFFE" transform="matrix(1.00, 0.00, -0.00, -1.00, 254.6, 37.0)">u</text><text xml:space="preserve" font-family="Chalkduster,Chalkduster" font-size="17.0" fill="#FEFFFE" transform="matrix(1.00, 0.00, -0.00, -1.00, 267.8, 37.0)">n</text><text xml:space="preserve" font-family="Chalkduster,Chalkduster" font-size="17.0" fill="#FEFFFE" transform="matrix(1.00, 0.00, -0.00, -1.00, 281.6, 37.0)">a</text><text xml:space="preserve" font-family="Chalkduster,Chalkduster" font-size="17.0" fill="#FEFFFE" transform="matrix(1.00, 0.00, -0.00, -1.00, 293.3, 37.0)"> </text><text xml:space="preserve" font-family="Chalkduster,Chalkduster" font-size="17.0" fill="#FEFFFE" transform="matrix(1.00, 0.00, -0.00, -1.00, 310.8, 37.0)">s</text><text xml:space="preserve" font-family="Chalkduster,Chalkduster" font-size="17.0" fill="#FEFFFE" transform="matrix(1.00, 0.00, -0.00, -1.00, 320.7, 37.0)">o</text><text xml:space="preserve" font-family="Chalkduster,Chalkduster" font-size="17.0" fill="#FEFFFE" transform="matrix(1.00, 0.00, -0.00, -1.00, 334.5, 37.0)">c</text><text xml:space="preserve" font-family="Chalkduster,Chalkduster" font-size="17.0" fill="#FEFFFE" transform="matrix(1.00, 0.00, -0.00, -1.00, 346.4, 37.0)">i</text><text xml:space="preserve" font-family="Chalkduster,Chalkduster" font-size="17.0" fill="#FEFFFE" transform="matrix(1.00, 0.00, -0.00, -1.00, 354.4, 37.0)">e</text><text xml:space="preserve" font-family="Chalkduster,Chalkduster" font-size="17.0" fill="#FEFFFE" transform="matrix(1.00, 0.00, -0.00, -1.00, 366.8, 37.0)">d</text><text xml:space="preserve" font-family="Chalkduster,Chalkduster" font-size="17.0" fill="#FEFFFE" transform="matrix(1.00, 0.00, -0.00, -1.00, 381.3, 37.0)">a</text><text xml:space="preserve" font-family="Chalkduster,Chalkduster" font-size="17.0" fill="#FEFFFE" transform="matrix(1.00, 0.00, -0.00, -1.00, 393.7, 37.0)">d</text><text xml:space="preserve" font-family="Chalkduster,Chalkduster" font-size="17.0" fill="#FEFFFE" transform="matrix(1.00, 0.00, -0.00, -1.00, 407.0, 37.0)"> </text><text xml:space="preserve" font-family="Chalkduster,Chalkduster" font-size="17.0" fill="#FEFFFE" transform="matrix(1.00, 0.00, -0.00, -1.00, 20.1, 11.0)">a</text><text xml:space="preserve" font-family="Chalkduster,Chalkduster" font-size="17.0" fill="#FEFFFE" transform="matrix(1.00, 0.00, -0.00, -1.00, 30.6, 11.0)">v</text><text xml:space="preserve" font-family="Chalkduster,Chalkduster" font-size="17.0" fill="#FEFFFE" transform="matrix(1.00, 0.00, -0.00, -1.00, 40.2, 11.0)">a</text><text xml:space="preserve" font-family="Chalkduster,Chalkduster" font-size="17.0" fill="#FEFFFE" transform="matrix(1.00, 0.00, -0.00, -1.00, 51.9, 11.0)">n</text><text xml:space="preserve" font-family="Chalkduster,Chalkduster" font-size="17.0" fill="#FEFFFE" transform="matrix(1.00, 0.00, -0.00, -1.00, 64.3, 11.0)">z</text><text xml:space="preserve" font-family="Chalkduster,Chalkduster" font-size="17.0" fill="#FEFFFE" transform="matrix(1.00, 0.00, -0.00, -1.00, 75.4, 11.0)">a</text><text xml:space="preserve" font-family="Chalkduster,Chalkduster" font-size="17.0" fill="#FEFFFE" transform="matrix(1.00, 0.00, -0.00, -1.00, 86.5, 11.0)">d</text><text xml:space="preserve" font-family="Chalkduster,Chalkduster" font-size="17.0" fill="#FEFFFE" transform="matrix(1.00, 0.00, -0.00, -1.00, 99.8, 11.0)">a</text><text xml:space="preserve" font-family="Chalkduster,Chalkduster" font-size="17.0" fill="#FEFFFE" transform="matrix(1.00, 0.00, -0.00, -1.00, 111.4, 11.0)"> </text><text xml:space="preserve" font-family="Chalkduster,Chalkduster" font-size="17.0" fill="#FEFFFE" transform="matrix(1.00, 0.00, -0.00, -1.00, 119.9, 11.0)">y</text><text xml:space="preserve" font-family="Chalkduster,Chalkduster" font-size="17.0" fill="#FEFFFE" transform="matrix(1.00, 0.00, -0.00, -1.00, 130.2, 11.0)"> </text><text xml:space="preserve" font-family="Chalkduster,Chalkduster" font-size="17.0" fill="#FEFFFE" transform="matrix(1.00, 0.00, -0.00, -1.00, 138.7, 11.0)">d</text><text xml:space="preserve" font-family="Chalkduster,Chalkduster" font-size="17.0" fill="#FEFFFE" transform="matrix(1.00, 0.00, -0.00, -1.00, 151.9, 11.0)">e</text><text xml:space="preserve" font-family="Chalkduster,Chalkduster" font-size="17.0" fill="#FEFFFE" transform="matrix(1.00, 0.00, -0.00, -1.00, 162.4, 11.0)">m</text><text xml:space="preserve" font-family="Chalkduster,Chalkduster" font-size="17.0" fill="#FEFFFE" transform="matrix(1.00, 0.00, -0.00, -1.00, 179.6, 11.0)">o</text><text xml:space="preserve" font-family="Chalkduster,Chalkduster" font-size="17.0" fill="#FEFFFE" transform="matrix(1.00, 0.00, -0.00, -1.00, 192.1, 11.0)">c</text><text xml:space="preserve" font-family="Chalkduster,Chalkduster" font-size="17.0" fill="#FEFFFE" transform="matrix(1.00, 0.00, -0.00, -1.00, 202.4, 11.0)">r</text><text xml:space="preserve" font-family="Chalkduster,Chalkduster" font-size="17.0" fill="#FEFFFE" transform="matrix(1.00, 0.00, -0.00, -1.00, 211.3, 11.0)">치</text><text xml:space="preserve" font-family="Chalkduster,Chalkduster" font-size="17.0" fill="#FEFFFE" transform="matrix(1.00, 0.00, -0.00, -1.00, 222.4, 11.0)">t</text><text xml:space="preserve" font-family="Chalkduster,Chalkduster" font-size="17.0" fill="#FEFFFE" transform="matrix(1.00, 0.00, -0.00, -1.00, 230.3, 11.0)">i</text><text xml:space="preserve" font-family="Chalkduster,Chalkduster" font-size="17.0" fill="#FEFFFE" transform="matrix(1.00, 0.00, -0.00, -1.00, 237.2, 11.0)">c</text><text xml:space="preserve" font-family="Chalkduster,Chalkduster" font-size="17.0" fill="#FEFFFE" transform="matrix(1.00, 0.00, -0.00, -1.00, 247.2, 11.0)">a</text><text xml:space="preserve" font-family="Chalkduster,Chalkduster" font-size="17.0" fill="#FEFFFE" transform="matrix(1.00, 0.00, -0.00, -1.00, 258.9, 11.0)">.</text></g></svg>