<?xml version="1.0" encoding="UTF-8" standalone="no"?><svg xmlns="http://www.w3.org/2000/svg" xmlns:xlink="http://www.w3.org/1999/xlink" clip-rule="evenodd" stroke-miterlimit="10" viewBox="0 0 522 50"><desc>SVG generated by Keynote</desc><defs></defs><g transform="matrix(1.00, 0.00, -0.00, -1.00, 0.0, 50.0)"><text xml:space="preserve" font-family="Chalkduster,Chalkduster" font-size="27.0" fill="#FEFFFE" transform="matrix(1.00, 0.00, -0.00, -1.00, 2.1, 16.3)">h</text><text xml:space="preserve" font-family="Chalkduster,Chalkduster" font-size="27.0" fill="#FEFFFE" transform="matrix(1.00, 0.00, -0.00, -1.00, 17.6, 16.3)">t</text><text xml:space="preserve" font-family="Chalkduster,Chalkduster" font-size="27.0" fill="#FEFFFE" transform="matrix(1.00, 0.00, -0.00, -1.00, 28.8, 16.3)">t</text><text xml:space="preserve" font-family="Chalkduster,Chalkduster" font-size="27.0" fill="#FEFFFE" transform="matrix(1.00, 0.00, -0.00, -1.00, 41.1, 16.3)">p</text><text xml:space="preserve" font-family="Chalkduster,Chalkduster" font-size="27.0" fill="#FEFFFE" transform="matrix(1.00, 0.00, -0.00, -1.00, 57.8, 16.3)">:</text><text xml:space="preserve" font-family="Chalkduster,Chalkduster" font-size="27.0" fill="#FEFFFE" transform="matrix(1.00, 0.00, -0.00, -1.00, 66.7, 16.3)">/</text><text xml:space="preserve" font-family="Chalkduster,Chalkduster" font-size="27.0" fill="#FEFFFE" transform="matrix(1.00, 0.00, -0.00, -1.00, 79.4, 16.3)">/</text><text xml:space="preserve" font-family="Chalkduster,Chalkduster" font-size="27.0" fill="#FEFFFE" transform="matrix(1.00, 0.00, -0.00, -1.00, 94.4, 16.3)">r</text><text xml:space="preserve" font-family="Chalkduster,Chalkduster" font-size="27.0" fill="#FEFFFE" transform="matrix(1.00, 0.00, -0.00, -1.00, 109.3, 16.3)">u</text><text xml:space="preserve" font-family="Chalkduster,Chalkduster" font-size="27.0" fill="#FEFFFE" transform="matrix(1.00, 0.00, -0.00, -1.00, 127.9, 16.3)">b</text><text xml:space="preserve" font-family="Chalkduster,Chalkduster" font-size="27.0" fill="#FEFFFE" transform="matrix(1.00, 0.00, -0.00, -1.00, 143.6, 16.3)">e</text><text xml:space="preserve" font-family="Chalkduster,Chalkduster" font-size="27.0" fill="#FEFFFE" transform="matrix(1.00, 0.00, -0.00, -1.00, 160.7, 16.3)">n</text><text xml:space="preserve" font-family="Chalkduster,Chalkduster" font-size="27.0" fill="#FEFFFE" transform="matrix(1.00, 0.00, -0.00, -1.00, 180.4, 16.3)">b</text><text xml:space="preserve" font-family="Chalkduster,Chalkduster" font-size="27.0" fill="#FEFFFE" transform="matrix(1.00, 0.00, -0.00, -1.00, 196.2, 16.3)">c</text><text xml:space="preserve" font-family="Chalkduster,Chalkduster" font-size="27.0" fill="#FEFFFE" transform="matrix(1.00, 0.00, -0.00, -1.00, 213.1, 16.3)">h</text><text xml:space="preserve" font-family="Chalkduster,Chalkduster" font-size="27.0" fill="#FEFFFE" transform="matrix(1.00, 0.00, -0.00, -1.00, 229.8, 16.3)">.</text><text xml:space="preserve" font-family="Chalkduster,Chalkduster" font-size="27.0" fill="#FEFFFE" transform="matrix(1.00, 0.00, -0.00, -1.00, 239.0, 16.3)">g</text><text xml:space="preserve" font-family="Chalkduster,Chalkduster" font-size="27.0" fill="#FEFFFE" transform="matrix(1.00, 0.00, -0.00, -1.00, 258.3, 16.3)">i</text><text xml:space="preserve" font-family="Chalkduster,Chalkduster" font-size="27.0" fill="#FEFFFE" transform="matrix(1.00, 0.00, -0.00, -1.00, 269.3, 16.3)">t</text><text xml:space="preserve" font-family="Chalkduster,Chalkduster" font-size="27.0" fill="#FEFFFE" transform="matrix(1.00, 0.00, -0.00, -1.00, 282.2, 16.3)">h</text><text xml:space="preserve" font-family="Chalkduster,Chalkduster" font-size="27.0" fill="#FEFFFE" transform="matrix(1.00, 0.00, -0.00, -1.00, 298.9, 16.3)">u</text><text xml:space="preserve" font-family="Chalkduster,Chalkduster" font-size="27.0" fill="#FEFFFE" transform="matrix(1.00, 0.00, -0.00, -1.00, 317.4, 16.3)">b</text><text xml:space="preserve" font-family="Chalkduster,Chalkduster" font-size="27.0" fill="#FEFFFE" transform="matrix(1.00, 0.00, -0.00, -1.00, 331.0, 16.3)">.</text><text xml:space="preserve" font-family="Chalkduster,Chalkduster" font-size="27.0" fill="#FEFFFE" transform="matrix(1.00, 0.00, -0.00, -1.00, 340.1, 16.3)">i</text><text xml:space="preserve" font-family="Chalkduster,Chalkduster" font-size="27.0" fill="#FEFFFE" transform="matrix(1.00, 0.00, -0.00, -1.00, 350.8, 16.3)">o</text><text xml:space="preserve" font-family="Chalkduster,Chalkduster" font-size="27.0" fill="#FEFFFE" transform="matrix(1.00, 0.00, -0.00, -1.00, 370.2, 16.3)">/</text><text xml:space="preserve" font-family="Chalkduster,Chalkduster" font-size="27.0" fill="#FEFFFE" transform="matrix(1.00, 0.00, -0.00, -1.00, 384.4, 16.3)">e</text><text xml:space="preserve" font-family="Chalkduster,Chalkduster" font-size="27.0" fill="#FEFFFE" transform="matrix(1.00, 0.00, -0.00, -1.00, 400.3, 16.3)">x</text><text xml:space="preserve" font-family="Chalkduster,Chalkduster" font-size="27.0" fill="#FEFFFE" transform="matrix(1.00, 0.00, -0.00, -1.00, 417.2, 16.3)">p</text><text xml:space="preserve" font-family="Chalkduster,Chalkduster" font-size="27.0" fill="#FEFFFE" transform="matrix(1.00, 0.00, -0.00, -1.00, 434.1, 16.3)">o</text><text xml:space="preserve" font-family="Chalkduster,Chalkduster" font-size="27.0" fill="#FEFFFE" transform="matrix(1.00, 0.00, -0.00, -1.00, 454.4, 16.3)">-</text><text xml:space="preserve" font-family="Chalkduster,Chalkduster" font-size="27.0" fill="#FEFFFE" transform="matrix(1.00, 0.00, -0.00, -1.00, 470.8, 16.3)">u</text><text xml:space="preserve" font-family="Chalkduster,Chalkduster" font-size="27.0" fill="#FEFFFE" transform="matrix(1.00, 0.00, -0.00, -1.00, 489.1, 16.3)">t</text><text xml:space="preserve" font-family="Chalkduster,Chalkduster" font-size="27.0" fill="#FEFFFE" transform="matrix(1.00, 0.00, -0.00, -1.00, 501.4, 16.3)">n</text><g><clipPath id="clip0x6000014b71c0"><path d="M 1.1 11.1 L 521.2 11.1 L 521.2 13.6 L 1.1 13.6 Z M 1.1 11.1 "></path></clipPath><g clip-path="url(#clip0x6000014b71c0)"><path d="M 19.2 41.0 L 538.2 41.0 " fill="none" stroke="#FEFFFE" stroke-width="0.60" transform="matrix(1.00, 0.00, 0.00, -1.00, -17.1, 53.3)"></path></g></g></g></svg>