<?xml version="1.0" encoding="UTF-8" standalone="no"?><svg xmlns="http://www.w3.org/2000/svg" xmlns:xlink="http://www.w3.org/1999/xlink" clip-rule="evenodd" stroke-miterlimit="10" viewBox="0 0 346 335"><desc>SVG generated by Keynote</desc><defs></defs><g transform="matrix(1.00, 0.00, -0.00, -1.00, 0.0, 335.0)"><g><clipPath id="clip0x608001eb6800"><path d="M 1.0 333.0 L 345.0 333.0 L 345.0 2.0 L 1.0 2.0 Z M 1.1 333.1 "></path></clipPath><g clip-path="url(#clip0x608001eb6800)"><g><clipPath id="clip0x608001eb6980"><path d="M -74.0 1.0 L 345.0 1.0 L 345.0 333.0 L -74.0 333.0 Z M -74.0 1.0 "></path></clipPath><g clip-path="url(#clip0x608001eb6980)"><path d="M -74.0 333.0 L 345.0 333.0 L 345.0 1.0 L -74.0 1.0 Z M -74.0 333.0 " fill="#FEFFFF" fill-opacity="0.00"></path><image xlink:href="FAA66A142CAC02B5FD4DCAA35EDADD2E.png" width="249.00" height="63.00" transform="matrix(1.68, 0.00, -0.00, -1.69, -74.0, 117.3)"></image><image xlink:href="E1ED2CE3DF4169632ED792DFD2563969.png" width="177.00" height="197.00" transform="matrix(1.68, 0.00, -0.00, -1.69, 35.4, 333.0)"></image></g></g></g></g><g><clipPath id="clip0x608001eb6bc0"><path d="M 1.0 333.0 L 345.0 333.0 L 345.0 2.0 L 1.0 2.0 Z M 1.1 333.1 "></path></clipPath><g clip-path="url(#clip0x608001eb6bc0)"><g><clipPath id="clip0x608001eb6ec0"><path d="M 67.3 301.5 L 301.8 301.5 L 301.8 32.9 L 67.3 32.9 Z M 67.3 301.5 "></path></clipPath><g clip-path="url(#clip0x608001eb6ec0)"><g><clipPath id="clip0x608001eb7040"><path d="M 67.3 32.9 L 301.8 32.9 L 301.8 301.5 L 67.3 301.5 Z M 67.3 32.9 "></path></clipPath><g clip-path="url(#clip0x608001eb7040)"><image xlink:href="../../861502F5-C051-4CA8-9910-E538B1C8F451/assets/1990A4F666A8207F90FA64FD60F99E29.png" width="1180.00" height="1350.00" transform="matrix(0.20, 0.00, -0.00, -0.20, 67.3, 301.5)"></image></g></g></g></g></g></g></g></svg>