<?xml version="1.0" encoding="UTF-8" standalone="no"?><svg xmlns="http://www.w3.org/2000/svg" xmlns:xlink="http://www.w3.org/1999/xlink" clip-rule="evenodd" stroke-miterlimit="10" viewBox="0 0 456 57"><desc>SVG generated by Keynote</desc><defs></defs><g transform="matrix(1.00, 0.00, -0.00, -1.00, 0.0, 57.0)"><path d="M 5.7 52.5 C 5.5 52.6 5.3 52.1 4.7 52.0 C 4.2 51.8 3.5 51.8 3.6 52.1 C 3.7 52.4 3.9 52.6 3.6 53.0 C 3.3 53.4 3.0 54.1 3.4 54.4 C 3.8 54.6 5.4 55.3 5.9 55.0 C 6.3 54.6 6.5 54.4 6.9 54.2 C 7.2 54.0 7.0 54.8 7.0 54.8 C 7.0 54.8 7.8 54.9 8.5 54.9 C 9.1 55.0 9.8 55.0 9.9 54.9 C 9.9 54.7 10.2 54.4 10.2 54.4 C 10.2 54.4 10.5 54.8 11.0 54.9 C 11.4 55.0 11.3 54.8 11.2 54.6 C 11.1 54.4 10.6 53.9 10.8 53.9 C 11.0 53.9 11.6 54.7 11.9 54.7 C 12.2 54.8 13.0 54.8 13.0 54.8 C 13.0 54.8 12.9 54.3 12.9 54.2 C 13.0 54.1 13.7 54.1 13.8 54.2 C 13.8 54.4 13.7 54.9 14.1 54.9 C 15.3 55.0 15.1 54.1 15.2 54.1 C 15.3 54.0 15.3 54.7 15.6 54.8 C 15.8 54.9 18.1 54.8 18.2 54.7 C 18.3 54.5 19.0 55.1 19.4 54.7 C 19.7 54.3 19.8 54.1 19.8 54.0 C 19.9 53.9 20.3 53.2 20.5 53.5 C 20.7 53.8 19.9 54.5 20.1 54.7 C 20.4 55.0 21.8 55.0 22.0 54.8 C 22.4 54.5 22.4 53.8 22.6 53.8 C 22.8 53.8 23.7 54.7 23.7 54.6 C 23.8 54.4 23.8 53.7 23.8 53.6 C 23.8 53.5 24.0 52.2 23.9 52.0 C 23.7 51.9 22.8 51.4 23.0 51.8 C 23.1 52.1 23.3 52.6 23.0 52.7 C 22.7 52.9 22.6 52.9 22.5 52.8 C 22.4 52.6 22.6 52.5 22.1 52.2 C 21.6 52.0 21.8 51.7 21.4 51.7 C 20.9 51.8 20.5 51.8 20.5 52.1 C 20.6 52.4 20.1 52.8 19.8 52.8 C 19.5 52.7 20.0 52.1 18.9 51.9 C 17.9 51.6 17.2 51.6 17.0 51.8 C 16.7 52.1 16.6 52.8 16.1 52.5 C 15.6 52.2 15.9 52.0 15.2 52.0 C 14.6 52.0 14.3 52.6 13.9 52.6 C 13.5 52.6 13.3 52.6 13.3 52.6 C 13.3 52.6 13.6 51.8 12.6 51.7 C 11.6 51.7 11.4 51.6 11.7 52.2 C 11.9 52.8 11.1 52.9 11.1 52.5 C 11.1 52.1 10.5 51.8 10.2 51.8 C 9.8 51.7 9.8 52.7 9.6 52.7 C 9.5 52.8 9.1 52.7 9.3 52.4 C 9.4 52.1 9.0 52.0 8.7 51.9 C 8.4 51.7 7.6 51.8 7.6 52.0 C 7.6 52.2 8.0 52.9 7.4 52.5 C 6.8 52.2 6.7 51.7 6.1 51.7 C 5.5 51.7 6.0 52.3 5.7 52.5 C 5.7 52.5 5.7 52.5 5.7 52.5 Z M 24.2 51.7 C 23.2 51.7 24.0 54.4 24.4 54.9 C 24.8 55.5 25.5 55.1 26.2 55.2 C 26.9 55.3 26.6 54.5 27.0 54.2 C 27.4 54.0 27.3 54.5 27.4 54.9 C 27.6 55.3 28.7 55.0 29.3 55.0 C 29.9 55.1 30.5 54.2 31.0 54.1 C 31.5 54.1 30.6 53.6 31.5 53.7 C 32.4 53.8 32.0 54.2 30.9 54.5 C 29.9 54.8 31.4 55.0 32.0 55.1 C 32.5 55.2 33.5 54.8 33.9 54.9 C 34.4 54.9 33.8 54.2 34.4 54.3 C 35.1 54.3 34.8 55.0 35.5 55.1 C 36.2 55.2 36.0 54.5 36.4 54.4 C 36.7 54.2 36.6 54.6 36.9 54.7 C 37.2 54.7 37.7 54.9 38.3 54.8 C 38.9 54.6 38.7 54.4 39.0 54.4 C 39.3 54.3 39.8 54.3 39.8 54.3 C 39.9 54.6 39.9 54.8 40.0 55.0 C 40.0 55.0 41.1 55.1 41.5 55.1 C 41.8 55.2 42.6 54.9 42.3 54.7 C 42.1 54.6 42.9 54.1 43.0 54.2 C 43.2 54.3 43.8 54.7 44.2 54.8 C 44.6 55.0 44.4 53.3 44.3 53.0 C 44.3 52.8 44.5 51.8 44.1 51.7 C 43.8 51.6 43.5 52.0 43.5 51.7 C 43.6 51.5 42.6 51.7 42.3 51.7 C 42.0 51.7 41.7 52.4 41.7 52.4 C 41.7 52.4 41.5 52.9 41.0 52.9 C 40.6 52.9 40.3 51.8 40.3 51.8 C 40.3 51.8 39.8 51.6 39.2 51.7 C 38.6 51.7 38.1 52.6 38.0 52.8 C 37.9 53.0 37.8 52.2 37.4 52.1 C 37.0 52.0 36.4 51.7 36.3 51.8 C 36.1 51.8 35.9 52.4 35.9 52.4 C 35.9 52.4 35.1 52.7 35.0 52.7 C 34.8 52.7 35.0 51.9 35.0 51.9 C 35.0 51.9 33.5 51.7 33.2 51.6 C 32.9 51.6 32.4 51.8 32.1 51.8 C 31.9 51.9 31.7 52.9 31.3 52.8 C 31.0 52.7 31.6 52.1 31.3 52.0 C 30.9 51.9 30.3 51.7 30.1 51.7 C 30.0 51.7 29.7 52.1 29.5 52.1 C 29.2 52.2 28.8 52.9 28.4 52.9 C 27.9 52.9 27.7 52.5 27.5 52.4 C 27.3 52.3 27.2 51.6 26.8 51.6 C 26.5 51.6 26.7 52.0 26.4 52.0 C 26.1 52.0 26.1 52.5 25.8 52.4 C 25.4 52.3 25.6 51.5 25.2 51.6 C 25.0 51.7 25.2 51.6 24.2 51.7 C 24.2 51.7 24.2 51.7 24.2 51.7 Z M 45.0 51.8 C 44.5 51.5 44.1 51.9 44.1 52.3 C 44.2 52.7 44.5 53.6 44.4 53.9 C 44.2 54.2 43.7 54.9 44.6 55.0 C 45.4 55.2 45.6 54.9 45.6 54.7 C 45.6 54.4 45.6 53.4 45.9 53.5 C 46.1 53.6 46.4 53.9 46.4 54.0 C 46.5 54.1 46.9 55.1 47.3 55.0 C 47.7 54.8 48.1 54.6 48.1 54.6 C 48.3 54.5 48.5 54.5 48.7 54.5 C 48.7 54.5 49.4 55.1 49.8 55.0 C 50.3 54.8 50.8 54.8 51.1 54.9 C 51.5 54.9 51.8 54.8 51.8 54.6 C 51.9 54.4 52.2 53.5 52.2 53.5 C 52.2 53.5 52.7 53.3 53.0 53.4 C 53.2 53.6 53.3 54.1 53.3 54.2 C 53.3 54.4 53.4 54.9 53.7 55.0 C 54.1 55.1 55.6 55.5 55.8 55.3 C 56.0 55.0 55.9 54.6 56.1 54.5 C 56.2 54.4 57.2 54.4 57.3 54.6 C 57.5 54.8 57.5 55.4 57.7 55.3 C 58.0 55.3 58.6 55.4 58.6 55.3 C 58.6 55.1 58.7 55.0 58.7 54.7 C 58.7 54.4 59.3 54.2 59.4 54.1 C 59.5 53.9 59.9 53.9 59.9 53.9 C 60.1 54.0 60.3 54.2 60.5 54.3 C 60.5 54.3 60.3 54.8 60.1 54.9 C 59.9 55.0 60.3 55.4 60.5 55.4 C 60.6 55.4 61.7 55.4 61.7 55.4 C 61.7 55.0 61.7 54.6 61.6 54.2 C 61.9 54.1 62.1 54.0 62.4 54.0 C 62.4 54.0 62.5 55.3 63.0 55.3 C 63.5 55.3 64.1 55.3 64.1 55.3 C 64.1 55.3 64.6 54.8 64.7 54.8 C 64.9 54.7 64.8 53.5 64.8 53.5 C 64.7 53.0 64.5 52.6 64.4 52.1 C 64.4 52.1 63.8 51.6 63.4 51.8 C 63.1 52.0 63.5 52.5 63.4 52.8 C 63.4 53.0 62.9 53.2 62.9 53.2 C 62.7 53.0 62.4 52.7 62.1 52.4 C 62.1 52.4 61.9 52.2 61.6 52.0 C 61.4 51.7 60.5 51.6 60.3 51.7 C 60.1 51.8 59.9 52.1 59.7 52.3 C 59.4 52.6 59.5 53.0 59.1 52.7 C 58.7 52.3 58.5 52.0 58.4 52.0 C 58.2 52.0 57.5 52.4 57.5 52.4 C 57.3 52.5 57.1 52.6 56.9 52.8 C 56.9 52.8 56.4 53.0 56.3 52.7 C 56.2 52.4 55.1 52.8 55.1 52.8 C 55.1 52.8 55.1 51.9 54.8 51.8 C 54.5 51.6 54.0 51.5 53.6 51.6 C 53.1 51.7 52.9 52.5 52.9 52.5 C 52.7 52.3 52.5 52.1 52.4 51.9 C 51.9 51.9 51.5 51.8 51.1 51.7 C 51.1 51.7 50.1 51.8 50.1 51.9 C 50.1 52.1 50.3 52.8 50.3 52.9 C 50.2 53.1 49.8 53.4 49.7 53.1 C 49.6 52.9 49.1 52.2 49.1 52.2 C 49.1 52.2 48.6 51.8 48.3 51.8 C 48.0 51.7 47.6 52.0 47.5 52.1 C 47.4 52.2 47.0 52.8 47.0 52.8 C 46.9 52.5 46.7 52.3 46.6 52.1 C 46.6 52.1 45.8 52.4 45.0 51.8 C 45.0 51.8 45.0 51.8 45.0 51.8 Z M 64.8 51.7 C 63.8 51.7 64.8 54.4 65.3 54.9 C 65.8 55.5 66.4 55.1 67.1 55.2 C 67.8 55.3 67.5 54.5 67.8 54.2 C 68.2 54.0 68.1 54.5 68.4 54.9 C 68.6 55.3 69.6 55.0 70.2 55.0 C 70.8 55.1 71.4 54.2 71.9 54.1 C 72.4 54.1 71.4 53.6 72.3 53.7 C 73.2 53.8 72.8 54.2 71.8 54.5 C 70.8 54.8 72.3 55.0 72.9 55.1 C 73.5 55.2 74.4 54.8 74.8 54.9 C 75.3 54.9 74.6 54.2 75.3 54.3 C 76.0 54.3 75.7 55.0 76.4 55.1 C 77.1 55.2 76.9 54.5 77.2 54.4 C 77.5 54.2 77.5 54.6 77.8 54.7 C 78.1 54.7 78.6 54.9 79.2 54.8 C 79.8 54.6 79.6 54.4 79.9 54.4 C 80.2 54.3 80.7 54.3 80.7 54.3 C 80.7 54.6 80.8 54.8 80.9 55.0 C 80.9 55.0 82.0 55.1 82.4 55.1 C 82.7 55.2 83.5 54.9 83.2 54.7 C 83.0 54.6 83.7 54.1 83.9 54.2 C 84.1 54.3 84.7 54.7 85.1 54.8 C 85.5 55.0 85.1 53.3 85.1 53.0 C 85.0 52.8 85.1 51.8 84.7 51.7 C 84.4 51.6 84.2 52.0 84.2 51.7 C 84.2 51.5 83.2 51.7 82.9 51.7 C 82.6 51.7 82.4 52.4 82.4 52.4 C 82.4 52.4 82.2 52.9 81.8 52.9 C 81.3 52.9 81.0 51.8 81.0 51.8 C 81.0 51.8 80.4 51.6 79.8 51.7 C 79.3 51.7 78.8 52.6 78.7 52.8 C 78.6 53.0 78.5 52.2 78.1 52.1 C 77.7 52.0 77.1 51.7 76.9 51.8 C 76.7 51.8 76.5 52.4 76.5 52.4 C 76.5 52.4 75.9 52.7 75.7 52.7 C 75.5 52.7 75.7 51.9 75.7 51.9 C 75.7 51.9 74.1 51.7 73.8 51.6 C 73.5 51.6 73.0 51.8 72.8 51.8 C 72.6 51.9 72.4 52.9 72.0 52.8 C 71.7 52.7 72.3 52.1 71.9 52.0 C 71.6 51.9 70.9 51.7 70.7 51.7 C 70.6 51.7 70.4 52.1 70.1 52.1 C 69.8 52.2 69.6 52.9 69.1 52.9 C 68.7 52.9 68.4 52.5 68.2 52.4 C 68.0 52.3 67.8 51.6 67.4 51.6 C 67.1 51.6 67.4 52.0 67.1 52.0 C 66.7 52.0 66.8 52.5 66.4 52.4 C 66.1 52.3 66.2 51.5 65.8 51.6 C 65.7 51.7 65.8 51.6 64.8 51.7 C 64.8 51.7 64.8 51.7 64.8 51.7 Z M 85.6 51.8 C 85.0 51.5 84.7 51.9 84.8 52.3 C 84.9 52.7 85.3 53.6 85.2 53.9 C 85.0 54.2 84.6 54.9 85.5 55.0 C 86.4 55.2 86.5 54.9 86.5 54.7 C 86.4 54.4 86.4 53.4 86.6 53.5 C 86.9 53.6 87.2 53.9 87.3 54.0 C 87.3 54.1 87.9 55.1 88.2 55.0 C 88.6 54.8 89.0 54.6 89.0 54.6 C 89.2 54.5 89.4 54.5 89.6 54.5 C 89.6 54.5 90.3 55.1 90.7 55.0 C 91.2 54.8 91.7 54.8 92.0 54.9 C 92.4 54.9 92.7 54.8 92.7 54.6 C 92.7 54.4 93.0 53.5 93.0 53.5 C 93.0 53.5 93.5 53.3 93.7 53.4 C 94.0 53.6 94.2 54.1 94.1 54.2 C 94.1 54.4 94.3 54.9 94.6 55.0 C 95.0 55.1 96.6 55.5 96.8 55.3 C 96.9 55.0 96.8 54.6 97.0 54.5 C 97.1 54.4 98.1 54.4 98.2 54.6 C 98.4 54.8 98.4 55.4 98.7 55.3 C 99.0 55.3 99.6 55.4 99.5 55.3 C 99.5 55.1 99.7 55.0 99.6 54.7 C 99.6 54.4 100.1 54.2 100.2 54.1 C 100.3 53.9 100.7 53.9 100.7 53.9 C 101.0 54.0 101.2 54.2 101.4 54.3 C 101.4 54.3 101.2 54.8 101.0 54.9 C 100.9 55.0 101.2 55.4 101.4 55.4 C 101.6 55.4 102.7 55.4 102.7 55.4 C 102.6 55.0 102.5 54.6 102.5 54.2 C 102.7 54.1 103.0 54.0 103.2 54.0 C 103.2 54.0 103.4 55.3 103.9 55.3 C 104.4 55.3 105.1 55.3 105.1 55.3 C 105.1 55.3 105.5 54.8 105.6 54.8 C 105.7 54.7 105.5 53.5 105.5 53.5 C 105.4 53.0 105.2 52.6 105.1 52.1 C 105.1 52.1 104.4 51.6 104.1 51.8 C 103.8 52.0 104.2 52.5 104.2 52.8 C 104.2 53.0 103.7 53.2 103.7 53.2 C 103.4 53.0 103.1 52.7 102.8 52.4 C 102.8 52.4 102.5 52.2 102.3 52.0 C 102.0 51.7 101.2 51.6 100.9 51.7 C 100.7 51.8 100.6 52.1 100.3 52.3 C 100.1 52.6 100.3 53.0 99.8 52.7 C 99.4 52.3 99.2 52.0 99.0 52.0 C 98.8 52.0 98.2 52.4 98.2 52.4 C 98.0 52.5 97.8 52.6 97.6 52.8 C 97.6 52.8 97.1 53.0 97.0 52.7 C 96.9 52.4 95.8 52.8 95.8 52.8 C 95.8 52.8 95.7 51.9 95.4 51.8 C 95.1 51.6 94.6 51.5 94.2 51.6 C 93.8 51.7 93.6 52.5 93.6 52.5 C 93.4 52.3 93.2 52.1 93.0 51.9 C 92.6 51.9 92.1 51.8 91.7 51.7 C 91.7 51.7 90.7 51.8 90.8 51.9 C 90.8 52.1 91.0 52.8 91.0 52.9 C 91.0 53.1 90.5 53.4 90.4 53.1 C 90.3 52.9 89.7 52.2 89.7 52.2 C 89.7 52.2 89.3 51.8 89.0 51.8 C 88.7 51.7 88.3 52.0 88.2 52.1 C 88.1 52.2 87.7 52.8 87.7 52.8 C 87.5 52.5 87.4 52.3 87.2 52.1 C 87.2 52.1 86.5 52.4 85.6 51.8 C 85.6 51.8 85.6 51.8 85.6 51.8 Z M 105.4 51.7 C 104.4 51.7 105.7 54.4 106.2 54.9 C 106.7 55.5 107.3 55.1 108.0 55.2 C 108.8 55.3 108.3 54.5 108.7 54.2 C 109.0 54.0 109.0 54.5 109.3 54.9 C 109.5 55.3 110.5 55.0 111.1 55.0 C 111.8 55.1 112.2 54.2 112.7 54.1 C 113.2 54.1 112.2 53.6 113.1 53.7 C 114.0 53.8 113.7 54.2 112.7 54.5 C 111.7 54.8 113.2 55.0 113.8 55.1 C 114.4 55.2 115.3 54.8 115.7 54.9 C 116.2 54.9 115.5 54.2 116.1 54.3 C 116.8 54.3 116.6 55.0 117.3 55.1 C 118.0 55.2 117.8 54.5 118.1 54.4 C 118.4 54.2 118.4 54.6 118.7 54.7 C 119.0 54.7 119.5 54.9 120.1 54.8 C 120.7 54.6 120.5 54.4 120.7 54.4 C 121.0 54.3 121.5 54.3 121.5 54.3 C 121.6 54.6 121.7 54.8 121.8 55.0 C 121.8 55.0 123.0 55.1 123.3 55.1 C 123.7 55.2 124.4 54.9 124.1 54.7 C 123.9 54.6 124.5 54.1 124.7 54.2 C 124.9 54.3 125.6 54.7 126.0 54.8 C 126.5 55.0 125.9 53.3 125.8 53.0 C 125.7 52.8 125.7 51.8 125.4 51.7 C 125.0 51.6 124.8 52.0 124.8 51.7 C 124.8 51.5 123.8 51.7 123.5 51.7 C 123.3 51.7 123.1 52.4 123.1 52.4 C 123.1 52.4 123.0 52.9 122.5 52.9 C 122.0 52.9 121.6 51.8 121.6 51.8 C 121.6 51.8 121.0 51.6 120.4 51.7 C 119.9 51.7 119.5 52.6 119.4 52.8 C 119.4 53.0 119.2 52.2 118.7 52.1 C 118.3 52.0 117.7 51.7 117.5 51.8 C 117.4 51.8 117.2 52.4 117.2 52.4 C 117.2 52.4 116.6 52.7 116.4 52.7 C 116.2 52.7 116.3 51.9 116.3 51.9 C 116.3 51.9 114.7 51.7 114.4 51.6 C 114.1 51.6 113.6 51.8 113.4 51.8 C 113.2 51.9 113.1 52.9 112.7 52.8 C 112.4 52.7 112.9 52.1 112.6 52.0 C 112.2 51.9 111.5 51.7 111.4 51.7 C 111.2 51.7 111.0 52.1 110.8 52.1 C 110.5 52.2 110.3 52.9 109.8 52.9 C 109.4 52.9 109.1 52.5 108.9 52.4 C 108.7 52.3 108.4 51.6 108.0 51.6 C 107.7 51.6 108.0 52.0 107.7 52.0 C 107.4 52.0 107.5 52.5 107.1 52.4 C 106.8 52.3 106.8 51.5 106.4 51.6 C 106.3 51.7 106.4 51.6 105.4 51.7 C 105.4 51.7 105.4 51.7 105.4 51.7 Z M 127.7 52.5 C 127.6 52.6 127.2 52.1 126.6 52.0 C 126.0 51.8 125.3 51.8 125.6 52.1 C 125.8 52.4 126.0 52.6 125.8 53.0 C 125.7 53.4 125.5 54.1 126.0 54.4 C 126.5 54.6 128.2 55.3 128.6 55.0 C 129.0 54.6 129.1 54.4 129.4 54.2 C 129.7 54.0 129.7 54.8 129.7 54.8 C 129.7 54.8 130.6 54.9 131.2 54.9 C 131.8 55.0 132.6 55.0 132.6 54.9 C 132.6 54.7 132.8 54.4 132.8 54.4 C 132.8 54.4 133.2 54.8 133.7 54.9 C 134.2 55.0 134.0 54.8 133.8 54.6 C 133.7 54.4 133.0 53.9 133.2 53.9 C 133.4 53.9 134.2 54.7 134.6 54.7 C 134.9 54.8 135.6 54.8 135.6 54.8 C 135.6 54.8 135.4 54.3 135.5 54.2 C 135.5 54.1 136.2 54.1 136.3 54.2 C 136.4 54.4 136.5 54.9 136.8 54.9 C 138.0 55.0 137.6 54.1 137.7 54.1 C 137.8 54.0 138.0 54.7 138.3 54.8 C 138.6 54.9 140.8 54.8 140.8 54.7 C 140.9 54.5 141.8 55.1 142.0 54.7 C 142.2 54.3 142.3 54.1 142.3 54.0 C 142.3 53.9 142.6 53.2 142.8 53.5 C 143.1 53.8 142.5 54.5 142.8 54.7 C 143.2 55.0 144.6 55.0 144.7 54.8 C 145.0 54.5 144.9 53.8 145.1 53.8 C 145.3 53.8 146.3 54.7 146.3 54.6 C 146.4 54.4 146.2 53.7 146.2 53.6 C 146.2 53.5 146.0 52.2 145.8 52.0 C 145.6 51.9 144.6 51.4 144.8 51.8 C 145.0 52.1 145.4 52.6 145.1 52.7 C 144.9 52.9 144.7 52.9 144.6 52.8 C 144.5 52.6 144.6 52.5 144.1 52.2 C 143.5 52.0 143.7 51.7 143.2 51.7 C 142.8 51.8 142.4 51.8 142.5 52.1 C 142.6 52.4 142.3 52.8 141.9 52.8 C 141.6 52.7 142.0 52.1 140.9 51.9 C 139.7 51.6 139.1 51.6 138.8 51.8 C 138.6 52.1 138.8 52.8 138.2 52.5 C 137.6 52.2 137.8 52.0 137.2 52.0 C 136.5 52.0 136.4 52.6 136.0 52.6 C 135.6 52.6 135.4 52.6 135.4 52.6 C 135.4 52.6 135.4 51.8 134.5 51.7 C 133.5 51.7 133.3 51.6 133.6 52.2 C 134.0 52.8 133.3 52.9 133.2 52.5 C 133.0 52.1 132.4 51.8 132.0 51.8 C 131.7 51.7 131.9 52.7 131.8 52.7 C 131.6 52.8 131.2 52.7 131.3 52.4 C 131.3 52.1 131.0 52.0 130.6 51.9 C 130.3 51.7 129.4 51.8 129.5 52.0 C 129.6 52.2 130.2 52.9 129.5 52.5 C 128.8 52.2 128.5 51.7 128.0 51.7 C 127.4 51.7 128.1 52.3 127.7 52.5 C 127.7 52.5 127.7 52.5 127.7 52.5 Z M 146.5 51.8 C 145.9 51.5 145.6 51.9 145.8 52.3 C 146.0 52.7 146.5 53.6 146.4 53.9 C 146.3 54.2 146.0 54.9 146.9 55.0 C 147.8 55.2 147.9 54.9 147.8 54.7 C 147.7 54.4 147.6 53.4 147.8 53.5 C 148.1 53.6 148.4 53.9 148.5 54.0 C 148.6 54.1 149.2 55.1 149.6 55.0 C 150.0 54.8 150.3 54.6 150.3 54.6 C 150.5 54.5 150.7 54.5 150.9 54.5 C 150.9 54.5 151.7 55.1 152.1 55.0 C 152.5 54.8 153.0 54.8 153.4 54.9 C 153.7 54.9 154.1 54.8 154.0 54.6 C 154.0 54.4 154.2 53.5 154.2 53.5 C 154.2 53.5 154.6 53.3 154.9 53.4 C 155.2 53.6 155.4 54.1 155.4 54.2 C 155.4 54.4 155.6 54.9 156.0 55.0 C 156.4 55.1 158.0 55.5 158.2 55.3 C 158.3 55.0 158.1 54.6 158.3 54.5 C 158.4 54.4 159.4 54.4 159.5 54.6 C 159.7 54.8 159.8 55.4 160.1 55.3 C 160.4 55.3 161.0 55.4 160.9 55.3 C 160.9 55.1 161.0 55.0 161.0 54.7 C 160.9 54.4 161.4 54.2 161.4 54.1 C 161.5 53.9 161.9 53.9 161.9 53.9 C 162.2 54.0 162.4 54.2 162.7 54.3 C 162.7 54.3 162.5 54.8 162.4 54.9 C 162.2 55.0 162.6 55.4 162.8 55.4 C 163.0 55.4 164.1 55.4 164.1 55.4 C 164.0 55.0 163.9 54.6 163.7 54.2 C 164.0 54.1 164.2 54.0 164.5 54.0 C 164.5 54.0 164.8 55.3 165.3 55.3 C 165.9 55.3 166.5 55.3 166.5 55.3 C 166.5 55.3 166.8 54.8 167.0 54.8 C 167.1 54.7 166.7 53.5 166.7 53.5 C 166.5 53.0 166.3 52.6 166.1 52.1 C 166.1 52.1 165.3 51.6 165.0 51.8 C 164.7 52.0 165.2 52.5 165.2 52.8 C 165.3 53.0 164.8 53.2 164.8 53.2 C 164.5 53.0 164.2 52.7 163.8 52.4 C 163.8 52.4 163.5 52.2 163.2 52.0 C 162.9 51.7 162.1 51.6 161.9 51.7 C 161.7 51.8 161.6 52.1 161.4 52.3 C 161.2 52.6 161.4 53.0 160.9 52.7 C 160.4 52.3 160.1 52.0 160.0 52.0 C 159.8 52.0 159.2 52.4 159.2 52.4 C 159.0 52.5 158.9 52.6 158.7 52.8 C 158.7 52.8 158.2 53.0 158.0 52.7 C 157.9 52.4 156.9 52.8 156.9 52.8 C 156.9 52.8 156.7 51.9 156.4 51.8 C 156.0 51.6 155.5 51.5 155.1 51.6 C 154.7 51.7 154.6 52.5 154.6 52.5 C 154.4 52.3 154.2 52.1 154.0 51.9 C 153.5 51.9 153.1 51.8 152.6 51.7 C 152.6 51.7 151.7 51.8 151.7 51.9 C 151.8 52.1 152.1 52.8 152.1 52.9 C 152.1 53.1 151.7 53.4 151.5 53.1 C 151.4 52.9 150.7 52.2 150.7 52.2 C 150.7 52.2 150.2 51.8 149.9 51.8 C 149.6 51.7 149.2 52.0 149.1 52.1 C 149.1 52.2 148.8 52.8 148.8 52.8 C 148.6 52.5 148.4 52.3 148.2 52.1 C 148.2 52.1 147.5 52.4 146.5 51.8 C 146.5 51.8 146.5 51.8 146.5 51.8 Z M 166.4 51.7 C 165.4 51.7 167.0 54.4 167.6 54.9 C 168.2 55.5 168.7 55.1 169.4 55.2 C 170.2 55.3 169.6 54.5 169.9 54.2 C 170.3 54.0 170.3 54.5 170.6 54.9 C 170.9 55.3 171.9 55.0 172.5 55.0 C 173.1 55.1 173.5 54.2 174.0 54.1 C 174.5 54.1 173.3 53.6 174.3 53.7 C 175.2 53.8 174.9 54.2 174.0 54.5 C 173.1 54.8 174.6 55.0 175.2 55.1 C 175.8 55.2 176.6 54.8 177.1 54.9 C 177.6 54.9 176.8 54.2 177.4 54.3 C 178.1 54.3 178.0 55.0 178.7 55.1 C 179.4 55.2 179.1 54.5 179.4 54.4 C 179.7 54.2 179.7 54.6 180.0 54.7 C 180.3 54.7 180.9 54.9 181.4 54.8 C 182.0 54.6 181.8 54.4 182.0 54.4 C 182.3 54.3 182.8 54.3 182.8 54.3 C 182.9 54.6 183.1 54.8 183.2 55.0 C 183.2 55.0 184.3 55.1 184.7 55.1 C 185.1 55.2 185.7 54.9 185.5 54.7 C 185.2 54.6 185.8 54.1 186.0 54.2 C 186.2 54.3 186.9 54.7 187.4 54.8 C 187.8 55.0 187.0 53.3 186.9 53.0 C 186.8 52.8 186.7 51.8 186.3 51.7 C 185.9 51.6 185.8 52.0 185.7 51.7 C 185.7 51.5 184.8 51.7 184.5 51.7 C 184.2 51.7 184.1 52.4 184.1 52.4 C 184.1 52.4 184.0 52.9 183.6 52.9 C 183.1 52.9 182.5 51.8 182.5 51.8 C 182.5 51.8 181.9 51.6 181.4 51.7 C 180.8 51.7 180.5 52.6 180.5 52.8 C 180.5 53.0 180.2 52.2 179.7 52.1 C 179.3 52.0 178.6 51.7 178.5 51.8 C 178.3 51.8 178.2 52.4 178.2 52.4 C 178.2 52.4 177.6 52.7 177.5 52.7 C 177.3 52.7 177.3 51.9 177.3 51.9 C 177.3 51.9 175.7 51.7 175.3 51.6 C 175.0 51.6 174.6 51.8 174.3 51.8 C 174.1 51.9 174.2 52.9 173.8 52.8 C 173.4 52.7 173.9 52.1 173.5 52.0 C 173.2 51.9 172.5 51.7 172.3 51.7 C 172.1 51.7 172.0 52.1 171.8 52.1 C 171.5 52.2 171.4 52.9 170.9 52.9 C 170.5 52.9 170.1 52.5 169.9 52.4 C 169.7 52.3 169.3 51.6 169.0 51.6 C 168.6 51.6 169.0 52.0 168.7 52.0 C 168.3 52.0 168.5 52.5 168.1 52.4 C 167.8 52.3 167.7 51.5 167.3 51.6 C 167.2 51.7 167.3 51.6 166.4 51.7 C 166.4 51.7 166.4 51.7 166.4 51.7 Z M 187.2 51.8 C 186.5 51.5 186.3 51.9 186.5 52.3 C 186.7 52.7 187.3 53.6 187.2 53.9 C 187.2 54.2 186.9 54.9 187.8 55.0 C 188.7 55.2 188.8 54.9 188.7 54.7 C 188.6 54.4 188.3 53.4 188.6 53.5 C 188.9 53.6 189.2 53.9 189.3 54.0 C 189.4 54.1 190.2 55.1 190.5 55.0 C 190.9 54.8 191.2 54.6 191.2 54.6 C 191.4 54.5 191.6 54.5 191.8 54.5 C 191.8 54.5 192.6 55.1 193.0 55.0 C 193.4 54.8 193.9 54.8 194.3 54.9 C 194.7 54.9 195.0 54.8 194.9 54.6 C 194.9 54.4 195.0 53.5 195.0 53.5 C 195.0 53.5 195.4 53.3 195.7 53.4 C 196.0 53.6 196.2 54.1 196.3 54.2 C 196.3 54.4 196.5 54.9 196.9 55.0 C 197.3 55.1 199.0 55.5 199.1 55.3 C 199.2 55.0 199.0 54.6 199.1 54.5 C 199.3 54.4 200.2 54.4 200.4 54.6 C 200.6 54.8 200.8 55.4 201.0 55.3 C 201.3 55.3 201.9 55.4 201.9 55.3 C 201.8 55.1 201.9 55.0 201.8 54.7 C 201.7 54.4 202.2 54.2 202.3 54.1 C 202.3 53.9 202.8 53.9 202.8 53.9 C 203.0 54.0 203.3 54.2 203.5 54.3 C 203.5 54.3 203.4 54.8 203.3 54.9 C 203.2 55.0 203.6 55.4 203.8 55.4 C 204.0 55.4 205.0 55.4 205.0 55.4 C 204.9 55.0 204.7 54.6 204.6 54.2 C 204.8 54.1 205.0 54.0 205.3 54.0 C 205.3 54.0 205.8 55.3 206.3 55.3 C 206.8 55.3 207.4 55.3 207.4 55.3 C 207.4 55.3 207.7 54.8 207.9 54.8 C 208.0 54.7 207.5 53.5 207.5 53.5 C 207.2 53.0 207.0 52.6 206.7 52.1 C 206.7 52.1 205.9 51.6 205.6 51.8 C 205.4 52.0 205.9 52.5 205.9 52.8 C 206.0 53.0 205.6 53.2 205.6 53.2 C 205.2 53.0 204.9 52.7 204.5 52.4 C 204.5 52.4 204.2 52.2 203.9 52.0 C 203.5 51.7 202.7 51.6 202.5 51.7 C 202.3 51.8 202.2 52.1 202.0 52.3 C 201.8 52.6 202.1 53.0 201.6 52.7 C 201.1 52.3 200.8 52.0 200.6 52.0 C 200.4 52.0 199.9 52.4 199.9 52.4 C 199.7 52.5 199.6 52.6 199.4 52.8 C 199.4 52.8 199.0 53.0 198.8 52.7 C 198.6 52.4 197.6 52.8 197.6 52.8 C 197.6 52.8 197.3 51.9 197.0 51.8 C 196.6 51.6 196.1 51.5 195.7 51.6 C 195.3 51.7 195.3 52.5 195.3 52.5 C 195.1 52.3 194.8 52.1 194.6 51.9 C 194.2 51.9 193.7 51.8 193.2 51.7 C 193.2 51.7 192.3 51.8 192.3 51.9 C 192.4 52.1 192.8 52.8 192.8 52.9 C 192.9 53.1 192.4 53.4 192.3 53.1 C 192.1 52.9 191.4 52.2 191.4 52.2 C 191.4 52.2 190.8 51.8 190.5 51.8 C 190.2 51.7 189.9 52.0 189.8 52.1 C 189.7 52.2 189.5 52.8 189.5 52.8 C 189.3 52.5 189.1 52.3 188.9 52.1 C 188.9 52.1 188.2 52.4 187.2 51.8 C 187.2 51.8 187.2 51.8 187.2 51.8 Z M 207.0 51.7 C 206.0 51.7 207.8 54.4 208.5 54.9 C 209.1 55.5 209.7 55.1 210.4 55.2 C 211.1 55.3 210.5 54.5 210.8 54.2 C 211.1 54.0 211.2 54.5 211.5 54.9 C 211.9 55.3 212.8 55.0 213.4 55.0 C 214.1 55.1 214.3 54.2 214.8 54.1 C 215.3 54.1 214.1 53.6 215.1 53.7 C 216.0 53.8 215.8 54.2 214.9 54.5 C 213.9 54.8 215.5 55.0 216.1 55.1 C 216.8 55.2 217.5 54.8 218.0 54.9 C 218.5 54.9 217.6 54.2 218.3 54.3 C 218.9 54.3 218.9 55.0 219.6 55.1 C 220.4 55.2 220.0 54.5 220.2 54.4 C 220.5 54.2 220.6 54.6 220.9 54.7 C 221.2 54.7 221.8 54.9 222.3 54.8 C 222.9 54.6 222.6 54.4 222.9 54.4 C 223.2 54.3 223.7 54.3 223.7 54.3 C 223.8 54.6 224.0 54.8 224.1 55.0 C 224.1 55.0 225.3 55.1 225.6 55.1 C 226.0 55.2 226.6 54.9 226.3 54.7 C 226.1 54.6 226.6 54.1 226.8 54.2 C 227.1 54.3 227.8 54.7 228.3 54.8 C 228.7 55.0 227.8 53.3 227.7 53.0 C 227.5 52.8 227.3 51.8 226.9 51.7 C 226.5 51.6 226.4 52.0 226.3 51.7 C 226.3 51.5 225.4 51.7 225.1 51.7 C 224.8 51.7 224.8 52.4 224.8 52.4 C 224.8 52.4 224.8 52.9 224.3 52.9 C 223.9 52.9 223.2 51.8 223.2 51.8 C 223.2 51.8 222.5 51.6 222.0 51.7 C 221.4 51.7 221.2 52.6 221.2 52.8 C 221.2 53.0 220.8 52.2 220.4 52.1 C 219.9 52.0 219.2 51.7 219.1 51.8 C 218.9 51.8 218.9 52.4 218.9 52.4 C 218.9 52.4 218.3 52.7 218.2 52.7 C 218.0 52.7 217.9 51.9 217.9 51.9 C 217.9 51.9 216.3 51.7 215.9 51.6 C 215.6 51.6 215.2 51.8 215.0 51.8 C 214.8 51.9 214.9 52.9 214.5 52.8 C 214.1 52.7 214.6 52.1 214.2 52.0 C 213.8 51.9 213.1 51.7 212.9 51.7 C 212.7 51.7 212.7 52.1 212.4 52.1 C 212.2 52.2 212.1 52.9 211.7 52.9 C 211.2 52.9 210.8 52.5 210.6 52.4 C 210.3 52.3 209.9 51.6 209.6 51.6 C 209.2 51.6 209.7 52.0 209.3 52.0 C 209.0 52.0 209.2 52.5 208.8 52.4 C 208.4 52.3 208.3 51.5 208.0 51.6 C 207.8 51.7 208.0 51.6 207.0 51.7 C 207.0 51.7 207.0 51.7 207.0 51.7 Z M 227.8 51.8 C 227.1 51.5 226.9 51.9 227.2 52.3 C 227.4 52.7 228.1 53.6 228.0 53.9 C 228.0 54.2 227.8 54.9 228.7 55.0 C 229.6 55.2 229.7 54.9 229.6 54.7 C 229.4 54.4 229.1 53.4 229.4 53.5 C 229.6 53.6 230.0 53.9 230.1 54.0 C 230.3 54.1 231.1 55.1 231.4 55.0 C 231.8 54.8 232.0 54.6 232.0 54.6 C 232.2 54.5 232.4 54.5 232.7 54.5 C 232.7 54.5 233.5 55.1 233.9 55.0 C 234.3 54.8 234.8 54.8 235.2 54.9 C 235.6 54.9 235.9 54.8 235.8 54.6 C 235.7 54.4 235.8 53.5 235.8 53.5 C 235.8 53.5 236.2 53.3 236.5 53.4 C 236.8 53.6 237.1 54.1 237.1 54.2 C 237.2 54.4 237.4 54.9 237.8 55.0 C 238.2 55.1 240.0 55.5 240.1 55.3 C 240.1 55.0 239.9 54.6 240.0 54.5 C 240.1 54.4 241.1 54.4 241.3 54.6 C 241.5 54.8 241.7 55.4 242.0 55.3 C 242.2 55.3 242.9 55.4 242.8 55.3 C 242.8 55.1 242.9 55.0 242.7 54.7 C 242.6 54.4 243.1 54.2 243.1 54.1 C 243.1 53.9 243.6 53.9 243.6 53.9 C 243.8 54.0 244.1 54.2 244.4 54.3 C 244.4 54.3 244.3 54.8 244.2 54.9 C 244.1 55.0 244.5 55.4 244.7 55.4 C 244.9 55.4 246.0 55.4 246.0 55.4 C 245.8 55.0 245.6 54.6 245.4 54.2 C 245.6 54.1 245.9 54.0 246.1 54.0 C 246.1 54.0 246.7 55.3 247.2 55.3 C 247.7 55.3 248.4 55.3 248.4 55.3 C 248.4 55.3 248.6 54.8 248.8 54.8 C 248.9 54.7 248.3 53.5 248.3 53.5 C 248.0 53.0 247.7 52.6 247.4 52.1 C 247.4 52.1 246.5 51.6 246.3 51.8 C 246.0 52.0 246.6 52.5 246.7 52.8 C 246.7 53.0 246.3 53.2 246.3 53.2 C 246.0 53.0 245.6 52.7 245.2 52.4 C 245.2 52.4 244.9 52.2 244.5 52.0 C 244.2 51.7 243.3 51.6 243.1 51.7 C 242.9 51.8 242.9 52.1 242.7 52.3 C 242.5 52.6 242.8 53.0 242.3 52.7 C 241.8 52.3 241.4 52.0 241.3 52.0 C 241.1 52.0 240.6 52.4 240.6 52.4 C 240.4 52.5 240.3 52.6 240.1 52.8 C 240.1 52.8 239.7 53.0 239.5 52.7 C 239.2 52.4 238.3 52.8 238.3 52.8 C 238.3 52.8 238.0 51.9 237.6 51.8 C 237.3 51.6 236.7 51.5 236.3 51.6 C 235.9 51.7 236.0 52.5 236.0 52.5 C 235.7 52.3 235.5 52.1 235.2 51.9 C 234.8 51.9 234.3 51.8 233.9 51.7 C 233.9 51.7 232.9 51.8 233.0 51.9 C 233.1 52.1 233.5 52.8 233.6 52.9 C 233.6 53.1 233.2 53.4 233.0 53.1 C 232.9 52.9 232.1 52.2 232.1 52.2 C 232.1 52.2 231.5 51.8 231.1 51.8 C 230.8 51.7 230.5 52.0 230.4 52.1 C 230.4 52.2 230.2 52.8 230.2 52.8 C 230.0 52.5 229.7 52.3 229.5 52.1 C 229.5 52.1 228.9 52.4 227.8 51.8 C 227.8 51.8 227.8 51.8 227.8 51.8 Z M 247.6 51.7 C 246.6 51.7 248.7 54.4 249.4 54.9 C 250.1 55.5 250.6 55.1 251.3 55.2 C 252.1 55.3 251.4 54.5 251.6 54.2 C 251.9 54.0 252.1 54.5 252.4 54.9 C 252.8 55.3 253.7 55.0 254.3 55.0 C 255.0 55.1 255.2 54.2 255.6 54.1 C 256.1 54.1 254.9 53.6 255.9 53.7 C 256.8 53.8 256.6 54.2 255.7 54.5 C 254.8 54.8 256.4 55.0 257.1 55.1 C 257.7 55.2 258.4 54.8 258.9 54.9 C 259.4 54.9 258.4 54.2 259.1 54.3 C 259.8 54.3 259.8 55.0 260.6 55.1 C 261.3 55.2 260.8 54.5 261.1 54.4 C 261.4 54.2 261.5 54.6 261.8 54.7 C 262.1 54.7 262.7 54.9 263.2 54.8 C 263.8 54.6 263.5 54.4 263.8 54.4 C 264.0 54.3 264.5 54.3 264.5 54.3 C 264.7 54.6 264.9 54.8 265.0 55.0 C 265.0 55.0 266.2 55.1 266.6 55.1 C 266.9 55.2 267.5 54.9 267.2 54.7 C 266.9 54.6 267.5 54.1 267.7 54.2 C 267.9 54.3 268.7 54.7 269.2 54.8 C 269.7 55.0 268.5 53.3 268.4 53.0 C 268.2 52.8 267.9 51.8 267.5 51.7 C 267.1 51.6 267.1 52.0 267.0 51.7 C 266.9 51.5 266.0 51.7 265.7 51.7 C 265.4 51.7 265.5 52.4 265.5 52.4 C 265.5 52.4 265.5 52.9 265.0 52.9 C 264.6 52.9 263.8 51.8 263.8 51.8 C 263.8 51.8 263.1 51.6 262.6 51.7 C 262.1 51.7 261.9 52.6 261.9 52.8 C 261.9 53.0 261.5 52.2 261.0 52.1 C 260.6 52.0 259.8 51.7 259.7 51.8 C 259.6 51.8 259.6 52.4 259.6 52.4 C 259.6 52.4 259.1 52.7 258.9 52.7 C 258.7 52.7 258.6 51.9 258.6 51.9 C 258.6 51.9 256.9 51.7 256.5 51.6 C 256.2 51.6 255.8 51.8 255.6 51.8 C 255.4 51.9 255.6 52.9 255.2 52.8 C 254.8 52.7 255.2 52.1 254.8 52.0 C 254.4 51.9 253.7 51.7 253.5 51.7 C 253.4 51.7 253.3 52.1 253.1 52.1 C 252.8 52.2 252.8 52.9 252.4 52.9 C 251.9 52.9 251.5 52.5 251.2 52.4 C 251.0 52.3 250.5 51.6 250.2 51.6 C 249.8 51.6 250.3 52.0 250.0 52.0 C 249.6 52.0 249.9 52.5 249.5 52.4 C 249.1 52.3 248.9 51.5 248.6 51.6 C 248.4 51.7 248.6 51.6 247.6 51.7 C 247.6 51.7 247.6 51.7 247.6 51.7 Z M 270.2 52.5 C 270.0 52.6 269.5 52.1 268.9 52.0 C 268.2 51.8 267.5 51.8 267.8 52.1 C 268.2 52.4 268.5 52.6 268.4 53.0 C 268.4 53.4 268.4 54.1 269.0 54.4 C 269.5 54.6 271.5 55.3 271.8 55.0 C 272.1 54.6 272.1 54.4 272.4 54.2 C 272.6 54.0 272.8 54.8 272.8 54.8 C 272.8 54.8 273.7 54.9 274.4 54.9 C 275.0 55.0 275.8 55.0 275.8 54.9 C 275.7 54.7 275.8 54.4 275.8 54.4 C 275.8 54.4 276.4 54.8 276.9 54.9 C 277.4 55.0 277.1 54.8 276.9 54.6 C 276.7 54.4 275.9 53.9 276.1 53.9 C 276.2 53.9 277.3 54.7 277.7 54.7 C 278.1 54.8 278.8 54.8 278.8 54.8 C 278.8 54.8 278.4 54.3 278.4 54.2 C 278.4 54.1 279.1 54.1 279.3 54.2 C 279.4 54.4 279.6 54.9 280.0 54.9 C 281.2 55.0 280.5 54.1 280.6 54.1 C 280.7 54.0 281.1 54.7 281.4 54.8 C 281.7 54.9 283.9 54.8 283.9 54.7 C 283.9 54.5 285.1 55.1 285.1 54.7 C 285.2 54.3 285.2 54.1 285.2 54.0 C 285.2 53.9 285.2 53.2 285.6 53.5 C 285.9 53.8 285.6 54.5 286.0 54.7 C 286.4 55.0 287.8 55.0 287.9 54.8 C 288.0 54.5 287.7 53.8 287.9 53.8 C 288.1 53.8 289.4 54.7 289.4 54.6 C 289.4 54.4 289.0 53.7 289.0 53.6 C 288.9 53.5 288.3 52.2 288.1 52.0 C 287.8 51.9 286.7 51.4 287.0 51.8 C 287.3 52.1 287.8 52.6 287.6 52.7 C 287.4 52.9 287.3 52.9 287.1 52.8 C 287.0 52.6 287.0 52.5 286.4 52.2 C 285.8 52.0 285.8 51.7 285.4 51.7 C 285.0 51.8 284.6 51.8 284.8 52.1 C 285.0 52.4 284.8 52.8 284.4 52.8 C 284.1 52.7 284.3 52.1 283.1 51.9 C 281.9 51.6 281.2 51.6 281.1 51.8 C 280.9 52.1 281.3 52.8 280.6 52.5 C 279.9 52.2 280.1 52.0 279.4 52.0 C 278.8 52.0 278.9 52.6 278.4 52.6 C 278.0 52.6 277.9 52.6 277.9 52.6 C 277.9 52.6 277.6 51.8 276.6 51.7 C 275.7 51.7 275.4 51.6 276.0 52.2 C 276.5 52.8 275.8 52.9 275.6 52.5 C 275.3 52.1 274.6 51.8 274.2 51.8 C 273.8 51.7 274.4 52.7 274.3 52.7 C 274.1 52.8 273.7 52.7 273.7 52.4 C 273.6 52.1 273.2 52.0 272.8 51.9 C 272.5 51.7 271.6 51.8 271.8 52.0 C 271.9 52.2 272.7 52.9 271.9 52.5 C 271.1 52.2 270.7 51.7 270.1 51.7 C 269.6 51.7 270.4 52.3 270.2 52.5 C 270.2 52.5 270.2 52.5 270.2 52.5 Z M 288.7 51.8 C 288.0 51.5 287.9 51.9 288.2 52.3 C 288.5 52.7 289.3 53.6 289.3 53.9 C 289.3 54.2 289.1 54.9 290.1 55.0 C 291.0 55.2 291.0 54.9 290.9 54.7 C 290.7 54.4 290.3 53.4 290.5 53.5 C 290.8 53.6 291.2 53.9 291.4 54.0 C 291.5 54.1 292.5 55.1 292.8 55.0 C 293.1 54.8 293.4 54.6 293.4 54.6 C 293.6 54.5 293.8 54.5 294.0 54.5 C 294.0 54.5 294.9 55.1 295.3 55.0 C 295.7 54.8 296.2 54.8 296.6 54.9 C 296.9 54.9 297.2 54.8 297.1 54.6 C 297.0 54.4 296.9 53.5 296.9 53.5 C 296.9 53.5 297.3 53.3 297.6 53.4 C 298.0 53.6 298.3 54.1 298.4 54.2 C 298.4 54.4 298.8 54.9 299.2 55.0 C 299.6 55.1 301.4 55.5 301.5 55.3 C 301.5 55.0 301.2 54.6 301.3 54.5 C 301.4 54.4 302.4 54.4 302.6 54.6 C 302.9 54.8 303.1 55.4 303.4 55.3 C 303.7 55.3 304.3 55.4 304.2 55.3 C 304.1 55.1 304.2 55.0 304.1 54.7 C 303.9 54.4 304.3 54.2 304.3 54.1 C 304.4 53.9 304.8 53.9 304.8 53.9 C 305.1 54.0 305.4 54.2 305.7 54.3 C 305.7 54.3 305.7 54.8 305.6 54.9 C 305.5 55.0 306.0 55.4 306.2 55.4 C 306.4 55.4 307.4 55.4 307.4 55.4 C 307.2 55.0 306.9 54.6 306.7 54.2 C 306.9 54.1 307.1 54.0 307.3 54.0 C 307.3 54.0 308.1 55.3 308.6 55.3 C 309.2 55.3 309.8 55.3 309.8 55.3 C 309.8 55.3 310.0 54.8 310.1 54.8 C 310.2 54.7 309.4 53.5 309.4 53.5 C 309.1 53.0 308.7 52.6 308.4 52.1 C 308.4 52.1 307.4 51.6 307.2 51.8 C 307.0 52.0 307.6 52.5 307.7 52.8 C 307.8 53.0 307.5 53.2 307.5 53.2 C 307.1 53.0 306.6 52.7 306.2 52.4 C 306.2 52.4 305.9 52.2 305.5 52.0 C 305.1 51.7 304.2 51.6 304.0 51.7 C 303.9 51.8 303.8 52.1 303.7 52.3 C 303.6 52.6 303.9 53.0 303.4 52.7 C 302.8 52.3 302.4 52.0 302.2 52.0 C 302.0 52.0 301.6 52.4 301.6 52.4 C 301.5 52.5 301.3 52.6 301.2 52.8 C 301.2 52.8 300.8 53.0 300.5 52.7 C 300.3 52.4 299.4 52.8 299.4 52.8 C 299.4 52.8 298.9 51.9 298.5 51.8 C 298.2 51.6 297.6 51.5 297.2 51.6 C 296.9 51.7 297.0 52.5 297.0 52.5 C 296.8 52.3 296.5 52.1 296.2 51.9 C 295.7 51.9 295.3 51.8 294.8 51.7 C 294.8 51.7 293.9 51.8 293.9 51.9 C 294.0 52.1 294.6 52.8 294.7 52.9 C 294.7 53.1 294.4 53.4 294.2 53.1 C 293.9 52.9 293.1 52.2 293.1 52.2 C 293.1 52.2 292.4 51.8 292.1 51.8 C 291.8 51.7 291.5 52.0 291.4 52.1 C 291.4 52.2 291.3 52.8 291.3 52.8 C 291.0 52.5 290.8 52.3 290.5 52.1 C 290.5 52.1 289.9 52.4 288.7 51.8 C 288.7 51.8 288.7 51.8 288.7 51.8 Z M 308.5 51.7 C 307.5 51.7 310.0 54.4 310.8 54.9 C 311.5 55.5 312.0 55.1 312.7 55.2 C 313.5 55.3 312.7 54.5 312.9 54.2 C 313.1 54.0 313.4 54.5 313.8 54.9 C 314.2 55.3 315.1 55.0 315.7 55.0 C 316.4 55.1 316.4 54.2 316.9 54.1 C 317.4 54.1 316.1 53.6 317.1 53.7 C 318.0 53.8 317.9 54.2 317.1 54.5 C 316.2 54.8 317.8 55.0 318.5 55.1 C 319.1 55.2 319.8 54.8 320.3 54.9 C 320.8 54.9 319.7 54.2 320.4 54.3 C 321.1 54.3 321.2 55.0 321.9 55.1 C 322.7 55.2 322.2 54.5 322.4 54.4 C 322.6 54.2 322.8 54.6 323.1 54.7 C 323.5 54.7 324.1 54.9 324.6 54.8 C 325.1 54.6 324.8 54.4 325.0 54.4 C 325.3 54.3 325.8 54.3 325.8 54.3 C 326.0 54.6 326.2 54.8 326.4 55.0 C 326.4 55.0 327.6 55.1 328.0 55.1 C 328.3 55.2 328.9 54.9 328.6 54.7 C 328.3 54.6 328.7 54.1 329.0 54.2 C 329.2 54.3 330.0 54.7 330.5 54.8 C 331.0 55.0 329.7 53.3 329.5 53.0 C 329.3 52.8 328.9 51.8 328.5 51.7 C 328.0 51.6 328.0 52.0 327.9 51.7 C 327.8 51.5 326.9 51.7 326.7 51.7 C 326.4 51.7 326.5 52.4 326.5 52.4 C 326.5 52.4 326.6 52.9 326.1 52.9 C 325.7 52.9 324.7 51.8 324.7 51.8 C 324.7 51.8 324.0 51.6 323.5 51.7 C 323.0 51.7 323.0 52.6 323.0 52.8 C 323.0 53.0 322.5 52.2 322.0 52.1 C 321.5 52.0 320.8 51.7 320.7 51.8 C 320.5 51.8 320.6 52.4 320.6 52.4 C 320.6 52.4 320.1 52.7 319.9 52.7 C 319.8 52.7 319.5 51.9 319.5 51.9 C 319.5 51.9 317.8 51.7 317.5 51.6 C 317.1 51.6 316.7 51.8 316.5 51.8 C 316.4 51.9 316.7 52.9 316.3 52.8 C 315.9 52.7 316.2 52.1 315.8 52.0 C 315.4 51.9 314.6 51.7 314.5 51.7 C 314.3 51.7 314.3 52.1 314.1 52.1 C 313.8 52.2 313.9 52.9 313.5 52.9 C 313.0 52.9 312.5 52.5 312.3 52.4 C 312.0 52.3 311.5 51.6 311.1 51.6 C 310.7 51.6 311.3 52.0 310.9 52.0 C 310.6 52.0 310.9 52.5 310.5 52.4 C 310.1 52.3 309.8 51.5 309.5 51.6 C 309.4 51.7 309.5 51.6 308.5 51.7 C 308.5 51.7 308.5 51.7 308.5 51.7 Z M 329.4 51.8 C 328.6 51.5 328.5 51.9 328.8 52.3 C 329.2 52.7 330.0 53.6 330.1 53.9 C 330.1 54.2 330.0 54.9 331.0 55.0 C 332.0 55.2 331.9 54.9 331.8 54.7 C 331.6 54.4 331.0 53.4 331.3 53.5 C 331.6 53.6 332.1 53.9 332.2 54.0 C 332.4 54.1 333.4 55.1 333.7 55.0 C 334.0 54.8 334.2 54.6 334.2 54.6 C 334.4 54.5 334.6 54.5 334.8 54.5 C 334.8 54.5 335.8 55.1 336.2 55.0 C 336.6 54.8 337.1 54.8 337.5 54.9 C 337.8 54.9 338.1 54.8 338.0 54.6 C 337.9 54.4 337.7 53.5 337.7 53.5 C 337.7 53.5 338.1 53.3 338.4 53.4 C 338.7 53.6 339.1 54.1 339.2 54.2 C 339.3 54.4 339.7 54.9 340.1 55.0 C 340.5 55.1 342.4 55.5 342.4 55.3 C 342.4 55.0 342.1 54.6 342.2 54.5 C 342.3 54.4 343.2 54.4 343.5 54.6 C 343.8 54.8 344.1 55.4 344.3 55.3 C 344.6 55.3 345.3 55.4 345.2 55.3 C 345.1 55.1 345.2 55.0 345.0 54.7 C 344.8 54.4 345.2 54.2 345.2 54.1 C 345.2 53.9 345.6 53.9 345.6 53.9 C 345.9 54.0 346.2 54.2 346.5 54.3 C 346.5 54.3 346.6 54.8 346.5 54.9 C 346.4 55.0 346.9 55.4 347.1 55.4 C 347.3 55.4 348.4 55.4 348.4 55.4 C 348.1 55.0 347.8 54.6 347.5 54.2 C 347.7 54.1 347.9 54.0 348.2 54.0 C 348.2 54.0 349.1 55.3 349.6 55.3 C 350.1 55.3 350.7 55.3 350.7 55.3 C 350.7 55.3 350.9 54.8 351.0 54.8 C 351.1 54.7 350.2 53.5 350.2 53.5 C 349.8 53.0 349.4 52.6 349.0 52.1 C 349.0 52.1 348.0 51.6 347.8 51.8 C 347.6 52.0 348.3 52.5 348.4 52.8 C 348.6 53.0 348.2 53.2 348.2 53.2 C 347.8 53.0 347.4 52.7 346.9 52.4 C 346.9 52.4 346.5 52.2 346.1 52.0 C 345.7 51.7 344.8 51.6 344.6 51.7 C 344.5 51.8 344.5 52.1 344.4 52.3 C 344.3 52.6 344.7 53.0 344.1 52.7 C 343.5 52.3 343.0 52.0 342.9 52.0 C 342.7 52.0 342.3 52.4 342.3 52.4 C 342.2 52.5 342.0 52.6 341.9 52.8 C 341.9 52.8 341.5 53.0 341.2 52.7 C 341.0 52.4 340.1 52.8 340.1 52.8 C 340.1 52.8 339.6 51.9 339.2 51.8 C 338.8 51.6 338.2 51.5 337.8 51.6 C 337.5 51.7 337.7 52.5 337.7 52.5 C 337.4 52.3 337.1 52.1 336.8 51.9 C 336.4 51.9 335.9 51.8 335.4 51.7 C 335.4 51.7 334.5 51.8 334.6 51.9 C 334.7 52.1 335.3 52.8 335.4 52.9 C 335.5 53.1 335.1 53.4 334.9 53.1 C 334.7 52.9 333.7 52.2 333.7 52.2 C 333.7 52.2 333.0 51.8 332.7 51.8 C 332.4 51.7 332.1 52.0 332.1 52.1 C 332.1 52.2 332.0 52.8 332.0 52.8 C 331.7 52.5 331.4 52.3 331.1 52.1 C 331.1 52.1 330.6 52.4 329.4 51.8 C 329.4 51.8 329.4 51.8 329.4 51.8 Z M 351.5 52.5 C 351.4 52.6 350.8 52.1 350.2 52.0 C 349.5 51.8 348.8 51.8 349.1 52.1 C 349.5 52.4 349.9 52.6 349.9 53.0 C 349.9 53.4 350.1 54.1 350.7 54.4 C 351.3 54.6 353.4 55.3 353.6 55.0 C 353.8 54.6 353.9 54.4 354.1 54.2 C 354.2 54.0 354.6 54.8 354.6 54.8 C 354.6 54.8 355.5 54.9 356.2 54.9 C 356.9 55.0 357.6 55.0 357.6 54.9 C 357.5 54.7 357.5 54.4 357.5 54.4 C 357.5 54.4 358.2 54.8 358.7 54.9 C 359.2 55.0 358.9 54.8 358.7 54.6 C 358.4 54.4 357.5 53.9 357.7 53.9 C 357.9 53.9 359.1 54.7 359.5 54.7 C 359.9 54.8 360.6 54.8 360.6 54.8 C 360.6 54.8 360.1 54.3 360.1 54.2 C 360.1 54.1 360.8 54.1 360.9 54.2 C 361.1 54.4 361.4 54.9 361.8 54.9 C 363.0 55.0 362.2 54.1 362.2 54.1 C 362.3 54.0 362.9 54.7 363.2 54.8 C 363.6 54.9 365.7 54.8 365.7 54.7 C 365.7 54.5 366.9 55.1 366.9 54.7 C 366.9 54.3 366.9 54.1 366.9 54.0 C 366.9 53.9 366.7 53.2 367.1 53.5 C 367.6 53.8 367.3 54.5 367.7 54.7 C 368.2 55.0 369.6 55.0 369.7 54.8 C 369.8 54.5 369.3 53.8 369.5 53.8 C 369.7 53.8 371.2 54.7 371.2 54.6 C 371.1 54.4 370.6 53.7 370.5 53.6 C 370.4 53.5 369.7 52.2 369.4 52.0 C 369.1 51.9 367.8 51.4 368.2 51.8 C 368.6 52.1 369.2 52.6 369.0 52.7 C 368.9 52.9 368.7 52.9 368.6 52.8 C 368.4 52.6 368.4 52.5 367.7 52.2 C 367.0 52.0 367.1 51.7 366.6 51.7 C 366.2 51.8 365.8 51.8 366.1 52.1 C 366.4 52.4 366.2 52.8 365.9 52.8 C 365.5 52.7 365.6 52.1 364.3 51.9 C 363.1 51.6 362.4 51.6 362.3 51.8 C 362.2 52.1 362.7 52.8 362.0 52.5 C 361.2 52.2 361.3 52.0 360.7 52.0 C 360.0 52.0 360.2 52.6 359.8 52.6 C 359.4 52.6 359.3 52.6 359.3 52.6 C 359.3 52.6 358.9 51.8 357.9 51.7 C 356.9 51.7 356.6 51.6 357.3 52.2 C 358.0 52.8 357.3 52.9 356.9 52.5 C 356.6 52.1 355.8 51.8 355.5 51.8 C 355.1 51.7 355.8 52.7 355.7 52.7 C 355.6 52.8 355.1 52.7 355.0 52.4 C 354.9 52.1 354.5 52.0 354.1 51.9 C 353.7 51.7 352.9 51.8 353.1 52.0 C 353.2 52.2 354.2 52.9 353.3 52.5 C 352.5 52.2 351.9 51.7 351.4 51.7 C 350.8 51.7 351.8 52.3 351.5 52.5 C 351.5 52.5 351.5 52.5 351.5 52.5 Z M 370.0 51.8 C 369.2 51.5 369.2 51.9 369.5 52.3 C 369.9 52.7 370.8 53.6 370.9 53.9 C 370.9 54.2 370.9 54.9 371.9 55.0 C 372.9 55.2 372.8 54.9 372.7 54.7 C 372.5 54.4 371.8 53.4 372.1 53.5 C 372.4 53.6 372.9 53.9 373.0 54.0 C 373.2 54.1 374.3 55.1 374.6 55.0 C 375.0 54.8 375.1 54.6 375.1 54.6 C 375.3 54.5 375.5 54.5 375.7 54.5 C 375.7 54.5 376.8 55.1 377.1 55.0 C 377.5 54.8 378.0 54.8 378.4 54.9 C 378.8 54.9 379.0 54.8 378.9 54.6 C 378.8 54.4 378.5 53.5 378.5 53.5 C 378.5 53.5 378.8 53.3 379.2 53.4 C 379.5 53.6 380.0 54.1 380.1 54.2 C 380.2 54.4 380.6 54.9 381.0 55.0 C 381.5 55.1 383.3 55.5 383.3 55.3 C 383.3 55.0 383.0 54.6 383.1 54.5 C 383.2 54.4 384.1 54.4 384.4 54.6 C 384.7 54.8 385.0 55.4 385.3 55.3 C 385.5 55.3 386.2 55.4 386.1 55.3 C 386.0 55.1 386.1 55.0 385.8 54.7 C 385.6 54.4 386.0 54.2 386.0 54.1 C 386.0 53.9 386.4 53.9 386.4 53.9 C 386.7 54.0 387.1 54.2 387.4 54.3 C 387.4 54.3 387.5 54.8 387.4 54.9 C 387.3 55.0 387.9 55.4 388.1 55.4 C 388.3 55.4 389.3 55.4 389.3 55.4 C 389.0 55.0 388.7 54.6 388.4 54.2 C 388.6 54.1 388.8 54.0 389.0 54.0 C 389.0 54.0 390.0 55.3 390.5 55.3 C 391.1 55.3 391.7 55.3 391.7 55.3 C 391.7 55.3 391.8 54.8 391.9 54.8 C 392.0 54.7 391.0 53.5 391.0 53.5 C 390.6 53.0 390.1 52.6 389.7 52.1 C 389.7 52.1 388.7 51.6 388.5 51.8 C 388.3 52.0 389.0 52.5 389.2 52.8 C 389.3 53.0 389.0 53.2 389.0 53.2 C 388.5 53.0 388.1 52.7 387.6 52.4 C 387.6 52.4 387.2 52.2 386.8 52.0 C 386.3 51.7 385.4 51.6 385.3 51.7 C 385.1 51.8 385.2 52.1 385.1 52.3 C 385.0 52.6 385.4 53.0 384.8 52.7 C 384.2 52.3 383.7 52.0 383.5 52.0 C 383.3 52.0 383.0 52.4 383.0 52.4 C 382.9 52.5 382.7 52.6 382.6 52.8 C 382.6 52.8 382.3 53.0 381.9 52.7 C 381.6 52.4 380.8 52.8 380.8 52.8 C 380.8 52.8 380.2 51.9 379.8 51.8 C 379.4 51.6 378.8 51.5 378.4 51.6 C 378.1 51.7 378.4 52.5 378.4 52.5 C 378.1 52.3 377.8 52.1 377.5 51.9 C 377.0 51.9 376.5 51.8 376.0 51.7 C 376.0 51.7 375.1 51.8 375.2 51.9 C 375.3 52.1 376.0 52.8 376.1 52.9 C 376.2 53.1 375.9 53.4 375.6 53.1 C 375.4 52.9 374.4 52.2 374.4 52.2 C 374.4 52.2 373.7 51.8 373.3 51.8 C 373.0 51.7 372.7 52.0 372.7 52.1 C 372.7 52.2 372.7 52.8 372.7 52.8 C 372.4 52.5 372.1 52.3 371.8 52.1 C 371.8 52.1 371.3 52.4 370.0 51.8 C 370.0 51.8 370.0 51.8 370.0 51.8 Z M 392.2 52.5 C 392.1 52.6 391.5 52.1 390.8 52.0 C 390.1 51.8 389.4 51.8 389.8 52.1 C 390.2 52.4 390.6 52.6 390.6 53.0 C 390.7 53.4 390.9 54.1 391.6 54.4 C 392.2 54.6 394.4 55.3 394.5 55.0 C 394.7 54.6 394.7 54.4 394.9 54.2 C 395.1 54.0 395.5 54.8 395.5 54.8 C 395.5 54.8 396.4 54.9 397.1 54.9 C 397.8 55.0 398.5 55.0 398.5 54.9 C 398.4 54.7 398.4 54.4 398.4 54.4 C 398.4 54.4 399.1 54.8 399.6 54.9 C 400.1 55.0 399.8 54.8 399.5 54.6 C 399.3 54.4 398.3 53.9 398.5 53.9 C 398.7 53.9 400.0 54.7 400.4 54.7 C 400.8 54.8 401.5 54.8 401.5 54.8 C 401.5 54.8 401.0 54.3 401.0 54.2 C 400.9 54.1 401.6 54.1 401.8 54.2 C 402.0 54.4 402.3 54.9 402.7 54.9 C 403.9 55.0 403.0 54.1 403.1 54.1 C 403.2 54.0 403.8 54.7 404.1 54.8 C 404.5 54.9 406.6 54.8 406.6 54.7 C 406.5 54.5 407.8 55.1 407.8 54.7 C 407.8 54.3 407.7 54.1 407.7 54.0 C 407.7 53.9 407.5 53.2 407.9 53.5 C 408.4 53.8 408.2 54.5 408.6 54.7 C 409.1 55.0 410.5 55.0 410.6 54.8 C 410.6 54.5 410.1 53.8 410.3 53.8 C 410.5 53.8 412.1 54.7 412.0 54.6 C 412.0 54.4 411.4 53.7 411.3 53.6 C 411.2 53.5 410.3 52.2 410.0 52.0 C 409.7 51.9 408.4 51.4 408.9 51.8 C 409.3 52.1 409.9 52.6 409.7 52.7 C 409.6 52.9 409.5 52.9 409.3 52.8 C 409.1 52.6 409.1 52.5 408.4 52.2 C 407.7 52.0 407.7 51.7 407.3 51.7 C 406.8 51.8 406.5 51.8 406.8 52.1 C 407.1 52.4 406.9 52.8 406.6 52.8 C 406.2 52.7 406.2 52.1 405.0 51.9 C 403.7 51.6 403.0 51.6 402.9 51.8 C 402.9 52.1 403.4 52.8 402.7 52.5 C 401.9 52.2 402.0 52.0 401.3 52.0 C 400.7 52.0 400.9 52.6 400.5 52.6 C 400.1 52.6 400.0 52.6 400.0 52.6 C 400.0 52.6 399.5 51.8 398.5 51.7 C 397.5 51.7 397.2 51.6 398.0 52.2 C 398.7 52.8 398.0 52.9 397.6 52.5 C 397.2 52.1 396.4 51.8 396.1 51.8 C 395.7 51.7 396.5 52.7 396.4 52.7 C 396.3 52.8 395.8 52.7 395.7 52.4 C 395.6 52.1 395.1 52.0 394.7 51.9 C 394.3 51.7 393.5 51.8 393.7 52.0 C 393.9 52.2 394.9 52.9 394.0 52.5 C 393.1 52.2 392.5 51.7 392.0 51.7 C 391.4 51.7 392.5 52.3 392.2 52.5 C 392.2 52.5 392.2 52.5 392.2 52.5 Z M 410.6 51.8 C 409.8 51.5 409.8 51.9 410.2 52.3 C 410.6 52.7 411.6 53.6 411.7 53.9 C 411.8 54.2 411.8 54.9 412.8 55.0 C 413.8 55.2 413.7 54.9 413.5 54.7 C 413.3 54.4 412.6 53.4 412.9 53.5 C 413.2 53.6 413.7 53.9 413.9 54.0 C 414.1 54.1 415.3 55.1 415.6 55.0 C 415.9 54.8 416.0 54.6 416.0 54.6 C 416.2 54.5 416.4 54.5 416.6 54.5 C 416.6 54.5 417.7 55.1 418.0 55.0 C 418.4 54.8 418.9 54.8 419.3 54.9 C 419.7 54.9 419.9 54.8 419.8 54.6 C 419.6 54.4 419.3 53.5 419.3 53.5 C 419.3 53.5 419.6 53.3 420.0 53.4 C 420.3 53.6 420.8 54.1 420.9 54.2 C 421.0 54.4 421.5 54.9 422.0 55.0 C 422.4 55.1 424.3 55.5 424.3 55.3 C 424.3 55.0 423.9 54.6 423.9 54.5 C 424.0 54.4 425.0 54.4 425.3 54.6 C 425.6 54.8 426.0 55.4 426.2 55.3 C 426.5 55.3 427.2 55.4 427.1 55.3 C 426.9 55.1 427.0 55.0 426.7 54.7 C 426.5 54.4 426.9 54.2 426.8 54.1 C 426.8 53.9 427.2 53.9 427.2 53.9 C 427.6 54.0 427.9 54.2 428.2 54.3 C 428.2 54.3 428.4 54.8 428.3 54.9 C 428.2 55.0 428.8 55.4 429.0 55.4 C 429.2 55.4 430.3 55.4 430.3 55.4 C 429.9 55.0 429.6 54.6 429.2 54.2 C 429.4 54.1 429.6 54.0 429.8 54.0 C 429.8 54.0 431.0 55.3 431.5 55.3 C 432.0 55.3 432.6 55.3 432.6 55.3 C 432.6 55.3 432.7 54.8 432.8 54.8 C 432.9 54.7 431.8 53.5 431.8 53.5 C 431.3 53.0 430.8 52.6 430.3 52.1 C 430.3 52.1 429.3 51.6 429.1 51.8 C 428.9 52.0 429.7 52.5 429.9 52.8 C 430.0 53.0 429.7 53.2 429.7 53.2 C 429.2 53.0 428.8 52.7 428.3 52.4 C 428.3 52.4 427.8 52.2 427.4 52.0 C 427.0 51.7 426.0 51.6 425.9 51.7 C 425.7 51.8 425.8 52.1 425.8 52.3 C 425.7 52.6 426.1 53.0 425.5 52.7 C 424.8 52.3 424.3 52.0 424.1 52.0 C 424.0 52.0 423.7 52.4 423.7 52.4 C 423.6 52.5 423.4 52.6 423.3 52.8 C 423.3 52.8 423.0 53.0 422.7 52.7 C 422.3 52.4 421.5 52.8 421.5 52.8 C 421.5 52.8 420.8 51.9 420.4 51.8 C 420.0 51.6 419.4 51.5 419.0 51.6 C 418.7 51.7 419.1 52.5 419.1 52.5 C 418.8 52.3 418.4 52.1 418.1 51.9 C 417.6 51.9 417.1 51.8 416.7 51.7 C 416.7 51.7 415.7 51.8 415.9 51.9 C 416.0 52.1 416.7 52.8 416.9 52.9 C 417.0 53.1 416.7 53.4 416.4 53.1 C 416.1 52.9 415.1 52.2 415.1 52.2 C 415.1 52.2 414.3 51.8 414.0 51.8 C 413.6 51.7 413.4 52.0 413.4 52.1 C 413.4 52.2 413.4 52.8 413.4 52.8 C 413.1 52.5 412.8 52.3 412.5 52.1 C 412.5 52.1 412.0 52.4 410.6 51.8 C 410.6 51.8 410.6 51.8 410.6 51.8 Z M 432.9 52.5 C 432.8 52.6 432.1 52.1 431.4 52.0 C 430.7 51.8 430.0 51.8 430.4 52.1 C 430.9 52.4 431.3 52.6 431.4 53.0 C 431.4 53.4 431.8 54.1 432.4 54.4 C 433.1 54.6 435.3 55.3 435.5 55.0 C 435.6 54.6 435.6 54.4 435.7 54.2 C 435.9 54.0 436.4 54.8 436.4 54.8 C 436.4 54.8 437.3 54.9 438.0 54.9 C 438.7 55.0 439.4 55.0 439.4 54.9 C 439.3 54.7 439.3 54.4 439.3 54.4 C 439.3 54.4 440.0 54.8 440.5 54.9 C 441.0 55.0 440.7 54.8 440.4 54.6 C 440.2 54.4 439.1 53.9 439.3 53.9 C 439.5 53.9 440.9 54.7 441.3 54.7 C 441.7 54.8 442.4 54.8 442.4 54.8 C 442.4 54.8 441.9 54.3 441.8 54.2 C 441.8 54.1 442.5 54.1 442.6 54.2 C 442.8 54.4 443.2 54.9 443.6 54.9 C 444.9 55.0 443.8 54.1 443.9 54.1 C 444.0 54.0 444.6 54.7 445.0 54.8 C 445.4 54.9 447.5 54.8 447.5 54.7 C 447.4 54.5 448.8 55.1 448.7 54.7 C 448.6 54.3 448.6 54.1 448.5 54.0 C 448.5 53.9 448.2 53.2 448.7 53.5 C 449.2 53.8 449.1 54.5 449.5 54.7 C 450.0 55.0 451.4 55.0 451.5 54.8 C 451.5 54.5 451.0 53.8 451.2 53.8 C 451.4 53.8 453.0 54.7 452.9 54.6 C 452.9 54.4 452.2 53.7 452.1 53.6 C 452.0 53.5 451.0 52.2 450.7 52.0 C 450.3 51.9 449.0 51.4 449.5 51.8 C 449.9 52.1 450.6 52.6 450.5 52.7 C 450.3 52.9 450.2 52.9 450.0 52.8 C 449.8 52.6 449.8 52.5 449.1 52.2 C 448.3 52.0 448.3 51.7 447.9 51.7 C 447.4 51.8 447.1 51.8 447.4 52.1 C 447.7 52.4 447.6 52.8 447.3 52.8 C 446.9 52.7 446.9 52.1 445.6 51.9 C 444.3 51.6 443.6 51.6 443.6 51.8 C 443.5 52.1 444.2 52.8 443.3 52.5 C 442.5 52.2 442.6 52.0 442.0 52.0 C 441.3 52.0 441.6 52.6 441.2 52.6 C 440.8 52.6 440.7 52.6 440.7 52.6 C 440.7 52.6 440.1 51.8 439.1 51.7 C 438.1 51.7 437.8 51.6 438.6 52.2 C 439.4 52.8 438.7 52.9 438.3 52.5 C 437.9 52.1 437.1 51.8 436.7 51.8 C 436.3 51.7 437.2 52.7 437.1 52.7 C 437.0 52.8 436.5 52.7 436.4 52.4 C 436.2 52.1 435.8 52.0 435.4 51.9 C 434.9 51.7 434.2 51.8 434.3 52.0 C 434.5 52.2 435.6 52.9 434.7 52.5 C 433.8 52.2 433.1 51.7 432.6 51.7 C 432.1 51.7 433.1 52.3 432.9 52.5 C 432.9 52.5 432.9 52.5 432.9 52.5 Z M 450.7 51.7 C 449.7 51.7 453.0 54.4 453.9 54.9 C 454.3 55.1 454.6 55.2 454.8 55.2 C 454.8 54.9 454.7 54.3 454.8 53.9 C 454.9 53.3 454.1 52.7 453.8 52.1 C 453.6 51.5 454.1 52.1 454.5 52.3 C 454.9 52.5 454.5 51.0 454.6 50.4 C 454.6 49.8 453.7 48.4 453.7 47.8 C 453.6 47.3 453.2 47.9 453.3 47.0 C 453.3 46.2 453.8 47.0 454.1 48.2 C 454.4 49.5 454.6 48.2 454.7 47.7 C 454.8 47.1 454.4 45.8 454.4 45.4 C 454.5 44.9 453.8 45.1 453.8 44.4 C 453.9 43.8 454.5 44.5 454.6 43.9 C 454.7 43.2 454.1 43.0 454.0 42.5 C 453.8 42.1 454.2 42.4 454.2 42.1 C 454.3 41.8 454.5 41.5 454.4 40.7 C 454.2 40.0 454.0 40.1 454.0 39.8 C 453.9 39.5 453.9 38.9 453.9 38.9 C 454.1 39.0 454.4 39.0 454.6 39.1 C 454.6 39.1 454.6 37.9 454.7 37.6 C 454.7 37.2 454.4 36.3 454.3 36.5 C 454.2 36.6 453.7 35.7 453.8 35.6 C 453.9 35.4 454.2 34.9 454.4 34.5 C 454.5 34.1 452.8 33.9 452.6 33.8 C 452.3 33.8 451.4 33.4 451.3 33.7 C 451.2 34.0 451.6 34.3 451.3 34.2 C 451.1 34.1 451.3 35.1 451.3 35.4 C 451.3 35.6 452.0 36.1 452.0 36.1 C 452.0 36.1 452.5 36.6 452.5 37.0 C 452.5 37.5 451.4 37.2 451.4 37.2 C 451.4 37.2 451.2 37.7 451.3 38.2 C 451.3 38.8 452.2 39.8 452.4 40.0 C 452.6 40.2 451.8 39.8 451.7 40.1 C 451.6 40.4 451.3 40.8 451.4 41.0 C 451.4 41.2 452.0 41.8 452.0 41.8 C 452.0 41.8 452.3 42.7 452.3 42.9 C 452.3 43.0 451.5 42.3 451.5 42.3 C 451.5 42.3 451.3 43.6 451.2 43.8 C 451.1 44.1 451.4 44.7 451.4 44.9 C 451.5 45.2 452.4 46.2 452.3 46.5 C 452.2 46.7 451.7 45.7 451.6 45.9 C 451.5 46.2 451.3 46.6 451.3 46.8 C 451.3 46.9 451.7 47.4 451.7 47.7 C 451.8 48.0 452.5 49.0 452.5 49.5 C 452.5 49.9 452.0 49.7 452.0 49.8 C 451.9 49.9 451.2 49.4 451.2 49.7 C 451.2 50.0 451.6 50.2 451.6 50.5 C 451.6 50.8 452.1 51.3 452.0 51.5 C 451.9 51.8 451.1 50.8 451.2 51.3 C 451.3 51.4 451.2 51.3 451.2 51.7 C 451.1 51.7 450.9 51.7 450.7 51.7 C 450.7 51.7 450.7 51.7 450.7 51.7 Z M 451.4 32.9 C 451.0 33.3 451.5 33.8 451.9 33.8 C 452.2 33.8 453.2 33.9 453.5 34.1 C 453.8 34.3 454.5 35.1 454.6 34.2 C 454.7 33.3 454.5 33.1 454.2 33.1 C 454.0 33.0 453.0 32.7 453.1 32.5 C 453.2 32.2 453.4 32.1 453.6 32.0 C 453.7 32.0 454.7 31.7 454.6 31.3 C 454.4 30.8 454.1 30.4 454.1 30.4 C 454.1 30.2 454.1 30.0 454.1 29.7 C 454.1 29.7 454.7 29.2 454.6 28.7 C 454.4 28.2 454.4 27.6 454.5 27.3 C 454.5 26.9 454.4 26.5 454.2 26.5 C 454.0 26.5 453.1 26.1 453.1 26.1 C 453.1 26.1 452.9 25.6 453.0 25.3 C 453.2 25.1 453.6 25.0 453.8 25.0 C 454.0 25.0 454.5 24.9 454.6 24.5 C 454.6 24.1 455.1 22.4 454.8 22.3 C 454.6 22.1 454.2 22.2 454.1 22.1 C 454.0 21.9 453.9 20.9 454.2 20.8 C 454.4 20.6 454.9 20.5 454.9 20.2 C 454.8 19.9 455.0 19.3 454.8 19.3 C 454.7 19.4 454.6 19.2 454.3 19.3 C 454.0 19.4 453.8 18.8 453.6 18.8 C 453.5 18.7 453.4 18.3 453.4 18.3 C 453.6 18.0 453.7 17.8 453.9 17.5 C 453.9 17.5 454.4 17.6 454.5 17.8 C 454.6 17.9 454.9 17.5 455.0 17.3 C 455.0 17.1 454.9 15.9 454.9 15.9 C 454.5 16.1 454.2 16.3 453.8 16.4 C 453.7 16.2 453.6 15.9 453.5 15.7 C 453.5 15.7 454.9 15.2 454.9 14.6 C 454.9 14.0 454.9 13.4 454.9 13.4 C 454.9 13.4 454.4 13.1 454.3 13.0 C 454.3 12.9 453.1 13.5 453.1 13.5 C 452.6 13.8 452.2 14.1 451.7 14.5 C 451.7 14.5 451.2 15.3 451.4 15.5 C 451.6 15.8 452.1 15.2 452.3 15.1 C 452.6 15.1 452.8 15.4 452.8 15.4 C 452.5 15.8 452.3 16.2 452.0 16.5 C 452.0 16.5 451.8 16.9 451.5 17.2 C 451.3 17.5 451.2 18.3 451.3 18.5 C 451.4 18.7 451.7 18.8 451.9 18.9 C 452.1 19.1 452.6 18.9 452.2 19.4 C 451.9 19.8 451.5 20.1 451.5 20.3 C 451.5 20.4 452.0 21.0 452.0 21.0 C 452.1 21.2 452.2 21.3 452.3 21.5 C 452.3 21.5 452.6 22.0 452.3 22.1 C 452.0 22.3 452.3 23.3 452.3 23.3 C 452.3 23.3 451.5 23.4 451.4 23.7 C 451.2 23.9 451.0 24.4 451.2 24.8 C 451.3 25.2 452.1 25.4 452.1 25.4 C 451.9 25.6 451.7 25.8 451.5 25.9 C 451.4 26.3 451.4 26.7 451.3 27.1 C 451.3 27.1 451.4 28.1 451.5 28.1 C 451.6 28.1 452.3 27.9 452.5 28.0 C 452.7 28.0 452.9 28.5 452.7 28.6 C 452.5 28.7 451.8 29.1 451.8 29.1 C 451.8 29.1 451.4 29.4 451.4 29.7 C 451.3 30.0 451.5 30.4 451.7 30.6 C 451.8 30.7 452.3 31.2 452.3 31.2 C 452.1 31.3 451.9 31.4 451.7 31.4 C 451.7 31.4 452.0 32.2 451.4 32.9 C 451.4 32.9 451.4 32.9 451.4 32.9 Z M 452.1 12.1 C 452.2 12.2 451.7 12.7 451.5 13.4 C 451.4 14.0 451.3 14.7 451.7 14.3 C 452.0 14.0 452.2 13.7 452.6 13.8 C 453.0 13.8 453.7 13.7 453.9 13.2 C 454.2 12.6 454.9 10.5 454.5 10.2 C 454.2 10.0 454.0 9.9 453.8 9.7 C 453.5 9.5 454.3 9.2 454.3 9.2 C 454.3 9.2 454.4 8.2 454.5 7.5 C 454.5 6.8 454.6 6.0 454.4 6.1 C 454.3 6.1 454.0 6.1 454.0 6.1 C 454.0 6.1 454.4 5.4 454.5 4.9 C 454.5 4.3 454.3 4.7 454.1 4.9 C 454.0 5.2 453.4 6.2 453.4 6.0 C 453.4 5.8 454.2 4.5 454.3 4.0 C 454.4 3.6 454.3 2.9 454.3 2.9 C 454.3 2.9 453.9 3.4 453.8 3.5 C 453.7 3.5 453.7 3.1 453.7 2.8 C 453.7 2.8 453.7 2.7 453.7 2.7 C 453.8 2.6 454.4 2.1 454.0 2.0 C 453.0 2.0 452.2 2.8 452.1 2.9 C 452.0 2.9 452.7 2.2 452.5 2.1 C 452.3 2.0 450.0 2.1 449.7 2.3 C 449.4 2.4 449.3 1.8 448.6 2.2 C 447.8 2.7 447.6 2.8 447.4 2.9 C 447.3 3.0 446.2 3.7 446.2 3.4 C 446.3 3.2 447.9 2.4 447.8 2.2 C 447.8 2.0 446.4 1.9 446.0 2.1 C 445.4 2.4 444.6 3.1 444.4 3.1 C 444.2 3.1 444.3 2.2 444.1 2.4 C 443.9 2.5 443.1 3.2 443.0 3.3 C 442.8 3.5 441.4 4.7 441.4 4.9 C 441.4 5.1 441.8 5.5 442.0 5.2 C 442.2 4.8 442.5 4.4 442.9 4.2 C 443.4 4.0 443.6 4.0 443.5 4.2 C 443.4 4.3 443.1 4.4 443.4 4.7 C 443.6 4.9 443.1 5.2 443.6 5.2 C 444.1 5.2 444.6 5.1 444.8 4.8 C 445.0 4.5 445.9 4.1 446.2 4.2 C 446.5 4.2 445.4 4.8 446.1 5.0 C 446.9 5.3 447.5 5.3 448.1 5.1 C 448.6 4.9 449.4 4.1 449.6 4.4 C 449.7 4.8 449.3 5.0 449.9 4.9 C 450.6 4.9 451.5 4.3 451.9 4.3 C 452.0 4.3 452.1 4.3 452.2 4.3 C 452.2 4.5 452.2 4.6 452.2 4.6 C 452.2 4.6 451.3 5.2 451.3 6.1 C 451.3 7.1 451.2 7.3 451.8 6.6 C 452.4 5.8 452.4 6.5 452.0 6.9 C 451.6 7.3 451.4 8.0 451.3 8.4 C 451.3 8.8 452.3 8.0 452.3 8.1 C 452.3 8.2 452.3 8.6 451.9 8.7 C 451.6 8.9 451.6 9.3 451.4 9.6 C 451.3 10.0 451.4 10.8 451.6 10.6 C 451.8 10.5 452.4 9.6 452.1 10.4 C 451.8 11.2 451.3 11.7 451.3 12.2 C 451.3 12.7 451.9 11.9 452.1 12.1 C 452.1 12.1 452.1 12.1 452.1 12.1 Z M 440.7 5.2 C 441.8 5.2 443.6 2.5 443.7 2.0 C 443.9 1.5 442.8 1.8 442.2 1.7 C 441.7 1.6 441.1 2.4 440.5 2.7 C 439.8 2.9 440.5 2.4 440.7 2.0 C 440.9 1.6 439.5 2.0 438.9 1.9 C 438.3 1.9 436.8 2.8 436.3 2.8 C 435.7 2.9 436.3 3.3 435.4 3.2 C 434.6 3.2 435.5 2.7 436.8 2.4 C 438.1 2.1 436.8 1.9 436.3 1.8 C 435.9 1.7 434.5 2.1 434.1 2.1 C 433.7 2.0 433.6 2.7 433.0 2.7 C 432.4 2.6 433.3 2.0 432.8 1.9 C 432.2 1.7 431.7 2.4 431.2 2.5 C 430.7 2.7 431.2 2.3 430.9 2.3 C 430.7 2.2 430.4 2.0 429.6 2.1 C 428.9 2.3 428.9 2.5 428.5 2.5 C 428.2 2.6 427.7 2.6 427.7 2.6 C 427.9 2.4 428.0 2.1 428.2 1.9 C 428.2 1.9 427.1 1.9 426.8 1.8 C 426.5 1.8 425.5 2.1 425.6 2.2 C 425.6 2.3 424.5 2.8 424.4 2.7 C 424.3 2.6 424.0 2.3 423.8 2.1 C 423.5 2.0 422.1 3.7 421.9 3.9 C 421.7 4.2 420.7 5.1 420.9 5.2 C 421.2 5.3 421.8 4.9 421.5 5.2 C 421.2 5.4 422.4 5.2 422.7 5.2 C 423.0 5.2 423.9 4.5 423.9 4.5 C 423.9 4.5 424.6 4.0 425.1 4.0 C 425.6 4.0 424.8 5.1 424.8 5.1 C 424.8 5.1 425.2 5.3 425.8 5.2 C 426.4 5.2 427.8 4.3 428.1 4.1 C 428.4 3.9 427.6 4.7 427.9 4.8 C 428.2 4.9 428.6 5.2 428.8 5.1 C 429.0 5.1 429.8 4.5 429.8 4.5 C 429.8 4.5 430.8 4.2 431.0 4.2 C 431.1 4.2 430.1 5.0 430.1 5.0 C 430.1 5.0 431.4 5.2 431.7 5.3 C 432.0 5.4 432.7 5.1 432.9 5.1 C 433.2 5.0 434.4 4.1 434.7 4.2 C 434.9 4.3 433.8 4.8 434.0 4.9 C 434.3 5.0 434.7 5.2 434.9 5.2 C 435.0 5.2 435.6 4.8 435.9 4.8 C 436.2 4.7 437.3 4.0 437.8 4.0 C 438.2 4.0 438.0 4.5 438.1 4.5 C 438.2 4.6 437.7 5.3 438.0 5.3 C 438.4 5.3 438.5 4.9 438.9 4.9 C 439.2 4.9 439.6 4.4 439.9 4.5 C 440.1 4.6 439.2 5.4 439.7 5.3 C 439.9 5.2 439.7 5.3 440.7 5.2 C 440.7 5.2 440.7 5.2 440.7 5.2 Z M 419.4 4.4 C 419.7 4.3 419.5 4.8 419.9 5.0 C 420.3 5.1 421.0 5.2 421.1 4.8 C 421.2 4.5 421.2 4.3 421.9 3.9 C 422.5 3.5 423.4 2.8 423.3 2.6 C 423.1 2.3 422.2 1.6 421.3 2.0 C 420.5 2.3 420.2 2.5 419.7 2.7 C 419.1 3.0 420.0 2.2 420.0 2.2 C 420.0 2.2 419.3 2.1 418.7 2.0 C 418.1 2.0 417.4 1.9 417.2 2.1 C 417.0 2.2 416.6 2.5 416.6 2.5 C 416.6 2.5 416.5 2.1 416.1 2.0 C 415.7 2.0 415.7 2.2 415.6 2.4 C 415.6 2.5 415.7 3.1 415.5 3.1 C 415.3 3.1 415.3 2.3 415.1 2.2 C 414.8 2.1 414.0 2.2 414.0 2.2 C 414.0 2.2 413.7 2.6 413.6 2.7 C 413.4 2.8 412.7 2.9 412.8 2.7 C 412.9 2.6 413.3 2.1 413.0 2.0 C 411.9 2.0 411.3 2.8 411.2 2.9 C 411.1 2.9 411.7 2.2 411.5 2.1 C 411.3 2.0 409.0 2.1 408.7 2.3 C 408.5 2.4 408.2 1.8 407.5 2.2 C 406.9 2.7 406.7 2.8 406.5 2.9 C 406.4 3.0 405.4 3.7 405.4 3.4 C 405.4 3.2 406.9 2.4 406.8 2.2 C 406.7 2.0 405.3 1.9 404.9 2.1 C 404.4 2.4 403.8 3.1 403.6 3.1 C 403.4 3.1 403.3 2.2 403.1 2.4 C 402.9 2.5 402.3 3.2 402.2 3.3 C 402.1 3.5 400.8 4.7 400.9 4.9 C 400.9 5.1 401.4 5.5 401.5 5.2 C 401.7 4.8 401.9 4.4 402.3 4.2 C 402.7 4.0 402.9 4.0 402.8 4.2 C 402.8 4.3 402.5 4.4 402.8 4.7 C 403.1 4.9 402.6 5.2 403.1 5.2 C 403.6 5.2 404.1 5.1 404.3 4.8 C 404.4 4.5 405.2 4.1 405.5 4.2 C 405.8 4.2 404.8 4.8 405.6 5.0 C 406.5 5.3 407.1 5.3 407.6 5.1 C 408.1 4.9 408.7 4.1 408.9 4.4 C 409.2 4.8 408.8 5.0 409.4 4.9 C 410.1 4.9 410.8 4.3 411.3 4.3 C 411.7 4.3 411.8 4.3 411.8 4.3 C 411.8 4.3 410.9 5.2 411.8 5.2 C 412.7 5.2 412.9 5.3 413.2 4.7 C 413.5 4.1 414.2 4.1 413.9 4.5 C 413.7 4.9 414.0 5.1 414.3 5.2 C 414.6 5.2 415.5 4.2 415.7 4.2 C 415.8 4.2 416.1 4.2 415.7 4.6 C 415.3 4.9 415.6 4.9 415.8 5.1 C 416.0 5.2 417.0 5.1 417.1 4.9 C 417.2 4.7 417.4 4.1 417.7 4.4 C 418.0 4.7 417.7 5.2 418.3 5.2 C 418.9 5.2 418.9 4.6 419.4 4.4 C 419.4 4.4 419.4 4.4 419.4 4.4 Z M 399.9 5.1 C 400.1 5.5 400.9 5.0 401.1 4.6 C 401.4 4.3 401.9 3.3 402.3 3.0 C 402.7 2.7 403.8 2.0 403.1 1.9 C 402.3 1.8 401.9 2.0 401.7 2.3 C 401.6 2.5 400.6 3.5 400.5 3.4 C 400.3 3.3 400.3 3.1 400.3 2.9 C 400.4 2.8 400.8 1.8 400.3 1.9 C 399.7 2.1 399.1 2.4 399.1 2.4 C 398.9 2.4 398.7 2.4 398.5 2.4 C 398.5 2.4 398.3 1.8 397.8 1.9 C 397.2 2.1 396.7 2.1 396.4 2.0 C 396.1 2.0 395.6 2.1 395.4 2.3 C 395.2 2.5 394.1 3.4 394.1 3.4 C 394.1 3.4 393.4 3.6 393.3 3.5 C 393.2 3.3 393.5 2.9 393.7 2.7 C 393.8 2.5 394.1 2.0 393.8 1.9 C 393.6 1.9 392.4 1.4 392.0 1.7 C 391.5 1.9 391.3 2.3 391.1 2.4 C 390.8 2.5 389.8 2.6 389.9 2.3 C 390.0 2.1 390.4 1.6 390.1 1.6 C 389.8 1.7 389.3 1.5 389.2 1.7 C 389.1 1.8 388.8 1.9 388.6 2.2 C 388.4 2.5 387.6 2.7 387.4 2.9 C 387.2 3.0 386.7 3.1 386.7 3.1 C 386.6 2.9 386.5 2.8 386.5 2.6 C 386.5 2.6 387.2 2.1 387.4 2.0 C 387.6 1.9 387.6 1.6 387.4 1.5 C 387.3 1.5 386.1 1.6 386.1 1.6 C 385.8 2.0 385.6 2.3 385.3 2.7 C 384.9 2.8 384.6 2.9 384.3 3.0 C 384.3 3.0 385.3 1.6 384.8 1.6 C 384.3 1.6 383.7 1.6 383.7 1.6 C 383.7 1.6 382.8 2.1 382.6 2.2 C 382.4 2.2 381.6 3.4 381.6 3.4 C 381.3 3.9 381.0 4.3 380.7 4.8 C 380.7 4.8 381.0 5.3 381.5 5.1 C 382.0 4.9 382.1 4.4 382.3 4.2 C 382.5 3.9 383.1 3.7 383.1 3.7 C 383.2 4.0 383.3 4.2 383.3 4.5 C 383.3 4.5 383.4 4.7 383.4 5.0 C 383.5 5.2 384.2 5.3 384.5 5.2 C 384.8 5.1 385.2 4.8 385.7 4.6 C 386.1 4.4 386.4 3.9 386.5 4.3 C 386.6 4.6 386.5 5.0 386.7 5.0 C 386.9 5.0 387.9 4.5 387.9 4.5 C 388.2 4.4 388.5 4.3 388.8 4.2 C 388.8 4.2 389.5 3.9 389.4 4.2 C 389.3 4.5 390.6 4.2 390.6 4.2 C 390.6 4.2 389.9 5.0 390.1 5.1 C 390.3 5.3 390.6 5.5 391.1 5.3 C 391.7 5.2 392.6 4.4 392.6 4.4 C 392.6 4.6 392.6 4.8 392.6 5.0 C 393.0 5.1 393.4 5.1 393.8 5.2 C 393.8 5.2 394.8 5.1 394.9 5.0 C 395.0 4.9 395.4 4.2 395.6 4.0 C 395.8 3.8 396.4 3.6 396.3 3.8 C 396.2 4.0 396.2 4.7 396.2 4.7 C 396.2 4.7 396.3 5.1 396.5 5.1 C 396.8 5.2 397.4 5.0 397.6 4.8 C 397.8 4.7 398.7 4.2 398.7 4.2 C 398.6 4.4 398.6 4.6 398.6 4.8 C 398.6 4.8 399.6 4.5 399.9 5.1 C 399.9 5.1 399.9 5.1 399.9 5.1 Z M 380.0 5.2 C 381.1 5.2 382.2 2.5 382.2 2.0 C 382.1 1.5 381.2 1.8 380.6 1.7 C 380.0 1.6 379.6 2.4 379.1 2.7 C 378.5 2.9 379.0 2.4 379.1 2.0 C 379.2 1.6 377.9 2.0 377.3 1.9 C 376.7 1.9 375.5 2.8 374.9 2.8 C 374.4 2.9 375.1 3.3 374.2 3.2 C 373.3 3.2 374.1 2.7 375.3 2.4 C 376.5 2.1 375.2 1.9 374.7 1.8 C 374.2 1.7 373.0 2.1 372.6 2.1 C 372.1 2.0 372.3 2.7 371.6 2.7 C 371.0 2.6 371.7 2.0 371.1 1.9 C 370.5 1.7 370.2 2.4 369.8 2.5 C 369.4 2.7 369.7 2.3 369.4 2.3 C 369.2 2.2 368.8 2.0 368.1 2.1 C 367.4 2.3 367.4 2.5 367.1 2.5 C 366.8 2.6 366.3 2.6 366.3 2.6 C 366.4 2.4 366.5 2.1 366.6 1.9 C 366.6 1.9 365.5 1.9 365.2 1.8 C 364.9 1.8 363.9 2.1 364.0 2.2 C 364.2 2.3 363.1 2.8 363.0 2.7 C 362.9 2.6 362.5 2.3 362.2 2.1 C 361.9 2.0 361.0 3.7 360.9 3.9 C 360.7 4.2 359.9 5.1 360.2 5.2 C 360.5 5.3 361.0 4.9 360.8 5.2 C 360.6 5.4 361.7 5.2 362.0 5.2 C 362.3 5.2 363.0 4.5 363.0 4.5 C 363.0 4.5 363.6 4.0 364.1 4.0 C 364.5 4.0 364.0 5.1 364.0 5.1 C 364.0 5.1 364.5 5.3 365.1 5.2 C 365.7 5.2 366.8 4.3 367.1 4.1 C 367.3 3.9 366.8 4.7 367.1 4.8 C 367.4 4.9 367.9 5.2 368.1 5.1 C 368.3 5.1 368.9 4.5 368.9 4.5 C 368.9 4.5 369.8 4.2 370.0 4.2 C 370.2 4.2 369.4 5.0 369.4 5.0 C 369.4 5.0 370.8 5.2 371.0 5.3 C 371.3 5.4 371.9 5.1 372.2 5.1 C 372.5 5.0 373.4 4.1 373.7 4.2 C 374.0 4.3 373.0 4.8 373.2 4.9 C 373.5 5.0 374.0 5.2 374.2 5.2 C 374.3 5.2 374.8 4.8 375.1 4.8 C 375.4 4.7 376.3 4.0 376.7 4.0 C 377.2 4.0 377.1 4.5 377.2 4.5 C 377.3 4.6 377.0 5.3 377.3 5.3 C 377.7 5.3 377.7 4.9 378.1 4.9 C 378.4 4.9 378.7 4.4 379.0 4.5 C 379.3 4.6 378.5 5.4 379.0 5.3 C 379.2 5.2 379.0 5.3 380.0 5.2 C 380.0 5.2 380.0 5.2 380.0 5.2 Z M 359.4 5.1 C 359.7 5.5 360.4 5.0 360.6 4.6 C 360.7 4.3 361.1 3.3 361.5 3.0 C 361.8 2.7 362.8 2.0 362.0 1.9 C 361.2 1.8 360.9 2.0 360.7 2.3 C 360.6 2.5 359.8 3.5 359.7 3.4 C 359.5 3.3 359.4 3.1 359.4 2.9 C 359.5 2.8 359.7 1.8 359.2 1.9 C 358.7 2.1 358.2 2.4 358.2 2.4 C 357.9 2.4 357.7 2.4 357.5 2.4 C 357.5 2.4 357.3 1.8 356.7 1.9 C 356.2 2.1 355.7 2.1 355.3 2.0 C 355.0 2.0 354.6 2.1 354.4 2.3 C 354.2 2.5 353.3 3.4 353.3 3.4 C 353.3 3.4 352.7 3.6 352.5 3.5 C 352.4 3.3 352.6 2.9 352.7 2.7 C 352.9 2.5 353.1 2.0 352.8 1.9 C 352.5 1.9 351.2 1.4 350.9 1.7 C 350.5 1.9 350.3 2.3 350.1 2.4 C 349.9 2.5 348.9 2.6 348.9 2.3 C 349.0 2.1 349.3 1.6 349.0 1.6 C 348.7 1.7 348.2 1.5 348.1 1.7 C 348.0 1.8 347.7 1.9 347.6 2.2 C 347.4 2.5 346.7 2.7 346.5 2.9 C 346.3 3.0 345.9 3.1 345.9 3.1 C 345.7 2.9 345.6 2.8 345.5 2.6 C 345.5 2.6 346.1 2.1 346.3 2.0 C 346.6 1.9 346.5 1.6 346.3 1.5 C 346.1 1.5 345.0 1.6 345.0 1.6 C 344.8 2.0 344.6 2.3 344.4 2.7 C 344.0 2.8 343.7 2.9 343.4 3.0 C 343.4 3.0 344.2 1.6 343.7 1.6 C 343.2 1.6 342.6 1.6 342.6 1.6 C 342.6 1.6 341.8 2.1 341.6 2.2 C 341.4 2.2 340.8 3.4 340.8 3.4 C 340.6 3.9 340.4 4.3 340.2 4.8 C 340.2 4.8 340.6 5.3 341.0 5.1 C 341.5 4.9 341.4 4.4 341.6 4.2 C 341.8 3.9 342.4 3.7 342.4 3.7 C 342.5 4.0 342.6 4.2 342.7 4.5 C 342.7 4.5 342.8 4.7 342.9 5.0 C 343.0 5.2 343.8 5.3 344.0 5.2 C 344.3 5.1 344.7 4.8 345.1 4.6 C 345.5 4.4 345.7 3.9 345.8 4.3 C 346.0 4.6 346.0 5.0 346.2 5.0 C 346.3 5.0 347.3 4.5 347.3 4.5 C 347.6 4.4 347.9 4.3 348.1 4.2 C 348.1 4.2 348.8 3.9 348.7 4.2 C 348.7 4.5 350.0 4.2 350.0 4.2 C 350.0 4.2 349.4 5.0 349.6 5.1 C 349.8 5.3 350.2 5.5 350.7 5.3 C 351.2 5.2 352.0 4.4 352.0 4.4 C 352.0 4.6 352.1 4.8 352.1 5.0 C 352.5 5.1 352.9 5.1 353.3 5.2 C 353.3 5.2 354.3 5.1 354.4 5.0 C 354.4 4.9 354.7 4.2 354.9 4.0 C 355.0 3.8 355.7 3.6 355.6 3.8 C 355.5 4.0 355.6 4.7 355.6 4.7 C 355.6 4.7 355.8 5.1 356.0 5.1 C 356.3 5.2 356.9 5.0 357.1 4.8 C 357.3 4.7 358.0 4.2 358.0 4.2 C 358.0 4.4 358.0 4.6 358.0 4.8 C 358.0 4.8 359.0 4.5 359.4 5.1 C 359.4 5.1 359.4 5.1 359.4 5.1 Z M 339.6 5.2 C 340.6 5.2 341.3 2.5 341.1 2.0 C 341.0 1.5 340.1 1.8 339.5 1.7 C 338.9 1.6 338.7 2.4 338.2 2.7 C 337.7 2.9 338.1 2.4 338.1 2.0 C 338.1 1.6 336.9 2.0 336.3 1.9 C 335.6 1.9 334.6 2.8 334.0 2.8 C 333.5 2.9 334.3 3.3 333.4 3.2 C 332.5 3.2 333.2 2.7 334.3 2.4 C 335.5 2.1 334.2 1.9 333.6 1.8 C 333.1 1.7 332.0 2.1 331.5 2.1 C 331.1 2.0 331.3 2.7 330.7 2.7 C 330.1 2.6 330.7 2.0 330.1 1.9 C 329.5 1.7 329.2 2.4 328.8 2.5 C 328.4 2.7 328.7 2.3 328.4 2.3 C 328.2 2.2 327.8 2.0 327.1 2.1 C 326.4 2.3 326.5 2.5 326.2 2.5 C 325.9 2.6 325.4 2.6 325.4 2.6 C 325.4 2.4 325.5 2.1 325.5 1.9 C 325.5 1.9 324.4 1.9 324.1 1.8 C 323.8 1.8 322.9 2.1 323.0 2.2 C 323.2 2.3 322.2 2.8 322.1 2.7 C 322.0 2.6 321.5 2.3 321.2 2.1 C 320.9 2.0 320.3 3.7 320.2 3.9 C 320.1 4.2 319.5 5.1 319.7 5.2 C 320.1 5.3 320.5 4.9 320.3 5.2 C 320.2 5.4 321.3 5.2 321.5 5.2 C 321.8 5.2 322.4 4.5 322.4 4.5 C 322.4 4.5 322.9 4.0 323.4 4.0 C 323.9 4.0 323.6 5.1 323.6 5.1 C 323.6 5.1 324.0 5.3 324.6 5.2 C 325.2 5.2 326.2 4.3 326.4 4.1 C 326.6 3.9 326.2 4.7 326.6 4.8 C 326.9 4.9 327.4 5.2 327.6 5.1 C 327.8 5.1 328.3 4.5 328.3 4.5 C 328.3 4.5 329.2 4.2 329.4 4.2 C 329.5 4.2 328.9 5.0 328.9 5.0 C 328.9 5.0 330.3 5.2 330.6 5.3 C 330.9 5.4 331.5 5.1 331.7 5.1 C 332.0 5.0 332.8 4.1 333.1 4.2 C 333.3 4.3 332.4 4.8 332.7 4.9 C 333.0 5.0 333.5 5.2 333.7 5.2 C 333.9 5.2 334.2 4.8 334.6 4.8 C 334.9 4.7 335.6 4.0 336.1 4.0 C 336.5 4.0 336.5 4.5 336.6 4.5 C 336.8 4.6 336.6 5.3 336.9 5.3 C 337.2 5.3 337.2 4.9 337.5 4.9 C 337.9 4.9 338.1 4.4 338.4 4.5 C 338.7 4.6 338.1 5.4 338.5 5.3 C 338.7 5.2 338.5 5.3 339.6 5.2 C 339.6 5.2 339.6 5.2 339.6 5.2 Z M 317.9 4.4 C 318.1 4.3 318.1 4.8 318.6 5.0 C 319.1 5.1 319.8 5.2 319.8 4.8 C 319.8 4.5 319.7 4.3 320.1 3.9 C 320.6 3.5 321.2 2.8 320.9 2.6 C 320.6 2.3 319.4 1.6 318.7 2.0 C 318.1 2.3 317.8 2.5 317.4 2.7 C 316.9 3.0 317.5 2.2 317.5 2.2 C 317.5 2.2 316.7 2.1 316.1 2.0 C 315.5 2.0 314.7 1.9 314.6 2.1 C 314.5 2.2 314.2 2.5 314.2 2.5 C 314.2 2.5 314.0 2.1 313.5 2.0 C 313.1 2.0 313.2 2.2 313.2 2.4 C 313.2 2.5 313.5 3.1 313.3 3.1 C 313.2 3.1 312.9 2.3 312.6 2.2 C 312.3 2.1 311.5 2.2 311.5 2.2 C 311.5 2.2 311.4 2.6 311.3 2.7 C 311.2 2.8 310.4 2.9 310.5 2.7 C 310.5 2.6 310.7 2.1 310.4 2.0 C 309.3 2.0 309.1 2.8 309.0 2.9 C 308.9 2.9 309.1 2.2 308.9 2.1 C 308.7 2.0 306.4 2.1 306.2 2.3 C 306.1 2.4 305.5 1.8 305.0 2.2 C 304.6 2.7 304.4 2.8 304.3 2.9 C 304.2 3.0 303.6 3.7 303.5 3.4 C 303.3 3.2 304.5 2.4 304.3 2.2 C 304.1 2.0 302.7 1.9 302.4 2.1 C 302.0 2.4 301.7 3.1 301.5 3.1 C 301.3 3.1 300.7 2.2 300.6 2.4 C 300.5 2.5 300.2 3.2 300.2 3.3 C 300.1 3.5 299.4 4.7 299.6 4.9 C 299.7 5.1 300.4 5.5 300.4 5.2 C 300.4 4.8 300.3 4.4 300.7 4.2 C 301.0 4.0 301.2 4.0 301.2 4.2 C 301.2 4.3 301.0 4.4 301.4 4.7 C 301.8 4.9 301.5 5.2 302.0 5.2 C 302.4 5.2 302.9 5.1 302.9 4.8 C 303.0 4.5 303.6 4.1 303.9 4.2 C 304.2 4.2 303.5 4.8 304.4 5.0 C 305.4 5.3 306.0 5.3 306.4 5.1 C 306.7 4.9 307.1 4.1 307.4 4.4 C 307.8 4.8 307.5 5.0 308.2 4.9 C 308.8 4.9 309.3 4.3 309.7 4.3 C 310.2 4.3 310.3 4.3 310.3 4.3 C 310.3 4.3 309.7 5.2 310.7 5.2 C 311.6 5.2 311.8 5.3 311.8 4.7 C 311.8 4.1 312.6 4.1 312.4 4.5 C 312.3 4.9 312.8 5.1 313.1 5.2 C 313.4 5.2 313.9 4.2 314.0 4.2 C 314.2 4.2 314.5 4.2 314.3 4.6 C 314.0 4.9 314.3 4.9 314.6 5.1 C 314.8 5.2 315.7 5.1 315.8 4.9 C 315.9 4.7 315.7 4.1 316.2 4.4 C 316.6 4.7 316.6 5.2 317.1 5.2 C 317.7 5.2 317.5 4.6 317.9 4.4 C 317.9 4.4 317.9 4.4 317.9 4.4 Z M 298.7 5.1 C 299.1 5.5 299.6 5.0 299.7 4.6 C 299.8 4.3 299.9 3.3 300.2 3.0 C 300.4 2.7 301.2 2.0 300.4 1.9 C 299.6 1.8 299.3 2.0 299.2 2.3 C 299.2 2.5 298.7 3.5 298.5 3.4 C 298.3 3.3 298.1 3.1 298.1 2.9 C 298.1 2.8 298.1 1.8 297.6 1.9 C 297.2 2.1 296.7 2.4 296.7 2.4 C 296.5 2.4 296.3 2.4 296.0 2.4 C 296.0 2.4 295.6 1.8 295.1 1.9 C 294.6 2.1 294.1 2.1 293.8 2.0 C 293.4 2.0 293.1 2.1 292.9 2.3 C 292.8 2.5 292.1 3.4 292.1 3.4 C 292.1 3.4 291.5 3.6 291.4 3.5 C 291.2 3.3 291.2 2.9 291.3 2.7 C 291.5 2.5 291.5 2.0 291.2 1.9 C 290.9 1.9 289.5 1.4 289.2 1.7 C 288.9 1.9 288.9 2.3 288.7 2.4 C 288.5 2.5 287.5 2.6 287.4 2.3 C 287.4 2.1 287.6 1.6 287.3 1.6 C 287.0 1.7 286.5 1.5 286.4 1.7 C 286.4 1.8 286.2 1.9 286.1 2.2 C 286.0 2.5 285.3 2.7 285.2 2.9 C 285.0 3.0 284.6 3.1 284.6 3.1 C 284.4 2.9 284.3 2.8 284.1 2.6 C 284.1 2.6 284.6 2.1 284.8 2.0 C 285.0 1.9 284.8 1.6 284.6 1.5 C 284.4 1.5 283.3 1.6 283.3 1.6 C 283.2 2.0 283.1 2.3 283.0 2.7 C 282.7 2.8 282.4 2.9 282.1 3.0 C 282.1 3.0 282.6 1.6 282.0 1.6 C 281.5 1.6 280.9 1.6 280.9 1.6 C 280.9 1.6 280.2 2.1 280.1 2.2 C 279.9 2.2 279.6 3.4 279.6 3.4 C 279.5 3.9 279.5 4.3 279.4 4.8 C 279.4 4.8 279.9 5.3 280.3 5.1 C 280.7 4.9 280.5 4.4 280.6 4.2 C 280.7 3.9 281.3 3.7 281.3 3.7 C 281.5 4.0 281.7 4.2 281.8 4.5 C 281.8 4.5 282.0 4.7 282.2 5.0 C 282.3 5.2 283.1 5.3 283.3 5.2 C 283.6 5.1 283.9 4.8 284.2 4.6 C 284.6 4.4 284.6 3.9 284.9 4.3 C 285.2 4.6 285.2 5.0 285.4 5.0 C 285.6 5.0 286.4 4.5 286.4 4.5 C 286.7 4.4 286.9 4.3 287.2 4.2 C 287.2 4.2 287.8 3.9 287.8 4.2 C 287.8 4.5 289.0 4.2 289.0 4.2 C 289.0 4.2 288.6 5.0 288.9 5.1 C 289.1 5.3 289.5 5.5 290.0 5.3 C 290.5 5.2 291.1 4.4 291.1 4.4 C 291.2 4.6 291.3 4.8 291.4 5.0 C 291.8 5.1 292.2 5.1 292.6 5.2 C 292.6 5.2 293.6 5.1 293.6 5.0 C 293.6 4.9 293.7 4.2 293.8 4.0 C 294.0 3.8 294.5 3.6 294.5 3.8 C 294.5 4.0 294.8 4.7 294.8 4.7 C 294.8 4.7 295.1 5.1 295.3 5.1 C 295.6 5.2 296.1 5.0 296.3 4.8 C 296.4 4.7 297.1 4.2 297.1 4.2 C 297.1 4.4 297.2 4.6 297.2 4.8 C 297.2 4.8 298.1 4.5 298.7 5.1 C 298.7 5.1 298.7 5.1 298.7 5.1 Z M 278.9 5.2 C 279.9 5.2 279.8 2.5 279.6 2.0 C 279.3 1.5 278.5 1.8 277.9 1.7 C 277.2 1.6 277.2 2.4 276.8 2.7 C 276.3 2.9 276.6 2.4 276.5 2.0 C 276.4 1.6 275.3 2.0 274.7 1.9 C 274.0 1.9 273.2 2.8 272.7 2.8 C 272.2 2.9 273.0 3.3 272.1 3.2 C 271.2 3.2 271.8 2.7 272.9 2.4 C 274.0 2.1 272.6 1.9 272.0 1.8 C 271.5 1.7 270.4 2.1 270.0 2.1 C 269.5 2.0 270.0 2.7 269.3 2.7 C 268.7 2.6 269.1 2.0 268.5 1.9 C 267.8 1.7 267.8 2.4 267.4 2.5 C 267.1 2.7 267.2 2.3 266.9 2.3 C 266.6 2.2 266.2 2.0 265.6 2.1 C 264.9 2.3 265.0 2.5 264.8 2.5 C 264.5 2.6 264.0 2.6 264.0 2.6 C 264.0 2.4 264.0 2.1 264.0 1.9 C 264.0 1.9 262.8 1.9 262.5 1.8 C 262.1 1.8 261.3 2.1 261.5 2.2 C 261.7 2.3 260.9 2.8 260.7 2.7 C 260.5 2.6 260.0 2.3 259.6 2.1 C 259.3 2.0 259.1 3.7 259.1 3.9 C 259.1 4.2 258.7 5.1 259.0 5.2 C 259.4 5.3 259.7 4.9 259.6 5.2 C 259.5 5.4 260.6 5.2 260.8 5.2 C 261.1 5.2 261.6 4.5 261.6 4.5 C 261.6 4.5 261.9 4.0 262.4 4.0 C 262.8 4.0 262.8 5.1 262.8 5.1 C 262.8 5.1 263.4 5.3 263.9 5.2 C 264.5 5.2 265.3 4.3 265.4 4.1 C 265.6 3.9 265.4 4.7 265.8 4.8 C 266.2 4.9 266.7 5.2 266.9 5.1 C 267.0 5.1 267.4 4.5 267.4 4.5 C 267.4 4.5 268.2 4.2 268.4 4.2 C 268.6 4.2 268.1 5.0 268.1 5.0 C 268.1 5.0 269.6 5.2 269.9 5.3 C 270.2 5.4 270.8 5.1 271.0 5.1 C 271.2 5.0 271.7 4.1 272.1 4.2 C 272.4 4.3 271.6 4.8 271.9 4.9 C 272.2 5.0 272.8 5.2 273.0 5.2 C 273.2 5.2 273.5 4.8 273.7 4.8 C 274.0 4.7 274.6 4.0 275.0 4.0 C 275.5 4.0 275.6 4.5 275.8 4.5 C 275.9 4.6 275.9 5.3 276.2 5.3 C 276.6 5.3 276.4 4.9 276.8 4.9 C 277.1 4.9 277.2 4.4 277.5 4.5 C 277.8 4.6 277.5 5.4 277.9 5.3 C 278.0 5.2 277.9 5.3 278.9 5.2 C 278.9 5.2 278.9 5.2 278.9 5.2 Z M 258.2 5.1 C 258.6 5.5 259.1 5.0 259.1 4.6 C 259.1 4.3 259.1 3.3 259.3 3.0 C 259.5 2.7 260.2 2.0 259.3 1.9 C 258.5 1.8 258.3 2.0 258.3 2.3 C 258.2 2.5 257.9 3.5 257.7 3.4 C 257.5 3.3 257.3 3.1 257.2 2.9 C 257.2 2.8 257.0 1.8 256.6 1.9 C 256.1 2.1 255.7 2.4 255.7 2.4 C 255.5 2.4 255.3 2.4 255.1 2.4 C 255.1 2.4 254.6 1.8 254.1 1.9 C 253.6 2.1 253.1 2.1 252.7 2.0 C 252.4 2.0 252.0 2.1 252.0 2.3 C 251.9 2.5 251.3 3.4 251.3 3.4 C 251.3 3.4 250.8 3.6 250.6 3.5 C 250.4 3.3 250.3 2.9 250.4 2.7 C 250.5 2.5 250.5 2.0 250.2 1.9 C 249.8 1.9 248.4 1.4 248.1 1.7 C 247.8 1.9 247.9 2.3 247.7 2.4 C 247.5 2.5 246.5 2.6 246.4 2.3 C 246.4 2.1 246.5 1.6 246.2 1.6 C 245.9 1.7 245.3 1.5 245.3 1.7 C 245.3 1.8 245.1 1.9 245.1 2.2 C 245.0 2.5 244.4 2.7 244.3 2.9 C 244.2 3.0 243.7 3.1 243.7 3.1 C 243.5 2.9 243.4 2.8 243.2 2.6 C 243.2 2.6 243.6 2.1 243.7 2.0 C 243.9 1.9 243.6 1.6 243.5 1.5 C 243.3 1.5 242.2 1.6 242.2 1.6 C 242.2 2.0 242.1 2.3 242.1 2.7 C 241.8 2.8 241.5 2.9 241.2 3.0 C 241.2 3.0 241.4 1.6 240.9 1.6 C 240.4 1.6 239.8 1.6 239.8 1.6 C 239.8 1.6 239.2 2.1 239.1 2.2 C 238.9 2.2 238.8 3.4 238.8 3.4 C 238.8 3.9 238.8 4.3 238.9 4.8 C 238.9 4.8 239.5 5.3 239.8 5.1 C 240.2 4.9 239.9 4.4 240.0 4.2 C 240.0 3.9 240.6 3.7 240.6 3.7 C 240.8 4.0 241.0 4.2 241.2 4.5 C 241.2 4.5 241.4 4.7 241.6 5.0 C 241.9 5.2 242.6 5.3 242.9 5.2 C 243.1 5.1 243.4 4.8 243.7 4.6 C 244.0 4.4 243.9 3.9 244.3 4.3 C 244.6 4.6 244.7 5.0 244.9 5.0 C 245.1 5.0 245.8 4.5 245.8 4.5 C 246.1 4.4 246.3 4.3 246.5 4.2 C 246.5 4.2 247.1 3.9 247.1 4.2 C 247.2 4.5 248.3 4.2 248.3 4.2 C 248.3 4.2 248.1 5.0 248.4 5.1 C 248.7 5.3 249.1 5.5 249.6 5.3 C 250.1 5.2 250.5 4.4 250.5 4.4 C 250.6 4.6 250.7 4.8 250.9 5.0 C 251.3 5.1 251.7 5.1 252.1 5.2 C 252.1 5.2 253.1 5.1 253.1 5.0 C 253.1 4.9 253.1 4.2 253.2 4.0 C 253.2 3.8 253.8 3.6 253.8 3.8 C 253.8 4.0 254.2 4.7 254.2 4.7 C 254.2 4.7 254.6 5.1 254.9 5.1 C 255.1 5.2 255.6 5.0 255.8 4.8 C 255.9 4.7 256.4 4.2 256.4 4.2 C 256.5 4.4 256.6 4.6 256.7 4.8 C 256.7 4.8 257.5 4.5 258.2 5.1 C 258.2 5.1 258.2 5.1 258.2 5.1 Z M 238.4 5.2 C 239.4 5.2 238.9 2.5 238.5 2.0 C 238.1 1.5 237.4 1.8 236.8 1.7 C 236.1 1.6 236.3 2.4 235.9 2.7 C 235.5 2.9 235.6 2.4 235.5 2.0 C 235.3 1.6 234.2 2.0 233.6 1.9 C 233.0 1.9 232.3 2.8 231.8 2.8 C 231.3 2.9 232.2 3.3 231.3 3.2 C 230.4 3.2 230.9 2.7 231.9 2.4 C 233.0 2.1 231.5 1.9 230.9 1.8 C 230.4 1.7 229.4 2.1 228.9 2.1 C 228.5 2.0 229.0 2.7 228.4 2.7 C 227.7 2.6 228.1 2.0 227.4 1.9 C 226.7 1.7 226.8 2.4 226.5 2.5 C 226.1 2.7 226.2 2.3 225.9 2.3 C 225.6 2.2 225.2 2.0 224.5 2.1 C 223.9 2.3 224.1 2.5 223.8 2.5 C 223.5 2.6 223.0 2.6 223.0 2.6 C 223.0 2.4 222.9 2.1 222.9 1.9 C 222.9 1.9 221.7 1.9 221.4 1.8 C 221.1 1.8 220.3 2.1 220.5 2.2 C 220.7 2.3 220.0 2.8 219.8 2.7 C 219.6 2.6 219.0 2.3 218.6 2.1 C 218.2 2.0 218.4 3.7 218.4 3.9 C 218.4 4.2 218.2 5.1 218.6 5.2 C 218.9 5.3 219.2 4.9 219.1 5.2 C 219.1 5.4 220.1 5.2 220.4 5.2 C 220.7 5.2 221.0 4.5 221.0 4.5 C 221.0 4.5 221.2 4.0 221.7 4.0 C 222.1 4.0 222.3 5.1 222.3 5.1 C 222.3 5.1 222.9 5.3 223.5 5.2 C 224.0 5.2 224.6 4.3 224.7 4.1 C 224.9 3.9 224.9 4.7 225.2 4.8 C 225.6 4.9 226.2 5.2 226.4 5.1 C 226.6 5.1 226.8 4.5 226.8 4.5 C 226.8 4.5 227.6 4.2 227.7 4.2 C 227.9 4.2 227.6 5.0 227.6 5.0 C 227.6 5.0 229.2 5.2 229.5 5.3 C 229.8 5.4 230.3 5.1 230.5 5.1 C 230.7 5.0 231.1 4.1 231.4 4.2 C 231.7 4.3 231.1 4.8 231.4 4.9 C 231.7 5.0 232.4 5.2 232.5 5.2 C 232.7 5.2 232.9 4.8 233.2 4.8 C 233.5 4.7 233.9 4.0 234.4 4.0 C 234.8 4.0 235.0 4.5 235.2 4.5 C 235.3 4.6 235.4 5.3 235.8 5.3 C 236.1 5.3 235.9 4.9 236.2 4.9 C 236.6 4.9 236.6 4.4 236.9 4.5 C 237.3 4.6 237.0 5.4 237.4 5.3 C 237.6 5.2 237.4 5.3 238.4 5.2 C 238.4 5.2 238.4 5.2 238.4 5.2 Z M 216.4 4.4 C 216.6 4.3 216.8 4.8 217.3 5.0 C 217.9 5.1 218.6 5.2 218.5 4.8 C 218.3 4.5 218.1 4.3 218.4 3.9 C 218.7 3.5 219.0 2.8 218.6 2.6 C 218.1 2.3 216.5 1.6 216.1 2.0 C 215.6 2.3 215.4 2.5 215.1 2.7 C 214.7 3.0 214.9 2.2 214.9 2.2 C 214.9 2.2 214.1 2.1 213.5 2.0 C 212.8 2.0 212.1 1.9 212.0 2.1 C 212.0 2.2 211.8 2.5 211.8 2.5 C 211.8 2.5 211.4 2.1 210.9 2.0 C 210.5 2.0 210.6 2.2 210.7 2.4 C 210.8 2.5 211.4 3.1 211.2 3.1 C 211.0 3.1 210.4 2.3 210.0 2.2 C 209.7 2.1 209.0 2.2 209.0 2.2 C 209.0 2.2 209.1 2.6 209.0 2.7 C 208.9 2.8 208.2 2.9 208.2 2.7 C 208.1 2.6 208.2 2.1 207.8 2.0 C 206.6 2.0 206.9 2.8 206.8 2.9 C 206.7 2.9 206.6 2.2 206.3 2.1 C 206.1 2.0 203.8 2.1 203.7 2.3 C 203.6 2.4 202.8 1.8 202.5 2.2 C 202.3 2.7 202.2 2.8 202.1 2.9 C 202.1 3.0 201.7 3.7 201.5 3.4 C 201.3 3.2 202.0 2.4 201.7 2.2 C 201.5 2.0 200.1 1.9 199.8 2.1 C 199.5 2.4 199.5 3.1 199.3 3.1 C 199.1 3.1 198.2 2.2 198.2 2.4 C 198.1 2.5 198.1 3.2 198.2 3.3 C 198.2 3.5 198.1 4.7 198.3 4.9 C 198.4 5.1 199.3 5.5 199.2 5.2 C 199.0 4.8 198.8 4.4 199.1 4.2 C 199.3 4.0 199.5 4.0 199.6 4.2 C 199.7 4.3 199.5 4.4 200.0 4.7 C 200.6 4.9 200.3 5.2 200.8 5.2 C 201.2 5.2 201.6 5.1 201.6 4.8 C 201.5 4.5 201.9 4.1 202.3 4.2 C 202.6 4.2 202.1 4.8 203.2 5.0 C 204.2 5.3 204.9 5.3 205.2 5.1 C 205.4 4.9 205.4 4.1 205.9 4.4 C 206.5 4.8 206.2 5.0 206.9 4.9 C 207.5 4.9 207.7 4.3 208.2 4.3 C 208.6 4.3 208.7 4.3 208.7 4.3 C 208.7 4.3 208.5 5.2 209.5 5.2 C 210.5 5.2 210.7 5.3 210.4 4.7 C 210.2 4.1 210.9 4.1 210.9 4.5 C 211.0 4.9 211.6 5.1 211.9 5.2 C 212.3 5.2 212.3 4.2 212.4 4.2 C 212.5 4.2 212.9 4.2 212.8 4.6 C 212.7 4.9 213.1 4.9 213.4 5.1 C 213.7 5.2 214.5 5.1 214.5 4.9 C 214.5 4.7 214.0 4.1 214.6 4.4 C 215.2 4.7 215.4 5.2 216.0 5.2 C 216.5 5.2 216.0 4.6 216.4 4.4 C 216.4 4.4 216.4 4.4 216.4 4.4 Z M 197.5 5.1 C 198.0 5.5 198.4 5.0 198.3 4.6 C 198.2 4.3 197.9 3.3 198.0 3.0 C 198.2 2.7 198.6 2.0 197.7 1.9 C 196.9 1.8 196.7 2.0 196.8 2.3 C 196.8 2.5 196.8 3.5 196.5 3.4 C 196.3 3.3 196.0 3.1 195.9 2.9 C 195.8 2.8 195.4 1.8 195.0 1.9 C 194.6 2.1 194.2 2.4 194.2 2.4 C 194.0 2.4 193.8 2.4 193.6 2.4 C 193.6 2.4 192.9 1.8 192.5 1.9 C 192.1 2.1 191.5 2.1 191.2 2.0 C 190.8 2.0 190.5 2.1 190.5 2.3 C 190.5 2.5 190.1 3.4 190.1 3.4 C 190.1 3.4 189.7 3.6 189.4 3.5 C 189.2 3.3 189.0 2.9 189.0 2.7 C 189.1 2.5 188.9 2.0 188.6 1.9 C 188.2 1.9 186.6 1.4 186.4 1.7 C 186.3 1.9 186.4 2.3 186.2 2.4 C 186.1 2.5 185.1 2.6 185.0 2.3 C 184.8 2.1 184.8 1.6 184.5 1.6 C 184.2 1.7 183.6 1.5 183.7 1.7 C 183.7 1.8 183.5 1.9 183.6 2.2 C 183.6 2.5 183.1 2.7 183.0 2.9 C 182.9 3.0 182.4 3.1 182.4 3.1 C 182.2 2.9 182.0 2.8 181.8 2.6 C 181.8 2.6 182.0 2.1 182.2 2.0 C 182.3 1.9 182.0 1.6 181.8 1.5 C 181.6 1.5 180.5 1.6 180.5 1.6 C 180.6 2.0 180.6 2.3 180.7 2.7 C 180.4 2.8 180.2 2.9 179.9 3.0 C 179.9 3.0 179.8 1.6 179.2 1.6 C 178.7 1.6 178.1 1.6 178.1 1.6 C 178.1 1.6 177.7 2.1 177.5 2.2 C 177.4 2.2 177.6 3.4 177.6 3.4 C 177.8 3.9 177.9 4.3 178.1 4.8 C 178.1 4.8 178.8 5.3 179.1 5.1 C 179.4 4.9 179.0 4.4 179.0 4.2 C 179.0 3.9 179.5 3.7 179.5 3.7 C 179.8 4.0 180.1 4.2 180.3 4.5 C 180.3 4.5 180.6 4.7 180.9 5.0 C 181.2 5.2 182.0 5.3 182.2 5.2 C 182.4 5.1 182.6 4.8 182.8 4.6 C 183.0 4.4 182.9 3.9 183.3 4.3 C 183.7 4.6 184.0 5.0 184.1 5.0 C 184.3 5.0 185.0 4.5 185.0 4.5 C 185.1 4.4 185.3 4.3 185.5 4.2 C 185.5 4.2 186.0 3.9 186.2 4.2 C 186.3 4.5 187.4 4.2 187.4 4.2 C 187.4 4.2 187.4 5.0 187.7 5.1 C 188.0 5.3 188.5 5.5 188.9 5.3 C 189.4 5.2 189.6 4.4 189.6 4.4 C 189.7 4.6 189.9 4.8 190.1 5.0 C 190.5 5.1 191.0 5.1 191.4 5.2 C 191.4 5.2 192.4 5.1 192.4 5.0 C 192.3 4.9 192.1 4.2 192.1 4.0 C 192.2 3.8 192.6 3.6 192.7 3.8 C 192.8 4.0 193.4 4.7 193.4 4.7 C 193.4 4.7 193.8 5.1 194.1 5.1 C 194.4 5.2 194.9 5.0 194.9 4.8 C 195.0 4.7 195.4 4.2 195.4 4.2 C 195.6 4.4 195.7 4.6 195.9 4.8 C 195.9 4.8 196.6 4.5 197.5 5.1 C 197.5 5.1 197.5 5.1 197.5 5.1 Z M 175.8 4.4 C 176.0 4.3 176.2 4.8 176.8 5.0 C 177.4 5.1 178.1 5.2 177.9 4.8 C 177.7 4.5 177.5 4.3 177.7 3.9 C 177.9 3.5 178.1 2.8 177.6 2.6 C 177.2 2.3 175.4 1.6 175.0 2.0 C 174.6 2.3 174.5 2.5 174.2 2.7 C 173.9 3.0 173.9 2.2 173.9 2.2 C 173.9 2.2 173.0 2.1 172.4 2.0 C 171.8 2.0 171.0 1.9 171.0 2.1 C 171.0 2.2 170.8 2.5 170.8 2.5 C 170.8 2.5 170.4 2.1 169.9 2.0 C 169.4 2.0 169.6 2.2 169.8 2.4 C 169.9 2.5 170.6 3.1 170.4 3.1 C 170.2 3.1 169.4 2.3 169.0 2.2 C 168.7 2.1 167.9 2.2 167.9 2.2 C 167.9 2.2 168.1 2.6 168.1 2.7 C 168.0 2.8 167.3 2.9 167.3 2.7 C 167.2 2.6 167.1 2.1 166.8 2.0 C 165.6 2.0 166.0 2.8 165.9 2.9 C 165.8 2.9 165.6 2.2 165.3 2.1 C 165.0 2.0 162.8 2.1 162.7 2.3 C 162.7 2.4 161.7 1.8 161.5 2.2 C 161.3 2.7 161.3 2.8 161.2 2.9 C 161.2 3.0 161.0 3.7 160.7 3.4 C 160.4 3.2 161.1 2.4 160.7 2.2 C 160.4 2.0 159.0 1.9 158.8 2.1 C 158.6 2.4 158.7 3.1 158.5 3.1 C 158.3 3.1 157.2 2.2 157.2 2.4 C 157.2 2.5 157.3 3.2 157.3 3.3 C 157.4 3.5 157.5 4.7 157.7 4.9 C 158.0 5.1 158.9 5.5 158.7 5.2 C 158.5 4.8 158.2 4.4 158.4 4.2 C 158.7 4.0 158.8 4.0 158.9 4.2 C 159.0 4.3 158.9 4.4 159.5 4.7 C 160.0 4.9 159.9 5.2 160.3 5.2 C 160.8 5.2 161.2 5.1 161.0 4.8 C 160.9 4.5 161.3 4.1 161.6 4.2 C 161.9 4.2 161.6 4.8 162.7 5.0 C 163.8 5.3 164.4 5.3 164.7 5.1 C 164.9 4.9 164.8 4.1 165.3 4.4 C 165.9 4.8 165.7 5.0 166.4 4.9 C 167.0 4.9 167.1 4.3 167.5 4.3 C 167.9 4.3 168.1 4.3 168.1 4.3 C 168.1 4.3 168.1 5.2 169.0 5.2 C 170.0 5.2 170.2 5.3 169.9 4.7 C 169.5 4.1 170.2 4.1 170.4 4.5 C 170.5 4.9 171.1 5.1 171.5 5.2 C 171.8 5.2 171.6 4.2 171.8 4.2 C 171.9 4.2 172.3 4.2 172.2 4.6 C 172.2 4.9 172.5 4.9 172.9 5.1 C 173.2 5.2 174.0 5.1 174.0 4.9 C 173.9 4.7 173.3 4.1 174.0 4.4 C 174.7 4.7 175.0 5.2 175.5 5.2 C 176.1 5.2 175.4 4.6 175.8 4.4 C 175.8 4.4 175.8 4.4 175.8 4.4 Z M 157.5 5.2 C 158.5 5.2 157.0 2.5 156.4 2.0 C 155.9 1.5 155.3 1.8 154.6 1.7 C 153.8 1.6 154.3 2.4 154.0 2.7 C 153.7 2.9 153.7 2.4 153.4 2.0 C 153.1 1.6 152.1 2.0 151.5 1.9 C 150.8 1.9 150.5 2.8 150.0 2.8 C 149.5 2.9 150.6 3.3 149.7 3.2 C 148.7 3.2 149.0 2.7 150.0 2.4 C 150.9 2.1 149.4 1.9 148.8 1.8 C 148.2 1.7 147.3 2.1 146.9 2.1 C 146.4 2.0 147.2 2.7 146.5 2.7 C 145.9 2.6 146.0 2.0 145.3 1.9 C 144.5 1.7 144.9 2.4 144.6 2.5 C 144.3 2.7 144.2 2.3 143.9 2.3 C 143.6 2.2 143.1 2.0 142.5 2.1 C 141.9 2.3 142.2 2.5 141.9 2.5 C 141.6 2.6 141.1 2.6 141.1 2.6 C 141.0 2.4 140.9 2.1 140.8 1.9 C 140.8 1.9 139.6 1.9 139.2 1.8 C 138.9 1.8 138.2 2.1 138.5 2.2 C 138.7 2.3 138.1 2.8 137.9 2.7 C 137.7 2.6 137.0 2.3 136.6 2.1 C 136.1 2.0 136.9 3.7 137.0 3.9 C 137.1 4.2 137.3 5.1 137.6 5.2 C 138.0 5.3 138.2 4.9 138.2 5.2 C 138.3 5.4 139.2 5.2 139.4 5.2 C 139.7 5.2 139.8 4.5 139.8 4.5 C 139.8 4.5 139.9 4.0 140.3 4.0 C 140.8 4.0 141.4 5.1 141.4 5.1 C 141.4 5.1 142.0 5.3 142.6 5.2 C 143.1 5.2 143.4 4.3 143.4 4.1 C 143.5 3.9 143.8 4.7 144.2 4.8 C 144.6 4.9 145.3 5.2 145.4 5.1 C 145.6 5.1 145.7 4.5 145.7 4.5 C 145.7 4.5 146.3 4.2 146.5 4.2 C 146.6 4.2 146.6 5.0 146.6 5.0 C 146.6 5.0 148.2 5.2 148.6 5.3 C 148.9 5.4 149.3 5.1 149.5 5.1 C 149.7 5.0 149.7 4.1 150.1 4.2 C 150.5 4.3 150.0 4.8 150.4 4.9 C 150.7 5.0 151.4 5.2 151.6 5.2 C 151.8 5.2 151.9 4.8 152.1 4.8 C 152.4 4.7 152.5 4.0 153.0 4.0 C 153.4 4.0 153.8 4.5 154.0 4.5 C 154.2 4.6 154.5 5.3 154.9 5.3 C 155.3 5.3 154.9 4.9 155.2 4.9 C 155.5 4.9 155.4 4.4 155.7 4.5 C 156.1 4.6 156.2 5.4 156.5 5.3 C 156.7 5.2 156.5 5.3 157.5 5.2 C 157.5 5.2 157.5 5.2 157.5 5.2 Z M 136.8 5.1 C 137.4 5.5 137.6 5.0 137.4 4.6 C 137.2 4.3 136.7 3.3 136.7 3.0 C 136.8 2.7 137.1 2.0 136.2 1.9 C 135.2 1.8 135.2 2.0 135.3 2.3 C 135.4 2.5 135.6 3.5 135.3 3.4 C 135.1 3.3 134.7 3.1 134.6 2.9 C 134.5 2.8 133.8 1.8 133.4 1.9 C 133.0 2.1 132.8 2.4 132.8 2.4 C 132.6 2.4 132.4 2.4 132.1 2.4 C 132.1 2.4 131.3 1.8 130.9 1.9 C 130.5 2.1 130.0 2.1 129.6 2.0 C 129.3 2.0 129.0 2.1 129.0 2.3 C 129.0 2.5 128.9 3.4 128.9 3.4 C 128.9 3.4 128.5 3.6 128.2 3.5 C 128.0 3.3 127.7 2.9 127.7 2.7 C 127.6 2.5 127.4 2.0 127.0 1.9 C 126.6 1.9 124.9 1.4 124.8 1.7 C 124.7 1.9 124.9 2.3 124.8 2.4 C 124.6 2.5 123.7 2.6 123.5 2.3 C 123.3 2.1 123.1 1.6 122.8 1.6 C 122.6 1.7 121.9 1.5 122.0 1.7 C 122.1 1.8 121.9 1.9 122.0 2.2 C 122.2 2.5 121.7 2.7 121.6 2.9 C 121.6 3.0 121.2 3.1 121.2 3.1 C 120.9 2.9 120.6 2.8 120.4 2.6 C 120.4 2.6 120.5 2.1 120.6 2.0 C 120.7 1.9 120.3 1.6 120.1 1.5 C 119.9 1.5 118.8 1.6 118.8 1.6 C 119.0 2.0 119.2 2.3 119.3 2.7 C 119.1 2.8 118.9 2.9 118.6 3.0 C 118.6 3.0 118.1 1.6 117.6 1.6 C 117.1 1.6 116.4 1.6 116.4 1.6 C 116.4 1.6 116.1 2.1 116.0 2.2 C 115.9 2.2 116.4 3.4 116.4 3.4 C 116.7 3.9 117.0 4.3 117.3 4.8 C 117.3 4.8 118.1 5.3 118.4 5.1 C 118.6 4.9 118.1 4.4 118.0 4.2 C 118.0 3.9 118.4 3.7 118.4 3.7 C 118.7 4.0 119.1 4.2 119.5 4.5 C 119.5 4.5 119.8 4.7 120.1 5.0 C 120.5 5.2 121.3 5.3 121.5 5.2 C 121.7 5.1 121.8 4.8 121.9 4.6 C 122.1 4.4 121.9 3.9 122.4 4.3 C 122.9 4.6 123.2 5.0 123.4 5.0 C 123.5 5.0 124.1 4.5 124.1 4.5 C 124.2 4.4 124.4 4.3 124.5 4.2 C 124.5 4.2 125.0 3.9 125.2 4.2 C 125.4 4.5 126.4 4.2 126.4 4.2 C 126.4 4.2 126.6 5.0 127.0 5.1 C 127.3 5.3 127.9 5.5 128.3 5.3 C 128.7 5.2 128.7 4.4 128.7 4.4 C 128.9 4.6 129.1 4.8 129.4 5.0 C 129.8 5.1 130.3 5.1 130.7 5.2 C 130.7 5.2 131.7 5.1 131.6 5.0 C 131.5 4.9 131.1 4.2 131.1 4.0 C 131.1 3.8 131.5 3.6 131.7 3.8 C 131.8 4.0 132.5 4.7 132.5 4.7 C 132.5 4.7 133.1 5.1 133.4 5.1 C 133.7 5.2 134.1 5.0 134.1 4.8 C 134.2 4.7 134.4 4.2 134.4 4.2 C 134.7 4.4 134.9 4.6 135.1 4.8 C 135.1 4.8 135.7 4.5 136.8 5.1 C 136.8 5.1 136.8 5.1 136.8 5.1 Z M 114.9 4.4 C 115.0 4.3 115.4 4.8 116.1 5.0 C 116.7 5.1 117.4 5.2 117.1 4.8 C 116.8 4.5 116.5 4.3 116.6 3.9 C 116.7 3.5 116.7 2.8 116.2 2.6 C 115.7 2.3 113.7 1.6 113.4 2.0 C 113.1 2.3 113.0 2.5 112.8 2.7 C 112.6 3.0 112.4 2.2 112.4 2.2 C 112.4 2.2 111.5 2.1 110.8 2.0 C 110.2 2.0 109.4 1.9 109.4 2.1 C 109.4 2.2 109.4 2.5 109.4 2.5 C 109.4 2.5 108.8 2.1 108.3 2.0 C 107.8 2.0 108.1 2.2 108.3 2.4 C 108.4 2.5 109.3 3.1 109.1 3.1 C 108.9 3.1 107.9 2.3 107.5 2.2 C 107.1 2.1 106.4 2.2 106.4 2.2 C 106.4 2.2 106.7 2.6 106.7 2.7 C 106.7 2.8 106.0 2.9 105.9 2.7 C 105.8 2.6 105.6 2.1 105.2 2.0 C 104.0 2.0 104.6 2.8 104.6 2.9 C 104.5 2.9 104.1 2.2 103.8 2.1 C 103.4 2.0 101.3 2.1 101.2 2.3 C 101.2 2.4 100.1 1.8 100.0 2.2 C 99.9 2.7 99.9 2.8 99.9 2.9 C 99.9 3.0 99.9 3.7 99.5 3.4 C 99.2 3.2 99.6 2.4 99.2 2.2 C 98.8 2.0 97.4 1.9 97.3 2.1 C 97.1 2.4 97.4 3.1 97.2 3.1 C 97.0 3.1 95.7 2.2 95.7 2.4 C 95.7 2.5 96.1 3.2 96.1 3.3 C 96.2 3.5 96.7 4.7 97.0 4.9 C 97.2 5.1 98.3 5.5 98.0 5.2 C 97.7 4.8 97.2 4.4 97.4 4.2 C 97.6 4.0 97.8 4.0 97.9 4.2 C 98.1 4.3 98.0 4.4 98.6 4.7 C 99.3 4.9 99.2 5.2 99.6 5.2 C 100.1 5.2 100.4 5.1 100.2 4.8 C 100.0 4.5 100.3 4.1 100.6 4.2 C 101.0 4.2 100.8 4.8 101.9 5.0 C 103.1 5.3 103.8 5.3 103.9 5.1 C 104.1 4.9 103.8 4.1 104.4 4.4 C 105.1 4.8 104.9 5.0 105.6 4.9 C 106.2 4.9 106.2 4.3 106.6 4.3 C 107.0 4.3 107.1 4.3 107.1 4.3 C 107.1 4.3 107.4 5.2 108.3 5.2 C 109.3 5.2 109.6 5.3 109.0 4.7 C 108.5 4.1 109.2 4.1 109.5 4.5 C 109.7 4.9 110.4 5.1 110.8 5.2 C 111.1 5.2 110.7 4.2 110.8 4.2 C 110.9 4.2 111.3 4.2 111.3 4.6 C 111.4 4.9 111.8 4.9 112.1 5.1 C 112.5 5.2 113.3 5.1 113.2 4.9 C 113.1 4.7 112.3 4.1 113.1 4.4 C 113.9 4.7 114.3 5.2 114.8 5.2 C 115.4 5.2 114.6 4.6 114.9 4.4 C 114.9 4.4 114.9 4.4 114.9 4.4 Z M 96.3 5.1 C 97.0 5.5 97.1 5.0 96.9 4.6 C 96.6 4.3 95.8 3.3 95.9 3.0 C 95.9 2.7 96.0 2.0 95.1 1.9 C 94.1 1.8 94.1 2.0 94.3 2.3 C 94.4 2.5 94.8 3.5 94.5 3.4 C 94.3 3.3 93.9 3.1 93.7 2.9 C 93.6 2.8 92.7 1.8 92.3 1.9 C 92.0 2.1 91.8 2.4 91.8 2.4 C 91.6 2.4 91.4 2.4 91.2 2.4 C 91.2 2.4 90.2 1.8 89.9 1.9 C 89.5 2.1 89.0 2.1 88.6 2.0 C 88.2 2.0 87.9 2.1 88.0 2.3 C 88.1 2.5 88.2 3.4 88.2 3.4 C 88.2 3.4 87.8 3.6 87.5 3.5 C 87.1 3.3 86.8 2.9 86.7 2.7 C 86.7 2.5 86.3 2.0 85.9 1.9 C 85.5 1.9 83.7 1.4 83.7 1.7 C 83.6 1.9 83.9 2.3 83.8 2.4 C 83.7 2.5 82.7 2.6 82.5 2.3 C 82.3 2.1 82.0 1.6 81.7 1.6 C 81.5 1.7 80.8 1.5 80.9 1.7 C 81.0 1.8 80.9 1.9 81.0 2.2 C 81.2 2.5 80.8 2.7 80.8 2.9 C 80.7 3.0 80.3 3.1 80.3 3.1 C 80.0 2.9 79.7 2.8 79.4 2.6 C 79.4 2.6 79.4 2.1 79.5 2.0 C 79.7 1.9 79.2 1.6 78.9 1.5 C 78.7 1.5 77.7 1.6 77.7 1.6 C 77.9 2.0 78.2 2.3 78.4 2.7 C 78.2 2.8 78.0 2.9 77.8 3.0 C 77.8 3.0 77.0 1.6 76.5 1.6 C 75.9 1.6 75.3 1.6 75.3 1.6 C 75.3 1.6 75.1 2.1 75.0 2.2 C 74.9 2.2 75.7 3.4 75.7 3.4 C 76.0 3.9 76.4 4.3 76.7 4.8 C 76.7 4.8 77.7 5.3 77.9 5.1 C 78.1 4.9 77.5 4.4 77.4 4.2 C 77.3 3.9 77.6 3.7 77.6 3.7 C 78.0 4.0 78.4 4.2 78.9 4.5 C 78.9 4.5 79.2 4.7 79.6 5.0 C 80.0 5.2 80.9 5.3 81.0 5.2 C 81.2 5.1 81.2 4.8 81.4 4.6 C 81.5 4.4 81.2 3.9 81.7 4.3 C 82.3 4.6 82.7 5.0 82.9 5.0 C 83.0 5.0 83.5 4.5 83.5 4.5 C 83.6 4.4 83.7 4.3 83.9 4.2 C 83.9 4.2 84.3 3.9 84.5 4.2 C 84.8 4.5 85.7 4.2 85.7 4.2 C 85.7 4.2 86.1 5.0 86.5 5.1 C 86.9 5.3 87.5 5.5 87.8 5.3 C 88.2 5.2 88.0 4.4 88.0 4.4 C 88.3 4.6 88.6 4.8 88.9 5.0 C 89.3 5.1 89.8 5.1 90.2 5.2 C 90.2 5.2 91.2 5.1 91.1 5.0 C 91.0 4.9 90.5 4.2 90.4 4.0 C 90.4 3.8 90.7 3.6 90.9 3.8 C 91.1 4.0 92.0 4.7 92.0 4.7 C 92.0 4.7 92.6 5.1 92.9 5.1 C 93.3 5.2 93.6 5.0 93.6 4.8 C 93.6 4.7 93.8 4.2 93.8 4.2 C 94.0 4.4 94.3 4.6 94.5 4.8 C 94.5 4.8 95.1 4.5 96.3 5.1 C 96.3 5.1 96.3 5.1 96.3 5.1 Z M 76.6 5.2 C 77.6 5.2 75.1 2.5 74.3 2.0 C 73.6 1.5 73.1 1.8 72.4 1.7 C 71.6 1.6 72.4 2.4 72.2 2.7 C 72.0 2.9 71.7 2.4 71.3 2.0 C 70.8 1.6 70.0 2.0 69.4 1.9 C 68.7 1.9 68.7 2.8 68.2 2.8 C 67.7 2.9 69.0 3.3 68.0 3.2 C 67.1 3.2 67.2 2.7 68.0 2.4 C 68.9 2.1 67.3 1.9 66.6 1.8 C 66.0 1.7 65.3 2.1 64.8 2.1 C 64.3 2.0 65.4 2.7 64.7 2.7 C 64.0 2.6 63.9 2.0 63.1 1.9 C 62.4 1.7 62.9 2.4 62.7 2.5 C 62.4 2.7 62.2 2.3 61.9 2.3 C 61.6 2.2 61.0 2.0 60.5 2.1 C 60.0 2.3 60.3 2.5 60.0 2.5 C 59.8 2.6 59.3 2.6 59.3 2.6 C 59.1 2.4 58.9 2.1 58.6 1.9 C 58.6 1.9 57.5 1.9 57.1 1.8 C 56.7 1.8 56.1 2.1 56.5 2.2 C 56.8 2.3 56.3 2.8 56.1 2.7 C 55.9 2.6 55.0 2.3 54.5 2.1 C 54.0 2.0 55.4 3.7 55.6 3.9 C 55.8 4.2 56.3 5.1 56.7 5.2 C 57.1 5.3 57.1 4.9 57.3 5.2 C 57.4 5.4 58.2 5.2 58.5 5.2 C 58.8 5.2 58.6 4.5 58.6 4.5 C 58.6 4.5 58.5 4.0 59.0 4.0 C 59.4 4.0 60.4 5.1 60.4 5.1 C 60.4 5.1 61.1 5.3 61.6 5.2 C 62.2 5.2 62.1 4.3 62.1 4.1 C 62.1 3.9 62.6 4.7 63.1 4.8 C 63.6 4.9 64.4 5.2 64.5 5.1 C 64.6 5.1 64.5 4.5 64.5 4.5 C 64.5 4.5 65.0 4.2 65.2 4.2 C 65.3 4.2 65.6 5.0 65.6 5.0 C 65.6 5.0 67.3 5.2 67.7 5.3 C 68.0 5.4 68.4 5.1 68.6 5.1 C 68.8 5.0 68.4 4.1 68.8 4.2 C 69.2 4.3 68.9 4.8 69.3 4.9 C 69.7 5.0 70.5 5.2 70.6 5.2 C 70.8 5.2 70.8 4.8 71.0 4.8 C 71.3 4.7 71.2 4.0 71.6 4.0 C 72.1 4.0 72.6 4.5 72.8 4.5 C 73.1 4.6 73.6 5.3 74.0 5.3 C 74.4 5.3 73.8 4.9 74.2 4.9 C 74.5 4.9 74.2 4.4 74.6 4.5 C 75.0 4.6 75.3 5.4 75.6 5.3 C 75.7 5.2 75.6 5.3 76.6 5.2 C 76.6 5.2 76.6 5.2 76.6 5.2 Z M 55.8 5.1 C 56.6 5.5 56.6 5.0 56.3 4.6 C 56.0 4.3 55.0 3.3 55.0 3.0 C 55.0 2.7 55.0 2.0 54.0 1.9 C 53.1 1.8 53.1 2.0 53.3 2.3 C 53.4 2.5 54.1 3.5 53.8 3.4 C 53.5 3.3 53.0 3.1 52.9 2.9 C 52.7 2.8 51.6 1.8 51.3 1.9 C 51.0 2.1 50.8 2.4 50.8 2.4 C 50.6 2.4 50.4 2.4 50.2 2.4 C 50.2 2.4 49.2 1.8 48.8 1.9 C 48.4 2.1 47.9 2.1 47.5 2.0 C 47.2 2.0 46.9 2.1 47.0 2.3 C 47.1 2.5 47.4 3.4 47.4 3.4 C 47.4 3.4 47.0 3.6 46.7 3.5 C 46.3 3.3 45.9 2.9 45.8 2.7 C 45.7 2.5 45.3 2.0 44.9 1.9 C 44.4 1.9 42.6 1.4 42.6 1.7 C 42.6 1.9 42.9 2.3 42.8 2.4 C 42.7 2.5 41.8 2.6 41.5 2.3 C 41.2 2.1 40.9 1.6 40.6 1.6 C 40.4 1.7 39.7 1.5 39.8 1.7 C 39.9 1.8 39.8 1.9 40.0 2.2 C 40.2 2.5 39.9 2.7 39.9 2.9 C 39.9 3.0 39.4 3.1 39.4 3.1 C 39.1 2.9 38.8 2.8 38.5 2.6 C 38.5 2.6 38.4 2.1 38.5 2.0 C 38.6 1.9 38.0 1.6 37.8 1.5 C 37.6 1.5 36.6 1.6 36.6 1.6 C 36.9 2.0 37.2 2.3 37.5 2.7 C 37.3 2.8 37.1 2.9 36.9 3.0 C 36.9 3.0 35.9 1.6 35.3 1.6 C 34.8 1.6 34.2 1.6 34.2 1.6 C 34.2 1.6 34.1 2.1 34.0 2.2 C 33.9 2.2 34.9 3.4 34.9 3.4 C 35.3 3.9 35.7 4.3 36.2 4.8 C 36.2 4.8 37.2 5.3 37.4 5.1 C 37.6 4.9 36.9 4.4 36.7 4.2 C 36.6 3.9 36.9 3.7 36.9 3.7 C 37.3 4.0 37.8 4.2 38.3 4.5 C 38.3 4.5 38.7 4.7 39.1 5.0 C 39.5 5.2 40.4 5.3 40.6 5.2 C 40.7 5.1 40.7 4.8 40.8 4.6 C 40.9 4.4 40.5 3.9 41.1 4.3 C 41.7 4.6 42.2 5.0 42.3 5.0 C 42.5 5.0 42.9 4.5 42.9 4.5 C 43.0 4.4 43.1 4.3 43.2 4.2 C 43.2 4.2 43.6 3.9 43.9 4.2 C 44.2 4.5 45.1 4.2 45.1 4.2 C 45.1 4.2 45.6 5.0 46.0 5.1 C 46.4 5.3 47.0 5.5 47.4 5.3 C 47.7 5.2 47.4 4.4 47.4 4.4 C 47.7 4.6 48.0 4.8 48.4 5.0 C 48.8 5.1 49.3 5.1 49.8 5.2 C 49.8 5.2 50.7 5.1 50.6 5.0 C 50.5 4.9 49.8 4.2 49.7 4.0 C 49.6 3.8 50.0 3.6 50.2 3.8 C 50.5 4.0 51.4 4.7 51.4 4.7 C 51.4 4.7 52.1 5.1 52.5 5.1 C 52.8 5.2 53.1 5.0 53.1 4.8 C 53.1 4.7 53.1 4.2 53.1 4.2 C 53.4 4.4 53.7 4.6 54.0 4.8 C 54.0 4.8 54.5 4.5 55.8 5.1 C 55.8 5.1 55.8 5.1 55.8 5.1 Z M 33.6 4.4 C 33.8 4.3 34.4 4.8 35.1 5.0 C 35.8 5.1 36.5 5.2 36.1 4.8 C 35.7 4.5 35.3 4.3 35.2 3.9 C 35.2 3.5 34.9 2.8 34.3 2.6 C 33.7 2.3 31.5 1.6 31.3 2.0 C 31.2 2.3 31.1 2.5 31.0 2.7 C 30.8 3.0 30.4 2.2 30.4 2.2 C 30.4 2.2 29.4 2.1 28.8 2.0 C 28.1 2.0 27.3 1.9 27.4 2.1 C 27.4 2.2 27.4 2.5 27.4 2.5 C 27.4 2.5 26.8 2.1 26.3 2.0 C 25.7 2.0 26.1 2.2 26.3 2.4 C 26.6 2.5 27.6 3.1 27.4 3.1 C 27.2 3.1 25.9 2.3 25.5 2.2 C 25.1 2.1 24.4 2.2 24.4 2.2 C 24.4 2.2 24.8 2.6 24.9 2.7 C 24.9 2.8 24.2 2.9 24.1 2.7 C 23.9 2.6 23.5 2.1 23.1 2.0 C 21.9 2.0 22.9 2.8 22.8 2.9 C 22.7 2.9 22.1 2.2 21.7 2.1 C 21.4 2.0 19.2 2.1 19.2 2.3 C 19.3 2.4 18.0 1.8 18.0 2.2 C 18.1 2.7 18.1 2.8 18.2 2.9 C 18.2 3.0 18.4 3.7 17.9 3.4 C 17.5 3.2 17.6 2.4 17.2 2.2 C 16.7 2.0 15.3 1.9 15.2 2.1 C 15.2 2.4 15.7 3.1 15.5 3.1 C 15.3 3.1 13.7 2.2 13.8 2.4 C 13.8 2.5 14.4 3.2 14.5 3.3 C 14.7 3.5 15.6 4.7 15.9 4.9 C 16.2 5.1 17.5 5.5 17.1 5.2 C 16.6 4.8 16.0 4.4 16.2 4.2 C 16.3 4.0 16.4 4.0 16.6 4.2 C 16.8 4.3 16.8 4.4 17.5 4.7 C 18.2 4.9 18.2 5.2 18.7 5.2 C 19.1 5.2 19.4 5.1 19.1 4.8 C 18.8 4.5 19.0 4.1 19.3 4.2 C 19.7 4.2 19.7 4.8 20.9 5.0 C 22.2 5.3 22.9 5.3 23.0 5.1 C 23.1 4.9 22.4 4.1 23.2 4.4 C 24.0 4.8 23.9 5.0 24.6 4.9 C 25.2 4.9 24.9 4.3 25.3 4.3 C 25.7 4.3 25.9 4.3 25.9 4.3 C 25.9 4.3 26.4 5.2 27.4 5.2 C 28.4 5.2 28.7 5.3 27.9 4.7 C 27.2 4.1 27.9 4.1 28.3 4.5 C 28.6 4.9 29.4 5.1 29.8 5.2 C 30.2 5.2 29.4 4.2 29.5 4.2 C 29.6 4.2 30.0 4.2 30.2 4.6 C 30.3 4.9 30.7 4.9 31.1 5.1 C 31.6 5.2 32.3 5.1 32.2 4.9 C 32.0 4.7 31.0 4.1 31.9 4.4 C 32.8 4.7 33.4 5.2 33.9 5.2 C 34.4 5.2 33.4 4.6 33.6 4.4 C 33.6 4.4 33.6 4.4 33.6 4.4 Z M 15.3 5.1 C 16.1 5.5 16.1 5.0 15.7 4.6 C 15.3 4.3 14.2 3.3 14.1 3.0 C 14.0 2.7 14.0 2.0 13.0 1.9 C 12.0 1.8 12.1 2.0 12.3 2.3 C 12.5 2.5 13.3 3.5 13.0 3.4 C 12.7 3.3 12.2 3.1 12.0 2.9 C 11.8 2.8 10.5 1.8 10.2 1.9 C 9.9 2.1 9.8 2.4 9.8 2.4 C 9.6 2.4 9.4 2.4 9.2 2.4 C 9.2 2.4 8.1 1.8 7.7 1.9 C 7.4 2.1 6.9 2.1 6.5 2.0 C 6.1 2.0 5.9 2.1 6.0 2.3 C 6.2 2.5 6.6 3.4 6.6 3.4 C 6.6 3.4 6.3 3.6 5.9 3.5 C 5.5 3.3 5.0 2.9 4.9 2.7 C 4.8 2.5 4.3 2.0 3.8 1.9 C 3.4 1.9 1.9 1.5 1.5 1.6 C 1.6 1.7 1.6 1.8 1.6 1.8 C 1.9 2.3 2.3 2.7 2.4 2.9 C 2.4 3.2 2.5 4.2 2.3 4.1 C 2.0 4.0 1.5 3.4 1.6 3.8 C 1.6 4.1 1.5 4.6 1.6 4.7 C 1.8 4.8 1.9 5.1 2.2 5.4 C 2.4 5.7 2.7 6.5 2.8 6.7 C 3.0 7.0 3.0 7.5 3.0 7.5 C 2.9 7.6 2.7 7.6 2.5 7.7 C 2.5 7.7 2.0 6.8 1.9 6.6 C 1.8 6.3 1.5 6.3 1.5 6.5 C 1.4 6.6 1.5 7.8 1.5 7.8 C 1.9 8.2 2.3 8.5 2.7 8.9 C 2.8 9.2 2.8 9.6 2.9 9.9 C 2.9 9.9 1.6 8.6 1.6 9.2 C 1.6 9.7 1.6 10.4 1.6 10.4 C 1.6 10.4 2.1 11.3 2.1 11.5 C 2.2 11.7 3.4 12.7 3.4 12.7 C 3.8 13.1 4.3 13.4 4.8 13.7 C 4.8 13.7 5.2 13.5 5.0 13.0 C 4.9 12.5 4.3 12.4 4.1 12.1 C 3.9 11.9 3.7 11.2 3.7 11.2 C 3.9 11.2 4.2 11.2 4.4 11.1 C 4.4 11.1 4.7 11.1 4.9 11.1 C 5.1 11.1 5.3 10.5 5.2 10.2 C 5.1 9.8 4.8 9.3 4.5 8.8 C 4.3 8.3 3.9 8.0 4.2 8.0 C 4.5 7.9 4.9 8.1 4.9 7.9 C 4.9 7.8 4.4 6.6 4.4 6.6 C 4.3 6.3 4.2 6.0 4.1 5.7 C 4.1 5.7 3.9 4.9 4.2 5.1 C 4.3 5.2 4.3 4.7 4.2 4.2 C 4.3 4.2 4.4 4.2 4.4 4.2 C 4.4 4.2 5.1 5.0 5.6 5.1 C 6.0 5.3 6.6 5.5 6.9 5.3 C 7.3 5.2 6.8 4.4 6.8 4.4 C 7.2 4.6 7.5 4.8 7.9 5.0 C 8.3 5.1 8.8 5.1 9.3 5.2 C 9.3 5.2 10.2 5.1 10.1 5.0 C 10.0 4.9 9.2 4.2 9.0 4.0 C 8.9 3.8 9.2 3.6 9.5 3.8 C 9.8 4.0 10.9 4.7 10.9 4.7 C 10.9 4.7 11.7 5.1 12.0 5.1 C 12.3 5.2 12.6 5.0 12.5 4.8 C 12.5 4.7 12.5 4.2 12.5 4.2 C 12.8 4.4 13.1 4.6 13.5 4.8 C 13.5 4.8 13.9 4.5 15.3 5.1 C 15.3 5.1 15.3 5.1 15.3 5.1 Z M 4.4 15.6 C 4.3 15.3 4.8 15.5 4.9 15.1 C 5.1 14.7 5.1 14.0 4.8 13.9 C 4.5 13.8 4.3 13.8 3.9 13.2 C 3.5 12.6 2.8 11.7 2.5 11.8 C 2.2 12.0 1.5 13.1 1.9 13.9 C 2.3 14.6 2.4 14.9 2.7 15.5 C 2.9 16.0 2.1 15.2 2.1 15.2 C 2.1 15.2 2.0 16.0 2.0 16.6 C 1.9 17.2 1.9 17.9 2.0 18.1 C 2.1 18.2 2.4 18.7 2.4 18.7 C 2.4 18.7 2.1 18.7 2.0 19.2 C 1.9 19.6 2.1 19.6 2.3 19.6 C 2.5 19.7 3.0 19.5 3.0 19.7 C 3.0 19.9 2.2 19.9 2.1 20.2 C 2.1 20.5 2.1 21.3 2.1 21.3 C 2.1 21.3 2.6 21.5 2.7 21.6 C 2.8 21.8 2.8 22.5 2.7 22.5 C 2.5 22.4 2.0 22.0 2.0 22.4 C 1.9 23.5 2.8 23.9 2.8 24.0 C 2.8 24.1 2.2 23.7 2.1 23.9 C 1.9 24.1 2.0 26.5 2.2 26.7 C 2.4 26.9 1.8 27.3 2.2 27.9 C 2.6 28.4 2.7 28.6 2.8 28.7 C 3.0 28.8 3.6 29.6 3.4 29.7 C 3.1 29.7 2.3 28.5 2.1 28.7 C 1.9 28.8 1.9 30.3 2.1 30.6 C 2.4 31.1 3.0 31.4 3.0 31.6 C 3.0 31.8 2.2 32.3 2.3 32.4 C 2.4 32.5 3.2 32.9 3.3 33.0 C 3.4 33.0 4.7 33.8 4.8 33.7 C 5.0 33.6 5.5 33.0 5.1 32.9 C 4.8 32.9 4.3 32.9 4.2 32.5 C 4.0 32.2 4.0 32.0 4.1 32.0 C 4.2 32.0 4.4 32.2 4.6 31.8 C 4.9 31.5 5.2 31.9 5.1 31.4 C 5.1 30.9 5.0 30.5 4.8 30.4 C 4.5 30.3 4.1 29.6 4.1 29.3 C 4.1 29.0 4.7 29.9 5.0 29.0 C 5.2 28.1 5.3 27.5 5.0 27.1 C 4.8 26.7 4.1 26.2 4.4 25.9 C 4.7 25.6 4.9 26.0 4.9 25.3 C 4.9 24.7 4.3 24.1 4.3 23.6 C 4.2 23.2 4.3 23.1 4.3 23.1 C 4.3 23.1 5.1 23.8 5.1 22.9 C 5.2 22.0 5.3 21.9 4.7 21.7 C 4.1 21.5 4.0 20.7 4.4 21.0 C 4.8 21.2 5.1 20.8 5.1 20.5 C 5.2 20.3 4.2 19.5 4.1 19.3 C 4.1 19.2 4.2 18.8 4.5 19.2 C 4.8 19.6 4.9 19.2 5.0 19.1 C 5.1 18.9 5.0 17.9 4.9 17.8 C 4.7 17.7 4.0 17.6 4.3 17.3 C 4.7 17.0 5.2 17.2 5.2 16.6 C 5.1 16.1 4.5 16.1 4.4 15.6 C 4.4 15.6 4.4 15.6 4.4 15.6 Z M 5.2 34.2 C 5.1 33.2 2.5 32.7 1.9 32.9 C 1.4 33.1 1.8 34.0 1.7 34.6 C 1.6 35.3 2.4 35.4 2.6 35.9 C 2.9 36.3 2.3 36.0 1.9 36.1 C 1.6 36.1 1.9 37.3 1.9 37.9 C 1.8 38.6 2.7 39.5 2.8 40.0 C 2.8 40.5 3.2 39.7 3.2 40.6 C 3.1 41.5 2.6 40.9 2.4 39.8 C 2.1 38.7 1.9 40.1 1.8 40.6 C 1.7 41.2 2.1 42.3 2.0 42.7 C 1.9 43.2 2.6 42.8 2.6 43.4 C 2.6 44.1 1.9 43.6 1.8 44.3 C 1.7 45.0 2.3 45.0 2.5 45.3 C 2.6 45.7 2.2 45.6 2.2 45.9 C 2.1 46.1 1.9 46.6 2.1 47.2 C 2.2 47.9 2.4 47.8 2.5 48.1 C 2.5 48.3 2.5 48.9 2.5 48.9 C 2.3 48.9 2.1 48.9 1.9 48.9 C 1.9 48.9 1.8 50.1 1.8 50.4 C 1.7 50.8 2.0 51.6 2.1 51.4 C 2.3 51.2 2.7 52.0 2.6 52.1 C 2.5 52.3 2.2 52.9 2.1 53.3 C 1.9 53.7 3.6 53.6 3.9 53.6 C 4.1 53.6 5.0 53.8 5.1 53.5 C 5.2 53.1 4.9 52.9 5.1 52.9 C 5.4 53.0 5.1 52.0 5.1 51.7 C 5.1 51.4 4.5 51.1 4.5 51.1 C 4.5 51.1 4.0 50.8 4.0 50.3 C 4.0 49.9 5.0 49.8 5.0 49.8 C 5.0 49.8 5.2 49.3 5.2 48.7 C 5.1 48.2 4.3 47.4 4.1 47.3 C 3.9 47.2 4.7 47.3 4.8 46.9 C 4.9 46.6 5.1 46.0 5.1 45.9 C 5.0 45.7 4.5 45.3 4.5 45.3 C 4.5 45.3 4.2 44.5 4.2 44.4 C 4.2 44.2 5.0 44.6 5.0 44.6 C 5.0 44.6 5.2 43.2 5.2 42.9 C 5.3 42.6 5.1 42.1 5.0 41.8 C 5.0 41.6 4.0 41.0 4.1 40.7 C 4.2 40.4 4.7 41.2 4.8 40.9 C 4.9 40.6 5.1 40.1 5.1 39.9 C 5.1 39.7 4.8 39.4 4.7 39.1 C 4.7 38.8 4.0 38.2 4.0 37.8 C 4.0 37.3 4.4 37.2 4.5 37.1 C 4.6 37.0 5.2 37.1 5.3 36.8 C 5.3 36.4 4.8 36.5 4.8 36.2 C 4.8 35.8 4.4 35.7 4.4 35.4 C 4.5 35.1 5.3 35.6 5.2 35.2 C 5.2 35.0 5.2 35.2 5.2 34.2 C 5.2 34.2 5.2 34.2 5.2 34.2 Z M 5.2 34.2 " fill="#71AFE1"></path><image xlink:href="47B7881CD77EEDB9D39DED6FC664286F.png" width="444.00" height="45.00" transform="matrix(1.00, 0.00, -0.00, -1.00, 7.0, 46.0)"></image><g><clipPath id="clip0x7fd9707e16f0"><path d="M -2.2 -4.7 L 461.5 -4.7 L 461.5 59.1 L -2.2 59.1 Z M -2.2 -4.7 "></path></clipPath><g clip-path="url(#clip0x7fd9707e16f0)"><text xml:space="preserve" font-family="Chalkduster,Chalkduster" font-size="25.6" fill="#FEFFFE" transform="matrix(1.00, 0.00, -0.00, -1.00, 11.3, 17.0)">S</text><text xml:space="preserve" font-family="Chalkduster,Chalkduster" font-size="25.6" fill="#FEFFFE" transform="matrix(1.00, 0.00, -0.00, -1.00, 24.0, 17.0)"></text><text xml:space="preserve" font-family="Chalkduster,Chalkduster" font-size="25.6" fill="#FEFFFE" transform="matrix(1.00, 0.00, -0.00, -1.00, 40.8, 17.0)">b</text><text xml:space="preserve" font-family="Chalkduster,Chalkduster" font-size="25.6" fill="#FEFFFE" transform="matrix(1.00, 0.00, -0.00, -1.00, 55.1, 17.0)">a</text><text xml:space="preserve" font-family="Chalkduster,Chalkduster" font-size="25.6" fill="#FEFFFE" transform="matrix(1.00, 0.00, -0.00, -1.00, 71.9, 17.0)">d</text><text xml:space="preserve" font-family="Chalkduster,Chalkduster" font-size="25.6" fill="#FEFFFE" transform="matrix(1.00, 0.00, -0.00, -1.00, 91.9, 17.0)">o</text><text xml:space="preserve" font-family="Chalkduster,Chalkduster" font-size="25.6" fill="#FEFFFE" transform="matrix(1.00, 0.00, -0.00, -1.00, 110.3, 17.0)"> </text><text xml:space="preserve" font-family="Chalkduster,Chalkduster" font-size="25.6" fill="#FEFFFE" transform="matrix(1.00, 0.00, -0.00, -1.00, 123.1, 17.0)">2</text><text xml:space="preserve" font-family="Chalkduster,Chalkduster" font-size="25.6" fill="#FEFFFE" transform="matrix(1.00, 0.00, -0.00, -1.00, 137.5, 17.0)">3</text><text xml:space="preserve" font-family="Chalkduster,Chalkduster" font-size="25.6" fill="#FEFFFE" transform="matrix(1.00, 0.00, -0.00, -1.00, 155.1, 17.0)"> </text><text xml:space="preserve" font-family="Chalkduster,Chalkduster" font-size="25.6" fill="#FEFFFE" transform="matrix(1.00, 0.00, -0.00, -1.00, 167.8, 17.0)">d</text><text xml:space="preserve" font-family="Chalkduster,Chalkduster" font-size="25.6" fill="#FEFFFE" transform="matrix(1.00, 0.00, -0.00, -1.00, 187.8, 17.0)">e</text><text xml:space="preserve" font-family="Chalkduster,Chalkduster" font-size="25.6" fill="#FEFFFE" transform="matrix(1.00, 0.00, -0.00, -1.00, 203.7, 17.0)"> </text><text xml:space="preserve" font-family="Chalkduster,Chalkduster" font-size="25.6" fill="#FEFFFE" transform="matrix(1.00, 0.00, -0.00, -1.00, 214.7, 17.0)">A</text><text xml:space="preserve" font-family="Chalkduster,Chalkduster" font-size="25.6" fill="#FEFFFE" transform="matrix(1.00, 0.00, -0.00, -1.00, 233.6, 17.0)">g</text><text xml:space="preserve" font-family="Chalkduster,Chalkduster" font-size="25.6" fill="#FEFFFE" transform="matrix(1.00, 0.00, -0.00, -1.00, 251.6, 17.0)">o</text><text xml:space="preserve" font-family="Chalkduster,Chalkduster" font-size="25.6" fill="#FEFFFE" transform="matrix(1.00, 0.00, -0.00, -1.00, 270.3, 17.0)">s</text><text xml:space="preserve" font-family="Chalkduster,Chalkduster" font-size="25.6" fill="#FEFFFE" transform="matrix(1.00, 0.00, -0.00, -1.00, 284.0, 17.0)">t</text><text xml:space="preserve" font-family="Chalkduster,Chalkduster" font-size="25.6" fill="#FEFFFE" transform="matrix(1.00, 0.00, -0.00, -1.00, 294.6, 17.0)">o</text><text xml:space="preserve" font-family="Chalkduster,Chalkduster" font-size="25.6" fill="#FEFFFE" transform="matrix(1.00, 0.00, -0.00, -1.00, 313.0, 17.0)"> </text><text xml:space="preserve" font-family="Chalkduster,Chalkduster" font-size="25.6" fill="#FEFFFE" transform="matrix(1.00, 0.00, -0.00, -1.00, 325.7, 17.0)">d</text><text xml:space="preserve" font-family="Chalkduster,Chalkduster" font-size="25.6" fill="#FEFFFE" transform="matrix(1.00, 0.00, -0.00, -1.00, 345.7, 17.0)">e</text><text xml:space="preserve" font-family="Chalkduster,Chalkduster" font-size="25.6" fill="#FEFFFE" transform="matrix(1.00, 0.00, -0.00, -1.00, 361.6, 17.0)"> </text><text xml:space="preserve" font-family="Chalkduster,Chalkduster" font-size="25.6" fill="#FEFFFE" transform="matrix(1.00, 0.00, -0.00, -1.00, 374.3, 17.0)">2</text><text xml:space="preserve" font-family="Chalkduster,Chalkduster" font-size="25.6" fill="#FEFFFE" transform="matrix(1.00, 0.00, -0.00, -1.00, 388.7, 17.0)">0</text><text xml:space="preserve" font-family="Chalkduster,Chalkduster" font-size="25.6" fill="#FEFFFE" transform="matrix(1.00, 0.00, -0.00, -1.00, 406.3, 17.0)">1</text><text xml:space="preserve" font-family="Chalkduster,Chalkduster" font-size="25.6" fill="#FEFFFE" transform="matrix(1.00, 0.00, -0.00, -1.00, 421.8, 17.0)">4</text></g></g></g></svg>