<?xml version="1.0" encoding="UTF-8" standalone="no"?><svg xmlns="http://www.w3.org/2000/svg" xmlns:xlink="http://www.w3.org/1999/xlink" clip-rule="evenodd" stroke-miterlimit="10" viewBox="0 0 189 166"><desc>SVG generated by Keynote</desc><defs></defs><g transform="matrix(1.00, 0.00, -0.00, -1.00, 0.0, 166.0)"><g><clipPath id="clip0x7fd96d4aec40"><path d="M 2.0 161.0 L 188.0 161.0 L 188.0 5.0 L 2.0 5.0 Z M 1.8 161.3 "></path></clipPath><g clip-path="url(#clip0x7fd96d4aec40)"><image xlink:href="46CA0647ABFC54982AA7411F55C47A78.jpeg" width="609.00" height="588.00" transform="matrix(0.27, 0.00, -0.00, -0.27, 14.0, 161.3)"></image></g></g><path d="M 12.3 149.0 C 12.5 149.3 12.2 150.2 12.4 150.4 M 12.3 149.0 C 11.0 149.7 10.9 151.3 10.7 153.4 C 10.6 155.6 11.8 153.4 12.4 153.7 C 12.9 156.6 12.0 156.6 10.6 156.1 C 11.5 157.3 9.9 160.6 11.6 160.0 C 11.6 155.2 12.0 163.3 13.0 159.3 C 13.3 158.9 13.7 160.1 13.7 160.5 C 14.4 159.2 15.3 161.4 15.8 159.3 C 16.9 159.1 16.4 159.4 17.3 158.1 C 17.4 157.6 17.0 157.8 16.8 157.9 C 15.5 157.6 17.5 156.3 16.7 155.2 C 18.3 154.3 16.4 153.2 15.7 154.0 C 15.9 153.1 17.6 152.0 16.4 151.0 C 17.2 150.5 16.7 147.8 15.6 149.3 C 15.0 150.4 14.5 149.1 14.1 148.9 C 13.7 149.2 14.2 150.9 13.9 151.1 C 13.7 150.6 13.0 148.5 13.1 150.7 C 12.5 150.0 12.2 151.0 12.3 149.0 C 12.3 149.0 12.3 149.0 12.3 149.0 Z M 11.3 157.0 C 10.9 157.0 11.3 156.2 11.3 157.0 C 11.3 157.0 11.3 157.0 11.3 157.0 Z M 17.2 151.8 C 16.8 151.8 17.3 151.1 17.2 151.8 C 17.2 151.8 17.2 151.8 17.2 151.8 Z M 16.8 157.5 C 16.3 157.5 16.8 156.8 16.8 157.5 C 16.8 157.5 16.8 157.5 16.8 157.5 Z M 11.6 154.9 C 12.0 153.6 12.2 156.0 11.8 156.1 C 11.9 155.9 11.2 155.2 11.6 154.9 C 11.6 154.9 11.6 154.9 11.6 154.9 Z M 14.2 154.8 C 14.0 154.7 13.9 154.2 14.4 154.3 C 14.5 154.6 14.3 154.9 14.2 154.8 C 14.2 154.8 14.2 154.8 14.2 154.8 Z M 12.3 161.0 C 12.2 160.9 12.1 160.4 12.6 160.4 C 12.7 160.7 12.5 161.1 12.3 161.0 C 12.3 161.0 12.3 161.0 12.3 161.0 Z M 12.8 153.5 C 12.8 153.2 13.3 153.1 13.3 153.5 C 13.1 153.6 13.0 154.5 12.8 153.5 C 12.8 153.5 12.8 153.5 12.8 153.5 Z M 11.3 151.4 C 11.5 150.4 12.2 152.6 12.0 152.5 C 11.7 152.9 10.9 152.0 11.3 151.4 C 11.3 151.4 11.3 151.4 11.3 151.4 Z M 13.4 152.9 C 13.6 152.1 13.7 153.3 13.4 152.9 C 13.4 152.9 13.4 152.9 13.4 152.9 Z M 15.6 160.1 C 15.8 159.3 16.0 160.5 15.6 160.1 C 15.6 160.1 15.6 160.1 15.6 160.1 Z M 17.0 155.7 C 17.2 154.9 17.3 156.0 17.0 155.7 C 17.0 155.7 17.0 155.7 17.0 155.7 Z M 12.5 157.2 C 12.5 158.8 11.3 157.4 12.5 157.2 C 12.5 157.2 12.5 157.2 12.5 157.2 Z M 11.2 149.0 C 11.2 150.5 10.1 149.1 11.2 149.0 C 11.2 149.0 11.2 149.0 11.2 149.0 Z M 16.0 163.7 C 14.6 164.0 20.2 165.4 18.0 163.7 C 17.4 162.2 21.1 162.4 20.2 163.7 C 21.3 163.8 21.3 163.9 21.9 163.3 C 22.1 164.3 24.7 164.8 25.6 164.3 C 26.1 163.4 23.9 164.2 25.3 163.2 C 28.5 162.9 25.0 162.2 26.1 161.0 C 26.2 161.0 26.3 161.6 26.6 161.3 C 26.6 160.2 24.8 159.4 25.5 158.6 C 25.1 158.8 22.7 157.5 23.7 158.5 C 24.1 159.5 21.2 157.2 21.5 159.0 C 20.7 158.2 20.0 159.3 19.2 158.3 C 18.7 158.1 18.7 159.0 18.8 159.2 C 18.9 160.0 18.1 157.4 17.2 158.8 C 17.1 158.4 14.6 158.6 16.5 159.2 C 16.0 159.1 13.1 158.7 14.6 160.3 C 16.6 161.0 12.5 161.9 14.9 161.9 C 16.8 162.1 17.1 161.8 15.8 162.6 C 15.3 162.5 13.2 162.6 15.0 163.3 C 15.4 163.1 16.3 163.3 16.0 163.7 C 16.0 163.7 16.0 163.7 16.0 163.7 Z M 15.6 161.4 C 16.7 161.4 15.7 162.0 15.6 161.4 C 15.6 161.4 15.6 161.4 15.6 161.4 Z M 19.4 158.0 C 20.4 157.9 19.5 158.5 19.4 158.0 C 19.4 158.0 19.4 158.0 19.4 158.0 Z M 19.4 164.1 C 20.0 163.6 20.2 165.2 19.4 164.1 C 19.4 164.1 19.4 164.1 19.4 164.1 Z M 17.7 159.2 C 17.7 159.2 17.5 159.4 17.3 159.5 C 17.3 159.4 17.6 159.2 17.7 159.2 C 17.7 159.2 17.7 159.2 17.7 159.2 Z M 21.3 164.1 C 22.8 163.3 21.6 165.3 21.3 164.1 C 21.3 164.1 21.3 164.1 21.3 164.1 Z M 24.4 162.6 C 24.5 161.0 26.1 162.9 24.4 162.6 C 24.4 162.6 24.4 162.6 24.4 162.6 Z M 22.0 159.1 C 21.8 159.4 21.7 158.9 22.0 159.1 C 22.0 159.1 22.0 159.1 22.0 159.1 Z M 15.2 158.8 C 14.9 159.2 14.9 158.6 15.2 158.8 C 15.2 158.8 15.2 158.8 15.2 158.8 Z M 24.0 159.2 C 23.9 159.8 23.4 158.9 24.0 159.2 C 24.0 159.2 24.0 159.2 24.0 159.2 Z M 19.7 163.5 C 18.3 164.7 17.9 161.6 19.7 163.5 C 19.7 163.5 19.7 163.5 19.7 163.5 Z M 17.1 163.6 C 16.1 163.9 17.2 162.8 17.7 163.0 C 17.7 163.1 17.2 163.5 17.1 163.6 C 17.1 163.6 17.1 163.6 17.1 163.6 Z M 21.3 163.3 C 20.3 163.9 20.3 163.0 21.3 163.3 C 21.3 163.3 21.3 163.3 21.3 163.3 Z M 18.7 164.0 C 18.2 163.9 19.1 163.9 18.7 164.0 C 18.7 164.0 18.7 164.0 18.7 164.0 Z M 23.3 164.6 C 22.8 164.5 23.8 164.5 23.3 164.6 C 23.3 164.6 23.3 164.6 23.3 164.6 Z M 15.8 164.2 C 15.3 164.1 16.3 164.1 15.8 164.2 C 15.8 164.2 15.8 164.2 15.8 164.2 Z M 22.9 163.8 C 23.0 163.2 21.5 162.0 24.1 163.0 C 24.6 163.4 23.6 164.3 22.9 163.8 C 22.9 163.8 22.9 163.8 22.9 163.8 Z M 12.3 144.5 C 10.5 150.8 13.7 149.5 14.2 149.8 C 15.1 150.7 15.6 149.9 16.2 148.7 C 18.2 147.6 14.2 146.5 16.1 145.8 C 18.8 144.4 13.8 143.6 16.6 143.2 C 17.4 143.6 16.8 141.1 16.6 141.2 C 17.9 140.2 15.6 138.1 15.3 138.1 C 15.7 137.3 18.2 137.6 16.3 134.8 C 15.6 132.7 18.1 132.3 16.4 132.5 C 18.3 131.4 15.9 131.4 16.5 130.1 C 17.5 129.3 14.9 129.7 16.9 128.3 C 15.3 127.2 18.0 129.4 16.8 124.3 C 16.7 126.6 15.5 121.7 16.6 122.9 C 17.7 124.8 16.2 120.5 16.9 118.5 C 16.3 117.8 14.8 114.7 16.4 115.6 C 18.2 113.9 15.3 112.9 16.8 112.4 C 17.4 111.9 16.1 111.2 16.2 110.7 C 17.3 110.2 16.6 109.3 16.9 106.6 C 17.4 100.6 13.9 104.6 13.6 102.0 C 13.0 101.4 9.3 103.6 12.1 103.2 C 11.3 103.4 14.2 109.6 11.1 105.9 C 12.4 108.3 9.9 105.1 11.4 109.6 C 13.5 104.9 12.2 116.1 11.2 110.5 C 10.5 111.2 10.7 113.4 11.2 112.0 C 13.2 112.0 10.3 115.5 12.7 114.0 C 12.0 117.2 14.2 116.9 12.7 117.4 C 10.1 117.5 13.3 117.4 12.6 118.9 C 12.6 122.9 9.6 119.0 11.6 122.0 C 10.3 125.5 12.7 123.1 13.0 124.5 C 14.8 125.3 11.6 128.1 11.4 125.1 C 12.4 126.9 10.5 125.2 11.7 127.2 C 13.3 126.3 9.9 129.2 11.3 128.9 C 11.7 130.6 12.7 130.0 12.7 130.5 C 12.7 132.8 11.1 131.8 12.3 132.5 C 13.0 133.2 10.8 133.9 11.4 134.3 C 11.4 131.9 13.1 136.6 12.2 136.7 C 12.1 135.2 10.0 137.1 11.3 138.3 C 15.0 137.6 10.4 140.3 11.7 141.5 C 13.7 140.8 11.9 146.9 11.0 144.4 C 11.2 144.6 12.3 144.4 12.3 144.5 M 11.7 135.1 C 11.8 133.1 12.0 137.3 11.7 135.1 M 11.1 135.0 C 11.8 134.3 10.6 136.9 10.9 134.9 C 10.9 134.9 11.1 135.2 11.1 135.0 M 11.0 126.7 C 11.6 127.1 10.7 127.8 11.0 126.7 M 12.3 125.4 C 12.8 124.2 12.4 127.2 12.3 125.4 M 11.9 107.0 C 14.9 109.9 10.2 108.4 11.9 107.0 M 11.3 119.0 C 11.7 121.3 10.0 117.8 11.3 119.0 M 12.0 119.8 C 12.5 121.0 11.4 119.9 12.0 119.8 M 11.9 110.5 C 12.0 110.4 12.0 110.4 11.9 110.5 C 11.9 110.5 11.9 110.5 11.9 110.5 Z M 12.0 105.1 C 11.9 105.1 11.9 105.1 12.0 105.1 C 12.0 105.1 12.0 105.1 12.0 105.1 Z M 12.2 115.8 C 11.5 117.3 11.9 113.0 12.2 115.8 C 12.2 115.8 12.2 115.8 12.2 115.8 Z M 16.5 109.2 C 16.6 109.3 16.6 109.3 16.5 109.2 C 16.5 109.2 16.5 109.2 16.5 109.2 Z M 13.0 136.9 C 13.1 136.9 13.1 136.9 13.0 136.9 C 13.0 136.9 13.0 136.9 13.0 136.9 Z M 11.9 142.8 C 12.3 142.8 11.6 143.9 11.9 142.8 C 11.9 142.8 11.9 142.8 11.9 142.8 Z M 15.3 148.1 C 15.4 148.2 15.4 148.2 15.3 148.1 C 15.3 148.1 15.3 148.1 15.3 148.1 Z M 14.6 139.1 C 14.6 139.2 14.6 139.2 14.6 139.1 C 14.6 139.1 14.6 139.1 14.6 139.1 Z M 12.4 137.9 C 10.7 138.7 12.8 135.7 12.4 137.9 C 12.4 137.9 12.4 137.9 12.4 137.9 Z M 16.4 119.1 C 15.6 118.8 16.6 117.7 16.4 119.1 C 16.4 119.1 16.4 119.1 16.4 119.1 Z M 13.0 125.3 C 12.6 125.0 13.1 124.5 13.0 125.3 C 13.0 125.3 13.0 125.3 13.0 125.3 Z M 10.7 128.2 C 10.3 127.9 10.9 127.4 10.7 128.2 C 10.7 128.2 10.7 128.2 10.7 128.2 Z M 11.4 142.7 C 11.3 142.5 11.3 142.5 11.4 142.7 C 11.4 142.7 11.4 142.7 11.4 142.7 Z M 12.7 140.6 C 11.1 142.0 13.5 138.4 12.7 140.6 C 12.7 140.6 12.7 140.6 12.7 140.6 Z M 13.1 143.3 C 13.7 142.6 12.9 145.2 13.1 143.3 M 15.5 142.1 C 14.8 140.2 18.3 144.1 15.5 142.1 C 15.5 142.1 15.5 142.1 15.5 142.1 Z M 16.1 132.9 C 16.2 132.8 16.2 132.8 16.1 132.9 C 16.1 132.9 16.1 132.9 16.1 132.9 Z M 11.6 133.1 C 11.7 131.4 12.0 134.2 11.6 133.1 C 11.6 133.1 11.6 133.1 11.6 133.1 Z M 11.3 147.4 C 11.3 145.7 11.6 148.5 11.3 147.4 C 11.3 147.4 11.3 147.4 11.3 147.4 Z M 14.6 127.2 C 14.4 124.5 15.4 129.0 14.6 127.2 C 14.6 127.2 14.6 127.2 14.6 127.2 Z M 12.8 117.0 C 12.9 116.9 12.9 116.9 12.8 117.0 C 12.8 117.0 12.8 117.0 12.8 117.0 Z M 12.2 114.9 C 12.2 114.9 12.2 114.9 12.2 114.9 C 12.2 114.9 12.2 114.9 12.2 114.9 Z M 13.8 107.8 C 13.8 107.7 13.8 107.7 13.8 107.8 C 13.8 107.8 13.8 107.8 13.8 107.8 Z M 11.4 113.0 C 11.5 113.0 11.5 113.0 11.4 113.0 C 11.4 113.0 11.4 113.0 11.4 113.0 Z M 11.8 107.8 C 11.9 107.8 11.9 107.8 11.8 107.8 C 11.8 107.8 11.8 107.8 11.8 107.8 Z M 10.5 108.1 C 10.6 108.0 10.6 108.0 10.5 108.1 C 10.5 108.1 10.5 108.1 10.5 108.1 Z M 17.2 121.8 C 17.3 121.7 17.3 121.7 17.2 121.8 C 17.2 121.8 17.2 121.8 17.2 121.8 Z M 10.9 139.7 C 11.1 139.6 11.1 139.6 10.9 139.7 C 10.9 139.7 10.9 139.7 10.9 139.7 Z M 12.4 108.5 C 12.5 108.4 12.5 108.4 12.4 108.5 C 12.4 108.5 12.4 108.5 12.4 108.5 Z M 13.7 121.7 C 15.0 122.0 11.9 122.4 13.6 121.4 C 13.7 121.5 13.5 121.8 13.7 121.7 M 15.8 120.6 C 15.9 120.7 15.9 120.7 15.8 120.6 C 15.8 120.6 15.8 120.6 15.8 120.6 Z M 16.7 126.5 C 16.7 126.6 16.7 126.6 16.7 126.5 C 16.7 126.5 16.7 126.5 16.7 126.5 Z M 11.2 113.9 C 10.4 113.9 11.7 112.6 11.2 114.1 M 16.1 108.6 C 15.3 108.5 16.6 107.3 16.1 108.8 M 11.7 149.3 C 12.3 149.6 11.4 150.4 11.7 149.3 M 17.4 127.9 C 17.9 128.3 17.0 128.9 17.4 127.9 M 15.7 124.9 C 14.9 124.9 16.2 123.6 15.7 125.1 M 16.0 112.5 C 16.0 112.4 16.0 112.4 16.0 112.5 C 16.0 112.5 16.0 112.5 16.0 112.5 Z M 11.7 130.6 C 11.8 130.5 11.8 130.5 11.7 130.6 C 11.7 130.6 11.7 130.6 11.7 130.6 Z M 13.3 123.8 C 12.3 124.5 14.0 122.7 13.3 123.8 M 13.5 133.0 C 12.2 134.2 13.9 130.8 13.5 133.0 M 16.4 105.7 C 14.9 106.7 17.2 104.9 16.4 105.7 M 12.6 112.2 C 11.1 113.3 13.4 111.3 12.6 112.2 M 12.4 129.3 C 11.6 129.2 12.9 127.8 12.4 129.3 M 11.6 145.6 C 11.5 147.1 11.0 143.5 11.6 145.6 M 16.1 116.3 C 16.1 116.2 16.1 116.2 16.1 116.3 C 16.1 116.3 16.1 116.3 16.1 116.3 Z M 17.4 141.4 C 17.5 141.3 17.5 141.3 17.4 141.4 C 17.4 141.4 17.4 141.4 17.4 141.4 Z M 11.4 101.8 C 11.5 101.8 11.5 101.8 11.4 101.8 C 11.4 101.8 11.4 101.8 11.4 101.8 Z M 13.3 113.4 C 13.4 113.3 13.4 113.3 13.3 113.4 C 13.3 113.4 13.3 113.4 13.3 113.4 Z M 11.2 104.8 C 11.3 104.8 11.3 104.8 11.2 104.8 C 11.2 104.8 11.2 104.8 11.2 104.8 Z M 14.5 118.6 C 14.5 118.6 14.5 118.6 14.5 118.6 C 14.5 118.6 14.5 118.6 14.5 118.6 Z M 10.6 118.6 C 10.6 118.6 10.6 118.6 10.6 118.6 C 10.6 118.6 10.6 118.6 10.6 118.6 Z M 12.3 124.4 C 12.3 124.4 12.3 124.4 12.3 124.4 C 12.3 124.4 12.3 124.4 12.3 124.4 Z M 10.9 116.2 C 10.7 112.8 12.2 118.2 10.9 116.2 C 10.9 116.2 10.9 116.2 10.9 116.2 Z M 14.8 122.8 C 14.8 122.8 14.8 122.8 14.8 122.8 C 14.8 122.8 14.8 122.8 14.8 122.8 Z M 12.0 122.6 C 10.9 120.2 13.9 121.9 12.0 122.6 M 11.1 131.4 C 10.5 130.7 12.0 131.3 11.1 131.4 M 16.2 135.9 C 16.3 135.9 16.3 135.9 16.2 135.9 C 16.2 135.9 16.2 135.9 16.2 135.9 Z M 15.8 134.9 C 15.8 134.8 15.8 134.8 15.8 134.9 C 15.8 134.9 15.8 134.9 15.8 134.9 Z M 10.9 133.6 C 10.9 133.6 10.9 133.6 10.9 133.6 C 10.9 133.6 10.9 133.6 10.9 133.6 Z M 17.2 135.0 C 17.3 134.9 17.3 134.9 17.2 135.0 C 17.2 135.0 17.2 135.0 17.2 135.0 Z M 10.7 119.9 C 10.7 119.8 10.7 119.8 10.7 119.9 C 10.7 119.9 10.7 119.9 10.7 119.9 Z M 10.7 103.0 C 10.7 103.0 10.7 103.0 10.7 103.0 C 10.7 103.0 10.7 103.0 10.7 103.0 Z M 15.7 145.5 C 15.7 145.4 15.7 145.4 15.7 145.5 C 15.7 145.5 15.7 145.5 15.7 145.5 Z M 12.2 118.5 C 12.3 118.5 12.3 118.5 12.2 118.5 C 12.2 118.5 12.2 118.5 12.2 118.5 Z M 16.0 138.2 C 16.0 138.1 16.0 138.1 16.0 138.2 C 16.0 138.2 16.0 138.2 16.0 138.2 Z M 11.9 119.5 C 11.9 119.5 11.9 119.5 11.9 119.5 C 11.9 119.5 11.9 119.5 11.9 119.5 Z M 16.4 116.9 C 16.4 116.8 16.4 116.8 16.4 116.9 C 16.4 116.9 16.4 116.9 16.4 116.9 Z M 17.3 113.7 C 17.3 113.6 17.3 113.6 17.3 113.7 C 17.3 113.7 17.3 113.7 17.3 113.7 Z M 13.7 116.4 C 13.7 116.3 13.7 116.3 13.7 116.4 C 13.7 116.4 13.7 116.4 13.7 116.4 Z M 14.3 139.1 C 13.0 145.4 13.7 133.8 14.3 139.1 M 14.0 115.4 C 13.7 119.8 12.5 111.3 14.0 115.4 C 13.6 114.7 14.0 115.3 14.0 115.4 M 10.8 100.0 C 12.2 102.4 13.6 102.9 15.0 102.6 C 15.8 102.0 12.9 101.0 15.3 101.8 C 15.8 104.1 18.9 102.3 15.8 101.2 C 15.4 98.2 17.8 101.5 16.6 99.4 C 16.3 96.3 17.2 98.2 17.0 95.9 C 15.3 93.8 17.8 94.9 16.2 93.6 C 18.0 95.5 15.7 91.0 16.5 91.3 C 17.6 93.8 16.5 83.5 16.0 88.6 C 15.2 86.0 16.7 87.1 16.9 86.5 C 15.9 85.0 17.7 83.3 16.7 81.4 C 16.4 81.6 16.4 82.2 16.0 82.2 C 15.4 82.3 16.2 80.8 16.1 81.0 C 15.8 79.9 14.7 75.7 16.5 80.5 C 17.4 81.1 16.2 77.2 16.9 77.7 C 16.9 74.5 15.2 76.0 16.5 75.2 C 16.5 72.9 16.5 71.2 16.3 71.1 C 16.5 69.8 17.5 70.1 16.5 68.3 C 18.4 66.5 13.0 64.0 16.6 65.2 C 15.7 63.8 18.1 64.5 15.9 63.2 C 16.9 64.9 17.6 59.5 16.0 60.9 C 15.5 59.9 18.3 58.1 16.0 57.1 C 14.4 54.6 12.7 53.8 11.1 55.7 C 12.4 56.2 9.8 57.9 12.0 57.1 C 12.8 55.1 12.8 62.3 12.0 60.3 C 9.4 58.2 13.6 64.8 11.8 65.2 C 12.8 64.6 13.3 70.7 11.4 67.9 C 11.2 68.9 12.1 69.7 11.0 70.2 C 11.2 66.8 13.1 72.7 11.9 71.8 C 11.1 70.8 10.5 75.8 11.6 75.8 C 14.4 75.5 11.1 76.9 12.1 78.4 C 12.7 81.5 9.8 76.7 11.8 79.9 C 11.5 80.3 11.5 84.1 10.9 81.4 C 11.2 80.6 13.9 85.2 11.6 84.4 C 10.3 79.7 10.8 88.9 11.6 87.8 C 12.8 82.1 13.0 95.1 11.7 89.6 C 10.5 91.9 11.2 88.6 11.8 92.3 C 12.5 92.2 13.2 95.2 11.8 93.9 C 9.5 93.5 14.7 96.1 11.7 97.0 C 10.4 96.8 12.6 101.6 11.2 99.5 C 11.0 99.4 10.8 99.9 10.8 100.0 M 11.1 98.8 C 11.5 99.5 10.4 99.3 11.1 98.8 M 11.5 99.5 C 11.5 99.5 11.5 99.5 11.5 99.5 C 11.5 99.5 11.5 99.5 11.5 99.5 Z M 11.9 92.9 C 11.8 92.9 11.8 92.9 11.9 92.9 C 11.9 92.9 11.9 92.9 11.9 92.9 Z M 17.4 90.1 C 17.3 90.1 17.3 90.1 17.4 90.1 C 17.4 90.1 17.4 90.1 17.4 90.1 Z M 12.0 88.4 C 12.0 88.5 12.0 88.5 12.0 88.4 C 12.0 88.4 12.0 88.4 12.0 88.4 Z M 12.2 95.4 C 12.2 95.5 12.2 95.5 12.2 95.4 C 12.2 95.4 12.2 95.4 12.2 95.4 Z M 11.2 88.5 C 12.0 88.5 10.6 89.8 11.1 88.3 C 11.1 88.3 11.1 88.6 11.2 88.5 M 10.9 82.4 C 11.0 82.4 11.0 82.4 10.9 82.4 M 17.4 73.1 C 17.5 73.1 17.5 73.1 17.4 73.1 M 10.8 68.2 C 10.9 68.1 10.9 68.1 10.8 68.2 M 11.7 77.0 C 11.6 75.1 12.1 76.7 11.7 77.0 M 11.3 63.7 C 10.7 65.7 10.8 61.0 11.3 63.7 M 10.8 61.2 C 10.9 61.1 10.9 61.1 10.8 61.2 M 11.1 71.7 C 11.2 71.8 11.2 71.8 11.1 71.7 C 11.1 71.7 11.1 71.7 11.1 71.7 Z M 11.4 77.5 C 10.9 79.7 10.6 74.7 11.4 77.5 M 11.1 91.7 C 10.7 90.3 12.1 92.2 11.1 91.7 M 11.5 94.6 C 11.6 94.7 11.6 94.7 11.5 94.6 C 11.5 94.6 11.5 94.6 11.5 94.6 Z M 11.2 67.4 C 11.2 67.5 11.2 67.5 11.2 67.4 C 11.2 67.4 11.2 67.4 11.2 67.4 Z M 11.1 64.7 C 11.1 64.7 11.1 64.7 11.1 64.7 C 11.1 64.7 11.1 64.7 11.1 64.7 Z M 17.1 64.2 C 17.2 64.3 17.2 64.3 17.1 64.2 C 17.1 64.2 17.1 64.2 17.1 64.2 Z M 14.1 93.7 C 13.6 95.3 12.1 91.1 13.6 92.1 C 14.2 92.2 13.9 93.5 14.1 93.7 M 13.2 80.2 C 15.3 80.8 10.4 80.5 13.2 80.2 M 12.1 61.8 C 14.6 61.6 10.4 62.9 12.1 61.8 M 11.7 57.9 C 12.2 57.2 12.0 64.7 11.3 58.9 C 10.9 58.2 11.4 58.1 11.7 57.9 M 11.9 82.8 C 13.0 82.9 11.4 85.4 11.9 82.8 M 15.3 73.9 C 14.6 72.7 13.9 70.1 15.2 71.8 C 16.8 72.7 15.9 75.3 15.3 73.9 M 12.2 98.7 C 10.4 96.6 13.8 99.4 12.2 98.7 M 12.4 92.0 C 12.3 91.9 12.3 91.9 12.4 92.0 C 12.4 92.0 12.4 92.0 12.4 92.0 Z M 12.1 89.1 C 12.2 89.1 12.2 89.1 12.1 89.1 M 10.6 97.0 C 10.7 96.9 10.7 96.9 10.6 97.0 M 13.4 72.9 C 13.5 72.9 13.5 72.9 13.4 72.9 M 12.2 77.7 C 14.0 76.1 12.5 79.3 12.2 77.7 M 15.7 85.9 C 16.5 85.5 15.7 87.5 15.7 85.9 M 11.5 73.0 C 13.2 72.1 13.1 76.5 11.5 73.0 M 12.0 78.9 C 12.0 78.8 12.0 78.8 12.0 78.9 C 12.0 78.9 12.0 78.9 12.0 78.9 Z M 15.5 73.4 C 15.5 73.4 15.5 73.4 15.5 73.4 C 15.5 73.4 15.5 73.4 15.5 73.4 Z M 15.4 72.5 C 15.4 72.6 15.4 72.6 15.4 72.5 C 15.4 72.5 15.4 72.5 15.4 72.5 Z M 11.3 70.6 C 11.3 70.7 11.3 70.7 11.3 70.6 C 11.3 70.6 11.3 70.6 11.3 70.6 Z M 16.3 96.8 C 16.4 95.0 16.6 98.3 16.3 96.8 C 16.3 96.8 16.3 96.8 16.3 96.8 Z M 11.2 86.3 C 12.6 83.9 12.5 89.1 11.2 86.3 C 11.2 86.3 11.2 86.3 11.2 86.3 Z M 13.5 83.9 C 13.5 84.0 13.5 84.0 13.5 83.9 C 13.5 83.9 13.5 83.9 13.5 83.9 Z M 10.4 73.6 C 10.5 73.7 10.5 73.7 10.4 73.6 C 10.4 73.6 10.4 73.6 10.4 73.6 Z M 16.5 96.0 C 16.6 96.0 16.6 96.0 16.5 96.0 C 16.5 96.0 16.5 96.0 16.5 96.0 Z M 12.2 65.8 C 12.3 65.9 12.3 65.9 12.2 65.8 C 12.2 65.8 12.2 65.8 12.2 65.8 Z M 15.7 78.4 C 15.1 77.4 16.3 78.6 15.7 78.4 C 15.7 78.4 15.7 78.4 15.7 78.4 Z M 15.8 75.7 C 15.8 75.7 15.8 75.7 15.8 75.7 C 15.8 75.7 15.8 75.7 15.8 75.7 Z M 10.6 60.4 C 10.6 60.4 10.6 60.4 10.6 60.4 C 10.6 60.4 10.6 60.4 10.6 60.4 Z M 17.4 69.8 C 17.4 69.7 17.4 69.7 17.4 69.8 C 17.4 69.8 17.4 69.8 17.4 69.8 Z M 15.4 66.3 C 15.4 66.3 15.4 66.3 15.4 66.3 C 15.4 66.3 15.4 66.3 15.4 66.3 Z M 11.7 71.3 C 11.4 68.4 12.5 72.4 11.7 71.3 C 11.7 71.3 11.7 71.3 11.7 71.3 Z M 14.8 59.1 C 14.9 59.1 14.9 59.1 14.8 59.1 C 14.8 59.1 14.8 59.1 14.8 59.1 Z M 12.5 56.2 C 12.6 56.2 12.6 56.2 12.5 56.2 C 12.5 56.2 12.5 56.2 12.5 56.2 Z M 11.2 54.6 C 11.3 54.6 11.3 54.6 11.2 54.6 C 11.2 54.6 11.2 54.6 11.2 54.6 Z M 14.6 90.3 C 14.5 90.4 14.5 90.4 14.6 90.3 C 14.6 90.3 14.6 90.3 14.6 90.3 Z M 10.8 89.7 C 10.8 89.7 10.8 89.7 10.8 89.7 C 10.8 89.7 10.8 89.7 10.8 89.7 Z M 10.6 85.8 C 10.6 85.8 10.6 85.8 10.6 85.8 C 10.6 85.8 10.6 85.8 10.6 85.8 Z M 16.9 92.1 C 16.9 92.1 16.9 92.1 16.9 92.1 C 16.9 92.1 16.9 92.1 16.9 92.1 Z M 13.7 76.6 C 13.6 76.6 13.6 76.6 13.7 76.6 C 13.7 76.6 13.7 76.6 13.7 76.6 Z M 15.2 76.1 C 15.2 76.1 15.2 76.1 15.2 76.1 C 15.2 76.1 15.2 76.1 15.2 76.1 Z M 17.3 80.4 C 17.3 80.4 17.3 80.4 17.3 80.4 C 17.3 80.4 17.3 80.4 17.3 80.4 Z M 16.6 75.9 C 16.5 75.9 16.5 75.9 16.6 75.9 C 16.6 75.9 16.6 75.9 16.6 75.9 Z M 16.2 101.0 C 16.3 101.0 16.3 101.0 16.2 101.0 C 16.2 101.0 16.2 101.0 16.2 101.0 Z M 13.3 100.1 C 13.4 100.2 13.4 100.2 13.3 100.1 C 13.3 100.1 13.3 100.1 13.3 100.1 Z M 11.5 75.0 C 10.9 74.0 12.4 74.2 11.5 75.0 M 11.9 80.6 C 12.0 80.7 12.0 80.7 11.9 80.6 C 11.9 80.6 11.9 80.6 11.9 80.6 Z M 11.7 65.9 C 12.8 66.0 11.1 68.1 11.7 65.9 C 11.7 65.9 11.7 65.9 11.7 65.9 Z M 16.6 71.7 C 16.6 71.6 16.6 71.6 16.6 71.7 C 16.6 71.7 16.6 71.7 16.6 71.7 Z M 16.1 70.0 C 16.2 70.0 16.2 70.0 16.1 70.0 C 16.1 70.0 16.1 70.0 16.1 70.0 Z M 12.9 60.4 C 13.0 60.3 13.0 60.3 12.9 60.4 M 10.9 80.8 C 11.4 80.2 11.3 80.3 10.9 80.8 M 11.7 64.2 C 11.7 64.3 11.7 64.3 11.7 64.2 C 11.7 64.2 11.7 64.2 11.7 64.2 Z M 12.2 58.2 C 12.3 58.3 12.3 58.3 12.2 58.2 C 12.2 58.2 12.2 58.2 12.2 58.2 Z M 11.7 85.0 C 13.1 85.5 12.7 86.1 11.7 85.0 M 12.1 95.9 C 12.2 96.0 12.2 96.0 12.1 95.9 C 12.1 95.9 12.1 95.9 12.1 95.9 Z M 11.2 49.0 C 9.7 50.8 11.9 52.4 11.9 52.4 C 9.0 50.0 13.1 55.8 13.7 55.6 C 14.1 56.0 19.3 57.3 16.1 53.2 C 15.7 52.3 16.7 52.7 16.7 52.3 C 16.6 48.8 15.1 53.6 15.1 49.3 C 15.5 48.9 18.0 51.5 16.3 47.8 C 16.5 47.9 17.5 45.7 16.3 45.9 C 17.5 45.5 16.1 43.5 15.8 42.1 C 16.5 41.4 17.6 44.4 16.2 39.2 C 18.3 39.1 14.7 35.6 17.0 35.9 C 17.0 34.9 13.3 30.2 15.4 34.4 C 15.2 33.9 13.4 33.9 14.1 31.2 C 14.5 32.0 18.3 36.9 16.5 30.4 C 16.6 29.6 15.6 26.8 16.0 26.7 C 16.5 29.7 17.7 24.7 16.6 24.3 C 17.3 20.9 15.6 21.7 16.9 19.9 C 16.9 17.6 15.2 19.2 16.2 17.1 C 16.0 14.6 16.9 17.1 16.9 17.2 C 17.1 15.5 16.4 14.1 16.4 13.5 C 16.6 13.2 17.4 13.1 16.5 11.7 C 14.8 8.0 13.0 8.2 11.3 5.6 C 10.5 6.3 12.6 7.5 11.4 7.3 C 12.4 9.2 11.3 7.4 11.5 11.9 C 11.8 12.0 12.5 11.7 12.6 12.8 C 12.5 14.3 9.6 10.4 11.6 15.1 C 12.2 12.4 12.6 20.4 13.2 18.0 C 13.5 22.0 12.9 18.8 12.2 20.9 C 14.2 22.5 10.2 19.3 11.7 21.7 C 10.9 21.2 11.3 25.8 12.5 23.8 C 13.0 28.6 11.9 24.9 10.8 25.6 C 10.7 27.5 14.0 28.4 11.6 27.6 C 10.5 29.4 12.8 28.7 10.9 29.1 C 12.6 29.6 10.9 31.0 12.7 31.8 C 12.9 36.4 10.8 29.7 12.1 33.9 C 12.1 32.9 9.7 31.3 11.3 34.6 C 14.1 36.0 8.7 35.1 12.5 36.7 C 13.6 43.8 10.9 36.5 10.9 40.0 C 10.9 40.9 12.2 40.0 12.2 40.8 C 11.7 44.9 10.7 40.4 12.5 44.1 C 13.0 48.9 10.9 44.2 10.8 46.3 C 11.7 47.1 13.2 50.0 11.2 49.0 M 12.1 45.7 C 11.5 44.4 12.8 45.6 12.1 45.7 M 11.2 53.9 C 10.7 52.6 11.9 53.8 11.2 53.9 M 11.6 41.6 C 11.0 39.9 12.6 42.0 11.6 41.6 M 12.5 18.7 C 12.5 20.3 12.0 17.5 12.5 18.7 M 11.1 50.3 C 10.4 48.5 12.2 50.7 11.1 50.3 M 12.6 52.9 C 12.6 52.9 12.6 52.9 12.6 52.9 M 11.0 14.9 C 11.0 14.9 11.0 14.9 11.0 14.9 M 10.9 21.3 C 11.0 20.0 11.3 22.4 10.9 21.3 M 17.2 27.1 C 17.3 25.8 17.6 28.1 17.2 27.1 M 10.9 11.4 C 10.4 9.5 11.6 11.6 10.9 11.4 M 12.3 9.1 C 11.7 7.4 12.9 8.9 12.3 9.1 M 14.3 48.1 C 14.4 48.2 14.4 48.2 14.3 48.1 C 14.3 48.1 14.3 48.1 14.3 48.1 Z M 15.9 37.8 C 15.3 38.7 16.7 36.8 15.9 37.8 M 11.8 36.7 C 13.1 36.8 11.7 38.4 11.8 36.7 C 11.8 36.7 11.8 36.7 11.8 36.7 Z M 12.4 39.2 C 12.4 39.3 12.4 39.3 12.4 39.2 C 12.4 39.2 12.4 39.2 12.4 39.2 Z M 12.4 32.7 C 12.4 32.8 12.4 32.8 12.4 32.7 C 12.4 32.7 12.4 32.7 12.4 32.7 Z M 12.5 34.1 C 12.8 34.9 12.3 34.7 12.5 34.1 C 12.5 34.1 12.5 34.1 12.5 34.1 Z M 16.6 28.1 C 16.9 28.9 16.3 28.6 16.6 28.1 C 16.6 28.1 16.6 28.1 16.6 28.1 Z M 13.0 36.5 C 14.3 37.7 12.1 36.8 13.0 36.5 C 13.0 36.5 13.0 36.5 13.0 36.5 Z M 16.0 32.1 C 15.7 31.2 17.2 31.9 16.0 32.1 M 11.2 13.8 C 10.9 12.9 12.4 13.7 11.2 13.8 M 10.8 27.5 C 10.5 26.6 12.0 27.3 10.8 27.5 M 11.6 44.5 C 11.7 44.5 11.7 44.5 11.6 44.5 M 17.1 41.1 C 16.6 39.9 17.7 41.1 17.1 41.1 M 16.7 53.5 C 16.2 52.3 17.3 53.5 16.7 53.5 M 17.1 21.2 C 16.7 20.9 17.2 20.0 17.1 21.2 M 12.9 27.6 C 13.0 26.5 13.7 25.9 13.6 28.3 C 13.3 28.2 13.2 27.3 12.9 27.6 C 12.9 27.6 12.9 27.6 12.9 27.6 Z M 15.8 25.8 C 15.9 25.7 15.9 25.7 15.8 25.8 M 11.7 24.4 C 11.8 24.3 11.8 24.3 11.7 24.4 M 11.8 17.4 C 12.0 17.4 12.0 17.4 11.8 17.4 M 11.5 16.1 C 11.5 16.2 11.5 16.2 11.5 16.1 C 11.5 16.1 11.5 16.1 11.5 16.1 Z M 10.9 7.8 C 11.0 7.9 11.0 7.9 10.9 7.8 C 10.9 7.8 10.9 7.8 10.9 7.8 Z M 12.0 19.8 C 12.0 19.9 12.0 19.9 12.0 19.8 C 12.0 19.8 12.0 19.8 12.0 19.8 Z M 16.8 17.9 C 16.9 17.9 16.9 17.9 16.8 17.9 C 16.8 17.9 16.8 17.9 16.8 17.9 Z M 16.1 18.0 C 16.1 18.0 16.1 18.0 16.1 18.0 C 16.1 18.0 16.1 18.0 16.1 18.0 Z M 11.2 48.3 C 10.3 46.6 13.4 49.3 11.2 48.3 M 16.1 14.6 C 17.0 14.4 16.3 16.5 16.1 14.6 C 16.1 14.6 16.1 14.6 16.1 14.6 Z M 13.0 21.6 C 13.2 21.6 13.2 21.6 13.0 21.6 M 11.6 15.8 C 11.7 15.9 11.7 15.9 11.6 15.8 M 10.6 35.8 C 10.8 35.9 10.8 35.9 10.6 35.8 M 11.8 10.5 C 12.1 7.5 13.6 13.8 11.8 10.5 M 11.8 38.3 C 11.7 38.3 11.7 38.3 11.8 38.3 M 14.2 32.8 C 14.1 30.5 14.9 34.2 14.2 32.8 M 12.6 25.8 C 12.7 25.9 12.7 25.9 12.6 25.8 C 12.6 25.8 12.6 25.8 12.6 25.8 Z M 12.6 29.1 C 12.8 30.9 12.2 29.2 12.6 29.1 C 12.6 29.1 12.6 29.1 12.6 29.1 Z M 12.4 47.6 C 12.6 45.7 12.8 50.1 12.4 47.6 C 12.4 47.6 12.4 47.6 12.4 47.6 Z M 14.8 14.9 C 14.9 15.0 14.9 15.0 14.8 14.9 C 14.8 14.9 14.8 14.9 14.8 14.9 Z M 11.1 19.4 C 11.4 20.7 10.7 19.5 11.1 19.4 C 11.1 19.4 11.1 19.4 11.1 19.4 Z M 10.9 6.6 C 11.3 7.9 10.6 6.7 10.9 6.6 C 10.9 6.6 10.9 6.6 10.9 6.6 Z M 12.2 50.0 C 14.3 43.9 11.6 59.9 12.2 50.0 C 12.2 50.0 12.2 50.0 12.2 50.0 Z M 11.7 27.1 C 11.8 27.2 11.8 27.2 11.7 27.1 C 11.7 27.1 11.7 27.1 11.7 27.1 Z M 10.8 40.6 C 10.9 40.7 10.9 40.7 10.8 40.6 C 10.8 40.6 10.8 40.6 10.8 40.6 Z M 12.0 44.0 C 12.1 44.0 12.1 44.0 12.0 44.0 C 12.0 44.0 12.0 44.0 12.0 44.0 Z M 17.0 47.0 C 17.1 47.1 17.1 47.1 17.0 47.0 C 17.0 47.0 17.0 47.0 17.0 47.0 Z M 14.7 44.5 C 14.9 44.7 14.9 44.7 14.7 44.5 C 14.7 44.5 14.7 44.5 14.7 44.5 Z M 15.6 50.0 C 15.7 50.1 15.7 50.1 15.6 50.0 C 15.6 50.0 15.6 50.0 15.6 50.0 Z M 16.2 50.4 C 16.3 50.4 16.3 50.4 16.2 50.4 C 16.2 50.4 16.2 50.4 16.2 50.4 Z M 13.0 17.1 C 13.1 17.3 13.1 17.3 13.0 17.1 C 13.0 17.1 13.0 17.1 13.0 17.1 Z M 15.1 21.6 C 14.3 19.2 16.1 23.1 15.1 21.6 C 15.1 21.6 15.1 21.6 15.1 21.6 Z M 14.0 36.4 C 13.8 34.6 14.7 38.0 14.0 36.4 C 14.0 36.4 14.0 36.4 14.0 36.4 Z M 16.7 36.8 C 16.8 36.8 16.8 36.8 16.7 36.8 C 16.7 36.8 16.7 36.8 16.7 36.8 Z M 10.8 43.0 C 10.9 43.2 10.9 43.2 10.8 43.0 C 10.8 43.0 10.8 43.0 10.8 43.0 Z M 11.7 46.7 C 12.7 47.6 11.1 47.3 11.7 46.7 M 11.1 30.9 C 11.2 31.0 11.2 31.0 11.1 30.9 C 11.1 30.9 11.1 30.9 11.1 30.9 Z M 12.7 22.7 C 12.8 22.7 12.8 22.7 12.7 22.7 C 12.7 22.7 12.7 22.7 12.7 22.7 Z M 12.0 12.5 C 12.2 12.7 12.2 12.7 12.0 12.5 C 12.0 12.5 12.0 12.5 12.0 12.5 Z M 11.2 25.0 C 11.3 25.2 11.3 25.2 11.2 25.0 C 11.2 25.0 11.2 25.0 11.2 25.0 Z M 12.2 30.4 C 12.3 30.5 12.3 30.5 12.2 30.4 C 12.2 30.4 12.2 30.4 12.2 30.4 Z M 13.5 11.8 C 13.6 11.9 13.6 11.9 13.5 11.8 C 13.5 11.8 13.5 11.8 13.5 11.8 Z M 11.0 23.8 C 11.1 23.9 11.1 23.9 11.0 23.8 C 11.0 23.8 11.0 23.8 11.0 23.8 Z M 14.4 23.9 C 14.5 24.1 14.5 24.1 14.4 23.9 C 14.4 23.9 14.4 23.9 14.4 23.9 Z M 10.2 45.2 C 10.2 45.3 10.2 45.3 10.2 45.2 C 10.2 45.2 10.2 45.2 10.2 45.2 Z M 12.1 10.4 C 12.2 10.4 12.2 10.4 12.1 10.4 C 12.1 10.4 12.1 10.4 12.1 10.4 Z M 11.2 8.9 C 11.2 9.0 11.2 9.0 11.2 8.9 C 11.2 8.9 11.2 8.9 11.2 8.9 Z M 16.2 20.3 C 15.6 23.0 15.9 17.1 14.8 18.4 C 14.5 13.4 16.2 19.6 16.2 20.3 C 16.2 20.3 16.2 20.3 16.2 20.3 Z M 10.8 3.9 C 12.2 7.2 13.6 8.5 15.0 9.2 C 15.8 9.0 12.9 6.2 15.3 8.5 C 15.8 11.1 18.9 11.2 15.8 8.2 C 15.8 7.7 15.8 7.3 15.8 7.2 C 17.2 7.4 17.3 9.0 17.7 7.9 C 20.3 7.6 19.7 8.6 21.7 8.4 C 21.4 6.7 23.7 9.2 22.8 7.6 C 23.4 9.3 24.8 7.1 25.6 7.9 C 24.5 9.0 33.3 7.9 27.6 7.4 C 29.1 6.6 29.9 8.0 30.8 8.2 C 30.9 7.2 34.9 9.1 35.5 8.0 C 35.0 7.8 34.3 7.7 33.9 7.4 C 33.0 6.7 35.5 7.5 35.3 7.5 C 35.8 7.1 38.6 6.1 36.2 7.9 C 36.6 8.7 38.9 7.5 39.4 8.3 C 42.6 8.3 39.0 6.6 41.3 7.9 C 43.7 7.9 45.3 7.9 45.2 7.7 C 46.7 7.9 47.6 8.8 48.3 7.9 C 52.1 9.7 48.2 4.4 51.4 8.0 C 51.7 7.1 53.8 9.5 52.4 7.2 C 52.0 8.3 58.1 9.0 54.8 7.3 C 55.2 6.8 60.2 9.6 58.7 7.4 C 59.2 5.7 58.3 4.1 54.5 2.5 C 55.5 3.8 50.6 1.2 54.0 3.4 C 57.0 4.1 49.7 4.2 50.8 3.4 C 49.8 0.7 48.2 5.0 45.6 3.1 C 47.5 4.2 41.9 4.7 42.4 2.7 C 41.2 2.6 41.5 3.5 39.6 2.4 C 43.3 2.5 39.6 4.4 39.0 3.2 C 39.1 2.5 33.3 1.9 34.7 3.0 C 38.4 5.7 32.9 2.4 32.7 3.5 C 30.3 4.1 31.5 1.2 30.8 3.2 C 29.9 2.8 26.0 2.8 28.0 2.3 C 29.2 2.5 28.1 5.3 25.8 2.9 C 29.0 1.6 20.4 2.2 22.4 2.9 C 29.9 4.2 17.0 4.4 20.8 3.1 C 16.8 1.8 21.2 2.6 18.1 3.2 C 19.3 3.9 17.2 4.6 16.5 3.1 C 13.8 0.9 18.3 6.1 13.2 3.0 C 12.6 2.5 11.9 2.6 11.4 2.7 C 11.6 4.0 12.1 5.5 11.2 3.7 C 11.0 3.5 10.8 3.8 10.8 3.9 M 11.1 2.9 C 11.5 3.9 10.4 3.1 11.1 2.9 M 11.5 3.9 C 11.5 3.9 11.5 3.9 11.5 3.9 C 11.5 3.9 11.5 3.9 11.5 3.9 Z M 17.7 3.2 C 17.6 3.2 17.6 3.2 17.7 3.2 C 17.7 3.2 17.7 3.2 17.7 3.2 Z M 27.9 8.8 C 27.8 8.7 27.8 8.7 27.9 8.8 C 27.9 8.8 27.9 8.8 27.9 8.8 Z M 22.4 3.4 C 22.3 3.3 22.3 3.3 22.4 3.4 C 22.4 3.4 22.4 3.4 22.4 3.4 Z M 15.6 3.6 C 15.5 3.6 15.5 3.6 15.6 3.6 C 15.6 3.6 15.6 3.6 15.6 3.6 Z M 21.2 2.5 C 22.3 3.4 19.1 1.9 21.2 2.4 C 21.3 2.5 21.0 2.5 21.2 2.5 M 27.0 2.2 C 27.1 2.3 27.1 2.3 27.0 2.2 M 44.5 8.7 C 44.6 8.8 44.6 8.8 44.5 8.7 M 41.3 2.2 C 41.5 2.3 41.5 2.3 41.3 2.2 M 33.6 3.1 C 35.4 3.0 34.3 3.5 33.6 3.1 M 46.5 2.6 C 43.8 2.1 48.7 2.2 46.5 2.6 M 48.4 2.1 C 48.7 2.2 48.7 2.2 48.4 2.1 M 38.2 2.5 C 38.2 2.5 38.2 2.5 38.2 2.5 C 38.2 2.5 38.2 2.5 38.2 2.5 Z M 32.6 2.7 C 29.8 2.3 34.5 1.9 32.6 2.7 M 17.8 2.4 C 18.7 2.0 18.7 3.5 17.8 2.4 M 15.5 2.9 C 15.5 2.9 15.5 2.9 15.5 2.9 C 15.5 2.9 15.5 2.9 15.5 2.9 Z M 42.7 2.6 C 42.6 2.6 42.6 2.6 42.7 2.6 C 42.7 2.6 42.7 2.6 42.7 2.6 Z M 45.3 2.4 C 45.2 2.4 45.2 2.4 45.3 2.4 C 45.3 2.4 45.3 2.4 45.3 2.4 Z M 53.0 8.5 C 52.9 8.5 52.9 8.5 53.0 8.5 C 53.0 8.5 53.0 8.5 53.0 8.5 Z M 19.8 5.4 C 17.7 5.0 19.8 3.4 20.8 4.9 C 21.6 5.5 19.9 5.3 19.8 5.4 M 32.2 4.6 C 34.3 6.6 28.3 1.8 32.2 4.6 M 49.5 3.5 C 52.6 6.0 46.3 1.8 49.5 3.5 M 52.9 3.1 C 54.2 3.6 46.3 3.3 51.4 2.7 C 51.7 2.3 52.4 2.8 52.9 3.1 M 27.9 3.2 C 29.3 4.4 24.6 2.7 27.9 3.2 M 41.2 6.7 C 41.5 5.9 43.3 5.3 43.1 6.5 C 44.1 8.1 40.6 7.3 41.2 6.7 M 12.2 3.6 C 11.9 1.7 13.7 5.1 12.2 3.6 M 19.3 3.7 C 19.2 3.7 19.2 3.7 19.3 3.7 C 19.3 3.7 19.3 3.7 19.3 3.7 Z M 21.8 3.4 C 22.0 3.6 22.0 3.6 21.8 3.4 M 11.8 2.0 C 12.0 2.1 12.0 2.1 11.8 2.0 M 39.8 4.8 C 40.0 4.9 40.0 4.9 39.8 4.8 M 33.4 3.5 C 37.4 5.4 32.3 3.9 33.4 3.5 M 29.8 7.0 C 31.3 7.9 28.2 7.1 29.8 7.0 M 37.3 2.9 C 40.4 4.6 35.9 4.5 37.3 2.9 M 32.0 3.4 C 32.1 3.4 32.1 3.4 32.0 3.4 C 32.0 3.4 32.0 3.4 32.0 3.4 Z M 41.9 6.8 C 41.9 6.9 41.9 6.9 41.9 6.8 C 41.9 6.8 41.9 6.8 41.9 6.8 Z M 42.7 6.8 C 42.6 6.8 42.6 6.8 42.7 6.8 C 42.7 6.8 42.7 6.8 42.7 6.8 Z M 39.5 2.6 C 39.5 2.7 39.5 2.7 39.5 2.6 C 39.5 2.6 39.5 2.6 39.5 2.6 Z M 19.8 7.6 C 21.7 7.8 18.7 7.9 19.8 7.6 C 19.8 7.6 19.8 7.6 19.8 7.6 Z M 23.4 2.6 C 27.7 3.9 22.4 3.9 23.4 2.6 C 23.4 2.6 23.4 2.6 23.4 2.6 Z M 28.8 4.8 C 28.9 4.9 28.9 4.9 28.8 4.8 C 28.8 4.8 28.8 4.8 28.8 4.8 Z M 35.4 1.8 C 35.4 1.9 35.4 1.9 35.4 1.8 C 35.4 1.8 35.4 1.8 35.4 1.8 Z M 20.9 7.9 C 21.0 8.0 21.0 8.0 20.9 7.9 C 20.9 7.9 20.9 7.9 20.9 7.9 Z M 45.5 3.6 C 45.6 3.7 45.6 3.7 45.5 3.6 C 45.5 3.6 45.5 3.6 45.5 3.6 Z M 37.2 7.1 C 37.4 6.5 37.8 7.7 37.2 7.1 C 37.2 7.1 37.2 7.1 37.2 7.1 Z M 39.9 7.1 C 40.0 7.1 40.0 7.1 39.9 7.1 C 39.9 7.1 39.9 7.1 39.9 7.1 Z M 49.1 2.0 C 49.1 2.0 49.1 2.0 49.1 2.0 C 49.1 2.0 49.1 2.0 49.1 2.0 Z M 47.8 8.8 C 47.9 8.7 47.9 8.7 47.8 8.8 C 47.8 8.8 47.8 8.8 47.8 8.8 Z M 48.8 6.7 C 48.8 6.8 48.8 6.8 48.8 6.7 C 48.8 6.7 48.8 6.7 48.8 6.7 Z M 39.3 3.1 C 41.9 2.7 39.2 3.8 39.3 3.1 C 39.3 3.1 39.3 3.1 39.3 3.1 Z M 55.3 6.2 C 55.4 6.3 55.4 6.3 55.3 6.2 C 55.3 6.2 55.3 6.2 55.3 6.2 Z M 55.5 3.8 C 55.7 3.9 55.7 3.9 55.5 3.8 C 55.5 3.8 55.5 3.8 55.5 3.8 Z M 55.7 2.6 C 55.8 2.7 55.8 2.7 55.7 2.6 C 55.7 2.6 55.7 2.6 55.7 2.6 Z M 23.9 6.0 C 23.8 5.9 23.8 5.9 23.9 6.0 C 23.9 6.0 23.9 6.0 23.9 6.0 Z M 19.4 2.1 C 19.4 2.1 19.4 2.1 19.4 2.1 C 19.4 2.1 19.4 2.1 19.4 2.1 Z M 23.2 2.0 C 23.1 1.9 23.1 1.9 23.2 2.0 C 23.2 2.0 23.2 2.0 23.2 2.0 Z M 25.3 8.3 C 25.3 8.2 25.3 8.2 25.3 8.3 C 25.3 8.3 25.3 8.3 25.3 8.3 Z M 36.5 5.0 C 36.4 5.0 36.4 5.0 36.5 5.0 C 36.5 5.0 36.5 5.0 36.5 5.0 Z M 38.9 6.6 C 38.8 6.5 38.8 6.5 38.9 6.6 C 38.9 6.6 38.9 6.6 38.9 6.6 Z M 37.2 8.6 C 37.2 8.6 37.2 8.6 37.2 8.6 C 37.2 8.6 37.2 8.6 37.2 8.6 Z M 40.8 7.9 C 40.8 7.9 40.8 7.9 40.8 7.9 C 40.8 7.9 40.8 7.9 40.8 7.9 Z M 16.2 8.2 C 16.3 8.3 16.3 8.3 16.2 8.2 C 16.2 8.2 16.2 8.2 16.2 8.2 Z M 13.3 5.6 C 13.4 5.7 13.4 5.7 13.3 5.6 C 13.3 5.6 13.3 5.6 13.3 5.6 Z M 35.4 2.9 C 35.6 2.3 37.3 3.7 35.4 2.9 M 30.2 3.3 C 30.2 3.3 30.2 3.3 30.2 3.3 C 30.2 3.3 30.2 3.3 30.2 3.3 Z M 44.7 3.0 C 46.1 4.2 41.7 2.4 44.7 3.0 C 44.7 3.0 44.7 3.0 44.7 3.0 Z M 44.9 7.9 C 45.0 7.9 45.0 7.9 44.9 7.9 C 44.9 7.9 44.9 7.9 44.9 7.9 Z M 46.0 7.4 C 46.1 7.5 46.1 7.5 46.0 7.4 C 46.0 7.4 46.0 7.4 46.0 7.4 Z M 51.8 4.3 C 52.0 4.4 52.0 4.4 51.8 4.3 M 28.7 2.2 C 29.9 2.8 29.7 2.7 28.7 2.2 M 46.6 3.1 C 46.5 3.1 46.5 3.1 46.6 3.1 C 46.6 3.1 46.6 3.1 46.6 3.1 Z M 53.2 3.6 C 53.1 3.6 53.1 3.6 53.2 3.6 C 53.2 3.6 53.2 3.6 53.2 3.6 Z M 25.4 3.0 C 26.7 4.4 25.7 4.1 25.4 3.0 M 14.9 3.5 C 15.0 3.6 15.0 3.6 14.9 3.5 C 14.9 3.5 14.9 3.5 14.9 3.5 Z M 61.4 2.6 C 57.8 1.0 58.7 3.2 58.7 3.3 C 57.8 0.3 56.6 4.5 57.5 5.1 C 57.6 5.5 62.1 10.6 62.7 7.5 C 63.0 7.1 63.7 8.0 64.1 8.1 C 67.5 8.0 61.1 6.5 65.4 6.5 C 66.3 6.9 66.3 9.4 68.1 7.7 C 68.3 7.9 71.4 8.8 70.0 7.7 C 71.7 8.8 72.1 7.5 73.3 7.2 C 74.6 7.9 72.9 9.0 76.5 7.6 C 78.7 9.7 78.6 6.1 80.6 8.3 C 81.6 8.4 82.6 4.7 80.5 6.8 C 80.8 6.6 79.0 4.8 82.4 5.4 C 82.0 5.9 80.9 9.7 85.5 7.9 C 86.4 8.0 88.2 7.0 88.7 7.4 C 86.1 7.8 92.2 9.1 91.6 7.9 C 95.6 8.7 93.3 7.0 96.2 8.3 C 98.5 8.3 95.4 6.6 98.4 7.6 C 100.6 7.4 99.0 8.3 98.8 8.2 C 100.7 8.4 101.5 7.8 102.1 7.8 C 102.5 8.0 103.3 8.8 103.9 7.8 C 106.2 6.1 104.5 4.4 105.6 2.7 C 104.1 1.9 104.8 4.0 103.8 2.7 C 103.0 3.8 103.7 2.6 99.4 2.9 C 99.5 3.1 100.5 3.9 99.4 4.0 C 97.8 3.8 99.1 0.9 96.2 3.0 C 99.5 3.6 91.7 3.9 94.7 4.5 C 91.0 4.9 93.6 4.3 90.9 3.6 C 91.1 5.6 90.6 1.5 89.6 3.1 C 89.3 2.3 85.0 2.6 88.2 3.8 C 83.9 4.3 86.5 3.2 84.8 2.2 C 82.7 2.1 85.1 5.4 83.5 3.0 C 80.6 1.9 83.5 4.2 81.3 2.3 C 82.4 4.0 79.3 2.3 80.4 4.1 C 75.9 4.2 80.6 2.2 77.6 3.4 C 78.6 3.5 77.8 1.0 76.1 2.6 C 77.6 5.5 72.8 0.1 75.2 3.9 C 69.2 5.0 73.8 2.3 70.2 2.3 C 69.3 2.3 71.6 3.5 70.8 3.6 C 66.1 3.0 69.5 2.1 67.8 3.9 C 63.5 4.4 65.9 2.3 63.7 2.2 C 63.8 3.1 62.6 4.6 61.4 2.6 M 65.8 3.5 C 66.5 2.9 66.5 4.1 65.8 3.5 M 56.4 2.6 C 57.1 2.0 57.3 3.2 56.4 2.6 M 69.3 3.0 C 70.3 2.3 70.0 3.9 69.3 3.0 M 93.4 3.9 C 91.7 3.9 94.2 3.4 93.4 3.9 M 60.0 2.5 C 61.0 1.8 60.7 3.5 60.0 2.5 M 59.0 4.0 C 59.1 4.0 59.1 4.0 59.0 4.0 M 95.8 2.3 C 95.9 2.4 95.9 2.4 95.8 2.3 M 89.3 2.3 C 90.7 2.3 88.5 2.7 89.3 2.3 M 89.5 8.6 C 90.8 8.6 88.8 9.0 89.5 8.6 M 99.3 2.3 C 100.8 1.8 99.7 3.0 99.3 2.3 M 102.8 3.6 C 104.1 3.1 103.6 4.3 102.8 3.6 M 65.7 5.7 C 65.8 5.8 65.8 5.8 65.7 5.7 C 65.7 5.7 65.7 5.7 65.7 5.7 Z M 77.5 7.2 C 76.1 6.6 79.3 8.0 77.5 7.2 M 74.5 3.1 C 75.7 4.4 72.6 3.1 74.5 3.1 C 74.5 3.1 74.5 3.1 74.5 3.1 Z M 72.6 3.7 C 72.5 3.8 72.5 3.8 72.6 3.7 C 72.6 3.7 72.6 3.7 72.6 3.7 Z M 79.2 3.8 C 79.1 3.8 79.1 3.8 79.2 3.8 C 79.2 3.8 79.2 3.8 79.2 3.8 Z M 77.9 3.9 C 77.4 4.2 77.0 3.6 77.9 3.9 C 77.9 3.9 77.9 3.9 77.9 3.9 Z M 87.8 7.9 C 87.3 8.2 87.1 7.7 87.8 7.9 C 87.8 7.9 87.8 7.9 87.8 7.9 Z M 75.9 4.3 C 76.0 5.6 74.7 3.5 75.9 4.3 C 75.9 4.3 75.9 4.3 75.9 4.3 Z M 83.4 7.4 C 83.9 7.0 84.7 8.6 83.4 7.4 M 97.1 2.6 C 97.7 2.2 98.4 3.8 97.1 2.6 M 82.9 2.2 C 83.4 1.9 84.3 3.4 82.9 2.2 M 66.3 2.9 C 66.5 3.1 66.5 3.1 66.3 2.9 M 75.6 8.5 C 76.3 8.0 76.1 9.0 75.6 8.5 M 62.9 8.0 C 63.6 7.6 63.6 8.6 62.9 8.0 M 95.1 8.4 C 95.1 8.1 96.4 8.6 95.1 8.4 M 84.8 4.2 C 86.0 4.4 87.3 5.1 84.8 5.0 C 84.6 4.7 85.4 4.5 84.8 4.2 C 84.8 4.2 84.8 4.2 84.8 4.2 Z M 89.4 7.1 C 89.6 7.3 89.6 7.3 89.4 7.1 M 86.9 3.1 C 87.0 3.2 87.0 3.2 86.9 3.1 M 94.1 3.2 C 94.2 3.4 94.2 3.4 94.1 3.2 M 95.0 2.8 C 95.0 2.9 95.0 2.9 95.0 2.8 C 95.0 2.8 95.0 2.8 95.0 2.8 Z M 103.0 2.3 C 103.0 2.4 103.0 2.4 103.0 2.3 C 103.0 2.3 103.0 2.3 103.0 2.3 Z M 91.8 3.3 C 91.8 3.4 91.8 3.4 91.8 3.3 C 91.8 3.3 91.8 3.3 91.8 3.3 Z M 98.1 8.2 C 98.1 8.3 98.1 8.3 98.1 8.2 C 98.1 8.2 98.1 8.2 98.1 8.2 Z M 97.4 7.4 C 97.4 7.5 97.4 7.5 97.4 7.4 C 97.4 7.4 97.4 7.4 97.4 7.4 Z M 62.1 2.6 C 62.8 1.7 63.5 4.8 62.1 2.6 M 100.7 7.4 C 101.6 8.3 98.9 7.6 100.7 7.4 C 100.7 7.4 100.7 7.4 100.7 7.4 Z M 91.0 4.4 C 91.1 4.6 91.1 4.6 91.0 4.4 M 95.5 2.9 C 95.5 3.1 95.5 3.1 95.5 2.9 M 74.1 2.0 C 74.3 2.1 74.3 2.1 74.1 2.0 M 101.0 3.2 C 104.4 3.5 99.4 5.0 101.0 3.2 M 72.9 3.2 C 72.8 3.1 72.8 3.1 72.9 3.2 M 80.9 5.6 C 83.1 5.5 80.2 6.3 80.9 5.6 M 86.3 4.0 C 86.2 4.0 86.2 4.0 86.3 4.0 C 86.3 4.0 86.3 4.0 86.3 4.0 Z M 83.0 4.0 C 81.4 4.1 82.5 3.6 83.0 4.0 C 83.0 4.0 83.0 4.0 83.0 4.0 Z M 64.1 3.8 C 66.3 3.9 62.1 4.2 64.1 3.8 C 64.1 3.8 64.1 3.8 64.1 3.8 Z M 99.3 6.1 C 99.2 6.2 99.2 6.2 99.3 6.1 C 99.3 6.1 99.3 6.1 99.3 6.1 Z M 91.3 2.5 C 90.4 2.8 90.9 2.1 91.3 2.5 C 91.3 2.5 91.3 2.5 91.3 2.5 Z M 104.2 2.3 C 103.2 2.6 103.8 1.9 104.2 2.3 C 104.2 2.3 104.2 2.3 104.2 2.3 Z M 61.5 3.5 C 69.9 5.7 50.8 3.0 61.5 3.5 C 61.5 3.5 61.5 3.5 61.5 3.5 Z M 84.2 3.1 C 84.2 3.2 84.2 3.2 84.2 3.1 C 84.2 3.1 84.2 3.1 84.2 3.1 Z M 69.5 2.2 C 69.5 2.3 69.5 2.3 69.5 2.2 C 69.5 2.2 69.5 2.2 69.5 2.2 Z M 67.4 3.4 C 67.4 3.4 67.4 3.4 67.4 3.4 C 67.4 3.4 67.4 3.4 67.4 3.4 Z M 69.7 8.4 C 69.7 8.4 69.7 8.4 69.7 8.4 C 69.7 8.4 69.7 8.4 69.7 8.4 Z M 69.8 6.1 C 69.7 6.2 69.7 6.2 69.8 6.1 C 69.8 6.1 69.8 6.1 69.8 6.1 Z M 65.2 6.9 C 65.2 7.0 65.2 7.0 65.2 6.9 C 65.2 6.9 65.2 6.9 65.2 6.9 Z M 65.6 7.6 C 65.5 7.6 65.5 7.6 65.6 7.6 C 65.6 7.6 65.6 7.6 65.6 7.6 Z M 95.4 4.3 C 95.4 4.4 95.4 4.4 95.4 4.3 C 95.4 4.3 95.4 4.3 95.4 4.3 Z M 92.8 6.4 C 94.6 5.7 92.3 7.5 92.8 6.4 C 92.8 6.4 92.8 6.4 92.8 6.4 Z M 77.1 5.4 C 78.7 5.1 76.2 6.0 77.1 5.4 C 77.1 5.4 77.1 5.4 77.1 5.4 Z M 79.4 8.1 C 79.4 8.1 79.4 8.1 79.4 8.1 C 79.4 8.1 79.4 8.1 79.4 8.1 Z M 67.0 2.2 C 67.0 2.3 67.0 2.3 67.0 2.2 C 67.0 2.2 67.0 2.2 67.0 2.2 Z M 64.2 3.0 C 64.5 4.1 63.1 2.5 64.2 3.0 M 79.6 2.4 C 79.6 2.6 79.6 2.6 79.6 2.4 C 79.6 2.4 79.6 2.4 79.6 2.4 Z M 89.6 4.1 C 89.6 4.1 89.6 4.1 89.6 4.1 C 89.6 4.1 89.6 4.1 89.6 4.1 Z M 99.2 3.4 C 99.2 3.5 99.2 3.5 99.2 3.4 C 99.2 3.4 99.2 3.4 99.2 3.4 Z M 85.8 2.6 C 85.7 2.7 85.7 2.7 85.8 2.6 C 85.8 2.6 85.8 2.6 85.8 2.6 Z M 81.3 3.5 C 81.2 3.7 81.2 3.7 81.3 3.5 C 81.3 3.5 81.3 3.5 81.3 3.5 Z M 101.3 4.9 C 101.2 4.9 101.2 4.9 101.3 4.9 C 101.3 4.9 101.3 4.9 101.3 4.9 Z M 86.8 2.4 C 86.8 2.4 86.8 2.4 86.8 2.4 C 86.8 2.4 86.8 2.4 86.8 2.4 Z M 89.9 5.7 C 89.8 5.8 89.8 5.8 89.9 5.7 C 89.9 5.7 89.9 5.7 89.9 5.7 Z M 64.1 1.5 C 64.1 1.6 64.1 1.6 64.1 1.5 C 64.1 1.5 64.1 1.5 64.1 1.5 Z M 101.5 3.5 C 101.4 3.5 101.4 3.5 101.5 3.5 C 101.5 3.5 101.5 3.5 101.5 3.5 Z M 102.1 2.5 C 102.1 2.6 102.1 2.6 102.1 2.5 C 102.1 2.5 102.1 2.5 102.1 2.5 Z M 95.2 7.5 C 91.9 6.9 98.1 7.3 95.7 6.2 C 100.5 5.9 95.9 7.6 95.2 7.5 C 95.2 7.5 95.2 7.5 95.2 7.5 Z M 106.8 2.2 C 104.7 3.6 104.6 4.9 105.2 6.4 C 106.0 7.1 106.4 4.3 106.1 6.7 C 103.9 7.1 106.4 10.3 106.8 7.2 C 109.7 6.8 107.0 9.2 108.8 7.9 C 111.7 7.6 110.1 8.6 112.3 8.4 C 114.0 6.7 113.4 9.2 114.4 7.6 C 112.8 9.3 116.9 7.1 116.7 7.9 C 114.4 9.0 124.4 7.9 119.3 7.4 C 121.8 6.6 120.9 8.0 121.5 8.2 C 122.8 7.2 124.7 9.1 126.5 8.0 C 126.3 7.8 125.7 7.7 125.6 7.4 C 125.5 6.7 127.0 7.5 126.9 7.5 C 127.9 7.1 131.9 6.1 127.3 7.9 C 126.8 8.7 130.5 7.5 130.1 8.3 C 133.3 8.3 131.7 6.6 132.5 7.9 C 134.8 7.9 136.5 7.9 136.6 7.7 C 137.9 7.9 137.6 8.8 139.4 7.9 C 141.1 9.7 143.5 4.4 142.4 8.0 C 143.8 7.1 143.1 9.5 144.4 7.2 C 142.8 8.3 148.0 9.0 146.6 7.3 C 147.6 6.8 149.3 9.6 150.4 7.4 C 152.9 5.7 153.9 4.1 152.0 2.5 C 151.4 3.8 149.6 1.2 150.5 3.4 C 152.5 4.1 145.2 4.2 147.3 3.4 C 149.3 0.7 142.8 5.0 142.3 3.1 C 143.0 4.2 136.8 4.7 139.6 2.7 C 138.6 2.6 137.8 3.5 137.2 2.4 C 140.7 2.5 134.8 4.4 135.6 3.2 C 136.6 2.5 131.5 1.9 131.5 3.0 C 132.1 5.7 130.4 2.4 129.0 3.5 C 125.9 4.1 130.5 1.2 127.4 3.2 C 127.0 2.8 123.1 2.8 125.7 2.3 C 126.6 2.5 122.4 5.3 122.8 2.9 C 127.5 1.6 118.2 2.2 119.4 2.9 C 125.3 4.2 112.2 4.4 117.5 3.1 C 115.0 1.8 118.5 2.6 114.8 3.2 C 115.1 3.9 112.2 4.6 113.2 3.1 C 113.1 0.9 111.6 6.1 110.1 3.0 C 110.0 1.7 105.6 4.0 107.4 2.6 C 107.5 2.4 106.9 2.1 106.8 2.2 M 108.1 2.4 C 107.5 2.9 107.4 1.8 108.1 2.4 M 107.5 2.9 C 107.4 2.9 107.4 2.9 107.5 2.9 C 107.5 2.9 107.5 2.9 107.5 2.9 Z M 114.3 3.2 C 114.2 3.2 114.2 3.2 114.3 3.2 C 114.3 3.2 114.3 3.2 114.3 3.2 Z M 118.0 8.8 C 118.0 8.7 118.0 8.7 118.0 8.8 C 118.0 8.8 118.0 8.8 118.0 8.8 Z M 118.8 3.4 C 118.8 3.3 118.8 3.3 118.8 3.4 C 118.8 3.4 118.8 3.4 118.8 3.4 Z M 111.8 3.6 C 111.7 3.6 111.7 3.6 111.8 3.6 C 111.8 3.6 111.8 3.6 111.8 3.6 Z M 118.6 2.5 C 118.7 3.4 117.2 1.9 118.7 2.4 C 118.8 2.5 118.5 2.5 118.6 2.5 M 124.7 2.2 C 124.7 2.3 124.7 2.3 124.7 2.2 M 134.7 8.7 C 134.7 8.8 134.7 8.8 134.7 8.7 M 139.2 2.2 C 139.3 2.3 139.3 2.3 139.2 2.2 M 130.4 3.1 C 132.3 3.0 130.7 3.5 130.4 3.1 M 143.7 2.6 C 141.8 2.1 146.5 2.2 143.7 2.6 M 146.3 2.1 C 146.5 2.2 146.5 2.2 146.3 2.1 M 135.7 2.5 C 135.6 2.5 135.6 2.5 135.7 2.5 C 135.7 2.5 135.7 2.5 135.7 2.5 Z M 129.8 2.7 C 127.5 2.3 132.5 1.9 129.8 2.7 M 115.3 2.4 C 116.7 2.0 115.0 3.5 115.3 2.4 M 112.5 2.9 C 112.4 2.9 112.4 2.9 112.5 2.9 C 112.5 2.9 112.5 2.9 112.5 2.9 Z M 140.1 2.6 C 140.0 2.6 140.0 2.6 140.1 2.6 C 140.1 2.6 140.1 2.6 140.1 2.6 Z M 142.8 2.4 C 142.7 2.4 142.7 2.4 142.8 2.4 C 142.8 2.4 142.8 2.4 142.8 2.4 Z M 143.4 8.5 C 143.4 8.5 143.4 8.5 143.4 8.5 C 143.4 8.5 143.4 8.5 143.4 8.5 Z M 113.9 5.4 C 112.2 5.0 116.1 3.4 115.4 4.9 C 115.4 5.5 114.1 5.3 113.9 5.4 M 127.3 4.6 C 126.9 6.6 126.6 1.8 127.3 4.6 M 145.8 3.5 C 146.0 6.0 144.6 1.8 145.8 3.5 M 149.7 3.1 C 150.4 3.6 142.8 3.3 148.6 2.7 C 149.4 2.3 149.5 2.8 149.7 3.1 M 124.5 3.2 C 124.6 4.4 121.8 2.7 124.5 3.2 M 133.8 6.7 C 134.9 5.9 137.5 5.3 135.9 6.5 C 135.0 8.1 132.4 7.3 133.8 6.7 M 108.4 3.6 C 110.2 1.7 108.1 5.1 108.4 3.6 M 115.3 3.7 C 115.3 3.7 115.3 3.7 115.3 3.7 C 115.3 3.7 115.3 3.7 115.3 3.7 Z M 118.1 3.4 C 118.2 3.6 118.2 3.6 118.1 3.4 M 109.8 2.0 C 109.9 2.1 109.9 2.1 109.8 2.0 M 134.6 4.8 C 134.7 4.9 134.7 4.9 134.6 4.8 M 129.7 3.5 C 131.5 5.4 128.1 3.9 129.7 3.5 M 121.9 7.0 C 122.4 7.9 120.3 7.1 121.9 7.0 M 134.4 2.9 C 135.4 4.6 131.0 4.5 134.4 2.9 M 128.4 3.4 C 128.6 3.4 128.6 3.4 128.4 3.4 C 128.4 3.4 128.4 3.4 128.4 3.4 Z M 134.3 6.8 C 134.3 6.9 134.3 6.9 134.3 6.8 C 134.3 6.8 134.3 6.8 134.3 6.8 Z M 135.1 6.8 C 135.0 6.8 135.0 6.8 135.1 6.8 C 135.1 6.8 135.1 6.8 135.1 6.8 Z M 136.8 2.6 C 136.7 2.7 136.7 2.7 136.8 2.6 C 136.8 2.6 136.8 2.6 136.8 2.6 Z M 111.3 7.6 C 113.0 7.8 109.8 7.9 111.3 7.6 C 111.3 7.6 111.3 7.6 111.3 7.6 Z M 120.8 2.6 C 123.5 3.9 118.2 3.9 120.8 2.6 C 120.8 2.6 120.8 2.6 120.8 2.6 Z M 123.6 4.8 C 123.6 4.9 123.6 4.9 123.6 4.8 C 123.6 4.8 123.6 4.8 123.6 4.8 Z M 133.6 1.8 C 133.6 1.9 133.6 1.9 133.6 1.8 C 133.6 1.8 133.6 1.8 133.6 1.8 Z M 112.1 7.9 C 112.1 8.0 112.1 8.0 112.1 7.9 C 112.1 7.9 112.1 7.9 112.1 7.9 Z M 141.7 3.6 C 141.6 3.7 141.6 3.7 141.7 3.6 C 141.7 3.6 141.7 3.6 141.7 3.6 Z M 129.3 7.1 C 130.2 6.5 129.2 7.7 129.3 7.1 C 129.3 7.1 129.3 7.1 129.3 7.1 Z M 132.0 7.1 C 132.1 7.1 132.1 7.1 132.0 7.1 C 132.0 7.1 132.0 7.1 132.0 7.1 Z M 147.1 2.0 C 147.2 2.0 147.2 2.0 147.1 2.0 C 147.1 2.0 147.1 2.0 147.1 2.0 Z M 138.0 8.8 C 138.0 8.7 138.0 8.7 138.0 8.8 C 138.0 8.8 138.0 8.8 138.0 8.8 Z M 141.4 6.7 C 141.3 6.8 141.3 6.8 141.4 6.7 C 141.4 6.7 141.4 6.7 141.4 6.7 Z M 136.1 3.1 C 139.1 2.7 135.0 3.8 136.1 3.1 C 136.1 3.1 136.1 3.1 136.1 3.1 Z M 148.4 6.2 C 148.4 6.3 148.4 6.3 148.4 6.2 C 148.4 6.2 148.4 6.2 148.4 6.2 Z M 151.4 3.8 C 151.4 3.9 151.4 3.9 151.4 3.8 C 151.4 3.8 151.4 3.8 151.4 3.8 Z M 153.0 2.6 C 153.0 2.7 153.0 2.7 153.0 2.6 C 153.0 2.6 153.0 2.6 153.0 2.6 Z M 117.3 6.0 C 117.3 5.9 117.3 5.9 117.3 6.0 C 117.3 6.0 117.3 6.0 117.3 6.0 Z M 117.3 2.1 C 117.3 2.1 117.3 2.1 117.3 2.1 C 117.3 2.1 117.3 2.1 117.3 2.1 Z M 121.2 2.0 C 121.2 1.9 121.2 1.9 121.2 2.0 C 121.2 2.0 121.2 2.0 121.2 2.0 Z M 116.0 8.3 C 116.0 8.2 116.0 8.2 116.0 8.3 C 116.0 8.3 116.0 8.3 116.0 8.3 Z M 131.0 5.0 C 130.9 5.0 130.9 5.0 131.0 5.0 C 131.0 5.0 131.0 5.0 131.0 5.0 Z M 131.6 6.6 C 131.5 6.5 131.5 6.5 131.6 6.6 C 131.6 6.6 131.6 6.6 131.6 6.6 Z M 127.5 8.6 C 127.5 8.6 127.5 8.6 127.5 8.6 C 127.5 8.6 127.5 8.6 127.5 8.6 Z M 131.9 7.9 C 131.9 7.9 131.9 7.9 131.9 7.9 C 131.9 7.9 131.9 7.9 131.9 7.9 Z M 107.1 7.6 C 107.1 7.6 107.1 7.6 107.1 7.6 C 107.1 7.6 107.1 7.6 107.1 7.6 Z M 107.3 4.6 C 107.2 4.7 107.2 4.7 107.3 4.6 C 107.3 4.6 107.3 4.6 107.3 4.6 Z M 132.4 2.9 C 133.3 2.3 133.3 3.7 132.4 2.9 M 126.7 3.3 C 126.7 3.3 126.7 3.3 126.7 3.3 C 126.7 3.3 126.7 3.3 126.7 3.3 Z M 141.5 3.0 C 141.6 4.2 139.3 2.4 141.5 3.0 C 141.5 3.0 141.5 3.0 141.5 3.0 Z M 136.0 7.9 C 136.1 7.9 136.1 7.9 136.0 7.9 C 136.0 7.9 136.0 7.9 136.0 7.9 Z M 137.7 7.4 C 137.7 7.5 137.7 7.5 137.7 7.4 C 137.7 7.4 137.7 7.4 137.7 7.4 Z M 147.2 4.3 C 147.3 4.4 147.3 4.4 147.2 4.3 M 126.4 2.2 C 127.0 2.8 126.9 2.7 126.4 2.2 M 143.3 3.1 C 143.3 3.1 143.3 3.1 143.3 3.1 C 143.3 3.1 143.3 3.1 143.3 3.1 Z M 149.4 3.6 C 149.3 3.6 149.3 3.6 149.4 3.6 C 149.4 3.6 149.4 3.6 149.4 3.6 Z M 122.2 3.0 C 121.9 4.4 121.3 4.1 122.2 3.0 M 111.2 3.5 C 111.2 3.6 111.2 3.6 111.2 3.5 C 111.2 3.5 111.2 3.5 111.2 3.5 Z M 158.3 3.7 C 153.0 1.9 152.4 5.0 151.7 5.6 C 150.3 6.4 150.7 7.0 151.5 7.6 C 151.4 9.6 155.0 5.5 154.5 7.5 C 154.1 10.2 158.2 5.2 156.7 8.0 C 155.9 8.7 158.7 8.1 158.7 8.0 C 158.8 9.3 162.5 6.9 162.7 6.7 C 163.2 7.0 161.1 9.5 165.3 7.7 C 167.8 7.0 166.3 9.5 167.4 7.8 C 167.0 9.7 168.9 7.2 169.7 7.8 C 169.7 8.9 171.3 6.2 171.1 8.2 C 172.9 7.0 170.9 8.3 172.4 8.4 C 172.4 9.0 172.5 9.7 172.7 10.6 C 172.9 8.2 174.0 11.6 172.9 11.7 C 171.8 11.2 173.4 13.5 172.7 16.3 C 173.3 16.4 174.7 17.8 173.1 18.7 C 171.3 22.5 174.3 20.0 172.7 22.2 C 172.1 23.5 173.5 22.7 173.4 23.3 C 172.2 25.0 173.0 25.1 172.7 28.1 C 172.1 34.5 175.6 26.9 176.0 29.0 C 176.5 29.1 180.2 22.8 177.4 26.3 C 178.2 25.2 175.3 22.2 178.4 22.4 C 177.2 21.4 179.7 21.9 178.2 18.9 C 176.0 26.1 177.3 13.4 178.4 17.8 C 179.0 16.4 178.9 14.3 178.4 16.3 C 176.4 18.6 179.3 11.7 176.8 16.0 C 177.5 12.0 175.4 14.8 176.9 12.5 C 179.5 9.4 176.2 13.3 177.0 10.9 C 177.0 6.9 179.9 7.3 178.0 6.6 C 179.3 1.4 176.8 6.9 176.5 5.8 C 175.8 6.4 175.9 5.6 176.3 4.6 C 176.8 3.4 177.8 1.9 178.1 2.8 C 178.1 2.9 178.1 3.1 178.1 3.2 C 178.0 3.1 177.9 3.1 177.9 3.0 C 176.7 3.3 178.8 2.0 176.2 3.0 C 175.9 4.7 175.6 1.3 174.8 2.6 C 172.8 3.0 172.7 4.0 172.2 4.1 C 169.8 4.1 172.0 2.5 170.4 3.7 C 169.3 4.3 170.1 2.2 169.3 2.7 C 171.7 2.8 165.7 4.5 166.2 3.6 C 167.9 3.5 167.3 1.4 165.3 2.7 C 163.4 6.3 163.9 1.8 161.7 3.1 C 161.1 5.1 156.1 3.3 159.3 2.4 C 159.0 2.5 158.3 3.7 158.3 3.7 M 168.3 3.0 C 170.2 3.2 165.8 3.4 168.3 3.0 M 168.7 2.5 C 169.0 3.2 167.2 2.0 169.0 2.3 C 169.0 2.3 168.6 2.4 168.7 2.5 M 177.2 2.4 C 176.4 3.0 176.4 2.1 177.2 2.4 M 177.2 4.0 C 176.9 5.1 176.9 4.3 177.0 3.9 C 177.1 3.6 177.2 3.4 177.2 3.7 C 177.2 3.8 177.2 3.9 177.2 4.0 M 177.6 22.2 C 174.6 22.6 179.3 18.9 177.6 22.2 M 178.3 9.3 C 177.8 7.4 179.5 9.0 178.3 9.3 M 177.5 9.4 C 177.0 8.8 178.2 8.5 177.5 9.4 M 177.6 18.6 C 177.6 18.8 177.6 18.8 177.6 18.6 C 177.6 18.6 177.6 18.6 177.6 18.6 Z M 177.6 24.2 C 177.6 24.2 177.6 24.2 177.6 24.2 C 177.6 24.2 177.6 24.2 177.6 24.2 Z M 177.3 13.6 C 178.0 11.2 177.6 16.1 177.3 13.6 C 177.3 13.6 177.3 13.6 177.3 13.6 Z M 173.0 25.1 C 173.0 25.0 173.0 25.0 173.0 25.1 C 173.0 25.1 173.0 25.1 173.0 25.1 Z M 165.5 4.4 C 165.4 4.4 165.4 4.4 165.5 4.4 C 165.5 4.4 165.5 4.4 165.5 4.4 Z M 160.3 3.3 C 160.0 3.7 159.4 2.9 160.3 3.3 C 160.3 3.3 160.3 3.3 160.3 3.3 Z M 152.7 6.7 C 152.6 6.7 152.6 6.7 152.7 6.7 C 152.7 6.7 152.7 6.7 152.7 6.7 Z M 162.1 6.0 C 162.0 6.0 162.0 6.0 162.1 6.0 C 162.1 6.0 162.1 6.0 162.1 6.0 Z M 164.9 3.7 C 165.3 2.1 166.9 4.2 164.9 3.7 C 164.9 3.7 164.9 3.7 164.9 3.7 Z M 173.2 15.2 C 173.9 14.6 172.9 16.8 173.2 15.2 C 173.2 15.2 173.2 15.2 173.2 15.2 Z M 176.6 4.9 C 177.0 4.8 176.4 6.0 176.6 4.9 C 176.6 4.9 176.6 4.9 176.6 4.9 Z M 175.9 2.1 C 176.6 1.7 176.7 2.3 175.9 2.1 C 175.9 2.1 175.9 2.1 175.9 2.1 Z M 160.7 2.8 C 160.9 2.7 160.9 2.7 160.7 2.8 C 160.7 2.8 160.7 2.8 160.7 2.8 Z M 161.9 4.0 C 161.7 2.5 163.6 4.9 161.9 4.0 C 161.9 4.0 161.9 4.0 161.9 4.0 Z M 159.0 4.5 C 159.3 5.1 157.2 4.2 159.0 4.5 M 158.6 6.9 C 160.9 6.2 154.8 9.6 158.6 6.9 C 158.6 6.9 158.6 6.9 158.6 6.9 Z M 167.2 7.5 C 167.3 7.5 167.3 7.5 167.2 7.5 C 167.2 7.5 167.2 7.5 167.2 7.5 Z M 170.4 3.0 C 172.0 3.0 168.9 3.3 170.4 3.0 C 170.4 3.0 170.4 3.0 170.4 3.0 Z M 156.1 2.6 C 157.7 2.7 154.7 3.0 156.1 2.6 C 156.1 2.6 156.1 2.6 156.1 2.6 Z M 174.0 6.0 C 176.9 5.7 171.6 6.8 174.0 6.0 C 174.0 6.0 174.0 6.0 174.0 6.0 Z M 176.7 13.2 C 176.7 13.3 176.7 13.3 176.7 13.2 C 176.7 13.2 176.7 13.2 176.7 13.2 Z M 177.4 14.5 C 177.3 14.5 177.3 14.5 177.4 14.5 C 177.4 14.5 177.4 14.5 177.4 14.5 Z M 175.8 23.4 C 175.7 23.6 175.7 23.6 175.8 23.4 C 175.8 23.4 175.8 23.4 175.8 23.4 Z M 178.1 15.5 C 178.1 15.6 178.1 15.6 178.1 15.5 C 178.1 15.5 178.1 15.5 178.1 15.5 Z M 177.7 21.3 C 177.6 21.4 177.6 21.4 177.7 21.3 C 177.7 21.3 177.7 21.3 177.7 21.3 Z M 179.0 19.5 C 179.0 19.6 179.0 19.6 179.0 19.5 C 179.0 19.5 179.0 19.5 179.0 19.5 Z M 172.3 13.6 C 172.2 13.7 172.2 13.7 172.3 13.6 C 172.3 13.6 172.3 13.6 172.3 13.6 Z M 164.1 2.3 C 164.2 2.4 164.2 2.4 164.1 2.3 C 164.1 2.3 164.1 2.3 164.1 2.3 Z M 177.1 21.3 C 177.1 21.4 177.1 21.4 177.1 21.3 C 177.1 21.3 177.1 21.3 177.1 21.3 Z M 175.9 9.4 C 174.6 10.7 177.6 6.6 175.9 9.6 C 175.9 9.6 176.1 9.1 175.9 9.4 M 173.7 13.1 C 173.6 13.1 173.6 13.1 173.7 13.1 C 173.7 13.1 173.7 13.1 173.7 13.1 Z M 172.9 8.3 C 172.8 8.2 172.8 8.2 172.9 8.3 C 172.9 8.3 172.9 8.3 172.9 8.3 Z M 178.4 14.3 C 179.1 13.5 177.8 16.3 178.3 14.2 M 173.5 25.2 C 174.2 24.5 172.9 27.1 173.4 25.1 M 153.8 3.1 C 153.2 3.7 152.9 2.8 153.8 3.1 M 171.2 8.7 C 170.4 9.3 170.4 8.4 171.2 8.7 M 173.9 8.7 C 174.6 7.7 173.3 10.6 173.8 8.5 M 173.5 21.3 C 173.5 21.4 173.5 21.4 173.5 21.3 C 173.5 21.3 173.5 21.3 173.5 21.3 Z M 172.8 3.1 C 172.8 3.1 172.8 3.1 172.8 3.1 C 172.8 3.1 172.8 3.1 172.8 3.1 Z M 176.2 6.9 C 177.2 4.9 175.6 8.8 176.2 6.9 M 169.0 4.9 C 168.8 3.6 170.9 5.3 169.0 4.9 M 173.2 28.4 C 174.7 25.8 172.3 30.1 173.2 28.4 M 176.9 17.7 C 178.5 14.8 176.1 19.6 176.9 17.7 M 173.6 3.7 C 174.3 3.0 174.8 4.2 173.6 3.7 M 157.7 3.0 C 156.2 2.8 160.2 2.4 157.7 3.0 M 173.5 17.6 C 173.4 17.7 173.4 17.7 173.5 17.6 C 173.5 17.6 173.5 17.6 173.5 17.6 Z M 158.0 8.8 C 158.0 8.8 158.0 8.8 158.0 8.8 C 158.0 8.8 158.0 8.8 158.0 8.8 Z M 178.1 26.9 C 178.1 27.0 178.1 27.0 178.1 26.9 C 178.1 26.9 178.1 26.9 178.1 26.9 Z M 176.2 17.3 C 176.1 17.5 176.1 17.5 176.2 17.3 C 176.2 17.3 176.2 17.3 176.2 17.3 Z M 178.3 23.6 C 178.2 23.8 178.2 23.8 178.3 23.6 C 178.3 23.6 178.3 23.6 178.3 23.6 Z M 175.1 13.4 C 175.0 13.5 175.0 13.5 175.1 13.4 C 175.1 13.4 175.1 13.4 175.1 13.4 Z M 178.9 8.9 C 178.9 9.0 178.9 9.0 178.9 8.9 C 178.9 8.9 178.9 8.9 178.9 8.9 Z M 177.3 4.9 C 177.2 5.0 177.2 5.0 177.3 4.9 C 177.3 4.9 177.3 4.9 177.3 4.9 Z M 178.6 11.8 C 178.9 14.9 177.3 11.2 178.6 11.8 C 178.6 11.8 178.6 11.8 178.6 11.8 Z M 174.8 9.6 C 174.7 9.7 174.7 9.7 174.8 9.6 C 174.8 9.6 174.8 9.6 174.8 9.6 Z M 177.5 6.6 C 178.6 7.6 175.6 9.5 177.5 6.6 M 172.4 2.5 C 173.5 1.9 171.8 3.4 172.4 2.5 M 164.2 7.5 C 164.1 7.6 164.1 7.6 164.2 7.5 C 164.2 7.5 164.2 7.5 164.2 7.5 Z M 165.5 7.2 C 165.5 7.2 165.5 7.2 165.5 7.2 C 165.5 7.2 165.5 7.2 165.5 7.2 Z M 170.3 2.3 C 170.3 2.3 170.3 2.3 170.3 2.3 C 170.3 2.3 170.3 2.3 170.3 2.3 Z M 164.3 8.6 C 164.4 8.6 164.4 8.6 164.3 8.6 C 164.3 8.6 164.3 8.6 164.3 8.6 Z M 178.8 7.7 C 178.8 7.8 178.8 7.8 178.8 7.7 C 178.8 7.7 178.8 7.7 178.8 7.7 Z M 178.9 24.8 C 178.9 24.9 178.9 24.9 178.9 24.8 C 178.9 24.8 178.9 24.8 178.9 24.8 Z M 155.1 7.0 C 155.1 7.1 155.1 7.1 155.1 7.0 C 155.1 7.0 155.1 7.0 155.1 7.0 Z M 177.3 10.9 C 177.2 11.0 177.2 11.0 177.3 10.9 C 177.3 10.9 177.3 10.9 177.3 10.9 Z M 162.1 7.3 C 162.1 7.4 162.1 7.4 162.1 7.3 C 162.1 7.3 162.1 7.3 162.1 7.3 Z M 177.6 9.5 C 177.6 9.6 177.6 9.6 177.6 9.5 C 177.6 9.5 177.6 9.5 177.6 9.5 Z M 173.1 17.4 C 173.1 17.5 173.1 17.5 173.1 17.4 C 173.1 17.4 173.1 17.4 173.1 17.4 Z M 172.3 21.5 C 172.3 21.6 172.3 21.6 172.3 21.5 C 172.3 21.5 172.3 21.5 172.3 21.5 Z M 175.8 14.8 C 175.8 14.9 175.8 14.9 175.8 14.8 C 175.8 14.8 175.8 14.8 175.8 14.8 Z M 162.4 5.7 C 157.0 4.3 168.1 5.1 162.4 5.7 M 175.5 16.2 C 175.8 11.4 177.0 18.6 175.5 16.2 C 175.9 16.3 175.6 16.2 175.5 16.2 M 178.3 31.7 C 179.9 27.7 177.7 29.2 177.6 29.2 C 180.6 27.6 176.4 27.4 175.8 28.4 C 175.4 28.6 170.3 34.3 173.4 34.2 C 173.8 34.5 172.9 35.4 172.8 35.8 C 172.9 39.1 174.4 32.4 174.4 36.6 C 174.0 37.6 171.5 38.3 173.2 39.7 C 173.0 39.9 172.1 43.2 173.2 41.5 C 172.1 43.5 173.4 43.6 173.7 44.7 C 173.0 46.2 171.9 44.7 173.3 48.0 C 171.2 50.7 174.8 49.7 172.6 52.3 C 172.5 53.3 176.2 53.4 174.1 51.8 C 174.3 52.1 176.1 49.8 175.5 53.4 C 175.0 53.1 171.2 52.9 173.0 57.1 C 172.9 58.0 173.9 59.6 173.5 60.1 C 173.1 57.7 171.8 64.1 173.0 63.2 C 172.2 67.3 173.9 64.6 172.6 67.8 C 172.6 70.2 174.3 66.7 173.3 69.8 C 173.5 72.0 172.6 70.7 172.7 70.4 C 172.5 72.4 173.1 73.0 173.1 73.7 C 172.9 74.1 172.1 75.1 173.1 75.4 C 174.8 77.3 176.5 75.2 178.2 76.0 C 179.0 74.3 176.9 75.5 178.2 74.2 C 177.1 73.6 178.3 74.1 178.0 69.8 C 177.8 70.0 177.0 71.1 176.9 70.1 C 177.0 68.4 180.0 69.1 177.9 66.7 C 177.3 70.1 177.0 62.4 176.4 65.5 C 176.0 61.9 176.6 64.4 177.3 61.5 C 175.3 62.2 179.4 60.7 177.8 60.1 C 178.6 59.6 178.3 55.4 177.1 58.9 C 176.6 54.6 177.7 57.0 178.7 55.1 C 178.8 53.0 175.5 56.1 177.9 53.9 C 179.0 50.8 176.7 54.2 178.6 51.6 C 176.9 53.1 178.6 49.6 176.8 51.1 C 176.7 46.6 178.7 50.9 177.5 48.2 C 177.4 49.2 179.9 47.7 178.3 46.4 C 175.4 48.6 180.8 42.6 177.0 45.9 C 175.9 40.1 178.6 44.0 178.6 40.5 C 178.6 39.6 177.3 42.1 177.3 41.3 C 177.9 36.5 178.8 39.8 177.0 38.4 C 176.5 34.3 178.6 36.2 178.7 33.9 C 177.8 34.3 176.3 33.4 178.3 31.7 M 177.4 36.3 C 178.0 36.9 176.8 37.2 177.4 36.3 M 178.3 26.7 C 178.9 27.3 177.7 27.7 178.3 26.7 M 177.9 39.7 C 178.6 40.6 177.0 40.6 177.9 39.7 M 177.0 64.1 C 177.0 62.4 177.5 64.7 177.0 64.1 M 178.4 30.3 C 179.1 31.1 177.4 31.3 178.4 30.3 M 176.9 29.6 C 176.9 29.7 176.9 29.7 176.9 29.6 M 178.6 66.1 C 178.5 66.2 178.5 66.2 178.6 66.1 M 178.6 59.6 C 178.6 61.0 178.2 58.9 178.6 59.6 M 172.3 61.2 C 172.3 62.5 171.9 60.6 172.3 61.2 M 178.6 69.6 C 179.1 71.0 177.9 70.2 178.6 69.6 M 177.3 73.4 C 177.8 74.6 176.6 74.3 177.3 73.4 M 175.2 36.8 C 175.1 36.8 175.1 36.8 175.2 36.8 C 175.2 36.8 175.2 36.8 175.2 36.8 Z M 173.7 49.0 C 174.3 47.3 172.9 50.9 173.7 49.0 M 177.8 44.9 C 176.5 46.5 177.8 43.1 177.8 44.9 C 177.8 44.9 177.8 44.9 177.8 44.9 Z M 177.2 43.2 C 177.1 43.2 177.1 43.2 177.2 43.2 C 177.2 43.2 177.2 43.2 177.2 43.2 Z M 177.1 49.8 C 177.1 49.8 177.1 49.8 177.1 49.8 C 177.1 49.8 177.1 49.8 177.1 49.8 Z M 177.0 48.5 C 176.7 48.1 177.3 47.6 177.0 48.5 C 177.0 48.5 177.0 48.5 177.0 48.5 Z M 173.0 59.4 C 172.7 59.0 173.2 58.6 173.0 59.4 C 173.0 59.4 173.0 59.4 173.0 59.4 Z M 176.6 46.6 C 175.3 47.0 177.4 45.3 176.6 46.6 C 176.6 46.6 176.6 46.6 176.6 46.6 Z M 173.5 54.8 C 173.9 55.3 172.3 56.4 173.5 54.8 M 178.3 67.5 C 178.7 68.0 177.1 69.0 178.3 67.5 M 178.7 53.1 C 179.0 53.6 177.5 54.8 178.7 53.1 M 177.9 36.7 C 177.8 37.0 177.8 37.0 177.9 36.7 M 172.4 47.3 C 172.9 47.9 171.9 48.0 172.4 47.3 M 172.9 34.6 C 173.3 35.1 172.3 35.4 172.9 34.6 M 172.5 66.8 C 172.8 66.7 172.3 68.2 172.5 66.8 M 176.7 55.5 C 176.5 56.8 175.8 58.3 175.9 55.7 C 176.2 55.5 176.4 56.2 176.7 55.5 C 176.7 55.5 176.7 55.5 176.7 55.5 Z M 173.7 60.8 C 173.6 61.0 173.6 61.0 173.7 60.8 M 177.8 57.3 C 177.7 57.5 177.7 57.5 177.8 57.3 M 177.7 64.6 C 177.5 64.8 177.5 64.8 177.7 64.6 M 178.1 65.4 C 178.0 65.4 178.0 65.4 178.1 65.4 C 178.1 65.4 178.1 65.4 178.1 65.4 Z M 178.6 73.3 C 178.5 73.3 178.5 73.3 178.6 73.3 C 178.6 73.3 178.6 73.3 178.6 73.3 Z M 177.6 62.3 C 177.5 62.3 177.5 62.3 177.6 62.3 C 177.6 62.3 177.6 62.3 177.6 62.3 Z M 172.7 69.7 C 172.6 69.8 172.6 69.8 172.7 69.7 C 172.7 69.7 172.7 69.7 172.7 69.7 Z M 173.5 68.8 C 173.4 68.8 173.4 68.8 173.5 68.8 C 173.5 68.8 173.5 68.8 173.5 68.8 Z M 178.3 32.4 C 179.2 32.9 176.1 34.4 178.3 32.4 M 173.5 72.2 C 172.6 73.3 173.3 70.4 173.5 72.2 C 173.5 72.2 173.5 72.2 173.5 72.2 Z M 176.5 61.8 C 176.3 61.9 176.3 61.9 176.5 61.8 M 178.0 65.9 C 177.8 66.0 177.8 66.0 178.0 65.9 M 178.9 44.3 C 178.8 44.5 178.8 44.5 178.9 44.3 M 177.7 71.5 C 177.4 74.9 175.9 70.3 177.7 71.5 M 177.7 43.4 C 177.8 43.2 177.8 43.2 177.7 43.4 M 175.3 51.9 C 175.4 54.1 174.6 51.4 175.3 51.9 M 176.9 57.0 C 176.9 56.9 176.9 56.9 176.9 57.0 C 176.9 57.0 176.9 57.0 176.9 57.0 Z M 176.9 53.6 C 176.8 52.1 177.3 53.1 176.9 53.6 C 176.9 53.6 176.9 53.6 176.9 53.6 Z M 177.1 34.7 C 176.9 36.9 176.7 32.8 177.1 34.7 C 177.1 34.7 177.1 34.7 177.1 34.7 Z M 174.8 70.5 C 174.7 70.4 174.7 70.4 174.8 70.5 C 174.8 70.5 174.8 70.5 174.8 70.5 Z M 178.4 61.7 C 178.1 60.8 178.8 61.1 178.4 61.7 C 178.4 61.7 178.4 61.7 178.4 61.7 Z M 178.6 74.5 C 178.3 73.5 179.0 74.0 178.6 74.5 C 178.6 74.5 178.6 74.5 178.6 74.5 Z M 177.4 32.0 C 175.2 41.0 177.9 21.2 177.4 32.0 C 177.4 32.0 177.4 32.0 177.4 32.0 Z M 177.8 54.7 C 177.7 54.6 177.7 54.6 177.8 54.7 C 177.8 54.7 177.8 54.7 177.8 54.7 Z M 178.7 39.7 C 178.6 39.7 178.6 39.7 178.7 39.7 C 178.7 39.7 178.7 39.7 178.7 39.7 Z M 177.5 37.9 C 177.4 37.9 177.4 37.9 177.5 37.9 C 177.5 37.9 177.5 37.9 177.5 37.9 Z M 172.5 41.4 C 172.5 41.4 172.5 41.4 172.5 41.4 C 172.5 41.4 172.5 41.4 172.5 41.4 Z M 174.8 40.9 C 174.7 40.9 174.7 40.9 174.8 40.9 C 174.8 40.9 174.8 40.9 174.8 40.9 Z M 174.0 36.6 C 173.9 36.6 173.9 36.6 174.0 36.6 C 174.0 36.6 174.0 36.6 174.0 36.6 Z M 173.3 37.1 C 173.3 37.1 173.3 37.1 173.3 37.1 C 173.3 37.1 173.3 37.1 173.3 37.1 Z M 176.6 66.2 C 176.4 66.2 176.4 66.2 176.6 66.2 C 176.6 66.2 176.6 66.2 176.6 66.2 Z M 174.5 64.1 C 175.2 65.6 173.4 63.8 174.5 64.1 C 174.5 64.1 174.5 64.1 174.5 64.1 Z M 175.5 48.1 C 175.8 49.6 174.9 47.3 175.5 48.1 C 175.5 48.1 175.5 48.1 175.5 48.1 Z M 172.8 51.0 C 172.8 51.1 172.8 51.1 172.8 51.0 C 172.8 51.0 172.8 51.0 172.8 51.0 Z M 178.7 37.2 C 178.6 37.2 178.6 37.2 178.7 37.2 C 178.7 37.2 178.7 37.2 178.7 37.2 Z M 177.9 34.6 C 176.8 35.1 178.4 33.4 177.9 34.6 M 178.5 49.9 C 178.3 50.0 178.3 50.0 178.5 49.9 C 178.5 49.9 178.5 49.9 178.5 49.9 Z M 176.8 60.3 C 176.8 60.3 176.8 60.3 176.8 60.3 C 176.8 60.3 176.8 60.3 176.8 60.3 Z M 177.5 69.8 C 177.4 69.8 177.4 69.8 177.5 69.8 C 177.5 69.8 177.5 69.8 177.5 69.8 Z M 178.3 56.1 C 178.2 56.1 178.2 56.1 178.3 56.1 C 178.3 56.1 178.3 56.1 178.3 56.1 Z M 177.4 51.8 C 177.2 51.8 177.2 51.8 177.4 51.8 C 177.4 51.8 177.4 51.8 177.4 51.8 Z M 176.0 72.1 C 176.0 72.1 176.0 72.1 176.0 72.1 C 176.0 72.1 176.0 72.1 176.0 72.1 Z M 178.5 57.2 C 178.5 57.1 178.5 57.1 178.5 57.2 C 178.5 57.2 178.5 57.2 178.5 57.2 Z M 175.2 61.0 C 175.1 60.9 175.1 60.9 175.2 61.0 C 175.2 61.0 175.2 61.0 175.2 61.0 Z M 179.4 34.2 C 179.3 34.2 179.3 34.2 179.4 34.2 C 179.4 34.2 179.4 34.2 179.4 34.2 Z M 177.4 72.0 C 177.4 72.0 177.4 72.0 177.4 72.0 C 177.4 72.0 177.4 72.0 177.4 72.0 Z M 178.4 72.5 C 178.3 72.5 178.3 72.5 178.4 72.5 C 178.4 72.5 178.4 72.5 178.4 72.5 Z M 173.4 66.6 C 174.0 63.2 173.6 69.5 174.7 66.9 C 175.0 71.6 173.3 67.4 173.4 66.6 C 173.4 66.6 173.4 66.6 173.4 66.6 Z M 178.7 77.1 C 177.3 75.3 176.0 75.5 174.5 76.4 C 173.8 77.4 176.6 77.1 174.2 77.3 C 173.8 75.3 170.6 78.5 173.7 78.2 C 174.1 80.9 171.7 78.8 173.0 80.3 C 173.3 83.2 172.3 81.8 172.5 84.0 C 174.2 85.3 171.7 85.2 173.3 85.8 C 171.6 84.7 173.8 88.3 173.0 88.3 C 171.9 86.2 173.0 96.0 173.5 90.7 C 174.3 93.0 172.9 92.4 172.7 93.1 C 173.7 94.2 171.8 96.5 172.9 98.0 C 173.1 97.8 173.1 97.1 173.5 97.0 C 174.2 96.7 173.4 98.5 173.4 98.3 C 173.8 99.3 174.8 103.1 173.0 98.9 C 172.2 98.5 173.4 102.0 172.6 101.7 C 172.6 104.9 174.3 102.9 173.0 104.0 C 173.0 106.3 173.0 108.0 173.2 108.0 C 173.0 109.4 172.1 109.3 173.0 110.9 C 171.2 113.0 176.5 114.3 172.9 114.0 C 173.8 115.1 171.4 114.9 173.7 115.7 C 172.6 114.3 171.9 119.7 173.6 118.0 C 174.1 118.9 171.3 121.2 173.5 121.8 C 175.2 124.0 176.8 124.6 178.4 122.4 C 177.1 122.1 179.7 119.8 177.5 121.0 C 176.8 123.2 176.7 116.0 177.5 117.9 C 180.2 119.4 175.9 113.7 177.8 112.9 C 176.7 113.7 176.2 107.7 178.2 110.0 C 178.3 109.0 177.4 108.4 178.5 107.5 C 178.4 111.1 176.5 105.6 177.7 106.1 C 178.4 107.0 179.0 101.7 177.9 102.0 C 175.2 103.2 178.5 100.8 177.4 99.6 C 176.8 96.6 179.7 100.6 177.7 98.0 C 178.1 97.4 178.1 93.5 178.6 96.1 C 178.4 97.0 175.6 93.3 178.0 93.2 C 179.3 97.6 178.7 88.5 178.0 89.8 C 176.7 96.1 176.5 83.0 177.8 88.0 C 179.1 85.2 178.3 88.9 177.7 85.3 C 177.0 85.8 176.3 83.0 177.8 83.7 C 180.0 83.1 174.8 82.7 177.8 80.5 C 179.1 80.2 176.9 76.3 178.3 77.8 C 178.5 77.8 178.8 77.2 178.7 77.1 M 178.5 78.4 C 178.0 78.0 179.1 77.6 178.5 78.4 M 178.0 77.9 C 178.0 77.9 178.0 77.9 178.0 77.9 C 178.0 77.9 178.0 77.9 178.0 77.9 Z M 177.7 84.8 C 177.7 84.8 177.7 84.8 177.7 84.8 C 177.7 84.8 177.7 84.8 177.7 84.8 Z M 172.1 89.7 C 172.2 89.7 172.2 89.7 172.1 89.7 C 172.1 89.7 172.1 89.7 172.1 89.7 Z M 177.5 89.4 C 177.5 89.3 177.5 89.3 177.5 89.4 C 177.5 89.4 177.5 89.4 177.5 89.4 Z M 177.3 82.4 C 177.3 82.3 177.3 82.3 177.3 82.4 C 177.3 82.4 177.3 82.4 177.3 82.4 Z M 178.4 89.0 C 177.5 89.3 179.0 87.4 178.5 89.1 C 178.4 89.1 178.4 88.8 178.4 89.0 M 178.7 95.1 C 178.6 95.1 178.6 95.1 178.7 95.1 M 172.2 106.4 C 172.1 106.4 172.1 106.4 172.2 106.4 M 178.7 109.5 C 178.6 109.6 178.6 109.6 178.7 109.5 M 177.8 100.9 C 177.9 102.8 177.4 101.2 177.8 100.9 M 178.3 114.2 C 178.8 112.1 178.7 116.8 178.3 114.2 M 178.8 116.6 C 178.7 116.8 178.7 116.8 178.8 116.6 M 178.4 106.1 C 178.4 106.0 178.4 106.0 178.4 106.1 C 178.4 106.1 178.4 106.1 178.4 106.1 Z M 178.2 100.2 C 178.6 97.9 178.9 102.8 178.2 100.2 M 178.5 85.6 C 178.9 87.0 177.4 85.6 178.5 85.6 M 178.0 82.9 C 178.0 82.9 178.0 82.9 178.0 82.9 C 178.0 82.9 178.0 82.9 178.0 82.9 Z M 178.3 110.5 C 178.3 110.4 178.3 110.4 178.3 110.5 C 178.3 110.5 178.3 110.5 178.3 110.5 Z M 178.5 113.2 C 178.4 113.1 178.4 113.1 178.5 113.2 C 178.5 113.2 178.5 113.2 178.5 113.2 Z M 172.4 115.1 C 172.4 115.0 172.4 115.0 172.4 115.1 C 172.4 115.1 172.4 115.1 172.4 115.1 Z M 175.5 84.9 C 175.9 83.2 177.5 86.7 176.0 86.3 C 175.4 86.5 175.6 85.1 175.5 84.9 M 176.3 98.1 C 174.3 98.1 179.1 96.8 176.3 98.1 M 177.4 116.4 C 174.9 117.1 179.1 114.8 177.4 116.4 M 177.8 120.2 C 177.3 121.0 177.5 113.4 178.2 119.1 C 178.6 119.8 178.1 119.9 177.8 120.2 M 177.7 95.0 C 176.5 95.3 178.2 92.2 177.7 95.0 M 174.2 105.0 C 175.0 106.0 175.6 108.5 174.4 107.1 C 172.8 106.6 173.6 103.8 174.2 105.0 M 177.3 79.0 C 179.2 80.4 175.8 79.1 177.3 79.0 M 177.2 85.9 C 177.2 86.0 177.2 86.0 177.2 85.9 C 177.2 85.9 177.2 85.9 177.2 85.9 Z M 177.5 88.7 C 177.3 88.8 177.3 88.8 177.5 88.7 M 178.9 80.1 C 178.8 80.2 178.8 80.2 178.9 80.1 M 176.1 105.5 C 176.0 105.6 176.0 105.6 176.1 105.5 M 177.4 100.3 C 175.5 102.5 177.0 98.8 177.4 100.3 M 173.9 93.3 C 173.0 93.9 173.8 91.7 173.9 93.3 M 178.0 104.8 C 176.3 106.2 176.4 101.8 178.0 104.8 M 177.5 99.0 C 177.5 99.1 177.5 99.1 177.5 99.0 C 177.5 99.0 177.5 99.0 177.5 99.0 Z M 174.0 105.6 C 174.0 105.6 174.0 105.6 174.0 105.6 C 174.0 105.6 174.0 105.6 174.0 105.6 Z M 174.1 106.4 C 174.1 106.3 174.1 106.3 174.1 106.4 C 174.1 106.4 174.1 106.4 174.1 106.4 Z M 178.2 107.2 C 178.2 107.1 178.2 107.1 178.2 107.2 C 178.2 107.2 178.2 107.2 178.2 107.2 Z M 173.3 82.8 C 173.1 84.5 173.0 81.4 173.3 82.8 C 173.3 82.8 173.3 82.8 173.3 82.8 Z M 178.3 91.2 C 177.0 94.2 177.0 88.9 178.3 91.2 C 178.3 91.2 178.3 91.2 178.3 91.2 Z M 176.1 94.5 C 176.0 94.4 176.0 94.4 176.1 94.5 C 176.1 94.5 176.1 94.5 176.1 94.5 Z M 179.1 103.9 C 179.0 103.8 179.0 103.8 179.1 103.9 C 179.1 103.9 179.1 103.9 179.1 103.9 Z M 173.0 83.7 C 172.9 83.7 172.9 83.7 173.0 83.7 C 173.0 83.7 173.0 83.7 173.0 83.7 Z M 177.3 112.3 C 177.2 112.3 177.2 112.3 177.3 112.3 C 177.3 112.3 177.3 112.3 177.3 112.3 Z M 173.8 100.7 C 174.4 101.5 173.2 100.7 173.8 100.7 C 173.8 100.7 173.8 100.7 173.8 100.7 Z M 173.8 103.3 C 173.8 103.4 173.8 103.4 173.8 103.3 C 173.8 103.3 173.8 103.3 173.8 103.3 Z M 178.9 117.4 C 178.9 117.5 178.9 117.5 178.9 117.4 C 178.9 117.4 178.9 117.4 178.9 117.4 Z M 172.1 109.6 C 172.2 109.7 172.2 109.7 172.1 109.6 C 172.1 109.6 172.1 109.6 172.1 109.6 Z M 174.2 112.6 C 174.1 112.6 174.1 112.6 174.2 112.6 C 174.2 112.6 174.2 112.6 174.2 112.6 Z M 177.8 106.6 C 178.2 109.5 177.1 105.7 177.8 106.6 C 177.8 106.6 177.8 106.6 177.8 106.6 Z M 174.7 119.6 C 174.6 119.6 174.6 119.6 174.7 119.6 C 174.7 119.6 174.7 119.6 174.7 119.6 Z M 177.1 122.1 C 177.0 122.1 177.0 122.1 177.1 122.1 C 177.1 122.1 177.1 122.1 177.1 122.1 Z M 178.3 123.4 C 178.2 123.5 178.2 123.5 178.3 123.4 C 178.3 123.4 178.3 123.4 178.3 123.4 Z M 174.9 88.5 C 175.0 88.4 175.0 88.4 174.9 88.5 C 174.9 88.5 174.9 88.5 174.9 88.5 Z M 178.7 87.6 C 178.8 87.5 178.8 87.5 178.7 87.6 C 178.7 87.6 178.7 87.6 178.7 87.6 Z M 178.9 91.5 C 179.0 91.5 179.0 91.5 178.9 91.5 C 178.9 91.5 178.9 91.5 178.9 91.5 Z M 172.6 87.7 C 172.6 87.6 172.6 87.6 172.6 87.7 C 172.6 87.7 172.6 87.7 172.6 87.7 Z M 175.9 101.9 C 175.9 101.8 175.9 101.8 175.9 101.9 C 175.9 101.9 175.9 101.9 175.9 101.9 Z M 174.3 102.8 C 174.4 102.8 174.4 102.8 174.3 102.8 C 174.3 102.8 174.3 102.8 174.3 102.8 Z M 172.2 99.2 C 172.3 99.2 172.3 99.2 172.2 99.2 C 172.2 99.2 172.2 99.2 172.2 99.2 Z M 173.0 103.5 C 173.0 103.4 173.0 103.4 173.0 103.5 C 173.0 103.5 173.0 103.5 173.0 103.5 Z M 173.3 78.6 C 173.3 78.6 173.3 78.6 173.3 78.6 C 173.3 78.6 173.3 78.6 173.3 78.6 Z M 176.3 78.1 C 176.2 78.1 176.2 78.1 176.3 78.1 C 176.3 78.1 176.3 78.1 176.3 78.1 Z M 178.0 102.8 C 178.6 103.6 177.2 103.9 178.0 102.8 M 177.6 97.3 C 177.6 97.2 177.6 97.2 177.6 97.3 C 177.6 97.3 177.6 97.3 177.6 97.3 Z M 177.9 112.0 C 176.7 112.3 178.5 109.6 177.9 112.0 C 177.9 112.0 177.9 112.0 177.9 112.0 Z M 173.0 107.6 C 173.0 107.6 173.0 107.6 173.0 107.6 C 173.0 107.6 173.0 107.6 173.0 107.6 Z M 173.5 109.1 C 173.4 109.1 173.4 109.1 173.5 109.1 C 173.5 109.1 173.5 109.1 173.5 109.1 Z M 176.6 118.0 C 176.5 118.1 176.5 118.1 176.6 118.0 M 178.7 96.7 C 178.1 97.5 178.2 97.3 178.7 96.7 M 177.8 113.9 C 177.8 113.8 177.8 113.8 177.8 113.9 C 177.8 113.9 177.8 113.9 177.8 113.9 Z M 177.3 120.0 C 177.3 119.9 177.3 119.9 177.3 120.0 C 177.3 120.0 177.3 120.0 177.3 120.0 Z M 177.9 92.7 C 176.5 92.7 176.8 92.0 177.9 92.7 M 177.4 81.8 C 177.3 81.8 177.3 81.8 177.4 81.8 C 177.4 81.8 177.4 81.8 177.4 81.8 Z M 178.3 129.2 C 179.9 127.1 177.7 125.9 177.6 125.8 C 180.6 127.8 176.4 122.6 175.8 122.9 C 175.4 122.6 170.3 122.1 173.4 125.7 C 173.8 126.5 172.9 126.3 172.8 126.6 C 172.9 130.1 174.4 125.1 174.4 129.4 C 174.0 129.9 171.5 127.5 173.2 131.0 C 173.0 131.0 172.1 133.1 173.2 132.9 C 172.1 133.4 173.4 135.2 173.7 136.6 C 173.0 137.3 171.9 134.5 173.3 139.4 C 171.2 139.6 174.8 143.0 172.6 142.8 C 172.5 143.7 176.2 148.3 174.1 144.2 C 174.3 144.7 176.1 144.6 175.5 147.4 C 175.0 146.5 171.2 141.8 173.0 148.2 C 172.9 148.9 173.9 151.7 173.5 151.8 C 173.1 148.8 171.8 153.7 173.0 154.2 C 172.2 157.4 173.9 156.8 172.6 158.4 C 172.6 158.4 172.6 158.4 172.6 158.4 C 170.2 158.4 175.1 160.1 171.1 159.1 C 169.0 159.3 169.7 158.4 169.9 158.4 C 167.8 158.2 167.8 158.9 167.0 158.9 C 166.4 158.7 164.8 157.9 165.2 158.8 C 164.8 160.5 168.3 162.3 169.0 164.0 C 171.3 164.8 168.4 162.7 170.7 163.9 C 170.4 162.9 170.9 164.0 174.9 163.8 C 174.6 163.5 172.8 162.8 173.7 162.7 C 175.5 162.8 177.2 165.7 177.9 163.7 C 177.9 163.7 177.9 163.7 177.9 163.7 C 177.7 164.7 177.5 164.0 177.3 163.0 C 177.0 161.5 176.7 159.2 176.4 160.6 C 176.0 156.6 176.6 159.8 177.3 157.7 C 175.3 156.1 179.4 159.5 177.8 157.0 C 178.6 157.5 178.3 152.8 177.1 154.8 C 176.6 150.0 177.7 153.7 178.7 153.0 C 178.8 151.0 175.5 150.2 177.9 150.9 C 179.0 149.1 176.7 149.8 178.6 149.4 C 176.9 148.9 178.6 147.4 176.8 146.7 C 176.7 142.1 178.7 148.8 177.5 144.6 C 177.4 145.6 179.9 147.1 178.3 143.8 C 175.4 142.5 180.8 143.1 177.0 141.8 C 175.9 134.7 178.6 141.8 178.6 138.3 C 178.6 137.4 177.3 138.4 177.3 137.6 C 177.9 133.4 178.8 137.9 177.0 134.3 C 176.5 129.6 178.6 134.0 178.7 131.8 C 177.8 131.1 176.3 128.5 178.3 129.2 M 177.4 132.7 C 178.0 133.9 176.8 132.9 177.4 132.7 M 178.3 124.2 C 178.9 125.4 177.7 124.4 178.3 124.2 M 177.9 136.7 C 178.6 138.4 177.0 136.4 177.9 136.7 M 177.0 160.0 C 177.0 158.3 177.5 161.2 177.0 160.0 M 178.4 127.8 C 179.1 129.6 177.4 127.6 178.4 127.8 M 176.9 125.4 C 176.9 125.5 176.9 125.5 176.9 125.4 M 178.6 163.9 C 178.5 163.9 178.5 163.9 178.6 163.9 M 178.6 157.4 C 178.6 158.7 178.2 156.2 178.6 157.4 M 172.3 151.4 C 172.3 152.7 171.9 150.3 172.3 151.4 M 175.6 164.4 C 174.7 164.9 174.5 163.7 175.6 164.4 M 170.7 163.0 C 170.1 163.6 169.3 162.4 170.7 163.0 M 175.2 130.5 C 175.1 130.5 175.1 130.5 175.2 130.5 C 175.2 130.5 175.2 130.5 175.2 130.5 Z M 173.7 140.8 C 174.3 139.9 172.9 141.8 173.7 140.8 M 177.8 141.7 C 176.5 141.7 177.8 140.0 177.8 141.7 C 177.8 141.7 177.8 141.7 177.8 141.7 Z M 177.2 139.3 C 177.1 139.2 177.1 139.2 177.2 139.3 C 177.2 139.3 177.2 139.3 177.2 139.3 Z M 177.1 145.8 C 177.1 145.7 177.1 145.7 177.1 145.8 C 177.1 145.8 177.1 145.8 177.1 145.8 Z M 177.0 144.4 C 176.7 143.6 177.3 143.8 177.0 144.4 C 177.0 144.4 177.0 144.4 177.0 144.4 Z M 173.0 150.4 C 172.7 149.6 173.2 149.9 173.0 150.4 C 173.0 150.4 173.0 150.4 173.0 150.4 Z M 176.6 142.0 C 175.3 140.8 177.4 141.6 176.6 142.0 C 176.6 142.0 176.6 142.0 176.6 142.0 Z M 173.5 146.5 C 173.9 147.4 172.3 146.7 173.5 146.5 M 177.5 164.1 C 177.2 164.4 175.0 162.9 177.5 164.1 M 178.7 151.0 C 179.0 151.9 177.5 151.3 178.7 151.0 M 177.9 133.8 C 177.8 133.8 177.8 133.8 177.9 133.8 M 172.4 137.6 C 172.9 138.8 171.9 137.7 172.4 137.6 M 172.9 125.4 C 173.3 126.6 172.3 125.5 172.9 125.4 M 172.5 157.2 C 172.8 157.5 172.3 158.4 172.5 157.2 M 176.7 151.0 C 176.5 152.1 175.8 152.7 175.9 150.3 C 176.2 150.4 176.4 151.3 176.7 151.0 C 176.7 151.0 176.7 151.0 176.7 151.0 Z M 173.7 152.7 C 173.6 152.8 173.6 152.8 173.7 152.7 M 177.8 154.2 C 177.7 154.3 177.7 154.3 177.8 154.2 M 177.7 161.3 C 177.5 161.3 177.5 161.3 177.7 161.3 M 178.1 162.6 C 178.0 162.5 178.0 162.5 178.1 162.6 C 178.1 162.6 178.1 162.6 178.1 162.6 Z M 172.0 164.4 C 171.9 164.3 171.9 164.3 172.0 164.4 C 172.0 164.4 172.0 164.4 172.0 164.4 Z M 177.6 158.9 C 177.5 158.8 177.5 158.8 177.6 158.9 C 177.6 158.9 177.6 158.9 177.6 158.9 Z M 170.7 158.5 C 170.6 158.4 170.6 158.4 170.7 158.5 C 170.7 158.5 170.7 158.5 170.7 158.5 Z M 172.3 159.2 C 172.2 159.2 172.2 159.2 172.3 159.2 C 172.3 159.2 172.3 159.2 172.3 159.2 Z M 178.3 129.8 C 179.2 131.5 176.1 129.2 178.3 129.8 M 168.9 159.2 C 167.0 158.3 170.5 159.0 168.9 159.2 C 168.9 159.2 168.9 159.2 168.9 159.2 Z M 176.5 157.0 C 176.3 157.0 176.3 157.0 176.5 157.0 M 178.0 162.9 C 177.8 162.9 177.8 162.9 178.0 162.9 M 178.9 142.5 C 178.8 142.5 178.8 142.5 178.9 142.5 M 173.0 163.5 C 169.4 163.2 172.7 161.7 173.0 163.5 M 177.7 140.1 C 177.8 140.1 177.8 140.1 177.7 140.1 M 175.3 145.8 C 175.4 148.0 174.6 144.4 175.3 145.8 M 176.9 152.8 C 176.9 152.6 176.9 152.6 176.9 152.8 C 176.9 152.8 176.9 152.8 176.9 152.8 Z M 176.9 149.4 C 176.8 147.7 177.3 149.3 176.9 149.4 C 176.9 149.4 176.9 149.4 176.9 149.4 Z M 177.1 130.8 C 176.9 132.8 176.7 128.3 177.1 130.8 C 177.1 130.8 177.1 130.8 177.1 130.8 Z M 171.6 160.5 C 171.6 160.4 171.6 160.4 171.6 160.5 C 171.6 160.5 171.6 160.5 171.6 160.5 Z M 178.4 159.3 C 178.1 158.0 178.8 159.2 178.4 159.3 C 178.4 159.3 178.4 159.3 178.4 159.3 Z M 170.8 164.4 C 171.5 164.0 171.6 164.7 170.8 164.4 C 170.8 164.4 170.8 164.4 170.8 164.4 Z M 177.4 128.3 C 175.2 134.7 177.9 118.2 177.4 128.3 C 177.4 128.3 177.4 128.3 177.4 128.3 Z M 177.8 151.5 C 177.7 151.4 177.7 151.4 177.8 151.5 C 177.8 151.5 177.8 151.5 177.8 151.5 Z M 178.7 137.6 C 178.6 137.5 178.6 137.5 178.7 137.6 C 178.7 137.6 178.7 137.6 178.7 137.6 Z M 177.5 134.4 C 177.4 134.3 177.4 134.3 177.5 134.4 C 177.5 134.4 177.5 134.4 177.5 134.4 Z M 172.5 131.9 C 172.5 131.8 172.5 131.8 172.5 131.9 C 172.5 131.9 172.5 131.9 172.5 131.9 Z M 174.8 134.2 C 174.7 133.9 174.7 133.9 174.8 134.2 C 174.8 134.2 174.8 134.2 174.8 134.2 Z M 174.0 128.8 C 173.9 128.7 173.9 128.7 174.0 128.8 C 174.0 128.8 174.0 128.8 174.0 128.8 Z M 173.3 128.5 C 173.3 128.4 173.3 128.4 173.3 128.5 C 173.3 128.5 173.3 128.5 173.3 128.5 Z M 176.6 161.5 C 176.4 161.4 176.4 161.4 176.6 161.5 C 176.6 161.5 176.6 161.5 176.6 161.5 Z M 174.5 156.9 C 175.2 159.4 173.4 155.4 174.5 156.9 C 174.5 156.9 174.5 156.9 174.5 156.9 Z M 175.5 142.2 C 175.8 144.0 174.9 140.6 175.5 142.2 C 175.5 142.2 175.5 142.2 175.5 142.2 Z M 172.8 141.8 C 172.8 141.8 172.8 141.8 172.8 141.8 C 172.8 141.8 172.8 141.8 172.8 141.8 Z M 178.7 135.2 C 178.6 135.0 178.6 135.0 178.7 135.2 C 178.7 135.2 178.7 135.2 178.7 135.2 Z M 177.9 131.6 C 176.8 130.8 178.4 130.9 177.9 131.6 M 178.5 147.6 C 178.3 147.5 178.3 147.5 178.5 147.6 C 178.5 147.6 178.5 147.6 178.5 147.6 Z M 176.8 156.0 C 176.8 155.9 176.8 155.9 176.8 156.0 C 176.8 156.0 176.8 156.0 176.8 156.0 Z M 174.6 163.3 C 174.5 163.1 174.5 163.1 174.6 163.3 C 174.6 163.3 174.6 163.3 174.6 163.3 Z M 178.3 153.6 C 178.2 153.4 178.2 153.4 178.3 153.6 C 178.3 153.6 178.3 153.6 178.3 153.6 Z M 177.4 148.1 C 177.2 148.0 177.2 148.0 177.4 148.1 C 177.4 148.1 177.4 148.1 177.4 148.1 Z M 171.0 161.8 C 171.0 161.7 171.0 161.7 171.0 161.8 C 171.0 161.8 171.0 161.8 171.0 161.8 Z M 178.5 154.8 C 178.5 154.8 178.5 154.8 178.5 154.8 C 178.5 154.8 178.5 154.8 178.5 154.8 Z M 175.2 154.6 C 175.1 154.4 175.1 154.4 175.2 154.6 C 175.2 154.6 175.2 154.6 175.2 154.6 Z M 179.4 132.9 C 179.3 132.8 179.3 132.8 179.4 132.9 C 179.4 132.9 179.4 132.9 179.4 132.9 Z M 172.3 163.2 C 172.3 163.1 172.3 163.1 172.3 163.2 C 172.3 163.2 172.3 163.2 172.3 163.2 Z M 172.6 164.1 C 172.6 164.1 172.6 164.1 172.6 164.1 C 172.6 164.1 172.6 164.1 172.6 164.1 Z M 173.4 158.1 C 173.8 156.1 173.7 158.9 174.1 159.9 C 174.1 160.0 174.2 160.1 174.5 160.2 C 174.5 160.2 174.6 160.2 174.7 160.1 C 174.8 160.2 174.8 160.4 174.8 160.5 C 171.9 160.6 172.7 159.8 173.6 159.4 C 173.5 158.8 173.4 158.3 173.4 158.1 C 173.4 158.1 173.4 158.1 173.4 158.1 Z M 168.4 164.5 C 169.0 163.1 167.6 161.7 165.5 160.3 C 163.9 159.5 166.6 162.4 164.3 160.0 C 165.9 159.5 160.0 156.4 162.9 159.5 C 160.6 159.9 160.6 157.5 160.1 158.7 C 157.5 159.0 158.1 158.1 156.1 158.3 C 156.3 160.0 154.0 157.5 154.9 159.1 C 154.4 157.3 152.8 159.6 152.1 158.8 C 153.2 157.7 144.2 158.8 150.1 159.3 C 148.5 160.1 147.7 158.6 146.8 158.4 C 146.7 159.4 142.6 157.6 142.0 158.6 C 142.5 158.9 143.2 158.9 143.7 159.3 C 144.6 159.9 142.1 159.1 142.3 159.2 C 141.7 159.5 138.9 160.6 141.3 158.8 C 140.8 157.9 138.5 159.2 138.1 158.4 C 134.7 158.4 138.5 160.1 136.1 158.8 C 133.7 158.8 132.0 158.8 132.2 159.0 C 130.6 158.8 129.6 157.8 129.1 158.8 C 124.9 156.9 129.5 162.3 125.9 158.7 C 125.7 159.6 123.2 157.2 124.9 159.4 C 125.2 158.4 118.8 157.7 122.5 159.3 C 122.1 159.8 116.6 157.0 118.6 159.3 C 118.3 160.9 119.6 162.6 123.6 164.2 C 122.4 162.9 127.7 165.5 124.0 163.3 C 120.9 162.5 128.1 162.5 127.1 163.3 C 128.6 165.9 129.4 161.7 132.3 163.5 C 130.3 162.5 135.8 162.0 135.5 163.9 C 136.7 164.1 136.3 163.2 138.4 164.3 C 134.7 164.1 138.1 162.2 138.8 163.5 C 138.8 164.2 144.6 164.8 143.1 163.7 C 139.2 160.9 145.0 164.2 145.0 163.2 C 147.4 162.6 146.4 165.5 147.0 163.5 C 147.8 163.8 151.7 163.8 149.7 164.4 C 148.5 164.1 149.5 161.4 151.9 163.7 C 148.8 165.0 157.2 164.5 155.2 163.7 C 147.8 162.5 160.6 162.3 156.8 163.6 C 160.8 164.8 156.4 164.1 159.4 163.5 C 158.3 162.8 160.4 162.1 161.1 163.5 C 163.6 165.8 159.4 160.6 164.2 163.6 C 165.7 164.9 167.6 162.7 167.4 164.1 C 167.5 164.3 168.3 164.5 168.4 164.5 M 166.9 164.3 C 166.9 163.8 168.2 164.9 166.9 164.3 M 166.9 163.8 C 167.0 163.8 167.0 163.8 166.9 163.8 C 166.9 163.8 166.9 163.8 166.9 163.8 Z M 159.9 163.4 C 160.0 163.5 160.0 163.5 159.9 163.4 C 159.9 163.4 159.9 163.4 159.9 163.4 Z M 149.8 157.9 C 149.9 158.0 149.9 158.0 149.8 157.9 C 149.8 157.9 149.8 157.9 149.8 157.9 Z M 155.2 163.3 C 155.3 163.3 155.3 163.3 155.2 163.3 C 155.2 163.3 155.2 163.3 155.2 163.3 Z M 162.0 163.1 C 162.0 163.1 162.0 163.1 162.0 163.1 C 162.0 163.1 162.0 163.1 162.0 163.1 Z M 156.4 164.1 C 155.3 163.3 158.5 164.7 156.4 164.2 C 156.3 164.2 156.6 164.2 156.4 164.1 M 150.7 164.4 C 150.6 164.3 150.6 164.3 150.7 164.4 M 132.8 158.0 C 132.7 157.9 132.7 157.9 132.8 158.0 M 136.7 164.5 C 136.4 164.4 136.4 164.4 136.7 164.5 M 144.2 163.6 C 142.5 163.7 143.4 163.2 144.2 163.6 M 131.6 164.0 C 134.2 164.6 129.4 164.5 131.6 164.0 M 129.7 164.5 C 129.4 164.5 129.4 164.5 129.7 164.5 M 139.7 164.2 C 139.7 164.2 139.7 164.2 139.7 164.2 C 139.7 164.2 139.7 164.2 139.7 164.2 Z M 145.2 163.9 C 147.9 164.4 143.4 164.7 145.2 163.9 M 159.8 164.2 C 158.8 164.6 158.8 163.2 159.8 164.2 M 162.0 163.8 C 162.0 163.7 162.0 163.7 162.0 163.8 C 162.0 163.8 162.0 163.8 162.0 163.8 Z M 135.2 164.1 C 135.3 164.1 135.3 164.1 135.2 164.1 C 135.2 164.1 135.2 164.1 135.2 164.1 Z M 132.7 164.2 C 132.8 164.2 132.8 164.2 132.7 164.2 C 132.7 164.2 132.7 164.2 132.7 164.2 Z M 124.1 158.2 C 124.2 158.1 124.2 158.1 124.1 158.2 C 124.1 158.2 124.1 158.2 124.1 158.2 Z M 157.8 161.2 C 159.9 161.7 157.8 163.2 156.8 161.7 C 156.1 161.1 157.7 161.4 157.8 161.2 M 145.4 162.1 C 143.3 160.0 149.5 164.9 145.4 162.1 M 128.4 163.2 C 125.0 160.7 131.9 164.9 128.4 163.2 M 125.1 163.6 C 123.8 163.1 131.6 163.3 126.7 164.0 C 126.4 164.4 125.7 163.9 125.1 163.6 M 149.8 163.4 C 148.4 162.3 153.0 163.9 149.8 163.4 M 136.4 160.0 C 136.1 160.7 134.4 161.4 134.4 160.1 C 133.2 158.5 136.9 159.4 136.4 160.0 M 165.3 163.1 C 165.5 164.9 163.9 161.5 165.3 163.1 M 158.3 162.9 C 158.3 163.0 158.3 163.0 158.3 162.9 C 158.3 162.9 158.3 162.9 158.3 162.9 Z M 155.9 163.2 C 155.6 163.1 155.6 163.1 155.9 163.2 M 165.6 164.7 C 165.4 164.6 165.4 164.6 165.6 164.7 M 137.9 161.9 C 137.6 161.8 137.6 161.8 137.9 161.9 M 144.3 163.1 C 140.3 161.3 145.4 162.8 144.3 163.1 M 147.8 159.6 C 146.3 158.8 149.4 159.6 147.8 159.6 M 140.5 163.8 C 137.4 162.1 141.8 162.2 140.5 163.8 M 145.8 163.3 C 145.6 163.3 145.6 163.3 145.8 163.3 C 145.8 163.3 145.8 163.3 145.8 163.3 Z M 135.6 159.8 C 135.6 159.8 135.6 159.8 135.6 159.8 C 135.6 159.8 135.6 159.8 135.6 159.8 Z M 134.8 159.9 C 134.9 159.9 134.9 159.9 134.8 159.9 C 134.8 159.9 134.8 159.9 134.8 159.9 Z M 138.4 164.0 C 138.4 164.0 138.4 164.0 138.4 164.0 C 138.4 164.0 138.4 164.0 138.4 164.0 Z M 157.9 159.0 C 156.0 158.9 159.1 158.7 157.9 159.0 C 157.9 159.0 157.9 159.0 157.9 159.0 Z M 154.2 164.1 C 150.0 162.7 155.2 162.8 154.2 164.1 C 154.2 164.1 154.2 164.1 154.2 164.1 Z M 148.8 161.9 C 148.7 161.8 148.7 161.8 148.8 161.9 C 148.8 161.9 148.8 161.9 148.8 161.9 Z M 142.5 164.9 C 142.5 164.8 142.5 164.8 142.5 164.9 C 142.5 164.9 142.5 164.9 142.5 164.9 Z M 156.8 158.8 C 156.7 158.7 156.7 158.7 156.8 158.8 C 156.8 158.8 156.8 158.8 156.8 158.8 Z M 132.4 163.1 C 132.3 163.0 132.3 163.0 132.4 163.1 C 132.4 163.1 132.4 163.1 132.4 163.1 Z M 140.3 159.6 C 140.1 160.2 139.7 159.0 140.3 159.6 C 140.3 159.6 140.3 159.6 140.3 159.6 Z M 137.5 159.5 C 137.5 159.5 137.5 159.5 137.5 159.5 C 137.5 159.5 137.5 159.5 137.5 159.5 Z M 129.1 164.7 C 129.0 164.7 129.0 164.7 129.1 164.7 C 129.1 164.7 129.1 164.7 129.1 164.7 Z M 129.4 157.9 C 129.4 157.9 129.4 157.9 129.4 157.9 C 129.4 157.9 129.4 157.9 129.4 157.9 Z M 128.6 159.9 C 128.6 159.9 128.6 159.9 128.6 159.9 C 128.6 159.9 128.6 159.9 128.6 159.9 Z M 138.6 163.6 C 136.0 163.9 138.6 162.8 138.6 163.6 C 138.6 163.6 138.6 163.6 138.6 163.6 Z M 122.2 160.5 C 122.1 160.4 122.1 160.4 122.2 160.5 C 122.2 160.5 122.2 160.5 122.2 160.5 Z M 122.4 162.8 C 122.2 162.7 122.2 162.7 122.4 162.8 C 122.4 162.8 122.4 162.8 122.4 162.8 Z M 122.5 164.1 C 122.4 164.0 122.4 164.0 122.5 164.1 C 122.5 164.1 122.5 164.1 122.5 164.1 Z M 153.7 160.7 C 153.8 160.8 153.8 160.8 153.7 160.7 C 153.7 160.7 153.7 160.7 153.7 160.7 Z M 158.1 164.5 C 158.2 164.6 158.2 164.6 158.1 164.5 C 158.1 164.5 158.1 164.5 158.1 164.5 Z M 154.5 164.7 C 154.5 164.7 154.5 164.7 154.5 164.7 C 154.5 164.7 154.5 164.7 154.5 164.7 Z M 152.4 158.4 C 152.4 158.4 152.4 158.4 152.4 158.4 C 152.4 158.4 152.4 158.4 152.4 158.4 Z M 141.2 161.6 C 141.3 161.7 141.3 161.7 141.2 161.6 C 141.2 161.6 141.2 161.6 141.2 161.6 Z M 138.7 160.1 C 138.8 160.2 138.8 160.2 138.7 160.1 C 138.7 160.1 138.7 160.1 138.7 160.1 Z M 140.2 158.0 C 140.3 158.0 140.3 158.0 140.2 158.0 C 140.2 158.0 140.2 158.0 140.2 158.0 Z M 136.6 158.7 C 136.7 158.8 136.7 158.8 136.6 158.7 C 136.6 158.7 136.6 158.7 136.6 158.7 Z M 162.2 159.1 C 162.2 159.0 162.2 159.0 162.2 159.1 C 162.2 159.1 162.2 159.1 162.2 159.1 Z M 165.2 162.0 C 165.2 161.9 165.2 161.9 165.2 162.0 C 165.2 162.0 165.2 162.0 165.2 162.0 Z M 142.4 163.8 C 142.3 164.4 140.5 162.9 142.4 163.8 M 147.5 163.4 C 147.5 163.3 147.5 163.3 147.5 163.4 C 147.5 163.4 147.5 163.4 147.5 163.4 Z M 133.2 163.6 C 131.7 162.5 136.2 164.2 133.2 163.6 C 133.2 163.6 133.2 163.6 133.2 163.6 Z M 132.4 158.7 C 132.4 158.7 132.4 158.7 132.4 158.7 C 132.4 158.7 132.4 158.7 132.4 158.7 Z M 131.4 159.2 C 131.3 159.1 131.3 159.1 131.4 159.2 C 131.4 159.2 131.4 159.2 131.4 159.2 Z M 126.0 162.4 C 125.8 162.3 125.8 162.3 126.0 162.4 M 149.1 164.4 C 147.8 163.9 148.1 164.0 149.1 164.4 M 131.4 163.6 C 131.4 163.6 131.4 163.6 131.4 163.6 C 131.4 163.6 131.4 163.6 131.4 163.6 Z M 124.7 163.1 C 124.8 163.0 124.8 163.0 124.7 163.1 C 124.7 163.1 124.7 163.1 124.7 163.1 Z M 152.3 163.6 C 150.9 162.2 151.9 162.6 152.3 163.6 M 162.6 163.2 C 162.5 163.1 162.5 163.1 162.6 163.2 C 162.6 163.2 162.6 163.2 162.6 163.2 Z M 116.8 164.1 C 120.8 165.6 119.4 163.4 119.3 163.4 C 120.9 166.3 121.2 162.2 120.2 161.6 C 120.0 161.2 114.5 156.0 114.5 159.2 C 114.2 159.6 113.3 158.6 112.9 158.6 C 109.5 158.7 116.3 160.2 112.0 160.2 C 111.0 159.8 110.4 157.3 108.9 159.0 C 108.7 158.8 105.3 157.8 107.0 159.0 C 105.0 157.8 104.9 159.2 103.8 159.5 C 102.3 158.8 103.7 157.7 100.4 159.1 C 97.6 157.0 98.8 160.6 96.1 158.3 C 95.0 158.3 95.3 162.0 96.6 159.9 C 96.4 160.1 98.8 161.9 95.3 161.2 C 95.5 160.8 95.3 157.0 91.2 158.8 C 90.3 158.7 88.8 159.7 88.2 159.3 C 90.6 158.8 83.9 157.6 85.0 158.7 C 80.6 158.0 83.7 159.7 80.2 158.4 C 77.8 158.4 81.7 160.1 78.3 159.1 C 76.1 159.3 77.3 158.4 77.5 158.4 C 75.5 158.2 75.1 158.9 74.4 158.9 C 73.9 158.7 72.7 157.9 72.6 158.8 C 71.1 160.5 73.6 162.3 73.3 164.0 C 75.2 164.8 73.5 162.7 75.1 163.9 C 75.4 162.9 75.2 164.0 79.4 163.8 C 79.2 163.5 77.8 162.8 78.8 162.7 C 80.5 162.8 80.5 165.7 82.4 163.7 C 79.0 163.1 86.5 162.7 83.3 162.1 C 86.8 161.8 84.4 162.4 87.4 163.1 C 86.4 161.1 88.6 165.1 88.9 163.6 C 89.5 164.4 93.6 164.0 90.0 162.9 C 94.1 162.3 91.9 163.4 94.0 164.5 C 96.1 164.6 92.6 161.3 95.0 163.7 C 98.2 164.8 94.5 162.5 97.4 164.4 C 95.7 162.7 99.4 164.4 97.7 162.6 C 102.1 162.4 98.1 164.5 100.6 163.2 C 99.6 163.2 101.3 165.6 102.4 164.0 C 100.0 161.2 106.4 166.6 102.9 162.8 C 108.5 161.7 104.8 164.4 108.3 164.4 C 109.2 164.4 106.6 163.1 107.4 163.1 C 112.1 163.6 109.0 164.6 110.3 162.8 C 114.4 162.3 112.5 164.4 114.7 164.5 C 114.4 163.6 115.2 162.1 116.8 164.1 M 112.3 163.2 C 111.8 163.8 111.4 162.6 112.3 163.2 M 121.8 164.1 C 121.2 164.6 120.8 163.4 121.8 164.1 M 109.0 163.7 C 108.2 164.3 108.1 162.7 109.0 163.7 M 84.8 162.8 C 86.5 162.8 84.3 163.3 84.8 162.8 M 118.3 164.2 C 117.5 164.9 117.3 163.1 118.3 164.2 M 119.0 162.7 C 118.9 162.7 118.9 162.7 119.0 162.7 M 83.2 164.3 C 83.1 164.3 83.1 164.3 83.2 164.3 M 89.6 164.4 C 88.2 164.3 90.1 164.0 89.6 164.4 M 86.9 158.1 C 85.6 158.1 87.5 157.7 86.9 158.1 M 79.7 164.4 C 78.5 164.9 79.0 163.7 79.7 164.4 M 75.6 163.0 C 74.6 163.6 74.6 162.4 75.6 163.0 M 111.8 161.0 C 111.8 160.9 111.8 160.9 111.8 161.0 C 111.8 161.0 111.8 161.0 111.8 161.0 Z M 99.5 159.4 C 101.2 160.0 97.4 158.6 99.5 159.4 M 103.8 163.5 C 102.2 162.2 105.7 163.6 103.8 163.5 C 103.8 163.5 103.8 163.5 103.8 163.5 Z M 105.6 162.9 C 105.6 162.9 105.6 162.9 105.6 162.9 C 105.6 162.9 105.6 162.9 105.6 162.9 Z M 98.9 162.9 C 99.0 162.9 99.0 162.9 98.9 162.9 C 98.9 162.9 98.9 162.9 98.9 162.9 Z M 100.3 162.8 C 100.6 162.5 101.2 163.0 100.3 162.8 C 100.3 162.8 100.3 162.8 100.3 162.8 Z M 88.8 158.7 C 89.2 158.5 89.7 159.0 88.8 158.7 C 88.8 158.7 88.8 158.7 88.8 158.7 Z M 102.1 162.3 C 101.6 161.0 103.5 163.2 102.1 162.3 C 102.1 162.3 102.1 162.3 102.1 162.3 Z M 93.5 159.3 C 93.1 159.6 91.8 158.1 93.5 159.3 M 81.7 164.1 C 81.3 164.4 80.0 162.9 81.7 164.1 M 95.9 164.5 C 95.5 164.8 94.1 163.3 95.9 164.5 M 111.9 163.7 C 111.7 163.6 111.7 163.6 111.9 163.7 M 101.1 158.2 C 100.5 158.7 100.4 157.6 101.1 158.2 M 114.1 158.6 C 113.5 159.1 113.3 158.0 114.1 158.6 M 81.2 158.2 C 81.4 158.6 79.8 158.1 81.2 158.2 M 93.3 162.4 C 92.0 162.3 90.4 161.6 93.0 161.7 C 93.3 162.0 92.6 162.1 93.3 162.4 C 93.3 162.4 93.3 162.4 93.3 162.4 Z M 87.6 159.5 C 87.3 159.4 87.3 159.4 87.6 159.5 M 91.7 163.6 C 91.4 163.5 91.4 163.5 91.7 163.6 M 84.5 163.5 C 84.2 163.3 84.2 163.3 84.5 163.5 M 83.7 163.8 C 83.7 163.8 83.7 163.8 83.7 163.8 C 83.7 163.8 83.7 163.8 83.7 163.8 Z M 76.1 164.4 C 76.1 164.3 76.1 164.3 76.1 164.4 C 76.1 164.4 76.1 164.4 76.1 164.4 Z M 86.7 163.3 C 86.7 163.3 86.7 163.3 86.7 163.3 C 86.7 163.3 86.7 163.3 86.7 163.3 Z M 78.3 158.5 C 78.2 158.4 78.2 158.4 78.3 158.5 C 78.3 158.5 78.3 158.5 78.3 158.5 Z M 79.4 159.2 C 79.3 159.2 79.3 159.2 79.4 159.2 C 79.4 159.2 79.4 159.2 79.4 159.2 Z M 116.2 164.1 C 115.7 165.0 114.2 161.9 116.2 164.1 M 76.0 159.2 C 74.6 158.3 77.7 159.0 76.0 159.2 C 76.0 159.2 76.0 159.2 76.0 159.2 Z M 87.0 162.3 C 86.9 162.1 86.9 162.1 87.0 162.3 M 83.2 163.7 C 83.1 163.6 83.1 163.6 83.2 163.7 M 104.5 164.7 C 104.3 164.5 104.3 164.5 104.5 164.7 M 77.6 163.5 C 74.2 163.2 78.4 161.7 77.6 163.5 M 105.4 163.5 C 105.5 163.6 105.5 163.6 105.4 163.5 M 96.7 161.1 C 94.5 161.2 97.1 160.4 96.7 161.1 M 91.9 162.7 C 91.9 162.6 91.9 162.6 91.9 162.7 C 91.9 162.7 91.9 162.7 91.9 162.7 Z M 95.2 162.7 C 96.7 162.5 95.7 163.1 95.2 162.7 C 95.2 162.7 95.2 162.7 95.2 162.7 Z M 113.9 162.9 C 111.7 162.7 115.8 162.5 113.9 162.9 C 113.9 162.9 113.9 162.9 113.9 162.9 Z M 78.0 160.5 C 78.0 160.4 78.0 160.4 78.0 160.5 C 78.0 160.5 78.0 160.5 78.0 160.5 Z M 87.5 164.2 C 88.3 163.9 88.1 164.6 87.5 164.2 C 87.5 164.2 87.5 164.2 87.5 164.2 Z M 74.9 164.4 C 75.8 164.0 75.5 164.7 74.9 164.4 C 74.9 164.4 74.9 164.4 74.9 164.4 Z M 116.6 163.1 C 107.6 161.0 127.2 163.7 116.6 163.1 C 116.6 163.1 116.6 163.1 116.6 163.1 Z M 94.3 163.6 C 94.3 163.5 94.3 163.5 94.3 163.6 C 94.3 163.6 94.3 163.6 94.3 163.6 Z M 109.0 164.5 C 109.0 164.4 109.0 164.4 109.0 164.5 C 109.0 164.5 109.0 164.5 109.0 164.5 Z M 110.8 163.3 C 110.8 163.2 110.8 163.2 110.8 163.3 C 110.8 163.3 110.8 163.3 110.8 163.3 Z M 107.2 158.3 C 107.2 158.2 107.2 158.2 107.2 158.3 C 107.2 158.3 107.2 158.3 107.2 158.3 Z M 107.7 160.6 C 107.7 160.4 107.7 160.4 107.7 160.6 C 107.7 160.6 107.7 160.6 107.7 160.6 Z M 112.1 159.7 C 112.1 159.6 112.1 159.6 112.1 159.7 C 112.1 159.7 112.1 159.7 112.1 159.7 Z M 111.5 159.1 C 111.5 159.0 111.5 159.0 111.5 159.1 C 111.5 159.1 111.5 159.1 111.5 159.1 Z M 82.6 162.3 C 82.7 162.2 82.7 162.2 82.6 162.3 C 82.6 162.3 82.6 162.3 82.6 162.3 Z M 84.4 160.2 C 82.9 161.0 84.4 159.2 84.4 160.2 C 84.4 160.2 84.4 160.2 84.4 160.2 Z M 100.5 161.3 C 99.0 161.5 101.2 160.6 100.5 161.3 C 100.5 161.3 100.5 161.3 100.5 161.3 Z M 97.3 158.6 C 97.3 158.5 97.3 158.5 97.3 158.6 C 97.3 158.6 97.3 158.6 97.3 158.6 Z M 111.5 164.5 C 111.5 164.4 111.5 164.4 111.5 164.5 C 111.5 164.5 111.5 164.5 111.5 164.5 Z M 114.0 163.6 C 113.5 162.6 115.2 164.2 114.0 163.6 M 99.0 164.2 C 99.0 164.1 99.0 164.1 99.0 164.2 C 99.0 164.2 99.0 164.2 99.0 164.2 Z M 88.6 162.6 C 88.6 162.5 88.6 162.5 88.6 162.6 C 88.6 162.6 88.6 162.6 88.6 162.6 Z M 79.3 163.3 C 79.3 163.1 79.3 163.1 79.3 163.3 C 79.3 163.3 79.3 163.3 79.3 163.3 Z M 92.9 164.1 C 92.9 164.0 92.9 164.0 92.9 164.1 C 92.9 164.1 92.9 164.1 92.9 164.1 Z M 97.0 163.1 C 97.0 163.0 97.0 163.0 97.0 163.1 C 97.0 163.1 97.0 163.1 97.0 163.1 Z M 76.6 161.8 C 76.7 161.7 76.7 161.7 76.6 161.8 C 76.6 161.8 76.6 161.8 76.6 161.8 Z M 91.9 164.3 C 91.9 164.2 91.9 164.2 91.9 164.3 C 91.9 164.3 91.9 164.3 91.9 164.3 Z M 87.6 160.9 C 87.6 160.8 87.6 160.8 87.6 160.9 C 87.6 160.9 87.6 160.9 87.6 160.9 Z M 114.5 165.1 C 114.5 165.1 114.5 165.1 114.5 165.1 C 114.5 165.1 114.5 165.1 114.5 165.1 Z M 77.1 163.2 C 77.1 163.1 77.1 163.1 77.1 163.2 C 77.1 163.2 77.1 163.2 77.1 163.2 Z M 76.8 164.1 C 76.8 164.1 76.8 164.1 76.8 164.1 C 76.8 164.1 76.8 164.1 76.8 164.1 Z M 81.5 159.1 C 85.1 159.7 78.7 159.4 81.6 160.5 C 76.9 160.8 80.8 159.1 81.5 159.1 C 81.5 159.1 81.5 159.1 81.5 159.1 Z M 72.4 164.5 C 73.8 163.1 73.3 161.7 71.9 160.3 C 70.8 159.5 71.8 162.4 70.9 160.0 C 72.9 159.5 68.8 156.4 69.9 159.5 C 67.3 159.9 68.7 157.5 67.5 158.7 C 64.7 159.0 65.9 158.1 63.7 158.3 C 62.9 160.0 62.1 157.5 62.0 159.1 C 62.6 157.3 59.8 159.6 59.5 158.8 C 61.2 157.7 51.6 158.8 57.1 159.3 C 55.1 160.1 55.2 158.6 54.4 158.4 C 53.7 159.4 50.6 157.6 49.5 158.6 C 49.8 158.9 50.5 158.9 50.8 159.3 C 51.3 159.9 49.2 159.1 49.4 159.2 C 48.6 159.5 45.2 160.6 48.7 158.8 C 48.7 157.9 45.7 159.2 45.6 158.4 C 42.3 158.4 45.1 160.1 43.4 158.8 C 41.1 158.8 39.4 158.8 39.5 159.0 C 38.0 158.8 37.6 157.8 36.4 158.8 C 33.3 156.9 34.8 162.3 33.3 158.7 C 32.6 159.6 31.5 157.2 31.9 159.4 C 32.8 158.4 26.8 157.7 29.5 159.3 C 28.9 159.8 25.0 157.0 25.6 159.3 C 24.4 160.9 24.8 162.6 27.9 164.2 C 27.4 162.9 31.1 165.5 28.7 163.3 C 26.1 162.5 33.3 162.5 31.8 163.3 C 31.8 165.9 35.1 161.7 36.9 163.5 C 35.5 162.5 41.3 162.0 39.9 163.9 C 41.0 164.1 41.1 163.2 42.5 164.3 C 38.9 164.1 43.5 162.2 43.5 163.5 C 43.0 164.2 48.4 164.8 47.6 163.7 C 45.3 160.9 49.1 164.2 49.8 163.2 C 52.5 162.6 49.8 165.5 51.6 163.5 C 52.2 163.8 56.1 163.8 53.8 164.4 C 52.8 164.1 55.3 161.4 56.3 163.7 C 52.5 165.0 61.3 164.5 59.7 163.7 C 53.0 162.5 65.9 162.3 61.4 163.6 C 64.6 164.8 60.7 164.1 64.0 163.5 C 63.3 162.8 65.8 162.1 65.7 163.5 C 66.9 165.8 65.7 160.6 68.8 163.6 C 69.5 164.9 72.7 162.7 71.7 164.1 C 71.6 164.3 72.3 164.5 72.4 164.5 M 71.1 164.3 C 71.3 163.8 72.0 164.9 71.1 164.3 M 71.4 163.8 C 71.5 163.8 71.5 163.8 71.4 163.8 C 71.4 163.8 71.4 163.8 71.4 163.8 Z M 64.5 163.4 C 64.6 163.5 64.6 163.5 64.5 163.4 C 64.5 163.4 64.5 163.4 64.5 163.4 Z M 57.6 157.9 C 57.7 158.0 57.7 158.0 57.6 157.9 C 57.6 157.9 57.6 157.9 57.6 157.9 Z M 60.0 163.3 C 60.0 163.3 60.0 163.3 60.0 163.3 C 60.0 163.3 60.0 163.3 60.0 163.3 Z M 66.8 163.1 C 66.9 163.1 66.9 163.1 66.8 163.1 C 66.8 163.1 66.8 163.1 66.8 163.1 Z M 60.6 164.1 C 60.0 163.3 62.4 164.7 60.6 164.2 C 60.5 164.2 60.8 164.2 60.6 164.1 M 54.8 164.4 C 54.7 164.3 54.7 164.3 54.8 164.4 M 40.7 158.0 C 40.6 157.9 40.6 157.9 40.7 158.0 M 40.7 164.5 C 40.5 164.4 40.5 164.4 40.7 164.5 M 48.7 163.6 C 46.9 163.7 48.2 163.2 48.7 163.6 M 35.9 164.0 C 38.2 164.6 33.5 164.5 35.9 164.0 M 33.7 164.5 C 33.5 164.5 33.5 164.5 33.7 164.5 M 43.9 164.2 C 44.0 164.2 44.0 164.2 43.9 164.2 C 43.9 164.2 43.9 164.2 43.9 164.2 Z M 49.6 163.9 C 52.0 164.4 47.3 164.7 49.6 163.9 M 64.0 164.2 C 62.8 164.6 63.7 163.2 64.0 164.2 M 66.5 163.8 C 66.5 163.7 66.5 163.7 66.5 163.8 C 66.5 163.8 66.5 163.8 66.5 163.8 Z M 39.5 164.1 C 39.6 164.1 39.6 164.1 39.5 164.1 C 39.5 164.1 39.5 164.1 39.5 164.1 Z M 36.9 164.2 C 37.0 164.2 37.0 164.2 36.9 164.2 C 36.9 164.2 36.9 164.2 36.9 164.2 Z M 31.9 158.2 C 31.9 158.1 31.9 158.1 31.9 158.2 C 31.9 158.2 31.9 158.2 31.9 158.2 Z M 63.7 161.2 C 65.6 161.7 62.6 163.2 62.5 161.7 C 62.1 161.1 63.6 161.4 63.7 161.2 M 50.9 162.1 C 50.0 160.0 53.2 164.9 50.9 162.1 M 33.2 163.2 C 31.2 160.7 35.7 164.9 33.2 163.2 M 29.7 163.6 C 28.6 163.1 36.3 163.3 31.0 164.0 C 30.5 164.4 30.1 163.9 29.7 163.6 M 54.5 163.4 C 53.7 162.3 57.4 163.9 54.5 163.4 M 43.0 160.0 C 42.3 160.7 40.2 161.4 41.0 160.1 C 40.7 158.5 43.9 159.4 43.0 160.0 M 70.1 163.1 C 69.3 164.9 69.6 161.5 70.1 163.1 M 63.2 162.9 C 63.2 163.0 63.2 163.0 63.2 162.9 C 63.2 162.9 63.2 162.9 63.2 162.9 Z M 60.6 163.2 C 60.5 163.1 60.5 163.1 60.6 163.2 M 69.6 164.7 C 69.4 164.6 69.4 164.6 69.6 164.7 M 43.4 161.9 C 43.3 161.8 43.3 161.8 43.4 161.9 M 49.1 163.1 C 46.2 161.3 50.5 162.8 49.1 163.1 M 54.7 159.6 C 53.7 158.8 56.3 159.6 54.7 159.6 M 45.0 163.8 C 42.8 162.1 47.2 162.2 45.0 163.8 M 50.5 163.3 C 50.4 163.3 50.4 163.3 50.5 163.3 C 50.5 163.3 50.5 163.3 50.5 163.3 Z M 42.3 159.8 C 42.4 159.8 42.4 159.8 42.3 159.8 C 42.3 159.8 42.3 159.8 42.3 159.8 Z M 41.5 159.9 C 41.6 159.9 41.6 159.9 41.5 159.9 C 41.5 159.9 41.5 159.9 41.5 159.9 Z M 42.7 164.0 C 42.8 164.0 42.8 164.0 42.7 164.0 C 42.7 164.0 42.7 164.0 42.7 164.0 Z M 65.2 159.0 C 63.3 158.9 66.5 158.7 65.2 159.0 C 65.2 159.0 65.2 159.0 65.2 159.0 Z M 58.5 164.1 C 55.0 162.7 60.3 162.8 58.5 164.1 C 58.5 164.1 58.5 164.1 58.5 164.1 Z M 54.4 161.9 C 54.4 161.8 54.4 161.8 54.4 161.9 C 54.4 161.9 54.4 161.9 54.4 161.9 Z M 46.4 164.9 C 46.3 164.8 46.3 164.8 46.4 164.9 C 46.4 164.9 46.4 164.9 46.4 164.9 Z M 64.2 158.8 C 64.1 158.7 64.1 158.7 64.2 158.8 C 64.2 158.8 64.2 158.8 64.2 158.8 Z M 37.2 163.1 C 37.2 163.0 37.2 163.0 37.2 163.1 C 37.2 163.1 37.2 163.1 37.2 163.1 Z M 47.2 159.6 C 46.7 160.2 47.0 159.0 47.2 159.6 C 47.2 159.6 47.2 159.6 47.2 159.6 Z M 44.5 159.5 C 44.4 159.5 44.4 159.5 44.5 159.5 C 44.5 159.5 44.5 159.5 44.5 159.5 Z M 33.0 164.7 C 32.9 164.7 32.9 164.7 33.0 164.7 C 33.0 164.7 33.0 164.7 33.0 164.7 Z M 37.3 157.9 C 37.2 157.9 37.2 157.9 37.3 157.9 C 37.3 157.9 37.3 157.9 37.3 157.9 Z M 35.3 159.9 C 35.3 159.9 35.3 159.9 35.3 159.9 C 35.3 159.9 35.3 159.9 35.3 159.9 Z M 43.1 163.6 C 40.4 163.9 43.6 162.8 43.1 163.6 C 43.1 163.6 43.1 163.6 43.1 163.6 Z M 28.6 160.5 C 28.5 160.4 28.5 160.4 28.6 160.5 C 28.6 160.5 28.6 160.5 28.6 160.5 Z M 27.4 162.8 C 27.3 162.7 27.3 162.7 27.4 162.8 C 27.4 162.8 27.4 162.8 27.4 162.8 Z M 26.8 164.1 C 26.7 164.0 26.7 164.0 26.8 164.1 C 26.8 164.1 26.8 164.1 26.8 164.1 Z M 60.0 160.7 C 60.0 160.8 60.0 160.8 60.0 160.7 C 60.0 160.7 60.0 160.7 60.0 160.7 Z M 62.2 164.5 C 62.2 164.6 62.2 164.6 62.2 164.5 C 62.2 164.5 62.2 164.5 62.2 164.5 Z M 58.4 164.7 C 58.4 164.7 58.4 164.7 58.4 164.7 C 58.4 164.7 58.4 164.7 58.4 164.7 Z M 60.0 158.4 C 60.0 158.4 60.0 158.4 60.0 158.4 C 60.0 158.4 60.0 158.4 60.0 158.4 Z M 46.9 161.6 C 47.0 161.7 47.0 161.7 46.9 161.6 C 46.9 161.6 46.9 161.6 46.9 161.6 Z M 45.3 160.1 C 45.3 160.2 45.3 160.2 45.3 160.1 C 45.3 160.1 45.3 160.1 45.3 160.1 Z M 48.0 158.0 C 48.1 158.0 48.1 158.0 48.0 158.0 C 48.0 158.0 48.0 158.0 48.0 158.0 Z M 44.0 158.7 C 44.0 158.8 44.0 158.8 44.0 158.7 C 44.0 158.7 44.0 158.7 44.0 158.7 Z M 69.4 159.1 C 69.4 159.0 69.4 159.0 69.4 159.1 C 69.4 159.1 69.4 159.1 69.4 159.1 Z M 70.7 162.0 C 70.7 161.9 70.7 161.9 70.7 162.0 C 70.7 162.0 70.7 162.0 70.7 162.0 Z M 46.9 163.8 C 46.4 164.4 45.4 162.9 46.9 163.8 M 52.2 163.4 C 52.2 163.3 52.2 163.3 52.2 163.4 C 52.2 163.4 52.2 163.4 52.2 163.4 Z M 37.8 163.6 C 36.9 162.5 40.4 164.2 37.8 163.6 C 37.8 163.6 37.8 163.6 37.8 163.6 Z M 39.8 158.7 C 39.8 158.7 39.8 158.7 39.8 158.7 C 39.8 158.7 39.8 158.7 39.8 158.7 Z M 38.5 159.2 C 38.4 159.1 38.4 159.1 38.5 159.2 C 38.5 159.2 38.5 159.2 38.5 159.2 Z M 31.3 162.4 C 31.1 162.3 31.1 162.3 31.3 162.4 M 53.1 164.4 C 52.2 163.9 52.4 164.0 53.1 164.4 M 35.9 163.6 C 36.0 163.6 36.0 163.6 35.9 163.6 C 35.9 163.6 35.9 163.6 35.9 163.6 Z M 29.6 163.1 C 29.7 163.0 29.7 163.0 29.6 163.1 C 29.6 163.1 29.6 163.1 29.6 163.1 Z M 56.8 163.6 C 56.3 162.2 57.1 162.6 56.8 163.6 M 67.4 163.2 C 67.4 163.1 67.4 163.1 67.4 163.2 C 67.4 163.2 67.4 163.2 67.4 163.2 Z M 67.4 163.2 " fill="#FEFFFF"></path></g></svg>