<?xml version="1.0" encoding="UTF-8" standalone="no"?><svg xmlns="http://www.w3.org/2000/svg" xmlns:xlink="http://www.w3.org/1999/xlink" clip-rule="evenodd" stroke-miterlimit="10" viewBox="0 0 400 45"><desc>SVG generated by Keynote</desc><defs></defs><g transform="matrix(1.00, 0.00, -0.00, -1.00, 0.0, 45.0)"><image xlink:href="384E7F2B30C34A6597E866F661BD07FB.png" width="397.00" height="41.00" transform="matrix(1.00, 0.00, -0.00, -1.00, 1.0, 44.0)"></image><text xml:space="preserve" font-family="Chalkduster,Chalkduster" font-size="28.9" fill="#FEFFFE" transform="matrix(1.00, 0.00, -0.00, -1.00, 3.9, 12.9)">R</text><text xml:space="preserve" font-family="Chalkduster,Chalkduster" font-size="28.9" fill="#FEFFFE" transform="matrix(1.00, 0.00, -0.00, -1.00, 26.3, 12.9)">u</text><text xml:space="preserve" font-family="Chalkduster,Chalkduster" font-size="28.9" fill="#FEFFFE" transform="matrix(1.00, 0.00, -0.00, -1.00, 46.2, 12.9)">b</text><text xml:space="preserve" font-family="Chalkduster,Chalkduster" font-size="28.9" fill="#FEFFFE" transform="matrix(1.00, 0.00, -0.00, -1.00, 62.9, 12.9)">é</text><text xml:space="preserve" font-family="Chalkduster,Chalkduster" font-size="28.9" fill="#FEFFFE" transform="matrix(1.00, 0.00, -0.00, -1.00, 82.1, 12.9)">n</text><text xml:space="preserve" font-family="Chalkduster,Chalkduster" font-size="28.9" fill="#FEFFFE" transform="matrix(1.00, 0.00, -0.00, -1.00, 103.3, 12.9)"> </text><text xml:space="preserve" font-family="Chalkduster,Chalkduster" font-size="28.9" fill="#FEFFFE" transform="matrix(1.00, 0.00, -0.00, -1.00, 117.7, 12.9)">B</text><text xml:space="preserve" font-family="Chalkduster,Chalkduster" font-size="28.9" fill="#FEFFFE" transform="matrix(1.00, 0.00, -0.00, -1.00, 137.0, 12.9)">e</text><text xml:space="preserve" font-family="Chalkduster,Chalkduster" font-size="28.9" fill="#FEFFFE" transform="matrix(1.00, 0.00, -0.00, -1.00, 154.6, 12.9)">r</text><text xml:space="preserve" font-family="Chalkduster,Chalkduster" font-size="28.9" fill="#FEFFFE" transform="matrix(1.00, 0.00, -0.00, -1.00, 170.7, 12.9)">r</text><text xml:space="preserve" font-family="Chalkduster,Chalkduster" font-size="28.9" fill="#FEFFFE" transform="matrix(1.00, 0.00, -0.00, -1.00, 185.5, 12.9)">o</text><text xml:space="preserve" font-family="Chalkduster,Chalkduster" font-size="28.9" fill="#FEFFFE" transform="matrix(1.00, 0.00, -0.00, -1.00, 206.7, 12.9)">c</text><text xml:space="preserve" font-family="Chalkduster,Chalkduster" font-size="28.9" fill="#FEFFFE" transform="matrix(1.00, 0.00, -0.00, -1.00, 223.7, 12.9)">a</text><text xml:space="preserve" font-family="Chalkduster,Chalkduster" font-size="28.9" fill="#FEFFFE" transform="matrix(1.00, 0.00, -0.00, -1.00, 242.4, 12.9)">l</text><text xml:space="preserve" font-family="Chalkduster,Chalkduster" font-size="28.9" fill="#FEFFFE" transform="matrix(1.00, 0.00, -0.00, -1.00, 256.0, 12.9)"> </text><text xml:space="preserve" font-family="Chalkduster,Chalkduster" font-size="28.9" fill="#FEFFFE" transform="matrix(1.00, 0.00, -0.00, -1.00, 270.3, 12.9)">C</text><text xml:space="preserve" font-family="Chalkduster,Chalkduster" font-size="28.9" fill="#FEFFFE" transform="matrix(1.00, 0.00, -0.00, -1.00, 294.6, 12.9)">h</text><text xml:space="preserve" font-family="Chalkduster,Chalkduster" font-size="28.9" fill="#FEFFFE" transform="matrix(1.00, 0.00, -0.00, -1.00, 312.5, 12.9)">a</text><text xml:space="preserve" font-family="Chalkduster,Chalkduster" font-size="28.9" fill="#FEFFFE" transform="matrix(1.00, 0.00, -0.00, -1.00, 331.5, 12.9)">c</text><text xml:space="preserve" font-family="Chalkduster,Chalkduster" font-size="28.9" fill="#FEFFFE" transform="matrix(1.00, 0.00, -0.00, -1.00, 349.6, 12.9)">ó</text><text xml:space="preserve" font-family="Chalkduster,Chalkduster" font-size="28.9" fill="#FEFFFE" transform="matrix(1.00, 0.00, -0.00, -1.00, 370.9, 12.9)">n</text></g></svg>