<?xml version="1.0" encoding="UTF-8" standalone="no"?><svg xmlns="http://www.w3.org/2000/svg" xmlns:xlink="http://www.w3.org/1999/xlink" clip-rule="evenodd" stroke-miterlimit="10" viewBox="0 0 1024 768"><desc>SVG generated by Keynote</desc><defs></defs><g transform="matrix(1.00, 0.00, -0.00, -1.00, 0.0, 768.0)"><g><clipPath id="clip0x608004ea25e0"><path d="M 0.0 768.0 L 1024.0 768.0 L 1024.0 0.0 L 0.0 0.0 Z M 0.0 768.0 "></path></clipPath><g clip-path="url(#clip0x608004ea25e0)"><image xlink:href="../../861502F5-C051-4CA8-9910-E538B1C8F451/assets/8365AF939D2CA89ED3E7C4A034161C43.jpeg" width="2048.00" height="1536.00" transform="matrix(0.50, 0.00, -0.00, -0.50, 0.0, 768.0)"></image></g></g><text xml:space="preserve" font-family="Chalkduster,Chalkduster" font-size="24.0" fill="#FEFFFE" transform="matrix(1.00, 0.00, -0.00, -1.00, 306.8, 43.1)">R</text><text xml:space="preserve" font-family="Chalkduster,Chalkduster" font-size="24.0" fill="#FEFFFE" transform="matrix(1.00, 0.00, -0.00, -1.00, 325.5, 43.1)">u</text><text xml:space="preserve" font-family="Chalkduster,Chalkduster" font-size="24.0" fill="#FEFFFE" transform="matrix(1.00, 0.00, -0.00, -1.00, 342.0, 43.1)">b</text><text xml:space="preserve" font-family="Chalkduster,Chalkduster" font-size="24.0" fill="#FEFFFE" transform="matrix(1.00, 0.00, -0.00, -1.00, 355.9, 43.1)">é</text><text xml:space="preserve" font-family="Chalkduster,Chalkduster" font-size="24.0" fill="#FEFFFE" transform="matrix(1.00, 0.00, -0.00, -1.00, 371.9, 43.1)">n</text><text xml:space="preserve" font-family="Chalkduster,Chalkduster" font-size="24.0" fill="#FEFFFE" transform="matrix(1.00, 0.00, -0.00, -1.00, 389.5, 43.1)"> </text><text xml:space="preserve" font-family="Chalkduster,Chalkduster" font-size="24.0" fill="#FEFFFE" transform="matrix(1.00, 0.00, -0.00, -1.00, 401.4, 43.1)">D</text><text xml:space="preserve" font-family="Chalkduster,Chalkduster" font-size="24.0" fill="#FEFFFE" transform="matrix(1.00, 0.00, -0.00, -1.00, 418.2, 43.1)">a</text><text xml:space="preserve" font-family="Chalkduster,Chalkduster" font-size="24.0" fill="#FEFFFE" transform="matrix(1.00, 0.00, -0.00, -1.00, 433.0, 43.1)">v</text><text xml:space="preserve" font-family="Chalkduster,Chalkduster" font-size="24.0" fill="#FEFFFE" transform="matrix(1.00, 0.00, -0.00, -1.00, 448.0, 43.1)">i</text><text xml:space="preserve" font-family="Chalkduster,Chalkduster" font-size="24.0" fill="#FEFFFE" transform="matrix(1.00, 0.00, -0.00, -1.00, 458.3, 43.1)">d</text><text xml:space="preserve" font-family="Chalkduster,Chalkduster" font-size="24.0" fill="#FEFFFE" transform="matrix(1.00, 0.00, -0.00, -1.00, 477.0, 43.1)"> </text><text xml:space="preserve" font-family="Chalkduster,Chalkduster" font-size="24.0" fill="#FEFFFE" transform="matrix(1.00, 0.00, -0.00, -1.00, 489.0, 43.1)">B</text><text xml:space="preserve" font-family="Chalkduster,Chalkduster" font-size="24.0" fill="#FEFFFE" transform="matrix(1.00, 0.00, -0.00, -1.00, 505.0, 43.1)">e</text><text xml:space="preserve" font-family="Chalkduster,Chalkduster" font-size="24.0" fill="#FEFFFE" transform="matrix(1.00, 0.00, -0.00, -1.00, 519.7, 43.1)">r</text><text xml:space="preserve" font-family="Chalkduster,Chalkduster" font-size="24.0" fill="#FEFFFE" transform="matrix(1.00, 0.00, -0.00, -1.00, 533.0, 43.1)">r</text><text xml:space="preserve" font-family="Chalkduster,Chalkduster" font-size="24.0" fill="#FEFFFE" transform="matrix(1.00, 0.00, -0.00, -1.00, 545.4, 43.1)">o</text><text xml:space="preserve" font-family="Chalkduster,Chalkduster" font-size="24.0" fill="#FEFFFE" transform="matrix(1.00, 0.00, -0.00, -1.00, 563.0, 43.1)">c</text><text xml:space="preserve" font-family="Chalkduster,Chalkduster" font-size="24.0" fill="#FEFFFE" transform="matrix(1.00, 0.00, -0.00, -1.00, 577.2, 43.1)">a</text><text xml:space="preserve" font-family="Chalkduster,Chalkduster" font-size="24.0" fill="#FEFFFE" transform="matrix(1.00, 0.00, -0.00, -1.00, 592.7, 43.1)">l</text><text xml:space="preserve" font-family="Chalkduster,Chalkduster" font-size="24.0" fill="#FEFFFE" transform="matrix(1.00, 0.00, -0.00, -1.00, 604.0, 43.1)"> </text><text xml:space="preserve" font-family="Chalkduster,Chalkduster" font-size="24.0" fill="#FEFFFE" transform="matrix(1.00, 0.00, -0.00, -1.00, 615.9, 43.1)">C</text><text xml:space="preserve" font-family="Chalkduster,Chalkduster" font-size="24.0" fill="#FEFFFE" transform="matrix(1.00, 0.00, -0.00, -1.00, 636.1, 43.1)">h</text><text xml:space="preserve" font-family="Chalkduster,Chalkduster" font-size="24.0" fill="#FEFFFE" transform="matrix(1.00, 0.00, -0.00, -1.00, 651.0, 43.1)">a</text><text xml:space="preserve" font-family="Chalkduster,Chalkduster" font-size="24.0" fill="#FEFFFE" transform="matrix(1.00, 0.00, -0.00, -1.00, 666.8, 43.1)">c</text><text xml:space="preserve" font-family="Chalkduster,Chalkduster" font-size="24.0" fill="#FEFFFE" transform="matrix(1.00, 0.00, -0.00, -1.00, 681.9, 43.1)">ó</text><text xml:space="preserve" font-family="Chalkduster,Chalkduster" font-size="24.0" fill="#FEFFFE" transform="matrix(1.00, 0.00, -0.00, -1.00, 699.6, 43.1)">n</text><text xml:space="preserve" font-family="Chalkduster,Chalkduster" font-size="65.0" fill="#FEFFFE" transform="matrix(1.00, 0.00, -0.00, -1.00, 232.0, 321.1)">M</text><text xml:space="preserve" font-family="Chalkduster,Chalkduster" font-size="65.0" fill="#FEFFFE" transform="matrix(1.00, 0.00, -0.00, -1.00, 286.6, 321.1)">u</text><text xml:space="preserve" font-family="Chalkduster,Chalkduster" font-size="65.0" fill="#FEFFFE" transform="matrix(1.00, 0.00, -0.00, -1.00, 331.3, 321.1)">c</text><text xml:space="preserve" font-family="Chalkduster,Chalkduster" font-size="65.0" fill="#FEFFFE" transform="matrix(1.00, 0.00, -0.00, -1.00, 372.3, 321.1)">h</text><text xml:space="preserve" font-family="Chalkduster,Chalkduster" font-size="65.0" fill="#FEFFFE" transform="matrix(1.00, 0.00, -0.00, -1.00, 412.4, 321.1)">a</text><text xml:space="preserve" font-family="Chalkduster,Chalkduster" font-size="65.0" fill="#FEFFFE" transform="matrix(1.00, 0.00, -0.00, -1.00, 458.0, 321.1)">s</text><text xml:space="preserve" font-family="Chalkduster,Chalkduster" font-size="65.0" fill="#FEFFFE" transform="matrix(1.00, 0.00, -0.00, -1.00, 490.8, 321.1)"> </text><text xml:space="preserve" font-family="Chalkduster,Chalkduster" font-size="65.0" fill="#FEFFFE" transform="matrix(1.00, 0.00, -0.00, -1.00, 523.1, 321.1)">g</text><text xml:space="preserve" font-family="Chalkduster,Chalkduster" font-size="65.0" fill="#FEFFFE" transform="matrix(1.00, 0.00, -0.00, -1.00, 569.3, 321.1)">r</text><text xml:space="preserve" font-family="Chalkduster,Chalkduster" font-size="65.0" fill="#FEFFFE" transform="matrix(1.00, 0.00, -0.00, -1.00, 603.6, 321.1)">a</text><text xml:space="preserve" font-family="Chalkduster,Chalkduster" font-size="65.0" fill="#FEFFFE" transform="matrix(1.00, 0.00, -0.00, -1.00, 646.3, 321.1)">c</text><text xml:space="preserve" font-family="Chalkduster,Chalkduster" font-size="65.0" fill="#FEFFFE" transform="matrix(1.00, 0.00, -0.00, -1.00, 687.2, 321.1)">i</text><text xml:space="preserve" font-family="Chalkduster,Chalkduster" font-size="65.0" fill="#FEFFFE" transform="matrix(1.00, 0.00, -0.00, -1.00, 713.5, 321.1)">a</text><text xml:space="preserve" font-family="Chalkduster,Chalkduster" font-size="65.0" fill="#FEFFFE" transform="matrix(1.00, 0.00, -0.00, -1.00, 759.1, 321.1)">s</text><text xml:space="preserve" font-family="Chalkduster,Chalkduster" font-size="65.0" fill="#FEFFFE" transform="matrix(1.00, 0.00, -0.00, -1.00, 791.9, 321.1)"> </text><text xml:space="preserve" font-family="Chalkduster,Chalkduster" font-size="65.0" fill="#FEFFFE" transform="matrix(1.00, 0.00, -0.00, -1.00, 824.2, 321.1)"> </text><text xml:space="preserve" font-family="Chalkduster,Chalkduster" font-size="65.0" fill="#FEFFFE" transform="matrix(1.00, 0.00, -0.00, -1.00, 196.5, 214.1)">p</text><text xml:space="preserve" font-family="Chalkduster,Chalkduster" font-size="65.0" fill="#FEFFFE" transform="matrix(1.00, 0.00, -0.00, -1.00, 237.4, 214.1)">o</text><text xml:space="preserve" font-family="Chalkduster,Chalkduster" font-size="65.0" fill="#FEFFFE" transform="matrix(1.00, 0.00, -0.00, -1.00, 284.8, 214.1)">r</text><text xml:space="preserve" font-family="Chalkduster,Chalkduster" font-size="65.0" fill="#FEFFFE" transform="matrix(1.00, 0.00, -0.00, -1.00, 319.0, 214.1)"> </text><text xml:space="preserve" font-family="Chalkduster,Chalkduster" font-size="65.0" fill="#FEFFFE" transform="matrix(1.00, 0.00, -0.00, -1.00, 351.4, 214.1)">s</text><text xml:space="preserve" font-family="Chalkduster,Chalkduster" font-size="65.0" fill="#FEFFFE" transform="matrix(1.00, 0.00, -0.00, -1.00, 384.2, 214.1)">u</text><text xml:space="preserve" font-family="Chalkduster,Chalkduster" font-size="65.0" fill="#FEFFFE" transform="matrix(1.00, 0.00, -0.00, -1.00, 428.9, 214.1)"> </text><text xml:space="preserve" font-family="Chalkduster,Chalkduster" font-size="65.0" fill="#FEFFFE" transform="matrix(1.00, 0.00, -0.00, -1.00, 461.2, 214.1)">a</text><text xml:space="preserve" font-family="Chalkduster,Chalkduster" font-size="65.0" fill="#FEFFFE" transform="matrix(1.00, 0.00, -0.00, -1.00, 501.6, 214.1)">t</text><text xml:space="preserve" font-family="Chalkduster,Chalkduster" font-size="65.0" fill="#FEFFFE" transform="matrix(1.00, 0.00, -0.00, -1.00, 530.6, 214.1)">e</text><text xml:space="preserve" font-family="Chalkduster,Chalkduster" font-size="65.0" fill="#FEFFFE" transform="matrix(1.00, 0.00, -0.00, -1.00, 571.6, 214.1)">n</text><text xml:space="preserve" font-family="Chalkduster,Chalkduster" font-size="65.0" fill="#FEFFFE" transform="matrix(1.00, 0.00, -0.00, -1.00, 619.3, 214.1)">c</text><text xml:space="preserve" font-family="Chalkduster,Chalkduster" font-size="65.0" fill="#FEFFFE" transform="matrix(1.00, 0.00, -0.00, -1.00, 660.1, 214.1)">i</text><text xml:space="preserve" font-family="Chalkduster,Chalkduster" font-size="65.0" fill="#FEFFFE" transform="matrix(1.00, 0.00, -0.00, -1.00, 685.8, 214.1)">ó</text><text xml:space="preserve" font-family="Chalkduster,Chalkduster" font-size="65.0" fill="#FEFFFE" transform="matrix(1.00, 0.00, -0.00, -1.00, 733.9, 214.1)">n</text><text xml:space="preserve" font-family="Chalkduster,Chalkduster" font-size="65.0" fill="#FEFFFE" transform="matrix(1.00, 0.00, -0.00, -1.00, 781.5, 214.1)">!</text><text xml:space="preserve" font-family="Chalkduster,Chalkduster" font-size="65.0" fill="#FEFFFE" transform="matrix(1.00, 0.00, -0.00, -1.00, 804.5, 214.1)">!</text><g><clipPath id="clip0x600004ea28e0"><path d="M 62.5 503.5 L 346.9 503.5 L 346.9 728.5 L 62.5 728.5 Z M 62.5 503.5 "></path></clipPath><g clip-path="url(#clip0x600004ea28e0)"><path d="M 62.5 728.5 L 346.9 728.5 L 346.9 503.5 L 62.5 503.5 Z M 62.5 728.5 " fill="#FEFFFF" fill-opacity="0.00"></path><image xlink:href="../../271DE5F9-1FB9-48C2-834F-396923CB047B/assets/2939291A81E126A2566B0A74FBBA3A9D.png" width="249.00" height="63.00" transform="matrix(1.14, 0.00, -0.00, -1.14, 62.5, 582.3)"></image><image xlink:href="../../271DE5F9-1FB9-48C2-834F-396923CB047B/assets/97977A4533263912C8792899F3DE9E73.png" width="177.00" height="197.00" transform="matrix(1.14, 0.00, -0.00, -1.14, 136.7, 728.5)"></image></g></g><g><clipPath id="clip0x6080042adf20"><path d="M 158.4 707.2 L 317.6 707.2 L 317.6 525.1 L 158.4 525.1 Z M 158.4 707.2 "></path></clipPath><g clip-path="url(#clip0x6080042adf20)"><g><clipPath id="clip0x6080044ae580"><path d="M 158.4 525.1 L 317.6 525.1 L 317.6 707.2 L 158.4 707.2 Z M 158.4 525.1 "></path></clipPath><g clip-path="url(#clip0x6080044ae580)"><image xlink:href="../../861502F5-C051-4CA8-9910-E538B1C8F451/assets/4266F6737E0B67CD843C2EEC6A122EB5.png" width="1180.00" height="1350.00" transform="matrix(0.13, 0.00, -0.00, -0.13, 158.4, 707.2)"></image></g></g></g></g><g><clipPath id="clip0x600004ea2a00"><path d="M 612.5 485.5 L 991.0 485.5 L 991.0 690.5 L 612.5 690.5 Z M 612.5 485.5 "></path></clipPath><g clip-path="url(#clip0x600004ea2a00)"><path d="M 612.5 690.5 L 991.0 690.5 L 991.0 485.5 L 612.5 485.5 Z M 612.5 690.5 " fill="#FEFFFF" fill-opacity="0.00"></path><image xlink:href="../../271DE5F9-1FB9-48C2-834F-396923CB047B/assets/FB810EA800BA1F0294E6D3ADF3C71396.png" width="333.00" height="190.00" transform="matrix(1.21, 0.00, -0.00, -1.21, 600.4, 703.8)"></image></g></g></g></svg>