<?xml version="1.0" encoding="UTF-8" standalone="no"?><svg xmlns="http://www.w3.org/2000/svg" xmlns:xlink="http://www.w3.org/1999/xlink" clip-rule="evenodd" stroke-miterlimit="10" viewBox="0 0 303 23"><desc>SVG generated by Keynote</desc><defs></defs><g transform="matrix(1.00, 0.00, -0.00, -1.00, 0.0, 23.0)"><image xlink:href="../../861502F5-C051-4CA8-9910-E538B1C8F451/assets/7083CCEA4E60CFD10D99D1145F80E361.png" width="78.00" height="72.00" transform="matrix(0.12, 0.00, -0.00, -0.12, 0.0, 13.0)"></image><text xml:space="preserve" font-family="Chalkduster,Chalkduster" font-size="15.7" fill="#FEFFFE" transform="matrix(1.00, 0.00, -0.00, -1.00, 18.6, 6.2)">L</text><text xml:space="preserve" font-family="Chalkduster,Chalkduster" font-size="15.7" fill="#FEFFFE" transform="matrix(1.00, 0.00, -0.00, -1.00, 28.1, 6.2)">a</text><text xml:space="preserve" font-family="Chalkduster,Chalkduster" font-size="15.7" fill="#FEFFFE" transform="matrix(1.00, 0.00, -0.00, -1.00, 38.9, 6.2)"> </text><text xml:space="preserve" font-family="Chalkduster,Chalkduster" font-size="15.7" fill="#FEFFFE" transform="matrix(1.00, 0.00, -0.00, -1.00, 46.7, 6.2)">f</text><text xml:space="preserve" font-family="Chalkduster,Chalkduster" font-size="15.7" fill="#FEFFFE" transform="matrix(1.00, 0.00, -0.00, -1.00, 55.0, 6.2)">l</text><text xml:space="preserve" font-family="Chalkduster,Chalkduster" font-size="15.7" fill="#FEFFFE" transform="matrix(1.00, 0.00, -0.00, -1.00, 61.5, 6.2)">e</text><text xml:space="preserve" font-family="Chalkduster,Chalkduster" font-size="15.7" fill="#FEFFFE" transform="matrix(1.00, 0.00, -0.00, -1.00, 70.8, 6.2)">x</text><text xml:space="preserve" font-family="Chalkduster,Chalkduster" font-size="15.7" fill="#FEFFFE" transform="matrix(1.00, 0.00, -0.00, -1.00, 80.5, 6.2)">i</text><text xml:space="preserve" font-family="Chalkduster,Chalkduster" font-size="15.7" fill="#FEFFFE" transform="matrix(1.00, 0.00, -0.00, -1.00, 86.7, 6.2)">b</text><text xml:space="preserve" font-family="Chalkduster,Chalkduster" font-size="15.7" fill="#FEFFFE" transform="matrix(1.00, 0.00, -0.00, -1.00, 95.8, 6.2)">i</text><text xml:space="preserve" font-family="Chalkduster,Chalkduster" font-size="15.7" fill="#FEFFFE" transform="matrix(1.00, 0.00, -0.00, -1.00, 102.2, 6.2)">l</text><text xml:space="preserve" font-family="Chalkduster,Chalkduster" font-size="15.7" fill="#FEFFFE" transform="matrix(1.00, 0.00, -0.00, -1.00, 109.7, 6.2)">i</text><text xml:space="preserve" font-family="Chalkduster,Chalkduster" font-size="15.7" fill="#FEFFFE" transform="matrix(1.00, 0.00, -0.00, -1.00, 116.5, 6.2)">d</text><text xml:space="preserve" font-family="Chalkduster,Chalkduster" font-size="15.7" fill="#FEFFFE" transform="matrix(1.00, 0.00, -0.00, -1.00, 128.7, 6.2)">a</text><text xml:space="preserve" font-family="Chalkduster,Chalkduster" font-size="15.7" fill="#FEFFFE" transform="matrix(1.00, 0.00, -0.00, -1.00, 139.0, 6.2)">d</text><text xml:space="preserve" font-family="Chalkduster,Chalkduster" font-size="15.7" fill="#FEFFFE" transform="matrix(1.00, 0.00, -0.00, -1.00, 151.3, 6.2)"> </text><text xml:space="preserve" font-family="Chalkduster,Chalkduster" font-size="15.7" fill="#FEFFFE" transform="matrix(1.00, 0.00, -0.00, -1.00, 159.1, 6.2)">e</text><text xml:space="preserve" font-family="Chalkduster,Chalkduster" font-size="15.7" fill="#FEFFFE" transform="matrix(1.00, 0.00, -0.00, -1.00, 169.0, 6.2)">n</text><text xml:space="preserve" font-family="Chalkduster,Chalkduster" font-size="15.7" fill="#FEFFFE" transform="matrix(1.00, 0.00, -0.00, -1.00, 180.5, 6.2)"> </text><text xml:space="preserve" font-family="Chalkduster,Chalkduster" font-size="15.7" fill="#FEFFFE" transform="matrix(1.00, 0.00, -0.00, -1.00, 188.3, 6.2)">l</text><text xml:space="preserve" font-family="Chalkduster,Chalkduster" font-size="15.7" fill="#FEFFFE" transform="matrix(1.00, 0.00, -0.00, -1.00, 195.0, 6.2)">o</text><text xml:space="preserve" font-family="Chalkduster,Chalkduster" font-size="15.7" fill="#FEFFFE" transform="matrix(1.00, 0.00, -0.00, -1.00, 206.4, 6.2)">s</text><text xml:space="preserve" font-family="Chalkduster,Chalkduster" font-size="15.7" fill="#FEFFFE" transform="matrix(1.00, 0.00, -0.00, -1.00, 214.4, 6.2)"> </text><text xml:space="preserve" font-family="Chalkduster,Chalkduster" font-size="15.7" fill="#FEFFFE" transform="matrix(1.00, 0.00, -0.00, -1.00, 222.2, 6.2)">e</text><text xml:space="preserve" font-family="Chalkduster,Chalkduster" font-size="15.7" fill="#FEFFFE" transform="matrix(1.00, 0.00, -0.00, -1.00, 232.2, 6.2)">s</text><text xml:space="preserve" font-family="Chalkduster,Chalkduster" font-size="15.7" fill="#FEFFFE" transform="matrix(1.00, 0.00, -0.00, -1.00, 240.6, 6.2)">t</text><text xml:space="preserve" font-family="Chalkduster,Chalkduster" font-size="15.7" fill="#FEFFFE" transform="matrix(1.00, 0.00, -0.00, -1.00, 247.8, 6.2)">u</text><text xml:space="preserve" font-family="Chalkduster,Chalkduster" font-size="15.7" fill="#FEFFFE" transform="matrix(1.00, 0.00, -0.00, -1.00, 259.4, 6.2)">d</text><text xml:space="preserve" font-family="Chalkduster,Chalkduster" font-size="15.7" fill="#FEFFFE" transform="matrix(1.00, 0.00, -0.00, -1.00, 272.3, 6.2)">i</text><text xml:space="preserve" font-family="Chalkduster,Chalkduster" font-size="15.7" fill="#FEFFFE" transform="matrix(1.00, 0.00, -0.00, -1.00, 278.5, 6.2)">o</text><text xml:space="preserve" font-family="Chalkduster,Chalkduster" font-size="15.7" fill="#FEFFFE" transform="matrix(1.00, 0.00, -0.00, -1.00, 289.9, 6.2)">s</text><text xml:space="preserve" font-family="Chalkduster,Chalkduster" font-size="15.7" fill="#FEFFFE" transform="matrix(1.00, 0.00, -0.00, -1.00, 297.5, 6.2)">.</text></g></svg>