<?xml version="1.0" encoding="UTF-8" standalone="no"?><svg xmlns="http://www.w3.org/2000/svg" xmlns:xlink="http://www.w3.org/1999/xlink" clip-rule="evenodd" stroke-miterlimit="10" viewBox="0 0 409 48"><desc>SVG generated by Keynote</desc><defs></defs><g transform="matrix(1.00, 0.00, -0.00, -1.00, 0.0, 48.0)"><image xlink:href="../../861502F5-C051-4CA8-9910-E538B1C8F451/assets/7083CCEA4E60CFD10D99D1145F80E361.png" width="78.00" height="72.00" transform="matrix(0.12, 0.00, -0.00, -0.12, 0.0, 39.4)"></image><text xml:space="preserve" font-family="Chalkduster,Chalkduster" font-size="15.7" fill="#FEFFFE" transform="matrix(1.00, 0.00, -0.00, -1.00, 18.6, 32.6)">I</text><text xml:space="preserve" font-family="Chalkduster,Chalkduster" font-size="15.7" fill="#FEFFFE" transform="matrix(1.00, 0.00, -0.00, -1.00, 28.3, 32.6)">n</text><text xml:space="preserve" font-family="Chalkduster,Chalkduster" font-size="15.7" fill="#FEFFFE" transform="matrix(1.00, 0.00, -0.00, -1.00, 39.6, 32.6)">t</text><text xml:space="preserve" font-family="Chalkduster,Chalkduster" font-size="15.7" fill="#FEFFFE" transform="matrix(1.00, 0.00, -0.00, -1.00, 46.9, 32.6)">e</text><text xml:space="preserve" font-family="Chalkduster,Chalkduster" font-size="15.7" fill="#FEFFFE" transform="matrix(1.00, 0.00, -0.00, -1.00, 56.8, 32.6)">r</text><text xml:space="preserve" font-family="Chalkduster,Chalkduster" font-size="15.7" fill="#FEFFFE" transform="matrix(1.00, 0.00, -0.00, -1.00, 65.5, 32.6)">a</text><text xml:space="preserve" font-family="Chalkduster,Chalkduster" font-size="15.7" fill="#FEFFFE" transform="matrix(1.00, 0.00, -0.00, -1.00, 76.1, 32.6)">c</text><text xml:space="preserve" font-family="Chalkduster,Chalkduster" font-size="15.7" fill="#FEFFFE" transform="matrix(1.00, 0.00, -0.00, -1.00, 85.7, 32.6)">c</text><text xml:space="preserve" font-family="Chalkduster,Chalkduster" font-size="15.7" fill="#FEFFFE" transform="matrix(1.00, 0.00, -0.00, -1.00, 95.9, 32.6)">i</text><text xml:space="preserve" font-family="Chalkduster,Chalkduster" font-size="15.7" fill="#FEFFFE" transform="matrix(1.00, 0.00, -0.00, -1.00, 102.4, 32.6)">o</text><text xml:space="preserve" font-family="Chalkduster,Chalkduster" font-size="15.7" fill="#FEFFFE" transform="matrix(1.00, 0.00, -0.00, -1.00, 114.4, 32.6)">n</text><text xml:space="preserve" font-family="Chalkduster,Chalkduster" font-size="15.7" fill="#FEFFFE" transform="matrix(1.00, 0.00, -0.00, -1.00, 126.3, 32.6)">a</text><text xml:space="preserve" font-family="Chalkduster,Chalkduster" font-size="15.7" fill="#FEFFFE" transform="matrix(1.00, 0.00, -0.00, -1.00, 136.6, 32.6)">r</text><text xml:space="preserve" font-family="Chalkduster,Chalkduster" font-size="15.7" fill="#FEFFFE" transform="matrix(1.00, 0.00, -0.00, -1.00, 144.9, 32.6)"> </text><text xml:space="preserve" font-family="Chalkduster,Chalkduster" font-size="15.7" fill="#FEFFFE" transform="matrix(1.00, 0.00, -0.00, -1.00, 160.7, 32.6)">c</text><text xml:space="preserve" font-family="Chalkduster,Chalkduster" font-size="15.7" fill="#FEFFFE" transform="matrix(1.00, 0.00, -0.00, -1.00, 170.5, 32.6)">o</text><text xml:space="preserve" font-family="Chalkduster,Chalkduster" font-size="15.7" fill="#FEFFFE" transform="matrix(1.00, 0.00, -0.00, -1.00, 182.5, 32.6)">n</text><text xml:space="preserve" font-family="Chalkduster,Chalkduster" font-size="15.7" fill="#FEFFFE" transform="matrix(1.00, 0.00, -0.00, -1.00, 194.0, 32.6)"> </text><text xml:space="preserve" font-family="Chalkduster,Chalkduster" font-size="15.7" fill="#FEFFFE" transform="matrix(1.00, 0.00, -0.00, -1.00, 209.8, 32.6)">o</text><text xml:space="preserve" font-family="Chalkduster,Chalkduster" font-size="15.7" fill="#FEFFFE" transform="matrix(1.00, 0.00, -0.00, -1.00, 220.8, 32.6)">t</text><text xml:space="preserve" font-family="Chalkduster,Chalkduster" font-size="15.7" fill="#FEFFFE" transform="matrix(1.00, 0.00, -0.00, -1.00, 228.4, 32.6)">r</text><text xml:space="preserve" font-family="Chalkduster,Chalkduster" font-size="15.7" fill="#FEFFFE" transform="matrix(1.00, 0.00, -0.00, -1.00, 236.7, 32.6)">o</text><text xml:space="preserve" font-family="Chalkduster,Chalkduster" font-size="15.7" fill="#FEFFFE" transform="matrix(1.00, 0.00, -0.00, -1.00, 248.5, 32.6)">s</text><text xml:space="preserve" font-family="Chalkduster,Chalkduster" font-size="15.7" fill="#FEFFFE" transform="matrix(1.00, 0.00, -0.00, -1.00, 256.4, 32.6)"> </text><text xml:space="preserve" font-family="Chalkduster,Chalkduster" font-size="15.7" fill="#FEFFFE" transform="matrix(1.00, 0.00, -0.00, -1.00, 272.3, 32.6)">c</text><text xml:space="preserve" font-family="Chalkduster,Chalkduster" font-size="15.7" fill="#FEFFFE" transform="matrix(1.00, 0.00, -0.00, -1.00, 282.0, 32.6)">o</text><text xml:space="preserve" font-family="Chalkduster,Chalkduster" font-size="15.7" fill="#FEFFFE" transform="matrix(1.00, 0.00, -0.00, -1.00, 294.1, 32.6)">m</text><text xml:space="preserve" font-family="Chalkduster,Chalkduster" font-size="15.7" fill="#FEFFFE" transform="matrix(1.00, 0.00, -0.00, -1.00, 310.3, 32.6)">p</text><text xml:space="preserve" font-family="Chalkduster,Chalkduster" font-size="15.7" fill="#FEFFFE" transform="matrix(1.00, 0.00, -0.00, -1.00, 320.3, 32.6)">a</text><text xml:space="preserve" font-family="Chalkduster,Chalkduster" font-size="15.7" fill="#FEFFFE" transform="matrix(1.00, 0.00, -0.00, -1.00, 331.5, 32.6)">ñ</text><text xml:space="preserve" font-family="Chalkduster,Chalkduster" font-size="15.7" fill="#FEFFFE" transform="matrix(1.00, 0.00, -0.00, -1.00, 343.6, 32.6)">e</text><text xml:space="preserve" font-family="Chalkduster,Chalkduster" font-size="15.7" fill="#FEFFFE" transform="matrix(1.00, 0.00, -0.00, -1.00, 353.5, 32.6)">r</text><text xml:space="preserve" font-family="Chalkduster,Chalkduster" font-size="15.7" fill="#FEFFFE" transform="matrix(1.00, 0.00, -0.00, -1.00, 361.9, 32.6)">o</text><text xml:space="preserve" font-family="Chalkduster,Chalkduster" font-size="15.7" fill="#FEFFFE" transform="matrix(1.00, 0.00, -0.00, -1.00, 373.7, 32.6)">s</text><text xml:space="preserve" font-family="Chalkduster,Chalkduster" font-size="15.7" fill="#FEFFFE" transform="matrix(1.00, 0.00, -0.00, -1.00, 381.6, 32.6)"> </text><text xml:space="preserve" font-family="Chalkduster,Chalkduster" font-size="15.7" fill="#FEFFFE" transform="matrix(1.00, 0.00, -0.00, -1.00, 397.5, 32.6)">y</text><text xml:space="preserve" font-family="Chalkduster,Chalkduster" font-size="15.7" fill="#FEFFFE" transform="matrix(1.00, 0.00, -0.00, -1.00, 407.0, 32.6)"> </text><text xml:space="preserve" font-family="Chalkduster,Chalkduster" font-size="15.7" fill="#FEFFFE" transform="matrix(1.00, 0.00, -0.00, -1.00, 18.6, 9.6)">p</text><text xml:space="preserve" font-family="Chalkduster,Chalkduster" font-size="15.7" fill="#FEFFFE" transform="matrix(1.00, 0.00, -0.00, -1.00, 28.3, 9.6)">r</text><text xml:space="preserve" font-family="Chalkduster,Chalkduster" font-size="15.7" fill="#FEFFFE" transform="matrix(1.00, 0.00, -0.00, -1.00, 36.3, 9.6)">o</text><text xml:space="preserve" font-family="Chalkduster,Chalkduster" font-size="15.7" fill="#FEFFFE" transform="matrix(1.00, 0.00, -0.00, -1.00, 47.6, 9.6)">f</text><text xml:space="preserve" font-family="Chalkduster,Chalkduster" font-size="15.7" fill="#FEFFFE" transform="matrix(1.00, 0.00, -0.00, -1.00, 56.1, 9.6)">e</text><text xml:space="preserve" font-family="Chalkduster,Chalkduster" font-size="15.7" fill="#FEFFFE" transform="matrix(1.00, 0.00, -0.00, -1.00, 66.2, 9.6)">s</text><text xml:space="preserve" font-family="Chalkduster,Chalkduster" font-size="15.7" fill="#FEFFFE" transform="matrix(1.00, 0.00, -0.00, -1.00, 74.1, 9.6)">o</text><text xml:space="preserve" font-family="Chalkduster,Chalkduster" font-size="15.7" fill="#FEFFFE" transform="matrix(1.00, 0.00, -0.00, -1.00, 85.5, 9.6)">r</text><text xml:space="preserve" font-family="Chalkduster,Chalkduster" font-size="15.7" fill="#FEFFFE" transform="matrix(1.00, 0.00, -0.00, -1.00, 93.5, 9.6)">e</text><text xml:space="preserve" font-family="Chalkduster,Chalkduster" font-size="15.7" fill="#FEFFFE" transform="matrix(1.00, 0.00, -0.00, -1.00, 103.5, 9.6)">s</text><text xml:space="preserve" font-family="Chalkduster,Chalkduster" font-size="15.7" fill="#FEFFFE" transform="matrix(1.00, 0.00, -0.00, -1.00, 111.1, 9.6)">.</text></g></svg>