<?xml version="1.0" encoding="UTF-8" standalone="no"?><svg xmlns="http://www.w3.org/2000/svg" xmlns:xlink="http://www.w3.org/1999/xlink" clip-rule="evenodd" stroke-miterlimit="10" viewBox="0 0 436 60"><desc>SVG generated by Keynote</desc><defs></defs><g transform="matrix(1.00, 0.00, -0.00, -1.00, 0.0, 60.0)"><text xml:space="preserve" font-family="Chalkduster,Chalkduster" font-size="33.1" fill="#FEFFFE" transform="matrix(1.00, 0.00, -0.00, -1.00, 0.9, 20.0)">h</text><text xml:space="preserve" font-family="Chalkduster,Chalkduster" font-size="33.1" fill="#FEFFFE" transform="matrix(1.00, 0.00, -0.00, -1.00, 19.9, 20.0)">t</text><text xml:space="preserve" font-family="Chalkduster,Chalkduster" font-size="33.1" fill="#FEFFFE" transform="matrix(1.00, 0.00, -0.00, -1.00, 33.7, 20.0)">t</text><text xml:space="preserve" font-family="Chalkduster,Chalkduster" font-size="33.1" fill="#FEFFFE" transform="matrix(1.00, 0.00, -0.00, -1.00, 48.8, 20.0)">p</text><text xml:space="preserve" font-family="Chalkduster,Chalkduster" font-size="33.1" fill="#FEFFFE" transform="matrix(1.00, 0.00, -0.00, -1.00, 69.2, 20.0)">s</text><text xml:space="preserve" font-family="Chalkduster,Chalkduster" font-size="33.1" fill="#FEFFFE" transform="matrix(1.00, 0.00, -0.00, -1.00, 84.7, 20.0)">:</text><text xml:space="preserve" font-family="Chalkduster,Chalkduster" font-size="33.1" fill="#FEFFFE" transform="matrix(1.00, 0.00, -0.00, -1.00, 95.6, 20.0)">/</text><text xml:space="preserve" font-family="Chalkduster,Chalkduster" font-size="33.1" fill="#FEFFFE" transform="matrix(1.00, 0.00, -0.00, -1.00, 111.2, 20.0)">/</text><text xml:space="preserve" font-family="Chalkduster,Chalkduster" font-size="33.1" fill="#FEFFFE" transform="matrix(1.00, 0.00, -0.00, -1.00, 130.0, 20.0)">d</text><text xml:space="preserve" font-family="Chalkduster,Chalkduster" font-size="33.1" fill="#FEFFFE" transform="matrix(1.00, 0.00, -0.00, -1.00, 155.9, 20.0)">r</text><text xml:space="preserve" font-family="Chalkduster,Chalkduster" font-size="33.1" fill="#FEFFFE" transform="matrix(1.00, 0.00, -0.00, -1.00, 174.3, 20.0)">u</text><text xml:space="preserve" font-family="Chalkduster,Chalkduster" font-size="33.1" fill="#FEFFFE" transform="matrix(1.00, 0.00, -0.00, -1.00, 197.5, 20.0)">p</text><text xml:space="preserve" font-family="Chalkduster,Chalkduster" font-size="33.1" fill="#FEFFFE" transform="matrix(1.00, 0.00, -0.00, -1.00, 218.0, 20.0)">a</text><text xml:space="preserve" font-family="Chalkduster,Chalkduster" font-size="33.1" fill="#FEFFFE" transform="matrix(1.00, 0.00, -0.00, -1.00, 239.4, 20.0)">l</text><text xml:space="preserve" font-family="Chalkduster,Chalkduster" font-size="33.1" fill="#FEFFFE" transform="matrix(1.00, 0.00, -0.00, -1.00, 254.6, 20.0)">.</text><text xml:space="preserve" font-family="Chalkduster,Chalkduster" font-size="33.1" fill="#FEFFFE" transform="matrix(1.00, 0.00, -0.00, -1.00, 265.2, 20.0)">o</text><text xml:space="preserve" font-family="Chalkduster,Chalkduster" font-size="33.1" fill="#FEFFFE" transform="matrix(1.00, 0.00, -0.00, -1.00, 289.3, 20.0)">r</text><text xml:space="preserve" font-family="Chalkduster,Chalkduster" font-size="33.1" fill="#FEFFFE" transform="matrix(1.00, 0.00, -0.00, -1.00, 306.3, 20.0)">g</text><text xml:space="preserve" font-family="Chalkduster,Chalkduster" font-size="33.1" fill="#FEFFFE" transform="matrix(1.00, 0.00, -0.00, -1.00, 328.8, 20.0)">/</text><text xml:space="preserve" font-family="Chalkduster,Chalkduster" font-size="33.1" fill="#FEFFFE" transform="matrix(1.00, 0.00, -0.00, -1.00, 348.7, 20.0)">s</text><text xml:space="preserve" font-family="Chalkduster,Chalkduster" font-size="33.1" fill="#FEFFFE" transform="matrix(1.00, 0.00, -0.00, -1.00, 366.5, 20.0)">t</text><text xml:space="preserve" font-family="Chalkduster,Chalkduster" font-size="33.1" fill="#FEFFFE" transform="matrix(1.00, 0.00, -0.00, -1.00, 381.3, 20.0)">a</text><text xml:space="preserve" font-family="Chalkduster,Chalkduster" font-size="33.1" fill="#FEFFFE" transform="matrix(1.00, 0.00, -0.00, -1.00, 402.4, 20.0)">r</text><text xml:space="preserve" font-family="Chalkduster,Chalkduster" font-size="33.1" fill="#FEFFFE" transform="matrix(1.00, 0.00, -0.00, -1.00, 419.9, 20.0)">t</text><text xml:space="preserve" font-family="Chalkduster,Chalkduster" font-size="33.1" fill="#FEFFFE" transform="matrix(1.00, 0.00, -0.00, -1.00, 435.1, 20.0)"> </text><g><clipPath id="clip0x6000038b4ca0"><path d="M -0.1 13.7 L 435.1 13.7 L 435.1 16.5 L -0.1 16.5 Z M -0.1 13.7 "></path></clipPath><g clip-path="url(#clip0x6000038b4ca0)"><path d="M 234.7 97.1 L 668.8 97.1 " fill="none" stroke="#FEFFFE" stroke-width="0.73" transform="matrix(1.00, 0.00, 0.00, -1.00, -233.8, 112.2)"></path></g></g></g></svg>