<?xml version="1.0" encoding="UTF-8" standalone="no"?><svg xmlns="http://www.w3.org/2000/svg" xmlns:xlink="http://www.w3.org/1999/xlink" clip-rule="evenodd" stroke-miterlimit="10" viewBox="0 0 344 51"><desc>SVG generated by Keynote</desc><defs></defs><g transform="matrix(1.00, 0.00, -0.00, -1.00, 0.0, 51.0)"><text xml:space="preserve" font-family="Chalkduster,Chalkduster" font-size="33.1" fill="#FEFFFE" transform="matrix(1.00, 0.00, -0.00, -1.00, 1.3, 20.0)">D</text><text xml:space="preserve" font-family="Chalkduster,Chalkduster" font-size="33.1" fill="#FEFFFE" transform="matrix(1.00, 0.00, -0.00, -1.00, 24.5, 20.0)">o</text><text xml:space="preserve" font-family="Chalkduster,Chalkduster" font-size="33.1" fill="#FEFFFE" transform="matrix(1.00, 0.00, -0.00, -1.00, 49.1, 20.0)">w</text><text xml:space="preserve" font-family="Chalkduster,Chalkduster" font-size="33.1" fill="#FEFFFE" transform="matrix(1.00, 0.00, -0.00, -1.00, 76.9, 20.0)">n</text><text xml:space="preserve" font-family="Chalkduster,Chalkduster" font-size="33.1" fill="#FEFFFE" transform="matrix(1.00, 0.00, -0.00, -1.00, 101.2, 20.0)">l</text><text xml:space="preserve" font-family="Chalkduster,Chalkduster" font-size="33.1" fill="#FEFFFE" transform="matrix(1.00, 0.00, -0.00, -1.00, 115.4, 20.0)">o</text><text xml:space="preserve" font-family="Chalkduster,Chalkduster" font-size="33.1" fill="#FEFFFE" transform="matrix(1.00, 0.00, -0.00, -1.00, 139.7, 20.0)">a</text><text xml:space="preserve" font-family="Chalkduster,Chalkduster" font-size="33.1" fill="#FEFFFE" transform="matrix(1.00, 0.00, -0.00, -1.00, 161.5, 20.0)">d</text><text xml:space="preserve" font-family="Chalkduster,Chalkduster" font-size="33.1" fill="#FEFFFE" transform="matrix(1.00, 0.00, -0.00, -1.00, 187.4, 20.0)"> </text><text xml:space="preserve" font-family="Chalkduster,Chalkduster" font-size="33.1" fill="#FEFFFE" transform="matrix(1.00, 0.00, -0.00, -1.00, 203.8, 20.0)"> </text><text xml:space="preserve" font-family="Chalkduster,Chalkduster" font-size="33.1" fill="#FEFFFE" transform="matrix(1.00, 0.00, -0.00, -1.00, 220.3, 20.0)">D</text><text xml:space="preserve" font-family="Chalkduster,Chalkduster" font-size="33.1" fill="#FEFFFE" transform="matrix(1.00, 0.00, -0.00, -1.00, 243.5, 20.0)">r</text><text xml:space="preserve" font-family="Chalkduster,Chalkduster" font-size="33.1" fill="#FEFFFE" transform="matrix(1.00, 0.00, -0.00, -1.00, 261.9, 20.0)">u</text><text xml:space="preserve" font-family="Chalkduster,Chalkduster" font-size="33.1" fill="#FEFFFE" transform="matrix(1.00, 0.00, -0.00, -1.00, 285.1, 20.0)">p</text><text xml:space="preserve" font-family="Chalkduster,Chalkduster" font-size="33.1" fill="#FEFFFE" transform="matrix(1.00, 0.00, -0.00, -1.00, 305.6, 20.0)">a</text><text xml:space="preserve" font-family="Chalkduster,Chalkduster" font-size="33.1" fill="#FEFFFE" transform="matrix(1.00, 0.00, -0.00, -1.00, 327.0, 20.0)">l</text></g></svg>