<?xml version="1.0" encoding="UTF-8" standalone="no"?><svg xmlns="http://www.w3.org/2000/svg" xmlns:xlink="http://www.w3.org/1999/xlink" clip-rule="evenodd" stroke-miterlimit="10" viewBox="0 0 770 42"><desc>SVG generated by Keynote</desc><defs></defs><g transform="matrix(1.00, 0.00, -0.00, -1.00, 0.0, 42.0)"><image xlink:href="../../861502F5-C051-4CA8-9910-E538B1C8F451/assets/4DEEB86E8592901A27491E22B30EA716.png" width="78.00" height="72.00" transform="matrix(0.20, 0.00, -0.00, -0.20, 0.0, 29.9)"></image><text xml:space="preserve" font-family="Chalkduster,Chalkduster" font-size="25.9" fill="#FEFFFE" transform="matrix(1.00, 0.00, -0.00, -1.00, 32.4, 16.8)">D</text><text xml:space="preserve" font-family="Chalkduster,Chalkduster" font-size="25.9" fill="#FEFFFE" transform="matrix(1.00, 0.00, -0.00, -1.00, 50.5, 16.8)">r</text><text xml:space="preserve" font-family="Chalkduster,Chalkduster" font-size="25.9" fill="#FEFFFE" transform="matrix(1.00, 0.00, -0.00, -1.00, 64.9, 16.8)">u</text><text xml:space="preserve" font-family="Chalkduster,Chalkduster" font-size="25.9" fill="#FEFFFE" transform="matrix(1.00, 0.00, -0.00, -1.00, 83.1, 16.8)">p</text><text xml:space="preserve" font-family="Chalkduster,Chalkduster" font-size="25.9" fill="#FEFFFE" transform="matrix(1.00, 0.00, -0.00, -1.00, 99.1, 16.8)">a</text><text xml:space="preserve" font-family="Chalkduster,Chalkduster" font-size="25.9" fill="#FEFFFE" transform="matrix(1.00, 0.00, -0.00, -1.00, 115.9, 16.8)">l</text><text xml:space="preserve" font-family="Chalkduster,Chalkduster" font-size="25.9" fill="#FEFFFE" transform="matrix(1.00, 0.00, -0.00, -1.00, 128.1, 16.8)"> </text><text xml:space="preserve" font-family="Chalkduster,Chalkduster" font-size="25.9" fill="#FEFFFE" transform="matrix(1.00, 0.00, -0.00, -1.00, 141.0, 16.8)">7</text><text xml:space="preserve" font-family="Chalkduster,Chalkduster" font-size="25.9" fill="#FEFFFE" transform="matrix(1.00, 0.00, -0.00, -1.00, 156.4, 16.8)">:</text><text xml:space="preserve" font-family="Chalkduster,Chalkduster" font-size="25.9" fill="#FEFFFE" transform="matrix(1.00, 0.00, -0.00, -1.00, 164.9, 16.8)"> </text><text xml:space="preserve" font-family="Chalkduster,Chalkduster" font-size="25.9" fill="#FEFFFE" transform="matrix(1.00, 0.00, -0.00, -1.00, 177.8, 16.8)">P</text><text xml:space="preserve" font-family="Chalkduster,Chalkduster" font-size="25.9" fill="#FEFFFE" transform="matrix(1.00, 0.00, -0.00, -1.00, 196.2, 16.8)">H</text><text xml:space="preserve" font-family="Chalkduster,Chalkduster" font-size="25.9" fill="#FEFFFE" transform="matrix(1.00, 0.00, -0.00, -1.00, 212.2, 16.8)">P</text><text xml:space="preserve" font-family="Chalkduster,Chalkduster" font-size="25.9" fill="#FEFFFE" transform="matrix(1.00, 0.00, -0.00, -1.00, 230.6, 16.8)"> </text><text xml:space="preserve" font-family="Chalkduster,Chalkduster" font-size="25.9" fill="#FEFFFE" transform="matrix(1.00, 0.00, -0.00, -1.00, 243.5, 16.8)">5</text><text xml:space="preserve" font-family="Chalkduster,Chalkduster" font-size="25.9" fill="#FEFFFE" transform="matrix(1.00, 0.00, -0.00, -1.00, 258.7, 16.8)">.</text><text xml:space="preserve" font-family="Chalkduster,Chalkduster" font-size="25.9" fill="#FEFFFE" transform="matrix(1.00, 0.00, -0.00, -1.00, 267.8, 16.8)">2</text><text xml:space="preserve" font-family="Chalkduster,Chalkduster" font-size="25.9" fill="#FEFFFE" transform="matrix(1.00, 0.00, -0.00, -1.00, 283.0, 16.8)">.</text><text xml:space="preserve" font-family="Chalkduster,Chalkduster" font-size="25.9" fill="#FEFFFE" transform="matrix(1.00, 0.00, -0.00, -1.00, 291.8, 16.8)">5</text><text xml:space="preserve" font-family="Chalkduster,Chalkduster" font-size="25.9" fill="#FEFFFE" transform="matrix(1.00, 0.00, -0.00, -1.00, 308.4, 16.8)"> </text><text xml:space="preserve" font-family="Chalkduster,Chalkduster" font-size="25.9" fill="#FEFFFE" transform="matrix(1.00, 0.00, -0.00, -1.00, 321.3, 16.8)">o</text><text xml:space="preserve" font-family="Chalkduster,Chalkduster" font-size="25.9" fill="#FEFFFE" transform="matrix(1.00, 0.00, -0.00, -1.00, 340.1, 16.8)">r</text><text xml:space="preserve" font-family="Chalkduster,Chalkduster" font-size="25.9" fill="#FEFFFE" transform="matrix(1.00, 0.00, -0.00, -1.00, 353.8, 16.8)"> </text><text xml:space="preserve" font-family="Chalkduster,Chalkduster" font-size="25.9" fill="#FEFFFE" transform="matrix(1.00, 0.00, -0.00, -1.00, 366.7, 16.8)">h</text><text xml:space="preserve" font-family="Chalkduster,Chalkduster" font-size="25.9" fill="#FEFFFE" transform="matrix(1.00, 0.00, -0.00, -1.00, 383.2, 16.8)">i</text><text xml:space="preserve" font-family="Chalkduster,Chalkduster" font-size="25.9" fill="#FEFFFE" transform="matrix(1.00, 0.00, -0.00, -1.00, 393.4, 16.8)">g</text><text xml:space="preserve" font-family="Chalkduster,Chalkduster" font-size="25.9" fill="#FEFFFE" transform="matrix(1.00, 0.00, -0.00, -1.00, 412.1, 16.8)">h</text><text xml:space="preserve" font-family="Chalkduster,Chalkduster" font-size="25.9" fill="#FEFFFE" transform="matrix(1.00, 0.00, -0.00, -1.00, 428.1, 16.8)">e</text><text xml:space="preserve" font-family="Chalkduster,Chalkduster" font-size="25.9" fill="#FEFFFE" transform="matrix(1.00, 0.00, -0.00, -1.00, 443.9, 16.8)">r</text><text xml:space="preserve" font-family="Chalkduster,Chalkduster" font-size="25.9" fill="#FEFFFE" transform="matrix(1.00, 0.00, -0.00, -1.00, 457.6, 16.8)"> </text><text xml:space="preserve" font-family="Chalkduster,Chalkduster" font-size="25.9" fill="#FEFFFE" transform="matrix(1.00, 0.00, -0.00, -1.00, 470.5, 16.8)">(</text><text xml:space="preserve" font-family="Chalkduster,Chalkduster" font-size="25.9" fill="#FEFFFE" transform="matrix(1.00, 0.00, -0.00, -1.00, 481.8, 16.8)">5</text><text xml:space="preserve" font-family="Chalkduster,Chalkduster" font-size="25.9" fill="#FEFFFE" transform="matrix(1.00, 0.00, -0.00, -1.00, 497.0, 16.8)">.</text><text xml:space="preserve" font-family="Chalkduster,Chalkduster" font-size="25.9" fill="#FEFFFE" transform="matrix(1.00, 0.00, -0.00, -1.00, 506.1, 16.8)">3</text><text xml:space="preserve" font-family="Chalkduster,Chalkduster" font-size="25.9" fill="#FEFFFE" transform="matrix(1.00, 0.00, -0.00, -1.00, 523.9, 16.8)"> </text><text xml:space="preserve" font-family="Chalkduster,Chalkduster" font-size="25.9" fill="#FEFFFE" transform="matrix(1.00, 0.00, -0.00, -1.00, 536.8, 16.8)">r</text><text xml:space="preserve" font-family="Chalkduster,Chalkduster" font-size="25.9" fill="#FEFFFE" transform="matrix(1.00, 0.00, -0.00, -1.00, 549.9, 16.8)">e</text><text xml:space="preserve" font-family="Chalkduster,Chalkduster" font-size="25.9" fill="#FEFFFE" transform="matrix(1.00, 0.00, -0.00, -1.00, 566.4, 16.8)">c</text><text xml:space="preserve" font-family="Chalkduster,Chalkduster" font-size="25.9" fill="#FEFFFE" transform="matrix(1.00, 0.00, -0.00, -1.00, 581.9, 16.8)">o</text><text xml:space="preserve" font-family="Chalkduster,Chalkduster" font-size="25.9" fill="#FEFFFE" transform="matrix(1.00, 0.00, -0.00, -1.00, 601.3, 16.8)">m</text><text xml:space="preserve" font-family="Chalkduster,Chalkduster" font-size="25.9" fill="#FEFFFE" transform="matrix(1.00, 0.00, -0.00, -1.00, 628.4, 16.8)">m</text><text xml:space="preserve" font-family="Chalkduster,Chalkduster" font-size="25.9" fill="#FEFFFE" transform="matrix(1.00, 0.00, -0.00, -1.00, 655.3, 16.8)">e</text><text xml:space="preserve" font-family="Chalkduster,Chalkduster" font-size="25.9" fill="#FEFFFE" transform="matrix(1.00, 0.00, -0.00, -1.00, 671.6, 16.8)">n</text><text xml:space="preserve" font-family="Chalkduster,Chalkduster" font-size="25.9" fill="#FEFFFE" transform="matrix(1.00, 0.00, -0.00, -1.00, 690.6, 16.8)">d</text><text xml:space="preserve" font-family="Chalkduster,Chalkduster" font-size="25.9" fill="#FEFFFE" transform="matrix(1.00, 0.00, -0.00, -1.00, 710.9, 16.8)">e</text><text xml:space="preserve" font-family="Chalkduster,Chalkduster" font-size="25.9" fill="#FEFFFE" transform="matrix(1.00, 0.00, -0.00, -1.00, 727.7, 16.8)">d</text><text xml:space="preserve" font-family="Chalkduster,Chalkduster" font-size="25.9" fill="#FEFFFE" transform="matrix(1.00, 0.00, -0.00, -1.00, 748.0, 16.8)">)</text><text xml:space="preserve" font-family="Chalkduster,Chalkduster" font-size="25.9" fill="#FEFFFE" transform="matrix(1.00, 0.00, -0.00, -1.00, 761.0, 16.8)">.</text></g></svg>