<?xml version="1.0" encoding="UTF-8" standalone="no"?><svg xmlns="http://www.w3.org/2000/svg" xmlns:xlink="http://www.w3.org/1999/xlink" clip-rule="evenodd" stroke-miterlimit="10" viewBox="0 0 462 74"><desc>SVG generated by Keynote</desc><defs></defs><g transform="matrix(1.00, 0.00, -0.00, -1.00, 0.0, 74.0)"><text xml:space="preserve" font-family="Chalkduster,Chalkduster" font-size="25.9" fill="#FEFFFE" transform="matrix(1.00, 0.00, -0.00, -1.00, 1.0, 16.9)">h</text><text xml:space="preserve" font-family="Chalkduster,Chalkduster" font-size="25.9" fill="#FEFFFE" transform="matrix(1.00, 0.00, -0.00, -1.00, 15.8, 16.9)">t</text><text xml:space="preserve" font-family="Chalkduster,Chalkduster" font-size="25.9" fill="#FEFFFE" transform="matrix(1.00, 0.00, -0.00, -1.00, 26.6, 16.9)">t</text><text xml:space="preserve" font-family="Chalkduster,Chalkduster" font-size="25.9" fill="#FEFFFE" transform="matrix(1.00, 0.00, -0.00, -1.00, 38.4, 16.9)">p</text><text xml:space="preserve" font-family="Chalkduster,Chalkduster" font-size="25.9" fill="#FEFFFE" transform="matrix(1.00, 0.00, -0.00, -1.00, 54.4, 16.9)">s</text><text xml:space="preserve" font-family="Chalkduster,Chalkduster" font-size="25.9" fill="#FEFFFE" transform="matrix(1.00, 0.00, -0.00, -1.00, 66.5, 16.9)">:</text><text xml:space="preserve" font-family="Chalkduster,Chalkduster" font-size="25.9" fill="#FEFFFE" transform="matrix(1.00, 0.00, -0.00, -1.00, 75.1, 16.9)">/</text><text xml:space="preserve" font-family="Chalkduster,Chalkduster" font-size="25.9" fill="#FEFFFE" transform="matrix(1.00, 0.00, -0.00, -1.00, 87.3, 16.9)">/</text><text xml:space="preserve" font-family="Chalkduster,Chalkduster" font-size="25.9" fill="#FEFFFE" transform="matrix(1.00, 0.00, -0.00, -1.00, 102.0, 16.9)">d</text><text xml:space="preserve" font-family="Chalkduster,Chalkduster" font-size="25.9" fill="#FEFFFE" transform="matrix(1.00, 0.00, -0.00, -1.00, 122.3, 16.9)">r</text><text xml:space="preserve" font-family="Chalkduster,Chalkduster" font-size="25.9" fill="#FEFFFE" transform="matrix(1.00, 0.00, -0.00, -1.00, 136.6, 16.9)">u</text><text xml:space="preserve" font-family="Chalkduster,Chalkduster" font-size="25.9" fill="#FEFFFE" transform="matrix(1.00, 0.00, -0.00, -1.00, 154.8, 16.9)">p</text><text xml:space="preserve" font-family="Chalkduster,Chalkduster" font-size="25.9" fill="#FEFFFE" transform="matrix(1.00, 0.00, -0.00, -1.00, 170.8, 16.9)">a</text><text xml:space="preserve" font-family="Chalkduster,Chalkduster" font-size="25.9" fill="#FEFFFE" transform="matrix(1.00, 0.00, -0.00, -1.00, 187.6, 16.9)">l</text><text xml:space="preserve" font-family="Chalkduster,Chalkduster" font-size="25.9" fill="#FEFFFE" transform="matrix(1.00, 0.00, -0.00, -1.00, 199.5, 16.9)">.</text><text xml:space="preserve" font-family="Chalkduster,Chalkduster" font-size="25.9" fill="#FEFFFE" transform="matrix(1.00, 0.00, -0.00, -1.00, 207.8, 16.9)">o</text><text xml:space="preserve" font-family="Chalkduster,Chalkduster" font-size="25.9" fill="#FEFFFE" transform="matrix(1.00, 0.00, -0.00, -1.00, 226.7, 16.9)">r</text><text xml:space="preserve" font-family="Chalkduster,Chalkduster" font-size="25.9" fill="#FEFFFE" transform="matrix(1.00, 0.00, -0.00, -1.00, 240.0, 16.9)">g</text><text xml:space="preserve" font-family="Chalkduster,Chalkduster" font-size="25.9" fill="#FEFFFE" transform="matrix(1.00, 0.00, -0.00, -1.00, 257.6, 16.9)">/</text><text xml:space="preserve" font-family="Chalkduster,Chalkduster" font-size="25.9" fill="#FEFFFE" transform="matrix(1.00, 0.00, -0.00, -1.00, 272.0, 16.9)">r</text><text xml:space="preserve" font-family="Chalkduster,Chalkduster" font-size="25.9" fill="#FEFFFE" transform="matrix(1.00, 0.00, -0.00, -1.00, 285.1, 16.9)">e</text><text xml:space="preserve" font-family="Chalkduster,Chalkduster" font-size="25.9" fill="#FEFFFE" transform="matrix(1.00, 0.00, -0.00, -1.00, 301.2, 16.9)">q</text><text xml:space="preserve" font-family="Chalkduster,Chalkduster" font-size="25.9" fill="#FEFFFE" transform="matrix(1.00, 0.00, -0.00, -1.00, 317.9, 16.9)">u</text><text xml:space="preserve" font-family="Chalkduster,Chalkduster" font-size="25.9" fill="#FEFFFE" transform="matrix(1.00, 0.00, -0.00, -1.00, 335.8, 16.9)">i</text><text xml:space="preserve" font-family="Chalkduster,Chalkduster" font-size="25.9" fill="#FEFFFE" transform="matrix(1.00, 0.00, -0.00, -1.00, 346.0, 16.9)">r</text><text xml:space="preserve" font-family="Chalkduster,Chalkduster" font-size="25.9" fill="#FEFFFE" transform="matrix(1.00, 0.00, -0.00, -1.00, 359.1, 16.9)">e</text><text xml:space="preserve" font-family="Chalkduster,Chalkduster" font-size="25.9" fill="#FEFFFE" transform="matrix(1.00, 0.00, -0.00, -1.00, 375.2, 16.9)">m</text><text xml:space="preserve" font-family="Chalkduster,Chalkduster" font-size="25.9" fill="#FEFFFE" transform="matrix(1.00, 0.00, -0.00, -1.00, 402.1, 16.9)">e</text><text xml:space="preserve" font-family="Chalkduster,Chalkduster" font-size="25.9" fill="#FEFFFE" transform="matrix(1.00, 0.00, -0.00, -1.00, 418.4, 16.9)">n</text><text xml:space="preserve" font-family="Chalkduster,Chalkduster" font-size="25.9" fill="#FEFFFE" transform="matrix(1.00, 0.00, -0.00, -1.00, 436.5, 16.9)">t</text><text xml:space="preserve" font-family="Chalkduster,Chalkduster" font-size="25.9" fill="#FEFFFE" transform="matrix(1.00, 0.00, -0.00, -1.00, 448.3, 16.9)">s</text><text xml:space="preserve" font-family="Chalkduster,Chalkduster" font-size="25.9" fill="#FEFFFE" transform="matrix(1.00, 0.00, -0.00, -1.00, 461.4, 16.9)"> </text><g><clipPath id="clip0x6080010a21c0"><path d="M 0.0 11.8 L 461.4 11.8 L 461.4 14.4 L 0.0 14.4 Z M 0.0 11.8 "></path></clipPath><g clip-path="url(#clip0x6080010a21c0)"><path d="M 4.0 497.7 L 464.4 497.7 " fill="none" stroke="#FEFFFE" stroke-width="0.57" transform="matrix(1.00, 0.00, 0.00, -1.00, -3.0, 510.7)"></path></g></g></g></svg>