<?xml version="1.0" encoding="UTF-8" standalone="no"?><svg xmlns="http://www.w3.org/2000/svg" xmlns:xlink="http://www.w3.org/1999/xlink" clip-rule="evenodd" stroke-miterlimit="10" viewBox="0 0 409 75"><desc>SVG generated by Keynote</desc><defs></defs><g transform="matrix(1.00, 0.00, -0.00, -1.00, 0.0, 75.0)"><image xlink:href="../../861502F5-C051-4CA8-9910-E538B1C8F451/assets/7083CCEA4E60CFD10D99D1145F80E361.png" width="78.00" height="72.00" transform="matrix(0.10, 0.00, -0.00, -0.10, 0.0, 67.7)"></image><text xml:space="preserve" font-family="Chalkduster,Chalkduster" font-size="12.8" fill="#FEFFFE" transform="matrix(1.00, 0.00, -0.00, -1.00, 15.2, 62.8)">M</text><text xml:space="preserve" font-family="Chalkduster,Chalkduster" font-size="12.8" fill="#FEFFFE" transform="matrix(1.00, 0.00, -0.00, -1.00, 26.0, 62.8)">e</text><text xml:space="preserve" font-family="Chalkduster,Chalkduster" font-size="12.8" fill="#FEFFFE" transform="matrix(1.00, 0.00, -0.00, -1.00, 34.3, 62.8)">d</text><text xml:space="preserve" font-family="Chalkduster,Chalkduster" font-size="12.8" fill="#FEFFFE" transform="matrix(1.00, 0.00, -0.00, -1.00, 44.8, 62.8)">i</text><text xml:space="preserve" font-family="Chalkduster,Chalkduster" font-size="12.8" fill="#FEFFFE" transform="matrix(1.00, 0.00, -0.00, -1.00, 50.0, 62.8)">a</text><text xml:space="preserve" font-family="Chalkduster,Chalkduster" font-size="12.8" fill="#FEFFFE" transform="matrix(1.00, 0.00, -0.00, -1.00, 58.8, 62.8)">n</text><text xml:space="preserve" font-family="Chalkduster,Chalkduster" font-size="12.8" fill="#FEFFFE" transform="matrix(1.00, 0.00, -0.00, -1.00, 67.7, 62.8)">t</text><text xml:space="preserve" font-family="Chalkduster,Chalkduster" font-size="12.8" fill="#FEFFFE" transform="matrix(1.00, 0.00, -0.00, -1.00, 73.4, 62.8)">e</text><text xml:space="preserve" font-family="Chalkduster,Chalkduster" font-size="12.8" fill="#FEFFFE" transform="matrix(1.00, 0.00, -0.00, -1.00, 81.4, 62.8)"> </text><text xml:space="preserve" font-family="Chalkduster,Chalkduster" font-size="12.8" fill="#FEFFFE" transform="matrix(1.00, 0.00, -0.00, -1.00, 88.5, 62.8)">l</text><text xml:space="preserve" font-family="Chalkduster,Chalkduster" font-size="12.8" fill="#FEFFFE" transform="matrix(1.00, 0.00, -0.00, -1.00, 94.0, 62.8)">o</text><text xml:space="preserve" font-family="Chalkduster,Chalkduster" font-size="12.8" fill="#FEFFFE" transform="matrix(1.00, 0.00, -0.00, -1.00, 103.3, 62.8)">s</text><text xml:space="preserve" font-family="Chalkduster,Chalkduster" font-size="12.8" fill="#FEFFFE" transform="matrix(1.00, 0.00, -0.00, -1.00, 109.8, 62.8)"> </text><text xml:space="preserve" font-family="Chalkduster,Chalkduster" font-size="12.8" fill="#FEFFFE" transform="matrix(1.00, 0.00, -0.00, -1.00, 116.8, 62.8)">o</text><text xml:space="preserve" font-family="Chalkduster,Chalkduster" font-size="12.8" fill="#FEFFFE" transform="matrix(1.00, 0.00, -0.00, -1.00, 126.2, 62.8)">r</text><text xml:space="preserve" font-family="Chalkduster,Chalkduster" font-size="12.8" fill="#FEFFFE" transform="matrix(1.00, 0.00, -0.00, -1.00, 133.0, 62.8)">d</text><text xml:space="preserve" font-family="Chalkduster,Chalkduster" font-size="12.8" fill="#FEFFFE" transform="matrix(1.00, 0.00, -0.00, -1.00, 143.0, 62.8)">e</text><text xml:space="preserve" font-family="Chalkduster,Chalkduster" font-size="12.8" fill="#FEFFFE" transform="matrix(1.00, 0.00, -0.00, -1.00, 151.1, 62.8)">n</text><text xml:space="preserve" font-family="Chalkduster,Chalkduster" font-size="12.8" fill="#FEFFFE" transform="matrix(1.00, 0.00, -0.00, -1.00, 160.5, 62.8)">a</text><text xml:space="preserve" font-family="Chalkduster,Chalkduster" font-size="12.8" fill="#FEFFFE" transform="matrix(1.00, 0.00, -0.00, -1.00, 168.9, 62.8)">d</text><text xml:space="preserve" font-family="Chalkduster,Chalkduster" font-size="12.8" fill="#FEFFFE" transform="matrix(1.00, 0.00, -0.00, -1.00, 178.9, 62.8)">o</text><text xml:space="preserve" font-family="Chalkduster,Chalkduster" font-size="12.8" fill="#FEFFFE" transform="matrix(1.00, 0.00, -0.00, -1.00, 188.2, 62.8)">r</text><text xml:space="preserve" font-family="Chalkduster,Chalkduster" font-size="12.8" fill="#FEFFFE" transform="matrix(1.00, 0.00, -0.00, -1.00, 194.7, 62.8)">e</text><text xml:space="preserve" font-family="Chalkduster,Chalkduster" font-size="12.8" fill="#FEFFFE" transform="matrix(1.00, 0.00, -0.00, -1.00, 202.9, 62.8)">s</text><text xml:space="preserve" font-family="Chalkduster,Chalkduster" font-size="12.8" fill="#FEFFFE" transform="matrix(1.00, 0.00, -0.00, -1.00, 209.4, 62.8)"> </text><text xml:space="preserve" font-family="Chalkduster,Chalkduster" font-size="12.8" fill="#FEFFFE" transform="matrix(1.00, 0.00, -0.00, -1.00, 216.5, 62.8)">p</text><text xml:space="preserve" font-family="Chalkduster,Chalkduster" font-size="12.8" fill="#FEFFFE" transform="matrix(1.00, 0.00, -0.00, -1.00, 224.4, 62.8)">u</text><text xml:space="preserve" font-family="Chalkduster,Chalkduster" font-size="12.8" fill="#FEFFFE" transform="matrix(1.00, 0.00, -0.00, -1.00, 233.2, 62.8)">e</text><text xml:space="preserve" font-family="Chalkduster,Chalkduster" font-size="12.8" fill="#FEFFFE" transform="matrix(1.00, 0.00, -0.00, -1.00, 241.5, 62.8)">d</text><text xml:space="preserve" font-family="Chalkduster,Chalkduster" font-size="12.8" fill="#FEFFFE" transform="matrix(1.00, 0.00, -0.00, -1.00, 251.5, 62.8)">e</text><text xml:space="preserve" font-family="Chalkduster,Chalkduster" font-size="12.8" fill="#FEFFFE" transform="matrix(1.00, 0.00, -0.00, -1.00, 259.6, 62.8)">n</text><text xml:space="preserve" font-family="Chalkduster,Chalkduster" font-size="12.8" fill="#FEFFFE" transform="matrix(1.00, 0.00, -0.00, -1.00, 268.6, 62.8)">,</text><text xml:space="preserve" font-family="Chalkduster,Chalkduster" font-size="12.8" fill="#FEFFFE" transform="matrix(1.00, 0.00, -0.00, -1.00, 272.5, 62.8)"> </text><text xml:space="preserve" font-family="Chalkduster,Chalkduster" font-size="12.8" fill="#FEFFFE" transform="matrix(1.00, 0.00, -0.00, -1.00, 279.6, 62.8)">e</text><text xml:space="preserve" font-family="Chalkduster,Chalkduster" font-size="12.8" fill="#FEFFFE" transform="matrix(1.00, 0.00, -0.00, -1.00, 287.7, 62.8)">n</text><text xml:space="preserve" font-family="Chalkduster,Chalkduster" font-size="12.8" fill="#FEFFFE" transform="matrix(1.00, 0.00, -0.00, -1.00, 297.1, 62.8)"> </text><text xml:space="preserve" font-family="Chalkduster,Chalkduster" font-size="12.8" fill="#FEFFFE" transform="matrix(1.00, 0.00, -0.00, -1.00, 304.1, 62.8)">m</text><text xml:space="preserve" font-family="Chalkduster,Chalkduster" font-size="12.8" fill="#FEFFFE" transform="matrix(1.00, 0.00, -0.00, -1.00, 317.1, 62.8)">u</text><text xml:space="preserve" font-family="Chalkduster,Chalkduster" font-size="12.8" fill="#FEFFFE" transform="matrix(1.00, 0.00, -0.00, -1.00, 325.9, 62.8)">c</text><text xml:space="preserve" font-family="Chalkduster,Chalkduster" font-size="12.8" fill="#FEFFFE" transform="matrix(1.00, 0.00, -0.00, -1.00, 334.0, 62.8)">h</text><text xml:space="preserve" font-family="Chalkduster,Chalkduster" font-size="12.8" fill="#FEFFFE" transform="matrix(1.00, 0.00, -0.00, -1.00, 341.9, 62.8)">o</text><text xml:space="preserve" font-family="Chalkduster,Chalkduster" font-size="12.8" fill="#FEFFFE" transform="matrix(1.00, 0.00, -0.00, -1.00, 351.2, 62.8)">s</text><text xml:space="preserve" font-family="Chalkduster,Chalkduster" font-size="12.8" fill="#FEFFFE" transform="matrix(1.00, 0.00, -0.00, -1.00, 357.7, 62.8)"> </text><text xml:space="preserve" font-family="Chalkduster,Chalkduster" font-size="12.8" fill="#FEFFFE" transform="matrix(1.00, 0.00, -0.00, -1.00, 364.7, 62.8)">c</text><text xml:space="preserve" font-family="Chalkduster,Chalkduster" font-size="12.8" fill="#FEFFFE" transform="matrix(1.00, 0.00, -0.00, -1.00, 372.3, 62.8)">a</text><text xml:space="preserve" font-family="Chalkduster,Chalkduster" font-size="12.8" fill="#FEFFFE" transform="matrix(1.00, 0.00, -0.00, -1.00, 381.3, 62.8)">s</text><text xml:space="preserve" font-family="Chalkduster,Chalkduster" font-size="12.8" fill="#FEFFFE" transform="matrix(1.00, 0.00, -0.00, -1.00, 387.8, 62.8)">o</text><text xml:space="preserve" font-family="Chalkduster,Chalkduster" font-size="12.8" fill="#FEFFFE" transform="matrix(1.00, 0.00, -0.00, -1.00, 397.1, 62.8)">s</text><text xml:space="preserve" font-family="Chalkduster,Chalkduster" font-size="12.8" fill="#FEFFFE" transform="matrix(1.00, 0.00, -0.00, -1.00, 403.0, 62.8)">,</text><text xml:space="preserve" font-family="Chalkduster,Chalkduster" font-size="12.8" fill="#FEFFFE" transform="matrix(1.00, 0.00, -0.00, -1.00, 407.0, 62.8)"> </text><text xml:space="preserve" font-family="Chalkduster,Chalkduster" font-size="12.8" fill="#FEFFFE" transform="matrix(1.00, 0.00, -0.00, -1.00, 15.2, 42.8)">e</text><text xml:space="preserve" font-family="Chalkduster,Chalkduster" font-size="12.8" fill="#FEFFFE" transform="matrix(1.00, 0.00, -0.00, -1.00, 23.4, 42.8)">s</text><text xml:space="preserve" font-family="Chalkduster,Chalkduster" font-size="12.8" fill="#FEFFFE" transform="matrix(1.00, 0.00, -0.00, -1.00, 30.3, 42.8)">t</text><text xml:space="preserve" font-family="Chalkduster,Chalkduster" font-size="12.8" fill="#FEFFFE" transform="matrix(1.00, 0.00, -0.00, -1.00, 36.2, 42.8)">i</text><text xml:space="preserve" font-family="Chalkduster,Chalkduster" font-size="12.8" fill="#FEFFFE" transform="matrix(1.00, 0.00, -0.00, -1.00, 41.3, 42.8)">m</text><text xml:space="preserve" font-family="Chalkduster,Chalkduster" font-size="12.8" fill="#FEFFFE" transform="matrix(1.00, 0.00, -0.00, -1.00, 54.2, 42.8)">u</text><text xml:space="preserve" font-family="Chalkduster,Chalkduster" font-size="12.8" fill="#FEFFFE" transform="matrix(1.00, 0.00, -0.00, -1.00, 63.4, 42.8)">l</text><text xml:space="preserve" font-family="Chalkduster,Chalkduster" font-size="12.8" fill="#FEFFFE" transform="matrix(1.00, 0.00, -0.00, -1.00, 69.1, 42.8)">a</text><text xml:space="preserve" font-family="Chalkduster,Chalkduster" font-size="12.8" fill="#FEFFFE" transform="matrix(1.00, 0.00, -0.00, -1.00, 77.3, 42.8)">r</text><text xml:space="preserve" font-family="Chalkduster,Chalkduster" font-size="12.8" fill="#FEFFFE" transform="matrix(1.00, 0.00, -0.00, -1.00, 83.9, 42.8)">s</text><text xml:space="preserve" font-family="Chalkduster,Chalkduster" font-size="12.8" fill="#FEFFFE" transform="matrix(1.00, 0.00, -0.00, -1.00, 90.3, 42.8)">e</text><text xml:space="preserve" font-family="Chalkduster,Chalkduster" font-size="12.8" fill="#FEFFFE" transform="matrix(1.00, 0.00, -0.00, -1.00, 98.3, 42.8)"> </text><text xml:space="preserve" font-family="Chalkduster,Chalkduster" font-size="12.8" fill="#FEFFFE" transform="matrix(1.00, 0.00, -0.00, -1.00, 110.4, 42.8)">c</text><text xml:space="preserve" font-family="Chalkduster,Chalkduster" font-size="12.8" fill="#FEFFFE" transform="matrix(1.00, 0.00, -0.00, -1.00, 118.1, 42.8)">o</text><text xml:space="preserve" font-family="Chalkduster,Chalkduster" font-size="12.8" fill="#FEFFFE" transform="matrix(1.00, 0.00, -0.00, -1.00, 127.6, 42.8)">n</text><text xml:space="preserve" font-family="Chalkduster,Chalkduster" font-size="12.8" fill="#FEFFFE" transform="matrix(1.00, 0.00, -0.00, -1.00, 137.0, 42.8)">d</text><text xml:space="preserve" font-family="Chalkduster,Chalkduster" font-size="12.8" fill="#FEFFFE" transform="matrix(1.00, 0.00, -0.00, -1.00, 147.2, 42.8)">u</text><text xml:space="preserve" font-family="Chalkduster,Chalkduster" font-size="12.8" fill="#FEFFFE" transform="matrix(1.00, 0.00, -0.00, -1.00, 156.0, 42.8)">c</text><text xml:space="preserve" font-family="Chalkduster,Chalkduster" font-size="12.8" fill="#FEFFFE" transform="matrix(1.00, 0.00, -0.00, -1.00, 163.6, 42.8)">t</text><text xml:space="preserve" font-family="Chalkduster,Chalkduster" font-size="12.8" fill="#FEFFFE" transform="matrix(1.00, 0.00, -0.00, -1.00, 169.3, 42.8)">a</text><text xml:space="preserve" font-family="Chalkduster,Chalkduster" font-size="12.8" fill="#FEFFFE" transform="matrix(1.00, 0.00, -0.00, -1.00, 178.3, 42.8)">s</text><text xml:space="preserve" font-family="Chalkduster,Chalkduster" font-size="12.8" fill="#FEFFFE" transform="matrix(1.00, 0.00, -0.00, -1.00, 184.8, 42.8)"> </text><text xml:space="preserve" font-family="Chalkduster,Chalkduster" font-size="12.8" fill="#FEFFFE" transform="matrix(1.00, 0.00, -0.00, -1.00, 196.9, 42.8)">p</text><text xml:space="preserve" font-family="Chalkduster,Chalkduster" font-size="12.8" fill="#FEFFFE" transform="matrix(1.00, 0.00, -0.00, -1.00, 204.8, 42.8)">a</text><text xml:space="preserve" font-family="Chalkduster,Chalkduster" font-size="12.8" fill="#FEFFFE" transform="matrix(1.00, 0.00, -0.00, -1.00, 213.8, 42.8)">s</text><text xml:space="preserve" font-family="Chalkduster,Chalkduster" font-size="12.8" fill="#FEFFFE" transform="matrix(1.00, 0.00, -0.00, -1.00, 220.3, 42.8)">i</text><text xml:space="preserve" font-family="Chalkduster,Chalkduster" font-size="12.8" fill="#FEFFFE" transform="matrix(1.00, 0.00, -0.00, -1.00, 225.3, 42.8)">v</text><text xml:space="preserve" font-family="Chalkduster,Chalkduster" font-size="12.8" fill="#FEFFFE" transform="matrix(1.00, 0.00, -0.00, -1.00, 232.6, 42.8)">a</text><text xml:space="preserve" font-family="Chalkduster,Chalkduster" font-size="12.8" fill="#FEFFFE" transform="matrix(1.00, 0.00, -0.00, -1.00, 241.6, 42.8)">s</text><text xml:space="preserve" font-family="Chalkduster,Chalkduster" font-size="12.8" fill="#FEFFFE" transform="matrix(1.00, 0.00, -0.00, -1.00, 248.0, 42.8)"> </text><text xml:space="preserve" font-family="Chalkduster,Chalkduster" font-size="12.8" fill="#FEFFFE" transform="matrix(1.00, 0.00, -0.00, -1.00, 260.2, 42.8)">y</text><text xml:space="preserve" font-family="Chalkduster,Chalkduster" font-size="12.8" fill="#FEFFFE" transform="matrix(1.00, 0.00, -0.00, -1.00, 268.0, 42.8)"> </text><text xml:space="preserve" font-family="Chalkduster,Chalkduster" font-size="12.8" fill="#FEFFFE" transform="matrix(1.00, 0.00, -0.00, -1.00, 280.1, 42.8)">r</text><text xml:space="preserve" font-family="Chalkduster,Chalkduster" font-size="12.8" fill="#FEFFFE" transform="matrix(1.00, 0.00, -0.00, -1.00, 286.6, 42.8)">e</text><text xml:space="preserve" font-family="Chalkduster,Chalkduster" font-size="12.8" fill="#FEFFFE" transform="matrix(1.00, 0.00, -0.00, -1.00, 294.7, 42.8)">p</text><text xml:space="preserve" font-family="Chalkduster,Chalkduster" font-size="12.8" fill="#FEFFFE" transform="matrix(1.00, 0.00, -0.00, -1.00, 302.8, 42.8)">e</text><text xml:space="preserve" font-family="Chalkduster,Chalkduster" font-size="12.8" fill="#FEFFFE" transform="matrix(1.00, 0.00, -0.00, -1.00, 310.6, 42.8)">t</text><text xml:space="preserve" font-family="Chalkduster,Chalkduster" font-size="12.8" fill="#FEFFFE" transform="matrix(1.00, 0.00, -0.00, -1.00, 316.5, 42.8)">i</text><text xml:space="preserve" font-family="Chalkduster,Chalkduster" font-size="12.8" fill="#FEFFFE" transform="matrix(1.00, 0.00, -0.00, -1.00, 321.7, 42.8)">t</text><text xml:space="preserve" font-family="Chalkduster,Chalkduster" font-size="12.8" fill="#FEFFFE" transform="matrix(1.00, 0.00, -0.00, -1.00, 327.6, 42.8)">i</text><text xml:space="preserve" font-family="Chalkduster,Chalkduster" font-size="12.8" fill="#FEFFFE" transform="matrix(1.00, 0.00, -0.00, -1.00, 332.7, 42.8)">v</text><text xml:space="preserve" font-family="Chalkduster,Chalkduster" font-size="12.8" fill="#FEFFFE" transform="matrix(1.00, 0.00, -0.00, -1.00, 340.0, 42.8)">a</text><text xml:space="preserve" font-family="Chalkduster,Chalkduster" font-size="12.8" fill="#FEFFFE" transform="matrix(1.00, 0.00, -0.00, -1.00, 348.9, 42.8)">s</text><text xml:space="preserve" font-family="Chalkduster,Chalkduster" font-size="12.8" fill="#FEFFFE" transform="matrix(1.00, 0.00, -0.00, -1.00, 355.1, 42.8)">.</text><text xml:space="preserve" font-family="Chalkduster,Chalkduster" font-size="12.8" fill="#FEFFFE" transform="matrix(1.00, 0.00, -0.00, -1.00, 358.8, 42.8)"> </text><text xml:space="preserve" font-family="Chalkduster,Chalkduster" font-size="12.8" fill="#FEFFFE" transform="matrix(1.00, 0.00, -0.00, -1.00, 369.9, 42.8)">T</text><text xml:space="preserve" font-family="Chalkduster,Chalkduster" font-size="12.8" fill="#FEFFFE" transform="matrix(1.00, 0.00, -0.00, -1.00, 378.0, 42.8)">o</text><text xml:space="preserve" font-family="Chalkduster,Chalkduster" font-size="12.8" fill="#FEFFFE" transform="matrix(1.00, 0.00, -0.00, -1.00, 387.8, 42.8)">d</text><text xml:space="preserve" font-family="Chalkduster,Chalkduster" font-size="12.8" fill="#FEFFFE" transform="matrix(1.00, 0.00, -0.00, -1.00, 397.8, 42.8)">o</text><text xml:space="preserve" font-family="Chalkduster,Chalkduster" font-size="12.8" fill="#FEFFFE" transform="matrix(1.00, 0.00, -0.00, -1.00, 407.0, 42.8)"> </text><text xml:space="preserve" font-family="Chalkduster,Chalkduster" font-size="12.8" fill="#FEFFFE" transform="matrix(1.00, 0.00, -0.00, -1.00, 15.2, 22.8)">d</text><text xml:space="preserve" font-family="Chalkduster,Chalkduster" font-size="12.8" fill="#FEFFFE" transform="matrix(1.00, 0.00, -0.00, -1.00, 25.2, 22.8)">e</text><text xml:space="preserve" font-family="Chalkduster,Chalkduster" font-size="12.8" fill="#FEFFFE" transform="matrix(1.00, 0.00, -0.00, -1.00, 33.3, 22.8)">p</text><text xml:space="preserve" font-family="Chalkduster,Chalkduster" font-size="12.8" fill="#FEFFFE" transform="matrix(1.00, 0.00, -0.00, -1.00, 41.4, 22.8)">e</text><text xml:space="preserve" font-family="Chalkduster,Chalkduster" font-size="12.8" fill="#FEFFFE" transform="matrix(1.00, 0.00, -0.00, -1.00, 49.5, 22.8)">n</text><text xml:space="preserve" font-family="Chalkduster,Chalkduster" font-size="12.8" fill="#FEFFFE" transform="matrix(1.00, 0.00, -0.00, -1.00, 58.9, 22.8)">d</text><text xml:space="preserve" font-family="Chalkduster,Chalkduster" font-size="12.8" fill="#FEFFFE" transform="matrix(1.00, 0.00, -0.00, -1.00, 68.9, 22.8)">e</text><text xml:space="preserve" font-family="Chalkduster,Chalkduster" font-size="12.8" fill="#FEFFFE" transform="matrix(1.00, 0.00, -0.00, -1.00, 76.8, 22.8)"> </text><text xml:space="preserve" font-family="Chalkduster,Chalkduster" font-size="12.8" fill="#FEFFFE" transform="matrix(1.00, 0.00, -0.00, -1.00, 84.4, 22.8)">d</text><text xml:space="preserve" font-family="Chalkduster,Chalkduster" font-size="12.8" fill="#FEFFFE" transform="matrix(1.00, 0.00, -0.00, -1.00, 94.4, 22.8)">e</text><text xml:space="preserve" font-family="Chalkduster,Chalkduster" font-size="12.8" fill="#FEFFFE" transform="matrix(1.00, 0.00, -0.00, -1.00, 102.4, 22.8)">l</text><text xml:space="preserve" font-family="Chalkduster,Chalkduster" font-size="12.8" fill="#FEFFFE" transform="matrix(1.00, 0.00, -0.00, -1.00, 108.4, 22.8)"> </text><text xml:space="preserve" font-family="Chalkduster,Chalkduster" font-size="12.8" fill="#FEFFFE" transform="matrix(1.00, 0.00, -0.00, -1.00, 116.0, 22.8)">o</text><text xml:space="preserve" font-family="Chalkduster,Chalkduster" font-size="12.8" fill="#FEFFFE" transform="matrix(1.00, 0.00, -0.00, -1.00, 125.2, 22.8)">b</text><text xml:space="preserve" font-family="Chalkduster,Chalkduster" font-size="12.8" fill="#FEFFFE" transform="matrix(1.00, 0.00, -0.00, -1.00, 132.6, 22.8)">j</text><text xml:space="preserve" font-family="Chalkduster,Chalkduster" font-size="12.8" fill="#FEFFFE" transform="matrix(1.00, 0.00, -0.00, -1.00, 138.9, 22.8)">e</text><text xml:space="preserve" font-family="Chalkduster,Chalkduster" font-size="12.8" fill="#FEFFFE" transform="matrix(1.00, 0.00, -0.00, -1.00, 146.7, 22.8)">t</text><text xml:space="preserve" font-family="Chalkduster,Chalkduster" font-size="12.8" fill="#FEFFFE" transform="matrix(1.00, 0.00, -0.00, -1.00, 152.6, 22.8)">i</text><text xml:space="preserve" font-family="Chalkduster,Chalkduster" font-size="12.8" fill="#FEFFFE" transform="matrix(1.00, 0.00, -0.00, -1.00, 157.7, 22.8)">v</text><text xml:space="preserve" font-family="Chalkduster,Chalkduster" font-size="12.8" fill="#FEFFFE" transform="matrix(1.00, 0.00, -0.00, -1.00, 165.7, 22.8)">o</text><text xml:space="preserve" font-family="Chalkduster,Chalkduster" font-size="12.8" fill="#FEFFFE" transform="matrix(1.00, 0.00, -0.00, -1.00, 174.9, 22.8)"> </text><text xml:space="preserve" font-family="Chalkduster,Chalkduster" font-size="12.8" fill="#FEFFFE" transform="matrix(1.00, 0.00, -0.00, -1.00, 182.5, 22.8)">y</text><text xml:space="preserve" font-family="Chalkduster,Chalkduster" font-size="12.8" fill="#FEFFFE" transform="matrix(1.00, 0.00, -0.00, -1.00, 190.3, 22.8)"> </text><text xml:space="preserve" font-family="Chalkduster,Chalkduster" font-size="12.8" fill="#FEFFFE" transform="matrix(1.00, 0.00, -0.00, -1.00, 197.9, 22.8)">l</text><text xml:space="preserve" font-family="Chalkduster,Chalkduster" font-size="12.8" fill="#FEFFFE" transform="matrix(1.00, 0.00, -0.00, -1.00, 203.7, 22.8)">a</text><text xml:space="preserve" font-family="Chalkduster,Chalkduster" font-size="12.8" fill="#FEFFFE" transform="matrix(1.00, 0.00, -0.00, -1.00, 212.6, 22.8)">s</text><text xml:space="preserve" font-family="Chalkduster,Chalkduster" font-size="12.8" fill="#FEFFFE" transform="matrix(1.00, 0.00, -0.00, -1.00, 219.1, 22.8)"> </text><text xml:space="preserve" font-family="Chalkduster,Chalkduster" font-size="12.8" fill="#FEFFFE" transform="matrix(1.00, 0.00, -0.00, -1.00, 226.7, 22.8)">t</text><text xml:space="preserve" font-family="Chalkduster,Chalkduster" font-size="12.8" fill="#FEFFFE" transform="matrix(1.00, 0.00, -0.00, -1.00, 232.5, 22.8)">a</text><text xml:space="preserve" font-family="Chalkduster,Chalkduster" font-size="12.8" fill="#FEFFFE" transform="matrix(1.00, 0.00, -0.00, -1.00, 240.6, 22.8)">r</text><text xml:space="preserve" font-family="Chalkduster,Chalkduster" font-size="12.8" fill="#FEFFFE" transform="matrix(1.00, 0.00, -0.00, -1.00, 247.1, 22.8)">e</text><text xml:space="preserve" font-family="Chalkduster,Chalkduster" font-size="12.8" fill="#FEFFFE" transform="matrix(1.00, 0.00, -0.00, -1.00, 255.0, 22.8)">a</text><text xml:space="preserve" font-family="Chalkduster,Chalkduster" font-size="12.8" fill="#FEFFFE" transform="matrix(1.00, 0.00, -0.00, -1.00, 264.0, 22.8)">s</text><text xml:space="preserve" font-family="Chalkduster,Chalkduster" font-size="12.8" fill="#FEFFFE" transform="matrix(1.00, 0.00, -0.00, -1.00, 270.5, 22.8)"> </text><text xml:space="preserve" font-family="Chalkduster,Chalkduster" font-size="12.8" fill="#FEFFFE" transform="matrix(1.00, 0.00, -0.00, -1.00, 278.1, 22.8)">q</text><text xml:space="preserve" font-family="Chalkduster,Chalkduster" font-size="12.8" fill="#FEFFFE" transform="matrix(1.00, 0.00, -0.00, -1.00, 286.4, 22.8)">u</text><text xml:space="preserve" font-family="Chalkduster,Chalkduster" font-size="12.8" fill="#FEFFFE" transform="matrix(1.00, 0.00, -0.00, -1.00, 295.2, 22.8)">e</text><text xml:space="preserve" font-family="Chalkduster,Chalkduster" font-size="12.8" fill="#FEFFFE" transform="matrix(1.00, 0.00, -0.00, -1.00, 303.1, 22.8)"> </text><text xml:space="preserve" font-family="Chalkduster,Chalkduster" font-size="12.8" fill="#FEFFFE" transform="matrix(1.00, 0.00, -0.00, -1.00, 310.7, 22.8)">p</text><text xml:space="preserve" font-family="Chalkduster,Chalkduster" font-size="12.8" fill="#FEFFFE" transform="matrix(1.00, 0.00, -0.00, -1.00, 318.6, 22.8)">r</text><text xml:space="preserve" font-family="Chalkduster,Chalkduster" font-size="12.8" fill="#FEFFFE" transform="matrix(1.00, 0.00, -0.00, -1.00, 325.2, 22.8)">o</text><text xml:space="preserve" font-family="Chalkduster,Chalkduster" font-size="12.8" fill="#FEFFFE" transform="matrix(1.00, 0.00, -0.00, -1.00, 334.5, 22.8)">p</text><text xml:space="preserve" font-family="Chalkduster,Chalkduster" font-size="12.8" fill="#FEFFFE" transform="matrix(1.00, 0.00, -0.00, -1.00, 342.6, 22.8)">o</text><text xml:space="preserve" font-family="Chalkduster,Chalkduster" font-size="12.8" fill="#FEFFFE" transform="matrix(1.00, 0.00, -0.00, -1.00, 352.1, 22.8)">n</text><text xml:space="preserve" font-family="Chalkduster,Chalkduster" font-size="12.8" fill="#FEFFFE" transform="matrix(1.00, 0.00, -0.00, -1.00, 361.1, 22.8)">g</text><text xml:space="preserve" font-family="Chalkduster,Chalkduster" font-size="12.8" fill="#FEFFFE" transform="matrix(1.00, 0.00, -0.00, -1.00, 369.8, 22.8)">a</text><text xml:space="preserve" font-family="Chalkduster,Chalkduster" font-size="12.8" fill="#FEFFFE" transform="matrix(1.00, 0.00, -0.00, -1.00, 378.3, 22.8)">m</text><text xml:space="preserve" font-family="Chalkduster,Chalkduster" font-size="12.8" fill="#FEFFFE" transform="matrix(1.00, 0.00, -0.00, -1.00, 391.2, 22.8)">o</text><text xml:space="preserve" font-family="Chalkduster,Chalkduster" font-size="12.8" fill="#FEFFFE" transform="matrix(1.00, 0.00, -0.00, -1.00, 400.5, 22.8)">s</text><text xml:space="preserve" font-family="Chalkduster,Chalkduster" font-size="12.8" fill="#FEFFFE" transform="matrix(1.00, 0.00, -0.00, -1.00, 407.0, 22.8)"> </text><text xml:space="preserve" font-family="Chalkduster,Chalkduster" font-size="12.8" fill="#FEFFFE" transform="matrix(1.00, 0.00, -0.00, -1.00, 15.2, 2.8)">a</text><text xml:space="preserve" font-family="Chalkduster,Chalkduster" font-size="12.8" fill="#FEFFFE" transform="matrix(1.00, 0.00, -0.00, -1.00, 24.0, 2.8)"> </text><text xml:space="preserve" font-family="Chalkduster,Chalkduster" font-size="12.8" fill="#FEFFFE" transform="matrix(1.00, 0.00, -0.00, -1.00, 30.4, 2.8)">l</text><text xml:space="preserve" font-family="Chalkduster,Chalkduster" font-size="12.8" fill="#FEFFFE" transform="matrix(1.00, 0.00, -0.00, -1.00, 35.9, 2.8)">o</text><text xml:space="preserve" font-family="Chalkduster,Chalkduster" font-size="12.8" fill="#FEFFFE" transform="matrix(1.00, 0.00, -0.00, -1.00, 45.2, 2.8)">s</text><text xml:space="preserve" font-family="Chalkduster,Chalkduster" font-size="12.8" fill="#FEFFFE" transform="matrix(1.00, 0.00, -0.00, -1.00, 51.7, 2.8)"> </text><text xml:space="preserve" font-family="Chalkduster,Chalkduster" font-size="12.8" fill="#FEFFFE" transform="matrix(1.00, 0.00, -0.00, -1.00, 58.1, 2.8)">e</text><text xml:space="preserve" font-family="Chalkduster,Chalkduster" font-size="12.8" fill="#FEFFFE" transform="matrix(1.00, 0.00, -0.00, -1.00, 66.3, 2.8)">s</text><text xml:space="preserve" font-family="Chalkduster,Chalkduster" font-size="12.8" fill="#FEFFFE" transform="matrix(1.00, 0.00, -0.00, -1.00, 73.1, 2.8)">t</text><text xml:space="preserve" font-family="Chalkduster,Chalkduster" font-size="12.8" fill="#FEFFFE" transform="matrix(1.00, 0.00, -0.00, -1.00, 79.0, 2.8)">u</text><text xml:space="preserve" font-family="Chalkduster,Chalkduster" font-size="12.8" fill="#FEFFFE" transform="matrix(1.00, 0.00, -0.00, -1.00, 88.5, 2.8)">d</text><text xml:space="preserve" font-family="Chalkduster,Chalkduster" font-size="12.8" fill="#FEFFFE" transform="matrix(1.00, 0.00, -0.00, -1.00, 99.0, 2.8)">i</text><text xml:space="preserve" font-family="Chalkduster,Chalkduster" font-size="12.8" fill="#FEFFFE" transform="matrix(1.00, 0.00, -0.00, -1.00, 104.2, 2.8)">a</text><text xml:space="preserve" font-family="Chalkduster,Chalkduster" font-size="12.8" fill="#FEFFFE" transform="matrix(1.00, 0.00, -0.00, -1.00, 113.0, 2.8)">n</text><text xml:space="preserve" font-family="Chalkduster,Chalkduster" font-size="12.8" fill="#FEFFFE" transform="matrix(1.00, 0.00, -0.00, -1.00, 121.9, 2.8)">t</text><text xml:space="preserve" font-family="Chalkduster,Chalkduster" font-size="12.8" fill="#FEFFFE" transform="matrix(1.00, 0.00, -0.00, -1.00, 127.6, 2.8)">e</text><text xml:space="preserve" font-family="Chalkduster,Chalkduster" font-size="12.8" fill="#FEFFFE" transform="matrix(1.00, 0.00, -0.00, -1.00, 135.8, 2.8)">s</text><text xml:space="preserve" font-family="Chalkduster,Chalkduster" font-size="12.8" fill="#FEFFFE" transform="matrix(1.00, 0.00, -0.00, -1.00, 142.0, 2.8)">.</text></g></svg>