<?xml version="1.0" encoding="UTF-8" standalone="no"?><svg xmlns="http://www.w3.org/2000/svg" xmlns:xlink="http://www.w3.org/1999/xlink" clip-rule="evenodd" stroke-miterlimit="10" viewBox="0 0 408 47"><desc>SVG generated by Keynote</desc><defs></defs><g transform="matrix(1.00, 0.00, -0.00, -1.00, 0.0, 47.0)"><image xlink:href="../../861502F5-C051-4CA8-9910-E538B1C8F451/assets/7083CCEA4E60CFD10D99D1145F80E361.png" width="78.00" height="72.00" transform="matrix(0.11, 0.00, -0.00, -0.11, 0.0, 37.6)"></image><text xml:space="preserve" font-family="Chalkduster,Chalkduster" font-size="14.7" fill="#FEFFFE" transform="matrix(1.00, 0.00, -0.00, -1.00, 17.5, 31.5)">P</text><text xml:space="preserve" font-family="Chalkduster,Chalkduster" font-size="14.7" fill="#FEFFFE" transform="matrix(1.00, 0.00, -0.00, -1.00, 27.7, 31.5)">r</text><text xml:space="preserve" font-family="Chalkduster,Chalkduster" font-size="14.7" fill="#FEFFFE" transform="matrix(1.00, 0.00, -0.00, -1.00, 35.3, 31.5)">o</text><text xml:space="preserve" font-family="Chalkduster,Chalkduster" font-size="14.7" fill="#FEFFFE" transform="matrix(1.00, 0.00, -0.00, -1.00, 45.8, 31.5)">b</text><text xml:space="preserve" font-family="Chalkduster,Chalkduster" font-size="14.7" fill="#FEFFFE" transform="matrix(1.00, 0.00, -0.00, -1.00, 54.7, 31.5)">l</text><text xml:space="preserve" font-family="Chalkduster,Chalkduster" font-size="14.7" fill="#FEFFFE" transform="matrix(1.00, 0.00, -0.00, -1.00, 60.8, 31.5)">e</text><text xml:space="preserve" font-family="Chalkduster,Chalkduster" font-size="14.7" fill="#FEFFFE" transform="matrix(1.00, 0.00, -0.00, -1.00, 69.9, 31.5)">m</text><text xml:space="preserve" font-family="Chalkduster,Chalkduster" font-size="14.7" fill="#FEFFFE" transform="matrix(1.00, 0.00, -0.00, -1.00, 84.8, 31.5)">a</text><text xml:space="preserve" font-family="Chalkduster,Chalkduster" font-size="14.7" fill="#FEFFFE" transform="matrix(1.00, 0.00, -0.00, -1.00, 95.1, 31.5)">s</text><text xml:space="preserve" font-family="Chalkduster,Chalkduster" font-size="14.7" fill="#FEFFFE" transform="matrix(1.00, 0.00, -0.00, -1.00, 102.6, 31.5)"> </text><text xml:space="preserve" font-family="Chalkduster,Chalkduster" font-size="14.7" fill="#FEFFFE" transform="matrix(1.00, 0.00, -0.00, -1.00, 115.1, 31.5)">d</text><text xml:space="preserve" font-family="Chalkduster,Chalkduster" font-size="14.7" fill="#FEFFFE" transform="matrix(1.00, 0.00, -0.00, -1.00, 126.6, 31.5)">e</text><text xml:space="preserve" font-family="Chalkduster,Chalkduster" font-size="14.7" fill="#FEFFFE" transform="matrix(1.00, 0.00, -0.00, -1.00, 135.6, 31.5)">r</text><text xml:space="preserve" font-family="Chalkduster,Chalkduster" font-size="14.7" fill="#FEFFFE" transform="matrix(1.00, 0.00, -0.00, -1.00, 143.7, 31.5)">i</text><text xml:space="preserve" font-family="Chalkduster,Chalkduster" font-size="14.7" fill="#FEFFFE" transform="matrix(1.00, 0.00, -0.00, -1.00, 149.6, 31.5)">v</text><text xml:space="preserve" font-family="Chalkduster,Chalkduster" font-size="14.7" fill="#FEFFFE" transform="matrix(1.00, 0.00, -0.00, -1.00, 157.9, 31.5)">a</text><text xml:space="preserve" font-family="Chalkduster,Chalkduster" font-size="14.7" fill="#FEFFFE" transform="matrix(1.00, 0.00, -0.00, -1.00, 167.6, 31.5)">d</text><text xml:space="preserve" font-family="Chalkduster,Chalkduster" font-size="14.7" fill="#FEFFFE" transform="matrix(1.00, 0.00, -0.00, -1.00, 179.1, 31.5)">o</text><text xml:space="preserve" font-family="Chalkduster,Chalkduster" font-size="14.7" fill="#FEFFFE" transform="matrix(1.00, 0.00, -0.00, -1.00, 189.8, 31.5)">s</text><text xml:space="preserve" font-family="Chalkduster,Chalkduster" font-size="14.7" fill="#FEFFFE" transform="matrix(1.00, 0.00, -0.00, -1.00, 197.3, 31.5)"> </text><text xml:space="preserve" font-family="Chalkduster,Chalkduster" font-size="14.7" fill="#FEFFFE" transform="matrix(1.00, 0.00, -0.00, -1.00, 209.8, 31.5)">d</text><text xml:space="preserve" font-family="Chalkduster,Chalkduster" font-size="14.7" fill="#FEFFFE" transform="matrix(1.00, 0.00, -0.00, -1.00, 221.3, 31.5)">e</text><text xml:space="preserve" font-family="Chalkduster,Chalkduster" font-size="14.7" fill="#FEFFFE" transform="matrix(1.00, 0.00, -0.00, -1.00, 230.4, 31.5)">l</text><text xml:space="preserve" font-family="Chalkduster,Chalkduster" font-size="14.7" fill="#FEFFFE" transform="matrix(1.00, 0.00, -0.00, -1.00, 237.3, 31.5)"> </text><text xml:space="preserve" font-family="Chalkduster,Chalkduster" font-size="14.7" fill="#FEFFFE" transform="matrix(1.00, 0.00, -0.00, -1.00, 249.8, 31.5)">l</text><text xml:space="preserve" font-family="Chalkduster,Chalkduster" font-size="14.7" fill="#FEFFFE" transform="matrix(1.00, 0.00, -0.00, -1.00, 256.9, 31.5)">i</text><text xml:space="preserve" font-family="Chalkduster,Chalkduster" font-size="14.7" fill="#FEFFFE" transform="matrix(1.00, 0.00, -0.00, -1.00, 262.7, 31.5)">b</text><text xml:space="preserve" font-family="Chalkduster,Chalkduster" font-size="14.7" fill="#FEFFFE" transform="matrix(1.00, 0.00, -0.00, -1.00, 271.3, 31.5)">r</text><text xml:space="preserve" font-family="Chalkduster,Chalkduster" font-size="14.7" fill="#FEFFFE" transform="matrix(1.00, 0.00, -0.00, -1.00, 278.7, 31.5)">e</text><text xml:space="preserve" font-family="Chalkduster,Chalkduster" font-size="14.7" fill="#FEFFFE" transform="matrix(1.00, 0.00, -0.00, -1.00, 287.9, 31.5)"> </text><text xml:space="preserve" font-family="Chalkduster,Chalkduster" font-size="14.7" fill="#FEFFFE" transform="matrix(1.00, 0.00, -0.00, -1.00, 300.4, 31.5)">a</text><text xml:space="preserve" font-family="Chalkduster,Chalkduster" font-size="14.7" fill="#FEFFFE" transform="matrix(1.00, 0.00, -0.00, -1.00, 310.1, 31.5)">c</text><text xml:space="preserve" font-family="Chalkduster,Chalkduster" font-size="14.7" fill="#FEFFFE" transform="matrix(1.00, 0.00, -0.00, -1.00, 318.7, 31.5)">c</text><text xml:space="preserve" font-family="Chalkduster,Chalkduster" font-size="14.7" fill="#FEFFFE" transform="matrix(1.00, 0.00, -0.00, -1.00, 327.6, 31.5)">e</text><text xml:space="preserve" font-family="Chalkduster,Chalkduster" font-size="14.7" fill="#FEFFFE" transform="matrix(1.00, 0.00, -0.00, -1.00, 337.1, 31.5)">s</text><text xml:space="preserve" font-family="Chalkduster,Chalkduster" font-size="14.7" fill="#FEFFFE" transform="matrix(1.00, 0.00, -0.00, -1.00, 344.5, 31.5)">o</text><text xml:space="preserve" font-family="Chalkduster,Chalkduster" font-size="14.7" fill="#FEFFFE" transform="matrix(1.00, 0.00, -0.00, -1.00, 355.1, 31.5)"> </text><text xml:space="preserve" font-family="Chalkduster,Chalkduster" font-size="14.7" fill="#FEFFFE" transform="matrix(1.00, 0.00, -0.00, -1.00, 367.6, 31.5)">a</text><text xml:space="preserve" font-family="Chalkduster,Chalkduster" font-size="14.7" fill="#FEFFFE" transform="matrix(1.00, 0.00, -0.00, -1.00, 377.7, 31.5)"> </text><text xml:space="preserve" font-family="Chalkduster,Chalkduster" font-size="14.7" fill="#FEFFFE" transform="matrix(1.00, 0.00, -0.00, -1.00, 390.3, 31.5)">l</text><text xml:space="preserve" font-family="Chalkduster,Chalkduster" font-size="14.7" fill="#FEFFFE" transform="matrix(1.00, 0.00, -0.00, -1.00, 396.9, 31.5)">a</text><text xml:space="preserve" font-family="Chalkduster,Chalkduster" font-size="14.7" fill="#FEFFFE" transform="matrix(1.00, 0.00, -0.00, -1.00, 407.0, 31.5)"> </text><text xml:space="preserve" font-family="Chalkduster,Chalkduster" font-size="14.7" fill="#FEFFFE" transform="matrix(1.00, 0.00, -0.00, -1.00, 17.5, 9.5)">i</text><text xml:space="preserve" font-family="Chalkduster,Chalkduster" font-size="14.7" fill="#FEFFFE" transform="matrix(1.00, 0.00, -0.00, -1.00, 23.3, 9.5)">n</text><text xml:space="preserve" font-family="Chalkduster,Chalkduster" font-size="14.7" fill="#FEFFFE" transform="matrix(1.00, 0.00, -0.00, -1.00, 34.1, 9.5)">f</text><text xml:space="preserve" font-family="Chalkduster,Chalkduster" font-size="14.7" fill="#FEFFFE" transform="matrix(1.00, 0.00, -0.00, -1.00, 41.5, 9.5)">o</text><text xml:space="preserve" font-family="Chalkduster,Chalkduster" font-size="14.7" fill="#FEFFFE" transform="matrix(1.00, 0.00, -0.00, -1.00, 52.2, 9.5)">r</text><text xml:space="preserve" font-family="Chalkduster,Chalkduster" font-size="14.7" fill="#FEFFFE" transform="matrix(1.00, 0.00, -0.00, -1.00, 60.6, 9.5)">m</text><text xml:space="preserve" font-family="Chalkduster,Chalkduster" font-size="14.7" fill="#FEFFFE" transform="matrix(1.00, 0.00, -0.00, -1.00, 75.5, 9.5)">a</text><text xml:space="preserve" font-family="Chalkduster,Chalkduster" font-size="14.7" fill="#FEFFFE" transform="matrix(1.00, 0.00, -0.00, -1.00, 85.2, 9.5)">c</text><text xml:space="preserve" font-family="Chalkduster,Chalkduster" font-size="14.7" fill="#FEFFFE" transform="matrix(1.00, 0.00, -0.00, -1.00, 94.4, 9.5)">i</text><text xml:space="preserve" font-family="Chalkduster,Chalkduster" font-size="14.7" fill="#FEFFFE" transform="matrix(1.00, 0.00, -0.00, -1.00, 100.2, 9.5)">ó</text><text xml:space="preserve" font-family="Chalkduster,Chalkduster" font-size="14.7" fill="#FEFFFE" transform="matrix(1.00, 0.00, -0.00, -1.00, 111.1, 9.5)">n</text><text xml:space="preserve" font-family="Chalkduster,Chalkduster" font-size="14.7" fill="#FEFFFE" transform="matrix(1.00, 0.00, -0.00, -1.00, 121.9, 9.5)"> </text><text xml:space="preserve" font-family="Chalkduster,Chalkduster" font-size="14.7" fill="#FEFFFE" transform="matrix(1.00, 0.00, -0.00, -1.00, 129.2, 9.5)">e</text><text xml:space="preserve" font-family="Chalkduster,Chalkduster" font-size="14.7" fill="#FEFFFE" transform="matrix(1.00, 0.00, -0.00, -1.00, 138.5, 9.5)">n</text><text xml:space="preserve" font-family="Chalkduster,Chalkduster" font-size="14.7" fill="#FEFFFE" transform="matrix(1.00, 0.00, -0.00, -1.00, 149.3, 9.5)"> </text><text xml:space="preserve" font-family="Chalkduster,Chalkduster" font-size="14.7" fill="#FEFFFE" transform="matrix(1.00, 0.00, -0.00, -1.00, 156.6, 9.5)">e</text><text xml:space="preserve" font-family="Chalkduster,Chalkduster" font-size="14.7" fill="#FEFFFE" transform="matrix(1.00, 0.00, -0.00, -1.00, 165.8, 9.5)">l</text><text xml:space="preserve" font-family="Chalkduster,Chalkduster" font-size="14.7" fill="#FEFFFE" transform="matrix(1.00, 0.00, -0.00, -1.00, 172.7, 9.5)"> </text><text xml:space="preserve" font-family="Chalkduster,Chalkduster" font-size="14.7" fill="#FEFFFE" transform="matrix(1.00, 0.00, -0.00, -1.00, 180.0, 9.5)">c</text><text xml:space="preserve" font-family="Chalkduster,Chalkduster" font-size="14.7" fill="#FEFFFE" transform="matrix(1.00, 0.00, -0.00, -1.00, 189.2, 9.5)">i</text><text xml:space="preserve" font-family="Chalkduster,Chalkduster" font-size="14.7" fill="#FEFFFE" transform="matrix(1.00, 0.00, -0.00, -1.00, 195.1, 9.5)">b</text><text xml:space="preserve" font-family="Chalkduster,Chalkduster" font-size="14.7" fill="#FEFFFE" transform="matrix(1.00, 0.00, -0.00, -1.00, 203.6, 9.5)">e</text><text xml:space="preserve" font-family="Chalkduster,Chalkduster" font-size="14.7" fill="#FEFFFE" transform="matrix(1.00, 0.00, -0.00, -1.00, 212.6, 9.5)">r</text><text xml:space="preserve" font-family="Chalkduster,Chalkduster" font-size="14.7" fill="#FEFFFE" transform="matrix(1.00, 0.00, -0.00, -1.00, 220.0, 9.5)">e</text><text xml:space="preserve" font-family="Chalkduster,Chalkduster" font-size="14.7" fill="#FEFFFE" transform="matrix(1.00, 0.00, -0.00, -1.00, 229.5, 9.5)">s</text><text xml:space="preserve" font-family="Chalkduster,Chalkduster" font-size="14.7" fill="#FEFFFE" transform="matrix(1.00, 0.00, -0.00, -1.00, 236.9, 9.5)">p</text><text xml:space="preserve" font-family="Chalkduster,Chalkduster" font-size="14.7" fill="#FEFFFE" transform="matrix(1.00, 0.00, -0.00, -1.00, 246.0, 9.5)">a</text><text xml:space="preserve" font-family="Chalkduster,Chalkduster" font-size="14.7" fill="#FEFFFE" transform="matrix(1.00, 0.00, -0.00, -1.00, 255.7, 9.5)">c</text><text xml:space="preserve" font-family="Chalkduster,Chalkduster" font-size="14.7" fill="#FEFFFE" transform="matrix(1.00, 0.00, -0.00, -1.00, 265.0, 9.5)">i</text><text xml:space="preserve" font-family="Chalkduster,Chalkduster" font-size="14.7" fill="#FEFFFE" transform="matrix(1.00, 0.00, -0.00, -1.00, 270.8, 9.5)">o</text><text xml:space="preserve" font-family="Chalkduster,Chalkduster" font-size="14.7" fill="#FEFFFE" transform="matrix(1.00, 0.00, -0.00, -1.00, 281.4, 9.5)"> </text><text xml:space="preserve" font-family="Chalkduster,Chalkduster" font-size="14.7" fill="#FEFFFE" transform="matrix(1.00, 0.00, -0.00, -1.00, 288.7, 9.5)">(</text><text xml:space="preserve" font-family="Chalkduster,Chalkduster" font-size="14.7" fill="#FEFFFE" transform="matrix(1.00, 0.00, -0.00, -1.00, 294.5, 9.5)">n</text><text xml:space="preserve" font-family="Chalkduster,Chalkduster" font-size="14.7" fill="#FEFFFE" transform="matrix(1.00, 0.00, -0.00, -1.00, 305.6, 9.5)">i</text><text xml:space="preserve" font-family="Chalkduster,Chalkduster" font-size="14.7" fill="#FEFFFE" transform="matrix(1.00, 0.00, -0.00, -1.00, 311.4, 9.5)">ñ</text><text xml:space="preserve" font-family="Chalkduster,Chalkduster" font-size="14.7" fill="#FEFFFE" transform="matrix(1.00, 0.00, -0.00, -1.00, 322.5, 9.5)">o</text><text xml:space="preserve" font-family="Chalkduster,Chalkduster" font-size="14.7" fill="#FEFFFE" transform="matrix(1.00, 0.00, -0.00, -1.00, 333.2, 9.5)">s</text><text xml:space="preserve" font-family="Chalkduster,Chalkduster" font-size="14.7" fill="#FEFFFE" transform="matrix(1.00, 0.00, -0.00, -1.00, 340.3, 9.5)">.</text><text xml:space="preserve" font-family="Chalkduster,Chalkduster" font-size="14.7" fill="#FEFFFE" transform="matrix(1.00, 0.00, -0.00, -1.00, 344.0, 9.5)">.</text><text xml:space="preserve" font-family="Chalkduster,Chalkduster" font-size="14.7" fill="#FEFFFE" transform="matrix(1.00, 0.00, -0.00, -1.00, 347.8, 9.5)">.</text><text xml:space="preserve" font-family="Chalkduster,Chalkduster" font-size="14.7" fill="#FEFFFE" transform="matrix(1.00, 0.00, -0.00, -1.00, 352.8, 9.5)">)</text></g></svg>