<?xml version="1.0" encoding="UTF-8" standalone="no"?><svg xmlns="http://www.w3.org/2000/svg" xmlns:xlink="http://www.w3.org/1999/xlink" clip-rule="evenodd" stroke-miterlimit="10" viewBox="0 0 409 87"><desc>SVG generated by Keynote</desc><defs></defs><g transform="matrix(1.00, 0.00, -0.00, -1.00, 0.0, 87.0)"><image xlink:href="../../861502F5-C051-4CA8-9910-E538B1C8F451/assets/7083CCEA4E60CFD10D99D1145F80E361.png" width="78.00" height="72.00" transform="matrix(0.11, 0.00, -0.00, -0.11, 0.0, 77.9)"></image><text xml:space="preserve" font-family="Chalkduster,Chalkduster" font-size="14.7" fill="#FEFFFE" transform="matrix(1.00, 0.00, -0.00, -1.00, 17.5, 71.8)">L</text><text xml:space="preserve" font-family="Chalkduster,Chalkduster" font-size="14.7" fill="#FEFFFE" transform="matrix(1.00, 0.00, -0.00, -1.00, 26.4, 71.8)">a</text><text xml:space="preserve" font-family="Chalkduster,Chalkduster" font-size="14.7" fill="#FEFFFE" transform="matrix(1.00, 0.00, -0.00, -1.00, 36.5, 71.8)"> </text><text xml:space="preserve" font-family="Chalkduster,Chalkduster" font-size="14.7" fill="#FEFFFE" transform="matrix(1.00, 0.00, -0.00, -1.00, 50.8, 71.8)">p</text><text xml:space="preserve" font-family="Chalkduster,Chalkduster" font-size="14.7" fill="#FEFFFE" transform="matrix(1.00, 0.00, -0.00, -1.00, 59.9, 71.8)">r</text><text xml:space="preserve" font-family="Chalkduster,Chalkduster" font-size="14.7" fill="#FEFFFE" transform="matrix(1.00, 0.00, -0.00, -1.00, 67.4, 71.8)">o</text><text xml:space="preserve" font-family="Chalkduster,Chalkduster" font-size="14.7" fill="#FEFFFE" transform="matrix(1.00, 0.00, -0.00, -1.00, 78.0, 71.8)">b</text><text xml:space="preserve" font-family="Chalkduster,Chalkduster" font-size="14.7" fill="#FEFFFE" transform="matrix(1.00, 0.00, -0.00, -1.00, 86.9, 71.8)">l</text><text xml:space="preserve" font-family="Chalkduster,Chalkduster" font-size="14.7" fill="#FEFFFE" transform="matrix(1.00, 0.00, -0.00, -1.00, 93.0, 71.8)">e</text><text xml:space="preserve" font-family="Chalkduster,Chalkduster" font-size="14.7" fill="#FEFFFE" transform="matrix(1.00, 0.00, -0.00, -1.00, 102.1, 71.8)">m</text><text xml:space="preserve" font-family="Chalkduster,Chalkduster" font-size="14.7" fill="#FEFFFE" transform="matrix(1.00, 0.00, -0.00, -1.00, 117.0, 71.8)">รก</text><text xml:space="preserve" font-family="Chalkduster,Chalkduster" font-size="14.7" fill="#FEFFFE" transform="matrix(1.00, 0.00, -0.00, -1.00, 126.7, 71.8)">t</text><text xml:space="preserve" font-family="Chalkduster,Chalkduster" font-size="14.7" fill="#FEFFFE" transform="matrix(1.00, 0.00, -0.00, -1.00, 133.5, 71.8)">i</text><text xml:space="preserve" font-family="Chalkduster,Chalkduster" font-size="14.7" fill="#FEFFFE" transform="matrix(1.00, 0.00, -0.00, -1.00, 139.4, 71.8)">c</text><text xml:space="preserve" font-family="Chalkduster,Chalkduster" font-size="14.7" fill="#FEFFFE" transform="matrix(1.00, 0.00, -0.00, -1.00, 148.1, 71.8)">a</text><text xml:space="preserve" font-family="Chalkduster,Chalkduster" font-size="14.7" fill="#FEFFFE" transform="matrix(1.00, 0.00, -0.00, -1.00, 158.3, 71.8)"> </text><text xml:space="preserve" font-family="Chalkduster,Chalkduster" font-size="14.7" fill="#FEFFFE" transform="matrix(1.00, 0.00, -0.00, -1.00, 172.6, 71.8)">q</text><text xml:space="preserve" font-family="Chalkduster,Chalkduster" font-size="14.7" fill="#FEFFFE" transform="matrix(1.00, 0.00, -0.00, -1.00, 182.1, 71.8)">u</text><text xml:space="preserve" font-family="Chalkduster,Chalkduster" font-size="14.7" fill="#FEFFFE" transform="matrix(1.00, 0.00, -0.00, -1.00, 192.2, 71.8)">e</text><text xml:space="preserve" font-family="Chalkduster,Chalkduster" font-size="14.7" fill="#FEFFFE" transform="matrix(1.00, 0.00, -0.00, -1.00, 201.3, 71.8)"> </text><text xml:space="preserve" font-family="Chalkduster,Chalkduster" font-size="14.7" fill="#FEFFFE" transform="matrix(1.00, 0.00, -0.00, -1.00, 215.6, 71.8)">s</text><text xml:space="preserve" font-family="Chalkduster,Chalkduster" font-size="14.7" fill="#FEFFFE" transform="matrix(1.00, 0.00, -0.00, -1.00, 223.0, 71.8)">u</text><text xml:space="preserve" font-family="Chalkduster,Chalkduster" font-size="14.7" fill="#FEFFFE" transform="matrix(1.00, 0.00, -0.00, -1.00, 233.4, 71.8)">p</text><text xml:space="preserve" font-family="Chalkduster,Chalkduster" font-size="14.7" fill="#FEFFFE" transform="matrix(1.00, 0.00, -0.00, -1.00, 242.6, 71.8)">o</text><text xml:space="preserve" font-family="Chalkduster,Chalkduster" font-size="14.7" fill="#FEFFFE" transform="matrix(1.00, 0.00, -0.00, -1.00, 253.6, 71.8)">n</text><text xml:space="preserve" font-family="Chalkduster,Chalkduster" font-size="14.7" fill="#FEFFFE" transform="matrix(1.00, 0.00, -0.00, -1.00, 264.6, 71.8)">e</text><text xml:space="preserve" font-family="Chalkduster,Chalkduster" font-size="14.7" fill="#FEFFFE" transform="matrix(1.00, 0.00, -0.00, -1.00, 273.7, 71.8)"> </text><text xml:space="preserve" font-family="Chalkduster,Chalkduster" font-size="14.7" fill="#FEFFFE" transform="matrix(1.00, 0.00, -0.00, -1.00, 288.0, 71.8)">e</text><text xml:space="preserve" font-family="Chalkduster,Chalkduster" font-size="14.7" fill="#FEFFFE" transform="matrix(1.00, 0.00, -0.00, -1.00, 297.2, 71.8)">l</text><text xml:space="preserve" font-family="Chalkduster,Chalkduster" font-size="14.7" fill="#FEFFFE" transform="matrix(1.00, 0.00, -0.00, -1.00, 304.1, 71.8)"> </text><text xml:space="preserve" font-family="Chalkduster,Chalkduster" font-size="14.7" fill="#FEFFFE" transform="matrix(1.00, 0.00, -0.00, -1.00, 318.4, 71.8)">e</text><text xml:space="preserve" font-family="Chalkduster,Chalkduster" font-size="14.7" fill="#FEFFFE" transform="matrix(1.00, 0.00, -0.00, -1.00, 327.0, 71.8)">x</text><text xml:space="preserve" font-family="Chalkduster,Chalkduster" font-size="14.7" fill="#FEFFFE" transform="matrix(1.00, 0.00, -0.00, -1.00, 335.7, 71.8)">c</text><text xml:space="preserve" font-family="Chalkduster,Chalkduster" font-size="14.7" fill="#FEFFFE" transform="matrix(1.00, 0.00, -0.00, -1.00, 344.6, 71.8)">e</text><text xml:space="preserve" font-family="Chalkduster,Chalkduster" font-size="14.7" fill="#FEFFFE" transform="matrix(1.00, 0.00, -0.00, -1.00, 354.1, 71.8)">s</text><text xml:space="preserve" font-family="Chalkduster,Chalkduster" font-size="14.7" fill="#FEFFFE" transform="matrix(1.00, 0.00, -0.00, -1.00, 361.5, 71.8)">o</text><text xml:space="preserve" font-family="Chalkduster,Chalkduster" font-size="14.7" fill="#FEFFFE" transform="matrix(1.00, 0.00, -0.00, -1.00, 372.1, 71.8)"> </text><text xml:space="preserve" font-family="Chalkduster,Chalkduster" font-size="14.7" fill="#FEFFFE" transform="matrix(1.00, 0.00, -0.00, -1.00, 386.4, 71.8)">d</text><text xml:space="preserve" font-family="Chalkduster,Chalkduster" font-size="14.7" fill="#FEFFFE" transform="matrix(1.00, 0.00, -0.00, -1.00, 397.9, 71.8)">e</text><text xml:space="preserve" font-family="Chalkduster,Chalkduster" font-size="14.7" fill="#FEFFFE" transform="matrix(1.00, 0.00, -0.00, -1.00, 407.0, 71.8)"> </text><text xml:space="preserve" font-family="Chalkduster,Chalkduster" font-size="14.7" fill="#FEFFFE" transform="matrix(1.00, 0.00, -0.00, -1.00, 17.5, 49.8)">i</text><text xml:space="preserve" font-family="Chalkduster,Chalkduster" font-size="14.7" fill="#FEFFFE" transform="matrix(1.00, 0.00, -0.00, -1.00, 23.3, 49.8)">n</text><text xml:space="preserve" font-family="Chalkduster,Chalkduster" font-size="14.7" fill="#FEFFFE" transform="matrix(1.00, 0.00, -0.00, -1.00, 34.1, 49.8)">f</text><text xml:space="preserve" font-family="Chalkduster,Chalkduster" font-size="14.7" fill="#FEFFFE" transform="matrix(1.00, 0.00, -0.00, -1.00, 41.5, 49.8)">o</text><text xml:space="preserve" font-family="Chalkduster,Chalkduster" font-size="14.7" fill="#FEFFFE" transform="matrix(1.00, 0.00, -0.00, -1.00, 52.2, 49.8)">r</text><text xml:space="preserve" font-family="Chalkduster,Chalkduster" font-size="14.7" fill="#FEFFFE" transform="matrix(1.00, 0.00, -0.00, -1.00, 60.6, 49.8)">m</text><text xml:space="preserve" font-family="Chalkduster,Chalkduster" font-size="14.7" fill="#FEFFFE" transform="matrix(1.00, 0.00, -0.00, -1.00, 75.5, 49.8)">a</text><text xml:space="preserve" font-family="Chalkduster,Chalkduster" font-size="14.7" fill="#FEFFFE" transform="matrix(1.00, 0.00, -0.00, -1.00, 85.2, 49.8)">c</text><text xml:space="preserve" font-family="Chalkduster,Chalkduster" font-size="14.7" fill="#FEFFFE" transform="matrix(1.00, 0.00, -0.00, -1.00, 94.4, 49.8)">i</text><text xml:space="preserve" font-family="Chalkduster,Chalkduster" font-size="14.7" fill="#FEFFFE" transform="matrix(1.00, 0.00, -0.00, -1.00, 100.2, 49.8)">รณ</text><text xml:space="preserve" font-family="Chalkduster,Chalkduster" font-size="14.7" fill="#FEFFFE" transform="matrix(1.00, 0.00, -0.00, -1.00, 111.1, 49.8)">n</text><text xml:space="preserve" font-family="Chalkduster,Chalkduster" font-size="14.7" fill="#FEFFFE" transform="matrix(1.00, 0.00, -0.00, -1.00, 121.9, 49.8)"> </text><text xml:space="preserve" font-family="Chalkduster,Chalkduster" font-size="14.7" fill="#FEFFFE" transform="matrix(1.00, 0.00, -0.00, -1.00, 130.6, 49.8)">e</text><text xml:space="preserve" font-family="Chalkduster,Chalkduster" font-size="14.7" fill="#FEFFFE" transform="matrix(1.00, 0.00, -0.00, -1.00, 139.8, 49.8)">n</text><text xml:space="preserve" font-family="Chalkduster,Chalkduster" font-size="14.7" fill="#FEFFFE" transform="matrix(1.00, 0.00, -0.00, -1.00, 150.6, 49.8)"> </text><text xml:space="preserve" font-family="Chalkduster,Chalkduster" font-size="14.7" fill="#FEFFFE" transform="matrix(1.00, 0.00, -0.00, -1.00, 159.3, 49.8)">a</text><text xml:space="preserve" font-family="Chalkduster,Chalkduster" font-size="14.7" fill="#FEFFFE" transform="matrix(1.00, 0.00, -0.00, -1.00, 168.8, 49.8)">l</text><text xml:space="preserve" font-family="Chalkduster,Chalkduster" font-size="14.7" fill="#FEFFFE" transform="matrix(1.00, 0.00, -0.00, -1.00, 175.7, 49.8)"> </text><text xml:space="preserve" font-family="Chalkduster,Chalkduster" font-size="14.7" fill="#FEFFFE" transform="matrix(1.00, 0.00, -0.00, -1.00, 184.4, 49.8)">R</text><text xml:space="preserve" font-family="Chalkduster,Chalkduster" font-size="14.7" fill="#FEFFFE" transform="matrix(1.00, 0.00, -0.00, -1.00, 195.8, 49.8)">e</text><text xml:space="preserve" font-family="Chalkduster,Chalkduster" font-size="14.7" fill="#FEFFFE" transform="matrix(1.00, 0.00, -0.00, -1.00, 205.4, 49.8)">d</text><text xml:space="preserve" font-family="Chalkduster,Chalkduster" font-size="14.7" fill="#FEFFFE" transform="matrix(1.00, 0.00, -0.00, -1.00, 216.9, 49.8)">,</text><text xml:space="preserve" font-family="Chalkduster,Chalkduster" font-size="14.7" fill="#FEFFFE" transform="matrix(1.00, 0.00, -0.00, -1.00, 221.4, 49.8)"> </text><text xml:space="preserve" font-family="Chalkduster,Chalkduster" font-size="14.7" fill="#FEFFFE" transform="matrix(1.00, 0.00, -0.00, -1.00, 230.1, 49.8)">q</text><text xml:space="preserve" font-family="Chalkduster,Chalkduster" font-size="14.7" fill="#FEFFFE" transform="matrix(1.00, 0.00, -0.00, -1.00, 239.6, 49.8)">u</text><text xml:space="preserve" font-family="Chalkduster,Chalkduster" font-size="14.7" fill="#FEFFFE" transform="matrix(1.00, 0.00, -0.00, -1.00, 249.7, 49.8)">e</text><text xml:space="preserve" font-family="Chalkduster,Chalkduster" font-size="14.7" fill="#FEFFFE" transform="matrix(1.00, 0.00, -0.00, -1.00, 258.8, 49.8)"> </text><text xml:space="preserve" font-family="Chalkduster,Chalkduster" font-size="14.7" fill="#FEFFFE" transform="matrix(1.00, 0.00, -0.00, -1.00, 267.5, 49.8)">m</text><text xml:space="preserve" font-family="Chalkduster,Chalkduster" font-size="14.7" fill="#FEFFFE" transform="matrix(1.00, 0.00, -0.00, -1.00, 282.4, 49.8)">u</text><text xml:space="preserve" font-family="Chalkduster,Chalkduster" font-size="14.7" fill="#FEFFFE" transform="matrix(1.00, 0.00, -0.00, -1.00, 292.5, 49.8)">c</text><text xml:space="preserve" font-family="Chalkduster,Chalkduster" font-size="14.7" fill="#FEFFFE" transform="matrix(1.00, 0.00, -0.00, -1.00, 301.8, 49.8)">h</text><text xml:space="preserve" font-family="Chalkduster,Chalkduster" font-size="14.7" fill="#FEFFFE" transform="matrix(1.00, 0.00, -0.00, -1.00, 310.9, 49.8)">a</text><text xml:space="preserve" font-family="Chalkduster,Chalkduster" font-size="14.7" fill="#FEFFFE" transform="matrix(1.00, 0.00, -0.00, -1.00, 321.2, 49.8)">s</text><text xml:space="preserve" font-family="Chalkduster,Chalkduster" font-size="14.7" fill="#FEFFFE" transform="matrix(1.00, 0.00, -0.00, -1.00, 328.6, 49.8)"> </text><text xml:space="preserve" font-family="Chalkduster,Chalkduster" font-size="14.7" fill="#FEFFFE" transform="matrix(1.00, 0.00, -0.00, -1.00, 337.3, 49.8)">v</text><text xml:space="preserve" font-family="Chalkduster,Chalkduster" font-size="14.7" fill="#FEFFFE" transform="matrix(1.00, 0.00, -0.00, -1.00, 346.3, 49.8)">e</text><text xml:space="preserve" font-family="Chalkduster,Chalkduster" font-size="14.7" fill="#FEFFFE" transform="matrix(1.00, 0.00, -0.00, -1.00, 355.7, 49.8)">c</text><text xml:space="preserve" font-family="Chalkduster,Chalkduster" font-size="14.7" fill="#FEFFFE" transform="matrix(1.00, 0.00, -0.00, -1.00, 364.6, 49.8)">e</text><text xml:space="preserve" font-family="Chalkduster,Chalkduster" font-size="14.7" fill="#FEFFFE" transform="matrix(1.00, 0.00, -0.00, -1.00, 374.0, 49.8)">s</text><text xml:space="preserve" font-family="Chalkduster,Chalkduster" font-size="14.7" fill="#FEFFFE" transform="matrix(1.00, 0.00, -0.00, -1.00, 381.5, 49.8)"> </text><text xml:space="preserve" font-family="Chalkduster,Chalkduster" font-size="14.7" fill="#FEFFFE" transform="matrix(1.00, 0.00, -0.00, -1.00, 390.1, 49.8)">e</text><text xml:space="preserve" font-family="Chalkduster,Chalkduster" font-size="14.7" fill="#FEFFFE" transform="matrix(1.00, 0.00, -0.00, -1.00, 399.6, 49.8)">s</text><text xml:space="preserve" font-family="Chalkduster,Chalkduster" font-size="14.7" fill="#FEFFFE" transform="matrix(1.00, 0.00, -0.00, -1.00, 407.0, 49.8)"> </text><text xml:space="preserve" font-family="Chalkduster,Chalkduster" font-size="14.7" fill="#FEFFFE" transform="matrix(1.00, 0.00, -0.00, -1.00, 17.5, 27.8)">s</text><text xml:space="preserve" font-family="Chalkduster,Chalkduster" font-size="14.7" fill="#FEFFFE" transform="matrix(1.00, 0.00, -0.00, -1.00, 25.8, 27.8)">i</text><text xml:space="preserve" font-family="Chalkduster,Chalkduster" font-size="14.7" fill="#FEFFFE" transform="matrix(1.00, 0.00, -0.00, -1.00, 32.4, 27.8)">m</text><text xml:space="preserve" font-family="Chalkduster,Chalkduster" font-size="14.7" fill="#FEFFFE" transform="matrix(1.00, 0.00, -0.00, -1.00, 48.2, 27.8)">p</text><text xml:space="preserve" font-family="Chalkduster,Chalkduster" font-size="14.7" fill="#FEFFFE" transform="matrix(1.00, 0.00, -0.00, -1.00, 58.2, 27.8)">l</text><text xml:space="preserve" font-family="Chalkduster,Chalkduster" font-size="14.7" fill="#FEFFFE" transform="matrix(1.00, 0.00, -0.00, -1.00, 65.1, 27.8)">e</text><text xml:space="preserve" font-family="Chalkduster,Chalkduster" font-size="14.7" fill="#FEFFFE" transform="matrix(1.00, 0.00, -0.00, -1.00, 75.1, 27.8)">m</text><text xml:space="preserve" font-family="Chalkduster,Chalkduster" font-size="14.7" fill="#FEFFFE" transform="matrix(1.00, 0.00, -0.00, -1.00, 91.2, 27.8)">e</text><text xml:space="preserve" font-family="Chalkduster,Chalkduster" font-size="14.7" fill="#FEFFFE" transform="matrix(1.00, 0.00, -0.00, -1.00, 101.4, 27.8)">n</text><text xml:space="preserve" font-family="Chalkduster,Chalkduster" font-size="14.7" fill="#FEFFFE" transform="matrix(1.00, 0.00, -0.00, -1.00, 112.5, 27.8)">t</text><text xml:space="preserve" font-family="Chalkduster,Chalkduster" font-size="14.7" fill="#FEFFFE" transform="matrix(1.00, 0.00, -0.00, -1.00, 119.9, 27.8)">e</text><text xml:space="preserve" font-family="Chalkduster,Chalkduster" font-size="14.7" fill="#FEFFFE" transform="matrix(1.00, 0.00, -0.00, -1.00, 129.0, 27.8)"> </text><text xml:space="preserve" font-family="Chalkduster,Chalkduster" font-size="14.7" fill="#FEFFFE" transform="matrix(1.00, 0.00, -0.00, -1.00, 144.1, 27.8)">"</text><text xml:space="preserve" font-family="Chalkduster,Chalkduster" font-size="14.7" fill="#FEFFFE" transform="matrix(1.00, 0.00, -0.00, -1.00, 152.4, 27.8)">b</text><text xml:space="preserve" font-family="Chalkduster,Chalkduster" font-size="14.7" fill="#FEFFFE" transform="matrix(1.00, 0.00, -0.00, -1.00, 161.5, 27.8)">a</text><text xml:space="preserve" font-family="Chalkduster,Chalkduster" font-size="14.7" fill="#FEFFFE" transform="matrix(1.00, 0.00, -0.00, -1.00, 172.7, 27.8)">s</text><text xml:space="preserve" font-family="Chalkduster,Chalkduster" font-size="14.7" fill="#FEFFFE" transform="matrix(1.00, 0.00, -0.00, -1.00, 181.0, 27.8)">u</text><text xml:space="preserve" font-family="Chalkduster,Chalkduster" font-size="14.7" fill="#FEFFFE" transform="matrix(1.00, 0.00, -0.00, -1.00, 192.2, 27.8)">r</text><text xml:space="preserve" font-family="Chalkduster,Chalkduster" font-size="14.7" fill="#FEFFFE" transform="matrix(1.00, 0.00, -0.00, -1.00, 200.8, 27.8)">a</text><text xml:space="preserve" font-family="Chalkduster,Chalkduster" font-size="14.7" fill="#FEFFFE" transform="matrix(1.00, 0.00, -0.00, -1.00, 211.8, 27.8)">"</text><text xml:space="preserve" font-family="Chalkduster,Chalkduster" font-size="14.7" fill="#FEFFFE" transform="matrix(1.00, 0.00, -0.00, -1.00, 219.3, 27.8)"> </text><text xml:space="preserve" font-family="Chalkduster,Chalkduster" font-size="14.7" fill="#FEFFFE" transform="matrix(1.00, 0.00, -0.00, -1.00, 234.4, 27.8)">q</text><text xml:space="preserve" font-family="Chalkduster,Chalkduster" font-size="14.7" fill="#FEFFFE" transform="matrix(1.00, 0.00, -0.00, -1.00, 244.7, 27.8)">u</text><text xml:space="preserve" font-family="Chalkduster,Chalkduster" font-size="14.7" fill="#FEFFFE" transform="matrix(1.00, 0.00, -0.00, -1.00, 255.7, 27.8)">e</text><text xml:space="preserve" font-family="Chalkduster,Chalkduster" font-size="14.7" fill="#FEFFFE" transform="matrix(1.00, 0.00, -0.00, -1.00, 264.9, 27.8)"> </text><text xml:space="preserve" font-family="Chalkduster,Chalkduster" font-size="14.7" fill="#FEFFFE" transform="matrix(1.00, 0.00, -0.00, -1.00, 280.0, 27.8)">c</text><text xml:space="preserve" font-family="Chalkduster,Chalkduster" font-size="14.7" fill="#FEFFFE" transform="matrix(1.00, 0.00, -0.00, -1.00, 289.6, 27.8)">o</text><text xml:space="preserve" font-family="Chalkduster,Chalkduster" font-size="14.7" fill="#FEFFFE" transform="matrix(1.00, 0.00, -0.00, -1.00, 301.4, 27.8)">n</text><text xml:space="preserve" font-family="Chalkduster,Chalkduster" font-size="14.7" fill="#FEFFFE" transform="matrix(1.00, 0.00, -0.00, -1.00, 312.5, 27.8)">t</text><text xml:space="preserve" font-family="Chalkduster,Chalkduster" font-size="14.7" fill="#FEFFFE" transform="matrix(1.00, 0.00, -0.00, -1.00, 320.0, 27.8)">a</text><text xml:space="preserve" font-family="Chalkduster,Chalkduster" font-size="14.7" fill="#FEFFFE" transform="matrix(1.00, 0.00, -0.00, -1.00, 330.5, 27.8)">m</text><text xml:space="preserve" font-family="Chalkduster,Chalkduster" font-size="14.7" fill="#FEFFFE" transform="matrix(1.00, 0.00, -0.00, -1.00, 346.5, 27.8)">i</text><text xml:space="preserve" font-family="Chalkduster,Chalkduster" font-size="14.7" fill="#FEFFFE" transform="matrix(1.00, 0.00, -0.00, -1.00, 353.2, 27.8)">n</text><text xml:space="preserve" font-family="Chalkduster,Chalkduster" font-size="14.7" fill="#FEFFFE" transform="matrix(1.00, 0.00, -0.00, -1.00, 364.8, 27.8)">a</text><text xml:space="preserve" font-family="Chalkduster,Chalkduster" font-size="14.7" fill="#FEFFFE" transform="matrix(1.00, 0.00, -0.00, -1.00, 375.0, 27.8)"> </text><text xml:space="preserve" font-family="Chalkduster,Chalkduster" font-size="14.7" fill="#FEFFFE" transform="matrix(1.00, 0.00, -0.00, -1.00, 390.1, 27.8)">e</text><text xml:space="preserve" font-family="Chalkduster,Chalkduster" font-size="14.7" fill="#FEFFFE" transform="matrix(1.00, 0.00, -0.00, -1.00, 400.1, 27.8)">l</text><text xml:space="preserve" font-family="Chalkduster,Chalkduster" font-size="14.7" fill="#FEFFFE" transform="matrix(1.00, 0.00, -0.00, -1.00, 407.0, 27.8)"> </text><text xml:space="preserve" font-family="Chalkduster,Chalkduster" font-size="14.7" fill="#FEFFFE" transform="matrix(1.00, 0.00, -0.00, -1.00, 17.5, 5.8)">m</text><text xml:space="preserve" font-family="Chalkduster,Chalkduster" font-size="14.7" fill="#FEFFFE" transform="matrix(1.00, 0.00, -0.00, -1.00, 32.7, 5.8)">e</text><text xml:space="preserve" font-family="Chalkduster,Chalkduster" font-size="14.7" fill="#FEFFFE" transform="matrix(1.00, 0.00, -0.00, -1.00, 42.3, 5.8)">d</text><text xml:space="preserve" font-family="Chalkduster,Chalkduster" font-size="14.7" fill="#FEFFFE" transform="matrix(1.00, 0.00, -0.00, -1.00, 54.4, 5.8)">i</text><text xml:space="preserve" font-family="Chalkduster,Chalkduster" font-size="14.7" fill="#FEFFFE" transform="matrix(1.00, 0.00, -0.00, -1.00, 60.2, 5.8)">o</text><text xml:space="preserve" font-family="Chalkduster,Chalkduster" font-size="14.7" fill="#FEFFFE" transform="matrix(1.00, 0.00, -0.00, -1.00, 70.8, 5.8)"> </text><text xml:space="preserve" font-family="Chalkduster,Chalkduster" font-size="14.7" fill="#FEFFFE" transform="matrix(1.00, 0.00, -0.00, -1.00, 78.1, 5.8)">d</text><text xml:space="preserve" font-family="Chalkduster,Chalkduster" font-size="14.7" fill="#FEFFFE" transform="matrix(1.00, 0.00, -0.00, -1.00, 90.2, 5.8)">i</text><text xml:space="preserve" font-family="Chalkduster,Chalkduster" font-size="14.7" fill="#FEFFFE" transform="matrix(1.00, 0.00, -0.00, -1.00, 95.4, 5.8)">f</text><text xml:space="preserve" font-family="Chalkduster,Chalkduster" font-size="14.7" fill="#FEFFFE" transform="matrix(1.00, 0.00, -0.00, -1.00, 103.2, 5.8)">i</text><text xml:space="preserve" font-family="Chalkduster,Chalkduster" font-size="14.7" fill="#FEFFFE" transform="matrix(1.00, 0.00, -0.00, -1.00, 109.2, 5.8)">c</text><text xml:space="preserve" font-family="Chalkduster,Chalkduster" font-size="14.7" fill="#FEFFFE" transform="matrix(1.00, 0.00, -0.00, -1.00, 118.4, 5.8)">u</text><text xml:space="preserve" font-family="Chalkduster,Chalkduster" font-size="14.7" fill="#FEFFFE" transform="matrix(1.00, 0.00, -0.00, -1.00, 128.9, 5.8)">l</text><text xml:space="preserve" font-family="Chalkduster,Chalkduster" font-size="14.7" fill="#FEFFFE" transform="matrix(1.00, 0.00, -0.00, -1.00, 134.3, 5.8)">t</text><text xml:space="preserve" font-family="Chalkduster,Chalkduster" font-size="14.7" fill="#FEFFFE" transform="matrix(1.00, 0.00, -0.00, -1.00, 140.9, 5.8)">a</text><text xml:space="preserve" font-family="Chalkduster,Chalkduster" font-size="14.7" fill="#FEFFFE" transform="matrix(1.00, 0.00, -0.00, -1.00, 151.0, 5.8)">n</text><text xml:space="preserve" font-family="Chalkduster,Chalkduster" font-size="14.7" fill="#FEFFFE" transform="matrix(1.00, 0.00, -0.00, -1.00, 161.8, 5.8)">d</text><text xml:space="preserve" font-family="Chalkduster,Chalkduster" font-size="14.7" fill="#FEFFFE" transform="matrix(1.00, 0.00, -0.00, -1.00, 173.3, 5.8)">o</text><text xml:space="preserve" font-family="Chalkduster,Chalkduster" font-size="14.7" fill="#FEFFFE" transform="matrix(1.00, 0.00, -0.00, -1.00, 183.9, 5.8)"> </text><text xml:space="preserve" font-family="Chalkduster,Chalkduster" font-size="14.7" fill="#FEFFFE" transform="matrix(1.00, 0.00, -0.00, -1.00, 191.2, 5.8)">s</text><text xml:space="preserve" font-family="Chalkduster,Chalkduster" font-size="14.7" fill="#FEFFFE" transform="matrix(1.00, 0.00, -0.00, -1.00, 198.6, 5.8)">u</text><text xml:space="preserve" font-family="Chalkduster,Chalkduster" font-size="14.7" fill="#FEFFFE" transform="matrix(1.00, 0.00, -0.00, -1.00, 208.8, 5.8)"> </text><text xml:space="preserve" font-family="Chalkduster,Chalkduster" font-size="14.7" fill="#FEFFFE" transform="matrix(1.00, 0.00, -0.00, -1.00, 216.1, 5.8)">u</text><text xml:space="preserve" font-family="Chalkduster,Chalkduster" font-size="14.7" fill="#FEFFFE" transform="matrix(1.00, 0.00, -0.00, -1.00, 226.0, 5.8)">t</text><text xml:space="preserve" font-family="Chalkduster,Chalkduster" font-size="14.7" fill="#FEFFFE" transform="matrix(1.00, 0.00, -0.00, -1.00, 232.9, 5.8)">i</text><text xml:space="preserve" font-family="Chalkduster,Chalkduster" font-size="14.7" fill="#FEFFFE" transform="matrix(1.00, 0.00, -0.00, -1.00, 238.8, 5.8)">l</text><text xml:space="preserve" font-family="Chalkduster,Chalkduster" font-size="14.7" fill="#FEFFFE" transform="matrix(1.00, 0.00, -0.00, -1.00, 245.9, 5.8)">i</text><text xml:space="preserve" font-family="Chalkduster,Chalkduster" font-size="14.7" fill="#FEFFFE" transform="matrix(1.00, 0.00, -0.00, -1.00, 251.7, 5.8)">z</text><text xml:space="preserve" font-family="Chalkduster,Chalkduster" font-size="14.7" fill="#FEFFFE" transform="matrix(1.00, 0.00, -0.00, -1.00, 261.3, 5.8)">a</text><text xml:space="preserve" font-family="Chalkduster,Chalkduster" font-size="14.7" fill="#FEFFFE" transform="matrix(1.00, 0.00, -0.00, -1.00, 270.9, 5.8)">c</text><text xml:space="preserve" font-family="Chalkduster,Chalkduster" font-size="14.7" fill="#FEFFFE" transform="matrix(1.00, 0.00, -0.00, -1.00, 280.2, 5.8)">i</text><text xml:space="preserve" font-family="Chalkduster,Chalkduster" font-size="14.7" fill="#FEFFFE" transform="matrix(1.00, 0.00, -0.00, -1.00, 286.0, 5.8)">รณ</text><text xml:space="preserve" font-family="Chalkduster,Chalkduster" font-size="14.7" fill="#FEFFFE" transform="matrix(1.00, 0.00, -0.00, -1.00, 296.9, 5.8)">n</text><text xml:space="preserve" font-family="Chalkduster,Chalkduster" font-size="14.7" fill="#FEFFFE" transform="matrix(1.00, 0.00, -0.00, -1.00, 307.7, 5.8)">.</text></g></svg>