<?xml version="1.0" encoding="UTF-8" standalone="no"?><svg xmlns="http://www.w3.org/2000/svg" xmlns:xlink="http://www.w3.org/1999/xlink" clip-rule="evenodd" stroke-miterlimit="10" viewBox="0 0 408 63"><desc>SVG generated by Keynote</desc><defs></defs><g transform="matrix(1.00, 0.00, -0.00, -1.00, 0.0, 63.0)"><image xlink:href="../../C0B0FA9B-2AED-4E81-BF99-7B48688FC47B/assets/7083CCEA4E60CFD10D99D1145F80E361.png" width="78.00" height="72.00" transform="matrix(0.18, 0.00, -0.00, -0.18, 0.0, 53.0)"></image><text xml:space="preserve" font-family="Chalkduster,Chalkduster" font-size="24.0" fill="#FEFFFE" transform="matrix(1.00, 0.00, -0.00, -1.00, 28.5, 41.1)">E</text><text xml:space="preserve" font-family="Chalkduster,Chalkduster" font-size="24.0" fill="#FEFFFE" transform="matrix(1.00, 0.00, -0.00, -1.00, 46.2, 41.1)">s</text><text xml:space="preserve" font-family="Chalkduster,Chalkduster" font-size="24.0" fill="#FEFFFE" transform="matrix(1.00, 0.00, -0.00, -1.00, 59.1, 41.1)">t</text><text xml:space="preserve" font-family="Chalkduster,Chalkduster" font-size="24.0" fill="#FEFFFE" transform="matrix(1.00, 0.00, -0.00, -1.00, 70.1, 41.1)">u</text><text xml:space="preserve" font-family="Chalkduster,Chalkduster" font-size="24.0" fill="#FEFFFE" transform="matrix(1.00, 0.00, -0.00, -1.00, 87.8, 41.1)">d</text><text xml:space="preserve" font-family="Chalkduster,Chalkduster" font-size="24.0" fill="#FEFFFE" transform="matrix(1.00, 0.00, -0.00, -1.00, 107.6, 41.1)">i</text><text xml:space="preserve" font-family="Chalkduster,Chalkduster" font-size="24.0" fill="#FEFFFE" transform="matrix(1.00, 0.00, -0.00, -1.00, 117.3, 41.1)">a</text><text xml:space="preserve" font-family="Chalkduster,Chalkduster" font-size="24.0" fill="#FEFFFE" transform="matrix(1.00, 0.00, -0.00, -1.00, 133.8, 41.1)">n</text><text xml:space="preserve" font-family="Chalkduster,Chalkduster" font-size="24.0" fill="#FEFFFE" transform="matrix(1.00, 0.00, -0.00, -1.00, 150.5, 41.1)">t</text><text xml:space="preserve" font-family="Chalkduster,Chalkduster" font-size="24.0" fill="#FEFFFE" transform="matrix(1.00, 0.00, -0.00, -1.00, 161.2, 41.1)">e</text><text xml:space="preserve" font-family="Chalkduster,Chalkduster" font-size="24.0" fill="#FEFFFE" transform="matrix(1.00, 0.00, -0.00, -1.00, 176.1, 41.1)"> </text><text xml:space="preserve" font-family="Chalkduster,Chalkduster" font-size="24.0" fill="#FEFFFE" transform="matrix(1.00, 0.00, -0.00, -1.00, 190.3, 41.1)">d</text><text xml:space="preserve" font-family="Chalkduster,Chalkduster" font-size="24.0" fill="#FEFFFE" transform="matrix(1.00, 0.00, -0.00, -1.00, 209.1, 41.1)">e</text><text xml:space="preserve" font-family="Chalkduster,Chalkduster" font-size="24.0" fill="#FEFFFE" transform="matrix(1.00, 0.00, -0.00, -1.00, 224.0, 41.1)"> </text><text xml:space="preserve" font-family="Chalkduster,Chalkduster" font-size="24.0" fill="#FEFFFE" transform="matrix(1.00, 0.00, -0.00, -1.00, 238.1, 41.1)">L</text><text xml:space="preserve" font-family="Chalkduster,Chalkduster" font-size="24.0" fill="#FEFFFE" transform="matrix(1.00, 0.00, -0.00, -1.00, 253.3, 41.1)">i</text><text xml:space="preserve" font-family="Chalkduster,Chalkduster" font-size="24.0" fill="#FEFFFE" transform="matrix(1.00, 0.00, -0.00, -1.00, 263.1, 41.1)">c</text><text xml:space="preserve" font-family="Chalkduster,Chalkduster" font-size="24.0" fill="#FEFFFE" transform="matrix(1.00, 0.00, -0.00, -1.00, 277.6, 41.1)">e</text><text xml:space="preserve" font-family="Chalkduster,Chalkduster" font-size="24.0" fill="#FEFFFE" transform="matrix(1.00, 0.00, -0.00, -1.00, 292.7, 41.1)">n</text><text xml:space="preserve" font-family="Chalkduster,Chalkduster" font-size="24.0" fill="#FEFFFE" transform="matrix(1.00, 0.00, -0.00, -1.00, 310.3, 41.1)">c</text><text xml:space="preserve" font-family="Chalkduster,Chalkduster" font-size="24.0" fill="#FEFFFE" transform="matrix(1.00, 0.00, -0.00, -1.00, 325.4, 41.1)">i</text><text xml:space="preserve" font-family="Chalkduster,Chalkduster" font-size="24.0" fill="#FEFFFE" transform="matrix(1.00, 0.00, -0.00, -1.00, 335.1, 41.1)">a</text><text xml:space="preserve" font-family="Chalkduster,Chalkduster" font-size="24.0" fill="#FEFFFE" transform="matrix(1.00, 0.00, -0.00, -1.00, 350.0, 41.1)">t</text><text xml:space="preserve" font-family="Chalkduster,Chalkduster" font-size="24.0" fill="#FEFFFE" transform="matrix(1.00, 0.00, -0.00, -1.00, 361.0, 41.1)">u</text><text xml:space="preserve" font-family="Chalkduster,Chalkduster" font-size="24.0" fill="#FEFFFE" transform="matrix(1.00, 0.00, -0.00, -1.00, 377.8, 41.1)">r</text><text xml:space="preserve" font-family="Chalkduster,Chalkduster" font-size="24.0" fill="#FEFFFE" transform="matrix(1.00, 0.00, -0.00, -1.00, 390.5, 41.1)">a</text><text xml:space="preserve" font-family="Chalkduster,Chalkduster" font-size="24.0" fill="#FEFFFE" transform="matrix(1.00, 0.00, -0.00, -1.00, 407.0, 41.1)"> </text><text xml:space="preserve" font-family="Chalkduster,Chalkduster" font-size="24.0" fill="#FEFFFE" transform="matrix(1.00, 0.00, -0.00, -1.00, 28.5, 4.1)">e</text><text xml:space="preserve" font-family="Chalkduster,Chalkduster" font-size="24.0" fill="#FEFFFE" transform="matrix(1.00, 0.00, -0.00, -1.00, 43.6, 4.1)">n</text><text xml:space="preserve" font-family="Chalkduster,Chalkduster" font-size="24.0" fill="#FEFFFE" transform="matrix(1.00, 0.00, -0.00, -1.00, 61.2, 4.1)"> </text><text xml:space="preserve" font-family="Chalkduster,Chalkduster" font-size="24.0" fill="#FEFFFE" transform="matrix(1.00, 0.00, -0.00, -1.00, 73.2, 4.1)">D</text><text xml:space="preserve" font-family="Chalkduster,Chalkduster" font-size="24.0" fill="#FEFFFE" transform="matrix(1.00, 0.00, -0.00, -1.00, 90.0, 4.1)">o</text><text xml:space="preserve" font-family="Chalkduster,Chalkduster" font-size="24.0" fill="#FEFFFE" transform="matrix(1.00, 0.00, -0.00, -1.00, 107.6, 4.1)">c</text><text xml:space="preserve" font-family="Chalkduster,Chalkduster" font-size="24.0" fill="#FEFFFE" transform="matrix(1.00, 0.00, -0.00, -1.00, 122.1, 4.1)">e</text><text xml:space="preserve" font-family="Chalkduster,Chalkduster" font-size="24.0" fill="#FEFFFE" transform="matrix(1.00, 0.00, -0.00, -1.00, 137.3, 4.1)">n</text><text xml:space="preserve" font-family="Chalkduster,Chalkduster" font-size="24.0" fill="#FEFFFE" transform="matrix(1.00, 0.00, -0.00, -1.00, 154.9, 4.1)">c</text><text xml:space="preserve" font-family="Chalkduster,Chalkduster" font-size="24.0" fill="#FEFFFE" transform="matrix(1.00, 0.00, -0.00, -1.00, 170.0, 4.1)">i</text><text xml:space="preserve" font-family="Chalkduster,Chalkduster" font-size="24.0" fill="#FEFFFE" transform="matrix(1.00, 0.00, -0.00, -1.00, 179.7, 4.1)">a</text><text xml:space="preserve" font-family="Chalkduster,Chalkduster" font-size="24.0" fill="#FEFFFE" transform="matrix(1.00, 0.00, -0.00, -1.00, 196.2, 4.1)"> </text><text xml:space="preserve" font-family="Chalkduster,Chalkduster" font-size="24.0" fill="#FEFFFE" transform="matrix(1.00, 0.00, -0.00, -1.00, 208.2, 4.1)">e</text><text xml:space="preserve" font-family="Chalkduster,Chalkduster" font-size="24.0" fill="#FEFFFE" transform="matrix(1.00, 0.00, -0.00, -1.00, 223.3, 4.1)">n</text><text xml:space="preserve" font-family="Chalkduster,Chalkduster" font-size="24.0" fill="#FEFFFE" transform="matrix(1.00, 0.00, -0.00, -1.00, 240.9, 4.1)"> </text><text xml:space="preserve" font-family="Chalkduster,Chalkduster" font-size="24.0" fill="#FEFFFE" transform="matrix(1.00, 0.00, -0.00, -1.00, 252.8, 4.1)">l</text><text xml:space="preserve" font-family="Chalkduster,Chalkduster" font-size="24.0" fill="#FEFFFE" transform="matrix(1.00, 0.00, -0.00, -1.00, 263.6, 4.1)">a</text><text xml:space="preserve" font-family="Chalkduster,Chalkduster" font-size="24.0" fill="#FEFFFE" transform="matrix(1.00, 0.00, -0.00, -1.00, 280.1, 4.1)"> </text><text xml:space="preserve" font-family="Chalkduster,Chalkduster" font-size="24.0" fill="#FEFFFE" transform="matrix(1.00, 0.00, -0.00, -1.00, 292.1, 4.1)">U</text><text xml:space="preserve" font-family="Chalkduster,Chalkduster" font-size="24.0" fill="#FEFFFE" transform="matrix(1.00, 0.00, -0.00, -1.00, 309.2, 4.1)">M</text><text xml:space="preserve" font-family="Chalkduster,Chalkduster" font-size="24.0" fill="#FEFFFE" transform="matrix(1.00, 0.00, -0.00, -1.00, 328.8, 4.1)">C</text><text xml:space="preserve" font-family="Chalkduster,Chalkduster" font-size="24.0" fill="#FEFFFE" transform="matrix(1.00, 0.00, -0.00, -1.00, 348.2, 4.1)">A</text><text xml:space="preserve" font-family="Chalkduster,Chalkduster" font-size="24.0" fill="#FEFFFE" transform="matrix(1.00, 0.00, -0.00, -1.00, 365.4, 4.1)">.</text></g></svg>