<?xml version="1.0" encoding="UTF-8" standalone="no"?><svg xmlns="http://www.w3.org/2000/svg" xmlns:xlink="http://www.w3.org/1999/xlink" clip-rule="evenodd" stroke-miterlimit="10" viewBox="0 0 366 70"><desc>SVG generated by Keynote</desc><defs></defs><g transform="matrix(1.00, 0.00, -0.00, -1.00, 0.0, 70.0)"><image xlink:href="../../C0B0FA9B-2AED-4E81-BF99-7B48688FC47B/assets/7083CCEA4E60CFD10D99D1145F80E361.png" width="78.00" height="72.00" transform="matrix(0.19, 0.00, -0.00, -0.19, 0.0, 61.1)"></image><text xml:space="preserve" font-family="Chalkduster,Chalkduster" font-size="25.6" fill="#FEFFFE" transform="matrix(1.00, 0.00, -0.00, -1.00, 30.4, 48.2)">E</text><text xml:space="preserve" font-family="Chalkduster,Chalkduster" font-size="25.6" fill="#FEFFFE" transform="matrix(1.00, 0.00, -0.00, -1.00, 49.3, 48.2)">m</text><text xml:space="preserve" font-family="Chalkduster,Chalkduster" font-size="25.6" fill="#FEFFFE" transform="matrix(1.00, 0.00, -0.00, -1.00, 75.2, 48.2)">a</text><text xml:space="preserve" font-family="Chalkduster,Chalkduster" font-size="25.6" fill="#FEFFFE" transform="matrix(1.00, 0.00, -0.00, -1.00, 92.9, 48.2)">i</text><text xml:space="preserve" font-family="Chalkduster,Chalkduster" font-size="25.6" fill="#FEFFFE" transform="matrix(1.00, 0.00, -0.00, -1.00, 103.2, 48.2)">l</text><text xml:space="preserve" font-family="Chalkduster,Chalkduster" font-size="25.6" fill="#FEFFFE" transform="matrix(1.00, 0.00, -0.00, -1.00, 115.2, 48.2)">:</text><text xml:space="preserve" font-family="Chalkduster,Chalkduster" font-size="25.6" fill="#FEFFFE" transform="matrix(1.00, 0.00, -0.00, -1.00, 123.7, 48.2)"> </text><text xml:space="preserve" font-family="Chalkduster,Chalkduster" font-size="25.6" fill="#FEFFFE" transform="matrix(1.00, 0.00, -0.00, -1.00, 30.4, 10.2)">r</text><text xml:space="preserve" font-family="Chalkduster,Chalkduster" font-size="25.6" fill="#FEFFFE" transform="matrix(1.00, 0.00, -0.00, -1.00, 44.6, 10.2)">u</text><text xml:space="preserve" font-family="Chalkduster,Chalkduster" font-size="25.6" fill="#FEFFFE" transform="matrix(1.00, 0.00, -0.00, -1.00, 62.2, 10.2)">b</text><text xml:space="preserve" font-family="Chalkduster,Chalkduster" font-size="25.6" fill="#FEFFFE" transform="matrix(1.00, 0.00, -0.00, -1.00, 77.1, 10.2)">e</text><text xml:space="preserve" font-family="Chalkduster,Chalkduster" font-size="25.6" fill="#FEFFFE" transform="matrix(1.00, 0.00, -0.00, -1.00, 93.2, 10.2)">n</text><text xml:space="preserve" font-family="Chalkduster,Chalkduster" font-size="25.6" fill="#FEFFFE" transform="matrix(1.00, 0.00, -0.00, -1.00, 112.0, 10.2)">b</text><text xml:space="preserve" font-family="Chalkduster,Chalkduster" font-size="25.6" fill="#FEFFFE" transform="matrix(1.00, 0.00, -0.00, -1.00, 126.9, 10.2)">c</text><text xml:space="preserve" font-family="Chalkduster,Chalkduster" font-size="25.6" fill="#FEFFFE" transform="matrix(1.00, 0.00, -0.00, -1.00, 143.0, 10.2)">h</text><text xml:space="preserve" font-family="Chalkduster,Chalkduster" font-size="25.6" fill="#FEFFFE" transform="matrix(1.00, 0.00, -0.00, -1.00, 158.8, 10.2)">0</text><text xml:space="preserve" font-family="Chalkduster,Chalkduster" font-size="25.6" fill="#FEFFFE" transform="matrix(1.00, 0.00, -0.00, -1.00, 176.4, 10.2)">5</text><text xml:space="preserve" font-family="Chalkduster,Chalkduster" font-size="25.6" fill="#FEFFFE" transform="matrix(1.00, 0.00, -0.00, -1.00, 192.8, 10.2)">@</text><text xml:space="preserve" font-family="Chalkduster,Chalkduster" font-size="25.6" fill="#FEFFFE" transform="matrix(1.00, 0.00, -0.00, -1.00, 214.2, 10.2)">g</text><text xml:space="preserve" font-family="Chalkduster,Chalkduster" font-size="25.6" fill="#FEFFFE" transform="matrix(1.00, 0.00, -0.00, -1.00, 231.7, 10.2)">m</text><text xml:space="preserve" font-family="Chalkduster,Chalkduster" font-size="25.6" fill="#FEFFFE" transform="matrix(1.00, 0.00, -0.00, -1.00, 257.6, 10.2)">a</text><text xml:space="preserve" font-family="Chalkduster,Chalkduster" font-size="25.6" fill="#FEFFFE" transform="matrix(1.00, 0.00, -0.00, -1.00, 275.2, 10.2)">i</text><text xml:space="preserve" font-family="Chalkduster,Chalkduster" font-size="25.6" fill="#FEFFFE" transform="matrix(1.00, 0.00, -0.00, -1.00, 285.6, 10.2)">l</text><text xml:space="preserve" font-family="Chalkduster,Chalkduster" font-size="25.6" fill="#FEFFFE" transform="matrix(1.00, 0.00, -0.00, -1.00, 297.3, 10.2)">.</text><text xml:space="preserve" font-family="Chalkduster,Chalkduster" font-size="25.6" fill="#FEFFFE" transform="matrix(1.00, 0.00, -0.00, -1.00, 305.1, 10.2)">c</text><text xml:space="preserve" font-family="Chalkduster,Chalkduster" font-size="25.6" fill="#FEFFFE" transform="matrix(1.00, 0.00, -0.00, -1.00, 320.4, 10.2)">o</text><text xml:space="preserve" font-family="Chalkduster,Chalkduster" font-size="25.6" fill="#FEFFFE" transform="matrix(1.00, 0.00, -0.00, -1.00, 339.6, 10.2)">m</text></g></svg>