<?xml version="1.0" encoding="UTF-8" standalone="no"?><svg xmlns="http://www.w3.org/2000/svg" xmlns:xlink="http://www.w3.org/1999/xlink" clip-rule="evenodd" stroke-miterlimit="10" viewBox="0 0 135 80"><desc>SVG generated by Keynote</desc><defs></defs><g transform="matrix(1.00, 0.00, -0.00, -1.00, 0.0, 80.0)"><image xlink:href="../../861502F5-C051-4CA8-9910-E538B1C8F451/assets/4DEEB86E8592901A27491E22B30EA716.png" width="78.00" height="72.00" transform="matrix(0.24, 0.00, -0.00, -0.24, 0.0, 26.3)"></image><text xml:space="preserve" font-family="Chalkduster,Chalkduster" font-size="32.0" fill="#FEFFFE" transform="matrix(1.00, 0.00, -0.00, -1.00, 38.0, 9.5)">D</text><text xml:space="preserve" font-family="Chalkduster,Chalkduster" font-size="32.0" fill="#FEFFFE" transform="matrix(1.00, 0.00, -0.00, -1.00, 60.1, 9.5)">e</text><text xml:space="preserve" font-family="Chalkduster,Chalkduster" font-size="32.0" fill="#FEFFFE" transform="matrix(1.00, 0.00, -0.00, -1.00, 79.7, 9.5)">v</text><text xml:space="preserve" font-family="Chalkduster,Chalkduster" font-size="32.0" fill="#FEFFFE" transform="matrix(1.00, 0.00, -0.00, -1.00, 99.4, 9.5)">e</text><text xml:space="preserve" font-family="Chalkduster,Chalkduster" font-size="32.0" fill="#FEFFFE" transform="matrix(1.00, 0.00, -0.00, -1.00, 119.2, 9.5)">l</text><g><clipPath id="clip0x600000cbe720"><path d="M 37.0 3.4 L 134.2 3.4 L 134.2 6.1 L 37.0 6.1 Z M 37.0 3.4 "></path></clipPath><g clip-path="url(#clip0x600000cbe720)"><path d="M 42.0 127.2 L 138.2 127.2 " fill="none" stroke="#FEFFFE" stroke-width="0.71" transform="matrix(1.00, 0.00, 0.00, -1.00, -4.0, 132.0)"></path></g></g></g></svg>