<?xml version="1.0" encoding="UTF-8" standalone="no"?><svg xmlns="http://www.w3.org/2000/svg" xmlns:xlink="http://www.w3.org/1999/xlink" clip-rule="evenodd" stroke-miterlimit="10" viewBox="0 0 409 471"><desc>SVG generated by Keynote</desc><defs></defs><g transform="matrix(1.00, 0.00, -0.00, -1.00, 0.0, 471.0)"><image xlink:href="../../861502F5-C051-4CA8-9910-E538B1C8F451/assets/7083CCEA4E60CFD10D99D1145F80E361.png" width="78.00" height="72.00" transform="matrix(0.23, 0.00, -0.00, -0.23, 0.0, 456.9)"></image><text xml:space="preserve" font-family="Chalkduster,Chalkduster" font-size="30.4" fill="#FEFFFE" transform="matrix(1.00, 0.00, -0.00, -1.00, 36.1, 441.0)">S</text><text xml:space="preserve" font-family="Chalkduster,Chalkduster" font-size="30.4" fill="#FEFFFE" transform="matrix(1.00, 0.00, -0.00, -1.00, 52.1, 441.0)">e</text><text xml:space="preserve" font-family="Chalkduster,Chalkduster" font-size="30.4" fill="#FEFFFE" transform="matrix(1.00, 0.00, -0.00, -1.00, 71.0, 441.0)">g</text><text xml:space="preserve" font-family="Chalkduster,Chalkduster" font-size="30.4" fill="#FEFFFE" transform="matrix(1.00, 0.00, -0.00, -1.00, 92.6, 441.0)">ú</text><text xml:space="preserve" font-family="Chalkduster,Chalkduster" font-size="30.4" fill="#FEFFFE" transform="matrix(1.00, 0.00, -0.00, -1.00, 116.0, 441.0)">n</text><text xml:space="preserve" font-family="Chalkduster,Chalkduster" font-size="30.4" fill="#FEFFFE" transform="matrix(1.00, 0.00, -0.00, -1.00, 138.2, 441.0)"> </text><text xml:space="preserve" font-family="Chalkduster,Chalkduster" font-size="30.4" fill="#FEFFFE" transform="matrix(1.00, 0.00, -0.00, -1.00, 169.0, 441.0)">e</text><text xml:space="preserve" font-family="Chalkduster,Chalkduster" font-size="30.4" fill="#FEFFFE" transform="matrix(1.00, 0.00, -0.00, -1.00, 188.8, 441.0)">l</text><text xml:space="preserve" font-family="Chalkduster,Chalkduster" font-size="30.4" fill="#FEFFFE" transform="matrix(1.00, 0.00, -0.00, -1.00, 203.0, 441.0)"> </text><text xml:space="preserve" font-family="Chalkduster,Chalkduster" font-size="30.4" fill="#FEFFFE" transform="matrix(1.00, 0.00, -0.00, -1.00, 233.8, 441.0)">s</text><text xml:space="preserve" font-family="Chalkduster,Chalkduster" font-size="30.4" fill="#FEFFFE" transform="matrix(1.00, 0.00, -0.00, -1.00, 250.1, 441.0)">i</text><text xml:space="preserve" font-family="Chalkduster,Chalkduster" font-size="30.4" fill="#FEFFFE" transform="matrix(1.00, 0.00, -0.00, -1.00, 263.3, 441.0)">t</text><text xml:space="preserve" font-family="Chalkduster,Chalkduster" font-size="30.4" fill="#FEFFFE" transform="matrix(1.00, 0.00, -0.00, -1.00, 278.3, 441.0)">i</text><text xml:space="preserve" font-family="Chalkduster,Chalkduster" font-size="30.4" fill="#FEFFFE" transform="matrix(1.00, 0.00, -0.00, -1.00, 291.2, 441.0)">o</text><text xml:space="preserve" font-family="Chalkduster,Chalkduster" font-size="30.4" fill="#FEFFFE" transform="matrix(1.00, 0.00, -0.00, -1.00, 313.0, 441.0)"> </text><text xml:space="preserve" font-family="Chalkduster,Chalkduster" font-size="30.4" fill="#FEFFFE" transform="matrix(1.00, 0.00, -0.00, -1.00, 343.8, 441.0)">w</text><text xml:space="preserve" font-family="Chalkduster,Chalkduster" font-size="30.4" fill="#FEFFFE" transform="matrix(1.00, 0.00, -0.00, -1.00, 369.5, 441.0)">e</text><text xml:space="preserve" font-family="Chalkduster,Chalkduster" font-size="30.4" fill="#FEFFFE" transform="matrix(1.00, 0.00, -0.00, -1.00, 389.3, 441.0)">b</text><text xml:space="preserve" font-family="Chalkduster,Chalkduster" font-size="30.4" fill="#FEFFFE" transform="matrix(1.00, 0.00, -0.00, -1.00, 407.0, 441.0)"> </text><text xml:space="preserve" font-family="Chalkduster,Chalkduster" font-size="30.4" fill="#FEFFFE" transform="matrix(1.00, 0.00, -0.00, -1.00, 36.1, 394.0)">E</text><text xml:space="preserve" font-family="Chalkduster,Chalkduster" font-size="30.4" fill="#FEFFFE" transform="matrix(1.00, 0.00, -0.00, -1.00, 58.6, 394.0)">d</text><text xml:space="preserve" font-family="Chalkduster,Chalkduster" font-size="30.4" fill="#FEFFFE" transform="matrix(1.00, 0.00, -0.00, -1.00, 82.9, 394.0)">u</text><text xml:space="preserve" font-family="Chalkduster,Chalkduster" font-size="30.4" fill="#FEFFFE" transform="matrix(1.00, 0.00, -0.00, -1.00, 103.8, 394.0)">A</text><text xml:space="preserve" font-family="Chalkduster,Chalkduster" font-size="30.4" fill="#FEFFFE" transform="matrix(1.00, 0.00, -0.00, -1.00, 126.4, 394.0)">p</text><text xml:space="preserve" font-family="Chalkduster,Chalkduster" font-size="30.4" fill="#FEFFFE" transform="matrix(1.00, 0.00, -0.00, -1.00, 145.1, 394.0)">p</text><text xml:space="preserve" font-family="Chalkduster,Chalkduster" font-size="30.4" fill="#FEFFFE" transform="matrix(1.00, 0.00, -0.00, -1.00, 163.9, 394.0)">s</text><text xml:space="preserve" font-family="Chalkduster,Chalkduster" font-size="30.4" fill="#FEFFFE" transform="matrix(1.00, 0.00, -0.00, -1.00, 179.2, 394.0)"> </text><text xml:space="preserve" font-family="Chalkduster,Chalkduster" font-size="30.4" fill="#FEFFFE" transform="matrix(1.00, 0.00, -0.00, -1.00, 194.6, 394.0)">A</text><text xml:space="preserve" font-family="Chalkduster,Chalkduster" font-size="30.4" fill="#FEFFFE" transform="matrix(1.00, 0.00, -0.00, -1.00, 216.6, 394.0)">c</text><text xml:space="preserve" font-family="Chalkduster,Chalkduster" font-size="30.4" fill="#FEFFFE" transform="matrix(1.00, 0.00, -0.00, -1.00, 234.6, 394.0)">t</text><text xml:space="preserve" font-family="Chalkduster,Chalkduster" font-size="30.4" fill="#FEFFFE" transform="matrix(1.00, 0.00, -0.00, -1.00, 248.5, 394.0)">u</text><text xml:space="preserve" font-family="Chalkduster,Chalkduster" font-size="30.4" fill="#FEFFFE" transform="matrix(1.00, 0.00, -0.00, -1.00, 269.4, 394.0)">a</text><text xml:space="preserve" font-family="Chalkduster,Chalkduster" font-size="30.4" fill="#FEFFFE" transform="matrix(1.00, 0.00, -0.00, -1.00, 289.1, 394.0)">l</text><text xml:space="preserve" font-family="Chalkduster,Chalkduster" font-size="30.4" fill="#FEFFFE" transform="matrix(1.00, 0.00, -0.00, -1.00, 302.7, 394.0)">m</text><text xml:space="preserve" font-family="Chalkduster,Chalkduster" font-size="30.4" fill="#FEFFFE" transform="matrix(1.00, 0.00, -0.00, -1.00, 334.3, 394.0)">e</text><text xml:space="preserve" font-family="Chalkduster,Chalkduster" font-size="30.4" fill="#FEFFFE" transform="matrix(1.00, 0.00, -0.00, -1.00, 353.4, 394.0)">n</text><text xml:space="preserve" font-family="Chalkduster,Chalkduster" font-size="30.4" fill="#FEFFFE" transform="matrix(1.00, 0.00, -0.00, -1.00, 374.6, 394.0)">t</text><text xml:space="preserve" font-family="Chalkduster,Chalkduster" font-size="30.4" fill="#FEFFFE" transform="matrix(1.00, 0.00, -0.00, -1.00, 388.2, 394.0)">e</text><text xml:space="preserve" font-family="Chalkduster,Chalkduster" font-size="30.4" fill="#FEFFFE" transform="matrix(1.00, 0.00, -0.00, -1.00, 407.0, 394.0)"> </text><text xml:space="preserve" font-family="Chalkduster,Chalkduster" font-size="30.4" fill="#FEFFFE" transform="matrix(1.00, 0.00, -0.00, -1.00, 36.1, 347.0)">e</text><text xml:space="preserve" font-family="Chalkduster,Chalkduster" font-size="30.4" fill="#FEFFFE" transform="matrix(1.00, 0.00, -0.00, -1.00, 62.1, 347.0)">x</text><text xml:space="preserve" font-family="Chalkduster,Chalkduster" font-size="30.4" fill="#FEFFFE" transform="matrix(1.00, 0.00, -0.00, -1.00, 89.2, 347.0)">i</text><text xml:space="preserve" font-family="Chalkduster,Chalkduster" font-size="30.4" fill="#FEFFFE" transform="matrix(1.00, 0.00, -0.00, -1.00, 109.4, 347.0)">s</text><text xml:space="preserve" font-family="Chalkduster,Chalkduster" font-size="30.4" fill="#FEFFFE" transform="matrix(1.00, 0.00, -0.00, -1.00, 133.8, 347.0)">t</text><text xml:space="preserve" font-family="Chalkduster,Chalkduster" font-size="30.4" fill="#FEFFFE" transform="matrix(1.00, 0.00, -0.00, -1.00, 155.5, 347.0)">e</text><text xml:space="preserve" font-family="Chalkduster,Chalkduster" font-size="30.4" fill="#FEFFFE" transform="matrix(1.00, 0.00, -0.00, -1.00, 182.8, 347.0)">n</text><text xml:space="preserve" font-family="Chalkduster,Chalkduster" font-size="30.4" fill="#FEFFFE" transform="matrix(1.00, 0.00, -0.00, -1.00, 205.1, 347.0)"> </text><text xml:space="preserve" font-family="Chalkduster,Chalkduster" font-size="30.4" fill="#FEFFFE" transform="matrix(1.00, 0.00, -0.00, -1.00, 239.5, 347.0)">m</text><text xml:space="preserve" font-family="Chalkduster,Chalkduster" font-size="30.4" fill="#FEFFFE" transform="matrix(1.00, 0.00, -0.00, -1.00, 278.5, 347.0)">á</text><text xml:space="preserve" font-family="Chalkduster,Chalkduster" font-size="30.4" fill="#FEFFFE" transform="matrix(1.00, 0.00, -0.00, -1.00, 306.6, 347.0)">s</text><text xml:space="preserve" font-family="Chalkduster,Chalkduster" font-size="30.4" fill="#FEFFFE" transform="matrix(1.00, 0.00, -0.00, -1.00, 321.9, 347.0)"> </text><text xml:space="preserve" font-family="Chalkduster,Chalkduster" font-size="30.4" fill="#FEFFFE" transform="matrix(1.00, 0.00, -0.00, -1.00, 356.3, 347.0)">d</text><text xml:space="preserve" font-family="Chalkduster,Chalkduster" font-size="30.4" fill="#FEFFFE" transform="matrix(1.00, 0.00, -0.00, -1.00, 388.2, 347.0)">e</text><text xml:space="preserve" font-family="Chalkduster,Chalkduster" font-size="30.4" fill="#FEFFFE" transform="matrix(1.00, 0.00, -0.00, -1.00, 407.1, 347.0)"> </text><text xml:space="preserve" font-family="Chalkduster,Chalkduster" font-size="30.4" fill="#FEFFFE" transform="matrix(1.00, 0.00, -0.00, -1.00, 36.1, 300.0)">8</text><text xml:space="preserve" font-family="Chalkduster,Chalkduster" font-size="30.4" fill="#FEFFFE" transform="matrix(1.00, 0.00, -0.00, -1.00, 60.9, 300.0)">0</text><text xml:space="preserve" font-family="Chalkduster,Chalkduster" font-size="30.4" fill="#FEFFFE" transform="matrix(1.00, 0.00, -0.00, -1.00, 81.3, 300.0)">.</text><text xml:space="preserve" font-family="Chalkduster,Chalkduster" font-size="30.4" fill="#FEFFFE" transform="matrix(1.00, 0.00, -0.00, -1.00, 92.0, 300.0)">0</text><text xml:space="preserve" font-family="Chalkduster,Chalkduster" font-size="30.4" fill="#FEFFFE" transform="matrix(1.00, 0.00, -0.00, -1.00, 113.8, 300.0)">0</text><text xml:space="preserve" font-family="Chalkduster,Chalkduster" font-size="30.4" fill="#FEFFFE" transform="matrix(1.00, 0.00, -0.00, -1.00, 135.5, 300.0)">0</text><text xml:space="preserve" font-family="Chalkduster,Chalkduster" font-size="30.4" fill="#FEFFFE" transform="matrix(1.00, 0.00, -0.00, -1.00, 156.5, 300.0)"> </text><text xml:space="preserve" font-family="Chalkduster,Chalkduster" font-size="30.4" fill="#FEFFFE" transform="matrix(1.00, 0.00, -0.00, -1.00, 187.0, 300.0)">a</text><text xml:space="preserve" font-family="Chalkduster,Chalkduster" font-size="30.4" fill="#FEFFFE" transform="matrix(1.00, 0.00, -0.00, -1.00, 208.3, 300.0)">p</text><text xml:space="preserve" font-family="Chalkduster,Chalkduster" font-size="30.4" fill="#FEFFFE" transform="matrix(1.00, 0.00, -0.00, -1.00, 227.5, 300.0)">l</text><text xml:space="preserve" font-family="Chalkduster,Chalkduster" font-size="30.4" fill="#FEFFFE" transform="matrix(1.00, 0.00, -0.00, -1.00, 242.4, 300.0)">i</text><text xml:space="preserve" font-family="Chalkduster,Chalkduster" font-size="30.4" fill="#FEFFFE" transform="matrix(1.00, 0.00, -0.00, -1.00, 255.1, 300.0)">c</text><text xml:space="preserve" font-family="Chalkduster,Chalkduster" font-size="30.4" fill="#FEFFFE" transform="matrix(1.00, 0.00, -0.00, -1.00, 273.4, 300.0)">a</text><text xml:space="preserve" font-family="Chalkduster,Chalkduster" font-size="30.4" fill="#FEFFFE" transform="matrix(1.00, 0.00, -0.00, -1.00, 293.8, 300.0)">c</text><text xml:space="preserve" font-family="Chalkduster,Chalkduster" font-size="30.4" fill="#FEFFFE" transform="matrix(1.00, 0.00, -0.00, -1.00, 313.3, 300.0)">i</text><text xml:space="preserve" font-family="Chalkduster,Chalkduster" font-size="30.4" fill="#FEFFFE" transform="matrix(1.00, 0.00, -0.00, -1.00, 325.6, 300.0)">o</text><text xml:space="preserve" font-family="Chalkduster,Chalkduster" font-size="30.4" fill="#FEFFFE" transform="matrix(1.00, 0.00, -0.00, -1.00, 348.6, 300.0)">n</text><text xml:space="preserve" font-family="Chalkduster,Chalkduster" font-size="30.4" fill="#FEFFFE" transform="matrix(1.00, 0.00, -0.00, -1.00, 371.8, 300.0)">e</text><text xml:space="preserve" font-family="Chalkduster,Chalkduster" font-size="30.4" fill="#FEFFFE" transform="matrix(1.00, 0.00, -0.00, -1.00, 391.7, 300.0)">s</text><text xml:space="preserve" font-family="Chalkduster,Chalkduster" font-size="30.4" fill="#FEFFFE" transform="matrix(1.00, 0.00, -0.00, -1.00, 407.0, 300.0)"> </text><text xml:space="preserve" font-family="Chalkduster,Chalkduster" font-size="30.4" fill="#FEFFFE" transform="matrix(1.00, 0.00, -0.00, -1.00, 36.1, 253.0)">e</text><text xml:space="preserve" font-family="Chalkduster,Chalkduster" font-size="30.4" fill="#FEFFFE" transform="matrix(1.00, 0.00, -0.00, -1.00, 55.9, 253.0)">d</text><text xml:space="preserve" font-family="Chalkduster,Chalkduster" font-size="30.4" fill="#FEFFFE" transform="matrix(1.00, 0.00, -0.00, -1.00, 80.2, 253.0)">u</text><text xml:space="preserve" font-family="Chalkduster,Chalkduster" font-size="30.4" fill="#FEFFFE" transform="matrix(1.00, 0.00, -0.00, -1.00, 101.1, 253.0)">c</text><text xml:space="preserve" font-family="Chalkduster,Chalkduster" font-size="30.4" fill="#FEFFFE" transform="matrix(1.00, 0.00, -0.00, -1.00, 119.1, 253.0)">a</text><text xml:space="preserve" font-family="Chalkduster,Chalkduster" font-size="30.4" fill="#FEFFFE" transform="matrix(1.00, 0.00, -0.00, -1.00, 138.0, 253.0)">t</text><text xml:space="preserve" font-family="Chalkduster,Chalkduster" font-size="30.4" fill="#FEFFFE" transform="matrix(1.00, 0.00, -0.00, -1.00, 152.0, 253.0)">i</text><text xml:space="preserve" font-family="Chalkduster,Chalkduster" font-size="30.4" fill="#FEFFFE" transform="matrix(1.00, 0.00, -0.00, -1.00, 164.1, 253.0)">v</text><text xml:space="preserve" font-family="Chalkduster,Chalkduster" font-size="30.4" fill="#FEFFFE" transform="matrix(1.00, 0.00, -0.00, -1.00, 181.3, 253.0)">a</text><text xml:space="preserve" font-family="Chalkduster,Chalkduster" font-size="30.4" fill="#FEFFFE" transform="matrix(1.00, 0.00, -0.00, -1.00, 202.7, 253.0)">s</text><text xml:space="preserve" font-family="Chalkduster,Chalkduster" font-size="30.4" fill="#FEFFFE" transform="matrix(1.00, 0.00, -0.00, -1.00, 217.4, 253.0)">.</text><text xml:space="preserve" font-family="Chalkduster,Chalkduster" font-size="30.4" fill="#FEFFFE" transform="matrix(1.00, 0.00, -0.00, -1.00, 226.0, 253.0)"> </text><text xml:space="preserve" font-family="Chalkduster,Chalkduster" font-size="30.4" fill="#FEFFFE" transform="matrix(1.00, 0.00, -0.00, -1.00, 243.2, 253.0)">E</text><text xml:space="preserve" font-family="Chalkduster,Chalkduster" font-size="30.4" fill="#FEFFFE" transform="matrix(1.00, 0.00, -0.00, -1.00, 265.6, 253.0)">s</text><text xml:space="preserve" font-family="Chalkduster,Chalkduster" font-size="30.4" fill="#FEFFFE" transform="matrix(1.00, 0.00, -0.00, -1.00, 281.9, 253.0)">t</text><text xml:space="preserve" font-family="Chalkduster,Chalkduster" font-size="30.4" fill="#FEFFFE" transform="matrix(1.00, 0.00, -0.00, -1.00, 295.5, 253.0)">e</text><text xml:space="preserve" font-family="Chalkduster,Chalkduster" font-size="30.4" fill="#FEFFFE" transform="matrix(1.00, 0.00, -0.00, -1.00, 314.4, 253.0)"> </text><text xml:space="preserve" font-family="Chalkduster,Chalkduster" font-size="30.4" fill="#FEFFFE" transform="matrix(1.00, 0.00, -0.00, -1.00, 331.5, 253.0)">s</text><text xml:space="preserve" font-family="Chalkduster,Chalkduster" font-size="30.4" fill="#FEFFFE" transform="matrix(1.00, 0.00, -0.00, -1.00, 346.8, 253.0)">i</text><text xml:space="preserve" font-family="Chalkduster,Chalkduster" font-size="30.4" fill="#FEFFFE" transform="matrix(1.00, 0.00, -0.00, -1.00, 359.2, 253.0)">t</text><text xml:space="preserve" font-family="Chalkduster,Chalkduster" font-size="30.4" fill="#FEFFFE" transform="matrix(1.00, 0.00, -0.00, -1.00, 373.2, 253.0)">i</text><text xml:space="preserve" font-family="Chalkduster,Chalkduster" font-size="30.4" fill="#FEFFFE" transform="matrix(1.00, 0.00, -0.00, -1.00, 385.2, 253.0)">o</text><text xml:space="preserve" font-family="Chalkduster,Chalkduster" font-size="30.4" fill="#FEFFFE" transform="matrix(1.00, 0.00, -0.00, -1.00, 407.1, 253.0)"> </text><text xml:space="preserve" font-family="Chalkduster,Chalkduster" font-size="30.4" fill="#FEFFFE" transform="matrix(1.00, 0.00, -0.00, -1.00, 36.1, 206.0)">w</text><text xml:space="preserve" font-family="Chalkduster,Chalkduster" font-size="30.4" fill="#FEFFFE" transform="matrix(1.00, 0.00, -0.00, -1.00, 65.3, 206.0)">e</text><text xml:space="preserve" font-family="Chalkduster,Chalkduster" font-size="30.4" fill="#FEFFFE" transform="matrix(1.00, 0.00, -0.00, -1.00, 88.5, 206.0)">b</text><text xml:space="preserve" font-family="Chalkduster,Chalkduster" font-size="30.4" fill="#FEFFFE" transform="matrix(1.00, 0.00, -0.00, -1.00, 106.1, 206.0)"> </text><text xml:space="preserve" font-family="Chalkduster,Chalkduster" font-size="30.4" fill="#FEFFFE" transform="matrix(1.00, 0.00, -0.00, -1.00, 138.6, 206.0)">n</text><text xml:space="preserve" font-family="Chalkduster,Chalkduster" font-size="30.4" fill="#FEFFFE" transform="matrix(1.00, 0.00, -0.00, -1.00, 165.3, 206.0)">a</text><text xml:space="preserve" font-family="Chalkduster,Chalkduster" font-size="30.4" fill="#FEFFFE" transform="matrix(1.00, 0.00, -0.00, -1.00, 189.6, 206.0)">c</text><text xml:space="preserve" font-family="Chalkduster,Chalkduster" font-size="30.4" fill="#FEFFFE" transform="matrix(1.00, 0.00, -0.00, -1.00, 212.4, 206.0)">e</text><text xml:space="preserve" font-family="Chalkduster,Chalkduster" font-size="30.4" fill="#FEFFFE" transform="matrix(1.00, 0.00, -0.00, -1.00, 231.2, 206.0)"> </text><text xml:space="preserve" font-family="Chalkduster,Chalkduster" font-size="30.4" fill="#FEFFFE" transform="matrix(1.00, 0.00, -0.00, -1.00, 263.7, 206.0)">c</text><text xml:space="preserve" font-family="Chalkduster,Chalkduster" font-size="30.4" fill="#FEFFFE" transform="matrix(1.00, 0.00, -0.00, -1.00, 286.2, 206.0)">o</text><text xml:space="preserve" font-family="Chalkduster,Chalkduster" font-size="30.4" fill="#FEFFFE" transform="matrix(1.00, 0.00, -0.00, -1.00, 313.2, 206.0)">n</text><text xml:space="preserve" font-family="Chalkduster,Chalkduster" font-size="30.4" fill="#FEFFFE" transform="matrix(1.00, 0.00, -0.00, -1.00, 335.5, 206.0)"> </text><text xml:space="preserve" font-family="Chalkduster,Chalkduster" font-size="30.4" fill="#FEFFFE" transform="matrix(1.00, 0.00, -0.00, -1.00, 368.0, 206.0)">l</text><text xml:space="preserve" font-family="Chalkduster,Chalkduster" font-size="30.4" fill="#FEFFFE" transform="matrix(1.00, 0.00, -0.00, -1.00, 386.0, 206.0)">a</text><text xml:space="preserve" font-family="Chalkduster,Chalkduster" font-size="30.4" fill="#FEFFFE" transform="matrix(1.00, 0.00, -0.00, -1.00, 406.9, 206.0)"> </text><text xml:space="preserve" font-family="Chalkduster,Chalkduster" font-size="30.4" fill="#FEFFFE" transform="matrix(1.00, 0.00, -0.00, -1.00, 36.1, 159.0)">i</text><text xml:space="preserve" font-family="Chalkduster,Chalkduster" font-size="30.4" fill="#FEFFFE" transform="matrix(1.00, 0.00, -0.00, -1.00, 56.9, 159.0)">n</text><text xml:space="preserve" font-family="Chalkduster,Chalkduster" font-size="30.4" fill="#FEFFFE" transform="matrix(1.00, 0.00, -0.00, -1.00, 86.8, 159.0)">t</text><text xml:space="preserve" font-family="Chalkduster,Chalkduster" font-size="30.4" fill="#FEFFFE" transform="matrix(1.00, 0.00, -0.00, -1.00, 109.2, 159.0)">e</text><text xml:space="preserve" font-family="Chalkduster,Chalkduster" font-size="30.4" fill="#FEFFFE" transform="matrix(1.00, 0.00, -0.00, -1.00, 137.2, 159.0)">n</text><text xml:space="preserve" font-family="Chalkduster,Chalkduster" font-size="30.4" fill="#FEFFFE" transform="matrix(1.00, 0.00, -0.00, -1.00, 168.3, 159.0)">c</text><text xml:space="preserve" font-family="Chalkduster,Chalkduster" font-size="30.4" fill="#FEFFFE" transform="matrix(1.00, 0.00, -0.00, -1.00, 196.2, 159.0)">i</text><text xml:space="preserve" font-family="Chalkduster,Chalkduster" font-size="30.4" fill="#FEFFFE" transform="matrix(1.00, 0.00, -0.00, -1.00, 216.9, 159.0)">ó</text><text xml:space="preserve" font-family="Chalkduster,Chalkduster" font-size="30.4" fill="#FEFFFE" transform="matrix(1.00, 0.00, -0.00, -1.00, 248.2, 159.0)">n</text><text xml:space="preserve" font-family="Chalkduster,Chalkduster" font-size="30.4" fill="#FEFFFE" transform="matrix(1.00, 0.00, -0.00, -1.00, 270.5, 159.0)"> </text><text xml:space="preserve" font-family="Chalkduster,Chalkduster" font-size="30.4" fill="#FEFFFE" transform="matrix(1.00, 0.00, -0.00, -1.00, 355.6, 159.0)">d</text><text xml:space="preserve" font-family="Chalkduster,Chalkduster" font-size="30.4" fill="#FEFFFE" transform="matrix(1.00, 0.00, -0.00, -1.00, 388.2, 159.0)">e</text><text xml:space="preserve" font-family="Chalkduster,Chalkduster" font-size="30.4" fill="#FEFFFE" transform="matrix(1.00, 0.00, -0.00, -1.00, 407.0, 159.0)"> </text><text xml:space="preserve" font-family="Chalkduster,Chalkduster" font-size="30.4" fill="#FEFFFE" transform="matrix(1.00, 0.00, -0.00, -1.00, 36.1, 112.0)">r</text><text xml:space="preserve" font-family="Chalkduster,Chalkduster" font-size="30.4" fill="#FEFFFE" transform="matrix(1.00, 0.00, -0.00, -1.00, 51.5, 112.0)">e</text><text xml:space="preserve" font-family="Chalkduster,Chalkduster" font-size="30.4" fill="#FEFFFE" transform="matrix(1.00, 0.00, -0.00, -1.00, 70.8, 112.0)">c</text><text xml:space="preserve" font-family="Chalkduster,Chalkduster" font-size="30.4" fill="#FEFFFE" transform="matrix(1.00, 0.00, -0.00, -1.00, 89.0, 112.0)">o</text><text xml:space="preserve" font-family="Chalkduster,Chalkduster" font-size="30.4" fill="#FEFFFE" transform="matrix(1.00, 0.00, -0.00, -1.00, 111.1, 112.0)">p</text><text xml:space="preserve" font-family="Chalkduster,Chalkduster" font-size="30.4" fill="#FEFFFE" transform="matrix(1.00, 0.00, -0.00, -1.00, 130.6, 112.0)">i</text><text xml:space="preserve" font-family="Chalkduster,Chalkduster" font-size="30.4" fill="#FEFFFE" transform="matrix(1.00, 0.00, -0.00, -1.00, 142.9, 112.0)">l</text><text xml:space="preserve" font-family="Chalkduster,Chalkduster" font-size="30.4" fill="#FEFFFE" transform="matrix(1.00, 0.00, -0.00, -1.00, 156.5, 112.0)">a</text><text xml:space="preserve" font-family="Chalkduster,Chalkduster" font-size="30.4" fill="#FEFFFE" transform="matrix(1.00, 0.00, -0.00, -1.00, 175.8, 112.0)">r</text><text xml:space="preserve" font-family="Chalkduster,Chalkduster" font-size="30.4" fill="#FEFFFE" transform="matrix(1.00, 0.00, -0.00, -1.00, 191.8, 112.0)"> </text><text xml:space="preserve" font-family="Chalkduster,Chalkduster" font-size="30.4" fill="#FEFFFE" transform="matrix(1.00, 0.00, -0.00, -1.00, 217.8, 112.0)">y</text><text xml:space="preserve" font-family="Chalkduster,Chalkduster" font-size="30.4" fill="#FEFFFE" transform="matrix(1.00, 0.00, -0.00, -1.00, 236.3, 112.0)"> </text><text xml:space="preserve" font-family="Chalkduster,Chalkduster" font-size="30.4" fill="#FEFFFE" transform="matrix(1.00, 0.00, -0.00, -1.00, 262.2, 112.0)">a</text><text xml:space="preserve" font-family="Chalkduster,Chalkduster" font-size="30.4" fill="#FEFFFE" transform="matrix(1.00, 0.00, -0.00, -1.00, 283.2, 112.0)">n</text><text xml:space="preserve" font-family="Chalkduster,Chalkduster" font-size="30.4" fill="#FEFFFE" transform="matrix(1.00, 0.00, -0.00, -1.00, 305.5, 112.0)">a</text><text xml:space="preserve" font-family="Chalkduster,Chalkduster" font-size="30.4" fill="#FEFFFE" transform="matrix(1.00, 0.00, -0.00, -1.00, 325.2, 112.0)">l</text><text xml:space="preserve" font-family="Chalkduster,Chalkduster" font-size="30.4" fill="#FEFFFE" transform="matrix(1.00, 0.00, -0.00, -1.00, 339.8, 112.0)">i</text><text xml:space="preserve" font-family="Chalkduster,Chalkduster" font-size="30.4" fill="#FEFFFE" transform="matrix(1.00, 0.00, -0.00, -1.00, 351.8, 112.0)">z</text><text xml:space="preserve" font-family="Chalkduster,Chalkduster" font-size="30.4" fill="#FEFFFE" transform="matrix(1.00, 0.00, -0.00, -1.00, 371.5, 112.0)">a</text><text xml:space="preserve" font-family="Chalkduster,Chalkduster" font-size="30.4" fill="#FEFFFE" transform="matrix(1.00, 0.00, -0.00, -1.00, 390.9, 112.0)">r</text><text xml:space="preserve" font-family="Chalkduster,Chalkduster" font-size="30.4" fill="#FEFFFE" transform="matrix(1.00, 0.00, -0.00, -1.00, 406.9, 112.0)"> </text><text xml:space="preserve" font-family="Chalkduster,Chalkduster" font-size="30.4" fill="#FEFFFE" transform="matrix(1.00, 0.00, -0.00, -1.00, 36.1, 65.0)">l</text><text xml:space="preserve" font-family="Chalkduster,Chalkduster" font-size="30.4" fill="#FEFFFE" transform="matrix(1.00, 0.00, -0.00, -1.00, 49.7, 65.0)">a</text><text xml:space="preserve" font-family="Chalkduster,Chalkduster" font-size="30.4" fill="#FEFFFE" transform="matrix(1.00, 0.00, -0.00, -1.00, 71.0, 65.0)">s</text><text xml:space="preserve" font-family="Chalkduster,Chalkduster" font-size="30.4" fill="#FEFFFE" transform="matrix(1.00, 0.00, -0.00, -1.00, 86.4, 65.0)"> </text><text xml:space="preserve" font-family="Chalkduster,Chalkduster" font-size="30.4" fill="#FEFFFE" transform="matrix(1.00, 0.00, -0.00, -1.00, 116.6, 65.0)">p</text><text xml:space="preserve" font-family="Chalkduster,Chalkduster" font-size="30.4" fill="#FEFFFE" transform="matrix(1.00, 0.00, -0.00, -1.00, 135.4, 65.0)">r</text><text xml:space="preserve" font-family="Chalkduster,Chalkduster" font-size="30.4" fill="#FEFFFE" transform="matrix(1.00, 0.00, -0.00, -1.00, 152.2, 65.0)">i</text><text xml:space="preserve" font-family="Chalkduster,Chalkduster" font-size="30.4" fill="#FEFFFE" transform="matrix(1.00, 0.00, -0.00, -1.00, 164.2, 65.0)">n</text><text xml:space="preserve" font-family="Chalkduster,Chalkduster" font-size="30.4" fill="#FEFFFE" transform="matrix(1.00, 0.00, -0.00, -1.00, 186.5, 65.0)">c</text><text xml:space="preserve" font-family="Chalkduster,Chalkduster" font-size="30.4" fill="#FEFFFE" transform="matrix(1.00, 0.00, -0.00, -1.00, 205.6, 65.0)">i</text><text xml:space="preserve" font-family="Chalkduster,Chalkduster" font-size="30.4" fill="#FEFFFE" transform="matrix(1.00, 0.00, -0.00, -1.00, 216.9, 65.0)">p</text><text xml:space="preserve" font-family="Chalkduster,Chalkduster" font-size="30.4" fill="#FEFFFE" transform="matrix(1.00, 0.00, -0.00, -1.00, 235.7, 65.0)">a</text><text xml:space="preserve" font-family="Chalkduster,Chalkduster" font-size="30.4" fill="#FEFFFE" transform="matrix(1.00, 0.00, -0.00, -1.00, 255.4, 65.0)">l</text><text xml:space="preserve" font-family="Chalkduster,Chalkduster" font-size="30.4" fill="#FEFFFE" transform="matrix(1.00, 0.00, -0.00, -1.00, 268.0, 65.0)">e</text><text xml:space="preserve" font-family="Chalkduster,Chalkduster" font-size="30.4" fill="#FEFFFE" transform="matrix(1.00, 0.00, -0.00, -1.00, 287.5, 65.0)">s</text><text xml:space="preserve" font-family="Chalkduster,Chalkduster" font-size="30.4" fill="#FEFFFE" transform="matrix(1.00, 0.00, -0.00, -1.00, 302.9, 65.0)"> </text><text xml:space="preserve" font-family="Chalkduster,Chalkduster" font-size="30.4" fill="#FEFFFE" transform="matrix(1.00, 0.00, -0.00, -1.00, 333.1, 65.0)">a</text><text xml:space="preserve" font-family="Chalkduster,Chalkduster" font-size="30.4" fill="#FEFFFE" transform="matrix(1.00, 0.00, -0.00, -1.00, 354.0, 65.0)">p</text><text xml:space="preserve" font-family="Chalkduster,Chalkduster" font-size="30.4" fill="#FEFFFE" transform="matrix(1.00, 0.00, -0.00, -1.00, 372.8, 65.0)">p</text><text xml:space="preserve" font-family="Chalkduster,Chalkduster" font-size="30.4" fill="#FEFFFE" transform="matrix(1.00, 0.00, -0.00, -1.00, 391.6, 65.0)">s</text><text xml:space="preserve" font-family="Chalkduster,Chalkduster" font-size="30.4" fill="#FEFFFE" transform="matrix(1.00, 0.00, -0.00, -1.00, 406.9, 65.0)"> </text><text xml:space="preserve" font-family="Chalkduster,Chalkduster" font-size="30.4" fill="#FEFFFE" transform="matrix(1.00, 0.00, -0.00, -1.00, 36.1, 18.0)">p</text><text xml:space="preserve" font-family="Chalkduster,Chalkduster" font-size="30.4" fill="#FEFFFE" transform="matrix(1.00, 0.00, -0.00, -1.00, 54.9, 18.0)">a</text><text xml:space="preserve" font-family="Chalkduster,Chalkduster" font-size="30.4" fill="#FEFFFE" transform="matrix(1.00, 0.00, -0.00, -1.00, 74.2, 18.0)">r</text><text xml:space="preserve" font-family="Chalkduster,Chalkduster" font-size="30.4" fill="#FEFFFE" transform="matrix(1.00, 0.00, -0.00, -1.00, 90.3, 18.0)">a</text><text xml:space="preserve" font-family="Chalkduster,Chalkduster" font-size="30.4" fill="#FEFFFE" transform="matrix(1.00, 0.00, -0.00, -1.00, 111.2, 18.0)"> </text><text xml:space="preserve" font-family="Chalkduster,Chalkduster" font-size="30.4" fill="#FEFFFE" transform="matrix(1.00, 0.00, -0.00, -1.00, 126.3, 18.0)">e</text><text xml:space="preserve" font-family="Chalkduster,Chalkduster" font-size="30.4" fill="#FEFFFE" transform="matrix(1.00, 0.00, -0.00, -1.00, 145.2, 18.0)">l</text><text xml:space="preserve" font-family="Chalkduster,Chalkduster" font-size="30.4" fill="#FEFFFE" transform="matrix(1.00, 0.00, -0.00, -1.00, 159.4, 18.0)"> </text><text xml:space="preserve" font-family="Chalkduster,Chalkduster" font-size="30.4" fill="#FEFFFE" transform="matrix(1.00, 0.00, -0.00, -1.00, 174.6, 18.0)">a</text><text xml:space="preserve" font-family="Chalkduster,Chalkduster" font-size="30.4" fill="#FEFFFE" transform="matrix(1.00, 0.00, -0.00, -1.00, 195.5, 18.0)">u</text><text xml:space="preserve" font-family="Chalkduster,Chalkduster" font-size="30.4" fill="#FEFFFE" transform="matrix(1.00, 0.00, -0.00, -1.00, 217.2, 18.0)">l</text><text xml:space="preserve" font-family="Chalkduster,Chalkduster" font-size="30.4" fill="#FEFFFE" transform="matrix(1.00, 0.00, -0.00, -1.00, 230.9, 18.0)">a</text><text xml:space="preserve" font-family="Chalkduster,Chalkduster" font-size="30.4" fill="#FEFFFE" transform="matrix(1.00, 0.00, -0.00, -1.00, 251.8, 18.0)">.</text><text xml:space="preserve" font-family="Chalkduster,Chalkduster" font-size="30.4" fill="#FEFFFE" transform="matrix(1.00, 0.00, -0.00, -1.00, 260.5, 18.0)"> </text></g></svg>