<?xml version="1.0" encoding="UTF-8" standalone="no"?><svg xmlns="http://www.w3.org/2000/svg" xmlns:xlink="http://www.w3.org/1999/xlink" clip-rule="evenodd" stroke-miterlimit="10" viewBox="0 0 307 245"><desc>SVG generated by Keynote</desc><defs></defs><g transform="matrix(1.00, 0.00, -0.00, -1.00, 0.0, 245.0)"><g><clipPath id="clip0x608004ab89c0"><path d="M 1.0 1.9 L 305.4 1.9 L 305.4 243.6 L 1.0 243.6 Z M 1.0 1.9 "></path></clipPath><g clip-path="url(#clip0x608004ab89c0)"><path d="M 1.0 243.6 L 305.4 243.6 L 305.4 1.9 L 1.0 1.9 Z M 1.0 243.6 " fill="#FEFFFF" fill-opacity="0.00"></path><image xlink:href="971DA28FE5B4FEBE901BC54D52898955.png" width="248.00" height="63.00" transform="matrix(1.23, 0.00, -0.00, -1.23, 1.0, 86.5)"></image><image xlink:href="6BBA2E10217EA76D4BEC26E5678E61A5.png" width="178.00" height="197.00" transform="matrix(1.23, 0.00, -0.00, -1.23, 79.5, 243.6)"></image></g></g><g><clipPath id="clip0x600004ab97a0"><path d="M 103.3 220.8 L 274.3 220.8 L 274.3 25.1 L 103.3 25.1 Z M 103.3 220.8 "></path></clipPath><g clip-path="url(#clip0x600004ab97a0)"><g><clipPath id="clip0x600000eaeb20"><path d="M 103.3 25.1 L 274.3 25.1 L 274.3 220.8 L 103.3 220.8 Z M 103.3 25.1 "></path></clipPath><g clip-path="url(#clip0x600000eaeb20)"><image xlink:href="4266F6737E0B67CD843C2EEC6A122EB5.png" width="1180.00" height="1350.00" transform="matrix(0.14, 0.00, -0.00, -0.14, 103.3, 220.8)"></image></g></g></g></g></g></svg>