<?xml version="1.0" encoding="UTF-8" standalone="no"?><svg xmlns="http://www.w3.org/2000/svg" xmlns:xlink="http://www.w3.org/1999/xlink" clip-rule="evenodd" stroke-miterlimit="10" viewBox="0 0 376 55"><desc>SVG generated by Keynote</desc><defs></defs><g transform="matrix(1.00, 0.00, -0.00, -1.00, 0.0, 55.0)"><text xml:space="preserve" font-family="Chalkduster,Chalkduster" font-size="22.0" fill="#FEFFFE" transform="matrix(1.00, 0.00, -0.00, -1.00, 0.0, 10.9)">-</text><text xml:space="preserve" font-family="Chalkduster,Chalkduster" font-size="22.0" fill="#FEFFFE" transform="matrix(1.00, 0.00, -0.00, -1.00, 16.0, 13.9)">h</text><text xml:space="preserve" font-family="Chalkduster,Chalkduster" font-size="22.0" fill="#FEFFFE" transform="matrix(1.00, 0.00, -0.00, -1.00, 28.6, 13.9)">t</text><text xml:space="preserve" font-family="Chalkduster,Chalkduster" font-size="22.0" fill="#FEFFFE" transform="matrix(1.00, 0.00, -0.00, -1.00, 37.7, 13.9)">t</text><text xml:space="preserve" font-family="Chalkduster,Chalkduster" font-size="22.0" fill="#FEFFFE" transform="matrix(1.00, 0.00, -0.00, -1.00, 47.8, 13.9)">p</text><text xml:space="preserve" font-family="Chalkduster,Chalkduster" font-size="22.0" fill="#FEFFFE" transform="matrix(1.00, 0.00, -0.00, -1.00, 61.4, 13.9)">:</text><text xml:space="preserve" font-family="Chalkduster,Chalkduster" font-size="22.0" fill="#FEFFFE" transform="matrix(1.00, 0.00, -0.00, -1.00, 68.6, 13.9)">/</text><text xml:space="preserve" font-family="Chalkduster,Chalkduster" font-size="22.0" fill="#FEFFFE" transform="matrix(1.00, 0.00, -0.00, -1.00, 78.9, 13.9)">/</text><text xml:space="preserve" font-family="Chalkduster,Chalkduster" font-size="22.0" fill="#FEFFFE" transform="matrix(1.00, 0.00, -0.00, -1.00, 91.0, 13.9)">c</text><text xml:space="preserve" font-family="Chalkduster,Chalkduster" font-size="22.0" fill="#FEFFFE" transform="matrix(1.00, 0.00, -0.00, -1.00, 104.0, 13.9)">a</text><text xml:space="preserve" font-family="Chalkduster,Chalkduster" font-size="22.0" fill="#FEFFFE" transform="matrix(1.00, 0.00, -0.00, -1.00, 118.5, 13.9)">m</text><text xml:space="preserve" font-family="Chalkduster,Chalkduster" font-size="22.0" fill="#FEFFFE" transform="matrix(1.00, 0.00, -0.00, -1.00, 140.8, 13.9)">p</text><text xml:space="preserve" font-family="Chalkduster,Chalkduster" font-size="22.0" fill="#FEFFFE" transform="matrix(1.00, 0.00, -0.00, -1.00, 154.3, 13.9)">2</text><text xml:space="preserve" font-family="Chalkduster,Chalkduster" font-size="22.0" fill="#FEFFFE" transform="matrix(1.00, 0.00, -0.00, -1.00, 166.7, 13.9)">0</text><text xml:space="preserve" font-family="Chalkduster,Chalkduster" font-size="22.0" fill="#FEFFFE" transform="matrix(1.00, 0.00, -0.00, -1.00, 181.9, 13.9)">1</text><text xml:space="preserve" font-family="Chalkduster,Chalkduster" font-size="22.0" fill="#FEFFFE" transform="matrix(1.00, 0.00, -0.00, -1.00, 195.2, 13.9)">4</text><text xml:space="preserve" font-family="Chalkduster,Chalkduster" font-size="22.0" fill="#FEFFFE" transform="matrix(1.00, 0.00, -0.00, -1.00, 214.4, 13.9)">.</text><text xml:space="preserve" font-family="Chalkduster,Chalkduster" font-size="22.0" fill="#FEFFFE" transform="matrix(1.00, 0.00, -0.00, -1.00, 221.9, 13.9)">d</text><text xml:space="preserve" font-family="Chalkduster,Chalkduster" font-size="22.0" fill="#FEFFFE" transform="matrix(1.00, 0.00, -0.00, -1.00, 239.1, 13.9)">r</text><text xml:space="preserve" font-family="Chalkduster,Chalkduster" font-size="22.0" fill="#FEFFFE" transform="matrix(1.00, 0.00, -0.00, -1.00, 251.3, 13.9)">u</text><text xml:space="preserve" font-family="Chalkduster,Chalkduster" font-size="22.0" fill="#FEFFFE" transform="matrix(1.00, 0.00, -0.00, -1.00, 266.7, 13.9)">p</text><text xml:space="preserve" font-family="Chalkduster,Chalkduster" font-size="22.0" fill="#FEFFFE" transform="matrix(1.00, 0.00, -0.00, -1.00, 280.3, 13.9)">a</text><text xml:space="preserve" font-family="Chalkduster,Chalkduster" font-size="22.0" fill="#FEFFFE" transform="matrix(1.00, 0.00, -0.00, -1.00, 294.6, 13.9)">l</text><text xml:space="preserve" font-family="Chalkduster,Chalkduster" font-size="22.0" fill="#FEFFFE" transform="matrix(1.00, 0.00, -0.00, -1.00, 303.9, 13.9)">c</text><text xml:space="preserve" font-family="Chalkduster,Chalkduster" font-size="22.0" fill="#FEFFFE" transform="matrix(1.00, 0.00, -0.00, -1.00, 317.3, 13.9)">r</text><text xml:space="preserve" font-family="Chalkduster,Chalkduster" font-size="22.0" fill="#FEFFFE" transform="matrix(1.00, 0.00, -0.00, -1.00, 326.1, 13.9)">.</text><text xml:space="preserve" font-family="Chalkduster,Chalkduster" font-size="22.0" fill="#FEFFFE" transform="matrix(1.00, 0.00, -0.00, -1.00, 333.1, 13.9)">o</text><text xml:space="preserve" font-family="Chalkduster,Chalkduster" font-size="22.0" fill="#FEFFFE" transform="matrix(1.00, 0.00, -0.00, -1.00, 349.2, 13.9)">r</text><text xml:space="preserve" font-family="Chalkduster,Chalkduster" font-size="22.0" fill="#FEFFFE" transform="matrix(1.00, 0.00, -0.00, -1.00, 360.4, 13.9)">g</text><text xml:space="preserve" font-family="Chalkduster,Chalkduster" font-size="22.0" fill="#FEFFFE" transform="matrix(1.00, 0.00, -0.00, -1.00, 375.5, 13.9)"> </text><g><clipPath id="clip0x6000006b7940"><path d="M 15.0 9.4 L 375.5 9.4 L 375.5 11.9 L 15.0 11.9 Z M 15.0 9.4 "></path></clipPath><g clip-path="url(#clip0x6000006b7940)"><path d="M 65.0 502.7 L 424.5 502.7 " fill="none" stroke="#FEFFFE" stroke-width="0.49" transform="matrix(1.00, 0.00, 0.00, -1.00, -49.0, 513.3)"></path></g></g></g></svg>