<?xml version="1.0" encoding="UTF-8" standalone="no"?><svg xmlns="http://www.w3.org/2000/svg" xmlns:xlink="http://www.w3.org/1999/xlink" clip-rule="evenodd" stroke-miterlimit="10" viewBox="0 0 462 120"><desc>SVG generated by Keynote</desc><defs></defs><g transform="matrix(1.00, 0.00, -0.00, -1.00, 0.0, 120.0)"><text xml:space="preserve" font-family="Chalkduster,Chalkduster" font-size="27.0" fill="#FEFFFE" transform="matrix(1.00, 0.00, -0.00, -1.00, -0.3, 93.0)">R</text><text xml:space="preserve" font-family="Chalkduster,Chalkduster" font-size="27.0" fill="#FEFFFE" transform="matrix(1.00, 0.00, -0.00, -1.00, 20.6, 93.0)">u</text><text xml:space="preserve" font-family="Chalkduster,Chalkduster" font-size="27.0" fill="#FEFFFE" transform="matrix(1.00, 0.00, -0.00, -1.00, 39.2, 93.0)">b</text><text xml:space="preserve" font-family="Chalkduster,Chalkduster" font-size="27.0" fill="#FEFFFE" transform="matrix(1.00, 0.00, -0.00, -1.00, 54.9, 93.0)">é</text><text xml:space="preserve" font-family="Chalkduster,Chalkduster" font-size="27.0" fill="#FEFFFE" transform="matrix(1.00, 0.00, -0.00, -1.00, 72.8, 93.0)">n</text><text xml:space="preserve" font-family="Chalkduster,Chalkduster" font-size="27.0" fill="#FEFFFE" transform="matrix(1.00, 0.00, -0.00, -1.00, 92.6, 93.0)"> </text><text xml:space="preserve" font-family="Chalkduster,Chalkduster" font-size="27.0" fill="#FEFFFE" transform="matrix(1.00, 0.00, -0.00, -1.00, 106.0, 93.0)">D</text><text xml:space="preserve" font-family="Chalkduster,Chalkduster" font-size="27.0" fill="#FEFFFE" transform="matrix(1.00, 0.00, -0.00, -1.00, 124.9, 93.0)">a</text><text xml:space="preserve" font-family="Chalkduster,Chalkduster" font-size="27.0" fill="#FEFFFE" transform="matrix(1.00, 0.00, -0.00, -1.00, 141.6, 93.0)">v</text><text xml:space="preserve" font-family="Chalkduster,Chalkduster" font-size="27.0" fill="#FEFFFE" transform="matrix(1.00, 0.00, -0.00, -1.00, 158.3, 93.0)">i</text><text xml:space="preserve" font-family="Chalkduster,Chalkduster" font-size="27.0" fill="#FEFFFE" transform="matrix(1.00, 0.00, -0.00, -1.00, 170.0, 93.0)">d</text><text xml:space="preserve" font-family="Chalkduster,Chalkduster" font-size="27.0" fill="#FEFFFE" transform="matrix(1.00, 0.00, -0.00, -1.00, 191.0, 93.0)"> </text><text xml:space="preserve" font-family="Chalkduster,Chalkduster" font-size="27.0" fill="#FEFFFE" transform="matrix(1.00, 0.00, -0.00, -1.00, 204.4, 93.0)">B</text><text xml:space="preserve" font-family="Chalkduster,Chalkduster" font-size="27.0" fill="#FEFFFE" transform="matrix(1.00, 0.00, -0.00, -1.00, 222.5, 93.0)">e</text><text xml:space="preserve" font-family="Chalkduster,Chalkduster" font-size="27.0" fill="#FEFFFE" transform="matrix(1.00, 0.00, -0.00, -1.00, 238.9, 93.0)">r</text><text xml:space="preserve" font-family="Chalkduster,Chalkduster" font-size="27.0" fill="#FEFFFE" transform="matrix(1.00, 0.00, -0.00, -1.00, 254.0, 93.0)">r</text><text xml:space="preserve" font-family="Chalkduster,Chalkduster" font-size="27.0" fill="#FEFFFE" transform="matrix(1.00, 0.00, -0.00, -1.00, 267.8, 93.0)">o</text><text xml:space="preserve" font-family="Chalkduster,Chalkduster" font-size="27.0" fill="#FEFFFE" transform="matrix(1.00, 0.00, -0.00, -1.00, 287.7, 93.0)">c</text><text xml:space="preserve" font-family="Chalkduster,Chalkduster" font-size="27.0" fill="#FEFFFE" transform="matrix(1.00, 0.00, -0.00, -1.00, 303.6, 93.0)">a</text><text xml:space="preserve" font-family="Chalkduster,Chalkduster" font-size="27.0" fill="#FEFFFE" transform="matrix(1.00, 0.00, -0.00, -1.00, 321.1, 93.0)">l</text><text xml:space="preserve" font-family="Chalkduster,Chalkduster" font-size="27.0" fill="#FEFFFE" transform="matrix(1.00, 0.00, -0.00, -1.00, 333.8, 93.0)"> </text><text xml:space="preserve" font-family="Chalkduster,Chalkduster" font-size="27.0" fill="#FEFFFE" transform="matrix(1.00, 0.00, -0.00, -1.00, 347.2, 93.0)">C</text><text xml:space="preserve" font-family="Chalkduster,Chalkduster" font-size="27.0" fill="#FEFFFE" transform="matrix(1.00, 0.00, -0.00, -1.00, 369.9, 93.0)">h</text><text xml:space="preserve" font-family="Chalkduster,Chalkduster" font-size="27.0" fill="#FEFFFE" transform="matrix(1.00, 0.00, -0.00, -1.00, 386.5, 93.0)">a</text><text xml:space="preserve" font-family="Chalkduster,Chalkduster" font-size="27.0" fill="#FEFFFE" transform="matrix(1.00, 0.00, -0.00, -1.00, 404.3, 93.0)">c</text><text xml:space="preserve" font-family="Chalkduster,Chalkduster" font-size="27.0" fill="#FEFFFE" transform="matrix(1.00, 0.00, -0.00, -1.00, 421.3, 93.0)">ó</text><text xml:space="preserve" font-family="Chalkduster,Chalkduster" font-size="27.0" fill="#FEFFFE" transform="matrix(1.00, 0.00, -0.00, -1.00, 441.2, 93.0)">n</text><text xml:space="preserve" font-family="Chalkduster,Chalkduster" font-size="27.0" fill="#FEFFFE" transform="matrix(1.00, 0.00, -0.00, -1.00, 461.0, 93.0)"> </text><text xml:space="preserve" font-family="Chalkduster,Chalkduster" font-size="27.0" fill="#FEFFFE" transform="matrix(1.00, 0.00, -0.00, -1.00, 16.8, 52.0)">r</text><text xml:space="preserve" font-family="Chalkduster,Chalkduster" font-size="27.0" fill="#FEFFFE" transform="matrix(1.00, 0.00, -0.00, -1.00, 31.8, 52.0)">u</text><text xml:space="preserve" font-family="Chalkduster,Chalkduster" font-size="27.0" fill="#FEFFFE" transform="matrix(1.00, 0.00, -0.00, -1.00, 50.3, 52.0)">b</text><text xml:space="preserve" font-family="Chalkduster,Chalkduster" font-size="27.0" fill="#FEFFFE" transform="matrix(1.00, 0.00, -0.00, -1.00, 66.0, 52.0)">e</text><text xml:space="preserve" font-family="Chalkduster,Chalkduster" font-size="27.0" fill="#FEFFFE" transform="matrix(1.00, 0.00, -0.00, -1.00, 83.1, 52.0)">n</text><text xml:space="preserve" font-family="Chalkduster,Chalkduster" font-size="27.0" fill="#FEFFFE" transform="matrix(1.00, 0.00, -0.00, -1.00, 102.8, 52.0)">@</text><text xml:space="preserve" font-family="Chalkduster,Chalkduster" font-size="27.0" fill="#FEFFFE" transform="matrix(1.00, 0.00, -0.00, -1.00, 125.4, 52.0)">o</text><text xml:space="preserve" font-family="Chalkduster,Chalkduster" font-size="27.0" fill="#FEFFFE" transform="matrix(1.00, 0.00, -0.00, -1.00, 145.6, 52.0)">u</text><text xml:space="preserve" font-family="Chalkduster,Chalkduster" font-size="27.0" fill="#FEFFFE" transform="matrix(1.00, 0.00, -0.00, -1.00, 163.9, 52.0)">t</text><text xml:space="preserve" font-family="Chalkduster,Chalkduster" font-size="27.0" fill="#FEFFFE" transform="matrix(1.00, 0.00, -0.00, -1.00, 175.9, 52.0)">e</text><text xml:space="preserve" font-family="Chalkduster,Chalkduster" font-size="27.0" fill="#FEFFFE" transform="matrix(1.00, 0.00, -0.00, -1.00, 192.4, 52.0)">r</text><text xml:space="preserve" font-family="Chalkduster,Chalkduster" font-size="27.0" fill="#FEFFFE" transform="matrix(1.00, 0.00, -0.00, -1.00, 206.3, 52.0)">s</text><text xml:space="preserve" font-family="Chalkduster,Chalkduster" font-size="27.0" fill="#FEFFFE" transform="matrix(1.00, 0.00, -0.00, -1.00, 219.9, 52.0)">p</text><text xml:space="preserve" font-family="Chalkduster,Chalkduster" font-size="27.0" fill="#FEFFFE" transform="matrix(1.00, 0.00, -0.00, -1.00, 236.6, 52.0)">a</text><text xml:space="preserve" font-family="Chalkduster,Chalkduster" font-size="27.0" fill="#FEFFFE" transform="matrix(1.00, 0.00, -0.00, -1.00, 254.4, 52.0)">c</text><text xml:space="preserve" font-family="Chalkduster,Chalkduster" font-size="27.0" fill="#FEFFFE" transform="matrix(1.00, 0.00, -0.00, -1.00, 270.7, 52.0)">e</text><text xml:space="preserve" font-family="Chalkduster,Chalkduster" font-size="27.0" fill="#FEFFFE" transform="matrix(1.00, 0.00, -0.00, -1.00, 287.9, 52.0)">c</text><text xml:space="preserve" font-family="Chalkduster,Chalkduster" font-size="27.0" fill="#FEFFFE" transform="matrix(1.00, 0.00, -0.00, -1.00, 304.0, 52.0)">o</text><text xml:space="preserve" font-family="Chalkduster,Chalkduster" font-size="27.0" fill="#FEFFFE" transform="matrix(1.00, 0.00, -0.00, -1.00, 324.7, 52.0)">d</text><text xml:space="preserve" font-family="Chalkduster,Chalkduster" font-size="27.0" fill="#FEFFFE" transform="matrix(1.00, 0.00, -0.00, -1.00, 345.8, 52.0)">e</text><text xml:space="preserve" font-family="Chalkduster,Chalkduster" font-size="27.0" fill="#FEFFFE" transform="matrix(1.00, 0.00, -0.00, -1.00, 362.2, 52.0)">r</text><text xml:space="preserve" font-family="Chalkduster,Chalkduster" font-size="27.0" fill="#FEFFFE" transform="matrix(1.00, 0.00, -0.00, -1.00, 376.2, 52.0)">s</text><text xml:space="preserve" font-family="Chalkduster,Chalkduster" font-size="27.0" fill="#FEFFFE" transform="matrix(1.00, 0.00, -0.00, -1.00, 389.2, 52.0)">.</text><text xml:space="preserve" font-family="Chalkduster,Chalkduster" font-size="27.0" fill="#FEFFFE" transform="matrix(1.00, 0.00, -0.00, -1.00, 397.4, 52.0)">c</text><text xml:space="preserve" font-family="Chalkduster,Chalkduster" font-size="27.0" fill="#FEFFFE" transform="matrix(1.00, 0.00, -0.00, -1.00, 413.5, 52.0)">o</text><text xml:space="preserve" font-family="Chalkduster,Chalkduster" font-size="27.0" fill="#FEFFFE" transform="matrix(1.00, 0.00, -0.00, -1.00, 433.7, 52.0)">m</text><text xml:space="preserve" font-family="Chalkduster,Chalkduster" font-size="27.0" fill="#FEFFFE" transform="matrix(1.00, 0.00, -0.00, -1.00, 461.0, 52.0)"> </text><g><clipPath id="clip0x6080048b7dc0"><path d="M 15.8 46.7 L 461.0 46.7 L 461.0 49.3 L 15.8 49.3 Z M 15.8 46.7 "></path></clipPath><g clip-path="url(#clip0x6080048b7dc0)"><path d="M 375.8 82.0 L 820.0 82.0 " fill="none" stroke="#FEFFFE" stroke-width="0.60" transform="matrix(1.00, 0.00, 0.00, -1.00, -359.0, 130.0)"></path></g></g><text xml:space="preserve" font-family="Chalkduster,Chalkduster" font-size="27.0" fill="#FEFFFE" transform="matrix(1.00, 0.00, -0.00, -1.00, 107.9, 11.0)">r</text><text xml:space="preserve" font-family="Chalkduster,Chalkduster" font-size="27.0" fill="#FEFFFE" transform="matrix(1.00, 0.00, -0.00, -1.00, 122.8, 11.0)">u</text><text xml:space="preserve" font-family="Chalkduster,Chalkduster" font-size="27.0" fill="#FEFFFE" transform="matrix(1.00, 0.00, -0.00, -1.00, 141.4, 11.0)">b</text><text xml:space="preserve" font-family="Chalkduster,Chalkduster" font-size="27.0" fill="#FEFFFE" transform="matrix(1.00, 0.00, -0.00, -1.00, 157.1, 11.0)">e</text><text xml:space="preserve" font-family="Chalkduster,Chalkduster" font-size="27.0" fill="#FEFFFE" transform="matrix(1.00, 0.00, -0.00, -1.00, 174.1, 11.0)">n</text><text xml:space="preserve" font-family="Chalkduster,Chalkduster" font-size="27.0" fill="#FEFFFE" transform="matrix(1.00, 0.00, -0.00, -1.00, 193.9, 11.0)">b</text><text xml:space="preserve" font-family="Chalkduster,Chalkduster" font-size="27.0" fill="#FEFFFE" transform="matrix(1.00, 0.00, -0.00, -1.00, 209.6, 11.0)">c</text><text xml:space="preserve" font-family="Chalkduster,Chalkduster" font-size="27.0" fill="#FEFFFE" transform="matrix(1.00, 0.00, -0.00, -1.00, 226.5, 11.0)">h</text><text xml:space="preserve" font-family="Chalkduster,Chalkduster" font-size="27.0" fill="#FEFFFE" transform="matrix(1.00, 0.00, -0.00, -1.00, 243.2, 11.0)">0</text><text xml:space="preserve" font-family="Chalkduster,Chalkduster" font-size="27.0" fill="#FEFFFE" transform="matrix(1.00, 0.00, -0.00, -1.00, 261.8, 11.0)">5</text><text xml:space="preserve" font-family="Chalkduster,Chalkduster" font-size="27.0" fill="#FEFFFE" transform="matrix(1.00, 0.00, -0.00, -1.00, 279.0, 11.0)">@</text><text xml:space="preserve" font-family="Chalkduster,Chalkduster" font-size="27.0" fill="#FEFFFE" transform="matrix(1.00, 0.00, -0.00, -1.00, 301.6, 11.0)">g</text><text xml:space="preserve" font-family="Chalkduster,Chalkduster" font-size="27.0" fill="#FEFFFE" transform="matrix(1.00, 0.00, -0.00, -1.00, 320.0, 11.0)">m</text><text xml:space="preserve" font-family="Chalkduster,Chalkduster" font-size="27.0" fill="#FEFFFE" transform="matrix(1.00, 0.00, -0.00, -1.00, 347.3, 11.0)">a</text><text xml:space="preserve" font-family="Chalkduster,Chalkduster" font-size="27.0" fill="#FEFFFE" transform="matrix(1.00, 0.00, -0.00, -1.00, 365.9, 11.0)">i</text><text xml:space="preserve" font-family="Chalkduster,Chalkduster" font-size="27.0" fill="#FEFFFE" transform="matrix(1.00, 0.00, -0.00, -1.00, 376.8, 11.0)">l</text><text xml:space="preserve" font-family="Chalkduster,Chalkduster" font-size="27.0" fill="#FEFFFE" transform="matrix(1.00, 0.00, -0.00, -1.00, 389.2, 11.0)">.</text><text xml:space="preserve" font-family="Chalkduster,Chalkduster" font-size="27.0" fill="#FEFFFE" transform="matrix(1.00, 0.00, -0.00, -1.00, 397.3, 11.0)">c</text><text xml:space="preserve" font-family="Chalkduster,Chalkduster" font-size="27.0" fill="#FEFFFE" transform="matrix(1.00, 0.00, -0.00, -1.00, 413.5, 11.0)">o</text><text xml:space="preserve" font-family="Chalkduster,Chalkduster" font-size="27.0" fill="#FEFFFE" transform="matrix(1.00, 0.00, -0.00, -1.00, 433.7, 11.0)">m</text><text xml:space="preserve" font-family="Chalkduster,Chalkduster" font-size="27.0" fill="#FEFFFE" transform="matrix(1.00, 0.00, -0.00, -1.00, 461.0, 11.0)"> </text><g><clipPath id="clip0x6000048aba00"><path d="M 106.9 5.7 L 461.0 5.7 L 461.0 8.3 L 106.9 8.3 Z M 106.9 5.7 "></path></clipPath><g clip-path="url(#clip0x6000048aba00)"><path d="M 466.9 123.0 L 820.0 123.0 " fill="none" stroke="#FEFFFE" stroke-width="0.60" transform="matrix(1.00, 0.00, 0.00, -1.00, -359.0, 130.0)"></path></g></g></g></svg>