<?xml version="1.0" encoding="UTF-8" standalone="no"?><svg xmlns="http://www.w3.org/2000/svg" xmlns:xlink="http://www.w3.org/1999/xlink" clip-rule="evenodd" stroke-miterlimit="10" viewBox="0 0 808 92"><desc>SVG generated by Keynote</desc><defs></defs><g transform="matrix(1.00, 0.00, -0.00, -1.00, 0.0, 92.0)"><text xml:space="preserve" font-family="Chalkduster,Chalkduster" font-size="65.5" fill="#FEFFFE" transform="matrix(1.00, 0.00, -0.00, -1.00, 0.2, 38.0)">D</text><text xml:space="preserve" font-family="Chalkduster,Chalkduster" font-size="65.5" fill="#FEFFFE" transform="matrix(1.00, 0.00, -0.00, -1.00, 46.0, 38.0)">r</text><text xml:space="preserve" font-family="Chalkduster,Chalkduster" font-size="65.5" fill="#FEFFFE" transform="matrix(1.00, 0.00, -0.00, -1.00, 82.3, 38.0)">u</text><text xml:space="preserve" font-family="Chalkduster,Chalkduster" font-size="65.5" fill="#FEFFFE" transform="matrix(1.00, 0.00, -0.00, -1.00, 128.4, 38.0)">p</text><text xml:space="preserve" font-family="Chalkduster,Chalkduster" font-size="65.5" fill="#FEFFFE" transform="matrix(1.00, 0.00, -0.00, -1.00, 168.8, 38.0)">a</text><text xml:space="preserve" font-family="Chalkduster,Chalkduster" font-size="65.5" fill="#FEFFFE" transform="matrix(1.00, 0.00, -0.00, -1.00, 211.3, 38.0)">l</text><text xml:space="preserve" font-family="Chalkduster,Chalkduster" font-size="65.5" fill="#FEFFFE" transform="matrix(1.00, 0.00, -0.00, -1.00, 242.0, 38.0)"> </text><text xml:space="preserve" font-family="Chalkduster,Chalkduster" font-size="65.5" fill="#FEFFFE" transform="matrix(1.00, 0.00, -0.00, -1.00, 274.6, 38.0)">S</text><text xml:space="preserve" font-family="Chalkduster,Chalkduster" font-size="65.5" fill="#FEFFFE" transform="matrix(1.00, 0.00, -0.00, -1.00, 307.2, 38.0)">i</text><text xml:space="preserve" font-family="Chalkduster,Chalkduster" font-size="65.5" fill="#FEFFFE" transform="matrix(1.00, 0.00, -0.00, -1.00, 333.1, 38.0)">n</text><text xml:space="preserve" font-family="Chalkduster,Chalkduster" font-size="65.5" fill="#FEFFFE" transform="matrix(1.00, 0.00, -0.00, -1.00, 381.1, 38.0)"> </text><text xml:space="preserve" font-family="Chalkduster,Chalkduster" font-size="65.5" fill="#FEFFFE" transform="matrix(1.00, 0.00, -0.00, -1.00, 413.7, 38.0)">P</text><text xml:space="preserve" font-family="Chalkduster,Chalkduster" font-size="65.5" fill="#FEFFFE" transform="matrix(1.00, 0.00, -0.00, -1.00, 459.3, 38.0)">r</text><text xml:space="preserve" font-family="Chalkduster,Chalkduster" font-size="65.5" fill="#FEFFFE" transform="matrix(1.00, 0.00, -0.00, -1.00, 492.9, 38.0)">o</text><text xml:space="preserve" font-family="Chalkduster,Chalkduster" font-size="65.5" fill="#FEFFFE" transform="matrix(1.00, 0.00, -0.00, -1.00, 541.0, 38.0)">g</text><text xml:space="preserve" font-family="Chalkduster,Chalkduster" font-size="65.5" fill="#FEFFFE" transform="matrix(1.00, 0.00, -0.00, -1.00, 587.5, 38.0)">r</text><text xml:space="preserve" font-family="Chalkduster,Chalkduster" font-size="65.5" fill="#FEFFFE" transform="matrix(1.00, 0.00, -0.00, -1.00, 622.1, 38.0)">a</text><text xml:space="preserve" font-family="Chalkduster,Chalkduster" font-size="65.5" fill="#FEFFFE" transform="matrix(1.00, 0.00, -0.00, -1.00, 665.2, 38.0)">m</text><text xml:space="preserve" font-family="Chalkduster,Chalkduster" font-size="65.5" fill="#FEFFFE" transform="matrix(1.00, 0.00, -0.00, -1.00, 731.5, 38.0)">a</text><text xml:space="preserve" font-family="Chalkduster,Chalkduster" font-size="65.5" fill="#FEFFFE" transform="matrix(1.00, 0.00, -0.00, -1.00, 773.2, 38.0)">r</text></g></svg>