<?xml version="1.0" encoding="UTF-8" standalone="no"?><svg xmlns="http://www.w3.org/2000/svg" xmlns:xlink="http://www.w3.org/1999/xlink" clip-rule="evenodd" stroke-miterlimit="10" viewBox="0 0 330 31"><desc>SVG generated by Keynote</desc><defs></defs><g transform="matrix(1.00, 0.00, -0.00, -1.00, 0.0, 31.0)"><text xml:space="preserve" font-family="Chalkduster,Chalkduster" font-size="28.0" fill="#FEFFFE" transform="matrix(1.00, 0.00, -0.00, -1.00, 0.9, 4.6)">3</text><text xml:space="preserve" font-family="Chalkduster,Chalkduster" font-size="28.0" fill="#FEFFFE" transform="matrix(1.00, 0.00, -0.00, -1.00, 20.2, 4.6)">1</text><text xml:space="preserve" font-family="Chalkduster,Chalkduster" font-size="28.0" fill="#FEFFFE" transform="matrix(1.00, 0.00, -0.00, -1.00, 37.1, 4.6)"> </text><text xml:space="preserve" font-family="Chalkduster,Chalkduster" font-size="28.0" fill="#FEFFFE" transform="matrix(1.00, 0.00, -0.00, -1.00, 51.1, 4.6)">d</text><text xml:space="preserve" font-family="Chalkduster,Chalkduster" font-size="28.0" fill="#FEFFFE" transform="matrix(1.00, 0.00, -0.00, -1.00, 72.9, 4.6)">e</text><text xml:space="preserve" font-family="Chalkduster,Chalkduster" font-size="28.0" fill="#FEFFFE" transform="matrix(1.00, 0.00, -0.00, -1.00, 90.3, 4.6)"> </text><text xml:space="preserve" font-family="Chalkduster,Chalkduster" font-size="28.0" fill="#FEFFFE" transform="matrix(1.00, 0.00, -0.00, -1.00, 104.2, 4.6)">J</text><text xml:space="preserve" font-family="Chalkduster,Chalkduster" font-size="28.0" fill="#FEFFFE" transform="matrix(1.00, 0.00, -0.00, -1.00, 119.6, 4.6)">u</text><text xml:space="preserve" font-family="Chalkduster,Chalkduster" font-size="28.0" fill="#FEFFFE" transform="matrix(1.00, 0.00, -0.00, -1.00, 139.6, 4.6)">l</text><text xml:space="preserve" font-family="Chalkduster,Chalkduster" font-size="28.0" fill="#FEFFFE" transform="matrix(1.00, 0.00, -0.00, -1.00, 153.0, 4.6)">i</text><text xml:space="preserve" font-family="Chalkduster,Chalkduster" font-size="28.0" fill="#FEFFFE" transform="matrix(1.00, 0.00, -0.00, -1.00, 164.1, 4.6)">o</text><text xml:space="preserve" font-family="Chalkduster,Chalkduster" font-size="28.0" fill="#FEFFFE" transform="matrix(1.00, 0.00, -0.00, -1.00, 184.2, 4.6)"> </text><text xml:space="preserve" font-family="Chalkduster,Chalkduster" font-size="28.0" fill="#FEFFFE" transform="matrix(1.00, 0.00, -0.00, -1.00, 198.2, 4.6)">d</text><text xml:space="preserve" font-family="Chalkduster,Chalkduster" font-size="28.0" fill="#FEFFFE" transform="matrix(1.00, 0.00, -0.00, -1.00, 220.0, 4.6)">e</text><text xml:space="preserve" font-family="Chalkduster,Chalkduster" font-size="28.0" fill="#FEFFFE" transform="matrix(1.00, 0.00, -0.00, -1.00, 237.4, 4.6)"> </text><text xml:space="preserve" font-family="Chalkduster,Chalkduster" font-size="28.0" fill="#FEFFFE" transform="matrix(1.00, 0.00, -0.00, -1.00, 251.3, 4.6)">2</text><text xml:space="preserve" font-family="Chalkduster,Chalkduster" font-size="28.0" fill="#FEFFFE" transform="matrix(1.00, 0.00, -0.00, -1.00, 267.1, 4.6)">0</text><text xml:space="preserve" font-family="Chalkduster,Chalkduster" font-size="28.0" fill="#FEFFFE" transform="matrix(1.00, 0.00, -0.00, -1.00, 286.4, 4.6)">1</text><text xml:space="preserve" font-family="Chalkduster,Chalkduster" font-size="28.0" fill="#FEFFFE" transform="matrix(1.00, 0.00, -0.00, -1.00, 303.3, 4.6)">4</text></g></svg>