<?xml version="1.0" encoding="UTF-8" standalone="no"?><svg xmlns="http://www.w3.org/2000/svg" xmlns:xlink="http://www.w3.org/1999/xlink" clip-rule="evenodd" stroke-miterlimit="10" viewBox="0 0 395 87"><desc>SVG generated by Keynote</desc><defs></defs><g transform="matrix(1.00, 0.00, -0.00, -1.00, 0.0, 87.0)"><text xml:space="preserve" font-family="Chalkduster,Chalkduster" font-size="72.0" fill="#FEFFFE" transform="matrix(1.00, 0.00, -0.00, -1.00, -0.8, 27.3)">P</text><text xml:space="preserve" font-family="Chalkduster,Chalkduster" font-size="72.0" fill="#FEFFFE" transform="matrix(1.00, 0.00, -0.00, -1.00, 49.3, 27.3)">r</text><text xml:space="preserve" font-family="Chalkduster,Chalkduster" font-size="72.0" fill="#FEFFFE" transform="matrix(1.00, 0.00, -0.00, -1.00, 85.7, 27.3)">e</text><text xml:space="preserve" font-family="Chalkduster,Chalkduster" font-size="72.0" fill="#FEFFFE" transform="matrix(1.00, 0.00, -0.00, -1.00, 128.1, 27.3)">g</text><text xml:space="preserve" font-family="Chalkduster,Chalkduster" font-size="72.0" fill="#FEFFFE" transform="matrix(1.00, 0.00, -0.00, -1.00, 177.2, 27.3)">u</text><text xml:space="preserve" font-family="Chalkduster,Chalkduster" font-size="72.0" fill="#FEFFFE" transform="matrix(1.00, 0.00, -0.00, -1.00, 227.7, 27.3)">n</text><text xml:space="preserve" font-family="Chalkduster,Chalkduster" font-size="72.0" fill="#FEFFFE" transform="matrix(1.00, 0.00, -0.00, -1.00, 277.8, 27.3)">t</text><text xml:space="preserve" font-family="Chalkduster,Chalkduster" font-size="72.0" fill="#FEFFFE" transform="matrix(1.00, 0.00, -0.00, -1.00, 310.0, 27.3)">a</text><text xml:space="preserve" font-family="Chalkduster,Chalkduster" font-size="72.0" fill="#FEFFFE" transform="matrix(1.00, 0.00, -0.00, -1.00, 360.5, 27.3)">s</text></g></svg>