<?xml version="1.0" encoding="UTF-8" standalone="no"?><svg xmlns="http://www.w3.org/2000/svg" xmlns:xlink="http://www.w3.org/1999/xlink" clip-rule="evenodd" stroke-miterlimit="10" viewBox="0 0 818 49"><desc>SVG generated by Keynote</desc><defs></defs><g transform="matrix(1.00, 0.00, -0.00, -1.00, 0.0, 49.0)"><text xml:space="preserve" font-family="Chalkduster,Chalkduster" font-size="31.0" fill="#FEFFFE" transform="matrix(1.00, 0.00, -0.00, -1.00, -0.7, 18.2)">O</text><text xml:space="preserve" font-family="Chalkduster,Chalkduster" font-size="31.0" fill="#FEFFFE" transform="matrix(1.00, 0.00, -0.00, -1.00, 21.7, 18.2)">t</text><text xml:space="preserve" font-family="Chalkduster,Chalkduster" font-size="31.0" fill="#FEFFFE" transform="matrix(1.00, 0.00, -0.00, -1.00, 35.9, 18.2)">r</text><text xml:space="preserve" font-family="Chalkduster,Chalkduster" font-size="31.0" fill="#FEFFFE" transform="matrix(1.00, 0.00, -0.00, -1.00, 51.7, 18.2)">o</text><text xml:space="preserve" font-family="Chalkduster,Chalkduster" font-size="31.0" fill="#FEFFFE" transform="matrix(1.00, 0.00, -0.00, -1.00, 74.3, 18.2)">s</text><text xml:space="preserve" font-family="Chalkduster,Chalkduster" font-size="31.0" fill="#FEFFFE" transform="matrix(1.00, 0.00, -0.00, -1.00, 89.9, 18.2)"> </text><text xml:space="preserve" font-family="Chalkduster,Chalkduster" font-size="31.0" fill="#FEFFFE" transform="matrix(1.00, 0.00, -0.00, -1.00, 105.3, 18.2)">f</text><text xml:space="preserve" font-family="Chalkduster,Chalkduster" font-size="31.0" fill="#FEFFFE" transform="matrix(1.00, 0.00, -0.00, -1.00, 120.8, 18.2)">a</text><text xml:space="preserve" font-family="Chalkduster,Chalkduster" font-size="31.0" fill="#FEFFFE" transform="matrix(1.00, 0.00, -0.00, -1.00, 141.2, 18.2)">c</text><text xml:space="preserve" font-family="Chalkduster,Chalkduster" font-size="31.0" fill="#FEFFFE" transform="matrix(1.00, 0.00, -0.00, -1.00, 159.6, 18.2)">t</text><text xml:space="preserve" font-family="Chalkduster,Chalkduster" font-size="31.0" fill="#FEFFFE" transform="matrix(1.00, 0.00, -0.00, -1.00, 172.3, 18.2)">o</text><text xml:space="preserve" font-family="Chalkduster,Chalkduster" font-size="31.0" fill="#FEFFFE" transform="matrix(1.00, 0.00, -0.00, -1.00, 194.9, 18.2)">r</text><text xml:space="preserve" font-family="Chalkduster,Chalkduster" font-size="31.0" fill="#FEFFFE" transform="matrix(1.00, 0.00, -0.00, -1.00, 210.6, 18.2)">e</text><text xml:space="preserve" font-family="Chalkduster,Chalkduster" font-size="31.0" fill="#FEFFFE" transform="matrix(1.00, 0.00, -0.00, -1.00, 230.5, 18.2)">s</text><text xml:space="preserve" font-family="Chalkduster,Chalkduster" font-size="31.0" fill="#FEFFFE" transform="matrix(1.00, 0.00, -0.00, -1.00, 246.1, 18.2)"> </text><text xml:space="preserve" font-family="Chalkduster,Chalkduster" font-size="31.0" fill="#FEFFFE" transform="matrix(1.00, 0.00, -0.00, -1.00, 261.5, 18.2)">q</text><text xml:space="preserve" font-family="Chalkduster,Chalkduster" font-size="31.0" fill="#FEFFFE" transform="matrix(1.00, 0.00, -0.00, -1.00, 281.5, 18.2)">u</text><text xml:space="preserve" font-family="Chalkduster,Chalkduster" font-size="31.0" fill="#FEFFFE" transform="matrix(1.00, 0.00, -0.00, -1.00, 302.8, 18.2)">e</text><text xml:space="preserve" font-family="Chalkduster,Chalkduster" font-size="31.0" fill="#FEFFFE" transform="matrix(1.00, 0.00, -0.00, -1.00, 322.0, 18.2)"> </text><text xml:space="preserve" font-family="Chalkduster,Chalkduster" font-size="31.0" fill="#FEFFFE" transform="matrix(1.00, 0.00, -0.00, -1.00, 337.4, 18.2)">i</text><text xml:space="preserve" font-family="Chalkduster,Chalkduster" font-size="31.0" fill="#FEFFFE" transform="matrix(1.00, 0.00, -0.00, -1.00, 349.6, 18.2)">n</text><text xml:space="preserve" font-family="Chalkduster,Chalkduster" font-size="31.0" fill="#FEFFFE" transform="matrix(1.00, 0.00, -0.00, -1.00, 372.3, 18.2)">f</text><text xml:space="preserve" font-family="Chalkduster,Chalkduster" font-size="31.0" fill="#FEFFFE" transform="matrix(1.00, 0.00, -0.00, -1.00, 388.8, 18.2)">l</text><text xml:space="preserve" font-family="Chalkduster,Chalkduster" font-size="31.0" fill="#FEFFFE" transform="matrix(1.00, 0.00, -0.00, -1.00, 403.0, 18.2)">u</text><text xml:space="preserve" font-family="Chalkduster,Chalkduster" font-size="31.0" fill="#FEFFFE" transform="matrix(1.00, 0.00, -0.00, -1.00, 424.3, 18.2)">y</text><text xml:space="preserve" font-family="Chalkduster,Chalkduster" font-size="31.0" fill="#FEFFFE" transform="matrix(1.00, 0.00, -0.00, -1.00, 442.0, 18.2)">e</text><text xml:space="preserve" font-family="Chalkduster,Chalkduster" font-size="31.0" fill="#FEFFFE" transform="matrix(1.00, 0.00, -0.00, -1.00, 461.5, 18.2)">n</text><text xml:space="preserve" font-family="Chalkduster,Chalkduster" font-size="31.0" fill="#FEFFFE" transform="matrix(1.00, 0.00, -0.00, -1.00, 484.2, 18.2)"> </text><text xml:space="preserve" font-family="Chalkduster,Chalkduster" font-size="31.0" fill="#FEFFFE" transform="matrix(1.00, 0.00, -0.00, -1.00, 499.6, 18.2)">e</text><text xml:space="preserve" font-family="Chalkduster,Chalkduster" font-size="31.0" fill="#FEFFFE" transform="matrix(1.00, 0.00, -0.00, -1.00, 519.1, 18.2)">n</text><text xml:space="preserve" font-family="Chalkduster,Chalkduster" font-size="31.0" fill="#FEFFFE" transform="matrix(1.00, 0.00, -0.00, -1.00, 541.8, 18.2)"> </text><text xml:space="preserve" font-family="Chalkduster,Chalkduster" font-size="31.0" fill="#FEFFFE" transform="matrix(1.00, 0.00, -0.00, -1.00, 557.2, 18.2)">e</text><text xml:space="preserve" font-family="Chalkduster,Chalkduster" font-size="31.0" fill="#FEFFFE" transform="matrix(1.00, 0.00, -0.00, -1.00, 576.4, 18.2)">l</text><text xml:space="preserve" font-family="Chalkduster,Chalkduster" font-size="31.0" fill="#FEFFFE" transform="matrix(1.00, 0.00, -0.00, -1.00, 591.0, 18.2)"> </text><text xml:space="preserve" font-family="Chalkduster,Chalkduster" font-size="31.0" fill="#FEFFFE" transform="matrix(1.00, 0.00, -0.00, -1.00, 606.4, 18.2)">a</text><text xml:space="preserve" font-family="Chalkduster,Chalkduster" font-size="31.0" fill="#FEFFFE" transform="matrix(1.00, 0.00, -0.00, -1.00, 627.7, 18.2)">p</text><text xml:space="preserve" font-family="Chalkduster,Chalkduster" font-size="31.0" fill="#FEFFFE" transform="matrix(1.00, 0.00, -0.00, -1.00, 646.8, 18.2)">r</text><text xml:space="preserve" font-family="Chalkduster,Chalkduster" font-size="31.0" fill="#FEFFFE" transform="matrix(1.00, 0.00, -0.00, -1.00, 662.5, 18.2)">e</text><text xml:space="preserve" font-family="Chalkduster,Chalkduster" font-size="31.0" fill="#FEFFFE" transform="matrix(1.00, 0.00, -0.00, -1.00, 682.0, 18.2)">n</text><text xml:space="preserve" font-family="Chalkduster,Chalkduster" font-size="31.0" fill="#FEFFFE" transform="matrix(1.00, 0.00, -0.00, -1.00, 704.7, 18.2)">d</text><text xml:space="preserve" font-family="Chalkduster,Chalkduster" font-size="31.0" fill="#FEFFFE" transform="matrix(1.00, 0.00, -0.00, -1.00, 730.2, 18.2)">i</text><text xml:space="preserve" font-family="Chalkduster,Chalkduster" font-size="31.0" fill="#FEFFFE" transform="matrix(1.00, 0.00, -0.00, -1.00, 742.4, 18.2)">z</text><text xml:space="preserve" font-family="Chalkduster,Chalkduster" font-size="31.0" fill="#FEFFFE" transform="matrix(1.00, 0.00, -0.00, -1.00, 762.5, 18.2)">a</text><text xml:space="preserve" font-family="Chalkduster,Chalkduster" font-size="31.0" fill="#FEFFFE" transform="matrix(1.00, 0.00, -0.00, -1.00, 782.4, 18.2)">j</text><text xml:space="preserve" font-family="Chalkduster,Chalkduster" font-size="31.0" fill="#FEFFFE" transform="matrix(1.00, 0.00, -0.00, -1.00, 797.5, 18.2)">e</text></g></svg>